<svg width="522" height="296" viewBox="0 0 522 296" fill="none" xmlns="http://www.w3.org/2000/svg">
<ellipse cx="261" cy="148" rx="261" ry="148" fill="url(#paint0_radial)"/>
<g clip-path="url(#clip0)">
<path opacity="0.3" d="M178.97 132.45L196.85 122.13C198.61 121.12 201.46 121.12 203.22 122.13L252.57 150.62C254.33 151.63 254.33 153.28 252.57 154.3L234.69 164.62C232.93 165.63 230.08 165.63 228.32 164.62L178.97 136.13C177.21 135.11 177.21 133.47 178.97 132.45Z" fill="#173D7A"/>
<path opacity="0.3" d="M210.89 113.63L228.77 103.31C230.53 102.3 233.38 102.3 235.14 103.31L284.49 131.8C286.25 132.81 286.25 134.46 284.49 135.48L266.61 145.8C264.85 146.81 262 146.81 260.24 145.8L210.89 117.31C209.14 116.29 209.14 114.64 210.89 113.63Z" fill="#173D7A"/>
<path opacity="0.3" d="M102.5 252.16L160.27 219.22C162.38 218 162.12 215.87 159.68 214.46L126.44 195.27C124 193.86 120.31 193.71 118.2 194.93L60.43 227.87C58.32 229.09 58.58 231.22 61.02 232.63L94.26 251.82C96.7 253.23 100.39 253.38 102.5 252.16Z" fill="#173D7A"/>
<path d="M210.3 102.32C207.19 104.12 207.19 107.04 210.3 108.83L263.16 139.35C264.01 139.84 265.4 139.84 266.26 139.35C267.11 138.86 267.11 138.06 266.26 137.56L213.4 107.04C212 106.23 212 104.91 213.4 104.1L218.52 101.14C217.95 100.28 217.43 99.39 216.93 98.48L210.3 102.32Z" fill="#D4ECFF"/>
<path d="M285.16 126.64L232.3 96.12C229.19 94.32 224.13 94.32 221.02 96.12L216.92 98.49C217.43 99.4 217.94 100.29 218.51 101.15L224.11 97.91C225.51 97.1 227.79 97.1 229.2 97.91L282.06 128.43C282.91 128.92 284.3 128.92 285.16 128.43C286.02 127.93 286.02 127.13 285.16 126.64Z" fill="#5793CE"/>
<path d="M285.8 127.6V53.27L230.41 22.4L222.67 21.88L215.18 26.74L210.58 30.74L264.55 116.32L282.17 126.7L285.8 127.6Z" fill="#5793CE"/>
<path d="M265.31 136.98L281.87 127.42V55.59L264.8 63.53L265.31 136.98Z" fill="#79B1E0"/>
<path d="M207.97 31.3099V105.51L266.12 138.77L266.89 138.46V64.1499L207.97 31.3099Z" fill="#D4ECFF"/>
<path d="M240.68 31.9299L229.12 25.2899C227.71 24.6399 225.65 24.6799 224.34 25.4299L213.61 31.6199C212.78 32.0999 212.44 32.7599 212.6 33.3799L241.8 50.8299L265.26 65.2299L281.87 55.5899L240.68 31.9299Z" fill="white"/>
<path d="M264.8 62.99V136.72V138.28V139.71C265.33 139.7 265.85 139.58 266.25 139.35C266.67 139.11 266.88 138.79 266.89 138.47V138.46V138.45V64.15L264.8 62.99Z" fill="#5793CE"/>
<path d="M285.8 54.2V53.27H285.51L285.42 53.9L285.8 54.2Z" fill="white"/>
<path d="M266.89 65.1199V64.1699L266.61 64.5699L266.89 65.1199Z" fill="white"/>
<path d="M263.16 65.03L210.3 34.52C207.19 32.72 207.19 29.8 210.3 28.01L221.03 21.82C224.14 20.02 229.2 20.02 232.31 21.82L285.17 52.34C286.02 52.83 286.02 53.63 285.17 54.13C284.32 54.62 282.93 54.62 282.07 54.13L229.21 23.6C227.81 22.79 225.53 22.79 224.12 23.6L213.39 29.79C211.99 30.6 211.99 31.92 213.39 32.73L266.25 63.25C267.1 63.74 267.1 64.54 266.25 65.04C265.4 65.53 264.01 65.53 263.16 65.03Z" fill="#D4ECFF"/>
<path d="M249.38 100.21L221.92 84.3499V56.8199L249.38 72.6799V100.21Z" fill="white"/>
<path d="M285.16 54.1199C284.31 54.6099 282.92 54.6099 282.06 54.1199L229.21 23.5999C227.81 22.7899 225.53 22.7899 224.12 23.5999L213.39 29.7899C212.47 30.3199 212.16 31.0699 212.44 31.7499C212.59 31.3899 212.9 31.0499 213.39 30.7699L224.12 24.5799C225.52 23.7699 227.8 23.7699 229.21 24.5799L282.07 55.0999C282.92 55.5899 284.31 55.5899 285.17 55.0999C285.82 54.7299 285.97 54.1799 285.64 53.7199C285.52 53.8599 285.37 53.9999 285.16 54.1199Z" fill="white"/>
<path d="M266.25 65.0299C265.4 65.5199 264.01 65.5199 263.15 65.0299L210.3 34.5199C208.96 33.7499 208.2 32.7599 208.02 31.7499C207.77 33.0899 208.53 34.4699 210.3 35.4999L263.16 66.0199C264.01 66.5099 265.4 66.5099 266.26 66.0199C266.91 65.6499 267.06 65.0999 266.73 64.6399C266.62 64.7699 266.46 64.9099 266.25 65.0299Z" fill="white"/>
<path d="M179.61 121.35C176.5 123.15 176.5 126.07 179.61 127.86L232.47 158.38C233.32 158.87 234.71 158.87 235.57 158.38C236.43 157.89 236.42 157.09 235.57 156.59L182.71 126.07C181.31 125.26 181.31 123.94 182.71 123.13L187.83 120.17C187.26 119.31 186.74 118.42 186.24 117.51L179.61 121.35Z" fill="#FF2C9C"/>
<path d="M254.47 145.68L201.61 115.16C198.5 113.36 193.44 113.36 190.33 115.16L186.23 117.53C186.74 118.44 187.25 119.33 187.82 120.19L193.42 116.95C194.82 116.14 197.1 116.14 198.51 116.95L251.37 147.47C252.22 147.96 253.61 147.96 254.47 147.47C255.33 146.97 255.33 146.17 254.47 145.68Z" fill="#D3008D"/>
<path d="M255.11 146.63V72.31L199.72 41.43L191.98 40.92L184.49 45.77L179.89 49.77L233.86 135.35L251.48 145.74L255.11 146.63Z" fill="#D3008D"/>
<path d="M234.62 156.02L251.18 146.46V74.63L234.11 82.56L234.62 156.02Z" fill="#E573B5"/>
<path d="M177.28 50.35V124.55L235.43 157.81L236.21 157.5V83.19L177.28 50.35Z" fill="#FF2C9C"/>
<path d="M209.991 50.96L198.431 44.32C197.021 43.67 194.961 43.71 193.651 44.46L182.921 50.65C182.091 51.13 181.751 51.79 181.911 52.41L211.111 69.86L234.571 84.26L251.181 74.62L209.991 50.96Z" fill="white"/>
<path d="M234.11 82.02V155.75V157.31V158.74C234.64 158.73 235.16 158.61 235.56 158.38C235.98 158.14 236.19 157.82 236.2 157.5V157.49V157.48V83.19L234.11 82.02Z" fill="#D3008D"/>
<path d="M255.11 73.2401V72.3101H254.82L254.73 72.9401L255.11 73.2401Z" fill="white"/>
<path d="M236.2 84.15V83.2L235.92 83.61L236.2 84.15Z" fill="white"/>
<path d="M232.47 84.07L179.61 53.55C176.5 51.75 176.5 48.83 179.61 47.04L190.34 40.85C193.45 39.05 198.51 39.05 201.62 40.85L254.48 71.37C255.33 71.86 255.33 72.66 254.48 73.16C253.63 73.66 252.24 73.65 251.38 73.16L198.52 42.64C197.12 41.83 194.84 41.83 193.43 42.64L182.7 48.83C181.3 49.64 181.3 50.96 182.7 51.77L235.56 82.29C236.41 82.78 236.41 83.58 235.56 84.08C234.71 84.58 233.32 84.56 232.47 84.07Z" fill="#FF2C9C"/>
<path d="M218.69 119.25L191.23 103.39V75.86L218.69 91.71V119.25Z" fill="white"/>
<path d="M254.471 73.15C253.621 73.64 252.231 73.64 251.371 73.15L198.511 42.63C197.111 41.82 194.831 41.82 193.421 42.63L182.691 48.82C181.771 49.35 181.461 50.1 181.741 50.78C181.891 50.42 182.201 50.08 182.691 49.8L193.421 43.61C194.821 42.8 197.101 42.8 198.511 43.61L251.371 74.13C252.221 74.62 253.611 74.62 254.471 74.13C255.121 73.76 255.271 73.21 254.941 72.75C254.831 72.89 254.681 73.03 254.471 73.15Z" fill="white"/>
<path d="M235.56 84.0699C234.71 84.5599 233.32 84.5599 232.46 84.0699L179.6 53.5499C178.26 52.7799 177.5 51.7899 177.32 50.7799C177.07 52.1199 177.83 53.4999 179.6 54.5299L232.46 85.0499C233.31 85.5399 234.7 85.5399 235.56 85.0499C236.21 84.6799 236.36 84.1299 236.03 83.6699C235.93 83.8099 235.77 83.9499 235.56 84.0699Z" fill="white"/>
<path opacity="0.3" d="M338.421 281.77L223.801 215.59C220.561 213.72 220.961 210.45 224.711 208.29L302.761 163.24C306.501 161.08 312.171 160.84 315.411 162.72L430.031 228.9C433.271 230.77 432.871 234.04 429.121 236.2L351.071 281.25C347.321 283.4 341.661 283.64 338.421 281.77Z" fill="#173D7A"/>
<path d="M462.651 101.91L342.931 32.79C341.541 31.99 340.131 31.86 338.871 32.29L338.881 32.28L338.661 32.36C338.641 32.37 338.621 32.37 338.611 32.38L334.281 34.04L338.161 35.94C338.141 36.01 338.121 36.08 338.101 36.15L318.601 124.91C317.621 129.35 319.581 134.54 322.971 136.49L439.811 203.95L439.391 208.9L444.121 207.07C445.711 206.33 446.981 204.65 447.511 202.25L467.011 113.49C467.991 109.05 466.031 103.87 462.651 101.91Z" fill="#173D7A"/>
<path d="M462.65 101.91L342.93 32.79C341.54 31.99 340.13 31.86 338.87 32.29L338.88 32.28L338.66 32.36C338.64 32.37 338.62 32.37 338.61 32.38L334.28 34.04L338.16 35.94C338.14 36.01 338.12 36.08 338.1 36.15L325.25 94.65L383.83 140.29L466.421 106.68C465.641 104.63 464.32 102.88 462.65 101.91Z" fill="#396CAA"/>
<path d="M458.131 115.56L467.241 111.68C467.411 108.15 465.951 104.5 463.551 102.55L449.121 108.62L458.131 115.56Z" fill="#274F89"/>
<path d="M435.24 208.44L315.52 139.32C312.13 137.36 310.18 132.18 311.15 127.74L330.65 38.9799C331.63 34.5399 335.16 32.5199 338.55 34.4799L458.27 103.6C461.66 105.56 463.61 110.74 462.64 115.18L443.14 203.94C442.16 208.38 438.63 210.39 435.24 208.44Z" fill="#D4ECFF"/>
<path d="M459.42 103.17L339.7 34.05C338.06 33.1 336.39 33.1 334.99 33.85C336.12 33.6 337.34 33.78 338.55 34.48L458.27 103.6C461.66 105.56 463.61 110.74 462.64 115.18L443.14 203.94C442.64 206.23 441.45 207.86 439.95 208.65C441.97 208.21 443.66 206.38 444.28 203.52L463.78 114.76C464.76 110.31 462.81 105.12 459.42 103.17Z" fill="white"/>
<path d="M432.64 201.84L320.05 136.87C316.95 135.08 315.16 130.33 316.06 126.27L333.9 45.04C334.79 40.98 338.03 39.13 341.13 40.92L453.72 105.89C456.82 107.68 458.61 112.43 457.71 116.49L439.87 197.72C438.98 201.78 435.74 203.63 432.64 201.84Z" fill="white"/>
<path d="M432.64 201.84L320.05 136.87C316.95 135.08 315.16 130.33 316.06 126.27L333.9 45.04C334.79 40.98 338.03 39.13 341.13 40.92L453.72 105.89C456.82 107.68 458.61 112.43 457.71 116.49L439.87 197.72C438.98 201.78 435.74 203.63 432.64 201.84Z" fill="#173D7A"/>
<path d="M433.63 201.44L321.04 136.47C317.94 134.68 316.15 129.93 317.05 125.87L334.89 44.64C335.34 42.58 336.4 41.1 337.73 40.36C335.95 40.82 334.47 42.49 333.91 45.04L316.07 126.27C315.18 130.34 316.97 135.08 320.06 136.87L432.65 201.84C434.18 202.72 435.74 202.71 437.04 202C435.97 202.27 434.79 202.11 433.63 201.44Z" fill="#5793CE"/>
<path d="M436.89 211.45L420.53 209.29L314.89 148.3C311.5 146.34 305.59 146.59 301.68 148.85L226.83 192.05L216.93 190.74V196.35H216.94C216.88 197.65 217.61 198.9 219.21 199.82L338.93 268.94C342.32 270.9 348.23 270.65 352.14 268.39L433.66 221.34C435.86 220.07 436.96 218.43 436.89 216.9V211.45Z" fill="#173D7A"/>
<path d="M357.52 172.91L350.01 168.58H267.5L226.82 192.05L216.92 190.74V196.35H216.93C216.87 197.65 217.6 198.9 219.2 199.82L338.92 268.94C340.71 269.97 343.21 270.39 345.74 270.22L357.52 172.91Z" fill="#396CAA"/>
<path d="M221.32 191.32L216.93 190.74V196.35H216.94C216.88 197.65 217.61 198.9 219.21 199.82L221.32 201.04V191.32Z" fill="#5793CE"/>
<path d="M340.13 269.5C343.34 270.72 347.93 270.45 351.36 268.8V256.28H340.13V269.5Z" fill="#274F89"/>
<path d="M338.93 263.34L219.21 194.22C215.82 192.26 216.25 188.85 220.16 186.59L301.68 139.54C305.59 137.28 311.51 137.04 314.89 138.99L434.61 208.11C438 210.07 437.57 213.48 433.66 215.74L352.14 262.79C348.23 265.05 342.31 265.29 338.93 263.34Z" fill="#D4ECFF"/>
<path d="M433.661 213.69L352.141 260.74C348.231 263 342.311 263.24 338.931 261.29L219.211 192.17C218.101 191.53 217.411 190.73 217.101 189.87C216.571 191.47 217.251 193.09 219.211 194.22L338.931 263.34C342.321 265.3 348.231 265.05 352.141 262.79L433.661 215.74C436.291 214.22 437.331 212.18 436.711 210.41C436.331 211.58 435.311 212.74 433.661 213.69Z" fill="white"/>
<path d="M270.131 171.33L264.711 168.2C264.281 167.95 264.331 167.51 264.831 167.22L271.221 163.53C271.721 163.24 272.481 163.21 272.921 163.46L278.341 166.59C278.771 166.84 278.721 167.28 278.221 167.57L271.831 171.26C271.321 171.55 270.561 171.59 270.131 171.33Z" fill="#5793CE"/>
<path d="M278.49 176.16L273.07 173.03C272.64 172.78 272.69 172.34 273.19 172.05L279.58 168.36C280.08 168.07 280.84 168.04 281.28 168.29L286.7 171.42C287.13 171.67 287.08 172.11 286.58 172.4L280.19 176.09C279.69 176.38 278.93 176.42 278.49 176.16Z" fill="#5793CE"/>
<path d="M286.861 180.99L281.441 177.86C281.011 177.61 281.061 177.17 281.561 176.88L287.951 173.19C288.451 172.9 289.211 172.87 289.651 173.12L295.071 176.25C295.501 176.5 295.451 176.94 294.951 177.23L288.561 180.92C288.051 181.21 287.291 181.24 286.861 180.99Z" fill="#5793CE"/>
<path d="M298.43 177.01L293.01 173.88C292.58 173.63 292.63 173.19 293.13 172.9L298.5 169.8C299 169.51 299.76 169.48 300.2 169.73L305.62 172.86C306.05 173.11 306 173.55 305.5 173.84L300.13 176.94C299.62 177.22 298.86 177.26 298.43 177.01Z" fill="#5793CE"/>
<path d="M306.791 181.83L301.371 178.7C300.941 178.45 300.991 178.01 301.491 177.72L306.861 174.62C307.361 174.33 308.121 174.3 308.561 174.55L313.981 177.68C314.411 177.93 314.361 178.37 313.861 178.66L308.491 181.76C307.991 182.05 307.231 182.09 306.791 181.83Z" fill="#5793CE"/>
<path d="M315.16 186.66L309.74 183.53C309.31 183.28 309.36 182.84 309.86 182.55L315.23 179.45C315.73 179.16 316.49 179.13 316.93 179.38L322.35 182.51C322.78 182.76 322.73 183.2 322.23 183.49L316.86 186.59C316.35 186.88 315.59 186.92 315.16 186.66Z" fill="#5793CE"/>
<path d="M323.521 191.49L318.101 188.36C317.671 188.11 317.721 187.67 318.221 187.38L323.591 184.28C324.091 183.99 324.851 183.96 325.291 184.21L330.711 187.34C331.141 187.59 331.091 188.03 330.591 188.32L325.221 191.42C324.721 191.71 323.961 191.75 323.521 191.49Z" fill="#5793CE"/>
<path d="M331.89 196.32L326.47 193.19C326.04 192.94 326.09 192.5 326.59 192.21L331.96 189.11C332.46 188.82 333.22 188.79 333.66 189.04L339.08 192.17C339.51 192.42 339.46 192.86 338.96 193.15L333.59 196.25C333.08 196.54 332.32 196.57 331.89 196.32Z" fill="#5793CE"/>
<path d="M340.251 201.15L334.831 198.02C334.401 197.77 334.451 197.33 334.951 197.04L340.321 193.94C340.821 193.65 341.581 193.62 342.021 193.87L347.441 197C347.871 197.25 347.821 197.69 347.321 197.98L341.951 201.08C341.451 201.37 340.691 201.4 340.251 201.15Z" fill="#5793CE"/>
<path d="M348.621 205.98L343.201 202.85C342.771 202.6 342.821 202.16 343.321 201.87L348.691 198.77C349.191 198.48 349.951 198.45 350.391 198.7L355.811 201.83C356.241 202.08 356.191 202.52 355.691 202.81L350.321 205.91C349.811 206.2 349.051 206.23 348.621 205.98Z" fill="#5793CE"/>
<path d="M356.981 210.81L351.561 207.68C351.131 207.43 351.181 206.99 351.681 206.7L357.051 203.6C357.551 203.31 358.311 203.28 358.751 203.53L364.171 206.66C364.601 206.91 364.551 207.35 364.051 207.64L358.681 210.74C358.181 211.03 357.421 211.06 356.981 210.81Z" fill="#5793CE"/>
<path d="M365.351 215.64L359.931 212.51C359.501 212.26 359.551 211.82 360.051 211.53L365.421 208.43C365.921 208.14 366.681 208.11 367.121 208.36L372.541 211.49C372.971 211.74 372.921 212.18 372.421 212.47L367.051 215.57C366.541 215.86 365.781 215.89 365.351 215.64Z" fill="#5793CE"/>
<path d="M373.711 220.47L368.291 217.34C367.861 217.09 367.911 216.65 368.411 216.36L373.781 213.26C374.281 212.97 375.041 212.94 375.481 213.19L380.901 216.32C381.331 216.57 381.281 217.01 380.781 217.3L375.411 220.4C374.911 220.69 374.151 220.72 373.711 220.47Z" fill="#5793CE"/>
<path d="M310.751 174.72L305.331 171.59C304.901 171.34 304.951 170.9 305.451 170.61L310.821 167.51C311.321 167.22 312.081 167.19 312.521 167.44L317.941 170.57C318.371 170.82 318.321 171.26 317.821 171.55L312.451 174.65C311.951 174.94 311.191 174.97 310.751 174.72Z" fill="#5793CE"/>
<path d="M302.26 169.82L296.84 166.69C296.41 166.44 296.46 166 296.96 165.71L302.33 162.61C302.83 162.32 303.59 162.29 304.03 162.54L309.45 165.67C309.88 165.92 309.83 166.36 309.33 166.65L303.96 169.75C303.46 170.04 302.7 170.07 302.26 169.82Z" fill="#5793CE"/>
<path d="M293.76 164.91L282.09 158.17C281.66 157.92 281.71 157.48 282.21 157.19L287.58 154.09C288.08 153.8 288.84 153.77 289.28 154.02L300.95 160.76C301.39 161.01 301.33 161.45 300.83 161.74L295.46 164.84C294.95 165.13 294.19 165.16 293.76 164.91Z" fill="#5793CE"/>
<path d="M299.701 158.94L290.231 153.47C289.801 153.22 289.851 152.78 290.351 152.49L295.721 149.39C296.221 149.1 296.981 149.07 297.421 149.32L306.891 154.79C307.321 155.04 307.271 155.48 306.771 155.77L301.401 158.87C300.901 159.16 300.141 159.19 299.701 158.94Z" fill="#5793CE"/>
<path d="M319.121 179.55L313.701 176.42C313.271 176.17 313.321 175.73 313.821 175.44L319.191 172.34C319.691 172.05 320.451 172.02 320.891 172.27L326.311 175.4C326.741 175.65 326.691 176.09 326.191 176.38L320.821 179.48C320.311 179.77 319.551 179.8 319.121 179.55Z" fill="#5793CE"/>
<path d="M327.481 184.38L322.061 181.25C321.631 181 321.681 180.56 322.181 180.27L327.551 177.17C328.051 176.88 328.811 176.85 329.251 177.1L334.671 180.23C335.101 180.48 335.051 180.92 334.551 181.21L329.181 184.31C328.681 184.6 327.921 184.63 327.481 184.38Z" fill="#5793CE"/>
<path d="M335.851 189.21L330.431 186.08C330.001 185.83 330.051 185.39 330.551 185.1L335.921 182C336.421 181.71 337.181 181.68 337.621 181.93L343.041 185.06C343.471 185.31 343.421 185.75 342.921 186.04L337.551 189.14C337.041 189.43 336.281 189.46 335.851 189.21Z" fill="#5793CE"/>
<path d="M344.211 194.04L338.791 190.91C338.361 190.66 338.411 190.22 338.911 189.93L344.281 186.83C344.781 186.54 345.541 186.51 345.981 186.76L351.401 189.89C351.831 190.14 351.781 190.58 351.281 190.87L345.911 193.97C345.411 194.26 344.651 194.29 344.211 194.04Z" fill="#5793CE"/>
<path d="M352.581 198.87L347.161 195.74C346.731 195.49 346.781 195.05 347.281 194.76L352.651 191.66C353.151 191.37 353.911 191.34 354.351 191.59L359.771 194.72C360.201 194.97 360.151 195.41 359.651 195.7L354.281 198.8C353.771 199.09 353.011 199.12 352.581 198.87Z" fill="#5793CE"/>
<path d="M360.941 203.7L355.521 200.57C355.091 200.32 355.141 199.88 355.641 199.59L361.011 196.49C361.511 196.2 362.271 196.17 362.711 196.42L368.131 199.55C368.561 199.8 368.511 200.24 368.011 200.53L362.641 203.63C362.141 203.92 361.381 203.95 360.941 203.7Z" fill="#5793CE"/>
<path d="M369.311 208.53L363.891 205.4C363.461 205.15 363.511 204.71 364.011 204.42L369.381 201.32C369.881 201.03 370.641 201 371.081 201.25L376.501 204.38C376.931 204.63 376.881 205.07 376.381 205.36L371.011 208.46C370.501 208.75 369.741 208.78 369.311 208.53Z" fill="#5793CE"/>
<path d="M377.671 213.36L372.251 210.23C371.821 209.98 371.871 209.54 372.371 209.25L377.741 206.15C378.241 205.86 379.001 205.83 379.441 206.08L384.861 209.21C385.291 209.46 385.241 209.9 384.741 210.19L379.371 213.29C378.871 213.58 378.111 213.61 377.671 213.36Z" fill="#5793CE"/>
<path d="M386.041 218.19L380.621 215.06C380.191 214.81 380.241 214.37 380.741 214.08L386.111 210.98C386.611 210.69 387.371 210.66 387.811 210.91L393.231 214.04C393.661 214.29 393.611 214.73 393.111 215.02L387.741 218.12C387.231 218.4 386.471 218.44 386.041 218.19Z" fill="#5793CE"/>
<path d="M400.91 226.77L389.09 219.95C388.66 219.7 388.71 219.26 389.21 218.97L394.58 215.87C395.08 215.58 395.84 215.55 396.28 215.8L408.101 222.62C408.531 222.87 408.481 223.31 407.981 223.6L402.61 226.7C402.1 226.99 401.34 227.02 400.91 226.77Z" fill="#5793CE"/>
<path d="M417.201 217.37L407.221 211.61C406.781 211.36 406.841 210.92 407.341 210.63L412.711 207.53C413.211 207.24 413.971 207.21 414.411 207.46L424.391 213.22C424.821 213.47 424.771 213.91 424.271 214.2L418.901 217.3C418.391 217.59 417.631 217.62 417.201 217.37Z" fill="#5793CE"/>
<path d="M333.771 178.6L328.351 175.47C327.921 175.22 327.971 174.78 328.471 174.49L333.841 171.39C334.341 171.1 335.101 171.07 335.541 171.32L340.961 174.45C341.391 174.7 341.341 175.14 340.841 175.43L335.471 178.53C334.961 178.82 334.201 178.85 333.771 178.6Z" fill="#5793CE"/>
<path d="M325.191 173.65L319.771 170.52C319.341 170.27 319.391 169.83 319.891 169.54L325.261 166.44C325.761 166.15 326.521 166.12 326.961 166.37L332.381 169.5C332.811 169.75 332.761 170.19 332.261 170.48L326.891 173.58C326.391 173.87 325.631 173.9 325.191 173.65Z" fill="#5793CE"/>
<path d="M316.621 168.7L311.201 165.57C310.771 165.32 310.821 164.88 311.321 164.59L316.691 161.49C317.191 161.2 317.951 161.17 318.391 161.42L323.811 164.55C324.241 164.8 324.191 165.24 323.691 165.53L318.321 168.63C317.821 168.92 317.061 168.96 316.621 168.7Z" fill="#5793CE"/>
<path d="M308.051 163.75L302.631 160.62C302.201 160.37 302.251 159.93 302.751 159.64L308.121 156.54C308.621 156.25 309.381 156.22 309.821 156.47L315.241 159.6C315.671 159.85 315.621 160.29 315.121 160.58L309.751 163.68C309.241 163.97 308.481 164.01 308.051 163.75Z" fill="#5793CE"/>
<path d="M342.131 183.43L336.711 180.3C336.281 180.05 336.331 179.61 336.831 179.32L342.201 176.22C342.701 175.93 343.461 175.9 343.901 176.15L349.321 179.28C349.761 179.53 349.701 179.97 349.201 180.26L343.831 183.36C343.331 183.65 342.571 183.68 342.131 183.43Z" fill="#5793CE"/>
<path d="M350.501 188.26L345.081 185.13C344.651 184.88 344.701 184.44 345.201 184.15L350.571 181.05C351.071 180.76 351.831 180.73 352.271 180.98L357.691 184.11C358.121 184.36 358.071 184.8 357.571 185.09L352.201 188.19C351.691 188.48 350.931 188.51 350.501 188.26Z" fill="#5793CE"/>
<path d="M358.861 193.09L353.441 189.96C353.011 189.71 353.061 189.27 353.561 188.98L358.931 185.88C359.431 185.59 360.191 185.56 360.631 185.81L366.051 188.94C366.481 189.19 366.431 189.63 365.931 189.92L360.561 193.02C360.061 193.31 359.301 193.34 358.861 193.09Z" fill="#5793CE"/>
<path d="M367.231 197.92L361.811 194.79C361.381 194.54 361.431 194.1 361.931 193.81L367.301 190.71C367.801 190.42 368.561 190.39 369.001 190.64L374.421 193.77C374.851 194.02 374.801 194.46 374.301 194.75L368.931 197.85C368.421 198.14 367.661 198.17 367.231 197.92Z" fill="#5793CE"/>
<path d="M375.591 202.75L370.171 199.62C369.741 199.37 369.791 198.93 370.291 198.64L375.661 195.54C376.161 195.25 376.921 195.22 377.361 195.47L382.781 198.6C383.211 198.85 383.161 199.29 382.661 199.58L377.291 202.68C376.791 202.97 376.031 203 375.591 202.75Z" fill="#5793CE"/>
<path d="M383.961 207.58L378.541 204.45C378.111 204.2 378.161 203.76 378.661 203.47L384.031 200.37C384.531 200.08 385.291 200.05 385.731 200.3L391.151 203.43C391.581 203.68 391.531 204.12 391.031 204.41L385.661 207.51C385.151 207.8 384.391 207.83 383.961 207.58Z" fill="#5793CE"/>
<path d="M392.321 212.41L386.901 209.28C386.471 209.03 386.521 208.59 387.021 208.3L392.391 205.2C392.891 204.91 393.651 204.88 394.091 205.13L399.511 208.26C399.941 208.51 399.891 208.95 399.391 209.24L394.021 212.34C393.521 212.63 392.761 212.66 392.321 212.41Z" fill="#5793CE"/>
<path d="M400.691 217.24L395.271 214.11C394.841 213.86 394.891 213.42 395.391 213.13L400.761 210.03C401.261 209.74 402.021 209.71 402.461 209.96L407.881 213.09C408.311 213.34 408.261 213.78 407.761 214.07L402.391 217.17C401.881 217.46 401.121 217.49 400.691 217.24Z" fill="#5793CE"/>
<path d="M409.051 222.07L403.631 218.94C403.201 218.69 403.251 218.25 403.751 217.96L409.121 214.86C409.621 214.57 410.381 214.54 410.821 214.79L416.241 217.92C416.671 218.17 416.621 218.61 416.121 218.9L410.751 222C410.251 222.29 409.491 222.32 409.051 222.07Z" fill="#5793CE"/>
<path d="M329.361 166.66L323.941 163.53C323.511 163.28 323.561 162.84 324.061 162.55L329.431 159.45C329.931 159.16 330.691 159.13 331.131 159.38L336.551 162.51C336.981 162.76 336.931 163.2 336.431 163.49L331.061 166.59C330.561 166.88 329.801 166.91 329.361 166.66Z" fill="#5793CE"/>
<path d="M321.041 161.85L315.621 158.72C315.191 158.47 315.241 158.03 315.741 157.74L321.111 154.64C321.611 154.35 322.371 154.32 322.811 154.57L328.231 157.7C328.661 157.95 328.611 158.39 328.111 158.68L322.741 161.78C322.231 162.07 321.471 162.1 321.041 161.85Z" fill="#5793CE"/>
<path d="M312.72 157.05L307.3 153.92C306.87 153.67 306.92 153.23 307.42 152.94L312.79 149.84C313.29 149.55 314.05 149.52 314.49 149.77L319.91 152.9C320.34 153.15 320.29 153.59 319.79 153.88L314.42 156.98C313.91 157.27 313.15 157.3 312.72 157.05Z" fill="#5793CE"/>
<path d="M304.39 152.24L298.97 149.11C298.54 148.86 298.59 148.42 299.09 148.13L304.46 145.03C304.96 144.74 305.72 144.71 306.16 144.96L311.58 148.09C312.01 148.34 311.96 148.78 311.46 149.07L306.09 152.17C305.59 152.46 304.83 152.49 304.39 152.24Z" fill="#5793CE"/>
<path d="M312.95 147.3L307.53 144.17C307.1 143.92 307.15 143.48 307.65 143.19L309.42 142.17C309.92 141.88 310.68 141.85 311.12 142.1L316.54 145.23C316.97 145.48 316.92 145.92 316.42 146.21L314.65 147.23C314.15 147.52 313.39 147.55 312.95 147.3Z" fill="#5793CE"/>
<path d="M323.811 153.57L318.391 150.44C317.961 150.19 318.011 149.75 318.511 149.46L320.281 148.44C320.781 148.15 321.541 148.12 321.981 148.37L327.401 151.5C327.831 151.75 327.781 152.19 327.281 152.48L325.511 153.5C325.011 153.79 324.251 153.82 323.811 153.57Z" fill="#5793CE"/>
<path d="M332.101 158.36L326.681 155.23C326.251 154.98 326.301 154.54 326.801 154.25L328.571 153.23C329.071 152.94 329.831 152.91 330.271 153.16L335.691 156.29C336.121 156.54 336.071 156.98 335.571 157.27L333.801 158.29C333.301 158.58 332.541 158.61 332.101 158.36Z" fill="#5793CE"/>
<path d="M340.39 163.14L334.97 160.01C334.54 159.76 334.59 159.32 335.09 159.03L336.86 158.01C337.36 157.72 338.12 157.69 338.56 157.94L343.98 161.07C344.41 161.32 344.36 161.76 343.86 162.05L342.09 163.07C341.59 163.36 340.83 163.39 340.39 163.14Z" fill="#5793CE"/>
<path d="M348.68 167.93L343.26 164.8C342.83 164.55 342.88 164.11 343.38 163.82L345.15 162.8C345.65 162.51 346.41 162.48 346.85 162.73L352.27 165.86C352.7 166.11 352.65 166.55 352.15 166.84L350.38 167.86C349.87 168.15 349.11 168.18 348.68 167.93Z" fill="#5793CE"/>
<path d="M394.95 194.64L389.53 191.51C389.1 191.26 389.15 190.82 389.65 190.53L391.42 189.51C391.92 189.22 392.68 189.19 393.12 189.44L398.54 192.57C398.97 192.82 398.92 193.26 398.42 193.55L396.65 194.57C396.15 194.86 395.39 194.9 394.95 194.64Z" fill="#5793CE"/>
<path d="M403.24 199.43L397.82 196.3C397.39 196.05 397.44 195.61 397.94 195.32L399.71 194.3C400.21 194.01 400.97 193.98 401.41 194.23L406.83 197.36C407.26 197.61 407.21 198.05 406.71 198.34L404.94 199.36C404.44 199.65 403.68 199.68 403.24 199.43Z" fill="#5793CE"/>
<path d="M411.531 204.22L406.11 201.09C405.68 200.84 405.731 200.4 406.231 200.11L408.001 199.09C408.501 198.8 409.261 198.77 409.701 199.02L415.121 202.15C415.551 202.4 415.501 202.84 415.001 203.13L413.231 204.15C412.731 204.43 411.971 204.47 411.531 204.22Z" fill="#5793CE"/>
<path d="M419.821 209L414.401 205.87C413.971 205.62 414.021 205.18 414.521 204.89L416.291 203.87C416.791 203.58 417.551 203.55 417.991 203.8L423.411 206.93C423.841 207.18 423.791 207.62 423.291 207.91L421.521 208.93C421.021 209.22 420.261 209.25 419.821 209Z" fill="#5793CE"/>
<path d="M337.731 171.49L332.311 168.36C331.881 168.11 331.931 167.67 332.431 167.38L337.801 164.28C338.301 163.99 339.061 163.96 339.501 164.21L344.921 167.34C345.351 167.59 345.301 168.03 344.801 168.32L339.431 171.42C338.921 171.71 338.161 171.74 337.731 171.49Z" fill="#5793CE"/>
<path d="M346.091 176.32L340.671 173.19C340.241 172.94 340.291 172.5 340.791 172.21L346.161 169.11C346.661 168.82 347.421 168.79 347.861 169.04L353.281 172.17C353.711 172.42 353.661 172.86 353.161 173.15L347.791 176.25C347.291 176.54 346.531 176.57 346.091 176.32Z" fill="#5793CE"/>
<path d="M354.461 181.15L349.041 178.02C348.611 177.77 348.661 177.33 349.161 177.04L354.531 173.94C355.031 173.65 355.791 173.62 356.231 173.87L361.651 177C362.081 177.25 362.031 177.69 361.531 177.98L356.161 181.08C355.651 181.37 354.891 181.4 354.461 181.15Z" fill="#5793CE"/>
<path d="M362.821 185.98L357.401 182.85C356.971 182.6 357.021 182.16 357.521 181.87L362.891 178.77C363.391 178.48 364.151 178.45 364.591 178.7L370.011 181.83C370.441 182.08 370.391 182.52 369.891 182.81L364.521 185.91C364.021 186.2 363.261 186.23 362.821 185.98Z" fill="#5793CE"/>
<path d="M371.191 190.81L365.771 187.68C365.341 187.43 365.391 186.99 365.891 186.7L371.261 183.6C371.761 183.31 372.521 183.28 372.961 183.53L378.381 186.66C378.811 186.91 378.761 187.35 378.261 187.64L372.891 190.74C372.381 191.03 371.621 191.06 371.191 190.81Z" fill="#5793CE"/>
<path d="M379.551 195.64L374.131 192.51C373.701 192.26 373.751 191.82 374.251 191.53L379.621 188.43C380.121 188.14 380.881 188.11 381.321 188.36L386.741 191.49C387.171 191.74 387.121 192.18 386.621 192.47L381.251 195.57C380.751 195.85 379.991 195.89 379.551 195.64Z" fill="#5793CE"/>
<path d="M387.921 200.46L382.501 197.33C382.071 197.08 382.121 196.64 382.621 196.35L387.991 193.25C388.491 192.96 389.251 192.93 389.691 193.18L395.111 196.31C395.541 196.56 395.491 197 394.991 197.29L389.621 200.39C389.111 200.68 388.351 200.72 387.921 200.46Z" fill="#5793CE"/>
<path d="M396.281 205.29L390.86 202.16C390.43 201.91 390.481 201.47 390.981 201.18L396.351 198.08C396.851 197.79 397.61 197.76 398.05 198.01L403.471 201.14C403.901 201.39 403.851 201.83 403.351 202.12L397.981 205.22C397.481 205.51 396.721 205.55 396.281 205.29Z" fill="#5793CE"/>
<path d="M404.651 210.12L399.231 206.99C398.801 206.74 398.851 206.3 399.351 206.01L404.721 202.91C405.221 202.62 405.981 202.59 406.421 202.84L411.841 205.97C412.271 206.22 412.221 206.66 411.721 206.95L406.351 210.05C405.841 210.34 405.081 210.38 404.651 210.12Z" fill="#5793CE"/>
<path d="M289.901 172.08L273.951 162.87C273.521 162.62 273.571 162.18 274.071 161.89L279.441 158.79C279.941 158.5 280.701 158.47 281.141 158.72L297.091 167.93C297.521 168.18 297.471 168.62 296.971 168.91L291.601 172.01C291.101 172.3 290.341 172.33 289.901 172.08Z" fill="#5793CE"/>
<path d="M392.67 231.42L376.72 222.21C376.29 221.96 376.34 221.52 376.84 221.23L382.21 218.13C382.71 217.84 383.47 217.81 383.91 218.06L399.86 227.27C400.29 227.52 400.24 227.96 399.74 228.25L394.37 231.35C393.86 231.64 393.1 231.67 392.67 231.42Z" fill="#5793CE"/>
<path d="M359.22 222.77L353.8 219.64C353.37 219.39 353.42 218.95 353.92 218.66L360.31 214.97C360.81 214.68 361.57 214.65 362.01 214.9L367.43 218.03C367.86 218.28 367.81 218.72 367.31 219.01L360.92 222.7C360.41 222.99 359.65 223.02 359.22 222.77Z" fill="#5793CE"/>
<path d="M298.471 187.7L289.811 182.7C289.381 182.45 289.431 182.01 289.931 181.72L296.321 178.03C296.821 177.74 297.581 177.71 298.021 177.96L306.681 182.96C307.111 183.21 307.061 183.65 306.561 183.94L300.171 187.63C299.661 187.92 298.901 187.95 298.471 187.7Z" fill="#5793CE"/>
<path d="M351.161 218.12L342.501 213.12C342.071 212.87 342.121 212.43 342.621 212.14L349.011 208.45C349.511 208.16 350.271 208.13 350.711 208.38L359.371 213.38C359.801 213.63 359.751 214.07 359.251 214.36L352.861 218.05C352.351 218.34 351.591 218.37 351.161 218.12Z" fill="#5793CE"/>
<path d="M310.541 194.67L301.881 189.67C301.451 189.42 301.501 188.98 302.001 188.69L308.391 185C308.891 184.71 309.651 184.68 310.091 184.93L318.751 189.93C319.181 190.18 319.131 190.62 318.631 190.91L312.241 194.6C311.731 194.89 310.971 194.92 310.541 194.67Z" fill="#5793CE"/>
<path d="M310.15 184.96L347.81 206.71C348.28 206.98 348.28 207.42 347.81 207.69L341.29 211.45C340.82 211.72 340.06 211.72 339.6 211.45L301.94 189.7L310.15 184.96Z" fill="#5793CE"/>
<path d="M382.601 231.53L388.631 235.01C388.991 235.22 388.941 235.58 388.531 235.81L385.911 237.32C385.501 237.56 384.881 237.58 384.521 237.38L378.491 233.9C378.131 233.69 378.181 233.33 378.591 233.1L381.211 231.59C381.621 231.35 382.241 231.32 382.601 231.53Z" fill="#5793CE"/>
<path d="M374.161 226.66L380.191 230.14C380.551 230.35 380.501 230.71 380.091 230.94L377.471 232.45C377.061 232.69 376.441 232.71 376.081 232.51L370.051 229.03C369.691 228.82 369.741 228.46 370.151 228.23L372.771 226.72C373.181 226.48 373.801 226.45 374.161 226.66Z" fill="#5793CE"/>
<path d="M365.801 221.83L371.831 225.31C372.191 225.52 372.141 225.88 371.731 226.11L369.111 227.62C368.701 227.86 368.081 227.88 367.721 227.68L361.691 224.2C361.331 223.99 361.381 223.63 361.791 223.4L364.411 221.89C364.821 221.65 365.441 221.62 365.801 221.83Z" fill="#5793CE"/>
<path d="M378.781 223.99L384.811 227.47C385.171 227.68 385.121 228.04 384.711 228.27L382.091 229.78C381.681 230.02 381.061 230.04 380.701 229.84L374.671 226.36C374.311 226.15 374.361 225.79 374.771 225.56L377.391 224.05C377.801 223.81 378.421 223.78 378.781 223.99Z" fill="#5793CE"/>
<path d="M411.82 129.75L366.77 103.74L367.34 100.81L412.4 126.82L411.82 129.75Z" fill="#D4ECFF"/>
<path d="M395.69 134.69L364.23 116.54L364.81 113.61L396.27 131.77L395.69 134.69Z" fill="#D4ECFF"/>
<path d="M392.71 125.85L365.5 110.14L366.08 107.21L393.29 122.92L392.71 125.85Z" fill="white"/>
<path d="M410.56 136.15L396.95 128.3L397.53 125.37L411.14 133.22L410.56 136.15Z" fill="#FF2C9C"/>
<path d="M361.97 78.1799L348.36 70.3299L348.94 67.3999L362.55 75.2499L361.97 78.1799Z" fill="#D4ECFF"/>
<path d="M360.49 84.99L346.89 77.13L347.46 74.2L361.07 82.06L360.49 84.99Z" fill="white"/>
<path d="M427.27 179.41L413.66 171.56L414.24 168.63L427.85 176.48L427.27 179.41Z" fill="#D4ECFF"/>
<path d="M357.54 98.5999L343.93 90.7499L344.51 87.8199L358.12 95.6699L357.54 98.5999Z" fill="#D4ECFF"/>
<path d="M386.931 100.71C386.501 101.66 385.401 101.99 384.481 101.46C383.561 100.93 383.171 99.73 383.601 98.79C384.031 97.84 385.131 97.51 386.051 98.04C386.981 98.57 387.371 99.77 386.931 100.71Z" fill="#FF2C9C"/>
<path d="M392.79 104.1C392.36 105.05 391.26 105.38 390.34 104.85C389.42 104.32 389.03 103.12 389.46 102.18C389.89 101.23 390.99 100.9 391.91 101.43C392.84 101.95 393.23 103.15 392.79 104.1Z" fill="white"/>
<path d="M398.651 107.48C398.221 108.43 397.121 108.76 396.201 108.23C395.281 107.7 394.891 106.5 395.321 105.56C395.751 104.61 396.851 104.28 397.771 104.81C398.701 105.34 399.091 106.53 398.651 107.48Z" fill="#D4ECFF"/>
<path d="M404.511 110.86C404.081 111.81 402.981 112.14 402.061 111.61C401.141 111.08 400.751 109.88 401.181 108.94C401.611 107.99 402.711 107.66 403.631 108.19C404.561 108.72 404.951 109.92 404.511 110.86Z" fill="#FF2C9C"/>
<path d="M304.76 230.38L270.69 210.71C269.7 210.14 269.82 209.14 270.97 208.48L291.53 196.61C292.68 195.95 294.41 195.88 295.4 196.45L329.47 216.12C330.46 216.69 330.34 217.69 329.19 218.35L308.631 230.22C307.491 230.88 305.76 230.96 304.76 230.38Z" fill="white"/>
<path d="M276.365 150.958L280.473 145.921L269.594 137.047L265.486 142.084L276.365 150.958Z" fill="#5793CE"/>
<path d="M277.98 151.07C279.35 150.55 280.65 148.95 280.89 147.51C281.12 146.06 280.2 145.31 278.83 145.83C277.46 146.35 276.16 147.95 275.92 149.39C275.69 150.84 276.61 151.59 277.98 151.07Z" fill="#5793CE"/>
<path d="M266.102 145.219L272.764 137.05L261.65 127.987L254.989 136.156L266.102 145.219Z" fill="#5793CE"/>
<path d="M271.37 138.51L275.05 141.51C274.52 143.54 272.82 145.62 270.94 146.55L267.26 143.55C267.79 141.52 269.49 139.44 271.37 138.51Z" fill="#396CAA"/>
<path d="M268.74 145.37C270.96 144.53 273.07 141.94 273.45 139.59C273.83 137.24 272.34 136.03 270.12 136.87C267.9 137.71 265.79 140.3 265.41 142.65C265.03 145 266.52 146.21 268.74 145.37Z" fill="#5793CE"/>
<path d="M257.63 136.31C259.85 135.47 261.96 132.88 262.34 130.53C262.72 128.18 261.23 126.97 259.01 127.81C256.79 128.65 254.68 131.24 254.3 133.59C253.91 135.93 255.4 137.15 257.63 136.31Z" fill="#5793CE"/>
<path d="M257.93 134.46C259.19 133.98 260.38 132.52 260.59 131.19C260.8 129.86 259.96 129.17 258.7 129.65C257.44 130.13 256.25 131.59 256.04 132.92C255.82 134.25 256.67 134.94 257.93 134.46Z" fill="#D4ECFF"/>
<path d="M278.02 146.94C278.55 147.37 279.07 147.18 279.18 146.5C279.29 145.82 278.95 144.92 278.41 144.48C277.88 144.05 277.36 144.24 277.25 144.92C277.14 145.6 277.48 146.51 278.02 146.94Z" fill="#D4ECFF"/>
<path d="M167.36 257.66C165.41 257.66 163.46 257.13 161.68 256.06L153.98 251.5C153.57 251.25 153.43 250.72 153.68 250.31C153.93 249.9 154.46 249.76 154.87 250.01L162.57 254.57C165.6 256.39 169.19 256.38 172.2 254.53C175.2 252.69 176.85 249.49 176.6 245.97L176.44 243.65C173.74 205.65 168.71 134.92 198.52 127.29C208.79 124.66 215.82 122.15 220.95 120.31C236.25 114.83 237.3 115.14 258.39 131.06C258.77 131.35 258.85 131.89 258.56 132.28C258.27 132.66 257.73 132.74 257.34 132.45C236.39 116.63 236.11 116.73 221.54 121.95C216.38 123.8 209.3 126.33 198.95 128.98C170.55 136.25 175.51 206.04 178.18 243.53L178.34 245.85C178.63 250.03 176.68 253.83 173.12 256.01C171.31 257.11 169.34 257.66 167.36 257.66Z" fill="#5793CE"/>
<path opacity="0.3" d="M225.83 271.75C241.405 271.75 254.03 264.461 254.03 255.47C254.03 246.479 241.405 239.19 225.83 239.19C210.256 239.19 197.63 246.479 197.63 255.47C197.63 264.461 210.256 271.75 225.83 271.75Z" fill="#173D7A"/>
<path d="M239.29 248.49C240.88 249.17 241.88 250.94 241.75 252.84C241.69 253.74 241.58 254.57 241.39 254.97C240.88 256.03 239.23 257.49 236.58 256.44C233.94 255.4 228.06 249.88 227.84 246.27C227.44 239.56 235.11 246.71 239.29 248.49Z" fill="#173D7A"/>
<path d="M223.75 259.59C223.75 259.59 224.38 263.46 224.08 264.17C223.77 264.88 221.93 266.39 219.21 266.06C216.49 265.73 208.67 263.04 206.93 257.88C204.23 249.89 222.03 258.48 222.03 258.48L223.75 259.59Z" fill="#173D7A"/>
<path d="M216.11 197.76L215.5 258.14C215.56 260.24 216.94 262.01 218.79 262.33C219.02 262.37 219.26 262.4 219.53 262.42C221.4 262.58 222.49 261.78 223.12 260.94C223.62 260.26 223.89 259.39 223.93 258.5L224.7 232.73L228.55 209.69L233.87 250.48C233.96 251.58 234.48 252.6 235.33 253.17C235.92 253.56 236.71 253.86 237.76 253.83C239.28 253.78 240.34 252.97 240.99 252.24C241.5 251.66 241.77 250.87 241.76 250.06L239.65 225.52L238.86 194.22L216.11 197.76Z" fill="#D4ECFF"/>
<path d="M223.93 143.72L224.88 149.22C224.88 149.22 224.92 151.1 222.82 151.62C220.72 152.14 220.08 150.79 220.08 150.79L219.13 144.59L223.93 143.72Z" fill="#FFC2B0"/>
<path d="M212.74 143.88C216.24 147.37 221.59 147.66 224.68 144.53C227.77 141.4 227.44 136.04 223.94 132.55C220.44 129.06 215.09 128.77 212 131.9C208.91 135.03 209.24 140.39 212.74 143.88Z" fill="#FFC2B0"/>
<path d="M223.68 149.32C223.83 149.26 232.57 143.63 235.81 149.52C241.08 159.13 240.77 190.07 239.11 194.07C237.57 197.78 233.72 200.51 231.03 202.05C228.63 203.42 225.95 204.26 223.18 204.28C220.45 204.3 215.21 201.87 215.4 198.3C216.28 181.87 214.82 168.01 213.48 154.57C213.47 154.58 215.15 152.77 223.68 149.32Z" fill="#5793CE"/>
<path d="M228.54 209.68L233.86 250.47C233.95 251.57 234.47 252.59 235.32 253.16C235.46 253.25 235.61 253.34 235.77 253.42C234.66 252.59 231.44 218.36 230.84 214.55C230.26 210.72 228.54 209.68 228.54 209.68Z" fill="#396CAA"/>
<path d="M195.71 151.13L190.96 135.57L193.47 134.53L199.07 146.72L195.71 151.13Z" fill="#FFC2B0"/>
<path d="M243.62 138.86L240.06 122.66L237.22 122.69L238.29 136.13L243.62 138.86Z" fill="#FFC2B0"/>
<path d="M213.47 154.58C213.47 154.58 204.93 156.28 199.5 146.34C199.02 145.46 197.75 145.33 197.25 146.1C196.38 147.43 195.23 149.46 195.82 151.66C198.46 161.38 212.82 163.52 215.4 169.16C217.98 174.79 213.47 154.58 213.47 154.58Z" fill="#5793CE"/>
<path d="M229.23 147.3C229.23 147.3 235.99 147.82 236.97 141.97C237.47 138.96 237.62 137.16 237.65 136.12C237.67 135.42 238.28 134.89 238.98 134.97C240.6 135.17 243.11 135.65 243.45 136.74C243.96 138.36 244.91 146.31 238.23 158.51C233.85 166.49 229.23 147.3 229.23 147.3Z" fill="#5793CE"/>
<path d="M240.07 122.7L240.01 120.85C239.99 120.2 239.8 119.56 239.46 119L237.59 115.92L237.1 115.3C236.65 114.73 235.84 114.59 235.23 114.98L234.8 115.25C234.25 115.6 233.93 116.21 233.98 116.86L234.95 119.49L233.72 119.25C233.48 119.2 233.25 119.36 233.21 119.6C233.17 119.8 233.28 120 233.48 120.08L235.48 120.89L237.3 123.46L240.07 122.7Z" fill="#FFC2B0"/>
<path d="M190.89 135.65L190.32 133.89C190.12 133.27 190.08 132.61 190.21 131.97L190.93 128.44L191.18 127.7C191.41 127.01 192.12 126.61 192.83 126.76L193.33 126.87C193.96 127.01 194.47 127.48 194.65 128.11L194.63 130.91L195.7 130.27C195.91 130.15 196.18 130.22 196.3 130.43C196.4 130.61 196.37 130.83 196.21 130.97L194.6 132.41L193.66 135.82L190.89 135.65Z" fill="#FFC2B0"/>
<path d="M217.47 166.35C218.25 169.9 216.06 197.46 223.17 204.29C220.44 204.31 215.2 201.88 215.39 198.31C215.98 187.29 215.51 177.44 214.74 168.09C211.95 164.48 204.28 162.18 199.48 157.54C199.83 157.65 216.7 162.84 217.47 166.35Z" fill="#396CAA"/>
<path d="M226.83 147.76L225.62 146.51C225.62 146.51 223.62 148.55 222.02 148.91C222.02 148.91 220.09 149.46 219.14 149.5L218.36 151.66C218.35 151.66 224.71 151.21 226.83 147.76Z" fill="white"/>
<path d="M217.87 141.37C217.57 141.52 217.22 141.53 216.93 141.37C216.41 141.1 215.58 139.04 214.5 139.19C212.82 139.43 210.38 142.96 207.35 138.03C205.77 135.47 206.7 134.09 205.93 132.63C205.93 132.63 206.2 133.42 212.8 129.39C219.4 125.36 224.8 130.27 226.47 133.08C228.14 135.89 229.23 141.38 224.9 144.47C224.18 144.98 219.56 144.07 219.46 143.68C219.36 143.29 220.6 142.67 219.9 141.76C219.32 141.02 218.65 140.98 217.87 141.37Z" fill="#173D7A"/>
<path d="M156 252.54C155.85 252.54 155.7 252.5 155.56 252.42L109.07 224.89C108.66 224.64 108.52 224.11 108.76 223.7C109 223.29 109.54 223.15 109.95 223.39L156.44 250.92C156.85 251.17 156.99 251.7 156.74 252.11C156.58 252.39 156.29 252.54 156 252.54Z" fill="#5793CE"/>
<path d="M59.0102 211.81V86.09L108.99 73.01L118.2 67.7C120.31 66.48 124 66.63 126.44 68.04L135.02 73L161.68 72.99L153.79 194.35C153.85 195.18 153.39 195.97 152.37 196.56L102.5 234.18C100.39 235.4 96.7002 235.25 94.2602 233.84L61.0202 214.65C59.6102 213.84 58.9302 212.79 59.0102 211.81Z" fill="#396CAA"/>
<path d="M122.02 66.88C123.57 66.92 125.17 67.31 126.44 68.04L135.02 73L161.68 72.99V199.04C161.74 199.87 161.28 200.66 160.26 201.25L102.5 234.18C101.48 234.77 100.1 235.03 98.6703 235L98.0703 108.16L122.02 66.88Z" fill="#D4ECFF"/>
<path d="M101.97 234.44C100.15 235.22 97.5104 235.18 95.3804 234.36V106.66H101.97V234.44Z" fill="#5793CE"/>
<path d="M102.5 108.18L160.27 75.24C162.38 74.02 162.12 71.89 159.68 70.48L126.44 51.29C124 49.88 120.31 49.73 118.2 50.95L60.43 83.89C58.32 85.11 58.58 87.24 61.02 88.65L94.26 107.84C96.7 109.24 100.39 109.4 102.5 108.18Z" fill="#D4ECFF"/>
<path d="M61.0202 86.3101L94.2602 105.5C96.7002 106.91 100.39 107.06 102.5 105.84L160.27 72.9001C160.74 72.6301 161.09 72.3101 161.32 71.9601C162.05 73.1301 161.72 74.3901 160.27 75.2301L102.5 108.18C100.39 109.4 96.7002 109.25 94.2602 107.84L61.0202 88.6401C59.1202 87.5501 58.5502 86.0201 59.3702 84.8201C59.7002 85.3501 60.2502 85.8701 61.0202 86.3101Z" fill="#FAFDFF"/>
<path d="M100.86 94.8301L139.32 72.5401C140.31 71.9701 140.18 70.9701 139.04 70.3101L123.49 61.3301C122.35 60.6701 120.62 60.6001 119.63 61.1701L81.1803 83.4601C80.1903 84.0301 80.3203 85.0301 81.4603 85.6901L97.0103 94.6701C98.1503 95.3201 99.8803 95.4001 100.86 94.8301Z" fill="#173D7A"/>
<path d="M121.63 73.5301L123.86 72.2401C124 72.1601 123.98 72.0201 123.82 71.9301L121.67 70.6901C121.51 70.6001 121.27 70.5901 121.14 70.6701L118.91 71.9601C118.77 72.0401 118.79 72.1801 118.95 72.2701L121.1 73.5101C121.25 73.6001 121.49 73.6101 121.63 73.5301Z" fill="#D4ECFF"/>
<path d="M114.18 77.8101L116.41 76.5201C116.55 76.4401 116.53 76.3001 116.37 76.2101L114.22 74.9701C114.06 74.8801 113.82 74.8701 113.69 74.9501L111.46 76.2401C111.32 76.3201 111.34 76.4601 111.5 76.5501L113.65 77.7901C113.81 77.8801 114.04 77.8901 114.18 77.8101Z" fill="#FF2C9C"/>
<path d="M106.74 82.1L108.97 80.81C109.11 80.73 109.09 80.59 108.93 80.5L106.78 79.26C106.62 79.17 106.38 79.16 106.25 79.24L104.02 80.53C103.88 80.61 103.9 80.75 104.06 80.84L106.21 82.08C106.36 82.16 106.6 82.17 106.74 82.1Z" fill="#D4ECFF"/>
<path d="M99.2902 86.3801L101.52 85.0901C101.66 85.0101 101.64 84.8701 101.48 84.7801L99.3302 83.5401C99.1702 83.4501 98.9302 83.4401 98.8002 83.5201L96.5702 84.8101C96.4302 84.8901 96.4502 85.0301 96.6102 85.1201L98.7602 86.3601C98.9202 86.4501 99.1502 86.4601 99.2902 86.3801Z" fill="#D4ECFF"/>
<path d="M139.32 72.5301L139.27 72.5601C139.2 72.5101 139.13 72.4501 139.04 72.4001L123.49 63.4201C122.35 62.7601 120.62 62.6901 119.63 63.2601L81.2202 85.5301C80.3102 84.8801 80.2602 83.9901 81.1702 83.4601L119.63 61.1701C120.62 60.6001 122.35 60.6701 123.49 61.3301L139.04 70.3101C140.19 70.9601 140.31 71.9601 139.32 72.5301Z" fill="#5793CE"/>
<path d="M87.7704 133.08L65.9004 120.56C64.6704 119.85 63.6704 117.94 63.6704 116.3V108.48C63.6704 106.84 64.6704 106.09 65.9004 106.8L87.7704 119.32C89.0004 120.03 90.0004 121.94 90.0004 123.58V131.4C89.9904 133.04 89.0004 133.79 87.7704 133.08Z" fill="#173D7A"/>
<path d="M64.8204 106.56C64.4804 106.88 64.2604 107.44 64.2604 108.19V116.01C64.2604 117.65 65.2604 119.56 66.4904 120.27L88.3604 132.79C88.7604 133.02 89.1204 133.08 89.4404 133.03C89.0304 133.42 88.4404 133.47 87.7704 133.09L65.9004 120.56C64.6704 119.85 63.6704 117.94 63.6704 116.3V108.48C63.6704 107.37 64.1404 106.68 64.8204 106.56Z" fill="white"/>
<path d="M81.1904 124.59L79.1804 123.43C78.9104 123.28 78.6904 122.86 78.6904 122.5V120.36C78.6904 120 78.9104 119.84 79.1804 119.99L81.1904 121.15C81.4604 121.3 81.6804 121.72 81.6804 122.08V124.22C81.6704 124.58 81.4604 124.74 81.1904 124.59Z" fill="#396CAA"/>
<path d="M74.4805 120.71L72.4705 119.55C72.2005 119.4 71.9805 118.98 71.9805 118.62V116.48C71.9805 116.12 72.2005 115.96 72.4705 116.11L74.4805 117.27C74.7505 117.42 74.9705 117.84 74.9705 118.2V120.34C74.9705 120.71 74.7505 120.87 74.4805 120.71Z" fill="white"/>
<path d="M87.7704 189.59L65.9004 177.07C64.6704 176.36 63.6704 174.45 63.6704 172.81V164.99C63.6704 163.35 64.6704 162.6 65.9004 163.31L87.7704 175.83C89.0004 176.54 90.0004 178.45 90.0004 180.09V187.91C89.9904 189.55 89.0004 190.3 87.7704 189.59Z" fill="#173D7A"/>
<path d="M64.8204 163.07C64.4804 163.39 64.2604 163.95 64.2604 164.7V172.52C64.2604 174.16 65.2604 176.07 66.4904 176.78L88.3604 189.3C88.7604 189.53 89.1204 189.59 89.4404 189.54C89.0304 189.93 88.4404 189.98 87.7704 189.6L65.9004 177.07C64.6704 176.36 63.6704 174.45 63.6704 172.81V164.99C63.6704 163.88 64.1404 163.19 64.8204 163.07Z" fill="white"/>
<path d="M81.1904 181.1L79.1804 179.94C78.9104 179.79 78.6904 179.37 78.6904 179.01V176.87C78.6904 176.51 78.9104 176.35 79.1804 176.5L81.1904 177.66C81.4604 177.81 81.6804 178.23 81.6804 178.59V180.73C81.6704 181.09 81.4604 181.25 81.1904 181.1Z" fill="#FF2C9C"/>
<path d="M74.4805 177.22L72.4705 176.06C72.2005 175.91 71.9805 175.49 71.9805 175.13V172.99C71.9805 172.63 72.2005 172.47 72.4705 172.62L74.4805 173.78C74.7505 173.93 74.9705 174.35 74.9705 174.71V176.85C74.9705 177.21 74.7505 177.38 74.4805 177.22Z" fill="white"/>
<path d="M87.7704 217.84L65.9004 205.32C64.6704 204.61 63.6704 202.7 63.6704 201.06V193.24C63.6704 191.6 64.6704 190.85 65.9004 191.56L87.7704 204.08C89.0004 204.79 90.0004 206.7 90.0004 208.34V216.16C89.9904 217.8 89.0004 218.55 87.7704 217.84Z" fill="#173D7A"/>
<path d="M64.8204 191.33C64.4804 191.65 64.2604 192.21 64.2604 192.96V200.78C64.2604 202.42 65.2604 204.33 66.4904 205.04L88.3604 217.56C88.7604 217.79 89.1204 217.85 89.4404 217.8C89.0304 218.19 88.4404 218.24 87.7704 217.86L65.9004 205.32C64.6704 204.61 63.6704 202.7 63.6704 201.06V193.24C63.6704 192.13 64.1404 191.44 64.8204 191.33Z" fill="white"/>
<path d="M81.1904 209.35L79.1804 208.19C78.9104 208.04 78.6904 207.62 78.6904 207.26V205.12C78.6904 204.76 78.9104 204.6 79.1804 204.75L81.1904 205.91C81.4604 206.06 81.6804 206.48 81.6804 206.84V208.98C81.6704 209.34 81.4604 209.5 81.1904 209.35Z" fill="#396CAA"/>
<path d="M74.4805 205.48L72.4705 204.32C72.2005 204.17 71.9805 203.75 71.9805 203.39V201.25C71.9805 200.89 72.2005 200.73 72.4705 200.88L74.4805 202.04C74.7505 202.19 74.9705 202.61 74.9705 202.97V205.11C74.9705 205.47 74.7505 205.63 74.4805 205.48Z" fill="white"/>
<path d="M87.7704 161.34L65.9004 148.82C64.6704 148.11 63.6704 146.2 63.6704 144.56V136.74C63.6704 135.1 64.6704 134.35 65.9004 135.06L87.7704 147.58C89.0004 148.29 90.0004 150.2 90.0004 151.84V159.66C89.9904 161.29 89.0004 162.05 87.7704 161.34Z" fill="#173D7A"/>
<path d="M64.8204 134.82C64.4804 135.14 64.2604 135.7 64.2604 136.45V144.27C64.2604 145.91 65.2604 147.82 66.4904 148.53L88.3604 161.05C88.7604 161.28 89.1204 161.34 89.4404 161.29C89.0304 161.68 88.4404 161.73 87.7704 161.35L65.9004 148.82C64.6704 148.11 63.6704 146.2 63.6704 144.56V136.74C63.6704 135.62 64.1404 134.93 64.8204 134.82Z" fill="white"/>
<path d="M81.1904 152.84L79.1804 151.68C78.9104 151.53 78.6904 151.11 78.6904 150.75V148.61C78.6904 148.25 78.9104 148.09 79.1804 148.24L81.1904 149.4C81.4604 149.55 81.6804 149.97 81.6804 150.33V152.47C81.6704 152.83 81.4604 153 81.1904 152.84Z" fill="#396CAA"/>
<path d="M74.4805 148.97L72.4705 147.81C72.2005 147.66 71.9805 147.24 71.9805 146.88V144.74C71.9805 144.38 72.2005 144.22 72.4705 144.37L74.4805 145.53C74.7505 145.68 74.9705 146.1 74.9705 146.46V148.6C74.9705 148.96 74.7505 149.12 74.4805 148.97Z" fill="white"/>
<path d="M106.71 125.08L157.16 95.9501C158.29 95.3001 159.2 93.5501 159.2 92.0401V82.4201C159.2 80.9101 158.28 80.2201 157.16 80.8701L106.71 110C105.58 110.65 104.67 112.4 104.67 113.91V123.53C104.66 125.04 105.58 125.73 106.71 125.08Z" fill="#5793CE"/>
<path opacity="0.4" d="M108.15 121.7L155.7 94.2501C156.27 93.9201 156.74 93.0301 156.74 92.2701V85.0401C156.74 84.2801 156.28 83.9301 155.7 84.2601L108.15 111.71C107.58 112.04 107.11 112.93 107.11 113.69V120.92C107.12 121.68 107.58 122.03 108.15 121.7Z" fill="#D4ECFF"/>
<path d="M145.8 96.31L152.9 92.21C153.46 91.89 153.91 91.03 153.91 90.29C153.91 89.55 153.46 89.21 152.9 89.53L145.8 93.63C145.24 93.95 144.79 94.81 144.79 95.55C144.79 96.3 145.24 96.64 145.8 96.31Z" fill="#D4ECFF"/>
<path d="M139.75 98.4601C139.75 99.2001 140.27 99.5001 140.91 99.1301C141.55 98.7601 142.07 97.8601 142.07 97.1201C142.07 96.3801 141.55 96.0801 140.91 96.4501C140.27 96.8201 139.75 97.7201 139.75 98.4601Z" fill="#173D7A"/>
<path d="M135.65 100.83C135.65 101.57 136.17 101.87 136.81 101.5C137.45 101.13 137.97 100.23 137.97 99.4901C137.97 98.7501 137.45 98.4501 136.81 98.8201C136.17 99.1901 135.65 100.09 135.65 100.83Z" fill="#173D7A"/>
<path d="M131.54 103.2C131.54 103.94 132.06 104.24 132.7 103.87C133.34 103.5 133.86 102.6 133.86 101.86C133.86 101.12 133.34 100.82 132.7 101.19C132.06 101.56 131.54 102.46 131.54 103.2Z" fill="#D4ECFF"/>
<path d="M127.44 105.57C127.44 106.31 127.96 106.61 128.6 106.24C129.24 105.87 129.76 104.97 129.76 104.23C129.76 103.49 129.24 103.19 128.6 103.56C127.96 103.93 127.44 104.83 127.44 105.57Z" fill="#173D7A"/>
<path d="M110.15 117.68L112.54 116.3C112.9 116.09 113.19 115.54 113.19 115.06V112.53C113.19 112.05 112.9 111.84 112.54 112.04L110.15 113.42C109.79 113.63 109.5 114.18 109.5 114.66V117.19C109.51 117.66 109.8 117.88 110.15 117.68Z" fill="#173D7A"/>
<path d="M106.71 142.04L157.16 112.91C158.29 112.26 159.2 110.51 159.2 109V99.38C159.2 97.87 158.28 97.18 157.16 97.83L106.71 126.96C105.58 127.61 104.67 129.36 104.67 130.87V140.49C104.66 142 105.58 142.69 106.71 142.04Z" fill="#5793CE"/>
<path opacity="0.4" d="M108.15 138.67L155.7 111.22C156.27 110.89 156.74 110 156.74 109.24V102C156.74 101.24 156.28 100.89 155.7 101.22L108.15 128.67C107.58 129 107.11 129.89 107.11 130.65V137.88C107.12 138.65 107.58 139 108.15 138.67Z" fill="#D4ECFF"/>
<path d="M145.8 113.28L152.9 109.18C153.46 108.86 153.91 108 153.91 107.26C153.91 106.52 153.46 106.18 152.9 106.5L145.8 110.6C145.24 110.92 144.79 111.78 144.79 112.52C144.79 113.26 145.24 113.6 145.8 113.28Z" fill="#D4ECFF"/>
<path d="M139.75 115.43C139.75 116.17 140.27 116.47 140.91 116.1C141.55 115.73 142.07 114.83 142.07 114.09C142.07 113.35 141.55 113.05 140.91 113.42C140.27 113.78 139.75 114.69 139.75 115.43Z" fill="white"/>
<path d="M135.65 117.8C135.65 118.54 136.17 118.84 136.81 118.47C137.45 118.1 137.97 117.2 137.97 116.46C137.97 115.72 137.45 115.42 136.81 115.79C136.17 116.15 135.65 117.05 135.65 117.8Z" fill="#173D7A"/>
<path d="M131.54 120.17C131.54 120.91 132.06 121.21 132.7 120.84C133.34 120.47 133.86 119.57 133.86 118.83C133.86 118.09 133.34 117.79 132.7 118.16C132.06 118.52 131.54 119.42 131.54 120.17Z" fill="#D4ECFF"/>
<path d="M127.44 122.53C127.44 123.27 127.96 123.57 128.6 123.2C129.24 122.83 129.76 121.93 129.76 121.19C129.76 120.45 129.24 120.15 128.6 120.52C127.96 120.89 127.44 121.79 127.44 122.53Z" fill="#173D7A"/>
<path d="M110.15 134.64L112.54 133.26C112.9 133.05 113.19 132.5 113.19 132.02V129.49C113.19 129.01 112.9 128.8 112.54 129L110.15 130.38C109.79 130.59 109.5 131.14 109.5 131.62V134.15C109.51 134.63 109.8 134.85 110.15 134.64Z" fill="#173D7A"/>
<path d="M106.71 159L157.16 129.87C158.29 129.22 159.2 127.47 159.2 125.96V116.34C159.2 114.83 158.28 114.14 157.16 114.79L106.71 143.92C105.58 144.57 104.67 146.32 104.67 147.83V157.45C104.66 158.96 105.58 159.66 106.71 159Z" fill="#5793CE"/>
<path opacity="0.4" d="M108.15 155.63L155.7 128.18C156.27 127.85 156.74 126.96 156.74 126.2V118.97C156.74 118.21 156.28 117.86 155.7 118.19L108.15 145.64C107.58 145.97 107.11 146.86 107.11 147.62V154.85C107.12 155.61 107.58 155.96 108.15 155.63Z" fill="#D4ECFF"/>
<path d="M145.8 130.24L152.9 126.14C153.46 125.82 153.91 124.96 153.91 124.22C153.91 123.48 153.46 123.14 152.9 123.46L145.8 127.56C145.24 127.88 144.79 128.74 144.79 129.48C144.79 130.22 145.24 130.56 145.8 130.24Z" fill="#D4ECFF"/>
<path d="M139.75 132.39C139.75 133.13 140.27 133.43 140.91 133.06C141.55 132.69 142.07 131.79 142.07 131.05C142.07 130.31 141.55 130.01 140.91 130.38C140.27 130.75 139.75 131.65 139.75 132.39Z" fill="white"/>
<path d="M135.65 134.76C135.65 135.5 136.17 135.8 136.81 135.43C137.45 135.06 137.97 134.16 137.97 133.42C137.97 132.68 137.45 132.38 136.81 132.75C136.17 133.12 135.65 134.02 135.65 134.76Z" fill="#173D7A"/>
<path d="M131.54 137.13C131.54 137.87 132.06 138.17 132.7 137.8C133.34 137.43 133.86 136.53 133.86 135.79C133.86 135.05 133.34 134.75 132.7 135.12C132.06 135.49 131.54 136.39 131.54 137.13Z" fill="#D4ECFF"/>
<path d="M127.44 139.5C127.44 140.24 127.96 140.54 128.6 140.17C129.24 139.8 129.76 138.9 129.76 138.16C129.76 137.42 129.24 137.12 128.6 137.49C127.96 137.85 127.44 138.76 127.44 139.5Z" fill="#173D7A"/>
<path d="M110.15 151.6L112.54 150.22C112.9 150.01 113.19 149.46 113.19 148.98V146.45C113.19 145.97 112.9 145.76 112.54 145.96L110.15 147.34C109.79 147.55 109.5 148.1 109.5 148.58V151.11C109.51 151.59 109.8 151.81 110.15 151.6Z" fill="#173D7A"/>
<path d="M106.71 175.97L157.16 146.84C158.29 146.19 159.2 144.44 159.2 142.93V133.31C159.2 131.8 158.28 131.11 157.16 131.76L106.71 160.9C105.58 161.55 104.67 163.3 104.67 164.81V174.43C104.66 175.93 105.58 176.62 106.71 175.97Z" fill="#5793CE"/>
<path opacity="0.4" d="M108.15 172.6L155.7 145.15C156.27 144.82 156.74 143.93 156.74 143.17V135.94C156.74 135.18 156.28 134.82 155.7 135.16L108.15 162.6C107.58 162.93 107.11 163.82 107.11 164.58V171.81C107.12 172.57 107.58 172.93 108.15 172.6Z" fill="#D4ECFF"/>
<path d="M145.8 147.21L152.9 143.11C153.46 142.79 153.91 141.93 153.91 141.19C153.91 140.45 153.46 140.11 152.9 140.43L145.8 144.53C145.24 144.85 144.79 145.71 144.79 146.45C144.79 147.19 145.24 147.53 145.8 147.21Z" fill="#D4ECFF"/>
<path d="M139.75 149.35C139.75 150.09 140.27 150.39 140.91 150.02C141.55 149.65 142.07 148.75 142.07 148.01C142.07 147.27 141.55 146.97 140.91 147.34C140.27 147.71 139.75 148.61 139.75 149.35Z" fill="#173D7A"/>
<path d="M135.65 151.72C135.65 152.46 136.17 152.76 136.81 152.39C137.45 152.02 137.97 151.12 137.97 150.38C137.97 149.64 137.45 149.34 136.81 149.71C136.17 150.08 135.65 150.98 135.65 151.72Z" fill="#173D7A"/>
<path d="M131.54 154.09C131.54 154.83 132.06 155.13 132.7 154.76C133.34 154.39 133.86 153.49 133.86 152.75C133.86 152.01 133.34 151.71 132.7 152.08C132.06 152.45 131.54 153.35 131.54 154.09Z" fill="#D4ECFF"/>
<path d="M127.44 156.46C127.44 157.2 127.96 157.5 128.6 157.13C129.24 156.76 129.76 155.86 129.76 155.12C129.76 154.38 129.24 154.08 128.6 154.45C127.96 154.82 127.44 155.72 127.44 156.46Z" fill="#173D7A"/>
<path d="M110.15 168.57L112.54 167.19C112.9 166.98 113.19 166.43 113.19 165.95V163.42C113.19 162.94 112.9 162.73 112.54 162.93L110.15 164.31C109.79 164.52 109.5 165.07 109.5 165.55V168.08C109.51 168.56 109.8 168.77 110.15 168.57Z" fill="#D4ECFF"/>
<path d="M106.71 192.93L157.16 163.8C158.29 163.15 159.2 161.4 159.2 159.89V150.27C159.2 148.76 158.28 148.07 157.16 148.72L106.71 177.85C105.58 178.5 104.67 180.25 104.67 181.76V191.38C104.66 192.89 105.58 193.58 106.71 192.93Z" fill="#5793CE"/>
<path opacity="0.4" d="M108.15 189.56L155.7 162.11C156.27 161.78 156.74 160.89 156.74 160.13V152.9C156.74 152.14 156.28 151.79 155.7 152.12L108.15 179.57C107.58 179.9 107.11 180.79 107.11 181.55V188.78C107.12 189.54 107.58 189.89 108.15 189.56Z" fill="#D4ECFF"/>
<path d="M145.8 164.17L152.9 160.07C153.46 159.75 153.91 158.89 153.91 158.15C153.91 157.41 153.46 157.07 152.9 157.39L145.8 161.49C145.24 161.81 144.79 162.67 144.79 163.41C144.79 164.15 145.24 164.49 145.8 164.17Z" fill="#D4ECFF"/>
<path d="M139.75 166.32C139.75 167.06 140.27 167.36 140.91 166.99C141.55 166.62 142.07 165.72 142.07 164.98C142.07 164.24 141.55 163.94 140.91 164.31C140.27 164.67 139.75 165.58 139.75 166.32Z" fill="#173D7A"/>
<path d="M135.65 168.69C135.65 169.43 136.17 169.73 136.81 169.36C137.45 168.99 137.97 168.09 137.97 167.35C137.97 166.61 137.45 166.31 136.81 166.68C136.17 167.04 135.65 167.95 135.65 168.69Z" fill="white"/>
<path d="M131.54 171.06C131.54 171.8 132.06 172.1 132.7 171.73C133.34 171.36 133.86 170.46 133.86 169.72C133.86 168.98 133.34 168.68 132.7 169.05C132.06 169.42 131.54 170.31 131.54 171.06Z" fill="#D4ECFF"/>
<path d="M127.44 173.43C127.44 174.17 127.96 174.47 128.6 174.1C129.24 173.73 129.76 172.83 129.76 172.09C129.76 171.35 129.24 171.05 128.6 171.42C127.96 171.78 127.44 172.68 127.44 173.43Z" fill="white"/>
<path d="M110.15 185.53L112.54 184.15C112.9 183.94 113.19 183.39 113.19 182.91V180.38C113.19 179.9 112.9 179.69 112.54 179.89L110.15 181.27C109.79 181.48 109.5 182.03 109.5 182.51V185.04C109.51 185.52 109.8 185.74 110.15 185.53Z" fill="#D4ECFF"/>
<path d="M106.71 209.9L157.16 180.77C158.29 180.12 159.2 178.37 159.2 176.86V167.24C159.2 165.73 158.28 165.04 157.16 165.69L106.71 194.82C105.58 195.47 104.67 197.22 104.67 198.73V208.35C104.66 209.86 105.58 210.55 106.71 209.9Z" fill="#5793CE"/>
<path opacity="0.4" d="M108.15 206.52L155.7 179.07C156.27 178.74 156.74 177.85 156.74 177.09V169.86C156.74 169.1 156.28 168.75 155.7 169.08L108.15 196.53C107.58 196.86 107.11 197.75 107.11 198.51V205.74C107.12 206.5 107.58 206.85 108.15 206.52Z" fill="#D4ECFF"/>
<path d="M145.8 181.13L152.9 177.03C153.46 176.71 153.91 175.85 153.91 175.11C153.91 174.37 153.46 174.03 152.9 174.35L145.8 178.45C145.24 178.77 144.79 179.63 144.79 180.37C144.79 181.11 145.24 181.45 145.8 181.13Z" fill="#D4ECFF"/>
<path d="M139.75 183.28C139.75 184.02 140.27 184.32 140.91 183.95C141.55 183.58 142.07 182.68 142.07 181.94C142.07 181.2 141.55 180.9 140.91 181.27C140.27 181.64 139.75 182.54 139.75 183.28Z" fill="#173D7A"/>
<path d="M135.65 185.65C135.65 186.39 136.17 186.69 136.81 186.32C137.45 185.95 137.97 185.05 137.97 184.31C137.97 183.57 137.45 183.27 136.81 183.64C136.17 184.01 135.65 184.91 135.65 185.65Z" fill="#173D7A"/>
<path d="M131.54 188.02C131.54 188.76 132.06 189.06 132.7 188.69C133.34 188.32 133.86 187.42 133.86 186.68C133.86 185.94 133.34 185.64 132.7 186.01C132.06 186.38 131.54 187.28 131.54 188.02Z" fill="#D4ECFF"/>
<path d="M127.44 190.39C127.44 191.13 127.96 191.43 128.6 191.06C129.24 190.69 129.76 189.79 129.76 189.05C129.76 188.31 129.24 188.01 128.6 188.38C127.96 188.75 127.44 189.65 127.44 190.39Z" fill="#173D7A"/>
<path d="M110.15 202.5L112.54 201.12C112.9 200.91 113.19 200.36 113.19 199.88V197.35C113.19 196.87 112.9 196.66 112.54 196.86L110.15 198.24C109.79 198.45 109.5 199 109.5 199.48V202.01C109.51 202.48 109.8 202.7 110.15 202.5Z" fill="#173D7A"/>
<path d="M106.71 226.86L157.16 197.73C158.29 197.08 159.2 195.33 159.2 193.82V184.2C159.2 182.69 158.28 182 157.16 182.65L106.71 211.78C105.58 212.43 104.67 214.18 104.67 215.69V225.31C104.66 226.82 105.58 227.51 106.71 226.86Z" fill="#5793CE"/>
<path opacity="0.4" d="M108.15 223.49L155.7 196.04C156.27 195.71 156.74 194.82 156.74 194.06V186.83C156.74 186.07 156.28 185.72 155.7 186.05L108.15 213.5C107.58 213.83 107.11 214.72 107.11 215.48V222.71C107.12 223.47 107.58 223.82 108.15 223.49Z" fill="#D4ECFF"/>
<path d="M145.8 198.1L152.9 194C153.46 193.68 153.91 192.82 153.91 192.08C153.91 191.34 153.46 191 152.9 191.32L145.8 195.42C145.24 195.74 144.79 196.6 144.79 197.34C144.79 198.08 145.24 198.42 145.8 198.1Z" fill="#D4ECFF"/>
<path d="M138.45 201.16C138.45 202.56 139.43 203.13 140.65 202.43C141.86 201.73 142.85 200.03 142.85 198.62C142.85 197.22 141.87 196.65 140.65 197.35C139.44 198.06 138.45 199.76 138.45 201.16Z" fill="white"/>
<path d="M129.95 206.14C129.95 206.88 130.47 207.18 131.11 206.81C131.75 206.44 132.27 205.54 132.27 204.8C132.27 204.06 131.75 203.76 131.11 204.13C130.47 204.49 129.95 205.4 129.95 206.14Z" fill="#173D7A"/>
<path d="M125.85 208.51C125.85 209.25 126.37 209.55 127.01 209.18C127.65 208.81 128.17 207.91 128.17 207.17C128.17 206.43 127.65 206.13 127.01 206.5C126.37 206.86 125.85 207.76 125.85 208.51Z" fill="#D4ECFF"/>
<path d="M121.75 210.88C121.75 211.62 122.27 211.92 122.91 211.55C123.55 211.18 124.07 210.28 124.07 209.54C124.07 208.8 123.55 208.5 122.91 208.87C122.27 209.23 121.75 210.13 121.75 210.88Z" fill="#173D7A"/>
<path d="M110.15 219.46L112.54 218.08C112.9 217.87 113.19 217.32 113.19 216.84V214.31C113.19 213.83 112.9 213.62 112.54 213.82L110.15 215.2C109.79 215.41 109.5 215.96 109.5 216.44V218.97C109.51 219.45 109.8 219.67 110.15 219.46Z" fill="#D4ECFF"/>
<path opacity="0.3" d="M305.91 54.58L287.97 44.22L305.91 33.86L323.85 44.22L305.91 54.58Z" fill="#173D7A"/>
<path d="M323.85 31.07L305.91 41.43V20.71L323.85 10.36V31.07Z" fill="#173D7A"/>
<path d="M305.91 20.71L287.97 10.36L305.91 0L323.84 10.36L305.91 20.71Z" fill="#D4ECFF"/>
<path d="M305.91 41.43L287.97 31.07V10.36L305.91 20.71V41.43Z" fill="#5793CE"/>
<path d="M299.45 30.24L294.43 27.34V21.55L299.45 24.4401V30.24Z" fill="white"/>
</g>
<defs>
<radialGradient id="paint0_radial" cx="0" cy="0" r="1" gradientUnits="userSpaceOnUse" gradientTransform="translate(261 148) rotate(90) scale(148 261)">
<stop stop-color="#E09DFF"/>
<stop offset="0.4375" stop-color="#BC93FF" stop-opacity="0.54"/>
<stop offset="1" stop-color="#9A6AFF" stop-opacity="0"/>
</radialGradient>
<clipPath id="clip0">
<rect x="59" width="408.26" height="283.03" fill="white"/>
</clipPath>
</defs>
</svg>
