<svg width="477" height="280" viewBox="0 0 477 280" fill="none" xmlns="http://www.w3.org/2000/svg">
<ellipse cx="238.5" cy="140.5" rx="238.5" ry="139.5" fill="url(#paint0_radial)"/>
<path d="M294.072 242.087C294.072 243.802 292.866 245.883 291.384 246.74C289.901 247.597 288.695 246.901 288.695 245.186C288.695 243.471 289.901 241.39 291.384 240.533C292.866 239.684 294.072 240.372 294.072 242.087Z" fill="white"/>
<path d="M302.78 237.058C302.78 238.773 301.574 240.854 300.092 241.712C298.609 242.569 297.403 241.872 297.403 240.158C297.403 238.443 298.609 236.362 300.092 235.504C301.574 234.656 302.78 235.344 302.78 237.058Z" fill="white"/>
<path d="M311.488 232.03C311.488 233.745 310.282 235.826 308.8 236.683C307.317 237.541 306.111 236.844 306.111 235.129C306.111 233.414 307.317 231.333 308.8 230.476C310.282 229.628 311.488 230.324 311.488 232.03Z" fill="white"/>
<path d="M320.196 227.002C320.196 228.717 318.99 230.798 317.508 231.655C316.025 232.512 314.819 231.816 314.819 230.101C314.819 228.386 316.025 226.305 317.508 225.448C318.999 224.599 320.196 225.296 320.196 227.002Z" fill="white"/>
<path d="M71.2545 176.719L66.5477 179.434V173.995L71.2545 171.28V176.719Z" fill="white"/>
<path d="M78.8908 172.307L74.175 175.031V169.592L78.8908 166.876V172.307Z" fill="white"/>
<path d="M86.5181 167.903L81.8113 170.619V165.188L86.5181 162.464V167.903Z" fill="white"/>
<path d="M94.1454 163.5L89.4386 166.216V160.776L94.1454 158.061V163.5Z" fill="white"/>
<path d="M151.886 239.452L146.51 242.56V236.353L151.886 233.254V239.452Z" fill="white"/>
<path d="M159.344 235.094L153.967 238.202V231.994L159.344 228.895V235.094Z" fill="white"/>
<path d="M151.931 247.508L146.563 250.607V244.4L151.931 241.301V247.508Z" fill="white"/>
<path d="M159.344 243.23L153.967 246.329V240.122L159.344 237.023V243.23Z" fill="white"/>
<path opacity="0.5" d="M209.671 247.481C208.868 247.946 208.108 248.616 207.439 249.393C207.331 244.998 204.179 243.239 200.303 245.481C199.061 246.195 197.891 247.24 196.873 248.473C195.14 245.454 191.568 244.748 187.415 247.142C181.583 250.509 176.849 258.708 176.849 265.442C176.849 265.996 176.894 266.514 176.956 267.014C176.126 266.8 175.107 266.969 174 267.612C171.204 269.22 168.945 273.141 168.945 276.365C168.945 279.589 171.204 280.893 174 279.286L209.68 258.69C212.369 257.136 214.539 253.367 214.539 250.268C214.53 247.195 212.36 245.936 209.671 247.481Z" fill="white"/>
<path d="M380.938 151.381L360.762 139.725L380.938 128.079L401.114 139.725L380.938 151.381Z" fill="#1B417D" fill-opacity="0.3"/>
<path d="M380.938 144.164C380.67 144.164 380.411 144.093 380.17 143.959L359.994 132.312C359.521 132.036 359.226 131.535 359.226 130.982C359.226 130.428 359.521 129.928 359.994 129.651L380.17 118.005C380.643 117.728 381.232 117.728 381.706 118.005L401.882 129.651C402.355 129.928 402.65 130.428 402.65 130.982C402.65 131.535 402.355 132.036 401.882 132.312L381.706 143.959C381.465 144.093 381.197 144.164 380.938 144.164ZM363.825 130.982L380.938 140.86L398.05 130.982L380.929 121.104L363.825 130.982Z" fill="white"/>
<path d="M401.114 121.881L380.938 133.527V110.234L401.114 98.579V121.881Z" fill="url(#paint1_radial)"/>
<path d="M380.938 110.234L360.762 98.579L380.938 86.9326L401.114 98.5879L380.938 110.234Z" fill="url(#paint2_linear)"/>
<path d="M380.938 133.527L360.762 121.881V98.579L380.938 110.234V133.527Z" fill="url(#paint3_radial)"/>
<path d="M373.668 120.943L368.023 117.683V111.172L373.668 114.423V120.943Z" fill="white"/>
<path d="M100.085 240.077L72.2459 224.01C70.5401 223.027 70.7544 221.304 72.7282 220.16L99.6024 204.647C101.576 203.504 104.559 203.388 106.265 204.37L134.095 220.437C135.801 221.42 135.587 223.144 133.613 224.287L106.747 239.8C104.774 240.944 101.791 241.069 100.085 240.077Z" fill="#1B417D" fill-opacity="0.3"/>
<path d="M102.987 233.54C101.63 233.54 100.317 233.245 99.2898 232.655L71.46 216.588C70.2274 215.873 69.5129 214.766 69.5129 213.551C69.5129 212.185 70.3971 210.899 71.9333 210.006L98.8075 194.492C101.29 193.054 104.836 192.938 107.051 194.215L134.881 210.282C136.113 210.997 136.828 212.104 136.828 213.319C136.828 214.686 135.944 215.981 134.408 216.865L107.533 232.378C106.203 233.147 104.568 233.54 102.987 233.54ZM100.871 229.913C102.103 230.619 104.479 230.494 105.953 229.637L132.827 214.123C133.506 213.73 133.666 213.382 133.666 213.31C133.657 213.292 133.568 213.158 133.3 213.006L105.47 196.939C104.238 196.234 101.871 196.359 100.388 197.216L73.5142 212.739C72.8354 213.132 72.6746 213.48 72.6746 213.551C72.6835 213.569 72.7729 213.703 73.0408 213.855L100.871 229.913Z" fill="white"/>
<path d="M135.247 203.468V193.867L113.714 193.858L106.274 189.562C104.568 188.579 101.585 188.696 99.6114 189.839L92.6629 193.849L71.1028 193.831V203.709C71.0581 204.379 71.4243 205.022 72.246 205.495L100.076 221.563C101.782 222.545 104.765 222.429 106.739 221.286L133.622 205.772C134.765 205.111 135.31 204.263 135.247 203.468Z" fill="#396CAA"/>
<path d="M103.175 188.892C101.925 188.919 100.63 189.24 99.6025 189.83L92.6539 193.84L71.1028 193.831V203.709C71.0581 204.379 71.4243 205.022 72.246 205.495L100.076 221.563C100.898 222.036 102.014 222.25 103.166 222.224V188.892H103.175Z" fill="url(#paint4_radial)"/>
<path d="M73.541 193.831H71.1028V203.709C71.0581 204.379 71.4243 205.022 72.246 205.495L73.541 206.246V193.831Z" fill="#D4ECFF"/>
<path d="M100.513 221.768C101.987 222.402 104.122 222.366 105.845 221.706V210.488H100.513V221.768Z" fill="#5793CE"/>
<path d="M100.085 211.72L72.2459 195.653C70.5401 194.671 70.7544 192.947 72.7282 191.804L99.6024 176.29C101.576 175.147 104.559 175.031 106.265 176.013L134.095 192.081C135.801 193.063 135.587 194.787 133.613 195.93L106.739 211.444C104.774 212.587 101.791 212.703 100.085 211.72Z" fill="url(#paint5_linear)"/>
<path d="M133.622 194.036L106.747 209.55C104.774 210.693 101.791 210.809 100.085 209.827L72.246 193.76C71.8619 193.536 71.585 193.286 71.3975 193C70.808 193.947 71.076 194.965 72.246 195.644L100.076 211.711C101.782 212.694 104.765 212.578 106.739 211.435L133.613 195.921C135.149 195.037 135.613 193.804 134.944 192.831C134.685 193.268 134.238 193.679 133.622 194.036Z" fill="white"/>
<path d="M125.012 206.004C125.012 206.719 124.512 207.594 123.887 207.951C123.261 208.309 122.761 208.023 122.761 207.299C122.761 206.576 123.261 205.71 123.887 205.352C124.503 204.995 125.012 205.29 125.012 206.004Z" fill="#D4ECFF"/>
<path d="M128.629 203.914C128.629 204.629 128.129 205.504 127.504 205.861C126.879 206.219 126.378 205.933 126.378 205.209C126.378 204.495 126.879 203.62 127.504 203.262C128.12 202.905 128.629 203.2 128.629 203.914Z" fill="#D4ECFF"/>
<path d="M132.246 201.825C132.246 202.539 131.746 203.414 131.121 203.772C130.496 204.129 129.996 203.843 129.996 203.12C129.996 202.405 130.496 201.53 131.121 201.173C131.737 200.815 132.246 201.11 132.246 201.825Z" fill="#D4ECFF"/>
<path d="M101.729 201.753L88.7067 194.233C87.9029 193.768 88.0101 192.965 88.93 192.429L101.505 185.168C102.425 184.632 103.827 184.578 104.622 185.043L117.644 192.563C118.448 193.027 118.341 193.831 117.421 194.367L104.846 201.628C103.926 202.164 102.523 202.217 101.729 201.753Z" fill="#5793CE"/>
<path d="M102.978 195.456L101.174 194.42C101.067 194.358 101.076 194.242 101.201 194.17L102.943 193.17C103.068 193.099 103.264 193.09 103.371 193.152L105.176 194.188C105.283 194.251 105.274 194.367 105.149 194.438L103.407 195.439C103.282 195.519 103.086 195.528 102.978 195.456Z" fill="#D4ECFF"/>
<path d="M88.7063 194.234L88.742 194.252C88.8045 194.208 88.8581 194.163 88.9296 194.127L101.505 186.866C102.425 186.33 103.827 186.277 104.622 186.741L117.608 194.243C118.34 193.716 118.385 193.002 117.644 192.573L104.622 185.053C103.818 184.589 102.425 184.651 101.505 185.178L88.9296 192.439C88.0007 192.975 87.9025 193.779 88.7063 194.234Z" fill="#396CAA"/>
<path d="M147.456 107.546C146.929 107.85 146.42 108.234 145.938 108.662C145.724 101.812 140.776 99.088 134.685 102.598C129.728 105.465 125.521 111.592 124.012 117.603C122.788 117.442 121.35 117.754 119.805 118.648C115.366 121.211 111.767 127.445 111.767 132.571C111.767 137.698 115.366 139.779 119.805 137.216L147.456 121.255C150.734 119.362 153.396 114.762 153.396 110.976C153.396 107.189 150.734 105.652 147.456 107.546Z" fill="white"/>
<path d="M379.151 10.5343C378.231 11.0613 377.365 11.8294 376.606 12.7225C376.49 7.70313 372.882 5.69359 368.443 8.25687C367.023 9.07855 365.683 10.2664 364.522 11.6775C362.548 8.22114 358.458 7.42626 353.715 10.1592C347.043 14.0086 341.64 23.3775 341.64 31.0763C341.64 31.7104 341.694 32.3088 341.765 32.8804C340.809 32.6303 339.648 32.8357 338.38 33.5592C335.192 35.399 332.602 39.8825 332.602 43.5622C332.602 47.2419 335.192 48.7424 338.38 46.8936L379.151 23.3507C382.215 21.5823 384.707 17.2685 384.707 13.7317C384.707 10.195 382.224 8.75702 379.151 10.5343Z" fill="white"/>
<path d="M351.027 183.381C350.812 183.381 350.598 183.328 350.402 183.23C349.741 182.881 349.482 182.069 349.83 181.399C351.205 178.764 353.224 176.549 355.367 175.308C356.716 174.531 358.029 174.173 359.27 174.227C359.324 174.227 359.378 174.227 359.431 174.227C361.146 174.227 363.245 172.923 365.085 170.708C366.165 169.404 367.353 168.377 368.604 167.653C369.952 166.876 371.265 166.519 372.507 166.573C374.221 166.68 376.427 165.349 378.33 163.063C379.393 161.786 380.607 160.723 381.849 160.008C383.197 159.231 384.492 158.865 385.752 158.928C387.457 159.044 389.672 157.704 391.566 155.418C392.647 154.114 393.834 153.087 395.085 152.363C397.076 151.22 399.05 150.97 400.667 151.666C401.355 151.97 401.667 152.765 401.372 153.453C401.069 154.14 400.274 154.453 399.586 154.158C398.782 153.81 397.666 154.006 396.442 154.712C395.478 155.266 394.513 156.114 393.656 157.15C391.182 160.133 388.226 161.75 385.618 161.643C384.912 161.598 384.081 161.857 383.206 162.357C382.242 162.911 381.277 163.759 380.42 164.795C377.946 167.779 375.025 169.395 372.381 169.288C371.685 169.243 370.845 169.502 369.97 170.011C369.005 170.565 368.041 171.414 367.183 172.45C364.709 175.433 361.753 177.058 359.145 176.942C358.431 176.897 357.609 177.156 356.734 177.656C355.028 178.639 353.394 180.461 352.241 182.649C351.982 183.114 351.518 183.381 351.027 183.381Z" fill="white"/>
<path d="M240.27 251.134L129.308 187.061C126.173 185.248 126.566 182.086 130.183 179.988L205.742 136.376C209.368 134.286 214.852 134.054 217.987 135.867L328.949 199.931C332.084 201.744 331.691 204.906 328.073 207.005L252.515 250.616C248.898 252.715 243.414 252.938 240.27 251.134Z" fill="#1B417D" fill-opacity="0.3"/>
<path d="M245.602 241.399C243.378 241.399 241.244 240.935 239.618 239.997L128.656 175.933C126.87 174.906 125.887 173.414 125.887 171.735C125.887 169.815 127.218 167.948 129.54 166.609L205.099 122.997C209.145 120.657 215.093 120.443 218.647 122.488L329.61 186.552C331.396 187.579 332.378 189.071 332.378 190.75C332.378 192.67 331.048 194.537 328.725 195.876L253.167 239.488C250.979 240.756 248.228 241.399 245.602 241.399ZM240.922 237.746C243.646 239.318 248.665 239.086 251.872 237.237L327.43 193.626C328.904 192.777 329.779 191.705 329.779 190.75C329.779 189.848 328.984 189.196 328.315 188.803L217.352 124.739C214.619 123.167 209.609 123.399 206.403 125.248L130.844 168.859C129.37 169.708 128.495 170.779 128.495 171.735C128.495 172.637 129.29 173.289 129.96 173.682L240.922 237.746Z" fill="white"/>
<path d="M356.475 65.4618L245.513 1.3977C244.227 0.656409 242.914 0.540302 241.753 0.933278L241.762 0.924347L241.556 1.00473C241.538 1.01366 241.52 1.01366 241.511 1.02259L237.501 2.55877L241.101 4.31823C241.083 4.38075 241.065 4.44327 241.047 4.51472L221.443 93.6846C220.541 97.8019 222.354 102.607 225.489 104.42L333.789 166.948L333.405 171.539L337.791 169.842C339.264 169.154 340.443 167.6 340.926 165.376L360.53 76.2061C361.432 72.0798 359.619 67.2748 356.475 65.4618Z" fill="#173D7A"/>
<path d="M356.475 65.4618L245.513 1.3977C244.227 0.656409 242.914 0.540302 241.753 0.933278L241.762 0.924347L241.556 1.00473C241.538 1.01366 241.52 1.01366 241.511 1.02259L237.501 2.55877L241.101 4.31823C241.083 4.38075 241.065 4.44327 241.047 4.51472L227.605 65.6315L281.899 107.93L359.985 69.8917C359.253 67.9804 358.029 66.3549 356.475 65.4618Z" fill="#396CAA"/>
<path d="M352.295 78.1085L360.744 74.5092C360.896 71.2403 359.547 67.8554 357.323 66.0513L343.953 71.678L352.295 78.1085Z" fill="#274F89"/>
<path d="M329.538 171.092L218.576 107.028C215.441 105.215 213.628 100.41 214.53 96.2925L234.134 7.12263C235.036 3.00531 238.314 1.13867 241.458 2.95172L352.42 67.0158C355.555 68.8288 357.368 73.6339 356.466 77.7512L336.862 166.921C335.96 171.038 332.682 172.905 329.538 171.092Z" fill="url(#paint6_radial)"/>
<path d="M353.492 66.6228L242.521 2.55872C241.002 1.68345 239.448 1.68345 238.153 2.37116C239.198 2.13895 240.333 2.29971 241.458 2.95169L352.42 67.0158C355.555 68.8288 357.368 73.6338 356.466 77.7512L336.862 166.912C336.397 169.038 335.29 170.547 333.906 171.28C335.781 170.869 337.344 169.172 337.925 166.528L357.529 77.3671C358.44 73.2498 356.627 68.4358 353.492 66.6228Z" fill="white"/>
<path d="M327.136 164.974L222.774 104.75C219.898 103.089 218.246 98.6951 219.067 94.9261L237.135 12.7494C237.966 8.98037 240.967 7.2745 243.834 8.92678L348.196 69.1504C351.072 70.8116 352.724 75.2058 351.902 78.9748L333.834 161.151C333.012 164.92 330.012 166.626 327.136 164.974Z" fill="white"/>
<path d="M327.136 164.974L222.774 104.75C219.898 103.089 218.246 98.6951 219.067 94.9261L237.135 12.7494C237.966 8.98037 240.967 7.2745 243.834 8.92678L348.196 69.1504C351.072 70.8116 352.724 75.2058 351.902 78.9748L333.834 161.151C333.012 164.92 330.012 166.626 327.136 164.974Z" fill="url(#paint7_radial)"/>
<path d="M328.047 164.599L223.685 104.375C220.809 102.714 219.157 98.32 219.978 94.551L238.046 12.3743C238.466 10.4719 239.44 9.09652 240.672 8.40881C239.02 8.83751 237.653 10.3826 237.135 12.7405L219.067 94.9172C218.237 98.6862 219.898 103.08 222.774 104.742L327.136 164.965C328.556 165.787 330.003 165.778 331.208 165.108C330.217 165.376 329.118 165.224 328.047 164.599Z" fill="#5793CE"/>
<path d="M331.074 173.879L315.909 171.878L217.995 115.343C214.861 113.53 209.377 113.762 205.751 115.852L136.373 155.891L127.191 154.685V159.892H127.2C127.138 161.098 127.825 162.25 129.308 163.107L240.27 227.172C243.405 228.985 248.889 228.752 252.515 226.662L328.074 183.051C330.11 181.872 331.128 180.354 331.066 178.934V173.879H331.074Z" fill="#173D7A"/>
<path d="M257.507 138.162L250.55 134.143H174.071L136.364 155.9L127.191 154.685V159.892H127.2C127.138 161.098 127.825 162.25 129.308 163.107L240.27 227.172C241.931 228.127 244.245 228.511 246.593 228.359L257.507 138.162Z" fill="#396CAA"/>
<path d="M131.264 155.221L127.191 154.685V159.892H127.2C127.138 161.098 127.825 162.25 129.308 163.107L131.264 164.233V155.221Z" fill="#5793CE"/>
<path d="M241.386 227.69C244.361 228.815 248.612 228.574 251.791 227.046V215.436H241.386V227.69Z" fill="#274F89"/>
<path d="M240.27 221.973L129.308 157.909C126.173 156.096 126.566 152.935 130.183 150.836L205.742 107.224C209.368 105.134 214.852 104.902 217.987 106.715L328.949 170.779C332.084 172.592 331.691 175.754 328.073 177.853L252.515 221.464C248.898 223.563 243.414 223.786 240.27 221.973Z" fill="url(#paint8_radial)"/>
<path d="M328.073 175.96L252.515 219.571C248.889 221.661 243.405 221.893 240.27 220.08L129.308 156.007C128.281 155.409 127.638 154.676 127.361 153.873C126.87 155.355 127.495 156.856 129.308 157.909L240.27 221.974C243.405 223.787 248.889 223.554 252.515 221.464L328.073 177.853C330.512 176.442 331.476 174.557 330.905 172.914C330.547 174.004 329.601 175.075 328.073 175.96Z" fill="white"/>
<path d="M176.501 136.698L171.481 133.795C171.079 133.563 171.133 133.152 171.597 132.884L177.528 129.463C177.992 129.195 178.698 129.169 179.1 129.401L184.119 132.303C184.521 132.536 184.467 132.947 184.003 133.214L178.073 136.635C177.608 136.903 176.903 136.93 176.501 136.698Z" fill="#5793CE"/>
<path d="M184.253 141.172L179.234 138.27C178.832 138.037 178.885 137.626 179.35 137.359L185.28 133.938C185.745 133.67 186.45 133.643 186.852 133.875L191.871 136.778C192.273 137.01 192.22 137.421 191.755 137.689L185.825 141.11C185.361 141.378 184.655 141.413 184.253 141.172Z" fill="#5793CE"/>
<path d="M192.006 145.656L186.986 142.753C186.584 142.521 186.638 142.11 187.102 141.842L193.033 138.421C193.497 138.153 194.203 138.127 194.605 138.359L199.624 141.262C200.026 141.494 199.972 141.905 199.508 142.173L193.577 145.593C193.113 145.852 192.407 145.888 192.006 145.656Z" fill="#5793CE"/>
<path d="M202.732 141.958L197.713 139.055C197.311 138.823 197.364 138.412 197.829 138.145L202.803 135.269C203.268 135.001 203.973 134.974 204.375 135.206L209.395 138.109C209.797 138.341 209.743 138.752 209.279 139.02L204.304 141.896C203.839 142.164 203.134 142.19 202.732 141.958Z" fill="#5793CE"/>
<path d="M210.484 146.433L205.465 143.53C205.063 143.298 205.117 142.887 205.581 142.619L210.556 139.743C211.02 139.475 211.726 139.449 212.128 139.681L217.147 142.583C217.549 142.816 217.495 143.226 217.031 143.494L212.056 146.37C211.592 146.638 210.886 146.665 210.484 146.433Z" fill="#5793CE"/>
<path d="M218.237 150.907L213.217 148.005C212.815 147.773 212.869 147.362 213.333 147.094L218.308 144.218C218.772 143.95 219.478 143.923 219.88 144.155L224.899 147.058C225.301 147.29 225.248 147.701 224.783 147.969L219.808 150.845C219.344 151.113 218.638 151.14 218.237 150.907Z" fill="#5793CE"/>
<path d="M225.989 155.382L220.97 152.479C220.568 152.247 220.621 151.836 221.086 151.568L226.06 148.692C226.525 148.424 227.23 148.398 227.632 148.63L232.652 151.532C233.054 151.765 233 152.176 232.536 152.443L227.561 155.319C227.097 155.587 226.391 155.614 225.989 155.382Z" fill="#5793CE"/>
<path d="M233.741 159.865L228.722 156.963C228.32 156.731 228.374 156.32 228.838 156.052L233.813 153.176C234.277 152.908 234.983 152.881 235.385 153.113L240.404 156.016C240.806 156.248 240.752 156.659 240.288 156.927L235.313 159.803C234.849 160.062 234.152 160.098 233.741 159.865Z" fill="#5793CE"/>
<path d="M241.503 164.34L236.483 161.437C236.081 161.205 236.135 160.794 236.599 160.526L241.574 157.65C242.038 157.383 242.744 157.356 243.146 157.588L248.165 160.491C248.567 160.723 248.514 161.134 248.049 161.402L243.074 164.278C242.61 164.545 241.904 164.572 241.503 164.34Z" fill="#5793CE"/>
<path d="M249.255 168.815L244.236 165.912C243.834 165.68 243.887 165.269 244.352 165.001L249.326 162.125C249.791 161.857 250.496 161.83 250.898 162.062L255.918 164.965C256.32 165.197 256.266 165.608 255.802 165.876L250.827 168.752C250.362 169.02 249.657 169.047 249.255 168.815Z" fill="#5793CE"/>
<path d="M257.007 173.289L251.988 170.386C251.586 170.154 251.64 169.743 252.104 169.475L257.079 166.6C257.543 166.332 258.249 166.305 258.651 166.537L263.67 169.44C264.072 169.672 264.018 170.083 263.554 170.351L258.579 173.227C258.115 173.495 257.409 173.521 257.007 173.289Z" fill="#5793CE"/>
<path d="M264.76 177.773L259.74 174.87C259.338 174.638 259.392 174.227 259.856 173.959L264.831 171.083C265.296 170.815 266.001 170.788 266.403 171.021L271.422 173.923C271.824 174.155 271.771 174.566 271.306 174.834L266.332 177.71C265.867 177.969 265.162 178.005 264.76 177.773Z" fill="#5793CE"/>
<path d="M272.512 182.247L267.493 179.345C267.091 179.112 267.144 178.702 267.609 178.434L272.583 175.558C273.048 175.29 273.753 175.263 274.155 175.495L279.175 178.398C279.577 178.63 279.523 179.041 279.059 179.309L274.084 182.185C273.619 182.453 272.914 182.479 272.512 182.247Z" fill="#5793CE"/>
<path d="M214.155 139.833L209.136 136.93C208.734 136.698 208.787 136.287 209.252 136.019L214.226 133.143C214.691 132.875 215.396 132.848 215.798 133.081L220.818 135.983C221.22 136.215 221.166 136.626 220.702 136.894L215.727 139.77C215.263 140.038 214.557 140.074 214.155 139.833Z" fill="#5793CE"/>
<path d="M206.287 135.295L201.267 132.393C200.865 132.161 200.919 131.75 201.383 131.482L206.358 128.606C206.822 128.338 207.528 128.311 207.93 128.543L212.949 131.446C213.351 131.678 213.298 132.089 212.833 132.357L207.859 135.233C207.394 135.501 206.689 135.528 206.287 135.295Z" fill="#5793CE"/>
<path d="M198.4 130.74L187.585 124.498C187.183 124.265 187.236 123.854 187.701 123.587L192.675 120.711C193.14 120.443 193.845 120.416 194.247 120.648L205.063 126.891C205.465 127.123 205.411 127.534 204.947 127.802L199.972 130.678C199.508 130.946 198.811 130.973 198.4 130.74Z" fill="#5793CE"/>
<path d="M203.911 125.212L195.131 120.148C194.729 119.916 194.783 119.505 195.247 119.237L200.222 116.361C200.687 116.093 201.392 116.066 201.794 116.299L210.574 121.363C210.975 121.595 210.922 122.006 210.457 122.274L205.483 125.15C205.018 125.409 204.313 125.444 203.911 125.212Z" fill="#5793CE"/>
<path d="M221.907 144.316L216.888 141.413C216.486 141.181 216.54 140.77 217.004 140.502L221.979 137.627C222.443 137.359 223.149 137.332 223.551 137.564L228.57 140.467C228.972 140.699 228.918 141.11 228.454 141.378L223.479 144.254C223.015 144.513 222.309 144.548 221.907 144.316Z" fill="#5793CE"/>
<path d="M229.66 148.791L224.64 145.888C224.238 145.656 224.292 145.245 224.756 144.977L229.731 142.101C230.196 141.833 230.901 141.806 231.303 142.039L236.322 144.941C236.724 145.174 236.671 145.584 236.206 145.852L231.232 148.728C230.767 148.996 230.062 149.023 229.66 148.791Z" fill="#5793CE"/>
<path d="M237.412 153.265L232.393 150.363C231.991 150.13 232.044 149.719 232.509 149.452L237.484 146.576C237.948 146.308 238.654 146.281 239.055 146.513L244.075 149.416C244.477 149.648 244.423 150.059 243.959 150.327L238.984 153.203C238.52 153.471 237.823 153.497 237.412 153.265Z" fill="#5793CE"/>
<path d="M245.173 157.74L240.154 154.837C239.752 154.605 239.806 154.194 240.27 153.926L245.245 151.05C245.709 150.782 246.415 150.756 246.817 150.988L251.836 153.89C252.238 154.123 252.184 154.533 251.72 154.801L246.745 157.677C246.281 157.945 245.575 157.972 245.173 157.74Z" fill="#5793CE"/>
<path d="M252.926 162.223L247.906 159.321C247.504 159.088 247.558 158.678 248.022 158.41L252.997 155.534C253.462 155.266 254.167 155.239 254.569 155.471L259.588 158.374C259.99 158.606 259.937 159.017 259.472 159.285L254.498 162.161C254.033 162.42 253.328 162.456 252.926 162.223Z" fill="#5793CE"/>
<path d="M260.678 166.698L255.659 163.795C255.257 163.563 255.31 163.152 255.775 162.884L260.75 160.008C261.214 159.74 261.92 159.714 262.321 159.946L267.341 162.848C267.743 163.081 267.689 163.491 267.225 163.759L262.25 166.635C261.786 166.903 261.08 166.93 260.678 166.698Z" fill="#5793CE"/>
<path d="M268.43 171.172L263.411 168.27C263.009 168.038 263.063 167.627 263.527 167.359L268.502 164.483C268.966 164.215 269.672 164.188 270.074 164.42L275.093 167.323C275.495 167.555 275.441 167.966 274.977 168.234L270.002 171.11C269.538 171.378 268.832 171.405 268.43 171.172Z" fill="#5793CE"/>
<path d="M276.183 175.647L271.163 172.744C270.761 172.512 270.815 172.101 271.279 171.833L276.254 168.957C276.719 168.69 277.424 168.663 277.826 168.895L282.845 171.798C283.247 172.03 283.194 172.441 282.729 172.709L277.755 175.584C277.29 175.852 276.585 175.879 276.183 175.647Z" fill="#5793CE"/>
<path d="M283.935 180.121L278.916 177.219C278.514 176.987 278.567 176.576 279.032 176.308L284.007 173.432C284.471 173.164 285.177 173.137 285.578 173.369L290.598 176.272C291 176.504 290.946 176.915 290.482 177.183L285.507 180.059C285.043 180.327 284.337 180.354 283.935 180.121Z" fill="#5793CE"/>
<path d="M297.725 188.079L286.766 181.756C286.364 181.524 286.418 181.113 286.882 180.845L291.857 177.969C292.322 177.701 293.027 177.674 293.429 177.907L304.388 184.23C304.79 184.462 304.736 184.873 304.272 185.141L299.297 188.017C298.832 188.285 298.127 188.32 297.725 188.079Z" fill="#5793CE"/>
<path d="M312.819 179.371L303.575 174.03C303.173 173.798 303.227 173.387 303.691 173.119L308.666 170.244C309.13 169.976 309.836 169.949 310.238 170.181L319.482 175.522C319.883 175.754 319.83 176.165 319.365 176.433L314.391 179.309C313.926 179.568 313.221 179.603 312.819 179.371Z" fill="#5793CE"/>
<path d="M235.483 143.441L230.464 140.538C230.062 140.306 230.115 139.895 230.58 139.627L235.554 136.751C236.019 136.483 236.724 136.457 237.126 136.689L242.146 139.591C242.548 139.824 242.494 140.235 242.03 140.502L237.055 143.378C236.59 143.637 235.894 143.673 235.483 143.441Z" fill="#5793CE"/>
<path d="M227.543 138.85L222.524 135.947C222.122 135.715 222.175 135.304 222.64 135.036L227.614 132.161C228.079 131.893 228.784 131.866 229.186 132.098L234.206 135.001C234.608 135.233 234.554 135.644 234.09 135.912L229.115 138.788C228.65 139.056 227.945 139.082 227.543 138.85Z" fill="#5793CE"/>
<path d="M219.594 134.259L214.575 131.357C214.173 131.125 214.227 130.714 214.691 130.446L219.666 127.57C220.13 127.302 220.836 127.275 221.238 127.507L226.257 130.41C226.659 130.642 226.605 131.053 226.141 131.321L221.166 134.197C220.702 134.465 219.996 134.492 219.594 134.259Z" fill="#5793CE"/>
<path d="M211.645 129.678L206.626 126.775C206.224 126.543 206.278 126.132 206.742 125.864L211.717 122.988C212.181 122.72 212.887 122.693 213.289 122.926L218.308 125.828C218.71 126.06 218.656 126.471 218.192 126.739L213.217 129.615C212.753 129.874 212.047 129.91 211.645 129.678Z" fill="#5793CE"/>
<path d="M243.244 147.915L238.225 145.013C237.823 144.78 237.876 144.37 238.341 144.102L243.316 141.226C243.78 140.958 244.486 140.931 244.887 141.163L249.907 144.066C250.309 144.298 250.255 144.709 249.791 144.977L244.816 147.853C244.352 148.121 243.646 148.148 243.244 147.915Z" fill="#5793CE"/>
<path d="M250.997 152.39L245.977 149.487C245.575 149.255 245.629 148.844 246.093 148.576L251.068 145.7C251.532 145.432 252.238 145.406 252.64 145.638L257.659 148.541C258.061 148.773 258.008 149.184 257.543 149.452L252.568 152.327C252.104 152.595 251.398 152.622 250.997 152.39Z" fill="#5793CE"/>
<path d="M258.749 156.865L253.73 153.962C253.328 153.73 253.381 153.319 253.846 153.051L258.82 150.175C259.285 149.907 259.99 149.88 260.392 150.113L265.412 153.015C265.814 153.247 265.76 153.658 265.296 153.926L260.321 156.802C259.856 157.07 259.151 157.097 258.749 156.865Z" fill="#5793CE"/>
<path d="M266.501 161.339L261.482 158.436C261.08 158.204 261.134 157.793 261.598 157.525L266.573 154.65C267.037 154.382 267.743 154.355 268.145 154.587L273.164 157.49C273.566 157.722 273.512 158.133 273.048 158.401L268.073 161.277C267.609 161.544 266.903 161.58 266.501 161.339Z" fill="#5793CE"/>
<path d="M274.254 165.823L269.234 162.92C268.832 162.688 268.886 162.277 269.35 162.009L274.325 159.133C274.79 158.865 275.495 158.838 275.897 159.071L280.916 161.973C281.318 162.205 281.265 162.616 280.8 162.884L275.826 165.76C275.361 166.028 274.656 166.055 274.254 165.823Z" fill="#5793CE"/>
<path d="M282.006 170.297L276.987 167.395C276.585 167.162 276.638 166.751 277.103 166.484L282.077 163.608C282.542 163.34 283.247 163.313 283.649 163.545L288.669 166.448C289.071 166.68 289.017 167.091 288.553 167.359L283.578 170.235C283.113 170.503 282.408 170.529 282.006 170.297Z" fill="#5793CE"/>
<path d="M289.758 174.772L284.739 171.869C284.337 171.637 284.391 171.226 284.855 170.958L289.83 168.082C290.294 167.814 291 167.787 291.402 168.02L296.421 170.922C296.823 171.154 296.769 171.565 296.305 171.833L291.33 174.709C290.866 174.977 290.169 175.004 289.758 174.772Z" fill="#5793CE"/>
<path d="M297.52 179.246L292.5 176.344C292.098 176.111 292.152 175.701 292.616 175.433L297.591 172.557C298.055 172.289 298.761 172.262 299.163 172.494L304.182 175.397C304.584 175.629 304.531 176.04 304.066 176.308L299.091 179.184C298.627 179.452 297.921 179.478 297.52 179.246Z" fill="#5793CE"/>
<path d="M305.272 183.73L300.253 180.827C299.851 180.595 299.904 180.184 300.369 179.916L305.343 177.04C305.808 176.772 306.513 176.746 306.915 176.978L311.935 179.88C312.337 180.113 312.283 180.523 311.819 180.791L306.844 183.667C306.379 183.926 305.674 183.962 305.272 183.73Z" fill="#5793CE"/>
<path d="M231.401 132.366L226.382 129.463C225.98 129.231 226.034 128.82 226.498 128.552L231.473 125.676C231.937 125.409 232.643 125.382 233.045 125.614L238.064 128.517C238.466 128.749 238.412 129.16 237.948 129.428L232.973 132.303C232.509 132.571 231.812 132.598 231.401 132.366Z" fill="#5793CE"/>
<path d="M223.694 127.909L218.674 125.007C218.272 124.774 218.326 124.364 218.79 124.096L223.765 121.22C224.229 120.952 224.935 120.925 225.337 121.157L230.356 124.06C230.758 124.292 230.705 124.703 230.24 124.971L225.266 127.847C224.801 128.115 224.096 128.141 223.694 127.909Z" fill="#5793CE"/>
<path d="M215.977 123.453L210.958 120.55C210.556 120.318 210.609 119.907 211.074 119.639L216.049 116.763C216.513 116.495 217.218 116.468 217.62 116.701L222.64 119.603C223.042 119.835 222.988 120.246 222.524 120.514L217.549 123.39C217.085 123.658 216.379 123.694 215.977 123.453Z" fill="#5793CE"/>
<path d="M208.26 119.005L203.241 116.102C202.839 115.87 202.893 115.459 203.357 115.191L208.332 112.315C208.796 112.047 209.502 112.021 209.904 112.253L214.923 115.155C215.325 115.388 215.271 115.798 214.807 116.066L209.832 118.942C209.368 119.21 208.662 119.237 208.26 119.005Z" fill="#5793CE"/>
<path d="M216.191 114.423L211.172 111.52C210.77 111.288 210.824 110.877 211.288 110.609L212.931 109.663C213.396 109.395 214.101 109.368 214.503 109.6L219.523 112.503C219.925 112.735 219.871 113.146 219.407 113.414L217.763 114.361C217.299 114.628 216.593 114.655 216.191 114.423Z" fill="#5793CE"/>
<path d="M226.257 120.237L221.237 117.335C220.836 117.102 220.889 116.692 221.354 116.424L222.997 115.477C223.461 115.209 224.167 115.182 224.569 115.414L229.588 118.317C229.99 118.549 229.937 118.96 229.472 119.228L227.829 120.175C227.364 120.443 226.668 120.47 226.257 120.237Z" fill="#5793CE"/>
<path d="M233.947 124.667L228.927 121.765C228.525 121.532 228.579 121.121 229.044 120.854L230.687 119.907C231.151 119.639 231.857 119.612 232.259 119.844L237.278 122.747C237.68 122.979 237.626 123.39 237.162 123.658L235.519 124.605C235.054 124.873 234.349 124.899 233.947 124.667Z" fill="#5793CE"/>
<path d="M241.628 129.106L236.608 126.203C236.206 125.971 236.26 125.56 236.724 125.292L238.368 124.346C238.832 124.078 239.538 124.051 239.94 124.283L244.959 127.186C245.361 127.418 245.307 127.829 244.843 128.097L243.2 129.044C242.735 129.311 242.03 129.338 241.628 129.106Z" fill="#5793CE"/>
<path d="M249.309 133.545L244.289 130.642C243.887 130.41 243.941 129.999 244.405 129.731L246.049 128.785C246.513 128.517 247.219 128.49 247.621 128.722L252.64 131.625C253.042 131.857 252.988 132.268 252.524 132.536L250.88 133.482C250.416 133.741 249.71 133.777 249.309 133.545Z" fill="#5793CE"/>
<path d="M292.205 158.302L287.186 155.4C286.784 155.168 286.838 154.757 287.302 154.489L288.946 153.542C289.41 153.274 290.116 153.247 290.517 153.48L295.537 156.382C295.939 156.614 295.885 157.025 295.421 157.293L293.777 158.24C293.313 158.508 292.607 158.535 292.205 158.302Z" fill="#5793CE"/>
<path d="M299.886 162.741L294.867 159.839C294.465 159.606 294.519 159.196 294.983 158.928L296.626 157.981C297.091 157.713 297.796 157.686 298.198 157.918L303.218 160.821C303.62 161.053 303.566 161.464 303.102 161.732L301.458 162.679C300.994 162.947 300.288 162.974 299.886 162.741Z" fill="#5793CE"/>
<path d="M307.567 167.18L302.548 164.277C302.146 164.045 302.2 163.634 302.664 163.366L304.307 162.42C304.772 162.152 305.477 162.125 305.879 162.357L310.899 165.26C311.301 165.492 311.247 165.903 310.783 166.171L309.139 167.118C308.675 167.377 307.969 167.412 307.567 167.18Z" fill="#5793CE"/>
<path d="M315.248 171.61L310.229 168.707C309.827 168.475 309.88 168.064 310.345 167.796L311.988 166.85C312.453 166.582 313.158 166.555 313.56 166.787L318.58 169.69C318.981 169.922 318.928 170.333 318.463 170.601L316.82 171.548C316.356 171.816 315.65 171.842 315.248 171.61Z" fill="#5793CE"/>
<path d="M239.163 136.841L234.143 133.938C233.741 133.706 233.795 133.295 234.259 133.027L239.234 130.151C239.698 129.883 240.404 129.856 240.806 130.088L245.825 132.991C246.227 133.223 246.174 133.634 245.709 133.902L240.735 136.778C240.261 137.046 239.565 137.073 239.163 136.841Z" fill="#5793CE"/>
<path d="M246.915 141.315L241.896 138.412C241.494 138.18 241.547 137.769 242.012 137.501L246.986 134.626C247.451 134.358 248.156 134.331 248.558 134.563L253.578 137.466C253.98 137.698 253.926 138.109 253.462 138.377L248.487 141.253C248.022 141.521 247.317 141.547 246.915 141.315Z" fill="#5793CE"/>
<path d="M254.667 145.799L249.648 142.896C249.246 142.664 249.3 142.253 249.764 141.985L254.739 139.109C255.203 138.841 255.909 138.814 256.311 139.047L261.33 141.949C261.732 142.181 261.678 142.592 261.214 142.86L256.239 145.736C255.775 145.995 255.069 146.031 254.667 145.799Z" fill="#5793CE"/>
<path d="M262.42 150.273L257.4 147.371C256.998 147.138 257.052 146.728 257.516 146.46L262.491 143.584C262.956 143.316 263.661 143.289 264.063 143.521L269.082 146.424C269.484 146.656 269.431 147.067 268.966 147.335L263.992 150.211C263.527 150.479 262.822 150.505 262.42 150.273Z" fill="#5793CE"/>
<path d="M270.172 154.748L265.153 151.845C264.751 151.613 264.804 151.202 265.269 150.934L270.243 148.058C270.708 147.79 271.413 147.763 271.815 147.996L276.835 150.898C277.237 151.131 277.183 151.541 276.719 151.809L271.744 154.685C271.279 154.953 270.574 154.98 270.172 154.748Z" fill="#5793CE"/>
<path d="M277.924 159.222L272.905 156.32C272.503 156.087 272.557 155.677 273.021 155.409L277.996 152.533C278.46 152.265 279.166 152.238 279.568 152.47L284.587 155.373C284.989 155.605 284.935 156.016 284.471 156.284L279.496 159.16C279.032 159.428 278.326 159.455 277.924 159.222Z" fill="#5793CE"/>
<path d="M285.677 163.697L280.657 160.794C280.255 160.562 280.309 160.151 280.773 159.883L285.748 157.007C286.213 156.739 286.918 156.713 287.32 156.945L292.339 159.848C292.741 160.08 292.688 160.491 292.223 160.759L287.249 163.634C286.784 163.902 286.079 163.929 285.677 163.697Z" fill="#5793CE"/>
<path d="M293.429 168.18L288.41 165.278C288.008 165.046 288.061 164.635 288.526 164.367L293.501 161.491C293.965 161.223 294.671 161.196 295.072 161.428L300.092 164.331C300.494 164.563 300.44 164.974 299.976 165.242L295.001 168.118C294.537 168.377 293.84 168.413 293.429 168.18Z" fill="#5793CE"/>
<path d="M301.19 172.655L296.171 169.752C295.769 169.52 295.823 169.109 296.287 168.841L301.262 165.965C301.726 165.697 302.432 165.671 302.834 165.903L307.853 168.806C308.255 169.038 308.201 169.449 307.737 169.717L302.762 172.592C302.298 172.86 301.592 172.887 301.19 172.655Z" fill="#5793CE"/>
<path d="M194.828 137.394L180.038 128.856C179.636 128.624 179.689 128.213 180.154 127.945L185.128 125.069C185.593 124.801 186.298 124.774 186.7 125.007L201.49 133.545C201.892 133.777 201.839 134.188 201.374 134.456L196.4 137.332C195.935 137.6 195.23 137.627 194.828 137.394Z" fill="#5793CE"/>
<path d="M290.08 192.393L275.29 183.855C274.888 183.623 274.941 183.212 275.406 182.944L280.38 180.068C280.845 179.8 281.55 179.773 281.952 180.005L296.743 188.544C297.144 188.776 297.091 189.187 296.626 189.455L291.652 192.331C291.187 192.59 290.491 192.625 290.08 192.393Z" fill="#5793CE"/>
<path d="M259.079 184.373L254.06 181.47C253.658 181.238 253.712 180.827 254.176 180.559L260.106 177.139C260.571 176.871 261.276 176.844 261.678 177.076L266.698 179.979C267.1 180.211 267.046 180.622 266.582 180.89L260.651 184.31C260.187 184.578 259.481 184.605 259.079 184.373Z" fill="#5793CE"/>
<path d="M202.768 151.863L194.738 147.228C194.337 146.995 194.39 146.585 194.855 146.317L200.785 142.896C201.249 142.628 201.955 142.601 202.357 142.833L210.386 147.469C210.788 147.701 210.734 148.112 210.27 148.38L204.34 151.8C203.875 152.068 203.17 152.095 202.768 151.863Z" fill="#5793CE"/>
<path d="M251.604 180.059L243.575 175.424C243.173 175.191 243.226 174.781 243.691 174.513L249.621 171.092C250.086 170.824 250.791 170.797 251.193 171.029L259.222 175.665C259.624 175.897 259.571 176.308 259.106 176.576L253.176 179.997C252.711 180.264 252.006 180.291 251.604 180.059Z" fill="#5793CE"/>
<path d="M213.959 158.329L205.929 153.694C205.527 153.462 205.581 153.051 206.045 152.783L211.976 149.362C212.44 149.094 213.146 149.068 213.548 149.3L221.577 153.935C221.979 154.167 221.925 154.578 221.461 154.846L215.53 158.267C215.066 158.526 214.36 158.561 213.959 158.329Z" fill="#5793CE"/>
<path d="M213.592 149.327L248.505 169.484C248.942 169.735 248.942 170.136 248.505 170.386L242.458 173.879C242.021 174.129 241.324 174.129 240.886 173.879L205.974 153.721L213.592 149.327Z" fill="#5793CE"/>
<path d="M280.747 192.491L286.338 195.724C286.668 195.912 286.623 196.251 286.248 196.466L283.828 197.868C283.444 198.091 282.872 198.109 282.542 197.922L276.951 194.688C276.62 194.501 276.665 194.162 277.04 193.947L279.461 192.545C279.836 192.322 280.416 192.304 280.747 192.491Z" fill="#5793CE"/>
<path d="M272.932 187.981L278.523 191.214C278.853 191.402 278.809 191.741 278.433 191.955L276.013 193.358C275.629 193.581 275.057 193.599 274.727 193.411L269.136 190.178C268.806 189.991 268.85 189.651 269.225 189.437L271.646 188.035C272.021 187.811 272.601 187.785 272.932 187.981Z" fill="#5793CE"/>
<path d="M265.179 183.498L270.77 186.731C271.101 186.918 271.056 187.258 270.681 187.472L268.261 188.874C267.877 189.098 267.305 189.115 266.975 188.928L261.384 185.695C261.053 185.507 261.098 185.168 261.473 184.953L263.893 183.551C264.268 183.337 264.849 183.31 265.179 183.498Z" fill="#5793CE"/>
<path d="M277.21 185.507L282.801 188.74C283.131 188.928 283.087 189.267 282.712 189.482L280.291 190.884C279.907 191.107 279.336 191.125 279.005 190.937L273.414 187.704C273.084 187.517 273.128 187.177 273.503 186.963L275.924 185.561C276.299 185.337 276.879 185.32 277.21 185.507Z" fill="#5793CE"/>
<path d="M261.625 50.359L249.014 43.0711L249.55 40.356L262.161 47.6439L261.625 50.359Z" fill="#D4ECFF"/>
<path d="M260.258 56.6645L247.647 49.3855L248.183 46.6704L260.794 53.9494L260.258 56.6645Z" fill="white"/>
<path d="M322.152 144.182L309.541 136.903L310.077 134.188L322.688 141.467L322.152 144.182Z" fill="#D4ECFF"/>
<path d="M257.516 69.2844L244.914 62.0054L245.45 59.2903L258.061 66.5693L257.516 69.2844Z" fill="#D4ECFF"/>
<path d="M311.265 104.777L264.608 77.8406L265.215 74.8129L311.863 101.741L311.265 104.777Z" fill="#D4ECFF"/>
<path d="M294.554 109.895L261.991 91.0945L262.589 88.0579L295.153 106.858L294.554 109.895Z" fill="#D4ECFF"/>
<path d="M291.473 100.731L263.304 84.4675L263.902 81.4309L292.071 97.7037L291.473 100.731Z" fill="white"/>
<path d="M285.489 74.7057C285.043 75.6881 283.908 76.0364 282.953 75.4827C282.006 74.9379 281.595 73.6964 282.042 72.714C282.488 71.7316 283.622 71.3832 284.578 71.937C285.534 72.4907 285.945 73.7322 285.489 74.7057Z" fill="#FF2C9C"/>
<path d="M291.562 78.2157C291.116 79.1981 289.982 79.5464 289.026 78.9927C288.079 78.4479 287.668 77.2064 288.115 76.224C288.561 75.2416 289.696 74.8932 290.651 75.447C291.607 75.9918 292.009 77.2332 291.562 78.2157Z" fill="white"/>
<path d="M297.627 81.7168C297.18 82.6992 296.046 83.0475 295.09 82.4938C294.144 81.949 293.733 80.7076 294.179 79.7251C294.626 78.7427 295.76 78.3943 296.716 78.9481C297.671 79.5018 298.073 80.7343 297.627 81.7168Z" fill="#D4ECFF"/>
<path d="M303.691 85.2178C303.244 86.2002 302.11 86.5485 301.155 85.9948C300.208 85.45 299.797 84.2085 300.244 83.2261C300.69 82.2436 301.824 81.8953 302.78 82.4491C303.736 83.0028 304.147 84.2353 303.691 85.2178Z" fill="#FF2C9C"/>
<path d="M309.952 111.404L295.867 103.268L296.466 100.231L310.55 108.368L309.952 111.404Z" fill="#FF2C9C"/>
<path d="M213.673 193.724L176.92 172.503C176.018 171.985 176.135 171.074 177.171 170.476L196.551 159.285C197.587 158.687 199.159 158.624 200.052 159.142L236.805 180.363C237.707 180.881 237.591 181.792 236.555 182.39L217.174 193.581C216.138 194.179 214.575 194.242 213.673 193.724Z" fill="white"/>
<path opacity="0.5" d="M242.449 213.766L142.874 156.346L171.892 139.591L271.458 197.01L242.449 213.766Z" fill="#173D7A"/>
<path d="M242.449 200.547C242.181 200.547 241.922 200.476 241.681 200.342L142.115 142.923C141.642 142.646 141.347 142.146 141.347 141.592C141.347 141.047 141.642 140.538 142.115 140.261L171.133 123.506C171.606 123.229 172.187 123.229 172.669 123.506L272.235 180.925C272.708 181.202 273.003 181.702 273.003 182.256C273.003 182.801 272.708 183.31 272.235 183.587L243.217 200.342C242.976 200.476 242.708 200.547 242.449 200.547ZM145.947 141.592L242.44 197.243L268.395 182.265L171.901 126.614L145.947 141.592Z" fill="white"/>
<path d="M189.326 153.381C188.647 153.381 188.094 152.828 188.094 152.149V113.28C188.094 112.601 188.647 112.047 189.326 112.047C190.005 112.047 190.559 112.601 190.559 113.28V152.149C190.559 152.828 190.005 153.381 189.326 153.381Z" fill="#396CAA"/>
<path d="M183.244 108.877V135.135C183.244 136.037 183.842 136.93 185.03 137.618C187.406 138.993 191.255 138.993 193.631 137.618C194.819 136.93 195.417 136.037 195.417 135.135V108.877H183.244Z" fill="url(#paint9_radial)"/>
<path d="M183.244 113.199V122.086C186.816 123.72 191.845 123.72 195.408 122.086V113.199C191.845 111.565 186.816 111.565 183.244 113.199Z" fill="#396CAA"/>
<path d="M199.186 72.2853H179.466V113.467C179.466 114.923 180.431 116.379 182.351 117.495C186.2 119.719 192.443 119.719 196.292 117.495C198.222 116.388 199.177 114.923 199.177 113.467V72.2853H199.186Z" fill="url(#paint10_radial)"/>
<path d="M187.62 131.142C187.62 132.348 186.772 132.839 185.727 132.232C184.682 131.625 183.833 130.16 183.833 128.954C183.833 127.748 184.682 127.257 185.727 127.865C186.772 128.463 187.62 129.937 187.62 131.142Z" fill="#D4ECFF"/>
<path d="M227.561 175.477C226.882 175.477 226.328 174.924 226.328 174.245V135.376C226.328 134.697 226.882 134.143 227.561 134.143C228.24 134.143 228.793 134.697 228.793 135.376V174.245C228.793 174.924 228.24 175.477 227.561 175.477Z" fill="#396CAA"/>
<path d="M221.479 130.973V157.231C221.479 158.133 222.077 159.026 223.256 159.714C225.632 161.089 229.481 161.089 231.857 159.714C233.045 159.026 233.643 158.133 233.643 157.231V130.973H221.479Z" fill="url(#paint11_radial)"/>
<path d="M221.479 135.295V144.182C225.051 145.816 230.079 145.816 233.643 144.182V135.295C230.071 133.661 225.051 133.661 221.479 135.295Z" fill="#396CAA"/>
<path d="M237.421 94.3812H217.701V135.563C217.701 137.019 218.665 138.475 220.585 139.591C224.435 141.815 230.678 141.815 234.527 139.591C236.456 138.484 237.412 137.019 237.412 135.563V94.3812H237.421Z" fill="url(#paint12_radial)"/>
<path d="M225.855 153.238C225.855 154.444 225.006 154.935 223.962 154.328C222.917 153.721 222.068 152.256 222.068 151.05C222.068 149.844 222.917 149.353 223.962 149.961C225.006 150.568 225.855 152.033 225.855 153.238Z" fill="#D4ECFF"/>
<path d="M151.538 42.4727L177.706 27.4146C177.706 27.4146 176.724 42.4459 176.724 42.4727C176.724 42.4995 161.693 47.1259 161.693 47.1259L151.538 42.4727Z" fill="#5793CE"/>
<path d="M291.741 129.142C291.741 118.576 284.319 105.724 275.173 100.437C273.182 99.2845 271.279 98.6146 269.511 98.3377C266.876 84.4675 257.222 69.7398 245.718 63.0949C242.253 61.0943 238.966 60.0315 235.983 59.7993C234.411 42.9906 222.72 23.8866 208.528 15.6966C201.115 11.4185 194.39 10.9095 189.424 13.5353V13.5263L189.183 13.6692C189.058 13.7407 188.933 13.8121 188.808 13.8836L173.375 23.0024L178.501 27.0572C173.902 29.0667 170.99 34.229 170.99 41.8653C170.99 55.941 180.868 73.0533 193.059 80.0911L268.296 133.822L270.619 149.478L286.873 139.904C286.891 139.895 286.9 139.886 286.918 139.877L287.016 139.824C289.937 138.028 291.741 134.349 291.741 129.142Z" fill="url(#paint13_radial)"/>
<path d="M171.749 35.6491L207.171 14.9554C200.294 11.365 194.077 11.0703 189.424 13.5353V13.5264L189.183 13.6693C189.058 13.7407 188.933 13.8122 188.808 13.8836L173.375 23.0024L178.501 27.0572C175.277 28.4416 172.892 31.3979 171.749 35.6491Z" fill="#5793CE"/>
<path d="M237.162 96.5337L263.009 81.3684C258.579 73.7053 252.47 67.0069 245.718 63.1039C244.825 62.5859 243.941 62.1393 243.075 61.7463L210.198 80.9754L237.162 96.5337Z" fill="#5793CE"/>
<path d="M180.654 24.6816L192.175 31.3354L213.271 18.9119C211.735 17.7152 210.145 16.6345 208.528 15.6967C205.974 14.223 203.5 13.2049 201.16 12.5975L180.654 24.6816Z" fill="#D4ECFF"/>
<path d="M260.16 76.9027L239.529 89.0582L246.701 97.0606L265.429 86.0037C263.947 82.8331 262.169 79.7696 260.16 76.9027Z" fill="#D4ECFF"/>
<path d="M258.972 109.984C256.98 108.832 255.078 108.162 253.31 107.885C250.675 94.0151 241.02 79.2874 229.517 72.6425C226.06 70.6419 222.765 69.5791 219.782 69.3469C218.21 52.5382 206.519 33.4342 192.327 25.2353C177.063 16.4201 164.694 23.5652 164.694 41.1866C164.694 41.785 164.711 42.3834 164.738 42.9907C153.574 37.8106 144.857 43.6427 144.857 56.8699C144.857 70.9456 154.735 88.0579 166.926 95.0958L258.981 148.246C268.136 153.533 275.549 149.246 275.549 138.68C275.549 128.115 268.118 115.263 258.972 109.984Z" fill="url(#paint14_linear)"/>
<path d="M164.729 42.9996C164.702 42.3923 164.685 41.7939 164.685 41.1955C164.685 41.1687 164.685 41.1419 164.685 41.124C158.522 38.7304 153.217 39.7665 149.894 43.6158C153.512 40.6417 158.763 40.2398 164.729 42.9996Z" fill="white"/>
<path d="M260.321 108.671C258.329 107.519 256.427 106.849 254.658 106.572C252.024 92.7021 242.369 77.9745 230.865 71.3296C227.409 69.329 224.113 68.2662 221.13 68.034C219.558 51.2253 207.867 32.1213 193.676 23.9224C184.164 18.4296 175.777 19.1352 170.812 24.7083C175.876 20.3766 183.637 20.2159 192.336 25.2353C206.528 33.4252 218.219 52.5293 219.791 69.3379C222.774 69.5701 226.069 70.633 229.526 72.6336C241.029 79.2784 250.684 94.0061 253.319 107.876C255.087 108.153 256.989 108.823 258.981 109.975C268.136 115.263 275.549 128.106 275.549 138.68C275.549 142.494 274.575 145.477 272.905 147.496C275.388 145.584 276.897 142.119 276.897 137.367C276.888 126.802 269.466 113.95 260.321 108.671Z" fill="white"/>
<path d="M162.782 47.1973L169.704 50.4036L169.356 42.7853C169.329 42.2494 169.32 41.7224 169.32 41.1955C169.32 34.3899 171.374 29.4598 175.098 27.3074C178.823 25.1549 184.128 25.8426 190.014 29.2454C202.678 36.5602 213.735 54.3602 215.173 69.7756L215.539 73.6607L219.424 73.9554C221.818 74.143 224.435 75.045 227.204 76.6437C237.269 82.4491 246.334 95.9532 248.764 108.743L249.371 111.94L252.586 112.44C253.872 112.646 255.239 113.155 256.65 113.976C264.375 118.442 270.904 129.749 270.904 138.671C270.904 142.012 269.975 144.459 268.368 145.397C266.751 146.326 264.17 145.906 261.276 144.236L169.222 91.0856C158.513 84.9052 149.466 69.2308 149.466 56.8699C149.466 52.0202 150.895 48.3227 153.395 46.724C154.423 46.072 155.664 45.7415 157.066 45.7415C158.772 45.7594 160.71 46.2417 162.782 47.1973Z" fill="url(#paint15_radial)"/>
<path d="M208.725 104.893L211.154 103.679L208.761 101.866L208.725 104.893Z" fill="#5793CE"/>
<path d="M201.437 72.0889L203.795 70.901L203.83 72.1335L201.437 72.0889Z" fill="#5793CE"/>
<path d="M215.656 97.2304L218.112 95.9889L213.378 91.4875L215.656 97.2304Z" fill="#5793CE"/>
<path d="M210.44 103.598L198.945 96.8285C198.365 96.4891 197.891 95.6227 197.891 94.8993L197.927 81.5917L211.538 89.603L211.503 102.911C211.503 103.634 211.029 103.938 210.44 103.598Z" fill="#5793CE"/>
<path d="M203.768 70.9099L191.354 78.9034C190.827 79.2428 191.255 80.5021 192.05 80.9754L204.733 88.442L217.415 95.9085C218.219 96.3819 218.648 95.6227 218.121 94.6671L205.786 72.1067C205.26 71.1332 204.304 70.5705 203.768 70.9099Z" fill="#5793CE"/>
<path d="M207.975 104.84L196.48 98.0698C195.899 97.7304 195.426 96.8641 195.426 96.1406L195.462 82.833L209.073 90.8444L209.037 104.152C209.037 104.875 208.564 105.179 207.975 104.84Z" fill="#D4ECFF"/>
<path d="M201.303 72.1513L188.888 80.1448C188.361 80.4842 188.79 81.7435 189.585 82.2168L202.268 89.6834L214.95 97.1499C215.754 97.6233 216.182 96.8641 215.655 95.9085L203.321 73.3391C202.794 72.3746 201.839 71.8119 201.303 72.1513Z" fill="#D4ECFF"/>
<defs>
<radialGradient id="paint0_radial" cx="0" cy="0" r="1" gradientUnits="userSpaceOnUse" gradientTransform="translate(238.5 140.5) rotate(90) scale(139.5 238.5)">
<stop stop-color="#9F9DFF"/>
<stop offset="0.4375" stop-color="#939DFF" stop-opacity="0.54"/>
<stop offset="1" stop-color="#6A86FF" stop-opacity="0"/>
</radialGradient>
<radialGradient id="paint1_radial" cx="0" cy="0" r="1" gradientUnits="userSpaceOnUse" gradientTransform="translate(379.025 109.495) scale(30.0705)">
<stop stop-color="#274F89"/>
<stop offset="1" stop-color="#173D7A"/>
</radialGradient>
<linearGradient id="paint2_linear" x1="360.758" y1="98.5834" x2="413.969" y2="98.5834" gradientUnits="userSpaceOnUse">
<stop stop-color="#D4ECFF"/>
<stop offset="0.2385" stop-color="#D0EAFE"/>
<stop offset="0.4599" stop-color="#C5E2F9"/>
<stop offset="0.6745" stop-color="#B2D6F2"/>
<stop offset="0.8837" stop-color="#98C4E7"/>
<stop offset="1" stop-color="#86B8E0"/>
</linearGradient>
<radialGradient id="paint3_radial" cx="0" cy="0" r="1" gradientUnits="userSpaceOnUse" gradientTransform="translate(335.792 78.3773) scale(54.3553)">
<stop stop-color="#699DD1"/>
<stop offset="0.2662" stop-color="#6396CC"/>
<stop offset="0.6412" stop-color="#5184BD"/>
<stop offset="1" stop-color="#396CAA"/>
</radialGradient>
<radialGradient id="paint4_radial" cx="0" cy="0" r="1" gradientUnits="userSpaceOnUse" gradientTransform="translate(72.8668 191.035) scale(35.1816)">
<stop stop-color="#699DD1"/>
<stop offset="0.2662" stop-color="#6396CC"/>
<stop offset="0.6412" stop-color="#5184BD"/>
<stop offset="1" stop-color="#396CAA"/>
</radialGradient>
<linearGradient id="paint5_linear" x1="79.5071" y1="179.755" x2="134.616" y2="212.61" gradientUnits="userSpaceOnUse">
<stop stop-color="#D4ECFF"/>
<stop offset="0.2009" stop-color="#D0EAFE"/>
<stop offset="0.3874" stop-color="#C5E2F9"/>
<stop offset="0.5682" stop-color="#B2D6F2"/>
<stop offset="0.7444" stop-color="#98C4E7"/>
<stop offset="0.8423" stop-color="#86B8E0"/>
</linearGradient>
<radialGradient id="paint6_radial" cx="0" cy="0" r="1" gradientUnits="userSpaceOnUse" gradientTransform="translate(352.026 162.3) scale(180.136)">
<stop stop-color="#86B8E0"/>
<stop offset="0.1163" stop-color="#98C4E7"/>
<stop offset="0.3255" stop-color="#B2D6F2"/>
<stop offset="0.5401" stop-color="#C5E2F9"/>
<stop offset="0.7615" stop-color="#D0EAFE"/>
<stop offset="1" stop-color="#D4ECFF"/>
</radialGradient>
<radialGradient id="paint7_radial" cx="0" cy="0" r="1" gradientUnits="userSpaceOnUse" gradientTransform="translate(337.762 121.59) scale(123.957)">
<stop stop-color="#173D7A"/>
<stop offset="1" stop-color="#274F89"/>
</radialGradient>
<radialGradient id="paint8_radial" cx="0" cy="0" r="1" gradientUnits="userSpaceOnUse" gradientTransform="translate(356.931 176.166) scale(244.464)">
<stop stop-color="#86B8E0"/>
<stop offset="0.1163" stop-color="#98C4E7"/>
<stop offset="0.3255" stop-color="#B2D6F2"/>
<stop offset="0.5401" stop-color="#C5E2F9"/>
<stop offset="0.7615" stop-color="#D0EAFE"/>
<stop offset="1" stop-color="#D4ECFF"/>
</radialGradient>
<radialGradient id="paint9_radial" cx="0" cy="0" r="1" gradientUnits="userSpaceOnUse" gradientTransform="translate(182.49 133.841) scale(11.3704)">
<stop stop-color="#699DD1"/>
<stop offset="0.2662" stop-color="#6396CC"/>
<stop offset="0.6412" stop-color="#5184BD"/>
<stop offset="1" stop-color="#396CAA"/>
</radialGradient>
<radialGradient id="paint10_radial" cx="0" cy="0" r="1" gradientUnits="userSpaceOnUse" gradientTransform="translate(176.131 121.636) scale(17.9789)">
<stop stop-color="#699DD1"/>
<stop offset="0.2662" stop-color="#6396CC"/>
<stop offset="0.6412" stop-color="#5184BD"/>
<stop offset="1" stop-color="#396CAA"/>
</radialGradient>
<radialGradient id="paint11_radial" cx="0" cy="0" r="1" gradientUnits="userSpaceOnUse" gradientTransform="translate(220.722 155.94) scale(11.3703)">
<stop stop-color="#699DD1"/>
<stop offset="0.2662" stop-color="#6396CC"/>
<stop offset="0.6412" stop-color="#5184BD"/>
<stop offset="1" stop-color="#396CAA"/>
</radialGradient>
<radialGradient id="paint12_radial" cx="0" cy="0" r="1" gradientUnits="userSpaceOnUse" gradientTransform="translate(214.363 143.735) scale(17.979)">
<stop stop-color="#699DD1"/>
<stop offset="0.2662" stop-color="#6396CC"/>
<stop offset="0.6412" stop-color="#5184BD"/>
<stop offset="1" stop-color="#396CAA"/>
</radialGradient>
<radialGradient id="paint13_radial" cx="0" cy="0" r="1" gradientUnits="userSpaceOnUse" gradientTransform="translate(231.365 80.6909) scale(64.7068)">
<stop stop-color="#699DD1"/>
<stop offset="0.2662" stop-color="#6396CC"/>
<stop offset="0.6412" stop-color="#5184BD"/>
<stop offset="1" stop-color="#396CAA"/>
</radialGradient>
<linearGradient id="paint14_linear" x1="144.847" y1="85.9912" x2="275.541" y2="85.9912" gradientUnits="userSpaceOnUse">
<stop stop-color="#D4ECFF"/>
<stop offset="0.2385" stop-color="#D0EAFE"/>
<stop offset="0.4599" stop-color="#C5E2F9"/>
<stop offset="0.6745" stop-color="#B2D6F2"/>
<stop offset="0.8837" stop-color="#98C4E7"/>
<stop offset="1" stop-color="#86B8E0"/>
</linearGradient>
<radialGradient id="paint15_radial" cx="0" cy="0" r="1" gradientUnits="userSpaceOnUse" gradientTransform="translate(271.178 134.812) scale(130.845)">
<stop stop-color="#173D7A"/>
<stop offset="1" stop-color="#274F89"/>
</radialGradient>
</defs>
</svg>
