<svg width="469" height="387" viewBox="0 0 469 387" fill="none" xmlns="http://www.w3.org/2000/svg">
<g clip-path="url(#clip0)">
<g opacity="0.4">
<path opacity="0.4" d="M429.609 126.681L390.927 104.348L429.609 82.014L468.291 104.348L429.609 126.681ZM393.66 104.335L429.609 125.086L465.558 104.335L429.609 83.5845L393.66 104.335Z" fill="white"/>
<path opacity="0.4" d="M354.965 126.681L354.619 126.484L316.271 104.348L354.953 82.014L355.299 82.2119L393.647 104.348L354.965 126.681ZM319.016 104.335L354.965 125.086L390.914 104.335L354.965 83.5845L319.016 104.335Z" fill="white"/>
<path opacity="0.4" d="M392.287 148.224L353.605 125.89L392.287 103.556L430.969 125.89L392.287 148.224ZM356.338 125.89L392.287 146.641L428.236 125.89L392.287 105.139L356.338 125.89Z" fill="white"/>
<path opacity="0.4" d="M429.609 169.766L429.263 169.568L390.915 147.432L429.597 125.099L429.943 125.296L468.291 147.432L429.609 169.766ZM393.66 147.432L429.609 168.183L465.558 147.432L429.609 126.682L393.66 147.432Z" fill="white"/>
<path opacity="0.4" d="M280.334 126.681L279.988 126.484L241.639 104.348L280.322 82.014L280.668 82.2119L319.016 104.348L280.334 126.681ZM244.385 104.335L280.334 125.086L316.283 104.335L280.334 83.5845L244.385 104.335Z" fill="white"/>
<path opacity="0.4" d="M317.656 148.224L317.31 148.026L278.961 125.89L317.644 103.556L317.99 103.754L356.338 125.89L317.656 148.224ZM281.694 125.89L317.644 146.641L353.593 125.89L317.644 105.139L281.694 125.89Z" fill="white"/>
<path opacity="0.4" d="M354.965 169.766L354.619 169.568L316.271 147.432L354.953 125.099L393.635 147.432L354.965 169.766ZM319.016 147.432L354.965 168.183L390.914 147.432L354.965 126.682L319.016 147.432Z" fill="white"/>
<path opacity="0.4" d="M392.287 191.308L353.605 168.975L392.287 146.641L392.633 146.839L430.982 168.975L392.287 191.308ZM356.338 168.975L392.287 189.725L428.236 168.975L392.287 148.224L356.338 168.975Z" fill="white"/>
<path opacity="0.4" d="M429.609 212.863L390.915 190.529L429.609 168.183L429.955 168.381L468.304 190.517L429.609 212.863ZM393.66 190.517L429.609 211.268L465.558 190.517L429.609 169.766L393.66 190.517Z" fill="white"/>
<path opacity="0.4" d="M205.69 126.669L205.344 126.471L166.996 104.335L205.678 82.0016L244.373 104.335L205.69 126.669ZM169.741 104.335L205.69 125.086L241.64 104.335L205.69 83.5845L169.741 104.335Z" fill="white"/>
<path opacity="0.4" d="M243.012 148.224L204.318 125.89L243 103.556L243.346 103.754L281.694 125.89L243.012 148.224ZM207.063 125.878L243.012 146.629L278.961 125.878L243.012 105.127L207.063 125.878Z" fill="white"/>
<path opacity="0.4" d="M280.334 169.766L279.988 169.568L241.639 147.432L280.322 125.099L280.668 125.296L319.016 147.432L280.334 169.766ZM244.385 147.432L280.334 168.183L316.283 147.432L280.334 126.682L244.385 147.432Z" fill="white"/>
<path opacity="0.4" d="M317.656 191.308L317.31 191.11L278.961 168.975L317.644 146.641L317.99 146.839L356.338 168.975L317.656 191.308ZM281.707 168.975L317.656 189.725L353.605 168.975L317.656 148.224L281.707 168.975Z" fill="white"/>
<path opacity="0.4" d="M354.965 212.863L316.283 190.529L354.965 168.183L393.647 190.517L354.965 212.863ZM319.016 190.517L354.965 211.268L390.914 190.517L354.965 169.766L319.016 190.517Z" fill="white"/>
<path opacity="0.4" d="M392.287 234.405L391.941 234.207L353.593 212.072L392.275 189.738L430.969 212.072L392.287 234.405ZM356.338 212.072L392.287 232.822L428.236 212.072L392.287 191.321L356.338 212.072Z" fill="white"/>
<path opacity="0.4" d="M429.609 255.948L390.915 233.614L429.597 211.28L429.943 211.478L468.291 233.614L429.609 255.948ZM393.66 233.614L429.609 254.365L465.558 233.614L429.609 212.863L393.66 233.614Z" fill="white"/>
<path opacity="0.4" d="M131.059 126.669L130.713 126.471L92.3645 104.335L131.047 82.0016L131.393 82.1995L169.741 104.335L131.059 126.669ZM95.1098 104.335L131.059 125.086L167.008 104.335L131.059 83.5845L95.1098 104.335Z" fill="white"/>
<path opacity="0.4" d="M168.381 148.224L168.035 148.026L129.686 125.89L168.368 103.556L168.715 103.754L207.063 125.89L168.381 148.224ZM132.432 125.878L168.381 146.629L204.33 125.878L168.381 105.127L132.432 125.878Z" fill="white"/>
<path opacity="0.4" d="M205.69 169.766L205.344 169.568L166.996 147.432L205.678 125.099L244.373 147.432L205.69 169.766ZM169.741 147.432L205.69 168.183L241.64 147.432L205.69 126.682L169.741 147.432Z" fill="white"/>
<path opacity="0.4" d="M243.012 191.308L242.666 191.11L204.318 168.975L243 146.641L243.346 146.839L281.694 168.975L243.012 191.308ZM207.063 168.975L243.012 189.725L278.961 168.975L243.012 148.224L207.063 168.975Z" fill="white"/>
<path opacity="0.4" d="M280.334 212.863L241.639 190.529L280.334 168.183L280.68 168.381L319.028 190.517L280.334 212.863ZM244.385 190.517L280.334 211.268L316.283 190.517L280.334 169.766L244.385 190.517Z" fill="white"/>
<path opacity="0.4" d="M317.656 234.405L278.974 212.072L317.656 189.738L356.338 212.072L317.656 234.405ZM281.707 212.072L317.656 232.822L353.605 212.072L317.656 191.321L281.707 212.072Z" fill="white"/>
<path opacity="0.4" d="M354.965 255.948L354.619 255.75L316.271 233.614L354.953 211.28L355.299 211.478L393.647 233.614L354.965 255.948ZM319.016 233.614L354.965 254.365L390.914 233.614L354.965 212.863L319.016 233.614Z" fill="white"/>
<path opacity="0.4" d="M392.287 277.502L391.941 277.304L353.593 255.168L392.275 232.835L430.969 255.168L392.287 277.502ZM356.338 255.156L392.287 275.907L428.236 255.156L392.287 234.405L356.338 255.156Z" fill="white"/>
<path opacity="0.4" d="M429.609 299.045L429.263 298.847L390.915 276.711L429.597 254.377L429.943 254.575L468.291 276.711L429.609 299.045ZM393.66 276.711L429.609 297.462L465.558 276.711L429.609 255.96L393.66 276.711Z" fill="white"/>
<path opacity="0.4" d="M56.4154 126.669L56.0692 126.471L17.7209 104.335L56.4031 82.0016L95.0976 104.335L56.4154 126.669ZM20.4663 104.335L56.4154 125.086L92.3646 104.335L56.4154 83.5845L20.4663 104.335Z" fill="white"/>
<path opacity="0.4" d="M93.7372 148.224L93.391 148.026L55.0427 125.89L93.7372 103.544L94.0835 103.742L132.432 125.878L93.7372 148.224ZM57.7881 125.878L93.7372 146.629L129.686 125.878L93.7372 105.127L57.7881 125.878Z" fill="white"/>
<path opacity="0.4" d="M131.059 169.766L92.3645 147.432L131.047 125.099L131.393 125.296L169.741 147.432L131.059 169.766ZM95.1098 147.432L131.059 168.183L167.008 147.432L131.059 126.682L95.1098 147.432Z" fill="white"/>
<path opacity="0.4" d="M168.381 191.308L168.035 191.11L129.686 168.975L168.368 146.641L168.715 146.839L207.063 168.975L168.381 191.308ZM132.432 168.975L168.381 189.725L204.33 168.975L168.381 148.224L132.432 168.975Z" fill="white"/>
<path opacity="0.4" d="M205.69 212.863L205.344 212.665L166.996 190.529L205.69 168.183L206.037 168.381L244.385 190.517L205.69 212.863ZM169.741 190.517L205.69 211.268L241.639 190.517L205.69 169.766L169.741 190.517Z" fill="white"/>
<path opacity="0.4" d="M243.012 234.405L242.666 234.207L204.318 212.072L243 189.738L281.694 212.072L243.012 234.405ZM207.063 212.072L243.012 232.822L278.961 212.072L243.012 191.321L207.063 212.072Z" fill="white"/>
<path opacity="0.4" d="M280.334 255.948L279.988 255.75L241.639 233.614L280.322 211.28L319.004 233.614L280.334 255.948ZM244.385 233.614L280.334 254.365L316.283 233.614L280.334 212.863L244.385 233.614Z" fill="white"/>
<path opacity="0.4" d="M317.656 277.502L278.974 255.168L317.656 232.835L318.002 233.033L356.35 255.168L317.656 277.502ZM281.707 255.156L317.656 275.907L353.605 255.156L317.656 234.405L281.707 255.156Z" fill="white"/>
<path opacity="0.4" d="M354.965 299.045L354.619 298.847L316.271 276.711L354.953 254.377L355.299 254.575L393.647 276.711L354.965 299.045ZM319.016 276.711L354.965 297.462L390.914 276.711L354.965 255.96L319.016 276.711Z" fill="white"/>
<path opacity="0.4" d="M392.287 320.587L391.941 320.389L353.593 298.253L392.275 275.919L392.621 276.117L430.969 298.253L392.287 320.587ZM356.338 298.253L392.287 319.004L428.236 298.253L392.287 277.502L356.338 298.253Z" fill="white"/>
<path opacity="0.4" d="M429.609 342.129L429.263 341.931L390.915 319.795L429.597 297.462L468.291 319.795L429.609 342.129ZM393.66 319.795L429.609 340.546L465.558 319.795L429.609 299.044L393.66 319.795Z" fill="white"/>
<path opacity="0.4" d="M56.4154 169.766L56.0692 169.568L17.7209 147.432L56.4031 125.099L56.7493 125.296L95.0976 147.432L56.4154 169.766ZM20.4663 147.432L56.4154 168.183L92.3646 147.432L56.4154 126.682L20.4663 147.432Z" fill="white"/>
<path opacity="0.4" d="M93.7372 191.308L93.391 191.11L55.0427 168.975L93.7249 146.641L132.419 168.975L93.7372 191.308ZM57.7881 168.975L93.7372 189.725L129.686 168.975L93.7372 148.224L57.7881 168.975Z" fill="white"/>
<path opacity="0.4" d="M131.059 212.863L92.377 190.517L131.059 168.183L131.405 168.381L169.754 190.517L131.059 212.863ZM95.1099 190.517L131.059 211.268L167.008 190.517L131.059 169.766L95.1099 190.517Z" fill="white"/>
<path opacity="0.4" d="M168.381 234.405L168.035 234.207L129.686 212.072L168.368 189.738L168.715 189.936L207.063 212.072L168.381 234.405ZM132.432 212.072L168.381 232.822L204.33 212.072L168.381 191.321L132.432 212.072Z" fill="white"/>
<path opacity="0.4" d="M205.703 255.948L205.357 255.75L167.008 233.614L205.69 211.28L206.037 211.478L244.385 233.614L205.703 255.948ZM169.754 233.614L205.703 254.365L241.652 233.614L205.703 212.863L169.754 233.614Z" fill="white"/>
<path opacity="0.4" d="M243.012 277.49L242.666 277.292L204.318 255.156L243 232.822L243.346 233.02L281.694 255.156L243.012 277.49ZM207.063 255.156L243.012 275.907L278.961 255.156L243.012 234.405L207.063 255.156Z" fill="white"/>
<path opacity="0.4" d="M280.334 299.045L241.652 276.711L280.334 254.377L319.016 276.711L280.334 299.045ZM244.385 276.698L280.334 297.449L316.283 276.698L280.334 255.948L244.385 276.698Z" fill="white"/>
<path opacity="0.4" d="M317.656 320.587L278.961 298.253L317.644 275.919L317.99 276.117L356.338 298.253L317.656 320.587ZM281.707 298.253L317.656 319.004L353.605 298.253L317.656 277.502L281.707 298.253Z" fill="white"/>
<path opacity="0.4" d="M354.978 342.129L354.631 341.931L316.283 319.795L354.965 297.462L355.312 297.659L393.66 319.795L354.978 342.129ZM319.029 319.795L354.978 340.546L390.927 319.795L354.978 299.044L319.029 319.795Z" fill="white"/>
<path opacity="0.4" d="M392.287 363.684L391.941 363.486L353.593 341.35L392.275 319.016L392.621 319.214L430.969 341.35L392.287 363.684ZM356.338 341.338L392.287 362.088L428.236 341.338L392.287 320.587L356.338 341.338Z" fill="white"/>
<path opacity="0.4" d="M429.609 385.226L429.263 385.028L390.915 362.892L429.597 340.559L429.943 340.756L468.291 362.892L429.609 385.226ZM393.66 362.892L429.609 383.643L465.558 362.892L429.609 342.141L393.66 362.892Z" fill="white"/>
<path opacity="0.4" d="M56.4279 212.863L56.0816 212.665L17.7334 190.529L56.4155 168.183L56.7618 168.381L95.11 190.517L56.4279 212.863ZM20.4787 190.517L56.4279 211.268L92.377 190.517L56.4279 169.766L20.4787 190.517Z" fill="white"/>
<path opacity="0.4" d="M93.7372 234.405L93.391 234.207L55.0427 212.072L93.7249 189.738L132.419 212.072L93.7372 234.405ZM57.7881 212.072L93.7372 232.822L129.686 212.072L93.7372 191.308L57.7881 212.072Z" fill="white"/>
<path opacity="0.4" d="M131.059 255.948L130.713 255.75L92.3645 233.614L131.047 211.28L131.393 211.478L169.741 233.614L131.059 255.948ZM95.1098 233.614L131.059 254.365L167.008 233.614L131.059 212.863L95.1098 233.614Z" fill="white"/>
<path opacity="0.4" d="M168.381 277.49L129.686 255.156L168.368 232.822L168.715 233.02L207.063 255.156L168.381 277.49ZM132.432 255.156L168.381 275.907L204.33 255.156L168.381 234.405L132.432 255.156Z" fill="white"/>
<path opacity="0.4" d="M205.703 299.045L205.357 298.847L167.008 276.711L205.69 254.377L206.037 254.575L244.385 276.711L205.703 299.045ZM169.754 276.698L205.703 297.449L241.652 276.698L205.703 255.948L169.754 276.698Z" fill="white"/>
<path opacity="0.4" d="M243.012 320.587L204.33 298.253L243.012 275.919L281.694 298.253L243.012 320.587ZM207.063 298.253L243.012 319.004L278.961 298.253L243.012 277.502L207.063 298.253Z" fill="white"/>
<path opacity="0.4" d="M280.334 342.129L279.988 341.931L241.639 319.795L280.322 297.462L319.016 319.795L280.334 342.129ZM244.385 319.795L280.334 340.546L316.283 319.795L280.334 299.044L244.385 319.795Z" fill="white"/>
<path opacity="0.4" d="M317.656 363.684L317.31 363.486L278.961 341.35L317.644 319.016L317.99 319.214L356.338 341.35L317.656 363.684ZM281.707 341.338L317.656 362.088L353.605 341.338L317.656 320.587L281.707 341.338Z" fill="white"/>
<path opacity="0.4" d="M354.978 385.226L316.283 362.892L354.965 340.559L355.312 340.756L393.66 362.892L354.978 385.226ZM319.029 362.892L354.978 383.643L390.927 362.892L354.978 342.141L319.029 362.892Z" fill="white"/>
<path opacity="0.4" d="M56.4279 255.948L56.0816 255.75L17.7334 233.614L56.4155 211.28L56.7618 211.478L95.11 233.614L56.4279 255.948ZM20.4787 233.614L56.4279 254.365L92.377 233.614L56.4279 212.863L20.4787 233.614Z" fill="white"/>
<path opacity="0.4" d="M93.7372 277.49L93.391 277.292L55.0427 255.156L93.7249 232.822L94.0711 233.02L132.419 255.156L93.7372 277.49ZM57.7881 255.156L93.7372 275.907L129.686 255.156L93.7372 234.405L57.7881 255.156Z" fill="white"/>
<path opacity="0.4" d="M131.059 299.045L130.713 298.847L92.3645 276.711L131.047 254.377L169.741 276.711L131.059 299.045ZM95.1098 276.698L131.059 297.449L167.008 276.698L131.059 255.948L95.1098 276.698Z" fill="white"/>
<path opacity="0.4" d="M168.381 320.587L129.686 298.253L168.368 275.919L168.715 276.117L207.063 298.253L168.381 320.587ZM132.432 298.253L168.381 319.004L204.33 298.253L168.381 277.502L132.432 298.253Z" fill="white"/>
<path opacity="0.4" d="M205.703 342.129L205.357 341.931L167.008 319.795L205.69 297.462L244.373 319.795L205.703 342.129ZM169.754 319.795L205.703 340.546L241.652 319.795L205.703 299.044L169.754 319.795Z" fill="white"/>
<path opacity="0.4" d="M243.012 363.684L204.33 341.35L243.012 319.016L243.358 319.214L281.707 341.35L243.012 363.684ZM207.075 341.338L243.025 362.088L278.974 341.338L243.025 320.587L207.075 341.338Z" fill="white"/>
<path opacity="0.4" d="M280.334 385.226L279.988 385.028L241.639 362.892L280.322 340.559L280.668 340.756L319.016 362.892L280.334 385.226ZM244.385 362.892L280.334 383.643L316.283 362.892L280.334 342.141L244.385 362.892Z" fill="white"/>
<path opacity="0.4" d="M56.4279 299.045L56.0816 298.847L17.7334 276.711L56.4155 254.377L56.7618 254.575L95.11 276.711L56.4279 299.045ZM20.4787 276.698L56.4279 297.449L92.377 276.698L56.4279 255.948L20.4787 276.698Z" fill="white"/>
<path opacity="0.4" d="M93.7497 320.587L93.4034 320.389L55.0552 298.253L93.7373 275.919L94.0836 276.117L132.432 298.253L93.7497 320.587ZM57.8005 298.253L93.7497 319.004L129.699 298.253L93.7373 277.49L57.8005 298.253Z" fill="white"/>
<path opacity="0.4" d="M131.059 342.129L130.713 341.931L92.377 319.795L131.059 297.462L169.754 319.795L131.059 342.129ZM95.1099 319.795L131.059 340.546L167.008 319.795L131.059 299.044L95.1099 319.795Z" fill="white"/>
<path opacity="0.4" d="M168.381 363.684L168.035 363.486L129.686 341.35L168.368 319.016L168.715 319.214L207.063 341.35L168.381 363.684ZM132.432 341.338L168.381 362.088L204.33 341.338L168.381 320.587L132.432 341.338Z" fill="white"/>
<path opacity="0.4" d="M205.703 385.226L167.021 362.892L205.703 340.559L244.385 362.892L205.703 385.226ZM169.753 362.892L205.703 383.643L241.652 362.892L205.703 342.141L169.753 362.892Z" fill="white"/>
<path opacity="0.4" d="M56.4279 342.129L17.7334 319.795L56.4155 297.462L56.7618 297.659L95.11 319.795L56.4279 342.129ZM20.4787 319.795L56.4279 340.546L92.377 319.795L56.4279 299.044L20.4787 319.795Z" fill="white"/>
<path opacity="0.4" d="M93.7497 363.684L93.4034 363.486L55.0552 341.35L93.7373 319.016L94.0836 319.214L132.432 341.35L93.7497 363.684ZM57.8005 341.338L93.7497 362.088L129.699 341.338L93.7497 320.587L57.8005 341.338Z" fill="white"/>
<path opacity="0.4" d="M131.059 385.226L130.713 385.028L92.3645 362.892L131.047 340.559L131.393 340.756L169.741 362.892L131.059 385.226ZM95.1098 362.892L131.059 383.643L167.008 362.892L131.059 342.141L95.1098 362.892Z" fill="white"/>
<path opacity="0.4" d="M56.4279 385.226L17.7334 362.892L56.4155 340.559L56.7618 340.756L95.11 362.892L56.4279 385.226ZM20.4787 362.88L56.4279 383.631L92.377 362.88L56.4279 342.129L20.4787 362.88Z" fill="white"/>
</g>
<path d="M315.034 334.215C315.034 336.589 313.365 339.47 311.312 340.657C309.259 341.845 307.59 340.88 307.59 338.506C307.59 336.131 309.259 333.25 311.312 332.063C313.365 330.888 315.034 331.84 315.034 334.215Z" fill="white"/>
<path d="M327.092 327.252C327.092 329.627 325.422 332.508 323.369 333.695C321.316 334.882 319.647 333.918 319.647 331.543C319.647 329.169 321.316 326.288 323.369 325.101C325.422 323.926 327.092 324.878 327.092 327.252Z" fill="white"/>
<path d="M339.149 320.29C339.149 322.664 337.479 325.546 335.426 326.733C333.374 327.92 331.704 326.956 331.704 324.581C331.704 322.207 333.374 319.325 335.426 318.138C337.479 316.963 339.149 317.928 339.149 320.29Z" fill="white"/>
<path d="M351.206 313.328C351.206 315.702 349.536 318.583 347.483 319.771C345.431 320.958 343.761 319.993 343.761 317.619C343.761 315.244 345.431 312.363 347.483 311.176C349.549 310.001 351.206 310.966 351.206 313.328Z" fill="white"/>
<path d="M6.5171 243.705L0 247.464V239.933L6.5171 236.174V243.705Z" fill="white"/>
<path d="M17.0905 237.596L10.561 241.368V233.836L17.0905 230.077V237.596Z" fill="white"/>
<path d="M27.6514 231.499L21.1343 235.259V227.74L27.6514 223.968V231.499Z" fill="white"/>
<path d="M38.2122 225.403L31.6951 229.162V221.631L38.2122 217.871V225.403Z" fill="white"/>
<path d="M118.161 330.567L110.717 334.87V326.275L118.161 321.984V330.567Z" fill="white"/>
<path d="M128.487 324.532L121.042 328.835V320.241L128.487 315.949V324.532Z" fill="white"/>
<path d="M118.223 341.721L110.791 346.012V337.417L118.223 333.126V341.721Z" fill="white"/>
<path d="M128.487 335.798L121.042 340.089V331.494L128.487 327.203V335.798Z" fill="white"/>
<path opacity="0.5" d="M198.172 341.684C197.059 342.327 196.008 343.254 195.08 344.33C194.932 338.246 190.566 335.81 185.199 338.914C183.481 339.903 181.861 341.35 180.451 343.057C178.052 338.877 173.105 337.9 167.355 341.214C159.279 345.876 152.725 357.228 152.725 366.553C152.725 367.319 152.787 368.037 152.874 368.729C151.724 368.432 150.314 368.667 148.78 369.558C144.91 371.784 141.781 377.213 141.781 381.677C141.781 386.141 144.91 387.947 148.78 385.721L198.184 357.204C201.906 355.052 204.912 349.833 204.912 345.542C204.899 341.288 201.894 339.545 198.172 341.684Z" fill="white"/>
<path d="M435.31 208.621L407.374 192.483L435.31 176.357L463.246 192.483L435.31 208.621Z" fill="#1B417D" fill-opacity="0.3"/>
<path d="M435.31 198.629C434.939 198.629 434.58 198.53 434.247 198.345L406.311 182.219C405.655 181.836 405.247 181.143 405.247 180.376C405.247 179.61 405.655 178.917 406.311 178.534L434.247 162.408C434.902 162.025 435.718 162.025 436.374 162.408L464.309 178.534C464.965 178.917 465.373 179.61 465.373 180.376C465.373 181.143 464.965 181.836 464.309 182.219L436.374 198.345C436.04 198.53 435.669 198.629 435.31 198.629ZM411.616 180.376L435.31 194.054L459.004 180.376L435.298 166.699L411.616 180.376Z" fill="white"/>
<path d="M463.246 167.775L435.31 183.901V151.649L463.246 135.511V167.775Z" fill="url(#paint0_radial)"/>
<path d="M435.31 151.649L407.374 135.511L435.31 119.385L463.246 135.523L435.31 151.649Z" fill="url(#paint1_linear)"/>
<path d="M435.31 183.901L407.374 167.775V135.511L435.31 151.649V183.901Z" fill="url(#paint2_radial)"/>
<path d="M425.244 166.477L417.428 161.963V152.948L425.244 157.449V166.477Z" fill="white"/>
<path d="M46.4361 331.432L7.88996 309.185C5.52797 307.825 5.82477 305.438 8.55774 303.855L45.7683 282.375C48.5012 280.792 52.6316 280.631 54.9936 281.991L93.5274 304.238C95.8893 305.599 95.5925 307.985 92.8596 309.568L55.6614 331.049C52.9284 332.632 48.798 332.805 46.4361 331.432Z" fill="#1B417D" fill-opacity="0.3"/>
<path d="M50.455 322.38C48.5753 322.38 46.7575 321.972 45.3353 321.156L6.80159 298.909C5.09503 297.919 4.10571 296.386 4.10571 294.704C4.10571 292.812 5.32999 291.031 7.45701 289.794L44.6675 268.314C48.1054 266.323 53.0149 266.162 56.0817 267.931L94.6155 290.178C96.322 291.167 97.3113 292.701 97.3113 294.382C97.3113 296.274 96.0871 298.068 93.96 299.292L56.7495 320.772C54.9069 321.836 52.6439 322.38 50.455 322.38ZM47.5242 317.359C49.2307 318.336 52.5202 318.163 54.5607 316.976L91.7712 295.495C92.711 294.951 92.9336 294.469 92.9336 294.37C92.9213 294.345 92.7976 294.16 92.4266 293.95L53.8929 271.702C52.1863 270.725 48.9092 270.899 46.8564 272.086L9.64586 293.579C8.70602 294.123 8.48342 294.605 8.48342 294.704C8.49579 294.729 8.61945 294.914 8.99044 295.124L47.5242 317.359Z" fill="white"/>
<path d="M95.1226 280.742V267.448L65.3072 267.436L55.0059 261.488C52.644 260.127 48.5136 260.288 45.7806 261.871L36.1595 267.424L6.30703 267.399V281.076C6.2452 282.004 6.75222 282.894 7.88993 283.549L46.4237 305.797C48.7856 307.157 52.916 306.996 55.649 305.413L92.8719 283.933C94.4548 283.018 95.2091 281.843 95.1226 280.742Z" fill="#396CAA"/>
<path d="M50.7148 260.56C48.9835 260.597 47.1904 261.043 45.7682 261.859L36.1472 267.411L6.30703 267.399V281.076C6.2452 282.004 6.75222 282.894 7.88993 283.549L46.4237 305.797C47.5614 306.452 49.1072 306.749 50.7024 306.712V260.56H50.7148Z" fill="url(#paint3_radial)"/>
<path d="M9.68306 267.399H6.30703V281.076C6.2452 282.004 6.75222 282.894 7.88993 283.549L9.68306 284.588V267.399Z" fill="#D4ECFF"/>
<path d="M47.0295 306.081C49.07 306.959 52.0256 306.91 54.4123 305.994V290.462H47.0295V306.081Z" fill="#5793CE"/>
<path d="M46.4361 292.169L7.88996 269.922C5.52797 268.561 5.82477 266.175 8.55774 264.592L45.7683 243.111C48.5012 241.528 52.6316 241.368 54.9936 242.728L93.5274 264.975C95.8893 266.335 95.5925 268.722 92.8596 270.305L55.649 291.785C52.9284 293.368 48.798 293.529 46.4361 292.169Z" fill="url(#paint4_linear)"/>
<path d="M92.8718 267.683L55.6612 289.164C52.9283 290.747 48.7979 290.907 46.4359 289.547L7.88981 267.3C7.35805 266.991 6.97469 266.645 6.715 266.249C5.89881 267.56 6.26981 268.969 7.88981 269.909L46.4235 292.156C48.7855 293.517 52.9159 293.356 55.6489 291.773L92.8594 270.293C94.9864 269.068 95.6295 267.362 94.702 266.014C94.3434 266.62 93.725 267.189 92.8718 267.683Z" fill="white"/>
<path d="M80.9506 284.254C80.9506 285.244 80.258 286.456 79.3924 286.95C78.5267 287.445 77.8342 287.049 77.8342 286.047C77.8342 285.046 78.5267 283.846 79.3924 283.352C80.2457 282.857 80.9506 283.265 80.9506 284.254Z" fill="#D4ECFF"/>
<path d="M85.9591 281.361C85.9591 282.35 85.2666 283.562 84.4009 284.056C83.5353 284.551 82.8428 284.155 82.8428 283.154C82.8428 282.164 83.5353 280.952 84.4009 280.458C85.2542 279.963 85.9591 280.371 85.9591 281.361Z" fill="#D4ECFF"/>
<path d="M90.9674 278.467C90.9674 279.456 90.2749 280.668 89.4092 281.163C88.5436 281.657 87.8511 281.262 87.8511 280.26C87.8511 279.271 88.5436 278.059 89.4092 277.564C90.2625 277.069 90.9674 277.478 90.9674 278.467Z" fill="#D4ECFF"/>
<path d="M48.7117 278.368L30.6815 267.955C29.5685 267.312 29.7169 266.199 30.9907 265.457L48.4026 255.403C49.6763 254.662 51.6178 254.587 52.7184 255.23L70.7487 265.643C71.8616 266.286 71.7132 267.399 70.4395 268.141L53.0276 278.195C51.7539 278.937 49.8123 279.011 48.7117 278.368Z" fill="#5793CE"/>
<path d="M50.4428 269.65L47.9448 268.215C47.7964 268.128 47.8087 267.968 47.9819 267.869L50.3933 266.484C50.5665 266.385 50.8385 266.372 50.9869 266.459L53.4849 267.894C53.6333 267.98 53.621 268.141 53.4478 268.24L51.0364 269.625C50.8633 269.736 50.5912 269.748 50.4428 269.65Z" fill="#D4ECFF"/>
<path d="M30.6813 267.955L30.7307 267.98C30.8173 267.918 30.8915 267.856 30.9904 267.807L48.4023 257.753C49.6761 257.011 51.6176 256.937 52.7182 257.58L70.699 267.968C71.713 267.238 71.7749 266.249 70.7484 265.655L52.7182 255.242C51.6052 254.599 49.6761 254.686 48.4023 255.416L30.9904 265.47C29.7043 266.211 29.5683 267.324 30.6813 267.955Z" fill="#396CAA"/>
<path d="M112.027 147.927C111.298 148.347 110.593 148.879 109.925 149.473C109.628 139.988 102.777 136.216 94.3433 141.076C87.4799 145.046 81.6554 153.529 79.5654 161.852C77.8712 161.629 75.8802 162.062 73.7409 163.298C67.5947 166.848 62.6111 175.479 62.6111 182.578C62.6111 189.676 67.5947 192.557 73.7409 189.008L112.027 166.909C116.566 164.288 120.251 157.919 120.251 152.676C120.251 147.432 116.566 145.305 112.027 147.927Z" fill="white"/>
<path d="M432.837 13.603C431.563 14.3327 430.363 15.3962 429.312 16.6328C429.152 9.68289 424.155 6.90045 418.009 10.4496C416.043 11.5873 414.188 13.2321 412.581 15.1859C409.848 10.4001 404.184 9.29953 397.617 13.0837C388.38 18.4136 380.898 31.3859 380.898 42.0458C380.898 42.9238 380.972 43.7524 381.071 44.5438C379.748 44.1975 378.14 44.482 376.384 45.4837C371.969 48.0311 368.383 54.2391 368.383 59.334C368.383 64.429 371.969 66.5065 376.384 63.9467L432.837 31.3488C437.078 28.9003 440.529 22.9273 440.529 18.0302C440.529 13.1331 437.091 11.1421 432.837 13.603Z" fill="white"/>
<path d="M393.895 252.93C393.598 252.93 393.301 252.856 393.029 252.72C392.114 252.238 391.755 251.112 392.238 250.185C394.142 246.537 396.937 243.47 399.905 241.751C401.772 240.675 403.59 240.18 405.309 240.255C405.383 240.255 405.457 240.255 405.532 240.255C407.906 240.255 410.812 238.449 413.359 235.382C414.856 233.577 416.501 232.155 418.232 231.153C420.099 230.077 421.917 229.582 423.636 229.657C426.01 229.805 429.065 227.962 431.699 224.797C433.17 223.028 434.852 221.557 436.571 220.567C438.439 219.491 440.232 218.984 441.975 219.071C444.337 219.232 447.404 217.377 450.026 214.211C451.522 212.405 453.167 210.983 454.898 209.982C457.656 208.399 460.389 208.052 462.627 209.017C463.579 209.438 464.012 210.538 463.604 211.49C463.184 212.443 462.083 212.875 461.131 212.467C460.018 211.985 458.472 212.257 456.778 213.234C455.442 214.001 454.107 215.176 452.92 216.61C449.494 220.74 445.401 222.979 441.79 222.83C440.813 222.768 439.663 223.127 438.451 223.82C437.115 224.586 435.78 225.761 434.593 227.196C431.167 231.326 427.123 233.564 423.463 233.416C422.498 233.354 421.336 233.713 420.124 234.418C418.788 235.184 417.453 236.359 416.266 237.794C412.84 241.924 408.747 244.175 405.136 244.014C404.146 243.952 403.009 244.311 401.797 245.003C399.435 246.364 397.172 248.886 395.577 251.916C395.218 252.559 394.575 252.93 393.895 252.93Z" fill="white"/>
<path d="M240.539 346.742L86.8986 258.025C82.558 255.515 83.1021 251.137 88.1105 248.231L192.73 187.846C197.751 184.952 205.344 184.63 209.685 187.141L363.325 275.845C367.666 278.355 367.121 282.733 362.113 285.639L257.493 346.024C252.485 348.931 244.892 349.24 240.539 346.742Z" fill="#1B417D" fill-opacity="0.3"/>
<path d="M247.922 333.262C244.842 333.262 241.887 332.619 239.636 331.321L85.9959 242.617C83.5227 241.194 82.1624 239.129 82.1624 236.804C82.1624 234.146 84.0049 231.561 87.2202 229.706L191.84 169.321C197.442 166.081 205.678 165.784 210.6 168.616L364.24 257.32C366.713 258.742 368.074 260.808 368.074 263.132C368.074 265.791 366.231 268.376 363.016 270.231L258.396 330.616C255.366 332.372 251.557 333.262 247.922 333.262ZM241.442 328.204C245.213 330.381 252.163 330.059 256.603 327.5L361.223 267.114C363.263 265.94 364.475 264.456 364.475 263.132C364.475 261.883 363.374 260.981 362.447 260.437L208.807 171.732C205.023 169.556 198.085 169.877 193.646 172.437L89.0257 232.822C86.9852 233.997 85.7733 235.481 85.7733 236.804C85.7733 238.053 86.874 238.956 87.8014 239.5L241.442 328.204Z" fill="white"/>
<path d="M401.438 89.6565L247.798 0.952197C246.017 -0.074215 244.199 -0.234978 242.592 0.309144L242.604 0.296777L242.32 0.408075C242.295 0.420441 242.27 0.420441 242.258 0.432808L236.705 2.55983L241.689 4.99601C241.664 5.08258 241.639 5.16914 241.615 5.26807L214.47 128.734C213.221 134.435 215.732 141.088 220.072 143.599L370.027 230.176L369.496 236.532L375.568 234.183C377.608 233.23 379.24 231.079 379.908 227.999L407.053 104.533C408.302 98.82 405.791 92.1668 401.438 89.6565Z" fill="#173D7A"/>
<path d="M401.438 89.6565L247.798 0.952197C246.017 -0.074215 244.199 -0.234978 242.592 0.309144L242.604 0.296777L242.32 0.408075C242.295 0.420441 242.27 0.420441 242.258 0.432808L236.705 2.55983L241.689 4.99601C241.664 5.08258 241.64 5.16914 241.615 5.26807L223.003 89.8914L298.179 148.459L406.298 95.7902C405.284 93.1438 403.59 90.8931 401.438 89.6565Z" fill="#396CAA"/>
<path d="M395.651 107.167L407.349 102.184C407.56 97.6575 405.692 92.9706 402.613 90.4726L384.101 98.2635L395.651 107.167Z" fill="#274F89"/>
<path d="M364.141 235.914L210.501 147.21C206.16 144.699 203.65 138.046 204.899 132.345L232.043 8.87905C233.292 3.17814 237.831 0.593557 242.184 3.10394L395.824 91.8082C400.165 94.3186 402.675 100.972 401.426 106.673L374.282 230.139C373.033 235.84 368.494 238.424 364.141 235.914Z" fill="url(#paint5_radial)"/>
<path d="M397.308 91.2641L243.655 2.55983C241.553 1.34792 239.401 1.34792 237.608 2.30014C239.055 1.97861 240.626 2.2012 242.184 3.10395L395.824 91.8082C400.165 94.3186 402.675 100.972 401.426 106.673L374.282 230.127C373.639 233.07 372.105 235.16 370.188 236.174C372.785 235.605 374.95 233.255 375.753 229.595L402.898 106.141C404.159 100.44 401.649 93.7745 397.308 91.2641Z" fill="white"/>
<path d="M360.815 227.443L216.313 144.056C212.331 141.756 210.043 135.672 211.181 130.453L236.198 16.6699C237.348 11.4513 241.503 9.0893 245.473 11.3771L389.975 94.7638C393.957 97.0639 396.244 103.148 395.107 108.367L370.089 222.15C368.952 227.369 364.797 229.731 360.815 227.443Z" fill="white"/>
<path d="M360.815 227.443L216.313 144.056C212.331 141.756 210.043 135.672 211.181 130.453L236.198 16.6699C237.348 11.4513 241.503 9.0893 245.473 11.3771L389.975 94.7638C393.957 97.0639 396.244 103.148 395.107 108.367L370.089 222.15C368.952 227.369 364.797 229.731 360.815 227.443Z" fill="url(#paint6_radial)"/>
<path d="M362.076 226.924L217.574 143.537C213.592 141.237 211.305 135.152 212.442 129.934L237.46 16.1505C238.041 13.5165 239.389 11.612 241.095 10.6598C238.808 11.2534 236.916 13.3928 236.198 16.6575L211.181 130.441C210.031 135.66 212.331 141.744 216.313 144.044L360.815 227.431C362.781 228.568 364.784 228.556 366.454 227.629C365.081 227.999 363.56 227.789 362.076 226.924Z" fill="#5793CE"/>
<path d="M366.268 239.772L345.27 237.002L209.697 158.723C205.356 156.212 197.763 156.534 192.743 159.428L96.6804 214.866L83.9678 213.197V220.407H83.9801C83.8936 222.076 84.8458 223.671 86.8986 224.858L240.539 313.563C244.879 316.073 252.472 315.752 257.493 312.858L362.113 252.473C364.933 250.84 366.342 248.738 366.256 246.772V239.772H366.268Z" fill="#173D7A"/>
<path d="M264.406 190.319L254.773 184.754H148.879L96.6681 214.879L83.9678 213.197V220.407H83.9801C83.8936 222.076 84.8458 223.671 86.8986 224.858L240.539 313.563C242.839 314.886 246.042 315.418 249.294 315.207L264.406 190.319Z" fill="#396CAA"/>
<path d="M89.6069 213.939L83.9678 213.197V220.407H83.9801C83.8936 222.076 84.8458 223.671 86.8986 224.858L89.6069 226.417V213.939Z" fill="#5793CE"/>
<path d="M242.085 314.28C246.203 315.838 252.089 315.504 256.492 313.39V297.313H242.085V314.28Z" fill="#274F89"/>
<path d="M240.539 306.365L86.8986 217.661C82.558 215.151 83.1021 210.773 88.1105 207.867L192.73 147.482C197.751 144.588 205.344 144.267 209.685 146.777L363.325 235.481C367.666 237.992 367.121 242.369 362.113 245.275L257.493 305.661C252.485 308.567 244.892 308.876 240.539 306.365Z" fill="url(#paint7_radial)"/>
<path d="M362.113 242.654L257.493 303.039C252.473 305.933 244.88 306.254 240.539 303.744L86.8988 215.027C85.4766 214.199 84.5863 213.185 84.2029 212.072C83.5227 214.124 84.3884 216.202 86.8988 217.661L240.539 306.365C244.88 308.876 252.473 308.554 257.493 305.66L362.113 245.275C365.489 243.321 366.825 240.712 366.033 238.437C365.539 239.945 364.228 241.429 362.113 242.654Z" fill="white"/>
<path d="M152.243 188.291L145.293 184.272C144.736 183.95 144.81 183.381 145.453 183.011L153.665 178.274C154.308 177.903 155.285 177.866 155.841 178.188L162.791 182.207C163.348 182.528 163.273 183.097 162.63 183.468L154.419 188.204C153.776 188.575 152.799 188.612 152.243 188.291Z" fill="#5793CE"/>
<path d="M162.977 194.487L156.027 190.467C155.47 190.146 155.544 189.577 156.187 189.206L164.399 184.47C165.042 184.099 166.019 184.062 166.575 184.383L173.525 188.402C174.082 188.724 174.007 189.293 173.364 189.664L165.153 194.4C164.51 194.771 163.533 194.82 162.977 194.487Z" fill="#5793CE"/>
<path d="M173.711 200.694L166.761 196.675C166.204 196.354 166.278 195.785 166.921 195.414L175.133 190.678C175.776 190.307 176.753 190.27 177.309 190.591L184.259 194.61C184.816 194.932 184.741 195.501 184.098 195.872L175.887 200.608C175.244 200.967 174.267 201.016 173.711 200.694Z" fill="#5793CE"/>
<path d="M188.563 195.575L181.613 191.556C181.056 191.234 181.13 190.665 181.774 190.294L188.662 186.312C189.305 185.941 190.282 185.904 190.838 186.226L197.788 190.245C198.344 190.566 198.27 191.135 197.627 191.506L190.739 195.488C190.096 195.859 189.119 195.896 188.563 195.575Z" fill="#5793CE"/>
<path d="M199.297 201.77L192.347 197.751C191.79 197.43 191.865 196.861 192.508 196.49L199.396 192.508C200.039 192.137 201.016 192.1 201.572 192.421L208.522 196.44C209.079 196.762 209.004 197.331 208.361 197.702L201.473 201.684C200.83 202.055 199.853 202.092 199.297 201.77Z" fill="#5793CE"/>
<path d="M210.031 207.966L203.081 203.947C202.525 203.625 202.599 203.056 203.242 202.685L210.13 198.703C210.773 198.332 211.75 198.295 212.306 198.617L219.256 202.636C219.813 202.958 219.739 203.526 219.096 203.897L212.207 207.879C211.564 208.25 210.587 208.287 210.031 207.966Z" fill="#5793CE"/>
<path d="M220.765 214.161L213.815 210.142C213.258 209.821 213.333 209.252 213.976 208.881L220.864 204.899C221.507 204.528 222.484 204.491 223.04 204.812L229.99 208.832C230.547 209.153 230.472 209.722 229.829 210.093L222.941 214.075C222.298 214.446 221.321 214.483 220.765 214.161Z" fill="#5793CE"/>
<path d="M231.499 220.369L224.549 216.35C223.993 216.029 224.067 215.46 224.71 215.089L231.598 211.107C232.241 210.736 233.218 210.699 233.774 211.02L240.724 215.039C241.281 215.361 241.207 215.93 240.564 216.301L233.675 220.283C233.032 220.641 232.068 220.691 231.499 220.369Z" fill="#5793CE"/>
<path d="M242.245 226.565L235.295 222.546C234.739 222.224 234.813 221.656 235.456 221.285L242.344 217.303C242.987 216.932 243.964 216.894 244.521 217.216L251.471 221.235C252.027 221.557 251.953 222.125 251.31 222.496L244.422 226.478C243.779 226.849 242.802 226.886 242.245 226.565Z" fill="#5793CE"/>
<path d="M252.979 232.76L246.03 228.741C245.473 228.42 245.547 227.851 246.19 227.48L253.078 223.498C253.721 223.127 254.698 223.09 255.255 223.411L262.205 227.431C262.761 227.752 262.687 228.321 262.044 228.692L255.156 232.674C254.513 233.045 253.536 233.082 252.979 232.76Z" fill="#5793CE"/>
<path d="M263.713 238.956L256.763 234.937C256.207 234.615 256.281 234.047 256.924 233.676L263.812 229.694C264.455 229.323 265.432 229.286 265.989 229.607L272.939 233.626C273.495 233.948 273.421 234.517 272.778 234.888L265.89 238.87C265.247 239.241 264.27 239.278 263.713 238.956Z" fill="#5793CE"/>
<path d="M274.447 245.164L267.498 241.145C266.941 240.823 267.015 240.255 267.658 239.884L274.546 235.902C275.189 235.531 276.166 235.494 276.723 235.815L283.673 239.834C284.229 240.156 284.155 240.725 283.512 241.096L276.624 245.078C275.981 245.436 275.004 245.486 274.447 245.164Z" fill="#5793CE"/>
<path d="M285.182 251.36L278.232 247.341C277.675 247.019 277.749 246.45 278.392 246.079L285.281 242.097C285.924 241.726 286.901 241.689 287.457 242.011L294.407 246.03C294.963 246.351 294.889 246.92 294.246 247.291L287.358 251.273C286.715 251.644 285.738 251.681 285.182 251.36Z" fill="#5793CE"/>
<path d="M204.379 192.632L197.429 188.612C196.873 188.291 196.947 187.722 197.59 187.351L204.478 183.369C205.121 182.998 206.098 182.961 206.655 183.283L213.605 187.302C214.161 187.623 214.087 188.192 213.444 188.563L206.556 192.545C205.913 192.916 204.936 192.965 204.379 192.632Z" fill="#5793CE"/>
<path d="M193.485 186.349L186.535 182.33C185.978 182.009 186.052 181.44 186.695 181.069L193.583 177.087C194.227 176.716 195.204 176.679 195.76 177L202.71 181.019C203.266 181.341 203.192 181.91 202.549 182.281L195.661 186.263C195.018 186.634 194.041 186.671 193.485 186.349Z" fill="#5793CE"/>
<path d="M182.565 180.043L167.589 171.398C167.033 171.077 167.107 170.508 167.75 170.137L174.638 166.155C175.281 165.784 176.258 165.747 176.815 166.068L191.79 174.713C192.347 175.034 192.273 175.603 191.63 175.974L184.742 179.956C184.099 180.327 183.134 180.364 182.565 180.043Z" fill="#5793CE"/>
<path d="M190.195 172.388L178.039 165.376C177.483 165.054 177.557 164.486 178.2 164.115L185.088 160.133C185.731 159.762 186.708 159.725 187.264 160.046L199.421 167.058C199.977 167.379 199.903 167.948 199.26 168.319L192.372 172.301C191.729 172.66 190.752 172.709 190.195 172.388Z" fill="#5793CE"/>
<path d="M215.113 198.839L208.164 194.82C207.607 194.499 207.681 193.93 208.324 193.559L215.212 189.577C215.855 189.206 216.832 189.169 217.389 189.49L224.339 193.51C224.895 193.831 224.821 194.4 224.178 194.771L217.29 198.753C216.647 199.112 215.67 199.161 215.113 198.839Z" fill="#5793CE"/>
<path d="M225.847 205.035L218.897 201.016C218.341 200.694 218.415 200.126 219.058 199.755L225.946 195.773C226.589 195.402 227.566 195.365 228.123 195.686L235.073 199.705C235.629 200.027 235.555 200.596 234.912 200.967L228.024 204.949C227.381 205.32 226.404 205.357 225.847 205.035Z" fill="#5793CE"/>
<path d="M236.581 211.231L229.632 207.212C229.075 206.89 229.149 206.321 229.792 205.95L236.68 201.968C237.323 201.597 238.3 201.56 238.857 201.882L245.807 205.901C246.363 206.222 246.289 206.791 245.646 207.162L238.758 211.144C238.115 211.515 237.15 211.552 236.581 211.231Z" fill="#5793CE"/>
<path d="M247.328 217.426L240.378 213.407C239.822 213.086 239.896 212.517 240.539 212.146L247.427 208.164C248.07 207.793 249.047 207.756 249.603 208.077L256.553 212.096C257.11 212.418 257.036 212.987 256.393 213.358L249.505 217.34C248.861 217.711 247.885 217.748 247.328 217.426Z" fill="#5793CE"/>
<path d="M258.062 223.634L251.112 219.615C250.556 219.294 250.63 218.725 251.273 218.354L258.161 214.372C258.804 214.001 259.781 213.964 260.337 214.285L267.287 218.304C267.844 218.626 267.77 219.195 267.127 219.566L260.238 223.548C259.595 223.906 258.618 223.956 258.062 223.634Z" fill="#5793CE"/>
<path d="M268.796 229.83L261.846 225.811C261.29 225.489 261.364 224.92 262.007 224.549L268.895 220.567C269.538 220.196 270.515 220.159 271.072 220.481L278.021 224.5C278.578 224.821 278.504 225.39 277.861 225.761L270.973 229.743C270.33 230.114 269.353 230.151 268.796 229.83Z" fill="#5793CE"/>
<path d="M279.53 236.025L272.58 232.006C272.024 231.685 272.098 231.116 272.741 230.745L279.629 226.763C280.272 226.392 281.249 226.355 281.805 226.676L288.755 230.695C289.312 231.017 289.238 231.586 288.595 231.957L281.706 235.939C281.063 236.31 280.086 236.347 279.53 236.025Z" fill="#5793CE"/>
<path d="M290.264 242.221L283.314 238.202C282.758 237.88 282.832 237.311 283.475 236.94L290.363 232.958C291.006 232.587 291.983 232.55 292.54 232.872L299.489 236.891C300.046 237.212 299.972 237.781 299.329 238.152L292.441 242.134C291.798 242.505 290.821 242.542 290.264 242.221Z" fill="#5793CE"/>
<path d="M300.998 248.416L294.048 244.397C293.492 244.076 293.566 243.507 294.209 243.136L301.097 239.154C301.74 238.783 302.717 238.746 303.273 239.067L310.223 243.086C310.78 243.408 310.706 243.977 310.063 244.348L303.174 248.33C302.531 248.701 301.554 248.738 300.998 248.416Z" fill="#5793CE"/>
<path d="M320.092 259.435L304.918 250.68C304.362 250.358 304.436 249.789 305.079 249.418L311.967 245.436C312.61 245.065 313.587 245.028 314.144 245.35L329.317 254.105C329.874 254.427 329.799 254.995 329.156 255.366L322.268 259.348C321.625 259.719 320.648 259.769 320.092 259.435Z" fill="#5793CE"/>
<path d="M340.991 247.378L328.192 239.983C327.635 239.661 327.71 239.092 328.353 238.721L335.241 234.739C335.884 234.368 336.861 234.331 337.417 234.653L350.216 242.048C350.773 242.369 350.699 242.938 350.056 243.309L343.168 247.291C342.524 247.65 341.548 247.699 340.991 247.378Z" fill="#5793CE"/>
<path d="M233.91 197.628L226.96 193.609C226.404 193.287 226.478 192.718 227.121 192.347L234.009 188.365C234.652 187.994 235.629 187.957 236.186 188.279L243.136 192.298C243.692 192.619 243.618 193.188 242.975 193.559L236.087 197.541C235.444 197.9 234.479 197.949 233.91 197.628Z" fill="#5793CE"/>
<path d="M222.917 191.271L215.967 187.252C215.41 186.931 215.484 186.362 216.128 185.991L223.016 182.009C223.659 181.638 224.636 181.601 225.192 181.922L232.142 185.941C232.699 186.263 232.624 186.832 231.981 187.203L225.093 191.185C224.45 191.556 223.473 191.593 222.917 191.271Z" fill="#5793CE"/>
<path d="M211.911 184.915L204.961 180.896C204.404 180.574 204.478 180.005 205.121 179.634L212.01 175.652C212.653 175.281 213.629 175.244 214.186 175.566L221.136 179.585C221.692 179.906 221.618 180.475 220.975 180.846L214.087 184.828C213.444 185.199 212.467 185.236 211.911 184.915Z" fill="#5793CE"/>
<path d="M200.904 178.571L193.955 174.552C193.398 174.23 193.472 173.661 194.115 173.29L201.003 169.308C201.646 168.937 202.623 168.9 203.18 169.222L210.13 173.241C210.686 173.563 210.612 174.131 209.969 174.502L203.081 178.484C202.438 178.843 201.461 178.892 200.904 178.571Z" fill="#5793CE"/>
<path d="M244.657 203.823L237.707 199.804C237.15 199.483 237.224 198.914 237.868 198.543L244.756 194.561C245.399 194.19 246.376 194.153 246.932 194.474L253.882 198.493C254.439 198.815 254.364 199.384 253.721 199.755L246.833 203.737C246.19 204.108 245.213 204.145 244.657 203.823Z" fill="#5793CE"/>
<path d="M255.391 210.019L248.441 206C247.884 205.678 247.959 205.109 248.602 204.738L255.49 200.756C256.133 200.385 257.11 200.348 257.666 200.67L264.616 204.689C265.173 205.01 265.098 205.579 264.455 205.95L257.567 209.932C256.924 210.303 255.947 210.34 255.391 210.019Z" fill="#5793CE"/>
<path d="M266.125 216.214L259.175 212.195C258.619 211.874 258.693 211.305 259.336 210.934L266.224 206.952C266.867 206.581 267.844 206.544 268.4 206.865L275.35 210.884C275.907 211.206 275.833 211.775 275.19 212.146L268.301 216.128C267.658 216.499 266.681 216.536 266.125 216.214Z" fill="#5793CE"/>
<path d="M276.859 222.41L269.909 218.391C269.352 218.069 269.427 217.5 270.07 217.129L276.958 213.147C277.601 212.776 278.578 212.739 279.134 213.061L286.084 217.08C286.641 217.402 286.566 217.97 285.923 218.341L279.035 222.323C278.392 222.694 277.415 222.744 276.859 222.41Z" fill="#5793CE"/>
<path d="M287.593 228.618L280.643 224.599C280.087 224.277 280.161 223.708 280.804 223.337L287.692 219.355C288.335 218.984 289.312 218.947 289.868 219.269L296.818 223.288C297.375 223.609 297.301 224.178 296.658 224.549L289.769 228.531C289.126 228.902 288.149 228.939 287.593 228.618Z" fill="#5793CE"/>
<path d="M298.327 234.813L291.377 230.794C290.821 230.473 290.895 229.904 291.538 229.533L298.426 225.551C299.069 225.18 300.046 225.143 300.603 225.464L307.552 229.483C308.109 229.805 308.035 230.374 307.392 230.745L300.504 234.727C299.861 235.098 298.884 235.135 298.327 234.813Z" fill="#5793CE"/>
<path d="M309.061 241.009L302.111 236.99C301.555 236.668 301.629 236.099 302.272 235.728L309.16 231.747C309.803 231.376 310.78 231.338 311.336 231.66L318.286 235.679C318.843 236.001 318.769 236.569 318.126 236.94L311.237 240.922C310.594 241.293 309.63 241.33 309.061 241.009Z" fill="#5793CE"/>
<path d="M319.808 247.205L312.858 243.185C312.301 242.864 312.375 242.295 313.018 241.924L319.906 237.942C320.55 237.571 321.526 237.534 322.083 237.856L329.033 241.875C329.589 242.196 329.515 242.765 328.872 243.136L321.984 247.118C321.341 247.489 320.364 247.526 319.808 247.205Z" fill="#5793CE"/>
<path d="M330.541 253.412L323.592 249.393C323.035 249.072 323.109 248.503 323.752 248.132L330.64 244.15C331.283 243.779 332.26 243.742 332.817 244.063L339.767 248.083C340.323 248.404 340.249 248.973 339.606 249.344L332.718 253.326C332.075 253.685 331.098 253.734 330.541 253.412Z" fill="#5793CE"/>
<path d="M228.259 182.293L221.309 178.274C220.753 177.953 220.827 177.384 221.47 177.013L228.358 173.031C229.001 172.66 229.978 172.623 230.534 172.944L237.484 176.963C238.041 177.285 237.967 177.854 237.324 178.225L230.435 182.207C229.792 182.578 228.828 182.615 228.259 182.293Z" fill="#5793CE"/>
<path d="M217.587 176.122L210.637 172.103C210.08 171.782 210.154 171.213 210.797 170.842L217.686 166.86C218.329 166.489 219.306 166.452 219.862 166.773L226.812 170.792C227.368 171.114 227.294 171.683 226.651 172.054L219.763 176.036C219.12 176.407 218.143 176.444 217.587 176.122Z" fill="#5793CE"/>
<path d="M206.902 169.952L199.952 165.932C199.396 165.611 199.47 165.042 200.113 164.671L207.001 160.689C207.644 160.318 208.621 160.281 209.178 160.603L216.128 164.622C216.684 164.943 216.61 165.512 215.967 165.883L209.079 169.865C208.436 170.236 207.459 170.285 206.902 169.952Z" fill="#5793CE"/>
<path d="M196.217 163.793L189.268 159.774C188.711 159.452 188.785 158.884 189.428 158.513L196.316 154.531C196.959 154.16 197.936 154.123 198.493 154.444L205.443 158.463C205.999 158.785 205.925 159.354 205.282 159.725L198.394 163.707C197.751 164.078 196.774 164.115 196.217 163.793Z" fill="#5793CE"/>
<path d="M207.199 157.449L200.249 153.43C199.693 153.108 199.767 152.54 200.41 152.169L202.685 150.858C203.328 150.487 204.305 150.45 204.862 150.771L211.812 154.79C212.368 155.112 212.294 155.681 211.651 156.052L209.375 157.363C208.732 157.734 207.755 157.771 207.199 157.449Z" fill="#5793CE"/>
<path d="M221.136 165.5L214.186 161.481C213.63 161.159 213.704 160.59 214.347 160.219L216.622 158.908C217.265 158.537 218.242 158.5 218.799 158.822L225.749 162.841C226.305 163.162 226.231 163.731 225.588 164.102L223.312 165.413C222.669 165.784 221.705 165.821 221.136 165.5Z" fill="#5793CE"/>
<path d="M231.783 171.633L224.833 167.614C224.277 167.293 224.351 166.724 224.994 166.353L227.27 165.042C227.913 164.671 228.89 164.634 229.446 164.956L236.396 168.975C236.953 169.296 236.878 169.865 236.235 170.236L233.96 171.547C233.317 171.918 232.34 171.955 231.783 171.633Z" fill="#5793CE"/>
<path d="M242.418 177.779L235.468 173.76C234.912 173.439 234.986 172.87 235.629 172.499L237.905 171.188C238.548 170.817 239.525 170.78 240.081 171.102L247.031 175.121C247.588 175.442 247.513 176.011 246.87 176.382L244.595 177.693C243.952 178.064 242.975 178.101 242.418 177.779Z" fill="#5793CE"/>
<path d="M253.054 183.926L246.104 179.907C245.547 179.585 245.621 179.016 246.265 178.645L248.54 177.334C249.183 176.963 250.16 176.926 250.716 177.248L257.666 181.267C258.223 181.588 258.149 182.157 257.506 182.528L255.23 183.839C254.587 184.198 253.61 184.247 253.054 183.926Z" fill="#5793CE"/>
<path d="M312.449 218.205L305.499 214.186C304.943 213.865 305.017 213.296 305.66 212.925L307.936 211.614C308.579 211.243 309.556 211.206 310.112 211.527L317.062 215.547C317.619 215.868 317.544 216.437 316.901 216.808L314.626 218.119C313.983 218.49 313.006 218.527 312.449 218.205Z" fill="#5793CE"/>
<path d="M323.084 224.351L316.134 220.332C315.578 220.011 315.652 219.442 316.295 219.071L318.571 217.76C319.214 217.389 320.191 217.352 320.747 217.674L327.697 221.693C328.254 222.014 328.179 222.583 327.536 222.954L325.261 224.265C324.618 224.636 323.641 224.673 323.084 224.351Z" fill="#5793CE"/>
<path d="M333.72 230.498L326.77 226.478C326.213 226.157 326.287 225.588 326.931 225.217L329.206 223.906C329.849 223.535 330.826 223.498 331.382 223.82L338.332 227.839C338.889 228.16 338.815 228.729 338.172 229.1L335.896 230.411C335.253 230.77 334.276 230.819 333.72 230.498Z" fill="#5793CE"/>
<path d="M344.355 236.631L337.405 232.612C336.848 232.291 336.922 231.722 337.566 231.351L339.841 230.04C340.484 229.669 341.461 229.632 342.017 229.953L348.967 233.972C349.524 234.294 349.45 234.863 348.807 235.234L346.531 236.545C345.888 236.916 344.911 236.953 344.355 236.631Z" fill="#5793CE"/>
<path d="M239.005 188.489L232.055 184.47C231.499 184.148 231.573 183.579 232.216 183.208L239.104 179.226C239.747 178.855 240.724 178.818 241.281 179.14L248.231 183.159C248.787 183.48 248.713 184.049 248.07 184.42L241.182 188.402C240.526 188.773 239.562 188.81 239.005 188.489Z" fill="#5793CE"/>
<path d="M249.739 194.684L242.79 190.665C242.233 190.344 242.307 189.775 242.95 189.404L249.838 185.422C250.481 185.051 251.458 185.014 252.015 185.335L258.965 189.354C259.521 189.676 259.447 190.245 258.804 190.616L251.916 194.598C251.273 194.969 250.296 195.006 249.739 194.684Z" fill="#5793CE"/>
<path d="M260.473 200.892L253.523 196.873C252.967 196.552 253.041 195.983 253.684 195.612L260.572 191.63C261.215 191.259 262.192 191.222 262.749 191.543L269.699 195.562C270.255 195.884 270.181 196.453 269.538 196.824L262.65 200.806C262.007 201.164 261.03 201.214 260.473 200.892Z" fill="#5793CE"/>
<path d="M271.207 207.088L264.258 203.069C263.701 202.747 263.775 202.178 264.418 201.807L271.306 197.825C271.949 197.455 272.926 197.417 273.483 197.739L280.433 201.758C280.989 202.08 280.915 202.648 280.272 203.019L273.384 207.001C272.741 207.372 271.764 207.409 271.207 207.088Z" fill="#5793CE"/>
<path d="M281.942 213.283L274.992 209.264C274.435 208.943 274.509 208.374 275.152 208.003L282.041 204.021C282.684 203.65 283.661 203.613 284.217 203.934L291.167 207.954C291.723 208.275 291.649 208.844 291.006 209.215L284.118 213.197C283.475 213.568 282.498 213.605 281.942 213.283Z" fill="#5793CE"/>
<path d="M292.675 219.479L285.726 215.46C285.169 215.138 285.243 214.57 285.886 214.199L292.774 210.217C293.417 209.846 294.394 209.809 294.951 210.13L301.901 214.149C302.457 214.471 302.383 215.04 301.74 215.411L294.852 219.392C294.209 219.763 293.232 219.801 292.675 219.479Z" fill="#5793CE"/>
<path d="M303.41 225.675L296.46 221.656C295.903 221.334 295.977 220.765 296.62 220.394L303.509 216.412C304.152 216.041 305.129 216.004 305.685 216.326L312.635 220.345C313.191 220.666 313.117 221.235 312.474 221.606L305.586 225.588C304.943 225.959 303.966 225.996 303.41 225.675Z" fill="#5793CE"/>
<path d="M314.144 231.883L307.194 227.863C306.637 227.542 306.712 226.973 307.355 226.602L314.243 222.62C314.886 222.249 315.863 222.212 316.419 222.534L323.369 226.553C323.926 226.874 323.851 227.443 323.208 227.814L316.32 231.796C315.677 232.155 314.713 232.204 314.144 231.883Z" fill="#5793CE"/>
<path d="M324.89 238.078L317.94 234.059C317.384 233.737 317.458 233.169 318.101 232.798L324.989 228.816C325.632 228.445 326.609 228.408 327.165 228.729L334.115 232.748C334.672 233.07 334.598 233.639 333.955 234.01L327.067 237.992C326.424 238.363 325.447 238.4 324.89 238.078Z" fill="#5793CE"/>
<path d="M177.618 189.255L157.14 177.433C156.583 177.112 156.657 176.543 157.3 176.172L164.188 172.19C164.832 171.819 165.808 171.782 166.365 172.103L186.844 183.926C187.4 184.247 187.326 184.816 186.683 185.187L179.795 189.169C179.152 189.54 178.175 189.577 177.618 189.255Z" fill="#5793CE"/>
<path d="M309.506 265.408L289.028 253.586C288.471 253.264 288.545 252.695 289.188 252.324L296.076 248.342C296.719 247.971 297.696 247.934 298.253 248.256L318.732 260.078C319.288 260.4 319.214 260.968 318.571 261.339L311.683 265.321C311.04 265.68 310.075 265.729 309.506 265.408Z" fill="#5793CE"/>
<path d="M266.582 254.303L259.633 250.284C259.076 249.962 259.15 249.393 259.793 249.022L268.005 244.286C268.648 243.915 269.625 243.878 270.181 244.199L277.131 248.219C277.688 248.54 277.613 249.109 276.97 249.48L268.759 254.216C268.116 254.587 267.139 254.624 266.582 254.303Z" fill="#5793CE"/>
<path d="M188.612 209.289L177.495 202.871C176.938 202.549 177.013 201.981 177.656 201.61L185.867 196.873C186.51 196.502 187.487 196.465 188.043 196.787L199.161 203.205C199.717 203.526 199.643 204.095 199 204.466L190.789 209.203C190.146 209.574 189.169 209.611 188.612 209.289Z" fill="#5793CE"/>
<path d="M256.232 248.33L245.114 241.912C244.558 241.59 244.632 241.021 245.275 240.65L253.487 235.914C254.13 235.543 255.107 235.506 255.663 235.827L266.78 242.246C267.337 242.567 267.263 243.136 266.62 243.507L258.408 248.243C257.765 248.614 256.788 248.651 256.232 248.33Z" fill="#5793CE"/>
<path d="M204.107 218.242L192.99 211.824C192.433 211.503 192.508 210.934 193.151 210.563L201.362 205.827C202.005 205.456 202.982 205.418 203.539 205.74L214.656 212.158C215.212 212.48 215.138 213.049 214.495 213.419L206.284 218.156C205.641 218.514 204.664 218.564 204.107 218.242Z" fill="#5793CE"/>
<path d="M203.6 205.777L251.941 233.688C252.547 234.034 252.547 234.591 251.941 234.937L243.569 239.772C242.963 240.119 241.998 240.119 241.392 239.772L193.052 211.861L203.6 205.777Z" fill="#5793CE"/>
<path d="M296.583 265.544L304.325 270.021C304.782 270.28 304.72 270.75 304.201 271.047L300.85 272.989C300.318 273.298 299.526 273.322 299.069 273.063L291.328 268.586C290.87 268.326 290.932 267.856 291.451 267.56L294.803 265.618C295.322 265.309 296.126 265.284 296.583 265.544Z" fill="#5793CE"/>
<path d="M285.763 259.299L293.504 263.776C293.962 264.035 293.9 264.505 293.38 264.802L290.029 266.743C289.497 267.053 288.706 267.077 288.248 266.818L280.507 262.341C280.049 262.081 280.111 261.611 280.631 261.315L283.982 259.373C284.501 259.064 285.305 259.027 285.763 259.299Z" fill="#5793CE"/>
<path d="M275.029 253.091L282.77 257.568C283.228 257.827 283.166 258.297 282.646 258.594L279.295 260.535C278.763 260.845 277.972 260.869 277.514 260.61L269.773 256.133C269.315 255.873 269.377 255.403 269.897 255.107L273.248 253.165C273.767 252.868 274.571 252.831 275.029 253.091Z" fill="#5793CE"/>
<path d="M291.686 255.873L299.427 260.35C299.885 260.61 299.823 261.08 299.304 261.376L295.953 263.318C295.421 263.627 294.629 263.652 294.172 263.392L286.43 258.916C285.973 258.656 286.035 258.186 286.554 257.889L289.905 255.948C290.425 255.638 291.229 255.614 291.686 255.873Z" fill="#5793CE"/>
<path d="M270.107 68.7448L252.646 58.6539L253.388 54.8945L270.849 64.9855L270.107 68.7448Z" fill="#D4ECFF"/>
<path d="M268.215 77.4755L250.754 67.3969L251.496 63.6375L268.957 73.7161L268.215 77.4755Z" fill="white"/>
<path d="M353.914 198.654L336.453 188.575L337.195 184.816L354.656 194.895L353.914 198.654Z" fill="#D4ECFF"/>
<path d="M264.419 94.9493L246.969 84.8706L247.711 81.1112L265.173 91.1899L264.419 94.9493Z" fill="#D4ECFF"/>
<path d="M338.839 144.093L274.237 106.796L275.078 102.604L339.668 139.889L338.839 144.093Z" fill="#D4ECFF"/>
<path d="M315.702 151.179L270.614 125.148L271.443 120.943L316.53 146.975L315.702 151.179Z" fill="#D4ECFF"/>
<path d="M311.436 138.491L272.432 115.972L273.26 111.768L312.264 134.299L311.436 138.491Z" fill="white"/>
<path d="M303.15 102.456C302.532 103.816 300.961 104.298 299.638 103.532C298.327 102.777 297.758 101.058 298.376 99.698C298.995 98.3377 300.565 97.8554 301.889 98.6221C303.212 99.3888 303.781 101.108 303.15 102.456Z" fill="#FF2C9C"/>
<path d="M311.559 107.316C310.941 108.676 309.37 109.158 308.047 108.392C306.736 107.637 306.167 105.918 306.786 104.558C307.404 103.198 308.975 102.715 310.298 103.482C311.621 104.236 312.177 105.955 311.559 107.316Z" fill="white"/>
<path d="M319.956 112.163C319.338 113.524 317.767 114.006 316.444 113.239C315.133 112.485 314.564 110.766 315.182 109.406C315.801 108.045 317.371 107.563 318.694 108.33C320.018 109.096 320.574 110.803 319.956 112.163Z" fill="#D4ECFF"/>
<path d="M328.353 117.011C327.734 118.371 326.164 118.854 324.841 118.087C323.53 117.332 322.961 115.614 323.579 114.253C324.198 112.893 325.768 112.411 327.091 113.177C328.415 113.944 328.983 115.651 328.353 117.011Z" fill="#FF2C9C"/>
<path d="M337.022 153.269L317.52 142.003L318.348 137.799L337.85 149.065L337.022 153.269Z" fill="#FF2C9C"/>
<path d="M203.712 267.25L152.824 237.868C151.575 237.151 151.736 235.889 153.17 235.061L180.005 219.566C181.44 218.737 183.616 218.65 184.853 219.368L235.741 248.75C236.99 249.468 236.829 250.729 235.395 251.557L208.559 267.053C207.125 267.881 204.961 267.968 203.712 267.25Z" fill="white"/>
<path opacity="0.5" d="M243.556 295.001L105.683 215.497L145.862 192.298L283.723 271.801L243.556 295.001Z" fill="#173D7A"/>
<path d="M243.556 276.698C243.185 276.698 242.827 276.6 242.493 276.414L104.632 196.91C103.977 196.527 103.569 195.835 103.569 195.068C103.569 194.313 103.977 193.609 104.632 193.225L144.811 170.026C145.466 169.642 146.27 169.642 146.938 170.026L284.798 249.529C285.454 249.913 285.862 250.605 285.862 251.372C285.862 252.126 285.454 252.831 284.798 253.215L244.62 276.414C244.286 276.6 243.915 276.698 243.556 276.698ZM109.937 195.068L243.544 272.123L279.481 251.384L145.874 174.329L109.937 195.068Z" fill="white"/>
<path d="M170.001 211.391C169.061 211.391 168.294 210.625 168.294 209.685V155.866C168.294 154.926 169.061 154.16 170.001 154.16C170.941 154.16 171.708 154.926 171.708 155.866V209.685C171.708 210.625 170.941 211.391 170.001 211.391Z" fill="#396CAA"/>
<path d="M161.579 149.77V186.127C161.579 187.376 162.408 188.612 164.053 189.565C167.342 191.469 172.672 191.469 175.961 189.565C177.606 188.612 178.435 187.376 178.435 186.127V149.77H161.579Z" fill="url(#paint8_radial)"/>
<path d="M161.579 155.755V168.06C166.526 170.323 173.488 170.323 178.422 168.06V155.755C173.488 153.492 166.526 153.492 161.579 155.755Z" fill="#396CAA"/>
<path d="M183.653 99.1044H156.348V156.126C156.348 158.142 157.684 160.157 160.343 161.703C165.673 164.782 174.317 164.782 179.647 161.703C182.318 160.17 183.641 158.142 183.641 156.126V99.1044H183.653Z" fill="url(#paint9_radial)"/>
<path d="M167.639 180.599C167.639 182.269 166.464 182.949 165.017 182.108C163.57 181.267 162.396 179.239 162.396 177.569C162.396 175.9 163.57 175.22 165.017 176.061C166.464 176.889 167.639 178.93 167.639 180.599Z" fill="#D4ECFF"/>
<path d="M222.941 241.986C222.002 241.986 221.235 241.219 221.235 240.279V186.461C221.235 185.521 222.002 184.754 222.941 184.754C223.881 184.754 224.648 185.521 224.648 186.461V240.279C224.648 241.219 223.881 241.986 222.941 241.986Z" fill="#396CAA"/>
<path d="M214.52 180.364V216.721C214.52 217.97 215.348 219.207 216.981 220.159C220.27 222.064 225.6 222.064 228.89 220.159C230.534 219.207 231.363 217.97 231.363 216.721V180.364H214.52Z" fill="url(#paint10_radial)"/>
<path d="M214.52 186.349V198.654C219.466 200.917 226.429 200.917 231.363 198.654V186.349C226.416 184.086 219.466 184.086 214.52 186.349Z" fill="#396CAA"/>
<path d="M236.594 129.699H209.289V186.72C209.289 188.736 210.624 190.752 213.283 192.298C218.613 195.377 227.257 195.377 232.587 192.298C235.258 190.764 236.581 188.736 236.581 186.72V129.699H236.594Z" fill="url(#paint11_radial)"/>
<path d="M220.579 211.194C220.579 212.863 219.404 213.543 217.958 212.702C216.511 211.861 215.336 209.833 215.336 208.164C215.336 206.494 216.511 205.814 217.958 206.655C219.404 207.496 220.579 209.524 220.579 211.194Z" fill="#D4ECFF"/>
<path d="M117.678 57.8253L153.912 36.9756C153.912 36.9756 152.552 57.7882 152.552 57.8253C152.552 57.8624 131.739 64.2683 131.739 64.2683L117.678 57.8253Z" fill="#5793CE"/>
<path d="M311.806 177.829C311.806 163.2 301.53 145.404 288.867 138.083C286.109 136.488 283.475 135.561 281.026 135.177C277.378 115.972 264.01 95.58 248.082 86.3794C243.284 83.6093 238.733 82.1377 234.603 81.8162C232.426 58.5426 216.239 32.0908 196.589 20.7509C186.324 14.8273 177.013 14.1225 170.137 17.7582V17.7458L169.803 17.9437C169.63 18.0426 169.457 18.1415 169.284 18.2405L147.914 30.8666L155.013 36.4809C148.644 39.2634 144.613 46.4112 144.613 56.9844C144.613 76.4739 158.29 100.168 175.17 109.913L279.345 184.309L282.56 205.987L305.067 192.731C305.091 192.718 305.104 192.706 305.129 192.693L305.265 192.619C309.308 190.134 311.806 185.039 311.806 177.829Z" fill="url(#paint12_radial)"/>
<path d="M145.664 48.3774L194.709 19.7244C185.187 14.7531 176.58 14.345 170.137 17.7582V17.7458L169.803 17.9437C169.63 18.0426 169.457 18.1415 169.284 18.2405L147.915 30.8666L155.013 36.4809C150.549 38.3977 147.247 42.491 145.664 48.3774Z" fill="#5793CE"/>
<path d="M236.235 132.679L272.024 111.681C265.89 101.071 257.431 91.7959 248.082 86.3918C246.846 85.6745 245.621 85.0562 244.422 84.5121L198.901 111.137L236.235 132.679Z" fill="#5793CE"/>
<path d="M157.993 33.1914L173.946 42.4044L203.155 25.2027C201.028 23.5456 198.827 22.0493 196.588 20.7508C193.052 18.7104 189.626 17.3006 186.386 16.4597L157.993 33.1914Z" fill="#D4ECFF"/>
<path d="M268.079 105.498L239.512 122.329L249.443 133.409L275.375 118.099C273.322 113.709 270.861 109.467 268.079 105.498Z" fill="#D4ECFF"/>
<path d="M266.434 151.303C263.676 149.708 261.042 148.78 258.594 148.397C254.946 129.192 241.578 108.8 225.65 99.5991C220.864 96.829 216.301 95.3574 212.17 95.0359C209.994 71.7623 193.806 45.3105 174.156 33.9582C153.022 21.7525 135.894 31.6456 135.894 56.0446C135.894 56.8731 135.919 57.7017 135.956 58.5426C120.498 51.3701 108.428 59.4453 108.428 77.76C108.428 97.2495 122.106 120.943 138.986 130.688L266.446 204.281C279.122 211.602 289.386 205.666 289.386 191.036C289.386 176.407 279.097 158.612 266.434 151.303Z" fill="url(#paint13_linear)"/>
<path d="M135.944 58.5549C135.907 57.714 135.882 56.8855 135.882 56.0569C135.882 56.0198 135.882 55.9827 135.882 55.958C127.349 52.6438 120.003 54.0783 115.403 59.4082C120.411 55.2902 127.683 54.7337 135.944 58.5549Z" fill="white"/>
<path d="M268.301 149.485C265.544 147.89 262.91 146.962 260.461 146.579C256.813 127.374 243.445 106.982 227.517 97.7812C222.731 95.0111 218.168 93.5395 214.038 93.218C211.861 69.9444 195.673 43.4927 176.023 32.1403C162.853 24.535 151.241 25.5119 144.365 33.2286C151.377 27.2308 162.123 27.0082 174.168 33.9582C193.819 45.2982 210.006 71.7499 212.183 95.0235C216.313 95.345 220.876 96.8166 225.662 99.5867C241.59 108.787 254.958 129.18 258.606 148.385C261.055 148.768 263.689 149.695 266.446 151.291C279.122 158.612 289.386 176.394 289.386 191.036C289.386 196.317 288.038 200.447 285.726 203.242C289.164 200.596 291.253 195.797 291.253 189.218C291.241 174.589 280.965 156.794 268.301 149.485Z" fill="white"/>
<path d="M133.248 64.3672L142.832 68.8067L142.35 58.2582C142.312 57.5162 142.3 56.7866 142.3 56.057C142.3 46.6338 145.144 39.8075 150.301 36.8272C155.458 33.8469 162.804 34.7991 170.953 39.5107C188.489 49.6388 203.798 74.285 205.789 95.6295L206.296 101.009L211.676 101.417C214.99 101.677 218.613 102.926 222.447 105.139C236.384 113.177 248.936 131.875 252.299 149.584L253.14 154.011L257.592 154.704C259.373 154.988 261.265 155.693 263.219 156.831C273.916 163.014 282.956 178.67 282.956 191.024C282.956 195.649 281.67 199.037 279.444 200.336C277.205 201.622 273.631 201.041 269.625 198.728L142.164 125.136C127.337 116.578 114.81 94.8751 114.81 77.76C114.81 71.045 116.788 65.9254 120.251 63.7118C121.673 62.809 123.392 62.3515 125.333 62.3515C127.695 62.3762 130.379 63.044 133.248 64.3672Z" fill="url(#paint14_radial)"/>
<path d="M196.861 144.254L200.225 142.572L196.91 140.062L196.861 144.254Z" fill="#5793CE"/>
<path d="M186.77 98.8324L190.034 97.1876L190.084 98.8942L186.77 98.8324Z" fill="#5793CE"/>
<path d="M206.457 133.644L209.858 131.925L203.304 125.692L206.457 133.644Z" fill="#5793CE"/>
<path d="M199.235 142.461L183.32 133.087C182.516 132.617 181.86 131.418 181.86 130.416L181.91 111.99L200.756 123.083L200.707 141.509C200.707 142.511 200.051 142.931 199.235 142.461Z" fill="#5793CE"/>
<path d="M189.997 97.2L172.808 108.268C172.078 108.738 172.672 110.482 173.773 111.137L191.333 121.475L208.893 131.814C210.006 132.469 210.6 131.418 209.87 130.095L192.792 98.8571C192.063 97.5092 190.739 96.7301 189.997 97.2Z" fill="#5793CE"/>
<path d="M195.822 144.18L179.906 134.806C179.103 134.336 178.447 133.137 178.447 132.135L178.497 113.709L197.343 124.802L197.294 143.228C197.294 144.229 196.638 144.65 195.822 144.18Z" fill="#D4ECFF"/>
<path d="M186.584 98.9189L169.395 109.987C168.665 110.457 169.259 112.2 170.36 112.856L187.92 123.194L205.48 133.533C206.593 134.188 207.187 133.137 206.457 131.814L189.379 100.564C188.649 99.2281 187.326 98.449 186.584 98.9189Z" fill="#D4ECFF"/>
</g>
<defs>
<radialGradient id="paint0_radial" cx="0" cy="0" r="1" gradientUnits="userSpaceOnUse" gradientTransform="translate(432.661 150.625) scale(41.6361)">
<stop stop-color="#274F89"/>
<stop offset="1" stop-color="#173D7A"/>
</radialGradient>
<linearGradient id="paint1_linear" x1="407.369" y1="135.517" x2="481.045" y2="135.517" gradientUnits="userSpaceOnUse">
<stop stop-color="#D4ECFF"/>
<stop offset="0.2385" stop-color="#D0EAFE"/>
<stop offset="0.4599" stop-color="#C5E2F9"/>
<stop offset="0.6745" stop-color="#B2D6F2"/>
<stop offset="0.8837" stop-color="#98C4E7"/>
<stop offset="1" stop-color="#86B8E0"/>
</linearGradient>
<radialGradient id="paint2_radial" cx="0" cy="0" r="1" gradientUnits="userSpaceOnUse" gradientTransform="translate(372.801 107.54) scale(75.2613)">
<stop stop-color="#699DD1"/>
<stop offset="0.2662" stop-color="#6396CC"/>
<stop offset="0.6412" stop-color="#5184BD"/>
<stop offset="1" stop-color="#396CAA"/>
</radialGradient>
<radialGradient id="paint3_radial" cx="0" cy="0" r="1" gradientUnits="userSpaceOnUse" gradientTransform="translate(8.74952 263.527) scale(48.7131)">
<stop stop-color="#699DD1"/>
<stop offset="0.2662" stop-color="#6396CC"/>
<stop offset="0.6412" stop-color="#5184BD"/>
<stop offset="1" stop-color="#396CAA"/>
</radialGradient>
<linearGradient id="paint4_linear" x1="17.9438" y1="247.908" x2="94.2483" y2="293.4" gradientUnits="userSpaceOnUse">
<stop stop-color="#D4ECFF"/>
<stop offset="0.2009" stop-color="#D0EAFE"/>
<stop offset="0.3874" stop-color="#C5E2F9"/>
<stop offset="0.5682" stop-color="#B2D6F2"/>
<stop offset="0.7444" stop-color="#98C4E7"/>
<stop offset="0.8423" stop-color="#86B8E0"/>
</linearGradient>
<radialGradient id="paint5_radial" cx="0" cy="0" r="1" gradientUnits="userSpaceOnUse" gradientTransform="translate(395.278 223.741) scale(249.42)">
<stop stop-color="#86B8E0"/>
<stop offset="0.1163" stop-color="#98C4E7"/>
<stop offset="0.3255" stop-color="#B2D6F2"/>
<stop offset="0.5401" stop-color="#C5E2F9"/>
<stop offset="0.7615" stop-color="#D0EAFE"/>
<stop offset="1" stop-color="#D4ECFF"/>
</radialGradient>
<radialGradient id="paint6_radial" cx="0" cy="0" r="1" gradientUnits="userSpaceOnUse" gradientTransform="translate(375.528 167.373) scale(171.633)">
<stop stop-color="#173D7A"/>
<stop offset="1" stop-color="#274F89"/>
</radialGradient>
<radialGradient id="paint7_radial" cx="0" cy="0" r="1" gradientUnits="userSpaceOnUse" gradientTransform="translate(402.07 242.939) scale(338.49)">
<stop stop-color="#86B8E0"/>
<stop offset="0.1163" stop-color="#98C4E7"/>
<stop offset="0.3255" stop-color="#B2D6F2"/>
<stop offset="0.5401" stop-color="#C5E2F9"/>
<stop offset="0.7615" stop-color="#D0EAFE"/>
<stop offset="1" stop-color="#D4ECFF"/>
</radialGradient>
<radialGradient id="paint8_radial" cx="0" cy="0" r="1" gradientUnits="userSpaceOnUse" gradientTransform="translate(160.535 184.335) scale(15.7437)">
<stop stop-color="#699DD1"/>
<stop offset="0.2662" stop-color="#6396CC"/>
<stop offset="0.6412" stop-color="#5184BD"/>
<stop offset="1" stop-color="#396CAA"/>
</radialGradient>
<radialGradient id="paint9_radial" cx="0" cy="0" r="1" gradientUnits="userSpaceOnUse" gradientTransform="translate(151.731 167.436) scale(24.8939)">
<stop stop-color="#699DD1"/>
<stop offset="0.2662" stop-color="#6396CC"/>
<stop offset="0.6412" stop-color="#5184BD"/>
<stop offset="1" stop-color="#396CAA"/>
</radialGradient>
<radialGradient id="paint10_radial" cx="0" cy="0" r="1" gradientUnits="userSpaceOnUse" gradientTransform="translate(213.472 214.934) scale(15.7436)">
<stop stop-color="#699DD1"/>
<stop offset="0.2662" stop-color="#6396CC"/>
<stop offset="0.6412" stop-color="#5184BD"/>
<stop offset="1" stop-color="#396CAA"/>
</radialGradient>
<radialGradient id="paint11_radial" cx="0" cy="0" r="1" gradientUnits="userSpaceOnUse" gradientTransform="translate(204.667 198.035) scale(24.8941)">
<stop stop-color="#699DD1"/>
<stop offset="0.2662" stop-color="#6396CC"/>
<stop offset="0.6412" stop-color="#5184BD"/>
<stop offset="1" stop-color="#396CAA"/>
</radialGradient>
<radialGradient id="paint12_radial" cx="0" cy="0" r="1" gradientUnits="userSpaceOnUse" gradientTransform="translate(228.209 110.743) scale(89.5941)">
<stop stop-color="#699DD1"/>
<stop offset="0.2662" stop-color="#6396CC"/>
<stop offset="0.6412" stop-color="#5184BD"/>
<stop offset="1" stop-color="#396CAA"/>
</radialGradient>
<linearGradient id="paint13_linear" x1="108.415" y1="118.082" x2="289.376" y2="118.082" gradientUnits="userSpaceOnUse">
<stop stop-color="#D4ECFF"/>
<stop offset="0.2385" stop-color="#D0EAFE"/>
<stop offset="0.4599" stop-color="#C5E2F9"/>
<stop offset="0.6745" stop-color="#B2D6F2"/>
<stop offset="0.8837" stop-color="#98C4E7"/>
<stop offset="1" stop-color="#86B8E0"/>
</linearGradient>
<radialGradient id="paint14_radial" cx="0" cy="0" r="1" gradientUnits="userSpaceOnUse" gradientTransform="translate(283.334 185.679) scale(181.171)">
<stop stop-color="#173D7A"/>
<stop offset="1" stop-color="#274F89"/>
</radialGradient>
<clipPath id="clip0">
<rect width="468.304" height="386.71" fill="white"/>
</clipPath>
</defs>
</svg>
