<svg width="408" height="403" viewBox="0 0 408 403" fill="none" xmlns="http://www.w3.org/2000/svg">
<path d="M210.608 164.99L156.368 118.624L156.932 117.965L210.487 163.742L275.349 80.7819L300.878 99.2521L353.011 30.5481L353.696 31.0771L301.06 100.457L275.523 81.9699L210.608 164.99Z" fill="#EBEBEB"/>
<path d="M22.4466 239.496C22.4466 241.117 21.1286 242.435 19.507 242.435C17.8854 242.435 16.5674 241.117 16.5674 239.496C16.5674 237.874 17.8854 236.556 19.507 236.556C21.1286 236.556 22.4466 237.874 22.4466 239.496Z" fill="#EBEBEB"/>
<path d="M156.655 124.096C159.859 124.096 162.456 121.499 162.456 118.295C162.456 115.091 159.859 112.494 156.655 112.494C153.451 112.494 150.854 115.091 150.854 118.295C150.854 121.499 153.451 124.096 156.655 124.096Z" fill="#EBEBEB"/>
<path d="M19.8272 239.791L19.1855 239.201L82.4352 169.352L96.7171 181.779L153.706 120.463L154.339 121.052L96.7778 182.984L82.5046 170.566L19.8272 239.791Z" fill="#EBEBEB"/>
<path d="M353.628 35.8464C357.804 35.8464 361.189 32.461 361.189 28.2849C361.189 24.1088 357.804 20.7234 353.628 20.7234C349.452 20.7234 346.066 24.1088 346.066 28.2849C346.066 32.461 349.452 35.8464 353.628 35.8464Z" fill="#EBEBEB"/>
<path d="M357.322 25.6921C357.417 25.7788 355.934 27.5565 354.018 29.655C353.584 30.1232 353.168 30.5742 352.769 31.0077L352.639 31.1465L352.492 31.0337C350.939 29.8544 349.881 28.9786 349.933 28.9006C349.994 28.8225 351.147 29.5683 352.734 30.6956L352.457 30.7216C352.847 30.2793 353.255 29.8284 353.68 29.3515C355.596 27.253 357.226 25.6141 357.322 25.6921Z" fill="white"/>
<path d="M109.074 105.071C109.82 99.6682 102.189 95.2197 96.4571 94.7602C93.7256 94.5434 90.8813 94.9596 88.2972 94.0578C82.6868 92.1067 80.4496 84.8574 74.9779 82.5507C70.8849 80.8251 66.1763 82.36 62.2048 84.3544C58.242 86.3488 54.3138 88.8636 49.8827 89.1497C46.0239 89.3925 41.8442 87.9704 38.471 89.8521C35.9563 91.2569 34.6382 94.1532 32.323 95.8614C30.0597 97.535 27.1027 97.8906 24.2845 98.038C21.4663 98.1854 18.5613 98.2201 16.0033 99.3907C13.4452 100.561 11.3207 103.267 11.8583 106.033L109.074 105.071Z" fill="#EBEBEB"/>
<path d="M313.279 14.5232C313.747 11.15 308.986 8.38384 305.414 8.08901C303.705 7.95027 301.936 8.21041 300.324 7.64677C296.82 6.42409 295.424 1.90626 292.016 0.466794C289.467 -0.608467 286.527 0.345394 284.047 1.59408C281.576 2.84277 279.13 4.40364 276.364 4.58574C273.962 4.74183 271.352 3.84866 269.245 5.01931C267.675 5.89513 266.86 7.69879 265.412 8.76538C263.999 9.80596 262.152 10.0314 260.4 10.1268C258.648 10.2222 256.827 10.2395 255.232 10.9679C253.636 11.6963 252.31 13.3873 252.648 15.1129L313.279 14.5232Z" fill="#F5F5F5"/>
<path d="M377.222 90.8061C377.474 88.9938 374.916 87.5023 372.99 87.3462C372.071 87.2682 371.126 87.4156 370.25 87.1121C368.369 86.4531 367.614 84.025 365.784 83.2533C364.414 82.6723 362.836 83.1926 361.501 83.8603C360.174 84.528 358.856 85.3691 357.365 85.4645C356.072 85.5512 354.668 85.0656 353.532 85.6986C352.691 86.1669 352.248 87.1381 351.468 87.7104C350.705 88.2741 349.716 88.3868 348.771 88.4388C347.826 88.4909 346.855 88.4995 345.996 88.8897C345.138 89.28 344.427 90.1905 344.609 91.1183L377.222 90.8061Z" fill="#F5F5F5"/>
<path d="M88.9917 44.1103C89.2431 42.298 86.6851 40.8065 84.76 40.6504C83.8408 40.5724 82.887 40.7198 82.0198 40.4163C80.1381 39.7573 79.3837 37.3292 77.554 36.5575C76.1839 35.9765 74.6057 36.4968 73.2703 37.1645C71.9436 37.8322 70.6255 38.6733 69.134 38.7687C67.842 38.8554 66.4372 38.3698 65.3012 39.0028C64.4601 39.4711 64.0179 40.4423 63.2374 41.0146C62.4743 41.5783 61.4858 41.691 60.5406 41.743C59.5954 41.795 58.6242 41.8037 57.7657 42.1939C56.9073 42.5842 56.1962 43.4947 56.3783 44.4225L88.9917 44.1103Z" fill="#FAFAFA"/>
<path d="M106.205 228.943L123.401 190.71L141.073 180.105L152.06 156.215L183.581 163.594L207.098 235.724L170.703 253.613L141.073 271.676L106.205 228.943Z" fill="#F5F5F5"/>
<path d="M407.061 339.72L375.939 277.598L361.536 256.032L344.566 177.512L324.118 160.507L303.576 189.097L275.48 196.112L249.613 220.86L301.694 276.124L332.391 308.486L356.359 353.274C356.359 353.274 402.829 397.195 402.387 396.778C401.936 396.362 407.061 339.72 407.061 339.72Z" fill="#EBEBEB"/>
<path d="M0.169922 402.198L3.34368 360.029L20.2964 333.676L31.3959 283.521L51.5744 271.675L76.5048 229.749L100.247 213.689L149.51 262.397L182.028 227.381L207.097 235.723L196.769 248.566L170.703 253.613L119.333 298.401L79.3924 320.418L68.7439 339.651L45.6344 343.041L0.169922 402.198Z" fill="#EBEBEB"/>
<path d="M294.202 362.604C294.202 362.622 294.029 362.63 293.699 362.648C293.327 362.656 292.85 362.674 292.251 362.682C290.933 362.7 289.112 362.726 286.866 362.752C282.244 362.769 275.871 362.795 268.639 362.83L268.812 362.752C267.789 364 266.714 365.31 265.621 366.636C260.254 373.131 255.389 379.011 251.834 383.32C250.073 385.41 248.643 387.118 247.611 388.341C247.125 388.905 246.743 389.347 246.449 389.694C246.18 389.997 246.032 390.153 246.015 390.145C246.006 390.136 246.128 389.963 246.371 389.633C246.648 389.278 247.012 388.809 247.472 388.228C248.478 386.98 249.865 385.245 251.582 383.112C255.111 378.785 259.941 372.88 265.266 366.35C266.358 365.024 267.434 363.714 268.465 362.465L268.535 362.387H268.639C275.871 362.413 282.244 362.448 286.866 362.465C289.121 362.492 290.942 362.518 292.251 362.535C292.85 362.552 293.327 362.561 293.699 362.57C294.029 362.578 294.202 362.587 294.202 362.604Z" fill="#263238"/>
<path d="M202.258 324.259L148.365 322.49L133.441 341.828L109.786 352.355L96.9346 379.609L111.893 362.258L140.665 357.436L161.147 336.087L202.258 324.259Z" fill="#F5F5F5"/>
<path d="M0.169922 402.198C0.169922 402.198 0.421394 401.843 0.941682 401.158C1.46197 400.473 2.23373 399.458 3.24829 398.123C5.28608 395.452 8.30375 391.515 12.1972 386.416C20.0102 376.227 31.3525 361.425 45.513 342.946L45.5477 342.894L45.6084 342.886C52.797 341.828 60.5493 340.683 68.7178 339.486L68.5964 339.573C71.9436 333.52 75.5163 327.051 79.2276 320.331L79.2537 320.288L79.297 320.262C91.5498 313.498 105.025 306.067 119.22 298.228L119.186 298.254C135.037 284.423 152.389 269.291 170.547 253.457L170.59 253.413L170.651 253.405C178.932 251.8 187.768 250.092 196.726 248.358L196.596 248.436C200.819 243.181 205.337 237.571 209.889 231.899C214.121 226.636 218.309 221.424 222.463 216.265L222.55 216.152L222.688 216.178C232.305 218.32 241.783 220.418 251.07 222.491L251.139 222.508L251.183 222.56C281.42 254.463 309.16 283.72 332.521 308.373L332.538 308.39L332.547 308.408C341.574 325.3 349.586 340.301 356.48 353.213L356.454 353.179C370.962 366.923 382.451 377.814 390.316 385.272C394.236 389 397.262 391.871 399.3 393.813C400.315 394.784 401.086 395.521 401.607 396.016C402.127 396.51 402.378 396.77 402.378 396.77C402.378 396.77 402.101 396.527 401.581 396.042C401.052 395.547 400.271 394.819 399.248 393.865C397.193 391.931 394.158 389.078 390.212 385.376C382.321 377.936 370.806 367.079 356.255 353.378L356.238 353.361L356.229 353.343C349.309 340.44 341.271 325.456 332.226 308.581L332.252 308.625C308.874 283.98 281.117 254.74 250.862 222.864L250.975 222.925C241.679 220.861 232.21 218.754 222.593 216.62L222.818 216.542C218.665 221.702 214.476 226.922 210.245 232.177C205.692 237.839 201.183 243.45 196.951 248.705L196.899 248.765L196.821 248.783C187.864 250.517 179.028 252.225 170.746 253.83L170.85 253.778C152.692 269.603 135.332 284.735 119.472 298.557L119.455 298.574L119.437 298.583C105.233 306.405 91.7492 313.827 79.4878 320.574L79.5572 320.504C75.8371 327.225 72.2471 333.694 68.8999 339.738L68.8566 339.816L68.7699 339.825C60.6013 341.012 52.8491 342.14 45.6517 343.189L45.7471 343.128C31.5346 361.573 20.1576 376.34 12.3186 386.512C8.40781 391.584 5.3728 395.513 3.31766 398.175C2.29443 399.493 1.50533 400.499 0.976368 401.184C0.447409 401.86 0.169922 402.198 0.169922 402.198Z" fill="#263238"/>
<path d="M207.097 323.6C207.097 323.609 207.028 323.635 206.881 323.678C206.716 323.73 206.499 323.791 206.23 323.878C205.632 324.051 204.773 324.294 203.689 324.606C201.444 325.23 198.2 326.132 194.151 327.268C185.974 329.514 174.501 332.662 161.217 336.304L161.312 336.243C157.262 340.475 152.875 345.053 148.331 349.788C145.773 352.45 143.267 355.06 140.83 357.601L140.778 357.653L140.709 357.662C129.965 359.448 120.131 361.078 111.928 362.44L112.032 362.379C106.769 368.44 102.442 373.409 99.4238 376.886C97.9237 378.595 96.7444 379.93 95.9292 380.867C95.539 381.309 95.2268 381.647 95.0014 381.898C94.7933 382.133 94.6719 382.237 94.6719 382.237C94.6719 382.237 94.7586 382.107 94.958 381.864C95.1748 381.604 95.4696 381.248 95.8425 380.797C96.6403 379.852 97.7936 378.491 99.2591 376.756C102.251 373.253 106.534 368.25 111.755 362.145L111.798 362.093L111.859 362.084C120.053 360.697 129.887 359.032 140.622 357.219L140.501 357.289C142.937 354.748 145.443 352.129 148.001 349.467C152.545 344.733 156.933 340.163 160.991 335.94L161.035 335.896L161.095 335.879C174.397 332.298 185.887 329.202 194.073 326.999C198.14 325.924 201.392 325.057 203.646 324.467C204.747 324.181 205.606 323.964 206.213 323.808C206.49 323.739 206.707 323.687 206.881 323.644C207.019 323.6 207.097 323.592 207.097 323.6Z" fill="#263238"/>
<path d="M272.203 305.217C272.203 305.338 260.47 305.442 246.006 305.442C231.533 305.442 219.81 305.338 219.81 305.217C219.81 305.095 231.533 304.991 246.006 304.991C260.47 304.991 272.203 305.095 272.203 305.217Z" fill="#263238"/>
<path d="M276.564 165.58C276.564 165.58 276.503 160.646 276.295 160.603L266.158 162.857C266.054 163.499 264.771 171.59 264.988 172.379L276.39 175.544C276.399 175.544 276.573 165.866 276.564 165.58Z" fill="#FFBE9D"/>
<path d="M276.581 174.798C276.598 174.789 276.616 174.711 276.633 174.572C276.746 173.471 276.676 168.65 276.087 168.442C275.428 168.207 273.78 168.589 273.667 169.222C273.555 169.855 273.936 175.283 273.936 175.283C273.936 175.283 274.049 176.142 275.488 176.341C276.381 176.471 276.581 174.798 276.581 174.798Z" fill="#FFBE9D"/>
<path d="M273.685 176.532C273.703 176.523 273.72 176.445 273.737 176.307C273.85 175.205 273.781 170.384 273.191 170.176C272.532 169.942 270.885 170.323 270.772 170.956C270.659 171.589 271.041 177.018 271.041 177.018C271.041 177.018 271.153 177.876 272.593 178.076C273.486 178.206 273.685 176.532 273.685 176.532Z" fill="#FFBE9D"/>
<path d="M270.858 177.391C270.876 177.382 270.893 177.304 270.91 177.165C271.023 176.064 270.954 171.242 270.364 171.034C269.705 170.8 268.057 171.182 267.945 171.815C267.832 172.448 268.213 177.876 268.213 177.876C268.213 177.876 268.326 178.735 269.766 178.934C270.659 179.073 270.858 177.391 270.858 177.391Z" fill="#FFBE9D"/>
<path d="M268.049 178.205C268.066 178.197 268.083 178.119 268.101 177.98C268.213 176.879 268.144 172.057 267.554 171.849C266.895 171.615 265.248 171.997 265.135 172.63C265.022 173.263 265.404 178.691 265.404 178.691C265.404 178.691 265.517 179.55 266.956 179.749C267.849 179.888 268.049 178.205 268.049 178.205Z" fill="#FFBE9D"/>
<path d="M273.642 170.636C273.729 170.644 273.824 171.693 273.868 172.986C273.911 174.278 273.876 175.318 273.79 175.309C273.703 175.301 273.608 174.252 273.564 172.959C273.53 171.667 273.564 170.627 273.642 170.636Z" fill="#EB996E"/>
<path d="M270.806 170.618C270.893 170.618 271.014 172.11 271.075 173.957C271.144 175.804 271.127 177.304 271.04 177.304C270.953 177.304 270.832 175.812 270.771 173.965C270.702 172.118 270.719 170.618 270.806 170.618Z" fill="#EB996E"/>
<g opacity="0.78">
<g opacity="0.78">
<g opacity="0.78">
<path opacity="0.78" d="M267.918 170.852C268.005 170.852 268.126 172.344 268.187 174.191C268.256 176.038 268.239 177.538 268.152 177.538C268.066 177.538 267.944 176.047 267.884 174.199C267.814 172.361 267.832 170.861 267.918 170.852Z" fill="#EB996E"/>
</g>
</g>
</g>
<path d="M266.098 163.126C266.098 163.126 262.083 172.24 262.672 172.812C263.262 173.376 265.144 174.243 265.144 174.243L266.098 163.126Z" fill="#FFBE9D"/>
<path d="M243.916 40.8582L240.977 74.9544L223.903 73.5929C223.799 71.5985 223.937 63.8896 223.937 63.8896C223.937 63.8896 216.835 62.7883 216.749 55.6777C216.705 52.2264 217.2 45.0985 217.72 38.673C218.292 31.545 224.458 26.186 231.594 26.6023C238.974 27.0359 244.549 33.4788 243.916 40.8582Z" fill="#FFBE9D"/>
<path d="M223.92 63.7769C223.92 63.7769 228.411 64.1411 233.181 61.1494C233.181 61.1494 230.996 66.2656 223.902 65.6239L223.92 63.7769Z" fill="#EB996E"/>
<path d="M220.468 43.6504C220.451 44.188 220.884 44.6476 221.448 44.6736C222.003 44.6996 222.471 44.292 222.497 43.7631C222.515 43.2255 222.081 42.7659 221.518 42.7399C220.954 42.7052 220.486 43.1127 220.468 43.6504Z" fill="#263238"/>
<path d="M219.229 42.2543C219.35 42.3844 220.122 41.8207 221.214 41.8207C222.307 41.8121 223.105 42.367 223.226 42.237C223.287 42.1763 223.157 41.9421 222.81 41.682C222.463 41.4305 221.882 41.179 221.197 41.1877C220.521 41.1877 219.948 41.4392 219.619 41.6993C219.281 41.9508 219.168 42.1936 219.229 42.2543Z" fill="#263238"/>
<path d="M230.944 43.6504C230.927 44.188 231.36 44.6476 231.924 44.6736C232.479 44.6996 232.947 44.292 232.973 43.7631C232.99 43.2255 232.557 42.7659 231.993 42.7399C231.429 42.7052 230.961 43.1127 230.944 43.6504Z" fill="#263238"/>
<path d="M229.964 42.4538C230.094 42.5838 230.857 42.0202 231.95 42.0202C233.042 42.0115 233.84 42.5665 233.961 42.4364C234.022 42.3757 233.892 42.1416 233.545 41.8815C233.198 41.63 232.617 41.3785 231.932 41.3872C231.256 41.3872 230.684 41.6387 230.354 41.8988C230.016 42.1589 229.903 42.3931 229.964 42.4538Z" fill="#263238"/>
<path d="M226.001 50.5528C226.01 50.4921 225.325 50.3706 224.232 50.2319C223.955 50.2059 223.686 50.1452 223.643 49.9544C223.573 49.755 223.695 49.4515 223.825 49.1306C224.085 48.4543 224.362 47.7519 224.649 47.0061C225.793 43.9885 226.626 41.4997 226.496 41.4564C226.374 41.413 225.342 43.8237 224.198 46.85C223.92 47.5958 223.66 48.3068 223.409 48.9832C223.304 49.3041 223.122 49.6596 223.261 50.0758C223.339 50.2839 223.539 50.4313 223.721 50.4834C223.903 50.5354 224.059 50.5441 224.198 50.5528C225.308 50.6048 225.993 50.6135 226.001 50.5528Z" fill="#263238"/>
<path d="M229.209 51.3073C229.036 51.2986 229.027 52.478 228.013 53.3191C226.998 54.1602 225.741 54.0302 225.732 54.1949C225.715 54.273 226.01 54.429 226.547 54.4377C227.068 54.4551 227.831 54.2903 228.455 53.77C229.071 53.2584 229.339 52.5647 229.383 52.0791C229.426 51.5935 229.296 51.2986 229.209 51.3073Z" fill="#263238"/>
<path d="M229.678 38.1787C229.782 38.4735 230.875 38.3348 232.158 38.4909C233.441 38.6209 234.473 38.9938 234.647 38.725C234.725 38.5949 234.543 38.3174 234.126 38.0313C233.71 37.7451 233.051 37.4676 232.279 37.3896C231.508 37.3029 230.805 37.4243 230.337 37.615C229.869 37.8058 229.635 38.0399 229.678 38.1787Z" fill="#263238"/>
<path d="M219.636 39.0893C219.826 39.3408 220.581 39.0807 221.483 39.072C222.385 39.0286 223.156 39.2367 223.33 38.9766C223.408 38.8465 223.286 38.6037 222.948 38.3696C222.619 38.1355 222.064 37.9447 221.448 37.962C220.824 37.9794 220.286 38.2048 219.974 38.4563C219.653 38.7165 219.549 38.9679 219.636 39.0893Z" fill="#263238"/>
<path d="M248.928 31.762C248.971 30.4352 248.026 29.0218 246.699 28.9351C247.254 27.669 246.899 26.0648 245.858 25.1543C244.818 24.2438 243.187 24.0964 242.008 24.8074C241.609 23.2726 240.291 22.0152 238.739 21.6944C237.187 21.3822 235.479 22.0239 234.516 23.2813C233.519 22.1106 231.889 21.5036 230.362 21.7464C228.836 21.9892 227.475 23.0645 226.894 24.4866C225.593 23.394 223.703 23.0385 222.09 23.5934C221.067 23.9403 220.182 24.6427 219.575 25.5358C218.786 25.2844 217.971 25.0936 217.147 25.1543C216.089 25.2237 214.997 25.7873 214.589 26.7759C214.259 27.591 214.598 28.6402 215.317 29.0651C214.034 28.753 212.499 29.6635 212.308 30.9989C212.135 32.1955 213.097 33.3575 214.251 33.635C213.817 33.8604 213.47 34.3634 213.514 34.8663C213.6 35.7248 214.381 36.3578 215.17 36.7047C217.199 37.5978 219.558 37.3117 221.656 36.6006C223.755 35.8982 225.697 34.797 227.778 34.0425C229.859 33.2881 233.337 31.9267 235.426 32.6638C235.721 32.7678 235.999 32.9326 236.259 33.106C237.386 33.9992 238.123 35.2826 238.323 36.7047C238.331 36.7567 238.34 36.8001 238.34 36.8521C238.618 38.8812 238.566 40.9364 238.869 42.9655C239.164 44.9859 239.866 47.0497 241.366 48.4372C241.982 49.0095 243.066 49.4084 243.578 48.732C243.777 48.4719 243.803 48.125 243.829 47.8042C244.107 44.2749 244.87 41.0317 245.277 37.5805C245.694 36.696 246.517 35.9763 247.202 35.2392C248.104 34.2853 248.885 33.0887 248.928 31.762Z" fill="#263238"/>
<path d="M227.753 28.1893C227.736 28.1979 227.614 27.8684 227.658 27.2441C227.71 26.6371 227.961 25.7006 228.794 24.9114C229.609 24.131 231.074 23.6628 232.531 24.1744C233.233 24.4258 233.953 24.9288 234.283 25.7439C234.439 26.1515 234.465 26.6111 234.335 27.0533C234.205 27.4869 233.875 27.9031 233.416 28.0765C232.973 28.2413 232.436 28.2153 232.037 27.9204C231.629 27.6256 231.482 27.1053 231.534 26.6631C231.569 26.2208 231.803 25.8046 232.115 25.5271C232.418 25.241 232.791 25.0675 233.147 24.9548C234.604 24.5299 236.034 24.9028 236.928 25.5791C237.378 25.9173 237.699 26.3509 237.847 26.7845C237.994 27.2181 237.977 27.6256 237.907 27.9291C237.743 28.5535 237.396 28.7529 237.396 28.7269C237.361 28.7009 237.647 28.4667 237.743 27.8944C237.786 27.6083 237.769 27.2441 237.621 26.8712C237.465 26.4983 237.17 26.1255 236.745 25.8306C235.913 25.2496 234.578 24.9375 233.277 25.345C232.653 25.5445 232.028 26.0127 231.976 26.6978C231.941 27.0273 232.054 27.3655 232.314 27.5476C232.566 27.7383 232.947 27.7644 233.268 27.643C233.927 27.4088 234.135 26.5157 233.884 25.8913C233.632 25.241 233.025 24.7814 232.401 24.5472C231.126 24.0703 229.782 24.4519 229.019 25.1282C228.239 25.8133 227.944 26.6718 227.849 27.2441C227.736 27.8511 227.796 28.1893 227.753 28.1893Z" fill="#455A64"/>
<path d="M236.389 23.6629C236.389 23.6369 236.614 23.5848 237.03 23.5415C237.447 23.5068 238.062 23.4634 238.817 23.5849C239.562 23.7063 240.482 24.0271 241.21 24.7989C241.947 25.5359 242.285 26.9234 241.592 28.016C241.479 28.1807 241.34 28.3368 241.201 28.4582L240.976 28.0767C241.574 27.8425 242.207 27.9986 242.667 28.3021C243.135 28.6056 243.456 29.0999 243.569 29.5855C243.803 30.5827 243.43 31.4672 243.014 32.0395C242.589 32.6205 242.121 32.9674 241.8 33.1842C241.47 33.4009 241.279 33.4877 241.262 33.4616C241.245 33.4356 241.41 33.2969 241.696 33.0454C241.982 32.7939 242.398 32.4211 242.762 31.8661C243.118 31.3198 243.395 30.5133 243.178 29.6896C243.066 29.282 242.814 28.9091 242.433 28.675C242.06 28.4322 241.566 28.3368 241.141 28.5016L239.97 28.9698L240.907 28.12C241.011 28.0246 241.123 27.9032 241.21 27.7732C241.479 27.3483 241.566 26.8193 241.496 26.3424C241.427 25.8568 241.201 25.4319 240.898 25.085C240.282 24.3913 239.45 24.0531 238.756 23.9057C237.325 23.6282 236.38 23.7496 236.389 23.6629Z" fill="#455A64"/>
<path d="M246.665 31.1809C246.717 31.1722 246.847 31.415 246.847 31.8573C246.847 32.2908 246.691 32.9239 246.231 33.4355C245.772 33.9471 245.156 34.1812 244.731 34.2159C244.289 34.2593 244.029 34.1639 244.037 34.1118C244.029 33.9904 245.113 34.0078 245.893 33.132C246.682 32.2562 246.543 31.1809 246.665 31.1809Z" fill="#455A64"/>
<path d="M216.324 27.4694C216.307 27.4521 216.506 27.218 216.983 26.9318C217.46 26.6543 218.241 26.3508 219.247 26.3508C220.235 26.3508 221.492 26.6803 222.464 27.6602C222.923 28.1372 223.348 28.8135 223.305 29.62C223.253 30.4264 222.559 31.2155 221.631 31.1635C221.172 31.1201 220.773 30.7819 220.617 30.3917C220.452 30.0015 220.443 29.5853 220.547 29.2037C220.773 28.4146 221.432 27.929 222.082 27.7123C222.741 27.4868 223.435 27.5475 223.999 27.7469C224.571 27.9464 225.03 28.2672 225.403 28.6054C226.149 29.2905 226.539 30.0015 226.799 30.4698C227.06 30.9554 227.172 31.2329 227.146 31.2502C227.12 31.2675 226.955 31.0161 226.652 30.5652C226.348 30.1229 225.915 29.4552 225.195 28.8482C224.501 28.2586 223.366 27.7036 222.212 28.1111C221.657 28.3019 221.128 28.7355 220.972 29.3251C220.799 29.8975 221.068 30.6779 221.675 30.7212C222.264 30.7733 222.845 30.1749 222.863 29.594C222.906 28.9783 222.568 28.3886 222.16 27.9551C221.31 27.0619 220.166 26.7237 219.238 26.6803C218.293 26.637 217.538 26.8798 217.061 27.0966C216.593 27.3134 216.35 27.5041 216.324 27.4694Z" fill="#455A64"/>
<path d="M241.523 44.0753C241.644 44.0233 246.405 42.6359 246.249 47.4919C246.093 52.3479 241.254 51.1946 241.245 51.0472C241.237 50.8998 241.523 44.0753 241.523 44.0753Z" fill="#FFBE9D"/>
<path d="M242.781 49.2522C242.807 49.2348 242.868 49.3129 243.007 49.3823C243.145 49.4516 243.379 49.5037 243.64 49.4169C244.16 49.2435 244.619 48.4457 244.672 47.5699C244.698 47.1277 244.619 46.7028 244.472 46.3472C244.333 45.983 244.117 45.7316 243.856 45.6795C243.605 45.6102 243.414 45.7576 243.353 45.8963C243.284 46.0264 243.31 46.1305 243.284 46.1391C243.267 46.1478 243.18 46.0524 243.232 45.853C243.258 45.7576 243.319 45.6449 243.431 45.5581C243.553 45.4714 243.726 45.4281 243.9 45.4454C244.273 45.4801 244.602 45.8356 244.758 46.2258C244.94 46.6161 245.036 47.093 245.01 47.5873C244.949 48.5671 244.42 49.4603 243.709 49.6424C243.362 49.7205 243.085 49.6077 242.937 49.4863C242.79 49.3649 242.772 49.2609 242.781 49.2522Z" fill="#EB996E"/>
<path d="M211.398 280.104L214.554 294.637C214.554 294.637 200.845 302.728 201.166 305.468L229.556 300.361L225.567 277.52L211.398 280.104Z" fill="#263238"/>
<path d="M229.556 300.361L229.062 298.071L202.024 303.82C202.024 303.82 200.862 304.601 201.166 305.459L229.556 300.361Z" fill="#455A64"/>
<path d="M243.691 281.708L244.159 296.571C244.159 296.571 229.209 302.043 229.027 304.791L257.877 304.922L258.094 281.734L243.691 281.708Z" fill="#263238"/>
<g opacity="0.6">
<g opacity="0.6">
<g opacity="0.6">
<g opacity="0.6">
<g opacity="0.6">
<path opacity="0.6" d="M257.877 304.913L257.808 302.572L230.172 303.326C230.172 303.326 228.888 303.881 229.027 304.783L257.877 304.913Z" fill="#455A64"/>
</g>
</g>
</g>
</g>
</g>
<path d="M209.845 292.574C209.845 292.574 195.06 220.028 195.043 218.58L221.456 204.61L231.689 289.747L209.845 292.574Z" fill="#263238"/>
<path d="M243.11 295.001L222.68 169.274V142.158L250.584 144.751C250.94 145.809 260.071 295.175 260.071 295.175L257.192 295.01H243.11" fill="#263238"/>
<path d="M206.628 140.233L195.043 218.58L220.936 212.302L231.489 142.783L206.628 140.233Z" fill="#263238"/>
<path d="M230.571 146.876C230.571 146.876 230.571 147.006 230.597 147.257C230.623 147.526 230.667 147.899 230.719 148.385C230.831 149.382 230.996 150.839 231.213 152.703C231.655 156.449 232.323 161.869 233.19 168.563C234.916 181.943 237.543 200.405 240.353 220.8C241.757 230.998 243.05 240.727 244.142 249.581C244.428 251.792 244.654 253.96 244.966 256.049C245.287 258.139 245.599 260.168 245.902 262.128C246.501 266.048 247.047 269.698 247.559 273.037C248.565 279.705 249.354 285.108 249.874 288.845C250.134 290.709 250.325 292.166 250.438 293.155C250.498 293.649 250.533 294.022 250.55 294.273C250.559 294.403 250.559 294.499 250.55 294.559C250.542 294.637 250.507 294.551 250.507 294.568C250.507 294.568 250.507 294.577 250.516 294.594C250.524 294.62 250.568 294.603 250.568 294.559C250.585 294.49 250.585 294.395 250.585 294.273C250.576 294.022 250.55 293.64 250.507 293.146C250.412 292.157 250.247 290.701 250.004 288.828C249.527 285.082 248.773 279.679 247.801 273.002C247.307 269.664 246.77 266.004 246.189 262.085C245.894 260.125 245.59 258.096 245.278 256.006C244.975 253.916 244.749 251.757 244.472 249.546C243.388 240.692 242.113 230.963 240.708 220.757C237.89 200.361 235.228 181.908 233.442 168.537C232.557 161.86 231.846 156.449 231.352 152.694C231.109 150.83 230.927 149.382 230.797 148.385C230.727 147.899 230.675 147.535 230.641 147.266C230.606 147.006 230.571 146.876 230.571 146.876Z" fill="#455A64"/>
<path d="M215.006 291.897C215.006 291.897 214.997 291.767 214.954 291.524C214.91 291.264 214.85 290.909 214.78 290.44C214.615 289.469 214.373 288.064 214.069 286.269C213.436 282.636 212.517 277.398 211.381 270.929C209.074 257.974 205.892 240.102 202.38 220.358C202.12 219.144 202.033 217.912 202.163 216.689C202.319 215.475 202.519 214.253 202.701 213.047C203.074 210.637 203.438 208.252 203.802 205.92C204.539 201.246 205.268 196.745 205.979 192.461C207.401 183.885 208.78 176.185 210.011 169.725C211.242 163.273 212.326 158.062 213.141 154.48C213.532 152.685 213.878 151.298 214.095 150.361C214.199 149.902 214.286 149.546 214.347 149.286C214.399 149.043 214.416 148.913 214.416 148.913C214.416 148.913 214.373 149.035 214.312 149.269C214.243 149.52 214.147 149.876 214.026 150.335C213.783 151.272 213.41 152.651 213.003 154.446C212.135 158.018 211.017 163.221 209.759 169.673C208.502 176.124 207.097 183.825 205.649 192.401C204.921 196.684 204.192 201.194 203.447 205.859C203.082 208.2 202.71 210.576 202.337 212.987C202.155 214.201 201.955 215.397 201.799 216.646C201.669 217.895 201.764 219.178 202.024 220.418C205.58 240.154 208.797 258.018 211.13 270.964C212.309 277.416 213.263 282.645 213.93 286.278C214.269 288.073 214.529 289.469 214.711 290.44C214.798 290.909 214.876 291.264 214.919 291.524C214.971 291.776 215.006 291.897 215.006 291.897Z" fill="#455A64"/>
<path d="M222.679 168.381C222.584 168.398 223.789 176.515 225.376 186.522C226.963 196.528 228.324 204.628 228.42 204.61C228.515 204.593 227.31 196.476 225.723 186.47C224.145 176.463 222.775 168.372 222.679 168.381Z" fill="#455A64"/>
<path d="M242.867 294.776C242.867 294.802 243.101 294.837 243.535 294.889C243.968 294.941 244.593 295.002 245.373 295.062C246.925 295.184 249.076 295.297 251.452 295.34C253.828 295.375 255.978 295.331 257.539 295.262C258.32 295.227 258.944 295.192 259.378 295.149C259.811 295.114 260.054 295.08 260.054 295.054C260.054 295.002 259.091 295.002 257.539 295.01C255.987 295.019 253.837 295.019 251.469 294.984C249.102 294.941 246.951 294.872 245.399 294.811C243.83 294.759 242.867 294.724 242.867 294.776Z" fill="#455A64"/>
<path d="M209.845 292.574C209.845 292.6 210.157 292.582 210.712 292.53C211.336 292.461 212.125 292.383 213.062 292.279C215.039 292.053 217.779 291.715 220.788 291.325C223.806 290.935 226.529 290.562 228.506 290.276C229.434 290.137 230.214 290.015 230.839 289.92C231.385 289.833 231.688 289.773 231.688 289.747C231.688 289.721 231.376 289.729 230.821 289.781C230.266 289.833 229.46 289.911 228.471 290.024C226.494 290.25 223.754 290.579 220.736 290.969C217.719 291.36 214.996 291.741 213.019 292.027C212.091 292.175 211.31 292.296 210.686 292.391C210.14 292.487 209.836 292.548 209.845 292.574Z" fill="#455A64"/>
<path d="M78.6553 18.5207C78.6553 18.5207 90.1189 14.0462 97.9493 16.2835C105.78 18.5207 108.112 23.3854 114.026 22.9692C118.691 22.6397 121.995 20.6192 123.669 15.6591C125.342 10.6904 125.351 4.50764 141.281 5.0973C153.473 5.54821 154.704 7.33453 154.704 7.33453L156.013 39.7658C149.111 38.6732 142.061 37.8928 134.491 38.9594C134.491 38.9594 128.239 40.0866 127.389 46.7463C126.504 53.6748 119.385 56.3717 115.119 56.3717C109.005 56.3717 105.918 52.244 100.741 51.056C92.625 49.183 78.6553 54.8715 78.6553 54.8715V18.5207Z" fill="#1D9AD6"/>
<path d="M160.982 86.34L153.976 85.8457L154.158 96.8411L161.676 102.339L162.43 102.053L162.864 89.5484L160.982 86.34Z" fill="#EB996E"/>
<path d="M122.464 43.5206C122.342 43.5206 122.134 38.1443 122.004 31.5106C121.874 24.8769 121.874 19.4919 121.995 19.4919C122.117 19.4919 122.325 24.8683 122.455 31.5019C122.585 38.1356 122.594 43.5206 122.464 43.5206Z" fill="#263238"/>
<path d="M109.639 29.4641C109.76 29.4641 109.864 35.0138 109.864 41.8643C109.864 48.7148 109.76 54.2645 109.639 54.2645C109.517 54.2645 109.413 48.7148 109.413 41.8643C109.413 35.0138 109.508 29.4641 109.639 29.4641Z" fill="#263238"/>
<g opacity="0.2">
<g opacity="0.2">
<path opacity="0.2" d="M109.639 48.7666C109.553 51.2553 109.639 54.5592 109.639 54.5592C111.46 55.7732 115.215 56.5103 117.305 55.8599C117.322 55.8512 117.348 55.8512 117.366 55.8425C120.184 54.9494 122.308 52.6081 123.002 49.7378C123.262 48.6712 123.401 47.6393 123.332 46.8502C122.638 38.6037 121.745 28.328 122.005 20.0554C122.005 20.0554 117.036 24.8334 109.327 22.7869L109.639 48.7666Z" fill="black"/>
</g>
</g>
<g opacity="0.6">
<g opacity="0.6">
<path opacity="0.6" d="M108.486 23.9922C108.468 24.0183 108.087 23.8015 107.419 23.3852C106.673 22.9257 105.728 22.336 104.583 21.6336C102.19 20.2028 98.7649 18.2084 94.5679 17.4106C90.3709 16.6042 86.4427 17.2112 83.7893 18.0523C81.1184 18.8934 79.627 19.8386 79.5836 19.7606C79.5663 19.7346 79.9305 19.4918 80.6155 19.1015C81.3092 18.72 82.3411 18.2171 83.6852 17.7488C86.3473 16.8209 90.3536 16.1446 94.6459 16.9684C98.947 17.7922 102.381 19.8646 104.748 21.3648C105.936 22.1279 106.873 22.7869 107.514 23.2465C108.156 23.6974 108.503 23.9662 108.486 23.9922Z" fill="white"/>
</g>
</g>
<g opacity="0.6">
<g opacity="0.6">
<path opacity="0.6" d="M136.66 7.42964C136.651 7.50768 135.793 7.40362 134.44 7.56838C133.096 7.72447 131.24 8.23608 129.532 9.42407C127.832 10.6121 126.705 12.1729 126.089 13.3783C125.465 14.5923 125.265 15.4334 125.187 15.4074C125.144 15.3987 125.231 14.5229 125.794 13.2395C126.349 11.9648 127.485 10.2912 129.263 9.0512C131.041 7.81118 133 7.32558 134.396 7.24754C135.819 7.16082 136.668 7.37761 136.66 7.42964Z" fill="white"/>
</g>
</g>
<path d="M155.328 4.00464L164.581 261.07L162.977 261.443L153.481 4.12604L155.328 4.00464Z" fill="#263238"/>
<path d="M172.428 100.891L168.951 88.4125L156.62 79.7844C156.62 79.7844 155.181 80.6429 157.383 83.9034L160.141 87.7188C160.141 87.7188 160.054 92.6876 162.421 95.6012L161.667 102.339L172.428 100.891Z" fill="#FFBE9D"/>
<path d="M153.941 88.1178C155.406 89.141 156.429 89.9995 157.444 91.3783C157.652 91.6644 157.687 92.2021 157.704 92.5576C157.713 92.9131 157.548 93.2947 157.227 93.4334C156.976 93.5461 156.672 93.4941 156.421 93.3554C156.178 93.2253 155.978 93.0172 155.788 92.8177C154.99 92.0026 154.201 91.1788 153.403 90.3637C153.099 90.0515 152.614 89.4532 152.588 89.0196C152.544 88.3953 153.256 87.7276 153.941 88.1178Z" fill="#FFBE9D"/>
<path d="M153.924 91.309C155.389 92.3322 156.413 93.1907 157.427 94.5694C157.635 94.8556 157.67 95.3932 157.687 95.7488C157.696 96.1043 157.531 96.4858 157.21 96.6246C156.959 96.7373 156.655 96.6853 156.404 96.5465C156.161 96.4165 155.962 96.2083 155.771 96.0089C154.973 95.1938 154.184 94.37 153.386 93.5549C153.083 93.2427 152.597 92.6444 152.571 92.2108C152.519 91.5865 153.23 90.9188 153.924 91.309Z" fill="#FFBE9D"/>
<path d="M154.444 94.7689C155.91 95.7922 156.933 96.6506 157.948 98.0294C158.156 98.3156 158.19 98.8532 158.208 99.2087C158.216 99.5643 158.052 99.9458 157.731 100.085C157.479 100.197 157.176 100.145 156.924 100.006C156.682 99.8764 156.482 99.6683 156.291 99.4689C155.494 98.6537 154.704 97.83 153.907 97.0148C153.603 96.7027 153.118 96.1043 153.092 95.6708C153.04 95.0464 153.751 94.3787 154.444 94.7689Z" fill="#FFBE9D"/>
<path d="M154.505 85.9239C155.051 86.2188 155.545 86.4789 155.944 86.9558C156.343 87.4328 156.534 88.1438 156.239 88.6901C156.126 88.9069 155.927 89.089 155.684 89.115C155.519 89.1324 155.354 89.063 155.198 88.9936C154.86 88.8375 154.548 88.6381 154.262 88.4126C153.958 88.1698 153.724 87.875 153.464 87.5802C153.195 87.2767 153.013 86.9905 153.238 86.4789C153.421 86.0627 153.603 85.8199 154.505 85.9239Z" fill="#FFBE9D"/>
<path d="M171.709 94.6562L190.431 111.479L184.343 124.894L162.864 101.975L171.709 94.6562Z" fill="#FFBE9D"/>
<path d="M170.962 93.9277L187.62 106.597C187.62 106.597 203.116 80.1661 204.486 78.5271C205.856 76.8882 209.334 75.1279 209.334 75.1279L207.417 109.007C207.417 109.007 199.032 130.4 187.534 129.238C178.723 128.345 163.505 105.114 163.505 105.114L170.962 93.9277Z" fill="#1D9AD6"/>
<g opacity="0.2">
<g opacity="0.2">
<path opacity="0.2" d="M187.317 106.198C185.001 109.744 184.368 114.34 185.634 118.381C185.765 118.797 185.938 119.231 186.311 119.456C186.866 119.786 187.629 119.448 187.976 118.901C188.323 118.355 188.366 117.679 188.409 117.028C188.73 117.627 189.077 118.251 189.641 118.641C190.204 119.032 191.054 119.084 191.514 118.581C192.069 117.974 191.765 117.011 191.427 116.257C190.005 113.04 188.591 109.822 187.169 106.614" fill="black"/>
</g>
</g>
<path d="M175.16 97.7256C175.264 97.795 173.555 100.657 171.344 104.117C169.133 107.576 167.251 110.334 167.147 110.265C167.043 110.195 168.751 107.334 170.963 103.874C173.174 100.405 175.047 97.6563 175.16 97.7256Z" fill="#263238"/>
<path d="M170.92 97.2574C170.877 97.2228 171.094 96.9973 171.467 97.1447C171.64 97.2141 171.848 97.3702 171.909 97.665C171.978 97.9685 171.779 98.298 171.51 98.4281C171.241 98.5755 170.86 98.5495 170.651 98.324C170.443 98.1072 170.435 97.8471 170.478 97.665C170.573 97.2661 170.877 97.2228 170.886 97.2748C170.92 97.3355 170.782 97.4569 170.79 97.6997C170.799 97.9512 170.998 98.1853 171.302 98.0292C171.605 97.8731 171.527 97.5696 171.319 97.4222C171.128 97.2748 170.946 97.3181 170.92 97.2574Z" fill="#263238"/>
<path d="M187.646 114.618C187.542 114.652 186.918 112.901 186.892 110.62C186.849 108.348 187.421 106.571 187.525 106.605C187.655 106.631 187.3 108.409 187.343 110.611C187.36 112.823 187.776 114.592 187.646 114.618Z" fill="#263238"/>
<path d="M190.872 114.505C190.768 114.565 189.676 112.961 188.739 110.759C187.785 108.565 187.369 106.666 187.482 106.631C187.612 106.596 188.219 108.417 189.155 110.577C190.075 112.753 190.985 114.444 190.872 114.505Z" fill="#263238"/>
<path d="M244.184 71.9022L241.669 66.9248H223.459L220.598 72.5786L209.342 75.128L204.495 147.691C204.46 148.61 204.685 149.52 205.136 150.318L249.378 152.018L251.182 152.755C252.769 151.775 251.78 147.734 251.798 145.835L252.361 109.901L261.111 81.1894L244.184 71.9022Z" fill="#1D9AD6"/>
<g opacity="0.2">
<g opacity="0.2">
<path opacity="0.2" d="M225.308 74.417C226.383 73.3417 227.449 72.2751 228.525 71.1999C229.73 74.1048 230.935 77.0184 232.141 79.9234C236.303 77.478 240.266 74.7031 243.986 71.6334C239.902 72.9428 235.817 74.2522 231.733 75.5703C230.701 72.8214 229.661 70.0726 228.629 67.3237C227.9 69.8211 226.868 72.2231 225.55 74.4603" fill="black"/>
</g>
</g>
<path d="M276.651 162.883L264.728 163.499L264.702 129.272L252.371 109.883L261.121 81.1719C262.924 81.8829 276.512 115.996 279.972 125.258C280.475 126.593 280.692 128.015 280.614 129.446L276.651 162.883Z" fill="#1D9AD6"/>
<path d="M209.343 90.095C209.465 90.1037 208.875 97.1275 208.025 105.764C207.175 114.41 206.377 121.408 206.256 121.39C206.135 121.382 206.724 114.366 207.574 105.721C208.424 97.0842 209.213 90.0863 209.343 90.095Z" fill="#263238"/>
<path d="M228.62 67.3409C228.732 67.3929 227.761 70.003 226.452 73.1768C226.365 73.3762 226.287 73.567 226.209 73.7664C226.122 73.9659 226.036 74.1913 225.81 74.3734C225.585 74.5729 225.212 74.5382 225.021 74.4255C224.813 74.3214 224.674 74.2087 224.509 74.1046C223.937 73.7144 223.391 73.3415 222.871 72.9947C221.943 72.353 221.388 71.9281 221.422 71.876C221.457 71.824 222.073 72.1535 223.044 72.7259C223.573 73.0467 224.137 73.3936 224.735 73.7491C225.056 73.9485 225.385 74.1913 225.533 74.0179C225.732 73.8531 225.854 73.3762 226.027 73.0033C227.345 69.8296 228.507 67.2888 228.62 67.3409Z" fill="#263238"/>
<path d="M243.101 71.7807C243.119 71.8414 242.061 72.2663 240.318 72.8993C238.584 73.541 236.173 74.3908 233.502 75.3013C232.999 75.4747 232.513 75.6395 232.045 75.7956L231.846 75.865L231.768 75.6742C230.831 73.4023 230.016 71.3905 229.452 69.9337C228.889 68.4855 228.577 67.5924 228.629 67.575C228.681 67.549 229.088 68.3988 229.73 69.821C230.363 71.2431 231.23 73.2288 232.184 75.5008L231.906 75.3794C232.375 75.2146 232.869 75.0498 233.363 74.8764C236.034 73.9659 238.462 73.1595 240.222 72.5958C241.983 72.0408 243.084 71.7287 243.101 71.7807Z" fill="#263238"/>
<path d="M259.247 82.2039C259.281 82.334 256.715 83.0277 253.74 84.3631C250.757 85.6812 248.529 87.1206 248.451 87.0079C248.416 86.9559 248.936 86.5397 249.838 85.95C250.74 85.3603 252.05 84.6233 253.55 83.9556C255.059 83.2879 256.472 82.8109 257.521 82.5334C258.57 82.2473 259.229 82.1432 259.247 82.2039Z" fill="#263238"/>
<path d="M228.62 67.3411C228.628 67.3411 228.637 67.4104 228.646 67.5579C228.654 67.7313 228.663 67.9394 228.672 68.1909C228.689 68.7545 228.724 69.5783 228.732 70.6449C228.759 72.7781 228.741 75.8564 228.594 79.6632C228.325 87.2768 227.371 97.7606 225.854 109.276C225.117 115.043 224.301 120.514 223.755 125.509C223.2 130.504 222.957 135.03 223.035 138.829C223.087 142.627 223.434 145.688 223.746 147.786C223.876 148.844 224.041 149.651 224.128 150.206C224.163 150.457 224.197 150.665 224.223 150.839C224.241 150.977 224.249 151.055 224.241 151.055C224.232 151.055 224.215 150.986 224.18 150.847C224.145 150.682 224.093 150.474 224.041 150.223C223.929 149.677 223.738 148.87 223.582 147.812C223.217 145.714 222.819 142.644 222.732 138.829C222.619 135.013 222.827 130.469 223.356 125.466C223.885 120.454 224.683 114.982 225.42 109.224C226.938 97.7172 227.935 87.2507 228.29 79.6545C228.481 75.8564 228.542 72.7781 228.576 70.6536C228.585 69.6217 228.594 68.7979 228.602 68.2082C228.611 67.9481 228.611 67.74 228.62 67.5665C228.602 67.4104 228.611 67.3411 228.62 67.3411Z" fill="#263238"/>
<path d="M277.293 157.646C277.284 157.767 274.457 157.732 270.971 157.559C267.485 157.386 264.667 157.151 264.676 157.021C264.684 156.9 267.511 156.935 270.997 157.108C274.483 157.281 277.301 157.524 277.293 157.646Z" fill="#263238"/>
<path d="M266.714 158.981C266.757 159.033 266.696 159.155 266.748 159.302C266.818 159.467 266.939 159.554 267.095 159.423C267.251 159.293 267.199 159.155 267.043 159.051C266.904 158.964 266.774 158.999 266.731 158.947C266.679 158.912 266.809 158.704 267.13 158.747C267.277 158.773 267.468 158.86 267.563 159.085C267.667 159.319 267.563 159.614 267.364 159.77C267.173 159.935 266.861 159.97 266.653 159.822C266.453 159.675 266.401 159.467 266.41 159.319C266.453 159.007 266.696 158.929 266.714 158.981Z" fill="#263238"/>
<g opacity="0.2">
<g opacity="0.2">
<path opacity="0.2" d="M252.535 109.797C251.243 107.455 249.943 105.114 248.651 102.773C247.098 115.121 247.974 127.773 251.217 139.791C251.616 129.845 252.015 119.89 252.414 109.944" fill="black"/>
</g>
</g>
<g opacity="0.2">
<g opacity="0.2">
<path opacity="0.2" d="M198.261 88.6034C200.559 92.0633 205.103 93.3727 209.022 92.0026C209.534 92.8871 210.574 93.3727 211.589 93.4421C212.612 93.5115 213.618 93.2167 214.58 92.8611C221.856 90.1816 227.536 83.574 229.096 75.9778C223.486 77.9462 219.705 83.3919 214.199 85.6378C209.75 87.4588 204.79 86.9732 200.827 84.259L198.261 88.6034Z" fill="black"/>
</g>
</g>
<path d="M232.8 96.9022C232.782 96.8849 233.034 96.8675 233.502 96.8588C234.04 96.8415 234.733 96.8242 235.574 96.8068C237.369 96.7721 239.971 96.7288 243.101 96.7114H243.309L243.292 96.9282C243.093 99.6684 242.858 102.842 242.607 106.224L242.598 106.345L242.486 106.406C242.338 106.484 242.182 106.571 242.026 106.649C240.274 107.568 238.583 108.461 236.988 109.294L236.858 109.363L236.745 109.276C235.046 107.889 233.476 106.597 232.071 105.452L231.993 105.392L232.002 105.296C232.219 102.781 232.401 100.692 232.539 99.1394C232.609 98.4631 232.661 97.9168 232.704 97.4745C232.765 97.0843 232.791 96.8849 232.8 96.9022C232.808 96.9195 232.808 97.1363 232.8 97.5352C232.782 97.9861 232.756 98.5584 232.722 99.2522C232.635 100.778 232.522 102.833 232.383 105.314L232.314 105.157C233.727 106.293 235.314 107.559 237.031 108.93L236.797 108.904C238.393 108.062 240.075 107.169 241.827 106.241C241.983 106.155 242.139 106.077 242.286 105.999L242.165 106.181C242.434 102.799 242.685 99.625 242.902 96.8935L243.101 97.1016C240.058 97.0843 237.508 97.0409 235.696 97.0063C234.837 96.9889 234.135 96.9716 233.58 96.9542C233.086 96.9369 232.817 96.9195 232.8 96.9022Z" fill="#263238"/>
<path d="M242.832 101.064C242.832 101.186 240.517 101.247 237.672 101.194C234.819 101.142 232.513 100.995 232.522 100.874C232.522 100.752 234.837 100.692 237.681 100.744C240.525 100.796 242.832 100.943 242.832 101.064Z" fill="#FAFAFA"/>
<path d="M242.746 102.859C242.746 102.981 240.431 103.041 237.586 102.989C234.734 102.937 232.427 102.79 232.436 102.669C232.436 102.547 234.751 102.486 237.595 102.538C240.439 102.591 242.755 102.729 242.746 102.859Z" fill="#FAFAFA"/>
<path d="M210.93 150.674C210.921 150.795 209.993 150.63 209.403 149.728C208.796 148.835 208.987 147.916 209.109 147.959C209.239 147.968 209.265 148.74 209.776 149.477C210.262 150.24 210.973 150.552 210.93 150.674Z" fill="#263238"/>
<path d="M212.083 150.197C212.005 150.284 211.164 149.486 210.834 148.142C210.487 146.806 210.851 145.705 210.955 145.74C211.085 145.766 210.947 146.806 211.268 148.029C211.571 149.26 212.187 150.11 212.083 150.197Z" fill="#263238"/>
<path d="M245.477 145.211C245.59 145.193 245.694 146.954 244.784 148.862C243.89 150.778 242.468 151.818 242.408 151.723C242.312 151.628 243.535 150.492 244.376 148.671C245.243 146.858 245.339 145.193 245.477 145.211Z" fill="#263238"/>
<path d="M227.285 71.0352H229.678L230.701 72.8215L229.695 75.5877L227.311 75.3189L226.383 73.3157L227.285 71.0352Z" fill="#455A64"/>
<path d="M227.31 75.3189C227.31 75.3189 212.916 84.5887 205.562 80.886C198.27 77.2093 189.113 72.6481 180.875 73.732C172.637 74.8246 167.148 78.0937 167.148 78.0937L164.572 84.3459L171.223 86.7479C171.223 86.7479 180.918 82.0653 187.968 83.3226C192.893 84.1985 202.363 89.2192 208.736 88.7423C215.11 88.2654 223.911 83.7302 229.704 75.5877L227.31 75.3189Z" fill="#455A64"/>
<path d="M229.053 76.3507C229.027 76.394 228.611 76.2032 228.117 75.9258C227.622 75.6483 227.241 75.3881 227.267 75.3448C227.293 75.3014 227.709 75.4922 228.203 75.7697C228.698 76.0472 229.079 76.3073 229.053 76.3507Z" fill="#263238"/>
<path d="M230.475 72.5093C230.51 72.544 229.79 73.1944 228.879 73.9575C227.969 74.7205 227.197 75.3015 227.171 75.2669C227.136 75.2322 227.856 74.5818 228.767 73.8187C229.677 73.0556 230.449 72.466 230.475 72.5093Z" fill="#263238"/>
<path d="M229.461 73.4111C229.435 73.4458 228.81 73.0296 228.169 72.3532C227.527 71.6855 227.137 71.0351 227.18 71.0091C227.223 70.9831 227.674 71.5728 228.299 72.2318C228.932 72.8908 229.495 73.3678 229.461 73.4111Z" fill="#263238"/>
<path d="M217.573 85.95C217.547 85.9587 217.425 85.6725 217.252 85.2043C217.078 84.736 216.844 84.0857 216.601 83.3659C216.359 82.6462 216.142 81.9872 215.994 81.5102C215.847 81.0333 215.769 80.7298 215.795 80.7211C215.821 80.7125 215.942 80.9986 216.116 81.4669C216.289 81.9351 216.523 82.5855 216.766 83.3052C217.009 84.025 217.226 84.684 217.373 85.1609C217.521 85.6465 217.599 85.9414 217.573 85.95Z" fill="#FAFAFA"/>
<path d="M221.171 83.7909C221.128 83.8169 220.538 82.9237 219.853 81.8051C219.168 80.6865 218.648 79.75 218.691 79.7239C218.734 79.6979 219.324 80.5824 220.009 81.7097C220.694 82.837 221.214 83.7649 221.171 83.7909Z" fill="#FAFAFA"/>
<path d="M224.431 81.2675C224.396 81.3022 223.737 80.7039 222.957 79.9321C222.176 79.1604 221.578 78.5013 221.613 78.4753C221.647 78.4406 222.306 79.039 223.087 79.8107C223.867 80.5738 224.466 81.2328 224.431 81.2675Z" fill="#FAFAFA"/>
<path d="M227.136 78.6052C227.102 78.6399 226.607 78.2757 226.026 77.7901C225.445 77.3045 224.995 76.871 225.029 76.8363C225.064 76.8016 225.558 77.1658 226.139 77.6514C226.72 78.137 227.162 78.5706 227.136 78.6052Z" fill="#FAFAFA"/>
<path d="M212.456 88.1874C212.404 88.1874 212.291 86.7827 212.196 85.0484C212.101 83.3141 212.066 81.9006 212.118 81.9006C212.17 81.9006 212.283 83.3054 212.378 85.0397C212.473 86.774 212.508 88.1788 212.456 88.1874Z" fill="#FAFAFA"/>
<path d="M207.522 88.9589C207.47 88.9503 207.652 87.346 207.92 85.3603C208.189 83.3832 208.449 81.779 208.493 81.7876C208.545 81.7963 208.363 83.4005 208.094 85.3863C207.825 87.3634 207.574 88.9589 207.522 88.9589Z" fill="#FAFAFA"/>
<path d="M204.6 80.3309C204.652 80.3483 204.183 82.0739 203.568 84.1897C202.952 86.3056 202.406 88.0139 202.362 88.0052C202.31 87.9878 202.779 86.2622 203.394 84.1464C204.01 82.0219 204.556 80.3136 204.6 80.3309Z" fill="#FAFAFA"/>
<path d="M201.253 78.7442C201.296 78.7615 200.75 80.5392 200.022 82.707C199.293 84.8836 198.669 86.6352 198.625 86.6179C198.582 86.6005 199.128 84.8229 199.857 82.655C200.577 80.4785 201.201 78.7355 201.253 78.7442Z" fill="#FAFAFA"/>
<path d="M196.396 76.4808C196.448 76.4982 195.962 78.4232 195.312 80.7819C194.67 83.1492 194.107 85.0569 194.055 85.0396C194.003 85.0222 194.488 83.0972 195.139 80.7385C195.789 78.3712 196.353 76.4635 196.396 76.4808Z" fill="#FAFAFA"/>
<path d="M191.211 75.0674C191.263 75.0761 190.881 76.9838 190.361 79.3251C189.841 81.6664 189.381 83.5481 189.338 83.5394C189.286 83.5308 189.667 81.623 190.188 79.2817C190.699 76.9404 191.159 75.0587 191.211 75.0674Z" fill="#FAFAFA"/>
<path d="M185.973 74.1567C186.025 74.1567 186.077 76.1859 186.103 78.6832C186.129 81.1806 186.103 83.2097 186.051 83.2097C185.999 83.2097 185.947 81.1806 185.921 78.6832C185.895 76.1859 185.921 74.1567 185.973 74.1567Z" fill="#FAFAFA"/>
<path d="M181.768 83.3834C181.76 83.3834 181.716 83.2533 181.664 83.0192C181.595 82.681 181.517 82.3428 181.448 82.0046C181.274 81.1461 181.066 79.9495 180.867 78.6227C180.676 77.296 180.537 76.0907 180.45 75.2149C180.424 74.868 180.398 74.5211 180.364 74.1743C180.346 73.9315 180.346 73.7927 180.364 73.7927C180.372 73.7927 180.398 73.9228 180.442 74.1656C180.485 74.5038 180.537 74.8506 180.58 75.1975C180.728 76.2814 180.884 77.3827 181.049 78.5967C181.239 79.802 181.404 80.9033 181.578 81.9786C181.63 82.3254 181.682 82.6636 181.734 83.0018C181.768 83.2446 181.777 83.3834 181.768 83.3834Z" fill="#FAFAFA"/>
<path d="M177.111 84.346C177.067 84.3633 176.356 82.3515 175.524 79.8541C174.691 77.3568 174.058 75.319 174.11 75.3016C174.154 75.2843 174.865 77.2961 175.697 79.7934C176.521 82.2908 177.154 84.3286 177.111 84.346Z" fill="#FAFAFA"/>
<path d="M172.888 85.8373C172.845 85.8547 171.917 83.999 170.815 81.675C169.714 79.3511 168.856 77.452 168.899 77.4347C168.942 77.4173 169.87 79.273 170.972 81.597C172.073 83.9209 172.931 85.82 172.888 85.8373Z" fill="#FAFAFA"/>
<path d="M167.407 85.3518C167.373 85.3778 166.835 84.7014 166.384 83.7475C165.925 82.7937 165.725 81.9525 165.768 81.9439C165.821 81.9265 166.089 82.733 166.549 83.6695C166.991 84.606 167.451 85.3257 167.407 85.3518Z" fill="#FAFAFA"/>
<path d="M118.969 268.649C117.573 270.644 114.867 269.985 113.61 268.762C112.352 267.548 111.824 265.788 111.338 264.105C110.237 260.264 109.118 256.24 109.942 252.329C110.185 251.159 110.627 249.997 111.442 249.13C112.266 248.263 113.523 247.742 114.685 248.054C116.055 248.419 116.905 249.754 117.512 251.029C119.316 254.775 120.27 258.92 120.287 263.073C120.296 265.016 120.061 267.045 118.969 268.649Z" fill="#1D9AD6"/>
<g opacity="0.2">
<g opacity="0.2">
<path opacity="0.2" d="M117.969 268.649C116.573 270.644 113.867 269.985 112.61 268.762C111.352 267.548 110.824 265.788 110.338 264.105C109.237 260.264 108.118 256.24 108.942 252.329C109.185 251.159 109.627 249.997 110.442 249.13C111.266 248.263 112.523 247.742 113.685 248.054C115.055 248.419 115.905 249.754 116.512 251.029C118.316 254.775 119.27 258.92 119.287 263.073C119.296 265.016 119.061 267.045 117.969 268.649Z" fill="#1D9AD6"/>
</g>
</g>
<path d="M113.74 278.734C111.46 277.555 108.772 277.407 106.24 277.824C104.878 278.049 103.465 278.457 102.537 279.48C101.609 280.503 101.436 282.298 102.502 283.183C103.135 283.703 104.02 283.781 104.835 283.772C106.821 283.746 109.014 283.399 110.601 284.596C111.503 285.272 112.11 286.408 113.185 286.747C114.243 287.076 115.431 286.452 115.995 285.498C116.559 284.544 116.576 283.347 116.316 282.281C116.316 282.263 116.038 279.922 113.74 278.734Z" fill="#1D9AD6"/>
<path d="M122.802 271.511C121.284 269.716 120.998 267.088 121.675 264.842C122.351 262.588 123.869 260.671 125.629 259.111C127.684 257.281 130.103 255.85 132.705 254.94C133.728 254.584 134.803 254.298 135.887 254.402C136.962 254.506 138.055 255.061 138.558 256.015C139.304 257.437 138.593 259.154 137.812 260.559C136.451 263.03 134.899 265.406 133.164 267.635C131.768 269.43 130.173 271.199 128.057 272.014C125.932 272.829 123.73 272.733 122.603 271.259" fill="#1D9AD6"/>
<path d="M119.065 298.696C119.039 298.696 118.995 298.375 118.935 297.794C118.874 297.135 118.787 296.311 118.692 295.323C118.579 294.282 118.423 293.042 118.137 291.698C117.851 290.354 117.4 288.897 116.819 287.423C116.221 285.957 115.492 284.622 114.634 283.555C113.784 282.48 112.795 281.708 111.876 281.257C110.948 280.798 110.125 280.616 109.552 280.529C108.971 280.468 108.65 280.425 108.65 280.399C108.65 280.373 108.971 280.373 109.57 280.382C110.159 280.425 111.018 280.572 111.998 281.015C112.977 281.448 114.018 282.237 114.911 283.33C115.804 284.423 116.567 285.784 117.174 287.275C117.764 288.776 118.206 290.25 118.484 291.62C118.761 292.99 118.883 294.239 118.969 295.288C119.047 296.337 119.073 297.187 119.091 297.777C119.1 298.375 119.091 298.696 119.065 298.696Z" fill="#263238"/>
<path d="M118.892 296.797C118.883 296.797 118.874 296.649 118.866 296.381C118.866 296.068 118.866 295.67 118.866 295.175C118.866 294.135 118.866 292.626 118.814 290.761C118.718 287.033 118.398 281.891 117.782 276.245C117.158 270.592 116.334 265.501 115.579 261.859C115.397 260.949 115.224 260.125 115.05 259.397C114.886 258.677 114.756 258.053 114.617 257.55C114.504 257.073 114.409 256.691 114.339 256.379C114.279 256.11 114.253 255.972 114.27 255.963C114.279 255.963 114.331 256.093 114.417 256.353C114.513 256.657 114.625 257.038 114.764 257.506C114.92 258.009 115.076 258.625 115.258 259.345C115.449 260.064 115.649 260.88 115.839 261.799C116.663 265.441 117.53 270.54 118.155 276.202C118.779 281.865 119.057 287.024 119.083 290.761C119.109 292.626 119.065 294.143 119.013 295.184C118.987 295.67 118.961 296.068 118.944 296.381C118.926 296.658 118.909 296.797 118.892 296.797Z" fill="#263238"/>
<path d="M118.864 286.851C118.838 286.851 118.847 286.4 118.873 285.593C118.916 284.787 119.029 283.625 119.255 282.194C119.497 280.772 119.836 279.081 120.356 277.243C120.859 275.396 121.552 273.41 122.428 271.381C124.145 267.305 126.478 263.975 128.507 261.911C128.984 261.365 129.513 260.966 129.938 260.585C130.155 260.403 130.354 260.212 130.545 260.064C130.744 259.926 130.926 259.804 131.1 259.683C131.767 259.223 132.14 258.981 132.158 259.007C132.218 259.085 130.658 260.004 128.698 262.094C126.738 264.183 124.475 267.487 122.767 271.528C121.899 273.54 121.197 275.508 120.685 277.338C120.139 279.159 119.784 280.833 119.506 282.237C119.246 283.651 119.098 284.804 119.003 285.602C118.951 286.408 118.89 286.851 118.864 286.851Z" fill="#263238"/>
<path d="M369.037 323.982C367.432 323.947 365.889 324.736 364.762 325.881C363.643 327.025 362.915 328.508 362.412 330.026C361.449 332.974 361.744 336.529 362.438 339.556C365.742 338.576 367.927 335.228 368.924 333.459C370.519 330.676 371.681 324.667 369.037 323.982Z" fill="#1D9AD6"/>
<path d="M357.252 343.128C358.449 341.802 358.735 339.772 358.137 338.09C357.538 336.399 356.142 335.064 354.512 334.327C353.758 333.989 352.856 333.772 352.119 334.136C351.425 334.483 351.043 335.281 351.026 336.052C351.009 336.824 351.312 337.579 351.685 338.246C352.977 340.579 354.659 342.582 357.252 343.128Z" fill="#1D9AD6"/>
<path d="M356.585 352.832C356.611 352.84 356.681 352.615 356.785 352.207C356.889 351.8 357.028 351.219 357.184 350.482C357.478 349.025 357.851 346.952 357.704 344.646C357.548 342.339 356.75 340.327 355.857 339.105C355.415 338.489 354.99 338.047 354.66 337.778C354.339 337.509 354.14 337.388 354.123 337.405C354.071 337.457 354.842 338.004 355.649 339.244C356.464 340.466 357.21 342.426 357.357 344.672C357.504 346.926 357.175 348.973 356.941 350.438C356.698 351.904 356.542 352.814 356.585 352.832Z" fill="#263238"/>
<path d="M367.623 328.465C367.605 328.456 367.415 328.786 367.085 329.393C366.756 330 366.296 330.893 365.75 331.994C364.64 334.205 363.157 337.275 361.605 340.718C360.052 344.151 358.726 347.299 357.798 349.597C357.338 350.742 356.974 351.678 356.731 352.32C356.488 352.97 356.367 353.326 356.384 353.335C356.41 353.343 356.575 352.996 356.853 352.363C357.156 351.678 357.546 350.768 358.023 349.684C359.003 347.421 360.365 344.29 361.917 340.856C363.469 337.422 364.917 334.335 365.966 332.098C366.469 331.023 366.886 330.13 367.206 329.445C367.501 328.82 367.649 328.473 367.623 328.465Z" fill="#263238"/>
<path d="M360.929 346.623C362.95 343.432 366.592 341.333 370.364 341.186C371.326 341.151 372.471 341.351 372.87 342.226C373.269 343.102 372.662 344.108 371.985 344.793C369.176 347.646 364.545 348.522 360.886 346.892" fill="#1D9AD6"/>
<path d="M368.933 343.718C368.933 343.692 368.707 343.683 368.309 343.692C368.109 343.692 367.858 343.7 367.58 343.735C367.294 343.77 366.973 343.787 366.618 343.874C365.907 343.995 365.074 344.238 364.19 344.585C363.314 344.958 362.377 345.443 361.475 346.085C360.582 346.735 359.811 347.455 359.178 348.166C358.553 348.895 358.059 349.597 357.712 350.23C357.521 350.534 357.391 350.837 357.27 351.097C357.14 351.349 357.053 351.583 356.992 351.774C356.862 352.155 356.793 352.363 356.819 352.372C356.88 352.398 357.183 351.557 357.929 350.36C358.293 349.753 358.805 349.085 359.42 348.383C360.053 347.698 360.808 347.004 361.684 346.371C362.568 345.756 363.47 345.261 364.32 344.888C365.178 344.533 365.985 344.273 366.67 344.117C368.048 343.796 368.933 343.787 368.933 343.718Z" fill="#263238"/>
</svg>
