<svg width="1439" height="450" viewBox="0 0 1439 450" fill="none" xmlns="http://www.w3.org/2000/svg">
<path opacity="0.8" d="M3.3466 268.616C4.27771 268.392 5.17155 268.69 5.8792 269.248L27.3693 245.664C26.9969 245.292 26.6989 244.846 26.5499 244.288C26.1775 242.688 27.183 241.051 28.8218 240.679C30.4233 240.307 32.0621 241.312 32.4345 242.948C32.4717 243.06 32.4345 243.172 32.4345 243.283L176.794 245.329C176.98 244.139 177.837 243.097 179.066 242.837C180.295 242.576 181.487 243.06 182.157 243.99L250.389 203.146C250.315 202.96 250.166 202.774 250.128 202.551C249.756 200.951 250.761 199.314 252.4 198.942C254.039 198.57 255.64 199.575 256.013 201.211C256.087 201.472 256.05 201.732 256.05 201.993L361.936 217.095C362.197 216.054 363.016 215.161 364.134 214.901C365.512 214.603 366.815 215.273 367.411 216.463L476.91 174.056C476.91 174.019 476.873 173.982 476.873 173.982C476.5 172.382 477.506 170.746 479.144 170.374C480.746 170.002 482.385 171.006 482.757 172.643C482.869 173.201 482.794 173.721 482.645 174.205L561.417 207.275C561.827 206.531 562.498 205.936 563.354 205.75C564.695 205.452 565.999 206.122 566.632 207.238L664.1 166.17C664.1 166.096 664.026 166.058 664.026 165.984C663.653 164.385 664.659 162.748 666.298 162.376C667.75 162.041 669.128 162.822 669.687 164.161L797.622 127.595C797.398 126.07 798.329 124.545 799.894 124.21C800.638 124.024 801.383 124.173 802.017 124.545L890.137 5.1364C889.727 4.76442 889.392 4.28084 889.243 3.68565C888.871 2.0861 889.876 0.449355 891.515 0.0773757C893.154 -0.294603 894.755 0.709761 895.128 2.34651C895.165 2.53251 895.128 2.68129 895.128 2.86729L1046.19 15.2173C1046.41 14.1385 1047.27 13.2085 1048.43 12.9109C1050.06 12.5389 1051.67 13.5433 1052.04 15.1801C1052.15 15.6636 1052.11 16.1844 1051.96 16.6308L1177.37 67.6304C1177.78 66.9236 1178.45 66.3656 1179.3 66.1424C1180.94 65.7704 1182.54 66.7748 1182.92 68.4115C1183.1 69.2299 1182.95 70.0483 1182.51 70.6807L1290.03 158.805C1290.4 158.433 1290.85 158.135 1291.37 158.023C1292.97 157.651 1294.61 158.656 1294.98 160.293C1295.06 160.553 1295.02 160.813 1295.02 161.074L1432.16 183.542C1432.45 182.537 1433.24 181.719 1434.32 181.459C1435.95 181.087 1437.56 182.091 1437.93 183.728C1438.3 185.365 1437.3 186.964 1435.66 187.336C1434.87 187.522 1434.09 187.373 1433.42 186.964L1384.59 253.141C1385.04 253.55 1385.41 254.034 1385.56 254.666C1385.93 256.303 1384.93 257.902 1383.29 258.274C1382.21 258.535 1381.13 258.125 1380.42 257.344L1286.38 325.716C1286.53 325.976 1286.68 326.199 1286.75 326.497C1287.13 328.134 1286.12 329.733 1284.48 330.105C1282.84 330.477 1281.24 329.473 1280.87 327.836C1280.76 327.352 1280.79 326.869 1280.91 326.422L1170.62 283.979C1170.22 284.723 1169.54 285.318 1168.65 285.541C1167.2 285.876 1165.75 285.057 1165.22 283.681L1033.94 316.304C1034.12 317.792 1033.19 319.243 1031.67 319.578C1030.62 319.801 1029.62 319.429 1028.91 318.722L921.124 402.382C921.273 402.643 921.422 402.903 921.497 403.238C921.869 404.838 920.864 406.474 919.225 406.846C917.586 407.218 915.985 406.214 915.612 404.577C915.5 404.131 915.538 403.684 915.612 403.275L860.677 387.057C860.341 387.949 859.596 388.693 858.591 388.917C857.325 389.214 856.058 388.656 855.425 387.615L750.619 439.842C750.656 439.953 750.731 440.065 750.768 440.177C751.141 441.776 750.135 443.413 748.496 443.785C746.895 444.157 745.256 443.152 744.884 441.516C744.735 440.958 744.846 440.4 745.033 439.879L623.243 381.068C622.834 381.7 622.2 382.184 621.381 382.37C620.189 382.63 619.035 382.184 618.327 381.291L511.324 445.794C511.398 445.98 511.51 446.128 511.584 446.314C511.957 447.951 510.951 449.551 509.312 449.923C507.711 450.295 506.072 449.29 505.7 447.653C505.551 446.984 505.662 446.352 505.923 445.756L423.166 397.881C422.756 398.439 422.16 398.886 421.416 399.072C419.814 399.444 418.175 398.439 417.803 396.803C417.691 396.319 417.728 395.873 417.84 395.426L297.168 350.565C296.758 351.309 296.088 351.941 295.194 352.127C293.593 352.499 291.954 351.495 291.581 349.858C291.395 349.002 291.581 348.147 292.066 347.477L263.052 322.628L138.954 322.331C138.805 323.558 137.948 324.6 136.682 324.897C135.08 325.269 133.442 324.265 133.069 322.628C132.957 322.145 132.994 321.698 133.106 321.215L6.62413 272.856C6.21444 273.6 5.54408 274.195 4.68746 274.381C3.08595 274.753 1.44719 273.749 1.07474 272.112C0.7023 270.587 1.70785 268.988 3.3466 268.616ZM1432.01 184.137L1294.87 161.632C1294.76 162.004 1294.57 162.376 1294.31 162.673L1380.8 252.769C1381.13 252.508 1381.5 252.322 1381.91 252.248C1382.69 252.062 1383.48 252.211 1384.15 252.62L1432.97 186.443C1432.53 186.034 1432.16 185.551 1432.01 184.918C1431.97 184.658 1432.01 184.397 1432.01 184.137ZM418.361 394.385C418.622 394.013 418.995 393.752 419.367 393.529L393.184 324.414C392.141 324.265 391.285 323.521 390.912 322.517L321.005 342.12L418.361 394.385ZM747.193 437.907C747.528 437.833 747.826 437.833 748.124 437.87L776.616 306.782C775.685 306.447 774.94 305.74 774.679 304.736L702.537 316.825C702.611 318.016 702.015 319.094 700.972 319.652L747.081 437.907C747.118 437.945 747.156 437.907 747.193 437.907ZM857.25 383.076C857.772 382.965 858.293 383.039 858.814 383.188L907.865 271.294C907.307 270.959 906.897 270.438 906.636 269.806L780.526 303.582C780.638 304.438 780.377 305.256 779.856 305.889L856.058 383.671C856.431 383.411 856.84 383.188 857.25 383.076ZM1380.31 253.29L1293.83 163.194C1293.49 163.455 1293.12 163.64 1292.71 163.752C1292.38 163.826 1292.04 163.826 1291.71 163.789L1278.15 232.495C1279.16 232.793 1280.01 233.574 1280.27 234.653C1280.35 234.951 1280.31 235.285 1280.31 235.583L1379.79 254.331C1379.86 253.959 1380.09 253.624 1380.31 253.29ZM1178.15 71.313L1109.39 145.078C1109.69 145.413 1109.95 145.822 1110.07 146.306L1181.72 135.035C1181.61 133.584 1182.54 132.245 1184 131.91C1184.07 131.91 1184.14 131.91 1184.22 131.91L1179.94 71.871C1179.27 71.9082 1178.67 71.685 1178.15 71.313ZM892.893 5.80595L908.647 104.048C910.063 103.974 911.404 104.866 911.739 106.317C911.739 106.354 911.739 106.392 911.739 106.466L980.38 99.6213C980.38 98.8774 980.604 98.245 981.051 97.687L893.899 5.3596C893.638 5.54561 893.265 5.69435 892.893 5.80595ZM803.469 126.814C803.506 127.074 803.544 127.334 803.506 127.558L854.084 143.479L906.226 108.289C906.152 108.14 906.077 107.954 906.003 107.805L803.469 126.814ZM255.603 203.443C255.268 203.927 254.784 204.299 254.225 204.522L286.181 318.164L342.606 245.627L255.603 203.443ZM178.023 248.156C177.502 247.784 177.129 247.301 176.943 246.668L77.7983 269.546C77.7983 269.583 77.7983 269.62 77.7983 269.694L163.535 273.451L178.023 248.156ZM77.7983 270.401C77.7238 270.848 77.5376 271.257 77.2768 271.629L133.926 319.913C134.298 319.541 134.745 319.206 135.304 319.094C135.974 318.946 136.644 319.057 137.203 319.318L163.088 274.121L77.7983 270.401ZM76.9044 272.001C76.5319 272.373 76.085 272.707 75.5264 272.819C73.9249 273.191 72.2861 272.187 71.9136 270.55C71.8764 270.438 71.9136 270.29 71.9136 270.178L66.4014 270.29L129.27 316.602L76.9044 272.001ZM71.8764 269.732C71.8764 269.657 71.8391 269.546 71.8764 269.471L62.4535 267.425L65.7683 269.88L71.8764 269.732ZM206.887 273.526C207.26 273.228 207.632 272.968 208.117 272.856C208.489 272.782 208.861 272.782 209.234 272.819L185.733 251.616L206.887 273.526ZM211.692 275.051C211.692 275.088 211.729 275.088 211.729 275.125C211.878 275.832 211.767 276.539 211.431 277.134L219.7 282.305L211.692 275.051ZM206.627 273.823L181.673 247.97C181.301 248.268 180.928 248.528 180.444 248.64C179.774 248.789 179.14 248.677 178.545 248.417L164.168 273.489L205.845 275.311C205.919 274.753 206.217 274.233 206.627 273.823ZM33.8871 260.878L60.0327 266.533L49.7533 258.981L33.8871 260.544C33.8498 260.655 33.8871 260.767 33.8871 260.878ZM33.8498 259.762L48.8221 258.274L31.6151 245.627C31.2054 246.036 30.7585 246.408 30.1254 246.52C30.0136 246.557 29.9391 246.52 29.8646 246.52L30.7957 257.493C32.211 257.456 33.5146 258.349 33.8498 259.762ZM49.865 258.163L53.5522 257.791L33.8125 246.334L49.865 258.163ZM50.7961 258.87L61.6714 266.905L71.9881 269.136C72.0253 268.95 72.0999 268.802 72.1744 268.653L54.6694 258.498L50.7961 258.87ZM72.3606 268.244C72.7702 267.648 73.4034 267.165 74.1483 266.979C75.6754 266.644 77.1279 267.5 77.612 268.95L174.41 246.631L55.3771 258.386L72.3606 268.244ZM210.314 272.745L211.99 269.955L185.658 250.463L210.314 272.745ZM210.724 273.117L223.536 284.648L276.907 317.941L212.437 270.29L210.724 273.117ZM486.631 371.322C486.929 370.875 487.338 370.578 487.822 370.354L463.614 303.768L447.449 307.935L436.611 344.278L486.631 371.322ZM774.642 304.252C774.605 303.545 774.754 302.876 775.126 302.318L737.211 268.355L701.643 314.965C702.015 315.337 702.351 315.784 702.5 316.342L774.642 304.252ZM906.45 269.099C906.413 268.69 906.413 268.318 906.524 267.946L814.233 231.156L779.26 301.499C779.744 301.834 780.117 302.318 780.34 302.913L906.45 269.099ZM1181.87 135.89C1181.84 135.779 1181.76 135.704 1181.72 135.593L1110.07 146.864C1110.14 147.98 1109.62 149.021 1108.69 149.579L1117.18 168.514L1181.87 135.89ZM801.197 129.976C801.011 130.013 800.825 129.976 800.601 130.013L798.702 178.557C799.447 178.632 800.117 179.004 800.601 179.562L826.449 162.115L802.091 129.566C801.83 129.715 801.532 129.901 801.197 129.976ZM736.727 267.909L678.141 215.421L699.371 314.147C700.004 314.11 700.6 314.221 701.121 314.519L736.727 267.909ZM837.175 181.05L814.94 193.995L827.157 203.592L837.995 181.794C837.66 181.645 837.361 181.384 837.175 181.05ZM836.952 180.603C836.84 180.417 836.728 180.231 836.691 180.008C836.691 179.971 836.691 179.934 836.691 179.896L801.346 181.719C801.309 182.203 801.197 182.649 800.974 183.058L814.531 193.697L836.952 180.603ZM800.452 183.579C800.08 183.951 799.633 184.286 799.037 184.397C798.739 184.472 798.478 184.435 798.218 184.435L794.679 205.192L813.786 194.069L800.452 183.579ZM779.744 216.649L791.29 221.261L793.823 206.308L779.521 214.64C779.633 214.826 779.744 215.012 779.782 215.235C779.893 215.682 779.856 216.165 779.744 216.649ZM779.484 217.318C779.074 218.025 778.404 218.62 777.547 218.806C777.435 218.844 777.286 218.806 777.175 218.806L777.845 300.532L791.179 221.968L779.484 217.318ZM779.335 214.157L793.935 205.638L797.547 184.323C797.361 184.249 797.138 184.211 796.951 184.1L778.59 213.45C778.888 213.673 779.111 213.896 779.335 214.157ZM842.576 178.855L945.892 173.535C945.892 173.424 945.855 173.349 945.892 173.238L869.057 149.021L841.905 177.404C842.203 177.776 842.464 178.185 842.576 178.669C842.576 178.706 842.539 178.78 842.576 178.855ZM840.304 182.277C839.745 182.426 839.187 182.314 838.665 182.128L827.753 204.076L907.344 266.607C907.344 266.607 907.344 266.607 907.381 266.57L841.235 181.868C840.9 182.017 840.639 182.203 840.304 182.277ZM906.822 267.128L827.38 204.745L814.568 230.524L906.785 267.276C906.785 267.239 906.822 267.165 906.822 267.128ZM826.784 204.299L814.196 194.441L794.568 205.861L791.923 221.522L813.898 230.264L826.784 204.299ZM791.812 222.229L778.441 301.127C778.478 301.165 778.553 301.165 778.59 301.202L813.562 230.896L791.812 222.229ZM776.914 301.09C777.026 301.053 777.174 301.09 777.286 301.09L776.616 218.881C776.169 218.844 775.722 218.732 775.312 218.509L737.695 267.797L775.647 301.797C776.02 301.462 776.43 301.202 776.914 301.09ZM774.828 218.025C774.418 217.616 774.083 217.17 773.934 216.574C773.897 216.351 773.934 216.128 773.934 215.905L676.205 206.345L677.881 214.157L737.211 267.314L774.828 218.025ZM677.136 214.529L669.203 207.424C668.979 207.61 668.681 207.796 668.383 207.907L697.062 307.116L677.136 214.529ZM670.208 205.006C670.208 205.043 670.208 205.117 670.208 205.154L675.236 205.638L674.901 204.15L670.208 205.006ZM670.208 205.75C670.134 206.159 669.948 206.531 669.724 206.828L676.875 213.227L675.385 206.233L670.208 205.75ZM661.828 215.198L607.824 307.935L609.537 311.878L612.815 312.064L661.828 215.198ZM448.529 197.38L422.347 257.047L453.148 278.287C453.558 277.841 454.079 277.432 454.712 277.283C454.787 277.283 454.861 277.283 454.936 277.283L449.907 196.338L448.529 197.38ZM370.949 256.266C371.098 256.526 371.247 256.786 371.322 257.084C371.396 257.493 371.396 257.865 371.359 258.237L376.089 259.465L374.45 253.625L370.949 256.266ZM394.525 318.611L415.717 270.29L376.946 260.246L393.184 318.499C393.668 318.425 394.115 318.499 394.525 318.611ZM452.738 278.808L422.086 257.642L416.686 269.955L452.589 279.217C452.626 279.106 452.664 278.957 452.738 278.808ZM452.775 281.672C452.626 281.449 452.515 281.189 452.44 280.928C452.366 280.519 452.366 280.147 452.403 279.775L416.462 270.476L395.233 318.871C395.531 319.057 395.829 319.318 396.052 319.578L452.775 281.672ZM376.275 260.097L371.173 258.758C370.912 259.465 370.465 260.023 369.795 260.357L371.806 265.714L391.992 316.565L376.275 260.097ZM376.797 259.651L415.978 269.769L421.49 257.233L394.376 238.522L375.009 253.215L376.797 259.651ZM421.714 256.638L447.338 198.31L394.897 238.113L421.714 256.638ZM509.089 291.195L538.326 283.644C538.326 283.57 538.326 283.495 538.326 283.458L459.144 280.668L509.089 291.195ZM602.312 310.911L564.769 294.06L598.96 310.204L602.312 310.911ZM606.856 309.534C607.414 309.943 607.861 310.501 608.01 311.245C608.047 311.431 608.01 311.617 608.01 311.803L608.792 311.841L607.377 308.604L606.856 309.534ZM609.053 312.399L608.048 312.361C607.973 312.808 607.824 313.18 607.601 313.552L608.755 314.37C608.979 314.073 609.276 313.849 609.612 313.626L609.053 312.399ZM608.494 314.742C608.532 314.705 608.532 314.631 608.569 314.593L607.414 313.775C607.34 313.887 607.228 313.998 607.116 314.11L608.494 314.742ZM602.126 311.692L601.977 311.655L602.126 311.729C602.126 311.692 602.126 311.692 602.126 311.692ZM596.8 309.757L543.875 284.797C543.764 284.983 543.577 285.169 543.428 285.355L556.576 301.276L596.8 309.757ZM542.907 285.764C542.609 285.95 542.311 286.099 541.976 286.211C541.305 286.359 540.672 286.248 540.076 285.987L533.968 296.478L555.496 301.016L542.907 285.764ZM539.518 285.69C539.071 285.355 538.736 284.909 538.512 284.388L510.765 291.567L533.335 296.329L539.518 285.69ZM543.95 282.044C544.024 282.23 544.136 282.379 544.21 282.602C544.359 283.198 544.248 283.756 544.061 284.276L602.498 310.464C602.759 309.943 603.206 309.571 603.727 309.274L583.205 257.679L543.95 282.044ZM609.798 312.473L610.208 313.403C610.282 313.366 610.357 313.329 610.431 313.291C611.027 313.143 611.586 313.254 612.144 313.44L612.591 312.585L609.798 312.473ZM608.308 315.189L606.669 314.407C606.446 314.556 606.222 314.631 605.999 314.705L606.707 317.83L608.271 317.123C608.234 317.048 608.196 316.974 608.159 316.9C608.01 316.304 608.122 315.746 608.308 315.189ZM602.163 312.287L599.854 311.208L557.358 302.206L577.209 326.237L602.349 312.994C602.312 312.845 602.2 312.771 602.163 312.622C602.126 312.473 602.163 312.399 602.163 312.287ZM507.413 291.642L458.176 281.226C457.915 281.97 457.394 282.565 456.686 282.9L463.949 302.876L507.413 291.642ZM456.09 283.123C456.053 283.123 456.053 283.16 456.016 283.16C455.606 283.272 455.196 283.272 454.787 283.198L447.673 307.079L463.316 303.025L456.09 283.123ZM454.191 282.937C453.744 282.751 453.334 282.491 452.999 282.082L396.238 319.987C396.313 320.099 396.35 320.21 396.387 320.322L446.928 307.265L454.191 282.937ZM370.502 255.708L370.689 255.559L374.227 252.769L365.288 220.704L365.251 220.704L368.305 254.852C369.162 254.778 369.944 255.112 370.502 255.708ZM564.695 211.515C564.248 211.627 563.801 211.59 563.391 211.515L542.386 280.556C542.87 280.742 543.279 281.003 543.615 281.412L582.982 257.01L564.881 211.441C564.769 211.478 564.732 211.515 564.695 211.515ZM669.985 204.038C670.022 204.15 670.06 204.224 670.097 204.299L674.752 203.443L674.305 201.472L669.985 204.038ZM801.011 180.157C801.123 180.38 801.272 180.566 801.309 180.826C801.309 180.864 801.309 180.938 801.309 180.975L836.654 179.152C836.691 178.371 837.064 177.627 837.659 177.106L826.896 162.673L801.011 180.157ZM869.615 148.389L946.153 172.494C946.376 172.047 946.637 171.601 947.084 171.303L910.137 109.591C909.951 109.702 909.765 109.814 909.541 109.851C908.61 110.074 907.716 109.777 907.046 109.256L869.615 148.389ZM910.584 109.405L947.531 171.117C947.717 171.006 947.903 170.894 948.126 170.82C948.722 170.671 949.281 170.783 949.802 170.969L967.978 131.873L911.403 108.437C911.217 108.809 910.919 109.144 910.584 109.405ZM983.993 102.486C983.397 102.634 982.838 102.523 982.317 102.337L968.797 131.426L1028.98 156.387L984.924 102.076C984.663 102.262 984.365 102.411 983.993 102.486ZM1030.32 156.908L1039.3 160.627C1039.38 160.479 1039.49 160.367 1039.6 160.255C1039.64 160.218 1039.67 160.144 1039.67 160.107L989.021 106.02L1030.32 156.908ZM1043.21 164.756C1042.99 164.868 1042.8 164.98 1042.58 165.054C1042.43 165.091 1042.24 165.054 1042.09 165.054L1041.68 170.894L1060.23 193.772L1043.21 164.756ZM1041.27 165.054C1040.16 164.831 1039.23 163.975 1038.93 162.785C1038.93 162.785 1038.93 162.785 1038.93 162.748L1035.39 163.194L1040.9 169.964L1041.27 165.054ZM1038.93 162.19C1038.93 161.892 1038.93 161.595 1039 161.334L1031.29 158.135L1034.98 162.673L1038.93 162.19ZM1105 149.059C1104.7 148.724 1104.48 148.352 1104.33 147.943L1049.51 160.59C1049.73 162.115 1048.76 163.603 1047.23 163.938C1046.3 164.161 1045.41 163.864 1044.7 163.343C1044.63 163.454 1044.55 163.529 1044.44 163.641C1044.22 164.012 1043.92 164.347 1043.55 164.608L1060.83 194.069C1061.05 193.958 1061.24 193.846 1061.46 193.772C1062.39 193.548 1063.25 193.809 1063.96 194.367L1105 149.059ZM1034.2 162.785L1029.99 157.577L968.499 132.096L950.324 171.192C951.032 171.601 951.553 172.271 951.777 173.126C951.777 173.126 951.777 173.126 951.777 173.163L1034.2 162.785ZM698.477 314.37L667.788 208.13C667.266 208.205 666.745 208.13 666.26 207.982L613.597 312.138L696.689 316.676C696.801 315.635 697.509 314.779 698.477 314.37ZM556.278 301.983L533.521 297.184L490.802 370.615C491.063 370.801 491.323 371.061 491.51 371.322L576.539 326.534L556.278 301.983ZM488.418 370.057C489.089 369.908 489.722 370.02 490.318 370.28L532.925 296.998L509.089 291.939L464.172 303.545L488.344 370.02C488.381 370.094 488.381 370.094 488.418 370.057ZM392.365 318.797L382.272 293.427L391.955 318.983C392.104 318.908 392.253 318.871 392.365 318.797ZM365.847 259.316C365.698 259.056 365.512 258.758 365.437 258.46C365.288 257.902 365.4 257.344 365.586 256.824L348.714 248.64L327.373 288.554L365.847 259.316ZM365.884 220.48L374.748 252.323L393.221 237.703L367.039 219.625C366.741 220.034 366.331 220.294 365.884 220.48ZM447.934 196.934L448.455 195.78C448.232 195.632 448.045 195.446 447.859 195.26L394.376 237.592L447.934 196.934ZM453.073 193.92L452.738 194.181C452.626 194.478 452.477 194.739 452.291 194.999L470.392 212.855L474.079 196.748L453.073 193.92ZM451.844 195.52C451.509 195.78 451.099 196.004 450.652 196.115C450.578 196.152 450.503 196.115 450.429 196.115L455.457 277.283C455.531 277.283 455.643 277.283 455.718 277.283L470.243 213.673L451.844 195.52ZM456.314 277.432C456.835 277.618 457.282 277.878 457.617 278.287L504.433 247.412L470.727 214.157L456.314 277.432ZM457.99 278.92C458.101 279.143 458.213 279.329 458.287 279.552C458.325 279.738 458.287 279.887 458.287 280.073L538.289 282.9C538.363 282.342 538.587 281.858 538.922 281.449L504.955 247.933L457.99 278.92ZM539.406 280.966C539.443 280.928 539.481 280.891 539.518 280.854L516.799 240.159L505.551 247.561L539.406 280.966ZM540.151 280.556C540.3 280.482 540.449 280.408 540.598 280.37C541.045 280.259 541.492 280.296 541.901 280.37L562.944 211.329C562.497 211.143 562.088 210.883 561.79 210.511L517.395 239.787L540.151 280.556ZM583.466 256.675L584.435 256.08L571.287 226.023L583.466 256.675ZM583.764 257.382L604.286 309.051C604.323 309.051 604.36 309.014 604.398 309.014C604.882 308.902 605.403 308.939 605.85 309.088L606.707 307.079L584.732 256.824L583.764 257.382ZM607.079 306.224L643.206 220.555L585.328 256.452L607.079 306.224ZM607.675 306.782L665.478 207.535C665.292 207.386 665.106 207.238 664.957 207.052L644.361 219.811L607.675 306.782ZM669.613 203.332L674.156 200.691L667.154 168.179C667.154 168.179 667.154 168.179 667.117 168.179L667.378 202.253C668.309 202.253 669.091 202.662 669.613 203.332ZM675.05 201.063L675.534 203.332L728.198 193.846L705.367 183.319L675.05 201.063ZM675.683 204.001L676.056 205.712L773.934 215.273C773.972 215.161 774.009 215.049 774.046 214.938L729.278 194.292L675.683 204.001ZM774.307 214.343C774.716 213.673 775.387 213.152 776.206 212.966C776.616 212.855 776.988 212.855 777.361 212.929L784.996 184.286L730.433 194.144L774.307 214.343ZM777.882 213.115C778.031 213.152 778.143 213.189 778.255 213.264L796.616 183.914C796.095 183.542 795.722 183.021 795.499 182.352L785.555 184.137L777.882 213.115ZM795.424 181.682C795.424 181.608 795.424 181.57 795.424 181.496L786.597 180.417L785.778 183.43L795.424 181.682ZM795.499 180.789C795.759 179.71 796.579 178.855 797.696 178.557C797.882 178.52 798.069 178.557 798.255 178.557L800.154 130.013C800.08 130.013 800.043 130.013 799.968 130.013L786.746 179.71L795.499 180.789ZM827.268 162.413L838.032 176.809C838.293 176.623 838.591 176.474 838.926 176.4C839.857 176.177 840.751 176.474 841.421 176.995L868.349 148.835L854.047 144.334L827.268 162.413ZM868.982 148.203L906.524 108.958L854.904 143.776L868.982 148.203ZM911.701 107.768L968.35 131.24L981.87 102.151C981.162 101.742 980.641 101.072 980.417 100.254C980.417 100.217 980.417 100.179 980.417 100.105L911.776 106.912C911.776 107.21 911.776 107.47 911.701 107.768ZM985.557 101.518L1040.05 159.735C1040.46 159.325 1040.9 158.991 1041.5 158.879C1041.65 158.842 1041.8 158.879 1041.95 158.879L1043.66 123.094L986.004 100.961C985.855 101.147 985.706 101.332 985.557 101.518ZM1042.65 158.842C1043.14 158.916 1043.58 159.177 1043.99 159.474C1044.4 158.805 1045.07 158.321 1045.89 158.098C1047.42 157.726 1048.91 158.656 1049.39 160.144L1104.22 147.496C1104.14 147.087 1104.18 146.715 1104.26 146.343L1044.33 123.354L1042.65 158.842ZM1108.02 149.877C1107.94 149.914 1107.91 149.951 1107.83 149.951C1106.9 150.175 1106.04 149.914 1105.34 149.356L1064.29 194.59C1064.4 194.702 1064.52 194.813 1064.63 194.962L1116.51 168.774L1108.02 149.877ZM1060.05 194.59L1041.57 171.861L1040.16 191.874L1059.3 195.743C1059.49 195.334 1059.71 194.925 1060.05 194.59ZM1040.87 170.969L1034.65 163.306L951.777 173.684C951.777 173.796 951.814 173.907 951.777 174.056L1039.41 191.763L1040.87 170.969ZM945.892 174.428C945.892 174.391 945.892 174.317 945.892 174.279L842.576 179.599C842.501 180.306 842.166 180.938 841.682 181.459L907.828 266.16C908.089 266.012 908.387 265.826 908.722 265.751C909.243 265.64 909.765 265.677 910.249 265.826L947.419 176.362C946.674 175.991 946.078 175.321 945.892 174.428ZM613.262 312.659L612.703 313.738C613.336 314.147 613.82 314.779 614.007 315.56C614.044 315.709 614.007 315.858 614.007 316.007L687.155 316.714L613.262 312.659ZM608.569 317.792L606.893 318.574L619.556 373.33L611.325 319.169C610.17 319.243 609.128 318.722 608.569 317.792ZM619.817 376.604L606.446 318.797L580.859 330.7L619.072 376.939C619.295 376.79 619.556 376.678 619.817 376.604ZM606.26 318.09L605.515 314.854C604.36 315.04 603.243 314.556 602.61 313.626L577.619 326.795L580.375 330.142L606.26 318.09ZM577.023 327.092L501.901 366.634L579.742 330.403L577.023 327.092ZM446.705 308.121L396.648 321.066C396.722 321.587 396.648 322.07 396.425 322.554L436.015 343.943L446.705 308.121ZM396.164 323.112C395.866 323.558 395.419 323.856 394.935 324.116L418.101 387.949L420.075 393.194C420.075 393.194 420.075 393.194 420.112 393.194C420.522 393.083 420.931 393.083 421.341 393.157L435.866 344.538L396.164 323.112ZM394.451 324.339C394.413 324.339 394.376 324.377 394.339 324.377C394.227 324.414 394.115 324.377 394.004 324.377L404.879 353.131L394.451 324.339ZM391.396 319.578L369.087 260.692C369.087 260.692 369.087 260.692 369.05 260.692C368.23 260.878 367.411 260.729 366.741 260.283L317.094 321.773L390.689 321.178C390.763 320.545 391.024 320.024 391.396 319.578ZM366.294 259.837C366.257 259.799 366.256 259.8 366.219 259.762L326.666 289.819L309.57 321.81L316.237 321.736L366.294 259.837ZM295.567 346.473L302.68 333.156L288.229 325.381L294.114 346.287C294.598 346.212 295.12 346.287 295.567 346.473ZM303.053 332.449L308.379 322.442L287.447 322.628L287.931 324.339L303.053 332.449ZM286.665 322.628L286.367 322.628C286.33 322.889 286.255 323.149 286.181 323.372L287 323.819L286.665 322.628ZM283.015 319.429C283.723 319.355 284.393 319.466 284.952 319.801L285.622 318.946L259.812 227.139L283.015 319.429ZM285.473 320.248C285.511 320.285 285.548 320.285 285.548 320.322L285.92 320.062L285.846 319.801L285.473 320.248ZM285.957 320.806C286.106 321.066 286.293 321.364 286.367 321.661C286.404 321.773 286.367 321.884 286.367 321.996L286.479 321.996L286.106 320.657L285.957 320.806ZM287.261 321.996L308.714 321.81L325.213 290.935L286.74 320.173L287.261 321.996ZM309.273 322.442L303.723 332.821L306.256 334.197L315.79 322.405L309.273 322.442ZM303.351 333.528L296.609 346.138L305.734 334.83L303.351 333.528ZM287.261 324.897L285.808 324.116C285.511 324.525 285.138 324.823 284.691 325.046L292.885 344.836L287.261 324.897ZM349.05 248.007L365.847 256.154C366.257 255.522 366.89 255.038 367.709 254.815C367.784 254.815 367.858 254.815 367.933 254.815L364.878 220.704C364.469 220.704 364.134 220.666 363.761 220.518L349.05 248.007ZM474.228 196.152L478.847 175.991C478.4 175.842 478.027 175.581 477.692 175.247L453.818 193.362L474.228 196.152ZM667.936 167.993L674.864 200.244L704.473 182.872L669.501 166.765C669.166 167.323 668.607 167.77 667.936 167.993ZM802.463 129.269L826.821 161.855L853.19 144.037L803.171 128.264C803.022 128.674 802.799 129.008 802.463 129.269ZM1167.27 279.701C1167.5 279.664 1167.68 279.701 1167.91 279.701L1183.92 137.787C1183.18 137.601 1182.54 137.192 1182.13 136.56L1117.44 169.183L1167.05 279.812C1167.16 279.775 1167.24 279.701 1167.27 279.701ZM281.265 320.322C281.563 319.987 281.935 319.764 282.382 319.578L253.48 204.745C252.884 204.82 252.326 204.708 251.804 204.485L212.772 269.694L281.265 320.322ZM286.442 319.02L286.591 319.541L325.958 289.633L348.081 248.268L343.314 245.962L286.442 319.02ZM348.379 247.673L362.458 221.373L343.724 245.441L348.379 247.673ZM367.746 217.17C367.895 217.876 367.746 218.583 367.411 219.178L393.706 237.331L447.449 194.813C447.338 194.664 447.3 194.478 447.226 194.292L367.746 217.17ZM452.924 193.139L472.18 178.52L452.552 191.688C452.701 191.949 452.85 192.209 452.924 192.507C452.962 192.73 452.924 192.953 452.924 193.139ZM480.485 176.139C480.15 176.214 479.778 176.214 479.442 176.177L474.861 196.264L493.67 198.793L480.932 175.953C480.783 175.991 480.634 176.102 480.485 176.139ZM474.712 196.859L470.951 213.413L505.067 247.04L516.463 239.526L494.079 199.463L474.712 196.859ZM517.022 239.154L561.38 209.916C561.268 209.693 561.157 209.507 561.082 209.246C561.008 208.986 561.045 208.763 561.045 208.502L494.899 199.575L517.022 239.154ZM565.477 211.143L584.956 255.745L643.653 219.364L649.24 206.084L566.93 208.8C566.892 209.767 566.371 210.66 565.477 211.143ZM644.845 218.62L664.547 206.382C664.473 206.196 664.361 206.047 664.287 205.824C664.249 205.712 664.287 205.638 664.287 205.526L650.134 206.01L644.845 218.62ZM664.287 204.968C664.361 203.666 665.255 202.551 666.559 202.253C666.707 202.216 666.856 202.253 667.005 202.253L666.745 168.179C666.521 168.179 666.335 168.142 666.149 168.104L650.394 205.452L664.287 204.968ZM669.724 166.133L705.181 182.463L722.313 172.419L669.799 165.91C669.799 166.021 669.761 166.058 669.724 166.133ZM706.038 182.872L729.315 193.586L785.182 183.505L786.039 180.306L723.58 172.568L706.038 182.872ZM786.225 179.636L799.484 129.827C798.962 129.641 798.478 129.343 798.143 128.897L724.585 172.01L786.225 179.636ZM986.228 100.291L1043.66 122.313L1048.57 18.6768C1048.2 18.6024 1047.83 18.4536 1047.49 18.2676L985.408 97.4266C985.818 97.8358 986.153 98.2822 986.302 98.8774C986.376 99.361 986.339 99.8445 986.228 100.291ZM1049.73 18.6395C1049.58 18.6767 1049.43 18.6395 1049.28 18.6395L1044.37 122.573L1104.52 145.636C1104.78 145.153 1105.15 144.781 1105.6 144.483L1049.88 18.5279C1049.88 18.6023 1049.8 18.6395 1049.73 18.6395ZM1186.9 136.783L1275.58 232.867C1275.91 232.644 1276.25 232.458 1276.66 232.384C1276.99 232.31 1277.33 232.31 1277.67 232.347L1291.22 163.64C1290.22 163.343 1289.36 162.562 1289.1 161.483C1289.02 161.111 1289.02 160.739 1289.06 160.404L1187.42 135.853C1187.31 136.188 1187.16 136.523 1186.9 136.783ZM1275.1 233.388L1186.42 137.304C1186.12 137.527 1185.75 137.713 1185.34 137.787C1185.11 137.825 1184.93 137.787 1184.7 137.787L1168.69 279.701C1169.47 279.887 1170.14 280.408 1170.55 281.114L1274.5 236.141C1274.46 236.067 1274.43 235.992 1274.43 235.955C1274.2 235.025 1274.5 234.095 1275.1 233.388ZM1166.42 280.073L1116.81 169.481L1064.93 195.631C1064.96 195.743 1065.04 195.817 1065.07 195.966C1065.26 196.785 1065.11 197.603 1064.7 198.235L1165.93 280.445C1166.08 280.333 1166.23 280.184 1166.42 280.073ZM1059.23 197.343C1059.15 197.008 1059.19 196.71 1059.19 196.413L1040.12 192.544L1031.63 312.771L1061.09 199.426C1060.19 199.091 1059.45 198.347 1059.23 197.343ZM1030.29 313.738C1030.47 313.701 1030.62 313.738 1030.77 313.738L1039.34 192.395L951.627 174.651C951.329 175.619 950.547 176.437 949.504 176.697C948.983 176.809 948.462 176.735 947.978 176.586L910.808 266.049C911.553 266.458 912.111 267.128 912.335 267.983C912.446 268.467 912.409 268.95 912.26 269.434L1028.35 315.226C1028.76 314.519 1029.43 313.961 1030.29 313.738ZM696.652 317.346L614.044 316.528C613.932 317.755 613.038 318.834 611.772 319.169L620.487 376.492C621.381 376.418 622.238 376.753 622.834 377.385L697.099 318.685C696.913 318.388 696.764 318.09 696.689 317.755C696.652 317.606 696.652 317.495 696.652 317.346ZM618.588 377.385L580.226 330.998L491.882 372.103C491.919 372.177 491.957 372.251 491.994 372.326C492.031 372.475 491.994 372.623 491.994 372.809L617.694 378.947C617.843 378.352 618.178 377.831 618.588 377.385ZM486.37 371.88L436.425 344.873L421.937 393.38C422.645 393.678 423.166 394.199 423.501 394.943L486.184 373.702C486.184 373.702 486.184 373.665 486.146 373.665C485.997 373.07 486.109 372.437 486.37 371.88ZM390.763 321.959C390.763 321.884 390.763 321.847 390.763 321.773L316.647 322.368L306.889 334.458L320.297 341.674L390.763 321.959ZM306.33 335.127L296.609 347.142C296.907 347.44 297.094 347.775 297.243 348.147L319.142 342.009L306.33 335.127ZM293.257 346.547L284.393 325.121C284.282 325.158 284.207 325.232 284.095 325.269C282.494 325.641 280.855 324.637 280.483 323.037C280.445 322.926 280.483 322.814 280.483 322.74L265.696 322.703L292.587 346.956C292.773 346.808 292.997 346.696 293.257 346.547ZM280.445 321.959C280.482 321.624 280.594 321.289 280.743 320.992L225.808 286.731L264.84 321.922L280.445 321.959ZM205.845 276.018L163.721 274.158L137.687 319.578C137.948 319.764 138.171 319.95 138.358 320.173L206.143 277.134C206.031 276.911 205.882 276.725 205.845 276.465C205.845 276.316 205.882 276.167 205.845 276.018ZM65.2469 270.401L49.1573 270.773L130.536 318.462L65.2469 270.401ZM64.6138 269.918L60.7776 267.091L33.7381 261.25C33.7008 261.399 33.6636 261.511 33.5891 261.622L48.338 270.29L64.6138 269.918ZM33.2912 262.217C32.8815 262.775 32.3228 263.222 31.578 263.371C30.1999 263.705 28.859 262.961 28.2259 261.734L6.77314 270.587C6.81038 270.699 6.8849 270.773 6.92215 270.885C6.95939 270.996 6.92215 271.108 6.92215 271.257L47.0717 270.327L33.2912 262.217ZM222.046 284.388L211.99 278.101L263.164 321.922L263.685 321.922L222.046 284.388ZM6.66141 270.252L28.1141 261.399C28.0769 261.287 28.0025 261.213 27.9652 261.101C27.5928 259.502 28.5983 257.865 30.2371 257.493C30.3488 257.456 30.4234 257.493 30.5351 257.493L29.604 246.52C28.8591 246.557 28.1886 246.334 27.6672 245.887L6.17722 269.471C6.36344 269.732 6.54968 269.955 6.66141 270.252ZM32.1366 244.883L54.2598 257.716L172.958 245.999L32.4345 244.027C32.3973 244.325 32.2856 244.622 32.1366 244.883ZM182.343 247.226L212.325 269.397L251.32 204.262C251.059 204.076 250.836 203.89 250.65 203.629L182.418 244.474C182.53 244.66 182.641 244.846 182.679 245.069C182.865 245.813 182.716 246.594 182.343 247.226ZM255.864 202.811L343.053 245.106L362.681 219.848C362.271 219.476 361.973 218.992 361.824 218.434C361.75 218.174 361.787 217.914 361.787 217.653L255.901 202.588C255.938 202.625 255.901 202.737 255.864 202.811ZM447.04 193.772C446.742 192.209 447.71 190.647 449.312 190.275C450.503 190.015 451.695 190.461 452.366 191.391L477.133 174.8L477.245 174.689C477.208 174.651 477.208 174.614 477.208 174.577L371.322 215.607L447.04 193.772ZM481.528 175.656L494.526 198.905L561.119 207.87C561.119 207.796 561.157 207.758 561.194 207.721L482.422 174.614C482.198 174.986 481.938 175.358 481.528 175.656ZM566.967 208.168L649.538 205.452L665.404 167.807C664.957 167.546 664.585 167.137 664.324 166.654L566.855 207.721C566.892 207.796 566.93 207.833 566.93 207.907C566.967 207.982 566.93 208.093 566.967 208.168ZM669.873 165.24L723.319 171.861L797.771 128.227L669.873 164.757C669.911 164.905 669.873 165.054 669.873 165.24ZM803.357 126.219L905.854 107.21C905.742 105.796 906.636 104.457 908.014 104.085L892.26 5.84315C891.701 5.88035 891.142 5.76878 890.658 5.50838L802.538 124.917C802.948 125.289 803.208 125.698 803.357 126.219ZM894.383 4.80159L981.535 97.129C981.87 96.9058 982.242 96.7199 982.652 96.6083C983.471 96.4222 984.291 96.5711 984.924 96.9802L1047.01 17.8211C1046.6 17.412 1046.27 16.9656 1046.12 16.3704C1046.08 16.1844 1046.12 16.0356 1046.12 15.8496L895.053 3.53682C894.941 4.0204 894.718 4.42961 894.383 4.80159ZM1050.59 18.2676L1106.3 144.223C1106.38 144.186 1106.42 144.148 1106.49 144.148C1107.38 143.925 1108.28 144.186 1108.95 144.706L1177.7 70.9411C1177.4 70.5691 1177.11 70.1599 1176.99 69.6763C1176.88 69.1927 1176.92 68.7091 1177.07 68.2255L1051.67 17.226C1051.44 17.6352 1051.07 18.0072 1050.59 18.2676ZM1180.61 71.871C1180.53 71.9082 1180.46 71.871 1180.38 71.871L1184.67 131.91C1186.01 131.91 1187.27 132.803 1187.57 134.179C1187.65 134.551 1187.65 134.923 1187.61 135.258L1289.25 159.809C1289.32 159.586 1289.36 159.363 1289.47 159.214L1181.95 71.0899C1181.61 71.4618 1181.17 71.7594 1180.61 71.871ZM1379.64 254.926L1280.16 236.141C1279.86 237.145 1279.08 237.964 1278 238.224C1277.93 238.224 1277.89 238.224 1277.81 238.224L1283.89 324.042C1284.7 324.079 1285.45 324.414 1286.01 325.009L1380.05 256.638C1379.9 256.377 1379.75 256.154 1379.68 255.856C1379.6 255.559 1379.64 255.224 1379.64 254.926ZM1283.14 324.079C1283.21 324.079 1283.25 324.079 1283.33 324.079L1277.29 238.261C1276.25 238.224 1275.32 237.703 1274.8 236.773L1170.81 281.747C1170.85 281.821 1170.89 281.858 1170.89 281.933C1171 282.416 1170.96 282.9 1170.85 283.346L1281.17 325.641C1281.58 324.897 1282.25 324.302 1283.14 324.079ZM1165.41 281.003L1064.18 198.793C1063.81 199.165 1063.36 199.463 1062.8 199.575C1062.43 199.649 1062.06 199.649 1061.72 199.612L1032.04 313.887C1032.82 314.184 1033.42 314.779 1033.75 315.598L1165.04 282.937C1164.96 282.268 1165.08 281.598 1165.41 281.003ZM1028.09 315.895L911.999 270.104C911.59 270.848 910.919 271.443 910.063 271.629C910.025 271.629 909.988 271.629 909.951 271.629L918.741 400.969C919.486 401.006 920.156 401.304 920.677 401.825L1028.46 318.202C1028.31 317.941 1028.16 317.681 1028.09 317.383C1027.94 316.862 1027.98 316.379 1028.09 315.895ZM917.884 400.969C917.921 400.969 917.959 400.969 917.996 400.969L909.206 271.629C908.945 271.629 908.722 271.554 908.499 271.517L859.41 383.411C860.118 383.82 860.639 384.49 860.825 385.308C860.937 385.755 860.9 386.201 860.825 386.61L915.761 402.829C916.133 401.973 916.878 401.229 917.884 400.969ZM855.649 384.155L779.446 306.372C779.111 306.633 778.739 306.856 778.292 306.968C777.957 307.042 777.659 307.005 777.361 307.005L748.869 438.093C749.502 438.317 750.023 438.689 750.396 439.247L855.202 387.057C855.164 386.945 855.09 386.833 855.053 386.722C854.792 385.755 855.09 384.825 855.649 384.155ZM745.331 439.209C745.591 438.8 746.001 438.465 746.448 438.242L700.339 319.987C700.302 319.987 700.302 320.024 700.265 320.024C699.185 320.285 698.179 319.876 697.471 319.169L623.206 377.868C623.392 378.166 623.541 378.464 623.616 378.798C623.765 379.356 623.653 379.914 623.467 380.435L745.331 439.209ZM617.768 379.617L492.068 373.479C491.882 374.521 491.137 375.376 490.094 375.748L508.121 444.008C509.238 443.822 510.318 444.268 510.988 445.124L617.992 380.621C617.917 380.435 617.806 380.286 617.731 380.1C617.731 379.952 617.768 379.803 617.768 379.617ZM506.221 445.236C506.556 444.752 507.04 444.417 507.636 444.194L489.61 375.934C488.232 376.157 486.929 375.413 486.407 374.186L423.725 395.389C423.725 395.426 423.725 395.426 423.762 395.426C423.911 396.096 423.799 396.728 423.538 397.323L506.221 445.236ZM319.924 342.418L297.466 348.705C297.54 349.114 297.503 349.523 297.429 349.932L415.792 393.901L319.924 342.418ZM264.505 322.703L264.021 322.703L273.667 330.961L264.505 322.703ZM210.835 277.953C210.463 278.325 210.016 278.622 209.495 278.734C208.303 278.994 207.148 278.548 206.441 277.618L138.618 320.694C138.73 320.917 138.879 321.103 138.916 321.364C138.954 321.475 138.916 321.55 138.916 321.661L262.158 321.922L210.835 277.953ZM47.891 270.773L6.95932 271.703C6.95932 271.889 6.92211 272.075 6.88487 272.224L132.175 320.136L47.891 270.773Z" fill="white" fill-opacity="0.25"/>
</svg>
