<svg width="409" height="284" viewBox="0 0 409 284" fill="none" xmlns="http://www.w3.org/2000/svg">
<path opacity="0.3" d="M119.97 132.45L137.85 122.13C139.61 121.12 142.46 121.12 144.22 122.13L193.57 150.62C195.33 151.63 195.33 153.28 193.57 154.3L175.69 164.62C173.93 165.63 171.08 165.63 169.32 164.62L119.97 136.13C118.21 135.11 118.21 133.47 119.97 132.45Z" fill="#173D7A"/>
<path opacity="0.3" d="M151.89 113.63L169.77 103.31C171.53 102.3 174.38 102.3 176.14 103.31L225.49 131.8C227.25 132.81 227.25 134.46 225.49 135.48L207.61 145.8C205.85 146.81 203 146.81 201.24 145.8L151.89 117.31C150.14 116.29 150.14 114.64 151.89 113.63Z" fill="#173D7A"/>
<path opacity="0.3" d="M43.5 252.16L101.27 219.22C103.38 218 103.12 215.87 100.68 214.46L67.44 195.27C65 193.86 61.31 193.71 59.2 194.93L1.43002 227.87C-0.679976 229.09 -0.419976 231.22 2.02002 232.63L35.26 251.82C37.7 253.23 41.39 253.38 43.5 252.16Z" fill="#173D7A"/>
<path d="M151.3 102.32C148.19 104.12 148.19 107.04 151.3 108.83L204.16 139.35C205.01 139.84 206.4 139.84 207.26 139.35C208.11 138.86 208.11 138.06 207.26 137.56L154.4 107.04C153 106.23 153 104.91 154.4 104.1L159.52 101.14C158.95 100.28 158.43 99.39 157.93 98.48L151.3 102.32Z" fill="#D4ECFF"/>
<path d="M226.16 126.64L173.3 96.12C170.19 94.32 165.13 94.32 162.02 96.12L157.92 98.49C158.43 99.4 158.94 100.29 159.51 101.15L165.11 97.91C166.51 97.1 168.79 97.1 170.2 97.91L223.06 128.43C223.91 128.92 225.3 128.92 226.16 128.43C227.02 127.93 227.02 127.13 226.16 126.64Z" fill="#5793CE"/>
<path d="M226.8 127.6V53.27L171.41 22.4L163.67 21.88L156.18 26.74L151.58 30.74L205.55 116.32L223.17 126.7L226.8 127.6Z" fill="#5793CE"/>
<path d="M206.31 136.98L222.87 127.42V55.59L205.8 63.53L206.31 136.98Z" fill="#79B1E0"/>
<path d="M148.97 31.3099V105.51L207.12 138.77L207.89 138.46V64.1499L148.97 31.3099Z" fill="#D4ECFF"/>
<path d="M181.68 31.9299L170.12 25.2899C168.71 24.6399 166.65 24.6799 165.34 25.4299L154.61 31.6199C153.78 32.0999 153.44 32.7599 153.6 33.3799L182.8 50.8299L206.26 65.2299L222.87 55.5899L181.68 31.9299Z" fill="white"/>
<path d="M205.8 62.99V136.72V138.28V139.71C206.33 139.7 206.85 139.58 207.25 139.35C207.67 139.11 207.88 138.79 207.89 138.47V138.46V138.45V64.15L205.8 62.99Z" fill="#5793CE"/>
<path d="M226.8 54.2V53.27H226.51L226.42 53.9L226.8 54.2Z" fill="white"/>
<path d="M207.89 65.1199V64.1699L207.61 64.5699L207.89 65.1199Z" fill="white"/>
<path d="M204.16 65.03L151.3 34.52C148.19 32.72 148.19 29.8 151.3 28.01L162.03 21.82C165.14 20.02 170.2 20.02 173.31 21.82L226.17 52.34C227.02 52.83 227.02 53.63 226.17 54.13C225.32 54.62 223.93 54.62 223.07 54.13L170.21 23.6C168.81 22.79 166.53 22.79 165.12 23.6L154.39 29.79C152.99 30.6 152.99 31.92 154.39 32.73L207.25 63.25C208.1 63.74 208.1 64.54 207.25 65.04C206.4 65.53 205.01 65.53 204.16 65.03Z" fill="#D4ECFF"/>
<path d="M190.38 100.21L162.92 84.3499V56.8199L190.38 72.6799V100.21Z" fill="white"/>
<path d="M226.16 54.1199C225.31 54.6099 223.92 54.6099 223.06 54.1199L170.21 23.5999C168.81 22.7899 166.53 22.7899 165.12 23.5999L154.39 29.7899C153.47 30.3199 153.16 31.0699 153.44 31.7499C153.59 31.3899 153.9 31.0499 154.39 30.7699L165.12 24.5799C166.52 23.7699 168.8 23.7699 170.21 24.5799L223.07 55.0999C223.92 55.5899 225.31 55.5899 226.17 55.0999C226.82 54.7299 226.97 54.1799 226.64 53.7199C226.52 53.8599 226.37 53.9999 226.16 54.1199Z" fill="white"/>
<path d="M207.25 65.0299C206.4 65.5199 205.01 65.5199 204.15 65.0299L151.3 34.5199C149.96 33.7499 149.2 32.7599 149.02 31.7499C148.77 33.0899 149.53 34.4699 151.3 35.4999L204.16 66.0199C205.01 66.5099 206.4 66.5099 207.26 66.0199C207.91 65.6499 208.06 65.0999 207.73 64.6399C207.62 64.7699 207.46 64.9099 207.25 65.0299Z" fill="white"/>
<path d="M120.61 121.35C117.5 123.15 117.5 126.07 120.61 127.86L173.47 158.38C174.32 158.87 175.71 158.87 176.57 158.38C177.43 157.89 177.42 157.09 176.57 156.59L123.71 126.07C122.31 125.26 122.31 123.94 123.71 123.13L128.83 120.17C128.26 119.31 127.74 118.42 127.24 117.51L120.61 121.35Z" fill="#FF2C9C"/>
<path d="M195.47 145.68L142.61 115.16C139.5 113.36 134.44 113.36 131.33 115.16L127.23 117.53C127.74 118.44 128.25 119.33 128.82 120.19L134.42 116.95C135.82 116.14 138.1 116.14 139.51 116.95L192.37 147.47C193.22 147.96 194.61 147.96 195.47 147.47C196.33 146.97 196.33 146.17 195.47 145.68Z" fill="#D3008D"/>
<path d="M196.11 146.63V72.31L140.72 41.43L132.98 40.92L125.49 45.77L120.89 49.77L174.86 135.35L192.48 145.74L196.11 146.63Z" fill="#D3008D"/>
<path d="M175.62 156.02L192.18 146.46V74.63L175.11 82.56L175.62 156.02Z" fill="#E573B5"/>
<path d="M118.28 50.35V124.55L176.43 157.81L177.21 157.5V83.19L118.28 50.35Z" fill="#FF2C9C"/>
<path d="M150.99 50.96L139.43 44.32C138.02 43.67 135.96 43.71 134.65 44.46L123.92 50.65C123.09 51.13 122.75 51.79 122.91 52.41L152.11 69.86L175.57 84.26L192.18 74.62L150.99 50.96Z" fill="white"/>
<path d="M175.11 82.02V155.75V157.31V158.74C175.64 158.73 176.16 158.61 176.56 158.38C176.98 158.14 177.19 157.82 177.2 157.5V157.49V157.48V83.19L175.11 82.02Z" fill="#D3008D"/>
<path d="M196.11 73.2401V72.3101H195.82L195.73 72.9401L196.11 73.2401Z" fill="white"/>
<path d="M177.2 84.15V83.2L176.92 83.61L177.2 84.15Z" fill="white"/>
<path d="M173.47 84.07L120.61 53.55C117.5 51.75 117.5 48.83 120.61 47.04L131.34 40.85C134.45 39.05 139.51 39.05 142.62 40.85L195.48 71.37C196.33 71.86 196.33 72.66 195.48 73.16C194.63 73.66 193.24 73.65 192.38 73.16L139.52 42.64C138.12 41.83 135.84 41.83 134.43 42.64L123.7 48.83C122.3 49.64 122.3 50.96 123.7 51.77L176.56 82.29C177.41 82.78 177.41 83.58 176.56 84.08C175.71 84.58 174.32 84.56 173.47 84.07Z" fill="#FF2C9C"/>
<path d="M159.69 119.25L132.23 103.39V75.86L159.69 91.71V119.25Z" fill="white"/>
<path d="M195.47 73.15C194.62 73.64 193.23 73.64 192.37 73.15L139.51 42.63C138.11 41.82 135.83 41.82 134.42 42.63L123.69 48.82C122.77 49.35 122.46 50.1 122.74 50.78C122.89 50.42 123.2 50.08 123.69 49.8L134.42 43.61C135.82 42.8 138.1 42.8 139.51 43.61L192.37 74.13C193.22 74.62 194.61 74.62 195.47 74.13C196.12 73.76 196.27 73.21 195.94 72.75C195.83 72.89 195.68 73.03 195.47 73.15Z" fill="white"/>
<path d="M176.56 84.0699C175.71 84.5599 174.32 84.5599 173.46 84.0699L120.6 53.5499C119.26 52.7799 118.5 51.7899 118.32 50.7799C118.07 52.1199 118.83 53.4999 120.6 54.5299L173.46 85.0499C174.31 85.5399 175.7 85.5399 176.56 85.0499C177.21 84.6799 177.36 84.1299 177.03 83.6699C176.93 83.8099 176.77 83.9499 176.56 84.0699Z" fill="white"/>
<path opacity="0.3" d="M279.42 281.77L164.8 215.59C161.56 213.72 161.96 210.45 165.71 208.29L243.76 163.24C247.5 161.08 253.17 160.84 256.41 162.72L371.03 228.9C374.27 230.77 373.87 234.04 370.12 236.2L292.07 281.25C288.32 283.4 282.66 283.64 279.42 281.77Z" fill="#173D7A"/>
<path d="M403.65 101.91L283.93 32.79C282.54 31.99 281.13 31.86 279.87 32.29L279.88 32.28L279.66 32.36C279.64 32.37 279.62 32.37 279.61 32.38L275.28 34.04L279.16 35.94C279.14 36.01 279.12 36.08 279.1 36.15L259.6 124.91C258.62 129.35 260.58 134.54 263.97 136.49L380.81 203.95L380.39 208.9L385.12 207.07C386.71 206.33 387.98 204.65 388.51 202.25L408.01 113.49C408.99 109.05 407.03 103.87 403.65 101.91Z" fill="#173D7A"/>
<path d="M403.65 101.91L283.93 32.79C282.54 31.99 281.13 31.86 279.87 32.29L279.88 32.28L279.66 32.36C279.64 32.37 279.62 32.37 279.61 32.38L275.28 34.04L279.16 35.94C279.14 36.01 279.12 36.08 279.1 36.15L266.25 94.65L324.83 140.29L407.42 106.68C406.64 104.63 405.32 102.88 403.65 101.91Z" fill="#396CAA"/>
<path d="M399.13 115.56L408.24 111.68C408.41 108.15 406.95 104.5 404.55 102.55L390.12 108.62L399.13 115.56Z" fill="#274F89"/>
<path d="M376.24 208.44L256.52 139.32C253.13 137.36 251.18 132.18 252.15 127.74L271.65 38.9799C272.63 34.5399 276.16 32.5199 279.55 34.4799L399.27 103.6C402.66 105.56 404.61 110.74 403.64 115.18L384.14 203.94C383.16 208.38 379.63 210.39 376.24 208.44Z" fill="#D4ECFF"/>
<path d="M400.42 103.17L280.7 34.05C279.06 33.1 277.39 33.1 275.99 33.85C277.12 33.6 278.34 33.78 279.55 34.48L399.27 103.6C402.66 105.56 404.61 110.74 403.64 115.18L384.14 203.94C383.64 206.23 382.45 207.86 380.95 208.65C382.97 208.21 384.66 206.38 385.28 203.52L404.78 114.76C405.76 110.31 403.81 105.12 400.42 103.17Z" fill="white"/>
<path d="M373.64 201.84L261.05 136.87C257.95 135.08 256.16 130.33 257.06 126.27L274.9 45.04C275.79 40.98 279.03 39.13 282.13 40.92L394.72 105.89C397.82 107.68 399.61 112.43 398.71 116.49L380.87 197.72C379.98 201.78 376.74 203.63 373.64 201.84Z" fill="white"/>
<path d="M373.64 201.84L261.05 136.87C257.95 135.08 256.16 130.33 257.06 126.27L274.9 45.04C275.79 40.98 279.03 39.13 282.13 40.92L394.72 105.89C397.82 107.68 399.61 112.43 398.71 116.49L380.87 197.72C379.98 201.78 376.74 203.63 373.64 201.84Z" fill="#173D7A"/>
<path d="M374.63 201.44L262.04 136.47C258.94 134.68 257.15 129.93 258.05 125.87L275.89 44.64C276.34 42.58 277.4 41.1 278.73 40.36C276.95 40.82 275.47 42.49 274.91 45.04L257.07 126.27C256.18 130.34 257.97 135.08 261.06 136.87L373.65 201.84C375.18 202.72 376.74 202.71 378.04 202C376.97 202.27 375.79 202.11 374.63 201.44Z" fill="#5793CE"/>
<path d="M377.89 211.45L361.53 209.29L255.89 148.3C252.5 146.34 246.59 146.59 242.68 148.85L167.83 192.05L157.93 190.74V196.35H157.94C157.88 197.65 158.61 198.9 160.21 199.82L279.93 268.94C283.32 270.9 289.23 270.65 293.14 268.39L374.66 221.34C376.86 220.07 377.96 218.43 377.89 216.9V211.45Z" fill="#173D7A"/>
<path d="M298.52 172.91L291.01 168.58H208.5L167.82 192.05L157.92 190.74V196.35H157.93C157.87 197.65 158.6 198.9 160.2 199.82L279.92 268.94C281.71 269.97 284.21 270.39 286.74 270.22L298.52 172.91Z" fill="#396CAA"/>
<path d="M162.32 191.32L157.93 190.74V196.35H157.94C157.88 197.65 158.61 198.9 160.21 199.82L162.32 201.04V191.32Z" fill="#5793CE"/>
<path d="M281.13 269.5C284.34 270.72 288.93 270.45 292.36 268.8V256.28H281.13V269.5Z" fill="#274F89"/>
<path d="M279.93 263.34L160.21 194.22C156.82 192.26 157.25 188.85 161.16 186.59L242.68 139.54C246.59 137.28 252.51 137.04 255.89 138.99L375.61 208.11C379 210.07 378.57 213.48 374.66 215.74L293.14 262.79C289.23 265.05 283.31 265.29 279.93 263.34Z" fill="#D4ECFF"/>
<path d="M374.66 213.69L293.14 260.74C289.23 263 283.31 263.24 279.93 261.29L160.21 192.17C159.1 191.53 158.41 190.73 158.1 189.87C157.57 191.47 158.25 193.09 160.21 194.22L279.93 263.34C283.32 265.3 289.23 265.05 293.14 262.79L374.66 215.74C377.29 214.22 378.33 212.18 377.71 210.41C377.33 211.58 376.31 212.74 374.66 213.69Z" fill="white"/>
<path d="M211.13 171.33L205.71 168.2C205.28 167.95 205.33 167.51 205.83 167.22L212.22 163.53C212.72 163.24 213.48 163.21 213.92 163.46L219.34 166.59C219.77 166.84 219.72 167.28 219.22 167.57L212.83 171.26C212.32 171.55 211.56 171.59 211.13 171.33Z" fill="#5793CE"/>
<path d="M219.49 176.16L214.07 173.03C213.64 172.78 213.69 172.34 214.19 172.05L220.58 168.36C221.08 168.07 221.84 168.04 222.28 168.29L227.7 171.42C228.13 171.67 228.08 172.11 227.58 172.4L221.19 176.09C220.69 176.38 219.93 176.42 219.49 176.16Z" fill="#5793CE"/>
<path d="M227.86 180.99L222.44 177.86C222.01 177.61 222.06 177.17 222.56 176.88L228.95 173.19C229.45 172.9 230.21 172.87 230.65 173.12L236.07 176.25C236.5 176.5 236.45 176.94 235.95 177.23L229.56 180.92C229.05 181.21 228.29 181.24 227.86 180.99Z" fill="#5793CE"/>
<path d="M239.43 177.01L234.01 173.88C233.58 173.63 233.63 173.19 234.13 172.9L239.5 169.8C240 169.51 240.76 169.48 241.2 169.73L246.62 172.86C247.05 173.11 247 173.55 246.5 173.84L241.13 176.94C240.62 177.22 239.86 177.26 239.43 177.01Z" fill="#5793CE"/>
<path d="M247.79 181.83L242.37 178.7C241.94 178.45 241.99 178.01 242.49 177.72L247.86 174.62C248.36 174.33 249.12 174.3 249.56 174.55L254.98 177.68C255.41 177.93 255.36 178.37 254.86 178.66L249.49 181.76C248.99 182.05 248.23 182.09 247.79 181.83Z" fill="#5793CE"/>
<path d="M256.16 186.66L250.74 183.53C250.31 183.28 250.36 182.84 250.86 182.55L256.23 179.45C256.73 179.16 257.49 179.13 257.93 179.38L263.35 182.51C263.78 182.76 263.73 183.2 263.23 183.49L257.86 186.59C257.35 186.88 256.59 186.92 256.16 186.66Z" fill="#5793CE"/>
<path d="M264.52 191.49L259.1 188.36C258.67 188.11 258.72 187.67 259.22 187.38L264.59 184.28C265.09 183.99 265.85 183.96 266.29 184.21L271.71 187.34C272.14 187.59 272.09 188.03 271.59 188.32L266.22 191.42C265.72 191.71 264.96 191.75 264.52 191.49Z" fill="#5793CE"/>
<path d="M272.89 196.32L267.47 193.19C267.04 192.94 267.09 192.5 267.59 192.21L272.96 189.11C273.46 188.82 274.22 188.79 274.66 189.04L280.08 192.17C280.51 192.42 280.46 192.86 279.96 193.15L274.59 196.25C274.08 196.54 273.32 196.57 272.89 196.32Z" fill="#5793CE"/>
<path d="M281.25 201.15L275.83 198.02C275.4 197.77 275.45 197.33 275.95 197.04L281.32 193.94C281.82 193.65 282.58 193.62 283.02 193.87L288.44 197C288.87 197.25 288.82 197.69 288.32 197.98L282.95 201.08C282.45 201.37 281.69 201.4 281.25 201.15Z" fill="#5793CE"/>
<path d="M289.62 205.98L284.2 202.85C283.77 202.6 283.82 202.16 284.32 201.87L289.69 198.77C290.19 198.48 290.95 198.45 291.39 198.7L296.81 201.83C297.24 202.08 297.19 202.52 296.69 202.81L291.32 205.91C290.81 206.2 290.05 206.23 289.62 205.98Z" fill="#5793CE"/>
<path d="M297.98 210.81L292.56 207.68C292.13 207.43 292.18 206.99 292.68 206.7L298.05 203.6C298.55 203.31 299.31 203.28 299.75 203.53L305.17 206.66C305.6 206.91 305.55 207.35 305.05 207.64L299.68 210.74C299.18 211.03 298.42 211.06 297.98 210.81Z" fill="#5793CE"/>
<path d="M306.35 215.64L300.93 212.51C300.5 212.26 300.55 211.82 301.05 211.53L306.42 208.43C306.92 208.14 307.68 208.11 308.12 208.36L313.54 211.49C313.97 211.74 313.92 212.18 313.42 212.47L308.05 215.57C307.54 215.86 306.78 215.89 306.35 215.64Z" fill="#5793CE"/>
<path d="M314.71 220.47L309.29 217.34C308.86 217.09 308.91 216.65 309.41 216.36L314.78 213.26C315.28 212.97 316.04 212.94 316.48 213.19L321.9 216.32C322.33 216.57 322.28 217.01 321.78 217.3L316.41 220.4C315.91 220.69 315.15 220.72 314.71 220.47Z" fill="#5793CE"/>
<path d="M251.75 174.72L246.33 171.59C245.9 171.34 245.95 170.9 246.45 170.61L251.82 167.51C252.32 167.22 253.08 167.19 253.52 167.44L258.94 170.57C259.37 170.82 259.32 171.26 258.82 171.55L253.45 174.65C252.95 174.94 252.19 174.97 251.75 174.72Z" fill="#5793CE"/>
<path d="M243.26 169.82L237.84 166.69C237.41 166.44 237.46 166 237.96 165.71L243.33 162.61C243.83 162.32 244.59 162.29 245.03 162.54L250.45 165.67C250.88 165.92 250.83 166.36 250.33 166.65L244.96 169.75C244.46 170.04 243.7 170.07 243.26 169.82Z" fill="#5793CE"/>
<path d="M234.76 164.91L223.09 158.17C222.66 157.92 222.71 157.48 223.21 157.19L228.58 154.09C229.08 153.8 229.84 153.77 230.28 154.02L241.95 160.76C242.39 161.01 242.33 161.45 241.83 161.74L236.46 164.84C235.95 165.13 235.19 165.16 234.76 164.91Z" fill="#5793CE"/>
<path d="M240.7 158.94L231.23 153.47C230.8 153.22 230.85 152.78 231.35 152.49L236.72 149.39C237.22 149.1 237.98 149.07 238.42 149.32L247.89 154.79C248.32 155.04 248.27 155.48 247.77 155.77L242.4 158.87C241.9 159.16 241.14 159.19 240.7 158.94Z" fill="#5793CE"/>
<path d="M260.12 179.55L254.7 176.42C254.27 176.17 254.32 175.73 254.82 175.44L260.19 172.34C260.69 172.05 261.45 172.02 261.89 172.27L267.31 175.4C267.74 175.65 267.69 176.09 267.19 176.38L261.82 179.48C261.31 179.77 260.55 179.8 260.12 179.55Z" fill="#5793CE"/>
<path d="M268.48 184.38L263.06 181.25C262.63 181 262.68 180.56 263.18 180.27L268.55 177.17C269.05 176.88 269.81 176.85 270.25 177.1L275.67 180.23C276.1 180.48 276.05 180.92 275.55 181.21L270.18 184.31C269.68 184.6 268.92 184.63 268.48 184.38Z" fill="#5793CE"/>
<path d="M276.85 189.21L271.43 186.08C271 185.83 271.05 185.39 271.55 185.1L276.92 182C277.42 181.71 278.18 181.68 278.62 181.93L284.04 185.06C284.47 185.31 284.42 185.75 283.92 186.04L278.55 189.14C278.04 189.43 277.28 189.46 276.85 189.21Z" fill="#5793CE"/>
<path d="M285.21 194.04L279.79 190.91C279.36 190.66 279.41 190.22 279.91 189.93L285.28 186.83C285.78 186.54 286.54 186.51 286.98 186.76L292.4 189.89C292.83 190.14 292.78 190.58 292.28 190.87L286.91 193.97C286.41 194.26 285.65 194.29 285.21 194.04Z" fill="#5793CE"/>
<path d="M293.58 198.87L288.16 195.74C287.73 195.49 287.78 195.05 288.28 194.76L293.65 191.66C294.15 191.37 294.91 191.34 295.35 191.59L300.77 194.72C301.2 194.97 301.15 195.41 300.65 195.7L295.28 198.8C294.77 199.09 294.01 199.12 293.58 198.87Z" fill="#5793CE"/>
<path d="M301.94 203.7L296.52 200.57C296.09 200.32 296.14 199.88 296.64 199.59L302.01 196.49C302.51 196.2 303.27 196.17 303.71 196.42L309.13 199.55C309.56 199.8 309.51 200.24 309.01 200.53L303.64 203.63C303.14 203.92 302.38 203.95 301.94 203.7Z" fill="#5793CE"/>
<path d="M310.31 208.53L304.89 205.4C304.46 205.15 304.51 204.71 305.01 204.42L310.38 201.32C310.88 201.03 311.64 201 312.08 201.25L317.5 204.38C317.93 204.63 317.88 205.07 317.38 205.36L312.01 208.46C311.5 208.75 310.74 208.78 310.31 208.53Z" fill="#5793CE"/>
<path d="M318.67 213.36L313.25 210.23C312.82 209.98 312.87 209.54 313.37 209.25L318.74 206.15C319.24 205.86 320 205.83 320.44 206.08L325.86 209.21C326.29 209.46 326.24 209.9 325.74 210.19L320.37 213.29C319.87 213.58 319.11 213.61 318.67 213.36Z" fill="#5793CE"/>
<path d="M327.04 218.19L321.62 215.06C321.19 214.81 321.24 214.37 321.74 214.08L327.11 210.98C327.61 210.69 328.37 210.66 328.81 210.91L334.23 214.04C334.66 214.29 334.61 214.73 334.11 215.02L328.74 218.12C328.23 218.4 327.47 218.44 327.04 218.19Z" fill="#5793CE"/>
<path d="M341.91 226.77L330.09 219.95C329.66 219.7 329.71 219.26 330.21 218.97L335.58 215.87C336.08 215.58 336.84 215.55 337.28 215.8L349.1 222.62C349.53 222.87 349.48 223.31 348.98 223.6L343.61 226.7C343.1 226.99 342.34 227.02 341.91 226.77Z" fill="#5793CE"/>
<path d="M358.2 217.37L348.22 211.61C347.78 211.36 347.84 210.92 348.34 210.63L353.71 207.53C354.21 207.24 354.97 207.21 355.41 207.46L365.39 213.22C365.82 213.47 365.77 213.91 365.27 214.2L359.9 217.3C359.39 217.59 358.63 217.62 358.2 217.37Z" fill="#5793CE"/>
<path d="M274.77 178.6L269.35 175.47C268.92 175.22 268.97 174.78 269.47 174.49L274.84 171.39C275.34 171.1 276.1 171.07 276.54 171.32L281.96 174.45C282.39 174.7 282.34 175.14 281.84 175.43L276.47 178.53C275.96 178.82 275.2 178.85 274.77 178.6Z" fill="#5793CE"/>
<path d="M266.19 173.65L260.77 170.52C260.34 170.27 260.39 169.83 260.89 169.54L266.26 166.44C266.76 166.15 267.52 166.12 267.96 166.37L273.38 169.5C273.81 169.75 273.76 170.19 273.26 170.48L267.89 173.58C267.39 173.87 266.63 173.9 266.19 173.65Z" fill="#5793CE"/>
<path d="M257.62 168.7L252.2 165.57C251.77 165.32 251.82 164.88 252.32 164.59L257.69 161.49C258.19 161.2 258.95 161.17 259.39 161.42L264.81 164.55C265.24 164.8 265.19 165.24 264.69 165.53L259.32 168.63C258.82 168.92 258.06 168.96 257.62 168.7Z" fill="#5793CE"/>
<path d="M249.05 163.75L243.63 160.62C243.2 160.37 243.25 159.93 243.75 159.64L249.12 156.54C249.62 156.25 250.38 156.22 250.82 156.47L256.24 159.6C256.67 159.85 256.62 160.29 256.12 160.58L250.75 163.68C250.24 163.97 249.48 164.01 249.05 163.75Z" fill="#5793CE"/>
<path d="M283.13 183.43L277.71 180.3C277.28 180.05 277.33 179.61 277.83 179.32L283.2 176.22C283.7 175.93 284.46 175.9 284.9 176.15L290.32 179.28C290.76 179.53 290.7 179.97 290.2 180.26L284.83 183.36C284.33 183.65 283.57 183.68 283.13 183.43Z" fill="#5793CE"/>
<path d="M291.5 188.26L286.08 185.13C285.65 184.88 285.7 184.44 286.2 184.15L291.57 181.05C292.07 180.76 292.83 180.73 293.27 180.98L298.69 184.11C299.12 184.36 299.07 184.8 298.57 185.09L293.2 188.19C292.69 188.48 291.93 188.51 291.5 188.26Z" fill="#5793CE"/>
<path d="M299.86 193.09L294.44 189.96C294.01 189.71 294.06 189.27 294.56 188.98L299.93 185.88C300.43 185.59 301.19 185.56 301.63 185.81L307.05 188.94C307.48 189.19 307.43 189.63 306.93 189.92L301.56 193.02C301.06 193.31 300.3 193.34 299.86 193.09Z" fill="#5793CE"/>
<path d="M308.23 197.92L302.81 194.79C302.38 194.54 302.43 194.1 302.93 193.81L308.3 190.71C308.8 190.42 309.56 190.39 310 190.64L315.42 193.77C315.85 194.02 315.8 194.46 315.3 194.75L309.93 197.85C309.42 198.14 308.66 198.17 308.23 197.92Z" fill="#5793CE"/>
<path d="M316.59 202.75L311.17 199.62C310.74 199.37 310.79 198.93 311.29 198.64L316.66 195.54C317.16 195.25 317.92 195.22 318.36 195.47L323.78 198.6C324.21 198.85 324.16 199.29 323.66 199.58L318.29 202.68C317.79 202.97 317.03 203 316.59 202.75Z" fill="#5793CE"/>
<path d="M324.96 207.58L319.54 204.45C319.11 204.2 319.16 203.76 319.66 203.47L325.03 200.37C325.53 200.08 326.29 200.05 326.73 200.3L332.15 203.43C332.58 203.68 332.53 204.12 332.03 204.41L326.66 207.51C326.15 207.8 325.39 207.83 324.96 207.58Z" fill="#5793CE"/>
<path d="M333.32 212.41L327.9 209.28C327.47 209.03 327.52 208.59 328.02 208.3L333.39 205.2C333.89 204.91 334.65 204.88 335.09 205.13L340.51 208.26C340.94 208.51 340.89 208.95 340.39 209.24L335.02 212.34C334.52 212.63 333.76 212.66 333.32 212.41Z" fill="#5793CE"/>
<path d="M341.69 217.24L336.27 214.11C335.84 213.86 335.89 213.42 336.39 213.13L341.76 210.03C342.26 209.74 343.02 209.71 343.46 209.96L348.88 213.09C349.31 213.34 349.26 213.78 348.76 214.07L343.39 217.17C342.88 217.46 342.12 217.49 341.69 217.24Z" fill="#5793CE"/>
<path d="M350.05 222.07L344.63 218.94C344.2 218.69 344.25 218.25 344.75 217.96L350.12 214.86C350.62 214.57 351.38 214.54 351.82 214.79L357.24 217.92C357.67 218.17 357.62 218.61 357.12 218.9L351.75 222C351.25 222.29 350.49 222.32 350.05 222.07Z" fill="#5793CE"/>
<path d="M270.36 166.66L264.94 163.53C264.51 163.28 264.56 162.84 265.06 162.55L270.43 159.45C270.93 159.16 271.69 159.13 272.13 159.38L277.55 162.51C277.98 162.76 277.93 163.2 277.43 163.49L272.06 166.59C271.56 166.88 270.8 166.91 270.36 166.66Z" fill="#5793CE"/>
<path d="M262.04 161.85L256.62 158.72C256.19 158.47 256.24 158.03 256.74 157.74L262.11 154.64C262.61 154.35 263.37 154.32 263.81 154.57L269.23 157.7C269.66 157.95 269.61 158.39 269.11 158.68L263.74 161.78C263.23 162.07 262.47 162.1 262.04 161.85Z" fill="#5793CE"/>
<path d="M253.72 157.05L248.3 153.92C247.87 153.67 247.92 153.23 248.42 152.94L253.79 149.84C254.29 149.55 255.05 149.52 255.49 149.77L260.91 152.9C261.34 153.15 261.29 153.59 260.79 153.88L255.42 156.98C254.91 157.27 254.15 157.3 253.72 157.05Z" fill="#5793CE"/>
<path d="M245.39 152.24L239.97 149.11C239.54 148.86 239.59 148.42 240.09 148.13L245.46 145.03C245.96 144.74 246.72 144.71 247.16 144.96L252.58 148.09C253.01 148.34 252.96 148.78 252.46 149.07L247.09 152.17C246.59 152.46 245.83 152.49 245.39 152.24Z" fill="#5793CE"/>
<path d="M253.95 147.3L248.53 144.17C248.1 143.92 248.15 143.48 248.65 143.19L250.42 142.17C250.92 141.88 251.68 141.85 252.12 142.1L257.54 145.23C257.97 145.48 257.92 145.92 257.42 146.21L255.65 147.23C255.15 147.52 254.39 147.55 253.95 147.3Z" fill="#5793CE"/>
<path d="M264.81 153.57L259.39 150.44C258.96 150.19 259.01 149.75 259.51 149.46L261.28 148.44C261.78 148.15 262.54 148.12 262.98 148.37L268.4 151.5C268.83 151.75 268.78 152.19 268.28 152.48L266.51 153.5C266.01 153.79 265.25 153.82 264.81 153.57Z" fill="#5793CE"/>
<path d="M273.1 158.36L267.68 155.23C267.25 154.98 267.3 154.54 267.8 154.25L269.57 153.23C270.07 152.94 270.83 152.91 271.27 153.16L276.69 156.29C277.12 156.54 277.07 156.98 276.57 157.27L274.8 158.29C274.3 158.58 273.54 158.61 273.1 158.36Z" fill="#5793CE"/>
<path d="M281.39 163.14L275.97 160.01C275.54 159.76 275.59 159.32 276.09 159.03L277.86 158.01C278.36 157.72 279.12 157.69 279.56 157.94L284.98 161.07C285.41 161.32 285.36 161.76 284.86 162.05L283.09 163.07C282.59 163.36 281.83 163.39 281.39 163.14Z" fill="#5793CE"/>
<path d="M289.68 167.93L284.26 164.8C283.83 164.55 283.88 164.11 284.38 163.82L286.15 162.8C286.65 162.51 287.41 162.48 287.85 162.73L293.27 165.86C293.7 166.11 293.65 166.55 293.15 166.84L291.38 167.86C290.87 168.15 290.11 168.18 289.68 167.93Z" fill="#5793CE"/>
<path d="M335.95 194.64L330.53 191.51C330.1 191.26 330.15 190.82 330.65 190.53L332.42 189.51C332.92 189.22 333.68 189.19 334.12 189.44L339.54 192.57C339.97 192.82 339.92 193.26 339.42 193.55L337.65 194.57C337.15 194.86 336.39 194.9 335.95 194.64Z" fill="#5793CE"/>
<path d="M344.24 199.43L338.82 196.3C338.39 196.05 338.44 195.61 338.94 195.32L340.71 194.3C341.21 194.01 341.97 193.98 342.41 194.23L347.83 197.36C348.26 197.61 348.21 198.05 347.71 198.34L345.94 199.36C345.44 199.65 344.68 199.68 344.24 199.43Z" fill="#5793CE"/>
<path d="M352.53 204.22L347.11 201.09C346.68 200.84 346.73 200.4 347.23 200.11L349 199.09C349.5 198.8 350.26 198.77 350.7 199.02L356.12 202.15C356.55 202.4 356.5 202.84 356 203.13L354.23 204.15C353.73 204.43 352.97 204.47 352.53 204.22Z" fill="#5793CE"/>
<path d="M360.82 209L355.4 205.87C354.97 205.62 355.02 205.18 355.52 204.89L357.29 203.87C357.79 203.58 358.55 203.55 358.99 203.8L364.41 206.93C364.84 207.18 364.79 207.62 364.29 207.91L362.52 208.93C362.02 209.22 361.26 209.25 360.82 209Z" fill="#5793CE"/>
<path d="M278.73 171.49L273.31 168.36C272.88 168.11 272.93 167.67 273.43 167.38L278.8 164.28C279.3 163.99 280.06 163.96 280.5 164.21L285.92 167.34C286.35 167.59 286.3 168.03 285.8 168.32L280.43 171.42C279.92 171.71 279.16 171.74 278.73 171.49Z" fill="#5793CE"/>
<path d="M287.09 176.32L281.67 173.19C281.24 172.94 281.29 172.5 281.79 172.21L287.16 169.11C287.66 168.82 288.42 168.79 288.86 169.04L294.28 172.17C294.71 172.42 294.66 172.86 294.16 173.15L288.79 176.25C288.29 176.54 287.53 176.57 287.09 176.32Z" fill="#5793CE"/>
<path d="M295.46 181.15L290.04 178.02C289.61 177.77 289.66 177.33 290.16 177.04L295.53 173.94C296.03 173.65 296.79 173.62 297.23 173.87L302.65 177C303.08 177.25 303.03 177.69 302.53 177.98L297.16 181.08C296.65 181.37 295.89 181.4 295.46 181.15Z" fill="#5793CE"/>
<path d="M303.82 185.98L298.4 182.85C297.97 182.6 298.02 182.16 298.52 181.87L303.89 178.77C304.39 178.48 305.15 178.45 305.59 178.7L311.01 181.83C311.44 182.08 311.39 182.52 310.89 182.81L305.52 185.91C305.02 186.2 304.26 186.23 303.82 185.98Z" fill="#5793CE"/>
<path d="M312.19 190.81L306.77 187.68C306.34 187.43 306.39 186.99 306.89 186.7L312.26 183.6C312.76 183.31 313.52 183.28 313.96 183.53L319.38 186.66C319.81 186.91 319.76 187.35 319.26 187.64L313.89 190.74C313.38 191.03 312.62 191.06 312.19 190.81Z" fill="#5793CE"/>
<path d="M320.55 195.64L315.13 192.51C314.7 192.26 314.75 191.82 315.25 191.53L320.62 188.43C321.12 188.14 321.88 188.11 322.32 188.36L327.74 191.49C328.17 191.74 328.12 192.18 327.62 192.47L322.25 195.57C321.75 195.85 320.99 195.89 320.55 195.64Z" fill="#5793CE"/>
<path d="M328.92 200.46L323.5 197.33C323.07 197.08 323.12 196.64 323.62 196.35L328.99 193.25C329.49 192.96 330.25 192.93 330.69 193.18L336.11 196.31C336.54 196.56 336.49 197 335.99 197.29L330.62 200.39C330.11 200.68 329.35 200.72 328.92 200.46Z" fill="#5793CE"/>
<path d="M337.28 205.29L331.86 202.16C331.43 201.91 331.48 201.47 331.98 201.18L337.35 198.08C337.85 197.79 338.61 197.76 339.05 198.01L344.47 201.14C344.9 201.39 344.85 201.83 344.35 202.12L338.98 205.22C338.48 205.51 337.72 205.55 337.28 205.29Z" fill="#5793CE"/>
<path d="M345.65 210.12L340.23 206.99C339.8 206.74 339.85 206.3 340.35 206.01L345.72 202.91C346.22 202.62 346.98 202.59 347.42 202.84L352.84 205.97C353.27 206.22 353.22 206.66 352.72 206.95L347.35 210.05C346.84 210.34 346.08 210.38 345.65 210.12Z" fill="#5793CE"/>
<path d="M230.9 172.08L214.95 162.87C214.52 162.62 214.57 162.18 215.07 161.89L220.44 158.79C220.94 158.5 221.7 158.47 222.14 158.72L238.09 167.93C238.52 168.18 238.47 168.62 237.97 168.91L232.6 172.01C232.1 172.3 231.34 172.33 230.9 172.08Z" fill="#5793CE"/>
<path d="M333.67 231.42L317.72 222.21C317.29 221.96 317.34 221.52 317.84 221.23L323.21 218.13C323.71 217.84 324.47 217.81 324.91 218.06L340.86 227.27C341.29 227.52 341.24 227.96 340.74 228.25L335.37 231.35C334.86 231.64 334.1 231.67 333.67 231.42Z" fill="#5793CE"/>
<path d="M300.22 222.77L294.8 219.64C294.37 219.39 294.42 218.95 294.92 218.66L301.31 214.97C301.81 214.68 302.57 214.65 303.01 214.9L308.43 218.03C308.86 218.28 308.81 218.72 308.31 219.01L301.92 222.7C301.41 222.99 300.65 223.02 300.22 222.77Z" fill="#5793CE"/>
<path d="M239.47 187.7L230.81 182.7C230.38 182.45 230.43 182.01 230.93 181.72L237.32 178.03C237.82 177.74 238.58 177.71 239.02 177.96L247.68 182.96C248.11 183.21 248.06 183.65 247.56 183.94L241.17 187.63C240.66 187.92 239.9 187.95 239.47 187.7Z" fill="#5793CE"/>
<path d="M292.16 218.12L283.5 213.12C283.07 212.87 283.12 212.43 283.62 212.14L290.01 208.45C290.51 208.16 291.27 208.13 291.71 208.38L300.37 213.38C300.8 213.63 300.75 214.07 300.25 214.36L293.86 218.05C293.35 218.34 292.59 218.37 292.16 218.12Z" fill="#5793CE"/>
<path d="M251.54 194.67L242.88 189.67C242.45 189.42 242.5 188.98 243 188.69L249.39 185C249.89 184.71 250.65 184.68 251.09 184.93L259.75 189.93C260.18 190.18 260.13 190.62 259.63 190.91L253.24 194.6C252.73 194.89 251.97 194.92 251.54 194.67Z" fill="#5793CE"/>
<path d="M251.15 184.96L288.81 206.71C289.28 206.98 289.28 207.42 288.81 207.69L282.29 211.45C281.82 211.72 281.06 211.72 280.6 211.45L242.94 189.7L251.15 184.96Z" fill="#5793CE"/>
<path d="M323.6 231.53L329.63 235.01C329.99 235.22 329.94 235.58 329.53 235.81L326.91 237.32C326.5 237.56 325.88 237.58 325.52 237.38L319.49 233.9C319.13 233.69 319.18 233.33 319.59 233.1L322.21 231.59C322.62 231.35 323.24 231.32 323.6 231.53Z" fill="#5793CE"/>
<path d="M315.16 226.66L321.19 230.14C321.55 230.35 321.5 230.71 321.09 230.94L318.47 232.45C318.06 232.69 317.44 232.71 317.08 232.51L311.05 229.03C310.69 228.82 310.74 228.46 311.15 228.23L313.77 226.72C314.18 226.48 314.8 226.45 315.16 226.66Z" fill="#5793CE"/>
<path d="M306.8 221.83L312.83 225.31C313.19 225.52 313.14 225.88 312.73 226.11L310.11 227.62C309.7 227.86 309.08 227.88 308.72 227.68L302.69 224.2C302.33 223.99 302.38 223.63 302.79 223.4L305.41 221.89C305.82 221.65 306.44 221.62 306.8 221.83Z" fill="#5793CE"/>
<path d="M319.78 223.99L325.81 227.47C326.17 227.68 326.12 228.04 325.71 228.27L323.09 229.78C322.68 230.02 322.06 230.04 321.7 229.84L315.67 226.36C315.31 226.15 315.36 225.79 315.77 225.56L318.39 224.05C318.8 223.81 319.42 223.78 319.78 223.99Z" fill="#5793CE"/>
<path d="M352.82 129.75L307.77 103.74L308.34 100.81L353.4 126.82L352.82 129.75Z" fill="#D4ECFF"/>
<path d="M336.69 134.69L305.23 116.54L305.81 113.61L337.27 131.77L336.69 134.69Z" fill="#D4ECFF"/>
<path d="M333.71 125.85L306.5 110.14L307.08 107.21L334.29 122.92L333.71 125.85Z" fill="white"/>
<path d="M351.56 136.15L337.95 128.3L338.53 125.37L352.14 133.22L351.56 136.15Z" fill="#FF2C9C"/>
<path d="M302.97 78.1799L289.36 70.3299L289.94 67.3999L303.55 75.2499L302.97 78.1799Z" fill="#D4ECFF"/>
<path d="M301.49 84.99L287.89 77.13L288.46 74.2L302.07 82.06L301.49 84.99Z" fill="white"/>
<path d="M368.27 179.41L354.66 171.56L355.24 168.63L368.85 176.48L368.27 179.41Z" fill="#D4ECFF"/>
<path d="M298.54 98.5999L284.93 90.7499L285.51 87.8199L299.12 95.6699L298.54 98.5999Z" fill="#D4ECFF"/>
<path d="M327.93 100.71C327.5 101.66 326.4 101.99 325.48 101.46C324.56 100.93 324.17 99.73 324.6 98.79C325.03 97.84 326.13 97.51 327.05 98.04C327.98 98.57 328.37 99.77 327.93 100.71Z" fill="#FF2C9C"/>
<path d="M333.79 104.1C333.36 105.05 332.26 105.38 331.34 104.85C330.42 104.32 330.03 103.12 330.46 102.18C330.89 101.23 331.99 100.9 332.91 101.43C333.84 101.95 334.23 103.15 333.79 104.1Z" fill="white"/>
<path d="M339.65 107.48C339.22 108.43 338.12 108.76 337.2 108.23C336.28 107.7 335.89 106.5 336.32 105.56C336.75 104.61 337.85 104.28 338.77 104.81C339.7 105.34 340.09 106.53 339.65 107.48Z" fill="#D4ECFF"/>
<path d="M345.51 110.86C345.08 111.81 343.98 112.14 343.06 111.61C342.14 111.08 341.75 109.88 342.18 108.94C342.61 107.99 343.71 107.66 344.63 108.19C345.56 108.72 345.95 109.92 345.51 110.86Z" fill="#FF2C9C"/>
<path d="M245.76 230.38L211.69 210.71C210.7 210.14 210.82 209.14 211.97 208.48L232.53 196.61C233.68 195.95 235.41 195.88 236.4 196.45L270.47 216.12C271.46 216.69 271.34 217.69 270.19 218.35L249.63 230.22C248.49 230.88 246.76 230.96 245.76 230.38Z" fill="white"/>
<path d="M217.365 150.958L221.473 145.921L210.593 137.047L206.485 142.084L217.365 150.958Z" fill="#5793CE"/>
<path d="M218.98 151.07C220.35 150.55 221.65 148.95 221.89 147.51C222.12 146.06 221.2 145.31 219.83 145.83C218.46 146.35 217.16 147.95 216.92 149.39C216.69 150.84 217.61 151.59 218.98 151.07Z" fill="#5793CE"/>
<path d="M207.102 145.219L213.763 137.05L202.65 127.987L195.988 136.156L207.102 145.219Z" fill="#5793CE"/>
<path d="M212.37 138.51L216.05 141.51C215.52 143.54 213.82 145.62 211.94 146.55L208.26 143.55C208.79 141.52 210.49 139.44 212.37 138.51Z" fill="#396CAA"/>
<path d="M209.74 145.37C211.96 144.53 214.07 141.94 214.45 139.59C214.83 137.24 213.34 136.03 211.12 136.87C208.9 137.71 206.79 140.3 206.41 142.65C206.03 145 207.52 146.21 209.74 145.37Z" fill="#5793CE"/>
<path d="M198.63 136.31C200.85 135.47 202.96 132.88 203.34 130.53C203.72 128.18 202.23 126.97 200.01 127.81C197.79 128.65 195.68 131.24 195.3 133.59C194.91 135.93 196.4 137.15 198.63 136.31Z" fill="#5793CE"/>
<path d="M198.93 134.46C200.19 133.98 201.38 132.52 201.59 131.19C201.8 129.86 200.96 129.17 199.7 129.65C198.44 130.13 197.25 131.59 197.04 132.92C196.82 134.25 197.67 134.94 198.93 134.46Z" fill="#D4ECFF"/>
<path d="M219.02 146.94C219.55 147.37 220.07 147.18 220.18 146.5C220.29 145.82 219.95 144.92 219.41 144.48C218.88 144.05 218.36 144.24 218.25 144.92C218.14 145.6 218.48 146.51 219.02 146.94Z" fill="#D4ECFF"/>
<path d="M108.36 257.66C106.41 257.66 104.46 257.13 102.68 256.06L94.9799 251.5C94.5699 251.25 94.4299 250.72 94.6799 250.31C94.9299 249.9 95.4599 249.76 95.8699 250.01L103.57 254.57C106.6 256.39 110.19 256.38 113.2 254.53C116.2 252.69 117.85 249.49 117.6 245.97L117.44 243.65C114.74 205.65 109.71 134.92 139.52 127.29C149.79 124.66 156.82 122.15 161.95 120.31C177.25 114.83 178.3 115.14 199.39 131.06C199.77 131.35 199.85 131.89 199.56 132.28C199.27 132.66 198.73 132.74 198.34 132.45C177.39 116.63 177.11 116.73 162.54 121.95C157.38 123.8 150.3 126.33 139.95 128.98C111.55 136.25 116.51 206.04 119.18 243.53L119.34 245.85C119.63 250.03 117.68 253.83 114.12 256.01C112.31 257.11 110.34 257.66 108.36 257.66Z" fill="#5793CE"/>
<path opacity="0.3" d="M166.83 271.75C182.404 271.75 195.03 264.461 195.03 255.47C195.03 246.479 182.404 239.19 166.83 239.19C151.255 239.19 138.63 246.479 138.63 255.47C138.63 264.461 151.255 271.75 166.83 271.75Z" fill="#173D7A"/>
<path d="M180.29 248.49C181.88 249.17 182.88 250.94 182.75 252.84C182.69 253.74 182.58 254.57 182.39 254.97C181.88 256.03 180.23 257.49 177.58 256.44C174.94 255.4 169.06 249.88 168.84 246.27C168.44 239.56 176.11 246.71 180.29 248.49Z" fill="#173D7A"/>
<path d="M164.75 259.59C164.75 259.59 165.38 263.46 165.08 264.17C164.77 264.88 162.93 266.39 160.21 266.06C157.49 265.73 149.67 263.04 147.93 257.88C145.23 249.89 163.03 258.48 163.03 258.48L164.75 259.59Z" fill="#173D7A"/>
<path d="M157.11 197.76L156.5 258.14C156.56 260.24 157.94 262.01 159.79 262.33C160.02 262.37 160.26 262.4 160.53 262.42C162.4 262.58 163.49 261.78 164.12 260.94C164.62 260.26 164.89 259.39 164.93 258.5L165.7 232.73L169.55 209.69L174.87 250.48C174.96 251.58 175.48 252.6 176.33 253.17C176.92 253.56 177.71 253.86 178.76 253.83C180.28 253.78 181.34 252.97 181.99 252.24C182.5 251.66 182.77 250.87 182.76 250.06L180.65 225.52L179.86 194.22L157.11 197.76Z" fill="#D4ECFF"/>
<path d="M164.93 143.72L165.88 149.22C165.88 149.22 165.92 151.1 163.82 151.62C161.72 152.14 161.08 150.79 161.08 150.79L160.13 144.59L164.93 143.72Z" fill="#FFC2B0"/>
<path d="M153.74 143.88C157.24 147.37 162.59 147.66 165.68 144.53C168.77 141.4 168.44 136.04 164.94 132.55C161.44 129.06 156.09 128.77 153 131.9C149.91 135.03 150.24 140.39 153.74 143.88Z" fill="#FFC2B0"/>
<path d="M164.68 149.32C164.83 149.26 173.57 143.63 176.81 149.52C182.08 159.13 181.77 190.07 180.11 194.07C178.57 197.78 174.72 200.51 172.03 202.05C169.63 203.42 166.95 204.26 164.18 204.28C161.45 204.3 156.21 201.87 156.4 198.3C157.28 181.87 155.82 168.01 154.48 154.57C154.47 154.58 156.15 152.77 164.68 149.32Z" fill="#5793CE"/>
<path d="M169.54 209.68L174.86 250.47C174.95 251.57 175.47 252.59 176.32 253.16C176.46 253.25 176.61 253.34 176.77 253.42C175.66 252.59 172.44 218.36 171.84 214.55C171.26 210.72 169.54 209.68 169.54 209.68Z" fill="#396CAA"/>
<path d="M136.71 151.13L131.96 135.57L134.47 134.53L140.07 146.72L136.71 151.13Z" fill="#FFC2B0"/>
<path d="M184.62 138.86L181.06 122.66L178.22 122.69L179.29 136.13L184.62 138.86Z" fill="#FFC2B0"/>
<path d="M154.47 154.58C154.47 154.58 145.93 156.28 140.5 146.34C140.02 145.46 138.75 145.33 138.25 146.1C137.38 147.43 136.23 149.46 136.82 151.66C139.46 161.38 153.82 163.52 156.4 169.16C158.98 174.79 154.47 154.58 154.47 154.58Z" fill="#5793CE"/>
<path d="M170.23 147.3C170.23 147.3 176.99 147.82 177.97 141.97C178.47 138.96 178.62 137.16 178.65 136.12C178.67 135.42 179.28 134.89 179.98 134.97C181.6 135.17 184.11 135.65 184.45 136.74C184.96 138.36 185.91 146.31 179.23 158.51C174.85 166.49 170.23 147.3 170.23 147.3Z" fill="#5793CE"/>
<path d="M181.07 122.7L181.01 120.85C180.99 120.2 180.8 119.56 180.46 119L178.59 115.92L178.1 115.3C177.65 114.73 176.84 114.59 176.23 114.98L175.8 115.25C175.25 115.6 174.93 116.21 174.98 116.86L175.95 119.49L174.72 119.25C174.48 119.2 174.25 119.36 174.21 119.6C174.17 119.8 174.28 120 174.48 120.08L176.48 120.89L178.3 123.46L181.07 122.7Z" fill="#FFC2B0"/>
<path d="M131.89 135.65L131.32 133.89C131.12 133.27 131.08 132.61 131.21 131.97L131.93 128.44L132.18 127.7C132.41 127.01 133.12 126.61 133.83 126.76L134.33 126.87C134.96 127.01 135.47 127.48 135.65 128.11L135.63 130.91L136.7 130.27C136.91 130.15 137.18 130.22 137.3 130.43C137.4 130.61 137.37 130.83 137.21 130.97L135.6 132.41L134.66 135.82L131.89 135.65Z" fill="#FFC2B0"/>
<path d="M158.47 166.35C159.25 169.9 157.06 197.46 164.17 204.29C161.44 204.31 156.2 201.88 156.39 198.31C156.98 187.29 156.51 177.44 155.74 168.09C152.95 164.48 145.28 162.18 140.48 157.54C140.83 157.65 157.7 162.84 158.47 166.35Z" fill="#396CAA"/>
<path d="M167.83 147.76L166.62 146.51C166.62 146.51 164.62 148.55 163.02 148.91C163.02 148.91 161.09 149.46 160.14 149.5L159.36 151.66C159.35 151.66 165.71 151.21 167.83 147.76Z" fill="white"/>
<path d="M158.87 141.37C158.57 141.52 158.22 141.53 157.93 141.37C157.41 141.1 156.58 139.04 155.5 139.19C153.82 139.43 151.38 142.96 148.35 138.03C146.77 135.47 147.7 134.09 146.93 132.63C146.93 132.63 147.2 133.42 153.8 129.39C160.4 125.36 165.8 130.27 167.47 133.08C169.14 135.89 170.23 141.38 165.9 144.47C165.18 144.98 160.56 144.07 160.46 143.68C160.36 143.29 161.6 142.67 160.9 141.76C160.32 141.02 159.65 140.98 158.87 141.37Z" fill="#173D7A"/>
<path d="M97 252.54C96.85 252.54 96.7 252.5 96.56 252.42L50.07 224.89C49.66 224.64 49.52 224.11 49.76 223.7C50 223.29 50.54 223.15 50.95 223.39L97.44 250.92C97.85 251.17 97.99 251.7 97.74 252.11C97.58 252.39 97.29 252.54 97 252.54Z" fill="#5793CE"/>
<path d="M0.00998228 211.81V86.09L49.99 73.01L59.2 67.7C61.31 66.48 65 66.63 67.44 68.04L76.02 73L102.68 72.99L94.79 194.35C94.85 195.18 94.39 195.97 93.37 196.56L43.5 234.18C41.39 235.4 37.7 235.25 35.26 233.84L2.01998 214.65C0.609982 213.84 -0.0700177 212.79 0.00998228 211.81Z" fill="#396CAA"/>
<path d="M63.0201 66.88C64.5701 66.92 66.1701 67.31 67.4401 68.04L76.0201 73L102.68 72.99V199.04C102.74 199.87 102.28 200.66 101.26 201.25L43.5001 234.18C42.4801 234.77 41.1001 235.03 39.6701 235L39.0701 108.16L63.0201 66.88Z" fill="#D4ECFF"/>
<path d="M42.9699 234.44C41.1499 235.22 38.5099 235.18 36.3799 234.36V106.66H42.9699V234.44Z" fill="#5793CE"/>
<path d="M43.5 108.18L101.27 75.24C103.38 74.02 103.12 71.89 100.68 70.48L67.44 51.29C65 49.88 61.31 49.73 59.2 50.95L1.43002 83.89C-0.679976 85.11 -0.419976 87.24 2.02002 88.65L35.26 107.84C37.7 109.24 41.39 109.4 43.5 108.18Z" fill="#D4ECFF"/>
<path d="M2.01998 86.3101L35.26 105.5C37.7 106.91 41.39 107.06 43.5 105.84L101.27 72.9001C101.74 72.6301 102.09 72.3101 102.32 71.9601C103.05 73.1301 102.72 74.3901 101.27 75.2301L43.5 108.18C41.39 109.4 37.7 109.25 35.26 107.84L2.01998 88.6401C0.119976 87.5501 -0.450024 86.0201 0.369976 84.8201C0.699976 85.3501 1.24998 85.8701 2.01998 86.3101Z" fill="#FAFDFF"/>
<path d="M41.8601 94.8301L80.3201 72.5401C81.3101 71.9701 81.1801 70.9701 80.0401 70.3101L64.4901 61.3301C63.3501 60.6701 61.6201 60.6001 60.6301 61.1701L22.1801 83.4601C21.1901 84.0301 21.3201 85.0301 22.4601 85.6901L38.0101 94.6701C39.1501 95.3201 40.8801 95.4001 41.8601 94.8301Z" fill="#173D7A"/>
<path d="M62.63 73.5301L64.86 72.2401C65 72.1601 64.98 72.0201 64.82 71.9301L62.67 70.6901C62.51 70.6001 62.27 70.5901 62.14 70.6701L59.91 71.9601C59.77 72.0401 59.79 72.1801 59.95 72.2701L62.1 73.5101C62.25 73.6001 62.49 73.6101 62.63 73.5301Z" fill="#D4ECFF"/>
<path d="M55.1798 77.8101L57.4098 76.5201C57.5498 76.4401 57.5298 76.3001 57.3698 76.2101L55.2198 74.9701C55.0598 74.8801 54.8198 74.8701 54.6898 74.9501L52.4598 76.2401C52.3198 76.3201 52.3398 76.4601 52.4998 76.5501L54.6498 77.7901C54.8098 77.8801 55.0398 77.8901 55.1798 77.8101Z" fill="#FF2C9C"/>
<path d="M47.7399 82.1L49.9699 80.81C50.1099 80.73 50.0899 80.59 49.9299 80.5L47.7799 79.26C47.6199 79.17 47.3799 79.16 47.2499 79.24L45.0199 80.53C44.8799 80.61 44.8999 80.75 45.0599 80.84L47.2099 82.08C47.3599 82.16 47.5999 82.17 47.7399 82.1Z" fill="#D4ECFF"/>
<path d="M40.2899 86.3801L42.5199 85.0901C42.6599 85.0101 42.6399 84.8701 42.4799 84.7801L40.3299 83.5401C40.1699 83.4501 39.9299 83.4401 39.7999 83.5201L37.5699 84.8101C37.4299 84.8901 37.4499 85.0301 37.6099 85.1201L39.7599 86.3601C39.9199 86.4501 40.1499 86.4601 40.2899 86.3801Z" fill="#D4ECFF"/>
<path d="M80.32 72.5301L80.27 72.5601C80.2 72.5101 80.13 72.4501 80.04 72.4001L64.49 63.4201C63.35 62.7601 61.62 62.6901 60.63 63.2601L22.22 85.5301C21.31 84.8801 21.26 83.9901 22.17 83.4601L60.63 61.1701C61.62 60.6001 63.35 60.6701 64.49 61.3301L80.04 70.3101C81.19 70.9601 81.31 71.9601 80.32 72.5301Z" fill="#5793CE"/>
<path d="M28.7699 133.08L6.89992 120.56C5.66992 119.85 4.66992 117.94 4.66992 116.3V108.48C4.66992 106.84 5.66992 106.09 6.89992 106.8L28.7699 119.32C29.9999 120.03 30.9999 121.94 30.9999 123.58V131.4C30.9899 133.04 29.9999 133.79 28.7699 133.08Z" fill="#173D7A"/>
<path d="M5.81992 106.56C5.47992 106.88 5.25992 107.44 5.25992 108.19V116.01C5.25992 117.65 6.25992 119.56 7.48992 120.27L29.3599 132.79C29.7599 133.02 30.1199 133.08 30.4399 133.03C30.0299 133.42 29.4399 133.47 28.7699 133.09L6.89992 120.56C5.66992 119.85 4.66992 117.94 4.66992 116.3V108.48C4.66992 107.37 5.13992 106.68 5.81992 106.56Z" fill="white"/>
<path d="M22.1899 124.59L20.1799 123.43C19.9099 123.28 19.6899 122.86 19.6899 122.5V120.36C19.6899 120 19.9099 119.84 20.1799 119.99L22.1899 121.15C22.4599 121.3 22.6799 121.72 22.6799 122.08V124.22C22.6699 124.58 22.4599 124.74 22.1899 124.59Z" fill="#396CAA"/>
<path d="M15.48 120.71L13.47 119.55C13.2 119.4 12.98 118.98 12.98 118.62V116.48C12.98 116.12 13.2 115.96 13.47 116.11L15.48 117.27C15.75 117.42 15.97 117.84 15.97 118.2V120.34C15.97 120.71 15.75 120.87 15.48 120.71Z" fill="white"/>
<path d="M28.7699 189.59L6.89992 177.07C5.66992 176.36 4.66992 174.45 4.66992 172.81V164.99C4.66992 163.35 5.66992 162.6 6.89992 163.31L28.7699 175.83C29.9999 176.54 30.9999 178.45 30.9999 180.09V187.91C30.9899 189.55 29.9999 190.3 28.7699 189.59Z" fill="#173D7A"/>
<path d="M5.81992 163.07C5.47992 163.39 5.25992 163.95 5.25992 164.7V172.52C5.25992 174.16 6.25992 176.07 7.48992 176.78L29.3599 189.3C29.7599 189.53 30.1199 189.59 30.4399 189.54C30.0299 189.93 29.4399 189.98 28.7699 189.6L6.89992 177.07C5.66992 176.36 4.66992 174.45 4.66992 172.81V164.99C4.66992 163.88 5.13992 163.19 5.81992 163.07Z" fill="white"/>
<path d="M22.1899 181.1L20.1799 179.94C19.9099 179.79 19.6899 179.37 19.6899 179.01V176.87C19.6899 176.51 19.9099 176.35 20.1799 176.5L22.1899 177.66C22.4599 177.81 22.6799 178.23 22.6799 178.59V180.73C22.6699 181.09 22.4599 181.25 22.1899 181.1Z" fill="#FF2C9C"/>
<path d="M15.48 177.22L13.47 176.06C13.2 175.91 12.98 175.49 12.98 175.13V172.99C12.98 172.63 13.2 172.47 13.47 172.62L15.48 173.78C15.75 173.93 15.97 174.35 15.97 174.71V176.85C15.97 177.21 15.75 177.38 15.48 177.22Z" fill="white"/>
<path d="M28.7699 217.84L6.89992 205.32C5.66992 204.61 4.66992 202.7 4.66992 201.06V193.24C4.66992 191.6 5.66992 190.85 6.89992 191.56L28.7699 204.08C29.9999 204.79 30.9999 206.7 30.9999 208.34V216.16C30.9899 217.8 29.9999 218.55 28.7699 217.84Z" fill="#173D7A"/>
<path d="M5.81992 191.33C5.47992 191.65 5.25992 192.21 5.25992 192.96V200.78C5.25992 202.42 6.25992 204.33 7.48992 205.04L29.3599 217.56C29.7599 217.79 30.1199 217.85 30.4399 217.8C30.0299 218.19 29.4399 218.24 28.7699 217.86L6.89992 205.32C5.66992 204.61 4.66992 202.7 4.66992 201.06V193.24C4.66992 192.13 5.13992 191.44 5.81992 191.33Z" fill="white"/>
<path d="M22.1899 209.35L20.1799 208.19C19.9099 208.04 19.6899 207.62 19.6899 207.26V205.12C19.6899 204.76 19.9099 204.6 20.1799 204.75L22.1899 205.91C22.4599 206.06 22.6799 206.48 22.6799 206.84V208.98C22.6699 209.34 22.4599 209.5 22.1899 209.35Z" fill="#396CAA"/>
<path d="M15.48 205.48L13.47 204.32C13.2 204.17 12.98 203.75 12.98 203.39V201.25C12.98 200.89 13.2 200.73 13.47 200.88L15.48 202.04C15.75 202.19 15.97 202.61 15.97 202.97V205.11C15.97 205.47 15.75 205.63 15.48 205.48Z" fill="white"/>
<path d="M28.7699 161.34L6.89992 148.82C5.66992 148.11 4.66992 146.2 4.66992 144.56V136.74C4.66992 135.1 5.66992 134.35 6.89992 135.06L28.7699 147.58C29.9999 148.29 30.9999 150.2 30.9999 151.84V159.66C30.9899 161.29 29.9999 162.05 28.7699 161.34Z" fill="#173D7A"/>
<path d="M5.81992 134.82C5.47992 135.14 5.25992 135.7 5.25992 136.45V144.27C5.25992 145.91 6.25992 147.82 7.48992 148.53L29.3599 161.05C29.7599 161.28 30.1199 161.34 30.4399 161.29C30.0299 161.68 29.4399 161.73 28.7699 161.35L6.89992 148.82C5.66992 148.11 4.66992 146.2 4.66992 144.56V136.74C4.66992 135.62 5.13992 134.93 5.81992 134.82Z" fill="white"/>
<path d="M22.1899 152.84L20.1799 151.68C19.9099 151.53 19.6899 151.11 19.6899 150.75V148.61C19.6899 148.25 19.9099 148.09 20.1799 148.24L22.1899 149.4C22.4599 149.55 22.6799 149.97 22.6799 150.33V152.47C22.6699 152.83 22.4599 153 22.1899 152.84Z" fill="#396CAA"/>
<path d="M15.48 148.97L13.47 147.81C13.2 147.66 12.98 147.24 12.98 146.88V144.74C12.98 144.38 13.2 144.22 13.47 144.37L15.48 145.53C15.75 145.68 15.97 146.1 15.97 146.46V148.6C15.97 148.96 15.75 149.12 15.48 148.97Z" fill="white"/>
<path d="M47.71 125.08L98.16 95.9501C99.29 95.3001 100.2 93.5501 100.2 92.0401V82.4201C100.2 80.9101 99.28 80.2201 98.16 80.8701L47.71 110C46.58 110.65 45.67 112.4 45.67 113.91V123.53C45.66 125.04 46.58 125.73 47.71 125.08Z" fill="#5793CE"/>
<path opacity="0.4" d="M49.1501 121.7L96.7001 94.2501C97.2701 93.9201 97.7401 93.0301 97.7401 92.2701V85.0401C97.7401 84.2801 97.2801 83.9301 96.7001 84.2601L49.1501 111.71C48.5801 112.04 48.1101 112.93 48.1101 113.69V120.92C48.1201 121.68 48.5801 122.03 49.1501 121.7Z" fill="#D4ECFF"/>
<path d="M86.8 96.31L93.9 92.21C94.46 91.89 94.91 91.03 94.91 90.29C94.91 89.55 94.46 89.21 93.9 89.53L86.8 93.63C86.24 93.95 85.79 94.81 85.79 95.55C85.79 96.3 86.24 96.64 86.8 96.31Z" fill="#D4ECFF"/>
<path d="M80.75 98.4601C80.75 99.2001 81.27 99.5001 81.91 99.1301C82.55 98.7601 83.07 97.8601 83.07 97.1201C83.07 96.3801 82.55 96.0801 81.91 96.4501C81.27 96.8201 80.75 97.7201 80.75 98.4601Z" fill="#173D7A"/>
<path d="M76.6499 100.83C76.6499 101.57 77.1699 101.87 77.8099 101.5C78.4499 101.13 78.9699 100.23 78.9699 99.4901C78.9699 98.7501 78.4499 98.4501 77.8099 98.8201C77.1699 99.1901 76.6499 100.09 76.6499 100.83Z" fill="#173D7A"/>
<path d="M72.54 103.2C72.54 103.94 73.06 104.24 73.7 103.87C74.34 103.5 74.86 102.6 74.86 101.86C74.86 101.12 74.34 100.82 73.7 101.19C73.06 101.56 72.54 102.46 72.54 103.2Z" fill="#D4ECFF"/>
<path d="M68.4399 105.57C68.4399 106.31 68.9599 106.61 69.5999 106.24C70.2399 105.87 70.7599 104.97 70.7599 104.23C70.7599 103.49 70.2399 103.19 69.5999 103.56C68.9599 103.93 68.4399 104.83 68.4399 105.57Z" fill="#173D7A"/>
<path d="M51.15 117.68L53.54 116.3C53.9 116.09 54.19 115.54 54.19 115.06V112.53C54.19 112.05 53.9 111.84 53.54 112.04L51.15 113.42C50.79 113.63 50.5 114.18 50.5 114.66V117.19C50.51 117.66 50.8 117.88 51.15 117.68Z" fill="#173D7A"/>
<path d="M47.71 142.04L98.16 112.91C99.29 112.26 100.2 110.51 100.2 109V99.38C100.2 97.87 99.28 97.18 98.16 97.83L47.71 126.96C46.58 127.61 45.67 129.36 45.67 130.87V140.49C45.66 142 46.58 142.69 47.71 142.04Z" fill="#5793CE"/>
<path opacity="0.4" d="M49.1501 138.67L96.7001 111.22C97.2701 110.89 97.7401 110 97.7401 109.24V102C97.7401 101.24 97.2801 100.89 96.7001 101.22L49.1501 128.67C48.5801 129 48.1101 129.89 48.1101 130.65V137.88C48.1201 138.65 48.5801 139 49.1501 138.67Z" fill="#D4ECFF"/>
<path d="M86.8 113.28L93.9 109.18C94.46 108.86 94.91 108 94.91 107.26C94.91 106.52 94.46 106.18 93.9 106.5L86.8 110.6C86.24 110.92 85.79 111.78 85.79 112.52C85.79 113.26 86.24 113.6 86.8 113.28Z" fill="#D4ECFF"/>
<path d="M80.75 115.43C80.75 116.17 81.27 116.47 81.91 116.1C82.55 115.73 83.07 114.83 83.07 114.09C83.07 113.35 82.55 113.05 81.91 113.42C81.27 113.78 80.75 114.69 80.75 115.43Z" fill="white"/>
<path d="M76.6499 117.8C76.6499 118.54 77.1699 118.84 77.8099 118.47C78.4499 118.1 78.9699 117.2 78.9699 116.46C78.9699 115.72 78.4499 115.42 77.8099 115.79C77.1699 116.15 76.6499 117.05 76.6499 117.8Z" fill="#173D7A"/>
<path d="M72.54 120.17C72.54 120.91 73.06 121.21 73.7 120.84C74.34 120.47 74.86 119.57 74.86 118.83C74.86 118.09 74.34 117.79 73.7 118.16C73.06 118.52 72.54 119.42 72.54 120.17Z" fill="#D4ECFF"/>
<path d="M68.4399 122.53C68.4399 123.27 68.9599 123.57 69.5999 123.2C70.2399 122.83 70.7599 121.93 70.7599 121.19C70.7599 120.45 70.2399 120.15 69.5999 120.52C68.9599 120.89 68.4399 121.79 68.4399 122.53Z" fill="#173D7A"/>
<path d="M51.15 134.64L53.54 133.26C53.9 133.05 54.19 132.5 54.19 132.02V129.49C54.19 129.01 53.9 128.8 53.54 129L51.15 130.38C50.79 130.59 50.5 131.14 50.5 131.62V134.15C50.51 134.63 50.8 134.85 51.15 134.64Z" fill="#173D7A"/>
<path d="M47.71 159L98.16 129.87C99.29 129.22 100.2 127.47 100.2 125.96V116.34C100.2 114.83 99.28 114.14 98.16 114.79L47.71 143.92C46.58 144.57 45.67 146.32 45.67 147.83V157.45C45.66 158.96 46.58 159.66 47.71 159Z" fill="#5793CE"/>
<path opacity="0.4" d="M49.1501 155.63L96.7001 128.18C97.2701 127.85 97.7401 126.96 97.7401 126.2V118.97C97.7401 118.21 97.2801 117.86 96.7001 118.19L49.1501 145.64C48.5801 145.97 48.1101 146.86 48.1101 147.62V154.85C48.1201 155.61 48.5801 155.96 49.1501 155.63Z" fill="#D4ECFF"/>
<path d="M86.8 130.24L93.9 126.14C94.46 125.82 94.91 124.96 94.91 124.22C94.91 123.48 94.46 123.14 93.9 123.46L86.8 127.56C86.24 127.88 85.79 128.74 85.79 129.48C85.79 130.22 86.24 130.56 86.8 130.24Z" fill="#D4ECFF"/>
<path d="M80.75 132.39C80.75 133.13 81.27 133.43 81.91 133.06C82.55 132.69 83.07 131.79 83.07 131.05C83.07 130.31 82.55 130.01 81.91 130.38C81.27 130.75 80.75 131.65 80.75 132.39Z" fill="white"/>
<path d="M76.6499 134.76C76.6499 135.5 77.1699 135.8 77.8099 135.43C78.4499 135.06 78.9699 134.16 78.9699 133.42C78.9699 132.68 78.4499 132.38 77.8099 132.75C77.1699 133.12 76.6499 134.02 76.6499 134.76Z" fill="#173D7A"/>
<path d="M72.54 137.13C72.54 137.87 73.06 138.17 73.7 137.8C74.34 137.43 74.86 136.53 74.86 135.79C74.86 135.05 74.34 134.75 73.7 135.12C73.06 135.49 72.54 136.39 72.54 137.13Z" fill="#D4ECFF"/>
<path d="M68.4399 139.5C68.4399 140.24 68.9599 140.54 69.5999 140.17C70.2399 139.8 70.7599 138.9 70.7599 138.16C70.7599 137.42 70.2399 137.12 69.5999 137.49C68.9599 137.85 68.4399 138.76 68.4399 139.5Z" fill="#173D7A"/>
<path d="M51.15 151.6L53.54 150.22C53.9 150.01 54.19 149.46 54.19 148.98V146.45C54.19 145.97 53.9 145.76 53.54 145.96L51.15 147.34C50.79 147.55 50.5 148.1 50.5 148.58V151.11C50.51 151.59 50.8 151.81 51.15 151.6Z" fill="#173D7A"/>
<path d="M47.71 175.97L98.16 146.84C99.29 146.19 100.2 144.44 100.2 142.93V133.31C100.2 131.8 99.28 131.11 98.16 131.76L47.71 160.9C46.58 161.55 45.67 163.3 45.67 164.81V174.43C45.66 175.93 46.58 176.62 47.71 175.97Z" fill="#5793CE"/>
<path opacity="0.4" d="M49.1501 172.6L96.7001 145.15C97.2701 144.82 97.7401 143.93 97.7401 143.17V135.94C97.7401 135.18 97.2801 134.82 96.7001 135.16L49.1501 162.6C48.5801 162.93 48.1101 163.82 48.1101 164.58V171.81C48.1201 172.57 48.5801 172.93 49.1501 172.6Z" fill="#D4ECFF"/>
<path d="M86.8 147.21L93.9 143.11C94.46 142.79 94.91 141.93 94.91 141.19C94.91 140.45 94.46 140.11 93.9 140.43L86.8 144.53C86.24 144.85 85.79 145.71 85.79 146.45C85.79 147.19 86.24 147.53 86.8 147.21Z" fill="#D4ECFF"/>
<path d="M80.75 149.35C80.75 150.09 81.27 150.39 81.91 150.02C82.55 149.65 83.07 148.75 83.07 148.01C83.07 147.27 82.55 146.97 81.91 147.34C81.27 147.71 80.75 148.61 80.75 149.35Z" fill="#173D7A"/>
<path d="M76.6499 151.72C76.6499 152.46 77.1699 152.76 77.8099 152.39C78.4499 152.02 78.9699 151.12 78.9699 150.38C78.9699 149.64 78.4499 149.34 77.8099 149.71C77.1699 150.08 76.6499 150.98 76.6499 151.72Z" fill="#173D7A"/>
<path d="M72.54 154.09C72.54 154.83 73.06 155.13 73.7 154.76C74.34 154.39 74.86 153.49 74.86 152.75C74.86 152.01 74.34 151.71 73.7 152.08C73.06 152.45 72.54 153.35 72.54 154.09Z" fill="#D4ECFF"/>
<path d="M68.4399 156.46C68.4399 157.2 68.9599 157.5 69.5999 157.13C70.2399 156.76 70.7599 155.86 70.7599 155.12C70.7599 154.38 70.2399 154.08 69.5999 154.45C68.9599 154.82 68.4399 155.72 68.4399 156.46Z" fill="#173D7A"/>
<path d="M51.15 168.57L53.54 167.19C53.9 166.98 54.19 166.43 54.19 165.95V163.42C54.19 162.94 53.9 162.73 53.54 162.93L51.15 164.31C50.79 164.52 50.5 165.07 50.5 165.55V168.08C50.51 168.56 50.8 168.77 51.15 168.57Z" fill="#D4ECFF"/>
<path d="M47.71 192.93L98.16 163.8C99.29 163.15 100.2 161.4 100.2 159.89V150.27C100.2 148.76 99.28 148.07 98.16 148.72L47.71 177.85C46.58 178.5 45.67 180.25 45.67 181.76V191.38C45.66 192.89 46.58 193.58 47.71 192.93Z" fill="#5793CE"/>
<path opacity="0.4" d="M49.1501 189.56L96.7001 162.11C97.2701 161.78 97.7401 160.89 97.7401 160.13V152.9C97.7401 152.14 97.2801 151.79 96.7001 152.12L49.1501 179.57C48.5801 179.9 48.1101 180.79 48.1101 181.55V188.78C48.1201 189.54 48.5801 189.89 49.1501 189.56Z" fill="#D4ECFF"/>
<path d="M86.8 164.17L93.9 160.07C94.46 159.75 94.91 158.89 94.91 158.15C94.91 157.41 94.46 157.07 93.9 157.39L86.8 161.49C86.24 161.81 85.79 162.67 85.79 163.41C85.79 164.15 86.24 164.49 86.8 164.17Z" fill="#D4ECFF"/>
<path d="M80.75 166.32C80.75 167.06 81.27 167.36 81.91 166.99C82.55 166.62 83.07 165.72 83.07 164.98C83.07 164.24 82.55 163.94 81.91 164.31C81.27 164.67 80.75 165.58 80.75 166.32Z" fill="#173D7A"/>
<path d="M76.6499 168.69C76.6499 169.43 77.1699 169.73 77.8099 169.36C78.4499 168.99 78.9699 168.09 78.9699 167.35C78.9699 166.61 78.4499 166.31 77.8099 166.68C77.1699 167.04 76.6499 167.95 76.6499 168.69Z" fill="white"/>
<path d="M72.54 171.06C72.54 171.8 73.06 172.1 73.7 171.73C74.34 171.36 74.86 170.46 74.86 169.72C74.86 168.98 74.34 168.68 73.7 169.05C73.06 169.42 72.54 170.31 72.54 171.06Z" fill="#D4ECFF"/>
<path d="M68.4399 173.43C68.4399 174.17 68.9599 174.47 69.5999 174.1C70.2399 173.73 70.7599 172.83 70.7599 172.09C70.7599 171.35 70.2399 171.05 69.5999 171.42C68.9599 171.78 68.4399 172.68 68.4399 173.43Z" fill="white"/>
<path d="M51.15 185.53L53.54 184.15C53.9 183.94 54.19 183.39 54.19 182.91V180.38C54.19 179.9 53.9 179.69 53.54 179.89L51.15 181.27C50.79 181.48 50.5 182.03 50.5 182.51V185.04C50.51 185.52 50.8 185.74 51.15 185.53Z" fill="#D4ECFF"/>
<path d="M47.71 209.9L98.16 180.77C99.29 180.12 100.2 178.37 100.2 176.86V167.24C100.2 165.73 99.28 165.04 98.16 165.69L47.71 194.82C46.58 195.47 45.67 197.22 45.67 198.73V208.35C45.66 209.86 46.58 210.55 47.71 209.9Z" fill="#5793CE"/>
<path opacity="0.4" d="M49.1501 206.52L96.7001 179.07C97.2701 178.74 97.7401 177.85 97.7401 177.09V169.86C97.7401 169.1 97.2801 168.75 96.7001 169.08L49.1501 196.53C48.5801 196.86 48.1101 197.75 48.1101 198.51V205.74C48.1201 206.5 48.5801 206.85 49.1501 206.52Z" fill="#D4ECFF"/>
<path d="M86.8 181.13L93.9 177.03C94.46 176.71 94.91 175.85 94.91 175.11C94.91 174.37 94.46 174.03 93.9 174.35L86.8 178.45C86.24 178.77 85.79 179.63 85.79 180.37C85.79 181.11 86.24 181.45 86.8 181.13Z" fill="#D4ECFF"/>
<path d="M80.75 183.28C80.75 184.02 81.27 184.32 81.91 183.95C82.55 183.58 83.07 182.68 83.07 181.94C83.07 181.2 82.55 180.9 81.91 181.27C81.27 181.64 80.75 182.54 80.75 183.28Z" fill="#173D7A"/>
<path d="M76.6499 185.65C76.6499 186.39 77.1699 186.69 77.8099 186.32C78.4499 185.95 78.9699 185.05 78.9699 184.31C78.9699 183.57 78.4499 183.27 77.8099 183.64C77.1699 184.01 76.6499 184.91 76.6499 185.65Z" fill="#173D7A"/>
<path d="M72.54 188.02C72.54 188.76 73.06 189.06 73.7 188.69C74.34 188.32 74.86 187.42 74.86 186.68C74.86 185.94 74.34 185.64 73.7 186.01C73.06 186.38 72.54 187.28 72.54 188.02Z" fill="#D4ECFF"/>
<path d="M68.4399 190.39C68.4399 191.13 68.9599 191.43 69.5999 191.06C70.2399 190.69 70.7599 189.79 70.7599 189.05C70.7599 188.31 70.2399 188.01 69.5999 188.38C68.9599 188.75 68.4399 189.65 68.4399 190.39Z" fill="#173D7A"/>
<path d="M51.15 202.5L53.54 201.12C53.9 200.91 54.19 200.36 54.19 199.88V197.35C54.19 196.87 53.9 196.66 53.54 196.86L51.15 198.24C50.79 198.45 50.5 199 50.5 199.48V202.01C50.51 202.48 50.8 202.7 51.15 202.5Z" fill="#173D7A"/>
<path d="M47.71 226.86L98.16 197.73C99.29 197.08 100.2 195.33 100.2 193.82V184.2C100.2 182.69 99.28 182 98.16 182.65L47.71 211.78C46.58 212.43 45.67 214.18 45.67 215.69V225.31C45.66 226.82 46.58 227.51 47.71 226.86Z" fill="#5793CE"/>
<path opacity="0.4" d="M49.1501 223.49L96.7001 196.04C97.2701 195.71 97.7401 194.82 97.7401 194.06V186.83C97.7401 186.07 97.2801 185.72 96.7001 186.05L49.1501 213.5C48.5801 213.83 48.1101 214.72 48.1101 215.48V222.71C48.1201 223.47 48.5801 223.82 49.1501 223.49Z" fill="#D4ECFF"/>
<path d="M86.8 198.1L93.9 194C94.46 193.68 94.91 192.82 94.91 192.08C94.91 191.34 94.46 191 93.9 191.32L86.8 195.42C86.24 195.74 85.79 196.6 85.79 197.34C85.79 198.08 86.24 198.42 86.8 198.1Z" fill="#D4ECFF"/>
<path d="M79.45 201.16C79.45 202.56 80.43 203.13 81.65 202.43C82.86 201.73 83.85 200.03 83.85 198.62C83.85 197.22 82.87 196.65 81.65 197.35C80.44 198.06 79.45 199.76 79.45 201.16Z" fill="white"/>
<path d="M70.95 206.14C70.95 206.88 71.47 207.18 72.11 206.81C72.75 206.44 73.27 205.54 73.27 204.8C73.27 204.06 72.75 203.76 72.11 204.13C71.47 204.49 70.95 205.4 70.95 206.14Z" fill="#173D7A"/>
<path d="M66.8501 208.51C66.8501 209.25 67.3701 209.55 68.0101 209.18C68.6501 208.81 69.1701 207.91 69.1701 207.17C69.1701 206.43 68.6501 206.13 68.0101 206.5C67.3701 206.86 66.8501 207.76 66.8501 208.51Z" fill="#D4ECFF"/>
<path d="M62.75 210.88C62.75 211.62 63.27 211.92 63.91 211.55C64.55 211.18 65.07 210.28 65.07 209.54C65.07 208.8 64.55 208.5 63.91 208.87C63.27 209.23 62.75 210.13 62.75 210.88Z" fill="#173D7A"/>
<path d="M51.15 219.46L53.54 218.08C53.9 217.87 54.19 217.32 54.19 216.84V214.31C54.19 213.83 53.9 213.62 53.54 213.82L51.15 215.2C50.79 215.41 50.5 215.96 50.5 216.44V218.97C50.51 219.45 50.8 219.67 51.15 219.46Z" fill="#D4ECFF"/>
<path opacity="0.3" d="M246.91 54.58L228.97 44.22L246.91 33.86L264.85 44.22L246.91 54.58Z" fill="#173D7A"/>
<path d="M264.85 31.07L246.91 41.43V20.71L264.85 10.36V31.07Z" fill="#173D7A"/>
<path d="M246.91 20.71L228.97 10.36L246.91 0L264.84 10.36L246.91 20.71Z" fill="#D4ECFF"/>
<path d="M246.91 41.43L228.97 31.07V10.36L246.91 20.71V41.43Z" fill="#5793CE"/>
<path d="M240.45 30.24L235.43 27.34V21.55L240.45 24.4401V30.24Z" fill="white"/>
</svg>
