<?xml version="1.0" encoding="utf-8"?>
<!-- Generator: Adobe Illustrator 24.0.2, SVG Export Plug-In . SVG Version: 6.00 Build 0)  -->
<svg version="1.1" id="Layer_1" xmlns="http://www.w3.org/2000/svg" xmlns:xlink="http://www.w3.org/1999/xlink" x="0px" y="0px"
	 viewBox="0 0 60 60" style="enable-background:new 0 0 60 60;" xml:space="preserve">
<style type="text/css">
	.st0{fill:none;}
</style>
<rect class="st0" width="60" height="60"/>
<path d="M54.6,8H30H5.4C2.4,8,0,9.9,0,12.2c0,0.6,0.2,1.2,0.5,1.8c4,6.4,10.7,15.5,16.6,23.5c3.1,4.2,6,8.1,8.1,11.1
	c1,1.4,2.8,2.3,4.7,2.3c2,0,3.7-0.8,4.7-2.3c2.1-3,5-6.9,8.1-11.1c5.9-8,12.6-17.1,16.6-23.5c0.4-0.6,0.5-1.2,0.5-1.8
	C60,9.9,57.6,8,54.6,8z"/>
</svg>
