<?xml version="1.0" encoding="utf-8"?>
<!-- Generator: Adobe Illustrator 24.0.2, SVG Export Plug-In . SVG Version: 6.00 Build 0)  -->
<svg version="1.1" id="Layer_1" xmlns="http://www.w3.org/2000/svg" xmlns:xlink="http://www.w3.org/1999/xlink" x="0px" y="0px"
	 viewBox="0 0 60 61" style="enable-background:new 0 0 60 61;" xml:space="preserve">
<style type="text/css">
	.st0{fill:none;}
</style>
<rect y="1" class="st0" width="60" height="60"/>
<path d="M44.1,10.8H31.6c-0.7,0-1.3,0.6-1.3,1.3c0,0.7,0.6,1.2,1.3,1.2h12.5c0.7,0,1.2-0.6,1.2-1.2C45.3,11.4,44.8,10.8,44.1,10.8z"
	/>
<path d="M44.1,15.8H31.6c-0.7,0-1.3,0.6-1.3,1.3c0,0.7,0.6,1.2,1.3,1.2h12.5c0.7,0,1.2-0.6,1.2-1.2C45.3,16.4,44.8,15.8,44.1,15.8z"
	/>
<path d="M39.1,20.8h-7.5c-0.7,0-1.3,0.6-1.3,1.3c0,0.7,0.6,1.2,1.3,1.2h7.5c0.7,0,1.2-0.6,1.2-1.2C40.3,21.4,39.8,20.8,39.1,20.8z"
	/>
<path d="M50.3,20.8V7c0-0.3-0.1-0.7-0.4-0.9l-5-5c-0.2-0.2-0.5-0.4-0.9-0.4H30.3c-2.8,0-5,2.2-5,5v15h-2.5c0-2.8-2.2-5-5-5h-2.5
	c-2.8,0-5,2.2-5,5c-2.8,0-5,2.2-5,5v30c0,2.8,2.2,5,5,5h40c2.8,0,5-2.2,5-5v-30C55.3,23,53.1,20.8,50.3,20.8z M20.3,23.3
	c0,1-0.7,2-1.7,2.3c-0.5,0.2-0.8,0.6-0.8,1.2v18c0,0.5,0.3,1,0.8,1.2c1,0.4,1.7,1.3,1.7,2.3v2.5c0,1.4-1.1,2.5-2.5,2.5h-2.5
	c-1.4,0-2.5-1.1-2.5-2.5v-2.5c0-1,0.7-2,1.7-2.3c0.5-0.2,0.8-0.6,0.8-1.2v-18c0-0.5-0.3-1-0.8-1.2c-1-0.4-1.7-1.3-1.7-2.3v-2.5
	c0-1.4,1.1-2.5,2.5-2.5h2.5c1.4,0,2.5,1.1,2.5,2.5L20.3,23.3L20.3,23.3z M27.8,5.8c0-1.4,1.1-2.5,2.5-2.5h12.5v1.9
	c0,1.7,1.4,3.1,3.1,3.1h1.9v17.5h-20V5.8z M32.8,55.8c-1.4,0-2.5-1.1-2.5-2.5c0-1.4,1.1-2.5,2.5-2.5c1.4,0,2.5,1.1,2.5,2.5
	C35.3,54.7,34.2,55.8,32.8,55.8z M32.8,48.3c-1.4,0-2.5-1.1-2.5-2.5c0-1.4,1.1-2.5,2.5-2.5c1.4,0,2.5,1.1,2.5,2.5
	C35.3,47.2,34.2,48.3,32.8,48.3z M32.8,40.8c-1.4,0-2.5-1.1-2.5-2.5c0-1.4,1.1-2.5,2.5-2.5c1.4,0,2.5,1.1,2.5,2.5
	C35.3,39.7,34.2,40.8,32.8,40.8z M40.3,55.8c-1.4,0-2.5-1.1-2.5-2.5c0-1.4,1.1-2.5,2.5-2.5c1.4,0,2.5,1.1,2.5,2.5
	C42.8,54.7,41.7,55.8,40.3,55.8z M40.3,48.3c-1.4,0-2.5-1.1-2.5-2.5c0-1.4,1.1-2.5,2.5-2.5c1.4,0,2.5,1.1,2.5,2.5
	C42.8,47.2,41.7,48.3,40.3,48.3z M40.3,40.8c-1.4,0-2.5-1.1-2.5-2.5c0-1.4,1.1-2.5,2.5-2.5c1.4,0,2.5,1.1,2.5,2.5
	C42.8,39.7,41.7,40.8,40.3,40.8z M47.8,55.8c-1.4,0-2.5-1.1-2.5-2.5c0-1.4,1.1-2.5,2.5-2.5c1.4,0,2.5,1.1,2.5,2.5
	C50.3,54.7,49.2,55.8,47.8,55.8z M47.8,48.3c-1.4,0-2.5-1.1-2.5-2.5c0-1.4,1.1-2.5,2.5-2.5c1.4,0,2.5,1.1,2.5,2.5
	C50.3,47.2,49.2,48.3,47.8,48.3z M47.8,40.8c-1.4,0-2.5-1.1-2.5-2.5c0-1.4,1.1-2.5,2.5-2.5c1.4,0,2.5,1.1,2.5,2.5
	C50.3,39.7,49.2,40.8,47.8,40.8z"/>
</svg>
