<?xml version="1.0" encoding="utf-8"?>
<!-- Generator: Adobe Illustrator 24.0.2, SVG Export Plug-In . SVG Version: 6.00 Build 0)  -->
<svg version="1.1" id="Layer_1" xmlns="http://www.w3.org/2000/svg" xmlns:xlink="http://www.w3.org/1999/xlink" x="0px" y="0px"
	 viewBox="0 0 60 60" style="enable-background:new 0 0 60 60;" xml:space="preserve">
<style type="text/css">
	.st0{fill:none;}
	.st1{fill-rule:evenodd;clip-rule:evenodd;}
</style>
<rect class="st0" width="60" height="60"/>
<path class="st1" d="M57.85,8.21h-34.8C22.16,5.76,19.81,4,17.05,4c-2.76,0-5.11,1.76-5.99,4.21H2.15C0.96,8.21,0,9.18,0,10.37
	c0,1.19,0.96,2.15,2.15,2.15h8.9c0.88,2.46,3.23,4.21,5.99,4.21c2.76,0,5.11-1.76,5.99-4.21h34.8c1.19,0,2.15-0.96,2.15-2.15
	C60,9.18,59.04,8.21,57.85,8.21z M17.05,12.58c-1.22,0-2.21-0.99-2.21-2.21c0-1.22,0.99-2.21,2.21-2.21c1.22,0,2.21,0.99,2.21,2.21
	C19.26,11.59,18.27,12.58,17.05,12.58z M57.85,46.77h-34.8c-0.88-2.46-3.23-4.21-5.99-4.21c-2.76,0-5.11,1.76-5.99,4.21h-8.9
	C0.96,46.77,0,47.73,0,48.92c0,1.19,0.96,2.15,2.15,2.15h8.9c0.88,2.46,3.23,4.21,5.99,4.21c2.76,0,5.11-1.76,5.99-4.21h34.8
	c1.19,0,2.15-0.96,2.15-2.15C60,47.73,59.04,46.77,57.85,46.77z M17.05,51.14c-1.22,0-2.21-0.99-2.21-2.21
	c0-1.22,0.99-2.21,2.21-2.21c1.22,0,2.21,0.99,2.21,2.21C19.26,50.15,18.27,51.14,17.05,51.14z M48.94,27.49h8.9
	c1.19,0,2.15,0.96,2.15,2.15c0,1.19-0.96,2.15-2.15,2.15h-8.9c-0.88,2.46-3.23,4.21-5.99,4.21c-2.76,0-5.11-1.76-5.99-4.21H2.15
	C0.96,31.8,0,30.83,0,29.64c0-1.19,0.96-2.15,2.15-2.15h34.8c0.88-2.46,3.23-4.21,5.99-4.21C45.71,23.28,48.06,25.04,48.94,27.49z
	 M40.74,29.64c0,1.22,0.99,2.21,2.21,2.21c1.22,0,2.21-0.99,2.21-2.21c0-1.22-0.99-2.21-2.21-2.21
	C41.73,27.43,40.74,28.42,40.74,29.64z"/>
</svg>
