<?xml version="1.0" encoding="utf-8"?>
<!-- Generator: Adobe Illustrator 24.0.2, SVG Export Plug-In . SVG Version: 6.00 Build 0)  -->
<svg version="1.1" id="Layer_1" xmlns="http://www.w3.org/2000/svg" xmlns:xlink="http://www.w3.org/1999/xlink" x="0px" y="0px"
	 viewBox="0 0 60 60" style="enable-background:new 0 0 60 60;" xml:space="preserve">
<style type="text/css">
	.st0{fill:none;}
</style>
<rect class="st0" width="60" height="60"/>
<path d="M52.5,26.1v-7.5h-3.8v7.5h-7.5v3.8h7.5v7.5h3.8v-7.5H60v-3.8C60,26.1,52.5,26.1,52.5,26.1z"/>
<path d="M18.7,26.1v7.5h10.6c-1.5,4.4-5.7,7.5-10.6,7.5c-6.2,0-11.2-5.1-11.2-11.3s5-11.3,11.2-11.3c2.7,0,5.3,1,7.3,2.7l4.9-5.7
	c-3.4-3-7.7-4.6-12.2-4.6C8.4,11,0,19.4,0,29.8s8.4,18.8,18.7,18.8s18.7-8.4,18.7-18.8V26H18.7V26.1z"/>
</svg>
