<svg width="171" height="35" viewBox="0 0 171 35" fill="none" xmlns="http://www.w3.org/2000/svg">
<rect x="91.1111" width="35" height="35" rx="10" fill="#BFCADA"/>
<path fill-rule="evenodd" clip-rule="evenodd" d="M118.175 11.1894C118.13 10.4739 117.668 9.84187 117 9.57907L109.156 6.49321C108.717 6.32054 108.234 6.32038 107.795 6.49321L99.9507 9.57907C99.2824 9.84187 98.8212 10.4739 98.7757 11.1894C98.7321 11.8724 98.581 15.473 99.8896 19.2769C100.544 21.1797 101.463 22.8379 102.619 24.2053C104.011 25.8506 105.76 27.086 107.816 27.8772C108.028 27.9591 108.252 28 108.475 28C108.699 28 108.923 27.9591 109.135 27.8772C111.191 27.086 112.94 25.8506 114.332 24.2053C115.488 22.8379 116.407 21.1797 117.061 19.2769C118.37 15.473 118.219 11.8724 118.175 11.1894ZM116.46 19.0701C115.831 20.8979 114.952 22.4876 113.846 23.7946C112.524 25.3574 110.862 26.5314 108.907 27.2838C108.629 27.3907 108.322 27.3907 108.044 27.2838C106.089 26.5314 104.427 25.3574 103.105 23.7946C101.999 22.4876 101.12 20.8981 100.491 19.0701C99.2217 15.3807 99.3679 11.8917 99.4102 11.2298C99.4401 10.7595 99.7436 10.3439 100.184 10.1709L108.027 7.08483C108.172 7.02804 108.324 6.99965 108.475 6.99965C108.627 6.99965 108.779 7.02804 108.923 7.08483L116.767 10.1709C117.207 10.3439 117.511 10.7595 117.541 11.2298C117.583 11.8917 117.729 15.3807 116.46 19.0701ZM115.174 11.1152L109.034 8.6999C108.674 8.55827 108.277 8.55827 107.918 8.6999L101.778 11.1152C101.23 11.3308 100.852 11.8492 100.814 12.4357C100.787 12.8574 100.745 14.0015 100.935 15.5113C100.957 15.6856 101.116 15.8091 101.29 15.7871C101.465 15.7652 101.588 15.6062 101.566 15.4319C101.383 13.9759 101.423 12.8797 101.449 12.4761C101.471 12.1346 101.691 11.8326 102.011 11.707L108.15 9.29152C108.36 9.20898 108.591 9.20898 108.801 9.29152L114.941 11.707C115.26 11.8326 115.481 12.1346 115.502 12.4761C115.546 13.1567 115.817 19.2348 112.043 22.9838C111.918 23.1074 111.918 23.3088 112.042 23.4334C112.104 23.496 112.186 23.5272 112.267 23.5272C112.348 23.5272 112.429 23.4965 112.491 23.4349C116.465 19.4882 116.182 13.1458 116.137 12.4357C116.1 11.8492 115.722 11.3308 115.174 11.1152ZM108.789 25.0757C109.57 24.775 110.298 24.3832 110.95 23.9116C111.093 23.8088 111.291 23.8408 111.394 23.9831C111.497 24.1256 111.465 24.3243 111.323 24.427C110.625 24.9308 109.85 25.3488 109.017 25.6692C108.842 25.7363 108.659 25.7699 108.476 25.7699C108.292 25.7699 108.109 25.7363 107.934 25.6692C103.517 23.9692 101.826 20.0199 101.186 17.0062C101.15 16.8343 101.26 16.6656 101.431 16.6291C101.603 16.5927 101.772 16.7023 101.808 16.8741C102.416 19.734 104.011 23.4782 108.163 25.0757C108.365 25.1533 108.587 25.1533 108.789 25.0757ZM108.476 12.4534C105.869 12.4534 103.747 14.5745 103.747 17.1816C103.747 19.7889 105.869 21.9099 108.476 21.9099C111.083 21.9099 113.204 19.7889 113.204 17.1818C113.204 14.5746 111.083 12.4534 108.476 12.4534ZM108.476 21.2741C106.219 21.2741 104.383 19.4383 104.383 17.1818C104.383 14.9252 106.219 13.0893 108.476 13.0893C110.732 13.0893 112.568 14.9252 112.568 17.1818C112.568 19.4383 110.732 21.2741 108.476 21.2741ZM111.101 15.1298C111.339 15.3363 111.482 15.6352 111.492 15.9502C111.502 16.265 111.38 16.5727 111.156 16.7944L108.674 19.2498C108.452 19.469 108.164 19.58 107.876 19.58C107.616 19.58 107.356 19.4902 107.142 19.3086L105.859 18.2216C105.623 18.0212 105.481 17.7404 105.461 17.4311C105.44 17.1217 105.544 16.8247 105.752 16.5948C106.17 16.1318 106.889 16.0948 107.353 16.5123L107.777 16.8941L109.461 15.1356C109.88 14.6983 110.566 14.6664 111.024 15.0629L111.101 15.1298ZM108.226 18.7977L110.709 16.3422C110.809 16.2434 110.861 16.1116 110.856 15.9712C110.852 15.8305 110.791 15.7024 110.685 15.6105L110.607 15.5435C110.406 15.3691 110.104 15.3832 109.92 15.5755L108.197 17.3744C107.98 17.6014 107.627 17.6145 107.393 17.4043L106.927 16.985C106.832 16.8994 106.713 16.8573 106.594 16.8573C106.457 16.8573 106.322 16.9126 106.223 17.0212C106.132 17.1224 106.086 17.2529 106.095 17.389C106.104 17.525 106.167 17.6485 106.271 17.7366L107.553 18.8236C107.752 18.992 108.041 18.9809 108.226 18.7977Z" fill="white"/>
<rect width="35" height="35" rx="10" fill="#BFCADA"/>
<path fill-rule="evenodd" clip-rule="evenodd" d="M23.9812 6.36365H21.6877C21.5127 6.36365 21.3709 6.50546 21.3709 6.68048C21.3709 6.8555 21.5127 6.99732 21.6877 6.99732H23.9812C24.1396 6.99732 24.2686 7.12625 24.2686 7.28475V9.07146H13.4866V6.99732H20.2514C20.4264 6.99732 20.5682 6.8555 20.5682 6.68048C20.5682 6.50546 20.4264 6.36365 20.2514 6.36365H10.4665C9.95861 6.36365 9.54541 6.77684 9.54541 7.28475V27.0799C9.54541 27.5872 9.95818 28 10.4655 28H23.9821C24.4895 28 24.9022 27.5872 24.9022 27.0799V7.28475C24.9022 6.77684 24.4891 6.36365 23.9812 6.36365ZM10.1791 7.28475C10.1791 7.12625 10.308 6.99732 10.4665 6.99732H12.8529V9.07146H10.1791V7.28475ZM24.2686 27.0799C24.2686 27.2378 24.1401 27.3663 23.9821 27.3663H10.4655C10.3076 27.3663 10.1791 27.2378 10.1791 27.0799V9.7072H24.2686V27.0799ZM11.7736 22.2435L22.6744 22.2432C22.9656 22.2432 23.2024 22.0064 23.2024 21.7152V19.9853C23.2024 19.6942 22.9656 19.4573 22.6744 19.4573H11.7736C11.4824 19.4573 11.2455 19.6942 11.2455 19.9854V21.7154C11.2455 22.0066 11.4824 22.2435 11.7736 22.2435ZM21.1612 20.091H22.5688V21.6096H21.1612V20.091ZM11.8792 20.091H20.5275V21.6098H11.8792V20.091ZM14.51 22.8518H19.9376C20.2288 22.8518 20.4657 23.0886 20.4657 23.3798V25.1095C20.4657 25.4007 20.2288 25.6376 19.9376 25.6376H14.51C14.2188 25.6376 13.982 25.4007 13.982 25.1095V23.3798C13.982 23.0886 14.2188 22.8518 14.51 22.8518ZM14.6156 25.0039H19.832V23.4854H14.6156V25.0039ZM12.5859 17.7771C13.0145 18.0509 13.4964 18.1901 14.0221 18.1908C14.4667 18.1908 14.8859 18.0932 15.268 17.9008C16.2131 17.4248 16.7336 16.63 16.7336 15.6627V12.5483C16.7336 11.9353 16.2349 11.4366 15.6219 11.4366C15.0089 11.4366 14.5101 11.9353 14.5101 12.5483V15.6627C14.5101 15.7207 14.5101 15.793 14.268 15.9149C14.1969 15.9507 14.1188 15.9673 14.021 15.9673C13.9267 15.9672 13.8511 15.9469 13.7829 15.9033C13.5854 15.7771 13.5854 15.7329 13.5854 15.666V15.1611C13.5854 14.986 13.4436 14.8442 13.2686 14.8442C13.0936 14.8442 12.9517 14.986 12.9517 15.1611V15.666C12.9517 15.9915 13.0937 16.2149 13.4417 16.4372C13.6113 16.5456 13.806 16.6007 14.0222 16.601C14.2187 16.601 14.3924 16.5617 14.553 16.4808C15.0826 16.2141 15.1438 15.8862 15.1438 15.6627V12.5483C15.1438 12.2847 15.3583 12.0703 15.6219 12.0703C15.8855 12.0703 16.1 12.2847 16.1 12.5483V15.6627C16.1 16.3887 15.7137 16.9669 14.983 17.3348C14.6901 17.4823 14.3668 17.5572 14.019 17.5572C13.6198 17.5566 13.2524 17.4509 12.927 17.2431C12.3003 16.8426 11.9956 16.3268 11.9956 15.666V12.5483C11.9956 12.2847 12.21 12.0703 12.4737 12.0703C12.7373 12.0703 12.9517 12.2847 12.9517 12.5483V13.6965C12.9517 13.8715 13.0936 14.0134 13.2686 14.0134C13.4436 14.0134 13.5854 13.8715 13.5854 13.6965V12.5483C13.5854 11.9353 13.0867 11.4366 12.4737 11.4366C11.8606 11.4366 11.3619 11.9353 11.3619 12.5483V15.666C11.3619 16.5355 11.7851 17.2655 12.5859 17.7771ZM17.6464 17.9185C17.4093 17.7398 17.256 17.4794 17.2148 17.1852C17.1735 16.8912 17.2493 16.5986 17.4281 16.3616L18.7147 14.6552L17.6016 13.1886C17.2311 12.7003 17.3268 12.0015 17.8151 11.6309C18.3034 11.2603 19.0022 11.3562 19.3728 11.8444L20.1059 12.8103L20.8321 11.8472C21.0108 11.6101 21.2712 11.4568 21.5653 11.4155C21.8594 11.3743 22.1519 11.45 22.3891 11.6289C22.6261 11.8076 22.7794 12.068 22.8207 12.3621C22.8619 12.6562 22.7862 12.9487 22.6074 13.1858L21.5027 14.6509L22.8597 16.4389C23.0393 16.6754 23.1159 16.9677 23.0756 17.262C23.0352 17.5562 22.8828 17.8171 22.6462 17.9966C22.4512 18.1445 22.219 18.2228 21.9747 18.2228C21.6236 18.2228 21.3006 18.0625 21.0885 17.7831L20.1116 16.4958L19.2034 17.7002C18.9914 17.9814 18.6676 18.1426 18.3151 18.1426C18.0721 18.1426 17.8408 18.0651 17.6464 17.9185ZM19.3649 14.8453L17.934 16.743C17.8571 16.845 17.8246 16.9708 17.8423 17.0973C17.86 17.2238 17.9259 17.3358 18.0279 17.4126C18.1116 17.4757 18.2109 17.5091 18.3151 17.5091C18.4669 17.5091 18.6063 17.4397 18.6975 17.3187L19.8577 15.78C19.9175 15.7007 20.0109 15.6541 20.1102 15.6539H20.1107C20.2098 15.6539 20.3032 15.7003 20.3631 15.7792L21.5932 17.4001C21.6845 17.5203 21.8235 17.5892 21.9746 17.5892C22.0795 17.5892 22.1792 17.5556 22.2631 17.4919C22.3648 17.4147 22.4304 17.3025 22.4477 17.176C22.4651 17.0495 22.4321 16.9238 22.3549 16.8221L20.853 14.8431C20.7673 14.7301 20.7671 14.574 20.8525 14.4608L22.1014 12.8044C22.1783 12.7024 22.2109 12.5766 22.1931 12.4501C22.1754 12.3237 22.1095 12.2117 22.0076 12.1348C21.9055 12.0579 21.7796 12.0255 21.6533 12.043C21.5269 12.0608 21.4149 12.1267 21.338 12.2287L20.3596 13.5263C20.2999 13.6055 20.2064 13.6521 20.1071 13.6523H20.1066C20.0075 13.6523 19.9142 13.6059 19.8543 13.527L18.868 12.2275C18.7087 12.0175 18.4082 11.9764 18.1982 12.1357C17.9883 12.295 17.9471 12.5955 18.1064 12.8055L19.3643 14.463C19.4501 14.576 19.4503 14.7321 19.3649 14.8453Z" fill="white"/>
<rect x="136" width="35" height="35" rx="10" fill="#BFCADA"/>
<path d="M162.824 11.195L154.375 6.50013C154.044 6.31815 153.64 6.31815 153.309 6.50013L144.86 11.195C144.493 11.377 144.273 11.7409 144.273 12.1412V22.2224C144.273 22.6228 144.493 22.9867 144.824 23.1687L153.273 27.8635C153.603 28.0455 154.007 28.0455 154.338 27.8635L162.787 23.1687C163.118 22.9867 163.338 22.6228 163.338 22.2224V12.1412C163.375 11.7409 163.154 11.377 162.824 11.195ZM159.334 10.0668L160.216 10.5399L159.334 11.1222V10.0668ZM156.395 8.46541L158.085 9.41166L156.395 10.2851V8.46541ZM155.66 10.6855L154.558 11.2678L154.191 11.0858C153.971 10.9766 153.677 10.9766 153.456 11.1222L150.848 12.7235C150.628 12.8691 150.518 13.0875 150.518 13.3422V14.5432L148.681 13.5242V11.8865L151.289 10.2851L151.656 10.4671C151.877 10.5763 152.134 10.5763 152.354 10.4671L155.66 8.68378V10.6855ZM151.252 13.3786L153.86 11.7773L154.228 11.9593C154.448 12.0684 154.705 12.0684 154.926 11.9593L158.599 9.92118V11.5589L156.726 12.7235L156.358 12.5416C156.138 12.4324 155.844 12.4324 155.624 12.578L153.016 14.1793C152.795 14.3249 152.685 14.5432 152.685 14.798V15.7443L151.216 14.9436V13.3786H151.252ZM154.007 16.2902C153.897 16.363 153.75 16.363 153.64 16.2902L153.456 16.181V14.8344L156.065 13.2331L156.432 13.415C156.652 13.5242 156.946 13.5242 157.167 13.3786L160.84 11.0494V12.5052L154.007 16.2902ZM161.538 11.3042L162.273 11.7045L161.538 12.1048V11.3042ZM153.64 7.11883C153.75 7.04604 153.897 7.04604 154.007 7.11883L155.477 7.95589L151.987 9.84839L151.62 9.66642C151.399 9.55724 151.105 9.55724 150.885 9.70282L148.277 11.3042C148.056 11.4497 147.946 11.6681 147.946 11.9229V13.1239L145.375 11.7045L153.64 7.11883ZM145.191 22.5136C145.081 22.4408 145.007 22.3316 145.007 22.186V14.4705L146.256 15.0892C146.367 15.1619 146.477 15.2711 146.477 15.4167V15.7443C145.889 15.9626 145.595 16.5813 145.816 17.1272C146.036 17.7095 146.66 18.0007 147.211 17.7823C147.763 17.564 148.093 16.9453 147.873 16.3994C147.763 16.0718 147.505 15.8534 147.211 15.7443V15.4167C147.211 15.0164 146.991 14.616 146.587 14.4341L145.007 13.6698V12.3232L153.273 16.9089C153.309 16.9453 153.383 16.9453 153.456 16.9817V20.9122L150.334 19.2381C150.224 19.1653 150.15 19.0561 150.15 18.9106V18.1827C150.738 17.9643 151.032 17.3456 150.811 16.7997C150.591 16.2538 149.967 15.9262 149.416 16.1446C148.828 16.363 148.534 16.9817 148.754 17.5276C148.865 17.8551 149.122 18.0735 149.416 18.1827V18.9106C149.416 19.3109 149.636 19.6748 150.003 19.8568L153.456 21.7129V25.2431L150.334 23.569C150.224 23.4962 150.15 23.387 150.15 23.2415V21.8949C150.15 21.4945 149.93 21.167 149.599 20.9486L148.314 20.2207C148.314 20.1844 148.314 20.1116 148.314 20.0752C148.314 19.4565 147.836 18.9833 147.211 18.9833C146.587 18.9833 146.109 19.4565 146.109 20.0752C146.109 20.6939 146.587 21.167 147.211 21.167C147.505 21.167 147.763 21.0578 147.983 20.8758L149.269 21.6401C149.379 21.7129 149.452 21.8221 149.452 21.9677V23.3143C149.452 23.7146 149.673 24.0785 150.04 24.2605L153.493 26.1166V27.0993L145.191 22.5136ZM147.211 16.7997C147.211 17.0181 147.065 17.1636 146.844 17.1636C146.624 17.1636 146.477 17.0181 146.477 16.7997C146.477 16.5813 146.624 16.4357 146.844 16.4357C147.065 16.4357 147.211 16.5813 147.211 16.7997V16.7997ZM149.416 17.1636C149.416 16.9453 149.563 16.7997 149.783 16.7997C150.003 16.7997 150.15 16.9453 150.15 17.1636C150.15 17.382 150.003 17.5276 149.783 17.5276C149.563 17.5276 149.416 17.382 149.416 17.1636ZM147.579 20.0752C147.579 20.2935 147.432 20.4391 147.211 20.4391C146.991 20.4391 146.844 20.2935 146.844 20.0752C146.844 19.8568 146.991 19.7112 147.211 19.7112C147.432 19.7112 147.579 19.8568 147.579 20.0752ZM162.456 22.5136L154.191 27.0993V23.933L157.644 22.0769C158.012 21.8949 158.232 21.5309 158.232 21.1306V19.8204C158.232 19.6748 158.305 19.5657 158.452 19.4929L160.069 18.6922C160.509 19.0925 161.207 19.0925 161.612 18.6558C162.016 18.2191 162.016 17.5276 161.575 17.1272C161.134 16.7269 160.436 16.7269 160.032 17.1636C159.812 17.3456 159.701 17.6004 159.701 17.8915V18.0371L158.085 18.8378C157.718 19.0197 157.46 19.3837 157.46 19.8204V21.1306C157.46 21.2762 157.387 21.3854 157.277 21.4581L154.191 23.0959V19.5657L155.256 19.0197C155.697 19.4201 156.395 19.4201 156.799 18.9833C157.203 18.5466 157.203 17.8551 156.763 17.4548C156.322 17.0544 155.624 17.0545 155.22 17.4912C155.036 17.7095 154.926 17.9643 154.926 18.2555V18.401L154.191 18.765V16.9817C154.265 16.9817 154.301 16.9453 154.375 16.9089L162.64 12.3232V19.4929L160.84 20.4027C160.399 20.0024 159.701 20.0024 159.297 20.4391C158.893 20.8758 158.893 21.5673 159.334 21.9677C159.775 22.368 160.473 22.368 160.877 21.9313C161.06 21.7129 161.171 21.4582 161.171 21.167C161.171 21.1306 161.171 21.0942 161.171 21.0214L162.64 20.2935V22.186C162.64 22.3316 162.567 22.4408 162.456 22.5136V22.5136ZM160.436 17.8915C160.436 17.6732 160.583 17.5276 160.803 17.5276C161.024 17.5276 161.171 17.6732 161.171 17.8915C161.171 18.1099 161.024 18.2555 160.803 18.2555C160.583 18.2555 160.436 18.1099 160.436 17.8915ZM155.66 18.2555C155.66 18.0371 155.807 17.8915 156.028 17.8915C156.248 17.8915 156.395 18.0371 156.395 18.2555C156.395 18.4738 156.248 18.6194 156.028 18.6194C155.807 18.6194 155.66 18.4738 155.66 18.2555ZM160.436 21.167C160.436 21.3854 160.289 21.5309 160.069 21.5309C159.848 21.5309 159.701 21.3854 159.701 21.167C159.701 20.9486 159.848 20.8031 160.069 20.8031C160.289 20.8031 160.436 20.9486 160.436 21.167Z" fill="white"/>
<rect x="45.5557" width="35" height="35" rx="10" fill="#BFCADA"/>
<path d="M54.7567 7.5372C54.4512 7.5372 54.2026 7.78574 54.2026 8.0913V13.609C54.2026 13.9145 54.4512 14.1631 54.7567 14.1631H62.6326C62.9382 14.1631 63.1867 13.9145 63.1867 13.609C63.1867 13.4124 63.1867 8.28829 63.1867 8.0913C63.1867 7.78574 62.9382 7.5372 62.6326 7.5372C62.5094 7.5372 54.8352 7.5372 54.7567 7.5372V7.5372ZM54.8385 8.17307H55.7376V8.93773H54.8385V8.17307ZM62.5508 13.5273H54.8385V9.5736H62.5508V13.5273ZM62.5508 8.93773H56.3735V8.17307H62.5508V8.93773Z" fill="white"/>
<path d="M64.1323 16.8572C64.8698 16.8572 65.47 16.2526 65.47 15.5095V15.2388C65.47 14.9412 65.2288 14.699 64.9323 14.699H64.0645C64.2572 14.4284 64.3691 14.1002 64.3691 13.7551V11.5911C64.3691 11.4155 64.2268 11.2732 64.0511 11.2732C63.8755 11.2732 63.7332 11.4155 63.7332 11.5911V13.7551C63.7332 14.1785 63.4575 14.5607 63.0577 14.699H54.3315C53.9316 14.5607 53.656 14.1786 53.656 13.7551V7.99779C53.656 7.44734 54.1038 6.99952 54.6542 6.99952H62.7349C63.2853 6.99952 63.7332 7.4473 63.7332 7.99779V10.1074C63.7332 10.2831 63.8755 10.4254 64.0511 10.4254C64.2267 10.4254 64.369 10.2831 64.369 10.1074V7.99779C64.369 7.09672 63.636 6.36365 62.7349 6.36365H54.6543C53.7532 6.36365 53.0201 7.09672 53.0201 7.99779V13.7551C53.0201 14.1003 53.132 14.4284 53.3247 14.699H52.4569C52.1604 14.699 51.9192 14.9412 51.9192 15.2388V15.5096C51.9192 16.2526 52.5193 16.8572 53.2569 16.8572H64.1323V16.8572ZM52.5551 15.5095V15.3349H64.8341V15.5095C64.8341 15.902 64.5192 16.2213 64.1322 16.2213H53.2569C52.8699 16.2213 52.5551 15.902 52.5551 15.5095V15.5095Z" fill="white"/>
<path d="M73.0861 25.8419H72.2184C72.411 25.5713 72.5229 25.2431 72.5229 24.8979V19.1406C72.5229 18.2395 71.7898 17.5065 70.8887 17.5065H68.0141C67.8385 17.5065 67.6962 17.6488 67.6962 17.8244C67.6962 18 67.8385 18.1423 68.0141 18.1423H70.8887C71.4392 18.1423 71.887 18.5901 71.887 19.1406V24.8979C71.887 25.3215 71.6113 25.7036 71.2115 25.8419H62.4853C62.0854 25.7036 61.8098 25.3215 61.8098 24.8979V19.1406C61.8098 18.5902 62.2576 18.1423 62.8081 18.1423H66.5305C66.7061 18.1423 66.8484 18 66.8484 17.8244C66.8484 17.6488 66.7061 17.5065 66.5305 17.5065H62.8081C61.907 17.5065 61.1739 18.2395 61.1739 19.1406V24.8979C61.1739 25.2431 61.2858 25.5713 61.4784 25.8419H60.6107C60.3142 25.8419 60.073 26.084 60.073 26.3817V26.6524C60.073 27.3955 60.6731 28 61.4107 28H72.2861C73.0237 28 73.6238 27.3955 73.6238 26.6524V26.3817C73.6238 26.084 73.3826 25.8419 73.0861 25.8419ZM72.9879 26.6524C72.9879 27.0449 72.6731 27.3642 72.2861 27.3642H61.4107C61.0237 27.3642 60.7089 27.0449 60.7089 26.6524V26.4777H72.9879V26.6524H72.9879Z" fill="white"/>
<path d="M62.9103 18.68C62.6047 18.68 62.3562 18.9285 62.3562 19.2341V24.7518C62.3562 25.0573 62.6047 25.3059 62.9103 25.3059H70.7862C71.0917 25.3059 71.3403 25.0573 71.3403 24.7518C71.3403 24.5552 71.3403 19.4311 71.3403 19.2341C71.3403 18.9285 71.0917 18.68 70.7862 18.68C70.663 18.68 62.9888 18.68 62.9103 18.68ZM62.9921 19.3159H63.8913V20.0805H62.9921V19.3159ZM70.7044 24.6701H62.9921V20.7164H70.7044V24.6701ZM64.5272 19.3159H70.7044V20.0805H64.5272V19.3159Z" fill="white"/>
<path d="M71.0225 16.4346C71.1981 16.4346 71.3404 16.2923 71.3404 16.1167V9.17788C71.9378 9.0343 72.3832 8.49593 72.3832 7.85514C72.3832 7.1049 71.7728 6.49451 71.0225 6.49451C70.3817 6.49451 69.8434 6.93987 69.6997 7.53721H65.7586C65.583 7.53721 65.4407 7.67952 65.4407 7.85514C65.4407 8.03077 65.583 8.17308 65.7586 8.17308H69.6997C69.8188 8.66834 70.2093 9.05881 70.7045 9.17788V16.1167C70.7045 16.2923 70.8469 16.4346 71.0225 16.4346ZM70.2977 7.85514C70.2977 7.45552 70.6229 7.13038 71.0225 7.13038C71.4221 7.13038 71.7473 7.45552 71.7473 7.85514C71.7473 8.25477 71.4221 8.57991 71.0225 8.57991C70.6229 8.57987 70.2977 8.25477 70.2977 7.85514Z" fill="white"/>
<path d="M54.7566 17.9324C54.581 17.9324 54.4387 18.0747 54.4387 18.2504V23.6653C53.8414 23.8089 53.396 24.3473 53.396 24.9881C53.396 25.7383 54.0063 26.3487 54.7566 26.3487C55.3974 26.3487 55.9357 25.9033 56.0794 25.306H59.2742C59.4499 25.306 59.5922 25.1637 59.5922 24.9881C59.5922 24.8124 59.4499 24.6701 59.2742 24.6701H56.0794C55.9603 24.1749 55.5698 23.7844 55.0746 23.6653V18.2504C55.0746 18.0747 54.9322 17.9324 54.7566 17.9324V17.9324ZM55.4814 24.988C55.4814 25.3876 55.1562 25.7128 54.7566 25.7128C54.357 25.7128 54.0318 25.3876 54.0318 24.988C54.0318 24.5887 54.3565 24.2638 54.7557 24.2633C54.756 24.2633 54.7563 24.2633 54.7565 24.2633C54.7568 24.2633 54.7571 24.2633 54.7574 24.2633C55.1567 24.2638 55.4814 24.5887 55.4814 24.988Z" fill="white"/>
</svg>
