<?xml version="1.0" encoding="utf-8"?>
<!-- Generator: Adobe Illustrator 24.0.2, SVG Export Plug-In . SVG Version: 6.00 Build 0)  -->
<svg version="1.1" id="Layer_1" xmlns="http://www.w3.org/2000/svg" xmlns:xlink="http://www.w3.org/1999/xlink" x="0px" y="0px"
	 viewBox="0 0 55 55" style="enable-background:new 0 0 55 55;" xml:space="preserve">
<style type="text/css">
	.st0{fill:#845CDA;}
	.st1{fill:#FFFFFF;}
</style>
<path class="st0" d="M10,0h35c5.5,0,10,4.5,10,10v35c0,5.5-4.5,10-10,10H10C4.5,55,0,50.5,0,45V10C0,4.5,4.5,0,10,0z"/>
<path class="st1" d="M45,18.8l-11.5-4.4c-0.3-0.1-0.6,0-0.7,0.3c-0.1,0.3,0,0.6,0.3,0.7l10.2,3.9l-7,2.7l-8.9-4
	c-0.3-0.1-0.6,0-0.7,0.3c-0.1,0.3,0,0.6,0.3,0.7l7.9,3.6l-7.7,2.9l-16.1-6.2l16.1-6.2l4,1.5c0.3,0.1,0.6,0,0.7-0.3
	c0.1-0.3,0-0.6-0.3-0.7L27.4,12c-0.1,0-0.3,0-0.4,0L9.3,18.8C9.1,18.9,9,19.1,9,19.3v2.5c0,0.2,0.1,0.4,0.3,0.5l5.5,2.1v1.9
	c0,0.3,0.2,0.5,0.5,0.5c0.3,0,0.5-0.2,0.5-0.5v-1.5L27,29.1c0.1,0,0.1,0,0.2,0c0.1,0,0.1,0,0.2,0l8.3-3.2v8.6
	c-2.6,1.4-5.5,2.1-8.5,2.1c-4.1,0-8-1.4-11.2-3.9v-4.2c0-0.3-0.2-0.5-0.5-0.5c-0.3,0-0.5,0.2-0.5,0.5V33c0,0.2,0.1,0.3,0.2,0.4
	c3.4,2.8,7.7,4.3,12.1,4.3c3,0,5.9-0.7,8.5-2v2.2c-0.9,0.2-1.5,1-1.5,2c0,1.1,0.9,2.1,2.1,2.1c1.1,0,2.1-0.9,2.1-2.1
	c0-1-0.6-1.8-1.5-2v-2.8c0.9-0.5,1.7-1.1,2.5-1.7c0.1-0.1,0.2-0.3,0.2-0.4v-8.6l5.5-2.1c0.2-0.1,0.3-0.3,0.3-0.5v-2.5
	C45.4,19.1,45.2,18.9,45,18.8z M37.2,39.9c0,0.5-0.4,1-1,1c-0.5,0-1-0.4-1-1c0-0.5,0.4-1,1-1C36.8,39,37.2,39.4,37.2,39.9z
	 M10.1,20.1l16.6,6.4v1.3l-16.6-6.4V20.1z M27.7,27.8v-1.3l8-3.1v1.3L27.7,27.8z M38.4,32.7c-0.5,0.4-1.1,0.8-1.6,1.1v-8.4l1.6-0.6
	V32.7z M36.8,24.3V23l7.5-2.9v1.3L36.8,24.3z"/>
</svg>
