<svg width="55" height="55" viewBox="0 0 55 55" fill="none" xmlns="http://www.w3.org/2000/svg">
<rect width="55" height="55" rx="10" fill="#60C2F1"/>
<path d="M17.2059 28.3241C17.4815 28.3241 17.7049 28.1007 17.7049 27.8251V27.4791C17.7049 26.6833 17.0969 26.0268 16.321 25.9497V25.4032C16.321 25.1275 16.0975 24.9041 15.8219 24.9041C15.5463 24.9041 15.3229 25.1275 15.3229 25.4032V25.9737C14.5354 26.1263 13.9389 26.8207 13.9389 27.6521C13.9389 28.595 14.706 29.362 15.6489 29.362H15.9948C16.3874 29.362 16.7068 29.6814 16.7068 30.074C16.7068 30.4666 16.3874 30.7859 15.9948 30.7859H15.4759C15.1787 30.7859 14.9369 30.5441 14.9369 30.2469C14.9369 29.9713 14.7135 29.7479 14.4379 29.7479C14.1623 29.7479 13.9388 29.9713 13.9388 30.2469C13.9388 31.0427 14.5469 31.6992 15.3228 31.7762V32.3228C15.3228 32.5985 15.5463 32.8219 15.8219 32.8219C16.0974 32.8219 16.3209 32.5985 16.3209 32.3228V31.7523C17.1083 31.5997 17.7049 30.9053 17.7049 30.0739C17.7049 29.131 16.9378 28.364 15.9949 28.364H15.6489C15.2563 28.364 14.937 28.0446 14.937 27.652C14.937 27.2594 15.2563 26.9401 15.6489 26.9401H16.1679C16.4651 26.9401 16.7069 27.1819 16.7069 27.4791V27.8251C16.7069 28.1007 16.9303 28.3241 17.2059 28.3241Z" fill="white"/>
<path d="M28.384 15.5491C28.6596 15.5491 28.883 15.3257 28.883 15.05V14.7041C28.883 13.9082 28.275 13.2518 27.4991 13.1747V12.6281C27.4991 12.3525 27.2757 12.1291 27 12.1291C26.7244 12.1291 26.501 12.3525 26.501 12.6281V13.1986C25.7135 13.3513 25.117 14.0457 25.117 14.877C25.117 15.8199 25.8841 16.587 26.827 16.587H27.1729C27.5655 16.587 27.8849 16.9064 27.8849 17.2989C27.8849 17.6915 27.5655 18.0109 27.1729 18.0109H26.654C26.3568 18.0109 26.115 17.7691 26.115 17.4719C26.115 17.1962 25.8916 16.9728 25.616 16.9728C25.3404 16.9728 25.1169 17.1962 25.1169 17.4719C25.1169 18.2677 25.725 18.9242 26.5009 19.0012V19.5478C26.5009 19.8234 26.7244 20.0468 27 20.0468C27.2756 20.0468 27.499 19.8234 27.499 19.5478V18.9773C28.2864 18.8246 28.883 18.1302 28.883 17.2989C28.883 16.356 28.1158 15.5889 27.173 15.5889H26.827C26.4344 15.5889 26.1151 15.2696 26.1151 14.877C26.1151 14.4844 26.4344 14.165 26.827 14.165H27.346C27.6432 14.165 27.885 14.4068 27.885 14.7041V15.05C27.885 15.3258 28.1083 15.5491 28.384 15.5491Z" fill="white"/>
<path d="M38.1781 19.8474C36.7356 19.8474 35.4141 20.375 34.396 21.247L31.9256 19.1883C32.4931 18.29 32.8219 17.2268 32.8219 16.0881C32.8219 12.8779 30.2102 10.2662 27 10.2662C23.7898 10.2662 21.1781 12.8779 21.1781 16.0881C21.1781 17.7725 21.8973 19.2917 23.0446 20.3557L18.9764 23.9719C18.0668 23.3833 16.9836 23.0411 15.8219 23.0411C12.6117 23.0411 10 25.6528 10 28.863C10 32.0733 12.6117 34.6849 15.8219 34.6849C19.0321 34.6849 21.6438 32.0733 21.6438 28.863C21.6438 27.1786 20.9246 25.6594 19.7773 24.5953L23.8455 20.9792C24.7551 21.5678 25.8383 21.91 27 21.91C28.7131 21.91 30.2557 21.166 31.322 19.9845L33.6936 21.9607C32.8586 22.9686 32.3562 24.2613 32.3562 25.6692C32.3562 28.8794 34.9679 31.4911 38.1781 31.4911C41.3883 31.4911 44 28.8794 44 25.6692C44 22.459 41.3883 19.8474 38.1781 19.8474ZM20.6458 28.863C20.6458 31.5229 18.4818 33.6869 15.8219 33.6869C13.162 33.6869 10.998 31.5229 10.998 28.863C10.998 26.2031 13.162 24.0392 15.8219 24.0392C18.4818 24.0392 20.6458 26.2031 20.6458 28.863ZM27 20.912C24.3401 20.912 22.1761 18.748 22.1761 16.0881C22.1761 13.4282 24.3401 11.2642 27 11.2642C29.6599 11.2642 31.8239 13.4282 31.8239 16.0881C31.8239 18.748 29.6599 20.912 27 20.912ZM38.1781 30.4932C35.5182 30.4932 33.3542 28.3292 33.3542 25.6693C33.3542 24.4142 33.8363 23.2698 34.6247 22.4109C34.7041 22.3817 34.7773 22.3324 34.8354 22.2627C34.8729 22.2177 34.9006 22.1678 34.9198 22.1158C35.7788 21.3276 36.923 20.8455 38.178 20.8455C40.8379 20.8455 43.0019 23.0095 43.0019 25.6694C43.002 28.3292 40.838 30.4932 38.1781 30.4932Z" fill="white"/>
<path d="M39.562 25.1303C39.8377 25.1303 40.0611 24.9069 40.0611 24.6313V24.2853C40.0611 23.4895 39.453 22.833 38.6771 22.756V22.2094C38.6771 21.9337 38.4537 21.7103 38.1781 21.7103C37.9024 21.7103 37.679 21.9337 37.679 22.2094V22.7799C36.8916 22.9325 36.2951 23.6269 36.2951 24.4583C36.2951 25.4012 37.0622 26.1682 38.005 26.1682H38.3509C38.7435 26.1682 39.0629 26.4876 39.0629 26.8802C39.0629 27.2728 38.7435 27.5921 38.3509 27.5921H37.832C37.5348 27.5921 37.293 27.3503 37.293 27.0531C37.293 26.7775 37.0696 26.5541 36.794 26.5541C36.5183 26.5541 36.2949 26.7775 36.2949 27.0531C36.2949 27.8489 36.9029 28.5054 37.6789 28.5824V29.129C37.6789 29.4047 37.9023 29.6281 38.1779 29.6281C38.4536 29.6281 38.677 29.4047 38.677 29.129V28.5585C39.4644 28.4059 40.061 27.7115 40.061 26.8801C40.061 25.9372 39.2938 25.1702 38.351 25.1702H38.0051C37.6125 25.1702 37.2931 24.8508 37.2931 24.4582C37.2931 24.0656 37.6125 23.7463 38.0051 23.7463H38.524C38.8212 23.7463 39.063 23.9881 39.063 24.2853V24.6313C39.0631 24.9069 39.2864 25.1303 39.562 25.1303Z" fill="white"/>
<path d="M20.6125 36.3483H16.3542C16.0786 36.3483 15.8552 36.5717 15.8552 36.8474V43.2349C15.8552 43.5105 16.0786 43.7339 16.3542 43.7339H20.6125C20.8881 43.7339 21.1115 43.5105 21.1115 43.2349V36.8474C21.1115 36.5717 20.8881 36.3483 20.6125 36.3483ZM20.1135 42.7358H16.8532V37.3463H20.1135V42.7358Z" fill="white"/>
<path d="M41.3718 36.3483H37.1135C36.8379 36.3483 36.6145 36.5717 36.6145 36.8474V43.2349C36.6145 43.5105 36.8379 43.7339 37.1135 43.7339H41.3718C41.6475 43.7339 41.8709 43.5105 41.8709 43.2349V36.8474C41.8708 36.5717 41.6475 36.3483 41.3718 36.3483ZM40.8728 42.7358H37.6125V37.3463H40.8728V42.7358Z" fill="white"/>
<path d="M27.5323 38.4445C27.808 38.4445 28.0314 38.2211 28.0314 37.9454V30.4599C28.0314 30.1843 27.808 29.9609 27.5323 29.9609H23.2739C22.9984 29.9609 22.7749 30.1843 22.7749 30.4599V43.2349C22.7749 43.5105 22.9984 43.7339 23.2739 43.7339H27.5322C27.8079 43.7339 28.0313 43.5105 28.0313 43.2349V40.2742C28.0313 39.9985 27.8079 39.7751 27.5322 39.7751C27.2566 39.7751 27.0332 39.9985 27.0332 40.2742V42.7358H23.7729V30.9589H27.0332V37.9454C27.0333 38.2211 27.2567 38.4445 27.5323 38.4445Z" fill="white"/>
<path d="M34.452 33.1546H30.1937C29.9181 33.1546 29.6947 33.378 29.6947 33.6536V43.2349C29.6947 43.5105 29.9181 43.7339 30.1937 43.7339H34.452C34.7277 43.7339 34.9511 43.5105 34.9511 43.2349V33.6536C34.9511 33.378 34.7277 33.1546 34.452 33.1546ZM33.9531 42.7358H30.6928V34.1526H33.9531V42.7358Z" fill="white"/>
</svg>
