<?xml version="1.0" encoding="utf-8"?>
<!-- Generator: Adobe Illustrator 24.0.2, SVG Export Plug-In . SVG Version: 6.00 Build 0)  -->
<svg version="1.1" id="Layer_1" xmlns="http://www.w3.org/2000/svg" xmlns:xlink="http://www.w3.org/1999/xlink" x="0px" y="0px"
	 viewBox="0 0 55 55" style="enable-background:new 0 0 55 55;" xml:space="preserve">
<style type="text/css">
	.st0{fill:#60C2F1;}
	.st1{fill:#FFFFFF;}
</style>
<path class="st0" d="M10,0h35c5.5,0,10,4.5,10,10v35c0,5.5-4.5,10-10,10H10C4.5,55,0,50.5,0,45V10C0,4.5,4.5,0,10,0z"/>
<path class="st1" d="M17.2,28.3c0.3,0,0.5-0.2,0.5-0.5v-0.3c0-0.8-0.6-1.5-1.4-1.5v-0.5c0-0.3-0.2-0.5-0.5-0.5
	c-0.3,0-0.5,0.2-0.5,0.5V26c-0.8,0.2-1.4,0.8-1.4,1.7c0,0.9,0.8,1.7,1.7,1.7H16c0.4,0,0.7,0.3,0.7,0.7c0,0.4-0.3,0.7-0.7,0.7h-0.5
	c-0.3,0-0.5-0.2-0.5-0.5c0-0.3-0.2-0.5-0.5-0.5c-0.3,0-0.5,0.2-0.5,0.5c0,0.8,0.6,1.5,1.4,1.5v0.5c0,0.3,0.2,0.5,0.5,0.5
	c0.3,0,0.5-0.2,0.5-0.5v-0.6c0.8-0.2,1.4-0.8,1.4-1.7c0-0.9-0.8-1.7-1.7-1.7h-0.3c-0.4,0-0.7-0.3-0.7-0.7c0-0.4,0.3-0.7,0.7-0.7h0.5
	c0.3,0,0.5,0.2,0.5,0.5v0.3C16.7,28.1,16.9,28.3,17.2,28.3z"/>
<path class="st1" d="M28.4,15.5c0.3,0,0.5-0.2,0.5-0.5v-0.3c0-0.8-0.6-1.5-1.4-1.5v-0.5c0-0.3-0.2-0.5-0.5-0.5
	c-0.3,0-0.5,0.2-0.5,0.5v0.6c-0.8,0.2-1.4,0.8-1.4,1.7c0,0.9,0.8,1.7,1.7,1.7h0.3c0.4,0,0.7,0.3,0.7,0.7c0,0.4-0.3,0.7-0.7,0.7h-0.5
	c-0.3,0-0.5-0.2-0.5-0.5c0-0.3-0.2-0.5-0.5-0.5c-0.3,0-0.5,0.2-0.5,0.5c0,0.8,0.6,1.5,1.4,1.5v0.5c0,0.3,0.2,0.5,0.5,0.5
	s0.5-0.2,0.5-0.5V19c0.8-0.2,1.4-0.8,1.4-1.7c0-0.9-0.8-1.7-1.7-1.7h-0.3c-0.4,0-0.7-0.3-0.7-0.7s0.3-0.7,0.7-0.7h0.5
	c0.3,0,0.5,0.2,0.5,0.5v0.3C27.9,15.3,28.1,15.5,28.4,15.5z"/>
<path class="st1" d="M38.2,19.8c-1.4,0-2.8,0.5-3.8,1.4l-2.5-2.1c0.6-0.9,0.9-2,0.9-3.1c0-3.2-2.6-5.8-5.8-5.8s-5.8,2.6-5.8,5.8
	c0,1.7,0.7,3.2,1.9,4.3L19,24c-0.9-0.6-2-0.9-3.2-0.9c-3.2,0-5.8,2.6-5.8,5.8c0,3.2,2.6,5.8,5.8,5.8s5.8-2.6,5.8-5.8
	c0-1.7-0.7-3.2-1.9-4.3l4.1-3.6c0.9,0.6,2,0.9,3.2,0.9c1.7,0,3.3-0.7,4.3-1.9l2.4,2c-0.8,1-1.3,2.3-1.3,3.7c0,3.2,2.6,5.8,5.8,5.8
	s5.8-2.6,5.8-5.8S41.4,19.8,38.2,19.8z M20.6,28.9c0,2.7-2.2,4.8-4.8,4.8S11,31.5,11,28.9s2.2-4.8,4.8-4.8S20.6,26.2,20.6,28.9z
	 M27,20.9c-2.7,0-4.8-2.2-4.8-4.8s2.2-4.8,4.8-4.8s4.8,2.2,4.8,4.8S29.7,20.9,27,20.9z M38.2,30.5c-2.7,0-4.8-2.2-4.8-4.8
	c0-1.3,0.5-2.4,1.3-3.3c0.1,0,0.2-0.1,0.2-0.1c0,0,0.1-0.1,0.1-0.1c0.9-0.8,2-1.3,3.3-1.3c2.7,0,4.8,2.2,4.8,4.8
	C43,28.3,40.8,30.5,38.2,30.5z"/>
<path class="st1" d="M39.6,25.1c0.3,0,0.5-0.2,0.5-0.5v-0.3c0-0.8-0.6-1.5-1.4-1.5v-0.5c0-0.3-0.2-0.5-0.5-0.5
	c-0.3,0-0.5,0.2-0.5,0.5v0.6c-0.8,0.2-1.4,0.8-1.4,1.7c0,0.9,0.8,1.7,1.7,1.7h0.3c0.4,0,0.7,0.3,0.7,0.7c0,0.4-0.3,0.7-0.7,0.7h-0.5
	c-0.3,0-0.5-0.2-0.5-0.5c0-0.3-0.2-0.5-0.5-0.5c-0.3,0-0.5,0.2-0.5,0.5c0,0.8,0.6,1.5,1.4,1.5v0.5c0,0.3,0.2,0.5,0.5,0.5
	c0.3,0,0.5-0.2,0.5-0.5v-0.6c0.8-0.2,1.4-0.8,1.4-1.7c0-0.9-0.8-1.7-1.7-1.7H38c-0.4,0-0.7-0.3-0.7-0.7c0-0.4,0.3-0.7,0.7-0.7h0.5
	c0.3,0,0.5,0.2,0.5,0.5v0.3C39.1,24.9,39.3,25.1,39.6,25.1z"/>
<path class="st1" d="M20.6,36.3h-4.3c-0.3,0-0.5,0.2-0.5,0.5v6.4c0,0.3,0.2,0.5,0.5,0.5h4.3c0.3,0,0.5-0.2,0.5-0.5v-6.4
	C21.1,36.6,20.9,36.3,20.6,36.3z M20.1,42.7h-3.3v-5.4h3.3V42.7z"/>
<path class="st1" d="M41.4,36.3h-4.3c-0.3,0-0.5,0.2-0.5,0.5v6.4c0,0.3,0.2,0.5,0.5,0.5h4.3c0.3,0,0.5-0.2,0.5-0.5v-6.4
	C41.9,36.6,41.6,36.3,41.4,36.3z M40.9,42.7h-3.3v-5.4h3.3V42.7z"/>
<path class="st1" d="M27.5,38.4c0.3,0,0.5-0.2,0.5-0.5v-7.5c0-0.3-0.2-0.5-0.5-0.5h-4.3c-0.3,0-0.5,0.2-0.5,0.5v12.8
	c0,0.3,0.2,0.5,0.5,0.5h4.3c0.3,0,0.5-0.2,0.5-0.5v-3c0-0.3-0.2-0.5-0.5-0.5c-0.3,0-0.5,0.2-0.5,0.5v2.5h-3.3V31H27v7
	C27,38.2,27.3,38.4,27.5,38.4z"/>
<path class="st1" d="M34.5,33.2h-4.3c-0.3,0-0.5,0.2-0.5,0.5v9.6c0,0.3,0.2,0.5,0.5,0.5h4.3c0.3,0,0.5-0.2,0.5-0.5v-9.6
	C35,33.4,34.7,33.2,34.5,33.2z M34,42.7h-3.3v-8.6H34V42.7z"/>
</svg>
