<?xml version="1.0" encoding="utf-8"?>
<!-- Generator: Adobe Illustrator 24.0.2, SVG Export Plug-In . SVG Version: 6.00 Build 0)  -->
<svg version="1.1" id="Layer_1" xmlns="http://www.w3.org/2000/svg" xmlns:xlink="http://www.w3.org/1999/xlink" x="0px" y="0px"
	 viewBox="0 0 55 55" style="enable-background:new 0 0 55 55;" xml:space="preserve">
<style type="text/css">
	.st0{fill:#985CD1;}
	.st1{fill:#FFFFFF;}
</style>
<path class="st0" d="M10,0h35c5.5,0,10,4.5,10,10v35c0,5.5-4.5,10-10,10H10C4.5,55,0,50.5,0,45V10C0,4.5,4.5,0,10,0z"/>
<path class="st1" d="M42.5,42.1h-0.5V29.6h0.5c0.3,0,0.5-0.2,0.5-0.5c0-0.3-0.2-0.5-0.5-0.5h-7.6v-1.4l0.3,0.1
	c0.2,0.1,0.5,0,0.6-0.3c0.1-0.2,0-0.5-0.3-0.6l-1.9-0.7v-3.3H34c0.3,0,0.5-0.2,0.5-0.5c0-0.3-0.2-0.5-0.5-0.5h-0.5
	c-0.2-3.2-2.9-5.7-6.1-5.9v-0.7h3.8c0.6,0,1.1-0.5,1.1-1.1v-1.9c0-0.6-0.5-1.1-1.1-1.1H27c-0.3,0-0.5,0.2-0.5,0.5v4.3
	c-1.4,0.1-2.7,0.5-3.7,1.4c-0.2,0.2-0.2,0.5-0.1,0.7c0.2,0.2,0.5,0.2,0.7,0.1c1-0.8,2.2-1.2,3.4-1.2h0.5c2.8,0,5.1,2.2,5.4,4.9H21.4
	c0.1-0.9,0.4-1.8,0.9-2.6c0.1-0.2,0.1-0.5-0.1-0.7c-0.2-0.1-0.5-0.1-0.7,0.1c-0.7,0.9-1,2-1.1,3.2H20c-0.3,0-0.5,0.2-0.5,0.5
	c0,0.3,0.2,0.5,0.5,0.5h0.5v3.3l-1.9,0.7c-0.2,0.1-0.4,0.3-0.3,0.6c0.1,0.2,0.3,0.4,0.6,0.3l0.3-0.1v1.4h-7.6
	c-0.3,0-0.5,0.2-0.5,0.5c0,0.3,0.2,0.5,0.5,0.5h0.5v12.5h-0.5c-0.3,0-0.5,0.2-0.5,0.5c0,0.3,0.2,0.5,0.5,0.5h31.1
	c0.3,0,0.5-0.2,0.5-0.5C43,42.3,42.8,42.1,42.5,42.1z M27.5,11.9h3.8c0.1,0,0.2,0.1,0.2,0.2V14c0,0.1-0.1,0.2-0.2,0.2h-3.8V11.9z
	 M21.4,22.5h11.2v2.9l-4.7-1.6c-0.6-0.2-1.3-0.2-1.9,0l-4.7,1.6V22.5z M20.1,26.9l6.3-2.1c0.4-0.1,0.9-0.1,1.3,0l6.3,2.1v1.7H20.1
	V26.9z M17.1,42.1h-2.4v-1.9h2.4V42.1z M17.1,39.2h-2.4v-1.6c0-0.7,0.5-1.2,1.2-1.2c0.7,0,1.2,0.5,1.2,1.2V39.2z M19,42.1H18v-4.4
	c0-1.2-0.9-2.1-2.1-2.1c-1.2,0-2.1,0.9-2.1,2.1v4.4h-0.9v-7.4H19V42.1z M19,33.7h-6.1v-4.2h4.6v1c0,0.8,0.6,1.4,1.4,1.4H19L19,33.7
	L19,33.7z M21.9,42.1h-2V31.9h2L21.9,42.1L21.9,42.1z M24.9,42.1h-2.1V31.9h2.1V42.1z M27.9,42.1h-2V31.9h2V42.1z M31.2,42.1h-2.4
	V31.9h0.1c0.3,0,0.5-0.2,0.5-0.5c0-0.3-0.2-0.5-0.5-0.5H18.9c-0.3,0-0.5-0.2-0.5-0.5v-1h17.2v1c0,0.3-0.2,0.5-0.5,0.5h-4.4
	c-0.3,0-0.5,0.2-0.5,0.5c0,0.3,0.2,0.5,0.5,0.5h0.4L31.2,42.1L31.2,42.1z M34.1,42.1h-2V31.9h2L34.1,42.1L34.1,42.1z M39.2,42.1
	h-2.4v-1.9h2.4V42.1z M39.2,39.2h-2.4v-1.6c0-0.7,0.5-1.2,1.2-1.2c0.6,0,1.2,0.5,1.2,1.2V39.2z M41.1,42.1h-0.9v-4.4
	c0-1.2-0.9-2.1-2.1-2.1c-1.2,0-2.1,0.9-2.1,2.1v4.4H35v-7.4h6.1V42.1z M41.1,33.7H35v-1.8h0.1c0.8,0,1.4-0.6,1.4-1.4v-1h4.6V33.7z"
	/>
</svg>
