<svg width="55" height="55" viewBox="0 0 55 55" fill="none" xmlns="http://www.w3.org/2000/svg">
<rect width="55" height="55" rx="10" fill="#985CD1"/>
<path d="M42.5312 42.0625H42.0625V29.5625H42.5312C42.7901 29.5625 43 29.3527 43 29.0938C43 28.8348 42.7901 28.625 42.5312 28.625H34.8817V27.2278L35.2008 27.3353C35.4399 27.4161 35.7111 27.2887 35.7947 27.0406C35.8773 26.7953 35.7454 26.5294 35.5001 26.4468L33.5625 25.7942V22.5324H34.0312C34.2901 22.5324 34.5 22.3226 34.5 22.0636C34.5 21.8047 34.2901 21.5949 34.0312 21.5949H33.5451C33.3102 18.399 30.6943 15.8548 27.4688 15.7331V15.0625H31.25C31.8531 15.0625 32.3438 14.5718 32.3438 13.9688V12.0938C32.3438 11.4907 31.8531 11 31.25 11H27C26.7411 11 26.5312 11.2098 26.5312 11.4688V15.7333C25.1702 15.7857 23.8503 16.2786 22.7909 17.1356C22.5897 17.2984 22.5585 17.5936 22.7213 17.7949C22.8842 17.9962 23.1794 18.0274 23.3806 17.8645C24.3363 17.0913 25.5411 16.6655 26.773 16.6655H27.2269C30.0454 16.6655 32.3648 18.8371 32.6033 21.5948H21.3958C21.4766 20.6539 21.7993 19.7575 22.3428 18.9786C22.4909 18.7663 22.4389 18.4741 22.2266 18.326C22.0143 18.178 21.7222 18.2298 21.5739 18.4421C20.9201 19.3792 20.5376 20.4609 20.4549 21.5948H19.9688C19.7099 21.5948 19.5 21.8046 19.5 22.0636C19.5 22.3225 19.7099 22.5323 19.9688 22.5323H20.4375V25.7941L18.4999 26.4467C18.2546 26.5294 18.1227 26.7952 18.2053 27.0406C18.288 27.2859 18.5539 27.4178 18.7992 27.3352L19.1183 27.2277V28.625H11.4688C11.2099 28.625 11 28.8348 11 29.0938C11 29.3527 11.2099 29.5625 11.4688 29.5625H11.9375V42.0625H11.4688C11.2099 42.0625 11 42.2723 11 42.5312C11 42.7902 11.2099 43 11.4688 43H42.5312C42.7901 43 43 42.7902 43 42.5312C43 42.2723 42.7901 42.0625 42.5312 42.0625ZM27.4688 11.9375H31.25C31.3361 11.9375 31.4062 12.0076 31.4062 12.0938V13.9688C31.4062 14.0549 31.3361 14.125 31.25 14.125H27.4688V11.9375ZM21.375 22.5324H32.625V25.4784L27.9476 23.903C27.3366 23.6971 26.6636 23.6972 26.0524 23.903L21.375 25.4784V22.5324ZM20.0558 26.9119L26.3517 24.7914C26.7698 24.6507 27.2304 24.6507 27.6484 24.7914L33.9443 26.9119V28.625H20.0558V26.9119ZM17.1075 42.0625H14.75V40.1875H17.1075V42.0625ZM17.1075 39.25H14.75V37.6734C14.75 37.0234 15.2787 36.4947 15.9288 36.4947C16.5788 36.4947 17.1075 37.0234 17.1075 37.6734V39.25ZM18.9825 42.0625H18.045V37.6734C18.045 36.5065 17.0957 35.5572 15.9288 35.5572C14.7618 35.5572 13.8125 36.5065 13.8125 37.6734V42.0625H12.875V34.6808H18.9825V42.0625ZM18.9825 33.7433H12.875V29.5625H17.4498V30.5312C17.4498 31.3066 18.0806 31.9375 18.8561 31.9375H18.9824V33.7433H18.9825ZM21.8925 42.0625H19.92V31.9375H21.8926V42.0625H21.8925ZM24.9404 42.0625H22.83V31.9375H24.9404V42.0625ZM27.8504 42.0625H25.8779V31.9375H27.8504V42.0625ZM31.17 42.0625H28.788V31.9375H28.9131C29.1719 31.9375 29.3818 31.7277 29.3818 31.4688C29.3818 31.2098 29.1719 31 28.9131 31H18.8561C18.5976 31 18.3873 30.7897 18.3873 30.5312V29.5625H35.6126V30.5312C35.6126 30.7897 35.4024 31 35.1439 31H30.788C30.5291 31 30.3193 31.2098 30.3193 31.4688C30.3193 31.7277 30.5291 31.9375 30.788 31.9375H31.1699V42.0625H31.17ZM34.08 42.0625H32.1075V31.9375H34.0801V42.0625H34.08ZM39.25 42.0625H36.8925V40.1875H39.25V42.0625ZM39.25 39.25H36.8925V37.6734C36.8925 37.0234 37.4213 36.4947 38.0713 36.4947C38.7213 36.4947 39.25 37.0234 39.25 37.6734V39.25ZM41.125 42.0625H40.1875V37.6734C40.1875 36.5065 39.2382 35.5572 38.0713 35.5572C36.9043 35.5572 35.955 36.5065 35.955 37.6734V42.0625H35.0175V34.6808H41.125V42.0625ZM41.125 33.7433H35.0175V31.9375H35.1439C35.9193 31.9375 36.5501 31.3066 36.5501 30.5312V29.5625H41.125V33.7433Z" fill="white"/>
</svg>
