<svg width="56" height="55" viewBox="0 0 56 55" fill="none" xmlns="http://www.w3.org/2000/svg">
<rect x="0.00134277" width="55" height="55" rx="10" fill="#795ADF"/>
<path d="M44.9156 26.4597H41.9104C43.1598 23.6234 43.0247 21.3273 42.552 19.774C41.7416 17.0052 39.0065 14 34.9546 14C33.8741 14 32.7936 14.2026 31.6793 14.6078C29.7546 15.3169 28.4715 16.0935 27.8974 16.4987C27.3234 16.0935 26.0741 15.3169 24.1156 14.6078C23.0013 14.2026 21.8871 14 20.8403 14C16.7884 14 14.0533 17.0052 13.2429 19.774C12.7702 21.4286 12.6013 23.9273 14.1884 27.0675H10.5416C10.2377 27.0675 10.0013 27.3039 10.0013 27.6078C10.0013 27.9117 10.2377 28.1481 10.5416 28.1481H14.8299C14.9987 28.4519 15.2013 28.7558 15.4377 29.0597C18.9494 34.1247 26.5806 39.6286 27.965 39.9662V40C27.965 40 27.9987 40 28.0325 39.9662C28.0663 39.9662 28.1 39.9662 28.1338 39.9662V39.9325C29.3156 39.3584 36.6429 34.6312 40.4923 29.026C40.8637 28.5195 41.1676 28.013 41.4377 27.5065H44.9832C45.2871 27.5065 45.5234 27.2701 45.5234 26.9662C45.5234 26.6623 45.2195 26.4597 44.9156 26.4597ZM39.513 28.4519C35.9338 33.6857 29.3494 37.9065 27.9312 38.8182C26.4793 37.9065 19.9286 33.6519 16.3156 28.4519C16.2481 28.3507 16.1806 28.2494 16.113 28.1481H21.0767C21.2793 28.1481 21.4819 28.0468 21.5832 27.8442L23.8455 23.387L27.391 32.4701C27.4585 32.6727 27.6948 32.8078 27.8974 32.8078C27.8974 32.8078 27.8974 32.8078 27.9312 32.8078C28.1676 32.8078 28.3702 32.639 28.4377 32.4026L31.5442 21.7662L33.1987 27.1351C33.2663 27.3377 33.4351 27.4727 33.6377 27.5065C33.8403 27.5403 34.0429 27.439 34.178 27.2701L35.4949 25.3455L36.6091 27.2364C36.7104 27.4052 36.8793 27.5065 37.0819 27.5065H40.1208C39.9182 27.8442 39.7156 28.1481 39.513 28.4519ZM40.7286 26.4597H37.4195L36.0351 24.0961C35.9338 23.9273 35.765 23.826 35.5624 23.826C35.3598 23.826 35.191 23.8935 35.0897 24.0623L33.9416 25.7507L32.0845 19.7065C32.0169 19.4701 31.7806 19.3351 31.5442 19.3013C31.3078 19.3013 31.0715 19.4701 31.0039 19.7065L27.8637 30.5455L24.4533 21.8338C24.3858 21.6312 24.1832 21.4961 23.9806 21.4961C23.7442 21.4961 23.5754 21.5974 23.4741 21.8L20.8065 27.0338H15.4377C14.0871 24.5688 13.7156 22.2052 14.3234 20.0779C15.0325 17.6805 17.3624 15.1143 20.8741 15.1143C21.8195 15.1143 22.7987 15.3169 23.778 15.6545C26.2429 16.5662 27.5598 17.613 27.5935 17.613C27.7961 17.7818 28.0663 17.7818 28.2689 17.613C28.2689 17.613 29.5858 16.5662 32.0845 15.6545C33.0637 15.2831 34.0429 15.1143 34.9884 15.1143C38.4663 15.1143 40.8299 17.6805 41.539 20.0779C42.113 22.0364 41.8091 24.1974 40.7286 26.4597Z" fill="white"/>
</svg>
