<?xml version="1.0" encoding="utf-8"?>
<!-- Generator: Adobe Illustrator 24.0.2, SVG Export Plug-In . SVG Version: 6.00 Build 0)  -->
<svg version="1.1" id="Layer_1" xmlns="http://www.w3.org/2000/svg" xmlns:xlink="http://www.w3.org/1999/xlink" x="0px" y="0px"
	 viewBox="0 0 56 55" style="enable-background:new 0 0 56 55;" xml:space="preserve">
<style type="text/css">
	.st0{fill:#795ADF;}
	.st1{fill:#FFFFFF;}
</style>
<path class="st0" d="M10,0h35c5.5,0,10,4.5,10,10v35c0,5.5-4.5,10-10,10H10C4.5,55,0,50.5,0,45V10C0,4.5,4.5,0,10,0z"/>
<path class="st1" d="M44.9,26.5h-3c1.2-2.8,1.1-5.1,0.6-6.7C41.7,17,39,14,35,14c-1.1,0-2.2,0.2-3.3,0.6c-1.9,0.7-3.2,1.5-3.8,1.9
	c-0.6-0.4-1.8-1.2-3.8-1.9C23,14.2,21.9,14,20.8,14c-4.1,0-6.8,3-7.6,5.8c-0.5,1.7-0.6,4.2,0.9,7.3h-3.6c-0.3,0-0.5,0.2-0.5,0.5
	s0.2,0.5,0.5,0.5h4.3c0.2,0.3,0.4,0.6,0.6,0.9C18.9,34.1,26.6,39.6,28,40v0c0,0,0,0,0.1,0c0,0,0.1,0,0.1,0v0
	c1.2-0.6,8.5-5.3,12.4-10.9c0.4-0.5,0.7-1,0.9-1.5H45c0.3,0,0.5-0.2,0.5-0.5S45.2,26.5,44.9,26.5z M39.5,28.5
	c-3.6,5.2-10.2,9.5-11.6,10.4c-1.5-0.9-8-5.2-11.6-10.4c-0.1-0.1-0.1-0.2-0.2-0.3h5c0.2,0,0.4-0.1,0.5-0.3l2.3-4.5l3.5,9.1
	c0.1,0.2,0.3,0.3,0.5,0.3c0,0,0,0,0,0c0.2,0,0.4-0.2,0.5-0.4l3.1-10.6l1.7,5.4c0.1,0.2,0.2,0.3,0.4,0.4c0.2,0,0.4-0.1,0.5-0.2
	l1.3-1.9l1.1,1.9c0.1,0.2,0.3,0.3,0.5,0.3h3C39.9,27.8,39.7,28.1,39.5,28.5z M40.7,26.5h-3.3L36,24.1c-0.1-0.2-0.3-0.3-0.5-0.3
	c-0.2,0-0.4,0.1-0.5,0.2l-1.1,1.7l-1.9-6c-0.1-0.2-0.3-0.4-0.5-0.4c-0.2,0-0.5,0.2-0.5,0.4l-3.1,10.8l-3.4-8.7
	c-0.1-0.2-0.3-0.3-0.5-0.3c-0.2,0-0.4,0.1-0.5,0.3L20.8,27h-5.4c-1.4-2.5-1.7-4.8-1.1-7c0.7-2.4,3-5,6.6-5c0.9,0,1.9,0.2,2.9,0.5
	c2.5,0.9,3.8,2,3.8,2c0.2,0.2,0.5,0.2,0.7,0c0,0,1.3-1,3.8-2c1-0.4,2-0.5,2.9-0.5c3.5,0,5.8,2.6,6.6,5C42.1,22,41.8,24.2,40.7,26.5z
	"/>
</svg>
