<svg width="55" height="55" viewBox="0 0 55 55" fill="none" xmlns="http://www.w3.org/2000/svg">
<rect width="55" height="55" rx="10" fill="#5EACED"/>
<path fill-rule="evenodd" clip-rule="evenodd" d="M17.6667 19.0667H14.8333C14.7589 19.0667 14.6852 19.0813 14.6165 19.1098C14.5477 19.1383 14.4853 19.18 14.4326 19.2326C14.38 19.2853 14.3383 19.3477 14.3098 19.4165C14.2813 19.4852 14.2667 19.5589 14.2667 19.6333V22.4667C14.2667 22.5411 14.2813 22.6148 14.3098 22.6835C14.3383 22.7523 14.38 22.8147 14.4326 22.8674C14.4853 22.92 14.5477 22.9617 14.6165 22.9902C14.6852 23.0187 14.7589 23.0333 14.8333 23.0333H17.6667C17.7411 23.0333 17.8148 23.0187 17.8835 22.9902C17.9523 22.9617 18.0147 22.92 18.0674 22.8674C18.12 22.8147 18.1617 22.7523 18.1902 22.6835C18.2187 22.6148 18.2333 22.5411 18.2333 22.4667V21.3333H19.9575C19.9421 21.5207 19.9333 21.7096 19.9333 21.9C19.9333 22.106 19.9427 22.3138 19.961 22.5176L21.0898 22.4157C21.0744 22.2457 21.0667 22.0722 21.0667 21.9C21.0642 20.8548 21.3519 19.8294 21.8977 18.9379C22.4435 18.0465 23.2259 17.324 24.1579 16.8509L23.6421 15.8418C23.1769 16.0796 22.7405 16.3697 22.3411 16.7064L20.5 14.8653V10.5667C20.5 10.4923 20.4853 10.4186 20.4569 10.3498C20.4284 10.2811 20.3867 10.2186 20.334 10.166C20.2814 10.1133 20.2189 10.0716 20.1502 10.0431C20.0814 10.0147 20.0077 10 19.9333 10H15.4C15.3256 10 15.2519 10.0147 15.1831 10.0431C15.1144 10.0716 15.0519 10.1133 14.9993 10.166C14.9467 10.2186 14.9049 10.2811 14.8765 10.3498C14.848 10.4186 14.8333 10.4923 14.8333 10.5667V15.1C14.8333 15.1744 14.848 15.2481 14.8765 15.3169C14.9049 15.3856 14.9467 15.4481 14.9993 15.5007C15.0519 15.5533 15.1144 15.5951 15.1831 15.6235C15.2519 15.652 15.3256 15.6667 15.4 15.6667H19.6986L21.5386 17.5067C20.8768 18.2874 20.4011 19.2084 20.1474 20.2H18.2333V19.6333C18.2333 19.5589 18.2187 19.4852 18.1902 19.4165C18.1617 19.3477 18.12 19.2853 18.0674 19.2326C18.0147 19.18 17.9523 19.1383 17.8835 19.1098C17.8148 19.0813 17.7411 19.0667 17.6667 19.0667ZM17.1 21.9H15.4V20.2H17.1V21.9ZM19.3667 14.5333H15.9667V11.1333H19.3667V14.5333ZM25.4976 15.2121L25.7024 16.3268C26.0425 16.2645 26.3876 16.2333 26.7333 16.2333C27.6288 16.2305 28.5119 16.4423 29.3088 16.8509L29.8246 15.8418C29.2092 15.5262 28.5488 15.3076 27.8667 15.1937V13.9667H29C29.0744 13.9667 29.1481 13.952 29.2169 13.9235C29.2856 13.8951 29.3481 13.8533 29.4007 13.8007C29.4533 13.7481 29.4951 13.6856 29.5235 13.6169C29.552 13.5481 29.5667 13.4744 29.5667 13.4V10.5667C29.5667 10.4923 29.552 10.4186 29.5235 10.3498C29.4951 10.2811 29.4533 10.2186 29.4007 10.166C29.3481 10.1133 29.2856 10.0716 29.2169 10.0431C29.1481 10.0147 29.0744 10 29 10H26.1667C26.0922 10 26.0186 10.0147 25.9498 10.0431C25.8811 10.0716 25.8186 10.1133 25.766 10.166C25.7133 10.2186 25.6716 10.2811 25.6431 10.3498C25.6147 10.4186 25.6 10.4923 25.6 10.5667V13.4C25.6 13.4744 25.6147 13.5481 25.6431 13.6169C25.6716 13.6856 25.7133 13.7481 25.766 13.8007C25.8186 13.8533 25.8811 13.8951 25.9498 13.9235C26.0186 13.952 26.0922 13.9667 26.1667 13.9667H26.7333V15.1C26.3189 15.1 25.9053 15.1375 25.4976 15.2121ZM26.7333 11.1333H28.4333V12.8333H26.7333V11.1333ZM43.1667 19.0667H36.9333C36.8589 19.0667 36.7852 19.052 36.7165 19.0235C36.6477 18.9951 36.5853 18.9533 36.5326 18.9007C36.48 18.8481 36.4383 18.7856 36.4098 18.7169C36.3813 18.6481 36.3667 18.5744 36.3667 18.5V17.2558L33.0345 19.3384C33.3646 20.152 33.534 21.0219 33.5333 21.9C33.5333 21.9258 33.5326 21.9515 33.5319 21.9773C33.5314 21.9927 33.531 22.0081 33.5307 22.0236L36.9333 22.8742V22.4667C36.9333 22.3923 36.948 22.3186 36.9765 22.2498C37.0049 22.1811 37.0467 22.1186 37.0993 22.066C37.1519 22.0133 37.2144 21.9716 37.2831 21.9431C37.3519 21.9147 37.4256 21.9 37.5 21.9H40.9C40.9744 21.9 41.0481 21.9147 41.1169 21.9431C41.1856 21.9716 41.2481 22.0133 41.3007 22.066C41.3533 22.1186 41.3951 22.1811 41.4235 22.2498C41.452 22.3186 41.4667 22.3923 41.4667 22.4667V25.8667C41.4667 25.9411 41.452 26.0148 41.4235 26.0835C41.3951 26.1523 41.3533 26.2147 41.3007 26.2674C41.2481 26.32 41.1856 26.3617 41.1169 26.3902C41.0481 26.4187 40.9744 26.4333 40.9 26.4333H37.5C37.4256 26.4333 37.3519 26.4187 37.2831 26.3902C37.2144 26.3617 37.1519 26.32 37.0993 26.2674C37.0467 26.2147 37.0049 26.1523 36.9765 26.0835C36.948 26.0148 36.9333 25.9411 36.9333 25.8667V24.0424L33.4129 23.1623C33.2564 23.9886 32.9487 24.7788 32.5052 25.4933L34.2986 26.0911C34.736 26.2365 35.1165 26.516 35.3861 26.8899C35.6556 27.2639 35.8004 27.7133 35.8 28.1742V32.6667C35.8 32.7546 35.7795 32.8414 35.7402 32.9201L34.1 36.2004V43.4333C34.1 43.5077 34.0853 43.5814 34.0569 43.6502C34.0284 43.7189 33.9867 43.7814 33.934 43.834C33.8814 43.8867 33.8189 43.9284 33.7502 43.9569C33.6814 43.9853 33.6077 44 33.5333 44H26.1667C26.0922 44 26.0186 43.9853 25.9498 43.9569C25.8811 43.9284 25.8186 43.8867 25.766 43.834C25.7133 43.7814 25.6716 43.7189 25.6431 43.6502C25.6147 43.5814 25.6 43.5077 25.6 43.4333V36.2718L22.898 33.0294C22.8131 32.9276 22.7667 32.7992 22.7667 32.6667V29.2667C22.7667 29.1923 22.7813 29.1186 22.8098 29.0498C22.8383 28.9811 22.88 28.9186 22.9326 28.866L23.7742 28.0244C22.6994 27.5072 21.7805 26.7151 21.1104 25.7284L17.6667 27.8808V32.1C17.6667 32.1744 17.652 32.2481 17.6235 32.3169C17.5951 32.3856 17.5533 32.4481 17.5007 32.5007C17.4481 32.5533 17.3856 32.5951 17.3169 32.6235C17.2481 32.652 17.1744 32.6667 17.1 32.6667H12.5667C12.4923 32.6667 12.4186 32.652 12.3498 32.6235C12.2811 32.5951 12.2186 32.5533 12.166 32.5007C12.1133 32.4481 12.0716 32.3856 12.0431 32.3169C12.0147 32.2481 12 32.1744 12 32.1V27.5667C12 27.4923 12.0147 27.4186 12.0431 27.3498C12.0716 27.2811 12.1133 27.2186 12.166 27.166C12.2186 27.1133 12.2811 27.0716 12.3498 27.0431C12.4186 27.0147 12.4923 27 12.5667 27H16.9374L20.5532 24.7402C20.4977 24.6197 20.4457 24.4972 20.3971 24.3728L21.4528 23.9605C21.7342 24.6846 22.162 25.3429 22.7093 25.8942C23.2567 26.4455 23.9119 26.878 24.6339 27.1647L25.0333 26.7653V26.1037C24.1215 25.7352 23.3543 25.0798 22.8479 24.2367L23.8187 23.6518C24.1159 24.1463 24.5338 24.5572 25.0333 24.8459V21.7357C25.0333 21.3653 25.1672 21.0074 25.4103 20.7279C25.6533 20.4484 25.9892 20.2662 26.356 20.2148C26.7228 20.1635 27.0959 20.2464 27.4064 20.4483C27.7169 20.6503 27.9439 20.9577 28.0457 21.3138L28.8961 24.2903L29.086 24.3536C29.4919 23.9645 29.795 23.4809 29.9681 22.946C30.1412 22.4111 30.179 21.8416 30.0781 21.2885C29.9771 20.7354 29.7406 20.216 29.3897 19.7768C29.0388 19.3375 28.5844 18.9921 28.0672 18.7716C27.5501 18.551 26.9863 18.4621 26.4264 18.5129C25.8664 18.5636 25.3278 18.7524 24.8588 19.0624C24.3897 19.3724 24.0049 19.7939 23.7386 20.2891C23.4724 20.7843 23.3332 21.3378 23.3333 21.9C23.3333 22.0628 23.3448 22.2253 23.3678 22.3865L22.2459 22.5469C22.2153 22.3326 22.2 22.1164 22.2 21.9C22.1999 21.175 22.3737 20.4605 22.7069 19.8166C23.04 19.1727 23.5228 18.6181 24.1146 18.1993C24.7064 17.7805 25.3901 17.5098 26.1082 17.4099C26.8262 17.31 27.5578 17.3838 28.2415 17.6251C28.9252 17.8664 29.541 18.2682 30.0372 18.7967C30.5335 19.3253 30.8957 19.9651 31.0936 20.6626C31.2914 21.3601 31.319 22.0949 31.1741 22.8053C31.0293 23.5157 30.7161 24.1809 30.2609 24.7452L31.3939 25.1229C32.2016 23.9551 32.5415 22.5266 32.3461 21.1201C32.1508 19.7137 31.4346 18.4319 30.3392 17.5284L31.0608 16.6545C31.6346 17.1279 32.1271 17.6918 32.5188 18.3242L36.3667 15.9192V12.2667C36.3667 12.1923 36.3813 12.1186 36.4098 12.0498C36.4383 11.9811 36.48 11.9186 36.5326 11.866C36.5853 11.8133 36.6477 11.7716 36.7165 11.7431C36.7852 11.7147 36.8589 11.7 36.9333 11.7H43.1667C43.2411 11.7 43.3148 11.7147 43.3835 11.7431C43.4523 11.7716 43.5147 11.8133 43.5674 11.866C43.62 11.9186 43.6617 11.9811 43.6902 12.0498C43.7187 12.1186 43.7333 12.1923 43.7333 12.2667V18.5C43.7333 18.5744 43.7187 18.6481 43.6902 18.7169C43.6617 18.7856 43.62 18.8481 43.5674 18.9007C43.5147 18.9533 43.4523 18.9951 43.3835 19.0235C43.3148 19.052 43.2411 19.0667 43.1667 19.0667ZM13.1333 28.1333V31.5333H16.5333V28.1333H13.1333ZM34.6667 32.5329V28.1742C34.6669 27.9512 34.5968 27.7338 34.4664 27.5528C34.336 27.3719 34.1518 27.2366 33.9402 27.1663L33.5333 27.0306V28.7H32.4V26.6529L31.2667 26.2751V28.7H30.1333V25.8973L29 25.5195V28.7H27.8667V24.8127L26.9559 21.6252C26.9293 21.5319 26.8698 21.4513 26.7884 21.3984C26.7071 21.3455 26.6093 21.3238 26.5132 21.3372C26.4171 21.3507 26.3291 21.3984 26.2654 21.4717C26.2017 21.5449 26.1667 21.6387 26.1667 21.7357V31.5333H25.0333V28.3681L23.9 29.5014V32.4615L26.602 35.7039C26.6869 35.8057 26.7333 35.9341 26.7333 36.0667V42.8667H32.9667V36.0667C32.9667 35.9787 32.9872 35.8919 33.0265 35.8132L34.6667 32.5329ZM40.3333 23.0333H38.0667V25.3H40.3333V23.0333ZM42.6 12.8333H37.5V17.9333H42.6V12.8333Z" fill="white"/>
</svg>
