<?xml version="1.0" encoding="utf-8"?>
<!-- Generator: Adobe Illustrator 24.0.2, SVG Export Plug-In . SVG Version: 6.00 Build 0)  -->
<svg version="1.1" id="Layer_1" xmlns="http://www.w3.org/2000/svg" xmlns:xlink="http://www.w3.org/1999/xlink" x="0px" y="0px"
	 viewBox="0 0 55 55" style="enable-background:new 0 0 55 55;" xml:space="preserve">
<style type="text/css">
	.st0{fill:#5EACED;}
	.st1{fill-rule:evenodd;clip-rule:evenodd;fill:#FFFFFF;}
</style>
<path class="st0" d="M10,0h35c5.5,0,10,4.5,10,10v35c0,5.5-4.5,10-10,10H10C4.5,55,0,50.5,0,45V10C0,4.5,4.5,0,10,0z"/>
<path class="st1" d="M17.7,19.1h-2.8c-0.1,0-0.1,0-0.2,0c-0.1,0-0.1,0.1-0.2,0.1c-0.1,0.1-0.1,0.1-0.1,0.2c0,0.1,0,0.1,0,0.2v2.8
	c0,0.1,0,0.1,0,0.2c0,0.1,0.1,0.1,0.1,0.2c0.1,0.1,0.1,0.1,0.2,0.1c0.1,0,0.1,0,0.2,0h2.8c0.1,0,0.1,0,0.2,0c0.1,0,0.1-0.1,0.2-0.1
	c0.1-0.1,0.1-0.1,0.1-0.2c0-0.1,0-0.1,0-0.2v-1.1H20c0,0.2,0,0.4,0,0.6c0,0.2,0,0.4,0,0.6l1.1-0.1c0-0.2,0-0.3,0-0.5
	c0-1,0.3-2.1,0.8-3c0.5-0.9,1.3-1.6,2.3-2.1l-0.5-1c-0.5,0.2-0.9,0.5-1.3,0.9l-1.8-1.8v-4.3c0-0.1,0-0.1,0-0.2
	c0-0.1-0.1-0.1-0.1-0.2c-0.1-0.1-0.1-0.1-0.2-0.1c-0.1,0-0.1,0-0.2,0h-4.5c-0.1,0-0.1,0-0.2,0c-0.1,0-0.1,0.1-0.2,0.1
	c-0.1,0.1-0.1,0.1-0.1,0.2c0,0.1,0,0.1,0,0.2v4.5c0,0.1,0,0.1,0,0.2c0,0.1,0.1,0.1,0.1,0.2s0.1,0.1,0.2,0.1c0.1,0,0.1,0,0.2,0h4.3
	l1.8,1.8c-0.7,0.8-1.1,1.7-1.4,2.7h-1.9v-0.6c0-0.1,0-0.1,0-0.2c0-0.1-0.1-0.1-0.1-0.2c-0.1-0.1-0.1-0.1-0.2-0.1
	C17.8,19.1,17.7,19.1,17.7,19.1z M17.1,21.9h-1.7v-1.7h1.7V21.9z M19.4,14.5H16v-3.4h3.4V14.5z M25.5,15.2l0.2,1.1
	c0.3-0.1,0.7-0.1,1-0.1c0.9,0,1.8,0.2,2.6,0.6l0.5-1c-0.6-0.3-1.3-0.5-2-0.6V14H29c0.1,0,0.1,0,0.2,0c0.1,0,0.1-0.1,0.2-0.1
	c0.1-0.1,0.1-0.1,0.1-0.2c0-0.1,0-0.1,0-0.2v-2.8c0-0.1,0-0.1,0-0.2c0-0.1-0.1-0.1-0.1-0.2c-0.1-0.1-0.1-0.1-0.2-0.1
	c-0.1,0-0.1,0-0.2,0h-2.8c-0.1,0-0.1,0-0.2,0c-0.1,0-0.1,0.1-0.2,0.1c-0.1,0.1-0.1,0.1-0.1,0.2c0,0.1,0,0.1,0,0.2v2.8
	c0,0.1,0,0.1,0,0.2c0,0.1,0.1,0.1,0.1,0.2c0.1,0.1,0.1,0.1,0.2,0.1c0.1,0,0.1,0,0.2,0h0.6v1.1C26.3,15.1,25.9,15.1,25.5,15.2z
	 M26.7,11.1h1.7v1.7h-1.7V11.1z M43.2,19.1h-6.2c-0.1,0-0.1,0-0.2,0c-0.1,0-0.1-0.1-0.2-0.1c-0.1-0.1-0.1-0.1-0.1-0.2
	c0-0.1,0-0.1,0-0.2v-1.2L33,19.3c0.3,0.8,0.5,1.7,0.5,2.6c0,0,0,0.1,0,0.1c0,0,0,0,0,0l3.4,0.9v-0.4c0-0.1,0-0.1,0-0.2
	c0-0.1,0.1-0.1,0.1-0.2c0.1-0.1,0.1-0.1,0.2-0.1c0.1,0,0.1,0,0.2,0h3.4c0.1,0,0.1,0,0.2,0c0.1,0,0.1,0.1,0.2,0.1
	c0.1,0.1,0.1,0.1,0.1,0.2c0,0.1,0,0.1,0,0.2v3.4c0,0.1,0,0.1,0,0.2c0,0.1-0.1,0.1-0.1,0.2c-0.1,0.1-0.1,0.1-0.2,0.1
	c-0.1,0-0.1,0-0.2,0h-3.4c-0.1,0-0.1,0-0.2,0c-0.1,0-0.1-0.1-0.2-0.1C37,26.2,37,26.2,37,26.1c0-0.1,0-0.1,0-0.2V24l-3.5-0.9
	c-0.2,0.8-0.5,1.6-0.9,2.3l1.8,0.6c0.4,0.1,0.8,0.4,1.1,0.8c0.3,0.4,0.4,0.8,0.4,1.3v4.5c0,0.1,0,0.2-0.1,0.3l-1.6,3.3v7.2
	c0,0.1,0,0.1,0,0.2c0,0.1-0.1,0.1-0.1,0.2c-0.1,0.1-0.1,0.1-0.2,0.1c-0.1,0-0.1,0-0.2,0h-7.4c-0.1,0-0.1,0-0.2,0
	c-0.1,0-0.1-0.1-0.2-0.1c-0.1-0.1-0.1-0.1-0.1-0.2c0-0.1,0-0.1,0-0.2v-7.2L22.9,33c-0.1-0.1-0.1-0.2-0.1-0.4v-3.4c0-0.1,0-0.1,0-0.2
	c0-0.1,0.1-0.1,0.1-0.2l0.8-0.8c-1.1-0.5-2-1.3-2.7-2.3l-3.4,2.2v4.2c0,0.1,0,0.1,0,0.2c0,0.1-0.1,0.1-0.1,0.2
	c-0.1,0.1-0.1,0.1-0.2,0.1c-0.1,0-0.1,0-0.2,0h-4.5c-0.1,0-0.1,0-0.2,0c-0.1,0-0.1-0.1-0.2-0.1c-0.1-0.1-0.1-0.1-0.1-0.2
	c0-0.1,0-0.1,0-0.2v-4.5c0-0.1,0-0.1,0-0.2c0-0.1,0.1-0.1,0.1-0.2c0.1-0.1,0.1-0.1,0.2-0.1c0.1,0,0.1,0,0.2,0h4.4l3.6-2.3
	c-0.1-0.1-0.1-0.2-0.2-0.4l1.1-0.4c0.3,0.7,0.7,1.4,1.3,1.9c0.5,0.6,1.2,1,1.9,1.3l0.4-0.4v-0.7c-0.9-0.4-1.7-1-2.2-1.9l1-0.6
	c0.3,0.5,0.7,0.9,1.2,1.2v-3.1c0-0.4,0.1-0.7,0.4-1c0.2-0.3,0.6-0.5,0.9-0.5c0.4-0.1,0.7,0,1.1,0.2c0.3,0.2,0.5,0.5,0.6,0.9l0.9,3
	l0.2,0.1c0.4-0.4,0.7-0.9,0.9-1.4c0.2-0.5,0.2-1.1,0.1-1.7c-0.1-0.6-0.3-1.1-0.7-1.5c-0.4-0.4-0.8-0.8-1.3-1
	c-0.5-0.2-1.1-0.3-1.6-0.3c-0.6,0.1-1.1,0.2-1.6,0.5c-0.5,0.3-0.9,0.7-1.1,1.2c-0.3,0.5-0.4,1-0.4,1.6c0,0.2,0,0.3,0,0.5l-1.1,0.2
	c0-0.2,0-0.4,0-0.6c0-0.7,0.2-1.4,0.5-2.1c0.3-0.6,0.8-1.2,1.4-1.6c0.6-0.4,1.3-0.7,2-0.8c0.7-0.1,1.4,0,2.1,0.2
	c0.7,0.2,1.3,0.6,1.8,1.2c0.5,0.5,0.9,1.2,1.1,1.9c0.2,0.7,0.2,1.4,0.1,2.1c-0.1,0.7-0.5,1.4-0.9,1.9l1.1,0.4c0.8-1.2,1.1-2.6,1-4
	c-0.2-1.4-0.9-2.7-2-3.6l0.7-0.9c0.6,0.5,1.1,1,1.5,1.7l3.8-2.4v-3.7c0-0.1,0-0.1,0-0.2c0-0.1,0.1-0.1,0.1-0.2
	c0.1-0.1,0.1-0.1,0.2-0.1c0.1,0,0.1,0,0.2,0h6.2c0.1,0,0.1,0,0.2,0c0.1,0,0.1,0.1,0.2,0.1c0.1,0.1,0.1,0.1,0.1,0.2
	c0,0.1,0,0.1,0,0.2v6.2c0,0.1,0,0.1,0,0.2c0,0.1-0.1,0.1-0.1,0.2C43.5,19,43.5,19,43.4,19C43.3,19.1,43.2,19.1,43.2,19.1z
	 M13.1,28.1v3.4h3.4v-3.4H13.1z M34.7,32.5v-4.4c0-0.2-0.1-0.4-0.2-0.6c-0.1-0.2-0.3-0.3-0.5-0.4L33.5,27v1.7h-1.1v-2l-1.1-0.4v2.4
	h-1.1v-2.8L29,25.5v3.2h-1.1v-3.9L27,21.6c0-0.1-0.1-0.2-0.2-0.2c-0.1-0.1-0.2-0.1-0.3-0.1c-0.1,0-0.2,0.1-0.2,0.1
	c-0.1,0.1-0.1,0.2-0.1,0.3v9.8H25v-3.2l-1.1,1.1v3l2.7,3.2c0.1,0.1,0.1,0.2,0.1,0.4v6.8H33v-6.8c0-0.1,0-0.2,0.1-0.3L34.7,32.5z
	 M40.3,23h-2.3v2.3h2.3V23z M42.6,12.8h-5.1v5.1h5.1V12.8z"/>
</svg>
