<?xml version="1.0" encoding="utf-8"?>
<!-- Generator: Adobe Illustrator 24.0.2, SVG Export Plug-In . SVG Version: 6.00 Build 0)  -->
<svg version="1.1" id="Layer_1" xmlns="http://www.w3.org/2000/svg" xmlns:xlink="http://www.w3.org/1999/xlink" x="0px" y="0px"
	 viewBox="0 0 55 55" style="enable-background:new 0 0 55 55;" xml:space="preserve">
<style type="text/css">
	.st0{fill:#6BE5F9;}
	.st1{fill-rule:evenodd;clip-rule:evenodd;fill:#FFFFFF;}
</style>
<path class="st0" d="M10,0h35c5.5,0,10,4.5,10,10v35c0,5.5-4.5,10-10,10H10C4.5,55,0,50.5,0,45V10C0,4.5,4.5,0,10,0z"/>
<path class="st1" d="M28.3,12.4c0,0.3-0.2,0.5-0.5,0.5c-0.3,0-0.5-0.2-0.5-0.5v-1.9c0-0.3,0.2-0.5,0.5-0.5c0.3,0,0.5,0.2,0.5,0.5
	V12.4z M36.3,15.7l1.3-1.3c0.2-0.2,0.5-0.2,0.7,0c0.2,0.2,0.2,0.5,0,0.7L37,16.4c-0.1,0.1-0.2,0.1-0.4,0.1c-0.1,0-0.3,0-0.4-0.1
	C36.1,16.2,36.1,15.9,36.3,15.7z M18.7,33.3l-1.3,1.3c-0.2,0.2-0.2,0.5,0,0.7c0.1,0.1,0.2,0.1,0.4,0.1c0.1,0,0.3,0,0.4-0.1l1.3-1.3
	c0.2-0.2,0.2-0.5,0-0.7S18.9,33.1,18.7,33.3z M40.3,24.3h1.9c0.3,0,0.5,0.2,0.5,0.5c0,0.3-0.2,0.5-0.5,0.5h-1.9
	c-0.3,0-0.5-0.2-0.5-0.5C39.8,24.6,40.1,24.3,40.3,24.3z M15.4,24.3h-1.9c-0.3,0-0.5,0.2-0.5,0.5c0,0.3,0.2,0.5,0.5,0.5h1.9
	c0.3,0,0.5-0.2,0.5-0.5C15.9,24.6,15.6,24.3,15.4,24.3z M36.3,33.3c0.2-0.2,0.5-0.2,0.7,0l1.3,1.3c0.2,0.2,0.2,0.5,0,0.7
	c-0.1,0.1-0.2,0.1-0.4,0.1c-0.1,0-0.3,0-0.4-0.1L36.3,34C36.1,33.8,36.1,33.5,36.3,33.3z M18.7,16.4c0.1,0.1,0.2,0.1,0.4,0.1
	c0.1,0,0.3,0,0.4-0.1c0.2-0.2,0.2-0.5,0-0.7l-1.3-1.3c-0.2-0.2-0.5-0.2-0.7,0s-0.2,0.5,0,0.7L18.7,16.4z M34.4,16.7
	c2.5,2,3.9,5,3.9,8.1c0,4.3-2.7,8.1-6.4,9.6c0.5,0.3,0.8,0.7,0.8,1.3c0,0.6-0.4,1.2-1,1.4v1.2c0.6,0.2,1,0.8,1,1.4s-0.4,1.2-1,1.4v1
	c0,1-0.8,1.8-1.8,1.8h-4c-1,0-1.8-0.8-1.8-1.8v-1c-0.6-0.2-1-0.8-1-1.4s0.4-1.2,1-1.4v-1.2c-0.6-0.2-1-0.8-1-1.4
	c0-0.6,0.3-1.1,0.8-1.3c-3.8-1.6-6.4-5.3-6.4-9.6c0-5.8,4.7-10.5,10.5-10.5c1.7,0,3.2,0.4,4.7,1.1c0.2,0.1,0.3,0.4,0.2,0.7
	c-0.1,0.2-0.4,0.3-0.7,0.2c-1.3-0.7-2.8-1-4.3-1c-5.2,0-9.5,4.2-9.5,9.5c0,5.1,4,9.2,9,9.4v-1.1c-1.3-0.1-2.4-0.7-3.2-1.6
	c-0.2-0.2-0.2-0.5,0-0.7c0.2-0.2,0.5-0.2,0.7,0c0.6,0.7,1.5,1.2,2.5,1.3v-2l-2-1.6c-0.2-0.2-0.2-0.5-0.1-0.7
	c0.2-0.2,0.5-0.2,0.7-0.1l1.4,1.1v-2.3l-1.5-1.2c-0.2-0.2-0.3-0.5-0.1-0.7c0.2-0.2,0.5-0.3,0.7-0.1l0.9,0.7V23
	c0-0.3,0.2-0.5,0.5-0.5c0.3,0,0.5,0.2,0.5,0.5v2.2l0.9-0.7c0.2-0.2,0.5-0.1,0.7,0.1c0.2,0.2,0.1,0.5-0.1,0.7l-1.5,1.2v2.3l1.4-1.1
	c0.2-0.2,0.5-0.1,0.7,0.1c0.2,0.2,0.1,0.5-0.1,0.7l-2,1.6v2c2.3-0.2,3.7-2.1,3.7-5c0-2-1.1-3.9-1.8-4.9c-1.1-1.6-2-2.3-2.3-2.4
	c-0.3,0.1-1.3,0.9-2.3,2.4c-0.7,1-1.8,3-1.8,4.9c0,0.8,0.1,1.5,0.3,2.1c0.1,0.3-0.1,0.5-0.3,0.6c-0.3,0.1-0.5-0.1-0.6-0.3
	c-0.2-0.7-0.3-1.5-0.3-2.4c0-2.3,1.3-4.5,2.1-5.6c0.7-1,2.2-2.8,3.1-2.8c0.9,0,2.4,1.8,3.1,2.8c0.8,1.1,2.1,3.3,2.1,5.6
	c0,1.9-0.5,3.4-1.5,4.5c-0.8,0.9-1.9,1.4-3.2,1.5v1.1c5-0.3,9-4.4,9-9.4c0-2.9-1.3-5.5-3.5-7.4c-0.2-0.2-0.2-0.5-0.1-0.7
	C33.9,16.6,34.2,16.5,34.4,16.7z M30.7,38.3v-1H25v1H30.7z M27.8,40.3h3.3c0.3,0,0.5-0.2,0.5-0.5c0-0.3-0.2-0.5-0.5-0.5h-6.6
	c-0.3,0-0.5,0.2-0.5,0.5c0,0.3,0.2,0.5,0.5,0.5h1.2c0.3,0,0.5,0.2,0.5,0.5c0,0.3-0.2,0.5-0.5,0.5H25v0.9c0,0.5,0.4,0.8,0.8,0.8h4
	c0.5,0,0.8-0.4,0.8-0.8v-0.9h-2.8c-0.3,0-0.5-0.2-0.5-0.5C27.3,40.5,27.6,40.3,27.8,40.3z M24.5,36.3h6.6c0.3,0,0.5-0.2,0.5-0.5
	c0-0.3-0.2-0.5-0.5-0.5h-6.6c-0.3,0-0.5,0.2-0.5,0.5C24,36.1,24.2,36.3,24.5,36.3z"/>
</svg>
