<svg width="55" height="55" viewBox="0 0 55 55" fill="none" xmlns="http://www.w3.org/2000/svg">
<rect width="55" height="55" rx="10" fill="#6BE5F9"/>
<path fill-rule="evenodd" clip-rule="evenodd" d="M28.3398 12.3558C28.3398 12.6309 28.1169 12.8539 27.8418 12.8539C27.5667 12.8539 27.3438 12.6309 27.3438 12.3558V10.498C27.3438 10.223 27.5667 10 27.8418 10C28.1169 10 28.3398 10.223 28.3398 10.498V12.3558ZM36.3179 15.6613L37.6319 14.3472C37.8264 14.1527 38.1417 14.1527 38.3364 14.3472C38.5309 14.5416 38.5309 14.857 38.3364 15.0515L37.0223 16.3656C36.925 16.4629 36.7976 16.5115 36.6701 16.5115C36.5427 16.5115 36.4152 16.4628 36.3179 16.3656C36.1234 16.1712 36.1234 15.8558 36.3179 15.6613ZM18.6613 33.3178L17.3472 34.6319C17.1527 34.8264 17.1527 35.1418 17.3472 35.3362C17.4445 35.4335 17.572 35.4821 17.6995 35.4821C17.8269 35.4821 17.9544 35.4335 18.0517 35.3362L19.3657 34.0221C19.5602 33.8276 19.5602 33.5123 19.3657 33.3178C19.1712 33.1233 18.8559 33.1233 18.6613 33.3178ZM40.3277 24.3437H42.1855C42.4606 24.3437 42.6836 24.5667 42.6836 24.8417C42.6836 25.1168 42.4606 25.3398 42.1855 25.3398H40.3277C40.0526 25.3398 39.8297 25.1168 39.8297 24.8417C39.8297 24.5667 40.0526 24.3437 40.3277 24.3437ZM15.3558 24.3437H13.498C13.2229 24.3437 13 24.5667 13 24.8417C13 25.1168 13.2229 25.3398 13.498 25.3398H15.3558C15.6309 25.3398 15.8539 25.1168 15.8539 24.8417C15.8539 24.5667 15.6309 24.3437 15.3558 24.3437ZM36.3179 33.3178C36.5124 33.1233 36.8277 33.1233 37.0223 33.3178L38.3364 34.6319C38.5309 34.8264 38.5309 35.1417 38.3364 35.3362C38.2391 35.4335 38.1116 35.4821 37.9842 35.4821C37.8567 35.4821 37.7292 35.4335 37.6319 35.3362L36.3179 34.0221C36.1234 33.8276 36.1234 33.5123 36.3179 33.3178ZM18.6613 16.3656C18.7586 16.4629 18.8861 16.5115 19.0136 16.5115C19.141 16.5115 19.2685 16.4629 19.3658 16.3656C19.5603 16.1711 19.5603 15.8558 19.3658 15.6613L18.0517 14.3472C17.8572 14.1527 17.5419 14.1527 17.3474 14.3472C17.1529 14.5417 17.1529 14.857 17.3474 15.0515L18.6613 16.3656ZM34.4233 16.7128C36.8875 18.7102 38.3007 21.6731 38.3007 24.8418C38.3007 29.1778 35.6484 32.906 31.881 34.4893C32.3427 34.7438 32.6562 35.2353 32.6562 35.7988C32.6562 36.4482 32.2399 37.002 31.6601 37.2076V38.3744C32.2399 38.58 32.6562 39.1338 32.6562 39.7832C32.6562 40.4326 32.2399 40.9864 31.6601 41.192V42.1625C31.6601 43.1757 30.8358 44 29.8227 44H25.8609C24.8477 44 24.0234 43.1757 24.0234 42.1625V41.192C23.4437 40.9864 23.0273 40.4326 23.0273 39.7832C23.0273 39.1338 23.4437 38.58 24.0234 38.3744V37.2076C23.4437 37.002 23.0273 36.4481 23.0273 35.7988C23.0273 35.2353 23.3408 34.7437 23.8026 34.4893C20.0351 32.906 17.3828 29.1778 17.3828 24.8418C17.3828 19.0747 22.0747 14.3828 27.8418 14.3828C29.5003 14.3828 31.0866 14.7599 32.5566 15.5034C32.802 15.6276 32.9004 15.9272 32.7762 16.1727C32.652 16.4181 32.3525 16.5164 32.107 16.3923C30.7777 15.7198 29.3427 15.3789 27.8418 15.3789C22.6239 15.3789 18.3789 19.6239 18.3789 24.8417C18.3789 29.8926 22.3564 34.0318 27.3437 34.2916V33.1536C26.0582 33.0386 24.9249 32.4768 24.114 31.5426C23.9337 31.3348 23.956 31.0203 24.1637 30.84C24.3713 30.6597 24.6858 30.6819 24.8662 30.8896C25.4964 31.6155 26.3458 32.0471 27.3437 32.1536V30.151L25.3228 28.5161C25.109 28.3431 25.0758 28.0295 25.2488 27.8156C25.4218 27.6019 25.7354 27.5686 25.9493 27.7417L27.3437 28.8698V26.53L25.8035 25.3047C25.5882 25.1334 25.5526 24.8201 25.7238 24.6049C25.895 24.3896 26.2084 24.354 26.4236 24.5252L27.3437 25.2572V23.0488C27.3437 22.7738 27.5667 22.5508 27.8418 22.5508C28.1169 22.5508 28.3398 22.7738 28.3398 23.0488V25.2572L29.2599 24.5254C29.4752 24.3541 29.7885 24.3897 29.9597 24.605C30.131 24.8203 30.0953 25.1336 29.88 25.3048L28.3398 26.5301V28.8699L29.7343 27.7418C29.9481 27.5687 30.2617 27.6019 30.4347 27.8158C30.6078 28.0296 30.5747 28.3432 30.3608 28.5162L28.3398 30.1511V32.1542C30.6065 31.9165 31.9922 30.0341 31.9922 27.1222C31.9922 25.1686 30.8488 23.2104 30.1672 22.2171C29.0999 20.6616 28.1247 19.8764 27.8418 19.7689C27.5589 19.8764 26.5836 20.6616 25.5164 22.2171C24.8348 23.2104 23.6914 25.1686 23.6914 27.1222C23.6914 27.8863 23.7854 28.5873 23.9706 29.2058C24.0496 29.4693 23.9 29.7469 23.6365 29.8258C23.3729 29.9046 23.0953 29.7552 23.0164 29.4917C22.8033 28.7804 22.6953 27.9831 22.6953 27.1222C22.6953 24.8385 24.0074 22.6304 24.7895 21.5175C25.4583 20.5657 26.9571 18.7656 27.8418 18.7656C28.7264 18.7656 30.2252 20.5657 30.8941 21.5175C31.6762 22.6304 32.9882 24.8385 32.9882 27.1222C32.9882 28.9938 32.4727 30.5504 31.4974 31.624C30.6937 32.5084 29.5861 33.0417 28.3398 33.1536V34.2917C33.3271 34.0318 37.3046 29.8926 37.3046 24.8418C37.3046 21.9749 36.0258 19.294 33.7961 17.4866C33.5824 17.3134 33.5495 16.9998 33.7228 16.7861C33.896 16.5724 34.2096 16.5396 34.4233 16.7128ZM30.664 38.289V37.2929H25.0195V38.289H30.664ZM27.8418 40.2812H31.1621C31.4367 40.2812 31.6601 40.0578 31.6601 39.7832C31.6601 39.5085 31.4367 39.2851 31.1621 39.2851H24.5215C24.2468 39.2851 24.0234 39.5085 24.0234 39.7832C24.0234 40.0578 24.2468 40.2812 24.5215 40.2812H25.7219C25.997 40.2812 26.2199 40.5042 26.2199 40.7792C26.2199 41.0543 25.997 41.2773 25.7219 41.2773H25.0195V42.1625C25.0195 42.6264 25.397 43.0038 25.8609 43.0038H29.8227C30.2866 43.0038 30.664 42.6264 30.664 42.1625V41.2773H27.8418C27.5667 41.2773 27.3437 41.0543 27.3437 40.7792C27.3437 40.5042 27.5667 40.2812 27.8418 40.2812ZM24.5215 36.2968H31.1621C31.4367 36.2968 31.6601 36.0734 31.6601 35.7988C31.6601 35.5241 31.4367 35.3007 31.1621 35.3007H24.5215C24.2468 35.3007 24.0234 35.5241 24.0234 35.7988C24.0234 36.0734 24.2468 36.2968 24.5215 36.2968Z" fill="white"/>
</svg>
