<svg width="55" height="55" viewBox="0 0 55 55" fill="none" xmlns="http://www.w3.org/2000/svg">
<rect width="55" height="55" rx="10" fill="#BE61C2"/>
<path fill-rule="evenodd" clip-rule="evenodd" d="M18.3585 20.3204H15.509C14.85 20.3197 14.2183 20.0576 13.7523 19.5916C13.2864 19.1257 13.0243 18.4939 13.0236 17.835V13.4855C13.0243 12.8265 13.2864 12.1948 13.7523 11.7288C14.2183 11.2629 14.85 11.0008 15.509 11H19.0864C20.8494 10.9951 22.5481 11.6616 23.8373 12.8641H24.8294V12.2427C24.8294 12.0779 24.8948 11.9199 25.0114 11.8034C25.1279 11.6869 25.2859 11.6214 25.4507 11.6214H42.2274V12.8641H26.0721V20.3204H31.6643V21.5631H25.4507C25.2859 21.5631 25.1279 21.4977 25.0114 21.3811C24.8948 21.2646 24.8294 21.1066 24.8294 20.9418V20.3204H23.844L20.6839 23.4805C20.5038 23.6606 20.29 23.8034 20.0547 23.9009C19.8194 23.9984 19.5672 24.0485 19.3125 24.0485C19.0578 24.0485 18.8056 23.9984 18.5703 23.9009C18.335 23.8034 18.1212 23.6606 17.9411 23.4805C17.761 23.3004 17.6182 23.0866 17.5207 22.8513C17.4233 22.616 17.3731 22.3638 17.3731 22.1091C17.3731 21.8544 17.4233 21.6022 17.5207 21.3669C17.6182 21.1316 17.761 20.9178 17.9411 20.7377L18.3585 20.3204ZM14.6307 12.6072C14.3977 12.8401 14.2667 13.156 14.2663 13.4855V17.835C14.2667 18.1644 14.3977 18.4803 14.6307 18.7133C14.8637 18.9462 15.1795 19.0773 15.509 19.0777H19.8585C19.9814 19.0777 20.1015 19.1141 20.2037 19.1824C20.3059 19.2507 20.3855 19.3477 20.4326 19.4613C20.4796 19.5748 20.4919 19.6997 20.4679 19.8203C20.444 19.9408 20.3848 20.0515 20.2979 20.1384L18.8198 21.6164C18.6891 21.7471 18.6157 21.9243 18.6157 22.1091C18.6157 22.2939 18.6891 22.4711 18.8198 22.6018C18.9505 22.7325 19.1277 22.8059 19.3125 22.8059C19.4973 22.8059 19.6745 22.7325 19.8052 22.6018L23.1473 19.2597C23.205 19.202 23.2735 19.1562 23.3489 19.125C23.4242 19.0938 23.505 19.0777 23.5866 19.0777H24.8294V14.1068H23.5866C23.505 14.1068 23.4242 14.0908 23.3489 14.0595C23.2735 14.0283 23.205 13.9825 23.1473 13.9248C22.6152 13.3899 21.9824 12.9657 21.2853 12.677C20.5883 12.3883 19.8409 12.2407 19.0864 12.2427H15.509C15.1795 12.2431 14.8637 12.3742 14.6307 12.6072ZM28.5575 14.1068H27.3148V15.3495H28.5575V14.1068ZM30.8928 37.0361L29.4681 34.5684L30.038 34.7212C30.2843 34.788 30.5414 34.8056 30.7945 34.7729C31.0476 34.7402 31.2918 34.6578 31.513 34.5306C31.7342 34.4033 31.9281 34.2336 32.0836 34.0313C32.2391 33.8289 32.3532 33.5979 32.4193 33.3514C32.4853 33.1049 32.5021 32.8477 32.4686 32.5947C32.435 32.3418 32.3519 32.0979 32.224 31.877C32.096 31.6562 31.9258 31.4628 31.7229 31.3079C31.5201 31.1531 31.2887 31.0397 31.042 30.9744L26.7253 29.8178L26.2326 28.9644L26.7707 28.6537C26.9134 28.5713 27.0175 28.4356 27.0602 28.2765C27.1028 28.1173 27.0805 27.9477 26.9981 27.805L23.8352 22.3265L22.759 22.9479L25.6112 27.8882L19.1539 31.6164L11.0762 17.6253L10 18.2466L18.3883 32.7756C18.4291 32.8463 18.4834 32.9082 18.5481 32.9579C18.6129 33.0076 18.6868 33.0441 18.7656 33.0652C18.8444 33.0864 18.9266 33.0918 19.0075 33.0811C19.0884 33.0705 19.1664 33.044 19.2371 33.0032L19.7752 32.6926L20.2713 33.5518C19.8745 35.2696 20.1467 37.0739 21.0324 38.5982L22.8212 41.6963C22.9836 41.9795 23.2007 42.2277 23.4597 42.4265C23.7188 42.6253 24.0147 42.7707 24.3303 42.8543C24.5414 42.911 24.7591 42.9397 24.9777 42.9398C25.4128 42.9395 25.84 42.8242 26.2163 42.6058L29.9833 40.431C30.5535 40.1009 30.9694 39.558 31.1399 38.9216C31.3104 38.2852 31.2215 37.6071 30.8928 37.0361ZM29.3617 39.3551L25.5947 41.5298C25.3093 41.6946 24.9701 41.7392 24.6518 41.6539C24.3335 41.5686 24.0621 41.3603 23.8973 41.0749L22.1086 37.9768C21.7296 37.3245 21.4837 36.6034 21.3853 35.8554C21.2868 35.1073 21.3376 34.3472 21.5349 33.6189C21.5775 33.4598 21.5552 33.2902 21.4728 33.1475L20.8514 32.0712L25.1562 29.5858L25.7776 30.662C25.8184 30.7327 25.8727 30.7946 25.9375 30.8443C26.0022 30.894 26.0761 30.9304 26.1549 30.9515L30.7203 32.1748C30.8094 32.1978 30.8931 32.2382 30.9666 32.2937C31.04 32.3493 31.1017 32.4188 31.1481 32.4983C31.1945 32.5778 31.2247 32.6657 31.2369 32.7569C31.2492 32.8482 31.2432 32.9409 31.2194 33.0299C31.1956 33.1188 31.1544 33.2021 31.0982 33.275C31.0419 33.3479 30.9718 33.409 30.8919 33.4546C30.812 33.5003 30.7238 33.5296 30.6324 33.541C30.541 33.5524 30.4483 33.5455 30.3597 33.5208L28.3402 32.9798C28.2215 32.948 28.096 32.952 27.9796 32.9915C27.8632 33.031 27.7612 33.1041 27.6863 33.2017C27.6115 33.2992 27.5673 33.4167 27.5592 33.5393C27.5512 33.662 27.5797 33.7843 27.6412 33.8907L29.816 37.6577C29.9804 37.9431 30.0249 38.2821 29.9397 38.6003C29.8546 38.9185 29.6467 39.1899 29.3617 39.3551ZM20.0633 28.2206L18.9871 28.842L19.6084 29.9181L20.6846 29.2968L20.0633 28.2206ZM44.7128 16.7767L40.9458 14.602C40.3748 14.2732 39.6966 14.1843 39.0602 14.3548C38.4237 14.5253 37.8808 14.9414 37.5507 15.5116L36.1259 17.9793L35.9732 17.4094C35.8382 16.9146 35.5128 16.4933 35.068 16.2379C34.6233 15.9824 34.0955 15.9135 33.6001 16.0463C33.1047 16.179 32.682 16.5026 32.4246 16.9462C32.1671 17.3897 32.0959 17.9172 32.2264 18.4132L33.3831 22.73L32.8905 23.5833L32.3523 23.2726C32.2096 23.1903 32.04 23.1679 31.8808 23.2106C31.7216 23.2532 31.5859 23.3574 31.5035 23.5001L28.3752 28.9185L29.4514 29.5398L32.269 24.6596L38.7263 28.3877L30.6487 42.3786L31.725 43L40.1133 28.4709C40.1957 28.3282 40.218 28.1586 40.1754 27.9994C40.1327 27.8403 40.0286 27.7046 39.8859 27.6222L39.3477 27.3115L39.8438 26.4523C41.5298 25.9371 42.9563 24.7992 43.8335 23.27L45.6223 20.1718C45.9511 19.6008 46.04 18.9227 45.8695 18.2862C45.699 17.6498 45.2831 17.1069 44.7128 16.7767ZM44.5464 19.5505L42.7576 22.6486C42.3822 23.3031 41.8806 23.8766 41.282 24.3359C40.6834 24.7951 39.9996 25.1311 39.2703 25.3244C39.1914 25.3455 39.1175 25.3819 39.0528 25.4316C38.9881 25.4813 38.9337 25.5432 38.8929 25.6139L38.2716 26.6901L33.9667 24.2047L34.588 23.1285C34.6288 23.0578 34.6553 22.9798 34.666 22.8989C34.6766 22.818 34.6713 22.7358 34.6502 22.657L33.4269 18.0917C33.4024 18.003 33.3956 17.9104 33.4071 17.8192C33.4186 17.7279 33.448 17.6399 33.4937 17.5601C33.5393 17.4802 33.6003 17.4102 33.6732 17.3541C33.746 17.298 33.8293 17.2568 33.9181 17.233C34.0069 17.2092 34.0996 17.2032 34.1907 17.2154C34.2819 17.2276 34.3697 17.2577 34.4492 17.304C34.5286 17.3503 34.5982 17.4119 34.6537 17.4851C34.7093 17.5584 34.7498 17.642 34.7729 17.731L35.3138 19.7499C35.3456 19.8686 35.4119 19.9753 35.5043 20.0563C35.5967 20.1373 35.7111 20.1891 35.833 20.2052C35.9548 20.2212 36.0787 20.2008 36.1889 20.1464C36.2991 20.092 36.3907 20.0062 36.4522 19.8998L38.6269 16.1328C38.792 15.8476 39.0634 15.6396 39.3817 15.5543C39.6999 15.469 40.039 15.5135 40.3246 15.6779L44.0915 17.8527C44.3767 18.0178 44.5847 18.2893 44.6699 18.6076C44.7551 18.9259 44.7106 19.265 44.5461 19.5505H44.5464ZM35.952 28.2219L35.3306 29.2981L36.4068 29.9195L37.0282 28.8433L35.952 28.2219Z" fill="white"/>
</svg>
