<?xml version="1.0" encoding="utf-8"?>
<!-- Generator: Adobe Illustrator 24.0.2, SVG Export Plug-In . SVG Version: 6.00 Build 0)  -->
<svg version="1.1" id="Layer_1" xmlns="http://www.w3.org/2000/svg" xmlns:xlink="http://www.w3.org/1999/xlink" x="0px" y="0px"
	 viewBox="0 0 55 55" style="enable-background:new 0 0 55 55;" xml:space="preserve">
<style type="text/css">
	.st0{fill:#BE61C2;}
	.st1{fill-rule:evenodd;clip-rule:evenodd;fill:#FFFFFF;}
</style>
<path class="st0" d="M10,0h35c5.5,0,10,4.5,10,10v35c0,5.5-4.5,10-10,10H10C4.5,55,0,50.5,0,45V10C0,4.5,4.5,0,10,0z"/>
<path class="st1" d="M18.4,20.3h-2.8c-0.7,0-1.3-0.3-1.8-0.7c-0.5-0.5-0.7-1.1-0.7-1.8v-4.3c0-0.7,0.3-1.3,0.7-1.8
	c0.5-0.5,1.1-0.7,1.8-0.7h3.6c1.8,0,3.5,0.7,4.8,1.9h1v-0.6c0-0.2,0.1-0.3,0.2-0.4c0.1-0.1,0.3-0.2,0.4-0.2h16.8v1.2H26.1v7.5h5.6
	v1.2h-6.2c-0.2,0-0.3-0.1-0.4-0.2c-0.1-0.1-0.2-0.3-0.2-0.4v-0.6h-1l-3.2,3.2c-0.2,0.2-0.4,0.3-0.6,0.4S19.6,24,19.3,24
	s-0.5-0.1-0.7-0.1s-0.4-0.2-0.6-0.4c-0.2-0.2-0.3-0.4-0.4-0.6c-0.1-0.2-0.1-0.5-0.1-0.7s0.1-0.5,0.1-0.7c0.1-0.2,0.2-0.4,0.4-0.6
	L18.4,20.3z M14.6,12.6c-0.2,0.2-0.4,0.5-0.4,0.9v4.3c0,0.3,0.1,0.6,0.4,0.9c0.2,0.2,0.5,0.4,0.9,0.4h4.3c0.1,0,0.2,0,0.3,0.1
	c0.1,0.1,0.2,0.2,0.2,0.3c0,0.1,0.1,0.2,0,0.4c0,0.1-0.1,0.2-0.2,0.3l-1.5,1.5c-0.1,0.1-0.2,0.3-0.2,0.5c0,0.2,0.1,0.4,0.2,0.5
	c0.1,0.1,0.3,0.2,0.5,0.2s0.4-0.1,0.5-0.2l3.3-3.3c0.1-0.1,0.1-0.1,0.2-0.1c0.1,0,0.2,0,0.2,0h1.2v-5h-1.2c-0.1,0-0.2,0-0.2,0
	c-0.1,0-0.1-0.1-0.2-0.1c-0.5-0.5-1.2-1-1.9-1.2c-0.7-0.3-1.4-0.4-2.2-0.4h-3.6C15.2,12.2,14.9,12.4,14.6,12.6z M28.6,14.1h-1.2v1.2
	h1.2V14.1z M30.9,37l-1.4-2.5l0.6,0.2c0.2,0.1,0.5,0.1,0.8,0.1s0.5-0.1,0.7-0.2c0.2-0.1,0.4-0.3,0.6-0.5c0.2-0.2,0.3-0.4,0.3-0.7
	c0.1-0.2,0.1-0.5,0-0.8c0-0.3-0.1-0.5-0.2-0.7c-0.1-0.2-0.3-0.4-0.5-0.6C31.5,31.2,31.3,31,31,31l-4.3-1.2L26.2,29l0.5-0.3
	c0.1-0.1,0.2-0.2,0.3-0.4c0-0.2,0-0.3-0.1-0.5l-3.2-5.5l-1.1,0.6l2.9,4.9l-6.5,3.7l-8.1-14L10,18.2l8.4,14.5c0,0.1,0.1,0.1,0.2,0.2
	c0.1,0,0.1,0.1,0.2,0.1c0.1,0,0.2,0,0.2,0c0.1,0,0.2,0,0.2-0.1l0.5-0.3l0.5,0.9c-0.4,1.7-0.1,3.5,0.8,5l1.8,3.1
	c0.2,0.3,0.4,0.5,0.6,0.7c0.3,0.2,0.6,0.3,0.9,0.4c0.2,0.1,0.4,0.1,0.6,0.1c0.4,0,0.9-0.1,1.2-0.3l3.8-2.2c0.6-0.3,1-0.9,1.2-1.5
	C31.3,38.3,31.2,37.6,30.9,37z M29.4,39.4l-3.8,2.2c-0.3,0.2-0.6,0.2-0.9,0.1s-0.6-0.3-0.8-0.6L22.1,38c-0.4-0.7-0.6-1.4-0.7-2.1
	c-0.1-0.7,0-1.5,0.1-2.2c0-0.2,0-0.3-0.1-0.5l-0.6-1.1l4.3-2.5l0.6,1.1c0,0.1,0.1,0.1,0.2,0.2c0.1,0,0.1,0.1,0.2,0.1l4.6,1.2
	c0.1,0,0.2,0.1,0.2,0.1c0.1,0.1,0.1,0.1,0.2,0.2c0,0.1,0.1,0.2,0.1,0.3c0,0.1,0,0.2,0,0.3c0,0.1-0.1,0.2-0.1,0.2
	c-0.1,0.1-0.1,0.1-0.2,0.2c-0.1,0-0.2,0.1-0.3,0.1c-0.1,0-0.2,0-0.3,0l-2-0.5c-0.1,0-0.2,0-0.4,0c-0.1,0-0.2,0.1-0.3,0.2
	c-0.1,0.1-0.1,0.2-0.1,0.3c0,0.1,0,0.2,0.1,0.4l2.2,3.8c0.2,0.3,0.2,0.6,0.1,0.9C29.9,38.9,29.6,39.2,29.4,39.4z M20.1,28.2L19,28.8
	l0.6,1.1l1.1-0.6L20.1,28.2z M44.7,16.8l-3.8-2.2c-0.6-0.3-1.2-0.4-1.9-0.2c-0.6,0.2-1.2,0.6-1.5,1.2L36.1,18L36,17.4
	c-0.1-0.5-0.5-0.9-0.9-1.2c-0.4-0.3-1-0.3-1.5-0.2c-0.5,0.1-0.9,0.5-1.2,0.9c-0.3,0.4-0.3,1-0.2,1.5l1.2,4.3l-0.5,0.9l-0.5-0.3
	c-0.1-0.1-0.3-0.1-0.5-0.1c-0.2,0-0.3,0.1-0.4,0.3l-3.1,5.4l1.1,0.6l2.8-4.9l6.5,3.7l-8.1,14l1.1,0.6l8.4-14.5
	c0.1-0.1,0.1-0.3,0.1-0.5c0-0.2-0.1-0.3-0.3-0.4l-0.5-0.3l0.5-0.9c1.7-0.5,3.1-1.7,4-3.2l1.8-3.1c0.3-0.6,0.4-1.2,0.2-1.9
	C45.7,17.6,45.3,17.1,44.7,16.8z M44.5,19.6l-1.8,3.1c-0.4,0.7-0.9,1.2-1.5,1.7c-0.6,0.5-1.3,0.8-2,1c-0.1,0-0.2,0.1-0.2,0.1
	s-0.1,0.1-0.2,0.2l-0.6,1.1L34,24.2l0.6-1.1c0-0.1,0.1-0.1,0.1-0.2c0-0.1,0-0.2,0-0.2l-1.2-4.6c0-0.1,0-0.2,0-0.3
	c0-0.1,0-0.2,0.1-0.3c0-0.1,0.1-0.1,0.2-0.2c0.1-0.1,0.2-0.1,0.2-0.1c0.1,0,0.2,0,0.3,0c0.1,0,0.2,0,0.3,0.1c0.1,0,0.1,0.1,0.2,0.2
	c0.1,0.1,0.1,0.2,0.1,0.2l0.5,2c0,0.1,0.1,0.2,0.2,0.3c0.1,0.1,0.2,0.1,0.3,0.1c0.1,0,0.2,0,0.4-0.1c0.1-0.1,0.2-0.1,0.3-0.2
	l2.2-3.8c0.2-0.3,0.4-0.5,0.8-0.6c0.3-0.1,0.7,0,0.9,0.1l3.8,2.2c0.3,0.2,0.5,0.4,0.6,0.8C44.8,18.9,44.7,19.3,44.5,19.6L44.5,19.6z
	 M36,28.2l-0.6,1.1l1.1,0.6l0.6-1.1L36,28.2z"/>
</svg>
