<?xml version="1.0" encoding="utf-8"?>
<!-- Generator: Adobe Illustrator 24.0.2, SVG Export Plug-In . SVG Version: 6.00 Build 0)  -->
<svg version="1.1" id="Layer_1" xmlns="http://www.w3.org/2000/svg" xmlns:xlink="http://www.w3.org/1999/xlink" x="0px" y="0px"
	 viewBox="0 0 55 55" style="enable-background:new 0 0 55 55;" xml:space="preserve">
<style type="text/css">
	.st0{fill:#706BE2;}
	.st1{fill-rule:evenodd;clip-rule:evenodd;fill:#FFFFFF;}
</style>
<path class="st0" d="M10,0h35c5.5,0,10,4.5,10,10v35c0,5.5-4.5,10-10,10H10C4.5,55,0,50.5,0,45V10C0,4.5,4.5,0,10,0z"/>
<path class="st1" d="M14.7,20.5c0,0.3-0.3,0.5-0.5,0.4c-0.3,0-0.5-0.3-0.4-0.5l0.3-2.6c0.1-1,0.9-1.7,1.9-1.7h3.5v-0.7
	c0-2.9,2.4-5.3,5.3-5.3s5.3,2.4,5.3,5.3V16h3.5c1,0,1.8,0.8,1.9,1.7l0.7,6.3c0,0.3-0.2,0.5-0.4,0.5c0,0,0,0-0.1,0
	c-0.3,0-0.5-0.2-0.5-0.4l-0.7-6.3c-0.1-0.5-0.5-0.9-1-0.9H30v1.7c0,0.3-0.2,0.5-0.5,0.5c-0.3,0-0.5-0.2-0.5-0.5V17h-8.6v1.7
	c0,0.3-0.2,0.5-0.5,0.5c-0.3,0-0.5-0.2-0.5-0.5V17H16c-0.5,0-0.9,0.4-1,0.9L14.7,20.5z M24.7,11c-2.4,0-4.3,1.9-4.3,4.3V16H29v-0.7
	C29,12.9,27.1,11,24.7,11z M38.1,30.6c-0.6-0.6-0.6-1.6,0-2.2c0.6-0.6,1.6-0.6,2.2,0c0.6,0.6,0.6,1.6,0,2.2C40,30.9,39.6,31,39.2,31
	C38.8,31,38.4,30.9,38.1,30.6z M38.8,29.9c0.2,0.2,0.6,0.2,0.8,0c0.2-0.2,0.2-0.6,0-0.8c-0.2-0.2-0.6-0.2-0.8,0
	C38.6,29.3,38.6,29.6,38.8,29.9z M43.1,33.5l-0.2-5.7c0-1.1-0.9-1.9-2-2l-5.7-0.2c-0.6,0-1.1,0.2-1.5,0.6l-8.3,8.3
	c-0.4,0.4-0.6,1-0.6,1.5H13l1.5-13.6c0-0.3-0.2-0.5-0.4-0.5c-0.3,0-0.5,0.2-0.5,0.4L12,36c-0.1,1.1,0.2,2.3,1,3.2
	c0.8,0.9,1.9,1.4,3,1.4h12.2l2.8,2.8c0.4,0.4,1,0.6,1.6,0.6s1.1-0.2,1.6-0.6l8.3-8.3C42.9,34.6,43.1,34.1,43.1,33.5z M16.1,39.6
	c-0.9,0-1.7-0.4-2.3-1c-0.4-0.4-0.6-1-0.7-1.5h11.8c0.1,0.2,0.2,0.4,0.4,0.6l2,2H16.1z M41.8,34.3l-8.3,8.3c-0.5,0.5-1.2,0.5-1.7,0
	L26,36.9c-0.5-0.5-0.5-1.2,0-1.7l8.3-8.3c0.2-0.2,0.5-0.3,0.7-0.3c0,0,0,0,0,0l5.7,0.2c0.5,0,1,0.5,1,1l0.2,5.7
	C42.1,33.8,42,34.1,41.8,34.3z M34,32.4c0,1-0.8,1.7-1.7,1.7c-1,0-1.7-0.8-1.7-1.7c0-1,0.8-1.7,1.7-1.7C33.3,30.6,34,31.4,34,32.4z
	 M33,32.4c0-0.4-0.3-0.7-0.7-0.7c-0.4,0-0.7,0.3-0.7,0.7c0,0.4,0.3,0.7,0.7,0.7C32.7,33.1,33,32.8,33,32.4z M35.4,35.5
	c-1,0-1.7,0.8-1.7,1.7c0,1,0.8,1.7,1.7,1.7c1,0,1.7-0.8,1.7-1.7C37.1,36.3,36.3,35.5,35.4,35.5z M35.4,37.9c-0.4,0-0.7-0.3-0.7-0.7
	c0-0.4,0.3-0.7,0.7-0.7c0.4,0,0.7,0.3,0.7,0.7C36.1,37.6,35.8,37.9,35.4,37.9z M36,31.9c0.2-0.2,0.5-0.2,0.7,0
	c0.2,0.2,0.2,0.5,0,0.7l-5.1,5.1c-0.1,0.1-0.2,0.1-0.4,0.1c-0.1,0-0.3,0-0.4-0.1c-0.2-0.2-0.2-0.5,0-0.7L36,31.9z"/>
</svg>
