<svg width="55" height="55" viewBox="0 0 55 55" fill="none" xmlns="http://www.w3.org/2000/svg">
<rect width="55" height="55" rx="10" fill="#706BE2"/>
<path fill-rule="evenodd" clip-rule="evenodd" d="M14.7232 20.4771C14.6933 20.7508 14.4474 20.9487 14.174 20.9184C13.9006 20.8885 13.7032 20.6426 13.733 20.3692L14.0171 17.7646C14.1258 16.7688 14.9631 16.0178 15.9646 16.0178H19.425V15.2777C19.425 12.3675 21.7926 10 24.7028 10C27.613 10 29.9808 12.3675 29.9805 15.2777V16.0178H33.4409C34.4424 16.0178 35.2798 16.7688 35.3885 17.7646L36.0715 24.0249C36.1013 24.2984 35.9039 24.5443 35.6302 24.5741C35.6121 24.5759 35.5937 24.577 35.5758 24.577C35.3249 24.577 35.1091 24.3881 35.0813 24.1329L34.3983 17.8728C34.3449 17.3833 33.9332 17.0142 33.4409 17.0142H29.9808V18.6837C29.9808 18.9586 29.7577 19.1817 29.4827 19.1817C29.2075 19.1817 28.9844 18.9586 28.9844 18.6837V17.0142H20.4211V18.6837C20.4211 18.9586 20.198 19.1817 19.9231 19.1817C19.6479 19.1817 19.425 18.9586 19.425 18.6837V17.0142H15.9646C15.4723 17.0142 15.0606 17.383 15.0072 17.8725L14.7232 20.4771ZM24.7028 10.9961C22.342 10.9961 20.4211 12.9169 20.4211 15.2777V16.0178H28.9844V15.2777C28.9844 12.9169 27.0638 10.9961 24.7028 10.9961ZM38.0694 30.5631C37.4595 29.9533 37.4595 28.9608 38.0694 28.351C38.6792 27.7411 39.6717 27.7411 40.2815 28.351C40.8914 28.9608 40.8914 29.9533 40.2815 30.5631C39.9765 30.8682 39.576 31.0207 39.1754 31.0207C38.7747 31.0207 38.3742 30.8682 38.0694 30.5631ZM38.7736 29.8589C38.9952 30.0804 39.3557 30.0804 39.5773 29.8589C39.7988 29.6373 39.7988 29.277 39.5773 29.0555C39.3557 28.834 38.9952 28.834 38.7736 29.0555C38.5521 29.2768 38.5521 29.6373 38.7736 29.8589ZM43.0664 33.492L42.8345 27.7681C42.7915 26.7064 41.9261 25.8413 40.8647 25.7982L35.1405 25.5661C34.5688 25.5427 34.009 25.7616 33.6043 26.1663L25.274 34.4967C24.8563 34.9143 24.6429 35.4598 24.633 36.0082H13.0288L14.5076 22.4499C14.5374 22.1762 14.34 21.9306 14.0666 21.9007C13.7927 21.8707 13.5473 22.0683 13.5175 22.3417L12.0239 36.0339C11.8988 37.1822 12.2692 38.334 13.0407 39.1941C13.8119 40.054 14.9169 40.5472 16.0718 40.5472H28.2226L31.0339 43.3585C31.4617 43.7863 32.0233 44 32.5849 44C33.1465 44 33.7084 43.7863 34.1358 43.3585L42.4662 35.0282C42.8709 34.6235 43.0898 34.0637 43.0664 33.492ZM16.0718 39.5511C15.1994 39.5511 14.3649 39.1786 13.7823 38.529C13.3943 38.0966 13.1406 37.5664 13.0423 37.0043H24.8512C24.9549 37.2193 25.096 37.4206 25.274 37.5986L27.2265 39.5511H16.0718ZM41.7619 34.3239L33.4316 42.6543C32.9647 43.1209 32.2051 43.1212 31.7382 42.6543L25.9782 36.8943C25.5116 36.4274 25.5116 35.6678 25.9782 35.2009L34.3089 26.8706C34.5073 26.6721 34.7781 26.5606 35.0577 26.5606C35.0718 26.5606 35.086 26.5609 35.1003 26.5614L40.8242 26.7935C41.3713 26.8156 41.8169 27.2615 41.8392 27.8083L42.0711 33.5322C42.0831 33.8269 41.9705 34.1153 41.7619 34.3239ZM34.0352 32.3602C34.0352 33.314 33.2588 34.0904 32.3047 34.0904C31.3507 34.0904 30.5745 33.314 30.5745 32.3602C30.5745 31.4061 31.3507 30.6298 32.3047 30.6298C33.2588 30.6298 34.0352 31.4061 34.0352 32.3602ZM33.0391 32.3602C33.0391 31.9553 32.7097 31.6261 32.3047 31.6261C31.9001 31.6261 31.5706 31.9553 31.5706 32.3602C31.5706 32.7649 31.9001 33.0943 32.3047 33.0943C32.7097 33.0943 33.0391 32.7649 33.0391 32.3602ZM35.3949 35.4751C34.4409 35.4751 33.6647 36.2512 33.6647 37.2053C33.6647 38.1594 34.4409 38.9357 35.3949 38.9357C36.349 38.9357 37.1251 38.1594 37.1251 37.2053C37.1251 36.2512 36.349 35.4751 35.3949 35.4751ZM35.3949 37.9394C34.99 37.9394 34.6608 37.6102 34.6608 37.2053C34.6608 36.8006 34.99 36.4712 35.3949 36.4712C35.7999 36.4712 36.129 36.8006 36.129 37.2053C36.129 37.6102 35.7996 37.9394 35.3949 37.9394ZM36.0375 31.891C36.2318 31.6964 36.5472 31.6964 36.7417 31.891C36.9363 32.0853 36.9363 32.4007 36.7417 32.5952L31.6624 37.6745C31.5652 37.7718 31.4375 37.8206 31.3102 37.8206C31.1828 37.8206 31.0552 37.7718 30.9582 37.6745C30.7636 37.4802 30.7636 37.1648 30.9582 36.9703L36.0375 31.891Z" fill="white"/>
</svg>
