<?xml version="1.0" encoding="utf-8"?>
<!-- Generator: Adobe Illustrator 24.0.2, SVG Export Plug-In . SVG Version: 6.00 Build 0)  -->
<svg version="1.1" id="Layer_1" xmlns="http://www.w3.org/2000/svg" xmlns:xlink="http://www.w3.org/1999/xlink" x="0px" y="0px"
	 viewBox="0 0 55 55" style="enable-background:new 0 0 55 55;" xml:space="preserve">
<style type="text/css">
	.st0{fill:#C26178;}
	.st1{fill-rule:evenodd;clip-rule:evenodd;fill:#FFFFFF;}
</style>
<path class="st0" d="M10,0h35c5.5,0,10,4.5,10,10v35c0,5.5-4.5,10-10,10H10C4.5,55,0,50.5,0,45V10C0,4.5,4.5,0,10,0z"/>
<path class="st1" d="M13.7,11.9c-0.4,0-0.8,0.4-0.8,0.8v10.4H12V12.7c0-0.9,0.8-1.7,1.7-1.7h20.8v0.9H13.7z M12.9,24.1v7.4
	c0,0.4,0.4,0.8,0.8,0.8h8.5v0.9h-8.5c-0.9,0-1.7-0.8-1.7-1.7v-7.4H12.9z M42.2,11h-6.8v0.9h6.8c0.4,0,0.8,0.4,0.8,0.8v18.8
	c0,0.4-0.4,0.8-0.8,0.8h-3.6v0.9h3.6c0.9,0,1.7-0.8,1.7-1.7V12.7C44,11.8,43.2,11,42.2,11z M42.1,31.3h-3.5v-0.9h2.5V13.8H16.7v16.6
	h8.2v0.9h-9.1V12.9h26.3V31.3z M33.8,19.8l1.5,1l0.5-0.8l-3.5-2.5l-0.5,0.8l1.1,0.8v7.4h-1.6v0.9h2.5V19.8z M25.8,41.3l-1.3-2.1
	l0.8-0.5l1.5,2.3V43h-0.9V41.3z M35,29.9v-0.5h-2.5v-0.9h-2.5v-3.7c0-1.1-0.9-2-2-2c-1.1,0-2,0.9-2,2v7.5h-2.7v5.1l0.7,1l0.8-0.5
	l-0.5-0.8v-3.9H27v-8.4c0-0.6,0.5-1.1,1.1-1.1c0.6,0,1.1,0.5,1.1,1.1v8.1h0.9v-3.4h1.5v3.4h0.9v-2.5h1.5v2.5H35v-1.5h1.5v5.7
	l-1.6,3.9V43h0.9v-1.7l1.6-3.9v-6.9H35V29.9z M28,14.6l3.5,2.5L31,17.8l-3-2.1l-4.8,3.4v7.4h1.8v0.9h-2.7v-7.7l-1.5,1L20.2,20
	L28,14.6z M39.3,18.2h0.9v0.9h-0.9V18.2z M40.2,14.8h-0.9v2.5h0.9V14.8z M13.9,21.6h0.9v0.9h-0.9V21.6z M27.8,39.2L27,39.7l0.5,0.8
	l0.8-0.5L27.8,39.2z M25.3,37l0.8-0.5l1.2,1.9l-0.8,0.5L25.3,37z M28.5,20.3v-2.1h-0.9v2.1H28.5z M29.5,21l1.5-1.5l0.7,0.7l-1.5,1.5
	L29.5,21z M25.2,19.5l-0.7,0.7l1.5,1.5l0.7-0.7L25.2,19.5z"/>
</svg>
