<?xml version="1.0" encoding="utf-8"?>
<!-- Generator: Adobe Illustrator 24.0.2, SVG Export Plug-In . SVG Version: 6.00 Build 0)  -->
<svg version="1.1" id="Layer_1" xmlns="http://www.w3.org/2000/svg" xmlns:xlink="http://www.w3.org/1999/xlink" x="0px" y="0px"
	 viewBox="0 0 55 55" style="enable-background:new 0 0 55 55;" xml:space="preserve">
<style type="text/css">
	.st0{fill:#6589E6;}
	.st1{fill-rule:evenodd;clip-rule:evenodd;fill:#FFFFFF;}
</style>
<path class="st0" d="M10,0h35c5.5,0,10,4.5,10,10v35c0,5.5-4.5,10-10,10H10C4.5,55,0,50.5,0,45V10C0,4.5,4.5,0,10,0z"/>
<path class="st1" d="M41.5,33.2l1-1c0.6-0.6,0.6-1.6,0-2.2c-0.3-0.3-0.7-0.5-1.1-0.5c-0.3,0-0.6,0.1-0.9,0.3l-0.2-0.7l1.1-1.1
	c0.6-0.6,0.6-1.6,0-2.2c-0.6-0.6-1.5-0.6-2.1-0.1L38,21.5c0.5-0.5,1-0.9,1.4-1.4c1.3-1.3,2.4-2.7,3-3.9c1-2,0.6-3.1,0.1-3.7
	c-0.5-0.6-1.6-1-3.7,0.1c-1.2,0.6-2.6,1.7-3.9,3c-0.4,0.4-0.9,0.9-1.4,1.4l-4.2-1.2c0.5-0.6,0.4-1.5-0.1-2.1c-0.6-0.6-1.6-0.6-2.2,0
	l-1.1,1.1l-0.7-0.2c0.2-0.3,0.3-0.6,0.3-0.9c0-0.4-0.2-0.8-0.5-1.1c-0.6-0.6-1.6-0.6-2.2,0l-1,1l-5-1.5c-0.2-0.1-0.4,0-0.5,0.1
	l-1.3,1.3c-0.2,0.2-0.2,0.6,0.1,0.8l12.5,9.2c-2.8,3.2-5.5,6.4-7.5,8.6l-3.7-1.4c-0.2-0.1-0.4,0-0.5,0.1l-1.5,1.5
	c-0.2,0.2-0.2,0.5,0,0.7l7.6,7.6c0.2,0.2,0.5,0.2,0.7,0l1.5-1.5c0.1-0.1,0.2-0.3,0.1-0.5L23,34.8c2.3-1.9,5.5-4.6,8.6-7.5l1,1.4
	c0.2,0.2,0.5,0.3,0.8,0.1c0.2-0.2,0.2-0.5,0.1-0.7l-1.1-1.4c1.7-1.5,3.3-3,4.8-4.4l4.7,15.9l-0.7,0.7l-6.5-8.9
	c-0.2-0.2-0.5-0.3-0.7-0.1c-0.2,0.2-0.3,0.5-0.1,0.7l6.8,9.3c0.2,0.2,0.5,0.3,0.8,0.1l1.3-1.3c0.1-0.1,0.2-0.3,0.1-0.5L41.5,33.2z
	 M27.7,14.4c0.2-0.2,0.6-0.2,0.8,0c0.2,0.2,0.2,0.6,0,0.8l-0.2,0.2L27,15.1L27.7,14.4z M23.5,13.3c0.2-0.2,0.6-0.2,0.8,0
	c0.2,0.2,0.2,0.6,0,0.8l-0.2,0.2l-1.2-0.4L23.5,13.3z M16.2,13.8l0.7-0.7l15.9,4.7c-1.4,1.5-2.9,3.1-4.4,4.8L16.2,13.8z M16.5,31.7
	l3.1,1.2c-0.8,0.9-1.4,1.6-1.7,2l-2.3-2.3L16.5,31.7z M18.5,35.6c1.7-2.1,11-13.2,17.1-19.3c1.2-1.2,2.5-2.2,3.6-2.8
	c0.8-0.4,1.9-0.8,2.5-0.2c0.6,0.6,0.2,1.7-0.2,2.5c-0.6,1.1-1.6,2.4-2.8,3.6c-6.1,6.1-17.2,15.3-19.3,17.1L18.5,35.6z M23.3,38.5
	l-0.9,0.9l-2.3-2.3c0.4-0.3,1.1-0.9,2-1.7L23.3,38.5z M40.9,30.7c0.2-0.2,0.6-0.2,0.8,0c0.2,0.2,0.2,0.6,0,0.8l-0.6,0.6l-0.4-1.2
	L40.9,30.7z M39.8,26.5c0.2-0.2,0.6-0.2,0.8,0c0.2,0.2,0.2,0.6,0,0.8L39.9,28l-0.4-1.2L39.8,26.5z M39.1,40.9l-4.3,4.3
	c-0.2,0.2-0.2,0.5,0,0.7c0.2,0.2,0.5,0.2,0.7,0l4.3-4.3c0.2-0.2,0.2-0.5,0-0.7C39.6,40.7,39.3,40.7,39.1,40.9z M37.7,38.7
	c0.2,0.2,0.2,0.5,0,0.7L35,42.1c-0.2,0.2-0.5,0.2-0.7,0c-0.2-0.2-0.2-0.5,0-0.7l2.7-2.7C37.1,38.5,37.5,38.5,37.7,38.7z M36.1,36.8
	c0.2-0.2,0.2-0.5,0-0.7c-0.2-0.2-0.5-0.2-0.7,0l-1.9,1.9c-0.2,0.2-0.2,0.5,0,0.7c0.2,0.2,0.5,0.2,0.7,0L36.1,36.8z M13.4,15.5
	c0.2-0.2,0.5-0.2,0.7,0c0.2,0.2,0.2,0.5,0,0.7l-4.3,4.3c-0.2,0.2-0.5,0.2-0.7,0c-0.2-0.2-0.2-0.5,0-0.7L13.4,15.5z M16.3,17.6
	c-0.2-0.2-0.5-0.2-0.7,0l-2.7,2.7c-0.2,0.2-0.2,0.5,0,0.7c0.2,0.2,0.5,0.2,0.7,0l2.7-2.7C16.5,18.1,16.5,17.8,16.3,17.6z M17.1,21.8
	c-0.2,0.2-0.5,0.2-0.7,0c-0.2-0.2-0.2-0.5,0-0.7l1.9-1.9c0.2-0.2,0.5-0.2,0.7,0c0.2,0.2,0.2,0.5,0,0.7L17.1,21.8z"/>
</svg>
