<?xml version="1.0" encoding="utf-8"?>
<!-- Generator: Adobe Illustrator 24.0.2, SVG Export Plug-In . SVG Version: 6.00 Build 0)  -->
<svg version="1.1" id="Layer_1" xmlns="http://www.w3.org/2000/svg" xmlns:xlink="http://www.w3.org/1999/xlink" x="0px" y="0px"
	 viewBox="0 0 40 41" style="enable-background:new 0 0 40 41;" xml:space="preserve">
<style type="text/css">
	.st0{fill:#3072AF;}
	.st1{fill-rule:evenodd;clip-rule:evenodd;fill:#FFFFFF;}
</style>
<rect y="0.5" class="st0" width="40" height="40"/>
<path class="st1" d="M14.6,12.8c0,1.3-1,2.3-2.3,2.3c-1.3,0-2.3-1-2.3-2.3c0-1.3,1-2.3,2.3-2.3C13.6,10.5,14.6,11.5,14.6,12.8z
	 M14.7,17H10v14.4h4.7V17z M27.4,17.2C27.4,17.2,27.4,17.2,27.4,17.2L27.4,17.2c-0.1,0-0.1,0-0.1,0c-0.1,0-0.1,0-0.2,0
	c-0.2,0-0.5-0.1-0.8-0.1c-2.7,0-4.5,2-5,2.7V17h-4.7v14.4h4.7v-7.8c0,0,3.5-4.9,5-1.3v9.1h4.7v-9.7C30.9,19.5,29.4,17.7,27.4,17.2z"
	/>
</svg>
