<?xml version="1.0" encoding="utf-8"?>
<!-- Generator: Adobe Illustrator 24.0.2, SVG Export Plug-In . SVG Version: 6.00 Build 0)  -->
<svg version="1.1" id="Layer_1" xmlns="http://www.w3.org/2000/svg" xmlns:xlink="http://www.w3.org/1999/xlink" x="0px" y="0px"
	 viewBox="0 0 60 60" style="enable-background:new 0 0 60 60;" xml:space="preserve">
<style type="text/css">
	.st0{fill:none;}
</style>
<rect class="st0" width="60" height="60"/>
<path d="M29.7,0C17.7,0,8,9.7,8,21.7c0,14.9,19.4,36.7,20.3,37.6c0.8,0.9,2.1,0.9,2.9,0c0.8-0.9,20.3-22.8,20.3-37.6
	C51.5,9.7,41.7,0,29.7,0z M29.7,32.7c-6,0-10.9-4.9-10.9-10.9c0-6,4.9-10.9,10.9-10.9c6,0,10.9,4.9,10.9,10.9
	C40.7,27.8,35.8,32.7,29.7,32.7z"/>
</svg>
