<?xml version="1.0" encoding="utf-8"?>
<!-- Generator: Adobe Illustrator 24.0.2, SVG Export Plug-In . SVG Version: 6.00 Build 0)  -->
<svg version="1.1" id="Layer_1" xmlns="http://www.w3.org/2000/svg" xmlns:xlink="http://www.w3.org/1999/xlink" x="0px" y="0px"
	 viewBox="0 0 60 60" style="enable-background:new 0 0 60 60;" xml:space="preserve">
<style type="text/css">
	.st0{fill:none;}
	.st1{fill-rule:evenodd;clip-rule:evenodd;}
</style>
<rect class="st0" width="60" height="60"/>
<path class="st1" d="M30,36.6l28-27C57.4,9.3,56.6,9,55.8,9H4.3c-1,0-2,0.4-2.7,1L30,36.6z M60,13.2C60,13.2,60,13.3,60,13.2v34.3
	c0,0.1,0,0.1,0,0.2c0,0.1,0,0.1,0,0.2L41.7,30.8L60,13.2L60,13.2z M31.4,40.7l7.5-7.2l19,17.8c-0.6,0.3-1.3,0.6-2.1,0.6H4.3
	c-0.5,0-1-0.1-1.4-0.3l18.4-17.8l7.5,7c0.4,0.4,0.9,0.5,1.3,0.5C30.6,41.2,31,41.1,31.4,40.7z M0,47.5V14l18.4,17.1L0.2,48.6
	C0.1,48.3,0,47.9,0,47.5z"/>
</svg>
