<svg width="55" height="55" viewBox="0 0 55 55" fill="none" xmlns="http://www.w3.org/2000/svg">
<rect width="55" height="55" rx="10" fill="#10A694"/>
<path fill-rule="evenodd" clip-rule="evenodd" d="M38.1738 16.4139C39.9308 16.5642 41.5617 17.3282 42.8132 18.5976C44.1931 19.9973 44.9529 21.8513 44.9529 23.8183C44.9529 27.9165 41.6235 31.2505 37.531 31.2505H36.7963V40.4141C36.7963 41.1795 36.3055 42.2679 33.9674 43.1054C32.3571 43.6823 30.2294 44 27.9765 44C25.7236 44 23.5959 43.6823 21.9855 43.1054C19.6475 42.2679 19.1567 41.1795 19.1567 40.4141V31.2505H16.5808C13.5035 31.2505 11 28.7436 11 25.6621C11 23.4268 12.3155 21.4362 14.3251 20.55C14.3093 20.3579 14.3013 20.1654 14.3013 19.9737C14.3013 19.2827 14.4022 18.6001 14.6013 17.9448C14.708 17.5939 15.0785 17.3959 15.4288 17.5028C15.7792 17.6096 15.9768 17.9806 15.8702 18.3315C15.7092 18.8613 15.6275 19.4138 15.6275 19.9737C15.6275 20.2752 15.6519 20.5794 15.7 20.8781C15.752 21.2005 15.5621 21.5129 15.2523 21.6148C13.5022 22.1905 12.3263 23.8169 12.3263 25.6621C12.3263 28.0112 14.2348 29.9224 16.5808 29.9224H19.1567V26.0844C19.1567 25.3189 19.6475 24.2306 21.9855 23.3931C23.5959 22.8161 25.7236 22.4985 27.9765 22.4985C30.2294 22.4985 32.357 22.8161 33.9674 23.3931C36.3055 24.2306 36.7963 25.3189 36.7963 26.0844V29.9224H37.531C40.8921 29.9224 43.6267 27.1841 43.6267 23.8183C43.6267 20.499 40.9307 17.7611 37.617 17.7153C37.2966 17.7108 37.0253 17.4777 36.9722 17.1614C36.4046 13.7813 33.5044 11.3281 30.076 11.3281C27.701 11.3281 25.5083 12.5201 24.2104 14.5166C24.0362 14.7846 23.696 14.8904 23.401 14.7678C22.7189 14.4851 21.9958 14.3418 21.2517 14.3418C20.6525 14.3418 20.063 14.4355 19.4996 14.6201C19.1517 14.7344 18.777 14.5442 18.663 14.1957C18.549 13.8472 18.7388 13.4722 19.0868 13.358C19.7836 13.1295 20.512 13.0136 21.2517 13.0136C21.9895 13.0136 22.7112 13.1279 23.4036 13.354C24.9725 11.2443 27.429 10 30.076 10C32.0551 10 33.9728 10.7079 35.4758 11.9933C36.8247 13.1468 37.7697 14.701 38.1738 16.4139ZM33.5208 32.3018C34.9595 31.7864 35.47 31.2035 35.47 30.861V28.062C35.0833 28.3105 34.5917 28.5521 33.9674 28.7758C32.3571 29.3527 30.2294 29.6704 27.9765 29.6704C25.7236 29.6704 23.5959 29.3527 21.9855 28.7758C21.3612 28.5521 20.8697 28.3105 20.483 28.062V30.861C20.483 31.2035 20.9934 31.7864 22.4322 32.3018C23.9029 32.8287 25.8719 33.1188 27.9765 33.1188C30.081 33.1188 32.05 32.8287 33.5208 32.3018ZM21.9855 33.5523C21.3612 33.3286 20.8697 33.0871 20.483 32.8386V35.6375C20.483 35.9801 20.9934 36.5629 22.4322 37.0783C23.9029 37.6051 25.8719 37.8953 27.9765 37.8953C30.081 37.8953 32.05 37.6051 33.5208 37.0783C34.9595 36.5629 35.47 35.98 35.47 35.6375V32.8386C35.0833 33.0871 34.5917 33.3286 33.9674 33.5523C32.3571 34.1292 30.2294 34.4469 27.9765 34.4469C25.7236 34.4469 23.5959 34.1292 21.9855 33.5523ZM27.9765 23.8266C25.8719 23.8266 23.903 24.1167 22.4322 24.6436C20.9934 25.159 20.483 25.7419 20.483 26.0844C20.483 26.4269 20.9934 27.0098 22.4322 27.5252C23.9029 28.0521 25.8719 28.3422 27.9765 28.3422C30.081 28.3422 32.05 28.0521 33.5208 27.5252C34.9595 27.0098 35.47 26.4269 35.47 26.0844C35.47 25.7419 34.9595 25.159 33.5208 24.6436C32.05 24.1167 30.081 23.8266 27.9765 23.8266ZM27.9765 42.6719C30.081 42.6719 32.05 42.3817 33.5208 41.8549C34.9595 41.3395 35.47 40.7566 35.47 40.4141V37.6151C35.0833 37.8636 34.5917 38.1052 33.9674 38.3288C32.3571 38.9058 30.2294 39.2235 27.9765 39.2235C25.7236 39.2235 23.5959 38.9058 21.9855 38.3288C21.3612 38.1052 20.8697 37.8636 20.483 37.6151V40.4141C20.483 40.7566 20.9934 41.3395 22.4322 41.8549C23.9029 42.3817 25.8719 42.6719 27.9765 42.6719ZM17.2289 16.0382C17.1056 16.1618 16.9345 16.2328 16.7601 16.2328C16.5857 16.2328 16.4146 16.1618 16.2913 16.0382C16.1679 15.914 16.097 15.7435 16.097 15.5681C16.097 15.3934 16.1679 15.2228 16.2913 15.0986C16.4146 14.9751 16.5857 14.9047 16.7601 14.9047C16.9345 14.9047 17.1056 14.9751 17.2289 15.0986C17.3523 15.2228 17.4232 15.3934 17.4232 15.5681C17.4232 15.7435 17.3523 15.914 17.2289 16.0382Z" fill="white"/>
</svg>
