<?xml version="1.0" encoding="utf-8"?>
<!-- Generator: Adobe Illustrator 24.0.2, SVG Export Plug-In . SVG Version: 6.00 Build 0)  -->
<svg version="1.1" id="Layer_1" xmlns="http://www.w3.org/2000/svg" xmlns:xlink="http://www.w3.org/1999/xlink" x="0px" y="0px"
	 viewBox="0 0 55 55" style="enable-background:new 0 0 55 55;" xml:space="preserve">
<style type="text/css">
	.st0{fill:#10A694;}
	.st1{fill-rule:evenodd;clip-rule:evenodd;fill:#FFFFFF;}
</style>
<path class="st0" d="M10,0h35c5.5,0,10,4.5,10,10v35c0,5.5-4.5,10-10,10H10C4.5,55,0,50.5,0,45V10C0,4.5,4.5,0,10,0z"/>
<path class="st1" d="M38.2,16.4c1.8,0.2,3.4,0.9,4.6,2.2c1.4,1.4,2.1,3.3,2.1,5.2c0,4.1-3.3,7.4-7.4,7.4h-0.7v9.2
	c0,0.8-0.5,1.9-2.8,2.7c-1.6,0.6-3.7,0.9-6,0.9s-4.4-0.3-6-0.9c-2.3-0.8-2.8-1.9-2.8-2.7v-9.2h-2.6c-3.1,0-5.6-2.5-5.6-5.6
	c0-2.2,1.3-4.2,3.3-5.1c0-0.2,0-0.4,0-0.6c0-0.7,0.1-1.4,0.3-2c0.1-0.4,0.5-0.5,0.8-0.4c0.4,0.1,0.5,0.5,0.4,0.8
	c-0.2,0.5-0.2,1.1-0.2,1.6c0,0.3,0,0.6,0.1,0.9c0.1,0.3-0.1,0.6-0.4,0.7c-1.8,0.6-2.9,2.2-2.9,4c0,2.3,1.9,4.3,4.3,4.3h2.6v-3.8
	c0-0.8,0.5-1.9,2.8-2.7c1.6-0.6,3.7-0.9,6-0.9s4.4,0.3,6,0.9c2.3,0.8,2.8,1.9,2.8,2.7v3.8h0.7c3.4,0,6.1-2.7,6.1-6.1
	c0-3.3-2.7-6.1-6-6.1c-0.3,0-0.6-0.2-0.6-0.6c-0.6-3.4-3.5-5.8-6.9-5.8c-2.4,0-4.6,1.2-5.9,3.2c-0.2,0.3-0.5,0.4-0.8,0.3
	c-0.7-0.3-1.4-0.4-2.1-0.4c-0.6,0-1.2,0.1-1.8,0.3c-0.3,0.1-0.7-0.1-0.8-0.4c-0.1-0.3,0.1-0.7,0.4-0.8c0.7-0.2,1.4-0.3,2.2-0.3
	c0.7,0,1.5,0.1,2.2,0.3c1.6-2.1,4-3.4,6.7-3.4c2,0,3.9,0.7,5.4,2C36.8,13.1,37.8,14.7,38.2,16.4z M33.5,32.3
	c1.4-0.5,1.9-1.1,1.9-1.4v-2.8c-0.4,0.2-0.9,0.5-1.5,0.7c-1.6,0.6-3.7,0.9-6,0.9s-4.4-0.3-6-0.9c-0.6-0.2-1.1-0.5-1.5-0.7v2.8
	c0,0.3,0.5,0.9,1.9,1.4c1.5,0.5,3.4,0.8,5.5,0.8C30.1,33.1,32,32.8,33.5,32.3z M22,33.6c-0.6-0.2-1.1-0.5-1.5-0.7v2.8
	c0,0.3,0.5,0.9,1.9,1.4c1.5,0.5,3.4,0.8,5.5,0.8c2.1,0,4.1-0.3,5.5-0.8c1.4-0.5,1.9-1.1,1.9-1.4v-2.8c-0.4,0.2-0.9,0.5-1.5,0.7
	c-1.6,0.6-3.7,0.9-6,0.9S23.6,34.1,22,33.6z M28,23.8c-2.1,0-4.1,0.3-5.5,0.8c-1.4,0.5-1.9,1.1-1.9,1.4s0.5,0.9,1.9,1.4
	c1.5,0.5,3.4,0.8,5.5,0.8c2.1,0,4.1-0.3,5.5-0.8c1.4-0.5,1.9-1.1,1.9-1.4s-0.5-0.9-1.9-1.4C32,24.1,30.1,23.8,28,23.8z M28,42.7
	c2.1,0,4.1-0.3,5.5-0.8c1.4-0.5,1.9-1.1,1.9-1.4v-2.8c-0.4,0.2-0.9,0.5-1.5,0.7c-1.6,0.6-3.7,0.9-6,0.9s-4.4-0.3-6-0.9
	c-0.6-0.2-1.1-0.5-1.5-0.7v2.8c0,0.3,0.5,0.9,1.9,1.4C23.9,42.4,25.9,42.7,28,42.7z M17.2,16c-0.1,0.1-0.3,0.2-0.5,0.2
	s-0.3-0.1-0.5-0.2c-0.1-0.1-0.2-0.3-0.2-0.5c0-0.2,0.1-0.3,0.2-0.5c0.1-0.1,0.3-0.2,0.5-0.2s0.3,0.1,0.5,0.2
	c0.1,0.1,0.2,0.3,0.2,0.5C17.4,15.7,17.4,15.9,17.2,16z"/>
</svg>
