<?xml version="1.0" encoding="utf-8"?>
<!-- Generator: Adobe Illustrator 24.0.2, SVG Export Plug-In . SVG Version: 6.00 Build 0)  -->
<svg version="1.1" id="Layer_1" xmlns="http://www.w3.org/2000/svg" xmlns:xlink="http://www.w3.org/1999/xlink" x="0px" y="0px"
	 viewBox="0 0 55 55" style="enable-background:new 0 0 55 55;" xml:space="preserve">
<style type="text/css">
	.st0{fill:#10A694;}
	.st1{fill:#FFFFFF;}
</style>
<path class="st0" d="M10,0h35c5.5,0,10,4.5,10,10v35c0,5.5-4.5,10-10,10H10C4.5,55,0,50.5,0,45V10C0,4.5,4.5,0,10,0z"/>
<path class="st1" d="M17.5,29.7c-0.6-0.3-1.3-0.5-2-0.5c-2.5,0-4.5,2-4.5,4.5s2,4.5,4.5,4.5c1.6,0,3-0.8,3.8-2l4.3,2.1
	c-0.1,0.3-0.1,0.7-0.1,1c0,2.5,2,4.5,4.5,4.5s4.5-2,4.5-4.5c0-0.9-0.3-1.8-0.8-2.5l6-6.3c0.8,0.6,1.7,0.9,2.7,0.9
	c2.5,0,4.5-2,4.5-4.5s-2-4.5-4.5-4.5c-1,0-2,0.4-2.8,1l-6.1-6.1c0.6-0.8,1-1.7,1-2.8c0-2.5-2-4.5-4.5-4.5s-4.5,2-4.5,4.5
	c0,0.3,0,0.7,0.1,1l-4,1.5c-0.8-1.5-2.3-2.5-4-2.5c-2.5,0-4.5,2-4.5,4.5c0,2.5,2,4.5,4.5,4.5c0.6,0,1.3-0.1,1.8-0.4l2.1,3.5
	L17.5,29.7z M15.5,37.2c-1.9,0-3.4-1.5-3.4-3.4s1.5-3.4,3.4-3.4s3.4,1.5,3.4,3.4S17.4,37.2,15.5,37.2z M19.8,35.3
	c0.2-0.5,0.3-1,0.3-1.5c0-1.4-0.6-2.6-1.6-3.5l1.6-2.5l4.9,8.3c-0.4,0.4-0.8,0.8-1,1.3L19.8,35.3z M28,19.1c1,0,2-0.4,2.8-1l6.1,6.1
	c-0.4,0.5-0.6,1-0.8,1.6l-3.6-0.5c0,0,0,0,0,0c0-2.5-2-4.5-4.5-4.5c-1.6,0-3,0.8-3.8,2l-0.7-0.3l2.5-3.8
	C26.6,18.9,27.3,19.1,28,19.1z M28.6,35v-5.2c1.8-0.2,3.3-1.6,3.8-3.3l3.6,0.5c0,0,0,0,0,0c0,1.1,0.4,2.1,1,2.9l-6,6.2
	C30.3,35.5,29.5,35.1,28.6,35z M28,21.9c1.9,0,3.4,1.5,3.4,3.4c0,1.9-1.5,3.4-3.4,3.4s-3.4-1.5-3.4-3.4C24.6,23.4,26.1,21.9,28,21.9
	z M23.7,23.8c-0.2,0.5-0.3,1-0.3,1.5c0,2.3,1.7,4.2,4,4.5V35c-0.5,0.1-1,0.2-1.5,0.5l-5.2-8.7l2.2-3.4L23.7,23.8z M28,42.9
	c-1.9,0-3.4-1.5-3.4-3.4c0-1.9,1.5-3.4,3.4-3.4s3.4,1.5,3.4,3.4C31.4,41.3,29.9,42.9,28,42.9z M40.5,23.6c1.9,0,3.4,1.5,3.4,3.4
	s-1.5,3.4-3.4,3.4c-1.9,0-3.4-1.5-3.4-3.4S38.6,23.6,40.5,23.6z M28,11.1c1.9,0,3.4,1.5,3.4,3.4s-1.5,3.4-3.4,3.4s-3.4-1.5-3.4-3.4
	S26.1,11.1,28,11.1z M24,16.6c0.3,0.5,0.7,1,1.1,1.4l-2.5,3.9l-2.7-1.4c0.2-0.5,0.3-1,0.3-1.5c0-0.3,0-0.7-0.1-1L24,16.6z
	 M12.1,19.1c0-1.9,1.5-3.4,3.4-3.4s3.4,1.5,3.4,3.4s-1.5,3.4-3.4,3.4S12.1,20.9,12.1,19.1z M18.3,22.6c0.4-0.3,0.7-0.7,1-1.1
	l2.6,1.3l-1.8,2.8L18.3,22.6z"/>
</svg>
