<svg width="55" height="55" viewBox="0 0 55 55" fill="none" xmlns="http://www.w3.org/2000/svg">
<rect width="55" height="55" rx="10" fill="#10A694"/>
<path fill-rule="evenodd" clip-rule="evenodd" d="M42.5297 17.5833C42.4581 16.459 41.7331 15.4658 40.6833 15.0528L28.3569 10.2036C27.6672 9.93226 26.9071 9.932 26.2171 10.2036L13.891 15.0528C12.8409 15.4658 12.1161 16.459 12.0445 17.5833C11.9761 18.6567 11.7387 24.3147 13.795 30.2923C14.8235 33.2824 16.2668 35.8881 18.0847 38.0369C20.2719 40.6224 23.0192 42.5637 26.2503 43.807C26.5847 43.9357 26.9359 44 27.2871 44C27.6384 44 27.9896 43.9357 28.324 43.807C31.555 42.5637 34.3023 40.6224 36.4896 38.0369C38.3075 35.8881 39.7505 33.2824 40.7793 30.2923C42.8355 24.3147 42.5982 18.6567 42.5297 17.5833ZM39.8343 29.9673C38.846 32.8396 37.4642 35.3376 35.7267 37.3915C33.6492 39.8473 31.0378 41.6921 27.9652 42.8745C27.5279 43.0426 27.0462 43.0426 26.6091 42.8745C23.5365 41.6921 20.9251 39.8473 18.8476 37.3915C17.1101 35.3376 15.728 32.8398 14.74 29.9673C12.7454 24.1697 12.9753 18.687 13.0417 17.6468C13.0886 16.9078 13.5657 16.2546 14.257 15.9828L26.5829 11.1333C26.8101 11.0441 27.0485 10.9994 27.2871 10.9994C27.5255 10.9994 27.7642 11.0441 27.9911 11.1333L40.3173 15.9828C41.0083 16.2546 41.4854 16.9078 41.5326 17.6468C41.5987 18.687 41.8286 24.1697 39.8343 29.9673ZM37.8125 17.4668L28.1641 13.6713C27.5984 13.4487 26.9756 13.4487 26.4101 13.6713L16.7617 17.4668C15.9008 17.8056 15.3065 18.6201 15.2478 19.5417C15.2056 20.2045 15.1397 22.0024 15.4377 24.3749C15.4722 24.6488 15.7225 24.8428 15.996 24.8083C16.2696 24.7738 16.4637 24.524 16.4292 24.2501C16.1417 21.9622 16.2048 20.2395 16.245 19.6053C16.2792 19.0686 16.6258 18.5942 17.1277 18.3967L26.7758 14.601C27.1055 14.4713 27.4687 14.4713 27.7984 14.601L37.4465 18.3967C37.9484 18.5942 38.295 19.0686 38.3292 19.6053C38.3974 20.6748 38.8242 30.2262 32.893 36.1174C32.6971 36.3117 32.6961 36.6281 32.8907 36.824C32.9882 36.9223 33.1168 36.9713 33.2453 36.9713C33.3724 36.9713 33.4997 36.9231 33.5973 36.8263C39.8413 30.6243 39.3974 20.6577 39.3264 19.5417C39.2675 18.6201 38.6735 17.8056 37.8125 17.4668ZM27.779 39.4047C29.007 38.9321 30.1501 38.3165 31.1761 37.5754C31.3997 37.4138 31.712 37.4641 31.8739 37.6877C32.0352 37.9116 31.9849 38.2239 31.7613 38.3853C30.6653 39.1769 29.4464 39.8337 28.1377 40.3372C27.8635 40.4428 27.5753 40.4955 27.2872 40.4955C26.999 40.4955 26.7108 40.4428 26.4366 40.3372C19.4948 37.6659 16.8385 31.4598 15.8328 26.7239C15.7755 26.4539 15.948 26.1888 16.2178 26.1315C16.487 26.0742 16.7532 26.2464 16.8103 26.5164C17.7646 31.0105 20.2717 36.8942 26.7953 39.4047C27.1126 39.5266 27.4617 39.5266 27.779 39.4047ZM27.2871 19.5697C23.1902 19.5697 19.8569 22.9027 19.8569 26.9997C19.8569 31.0969 23.1902 34.43 27.2871 34.43C31.3841 34.43 34.7171 31.0969 34.7171 27C34.7171 22.903 31.3841 19.5697 27.2871 19.5697ZM27.2871 33.4307C23.7411 33.4307 20.8561 30.546 20.8561 27C20.8561 23.454 23.7411 20.5689 27.2871 20.5689C30.8331 20.5689 33.7179 23.454 33.7179 27C33.7179 30.546 30.8331 33.4307 27.2871 33.4307ZM31.413 23.7754C31.7873 24.0999 32.0111 24.5697 32.0275 25.0646C32.0436 25.5593 31.8511 26.0428 31.4991 26.3912L27.5985 30.2498C27.2501 30.5942 26.7982 30.7686 26.3451 30.7686C25.937 30.7686 25.5277 30.6274 25.191 30.3421L23.1762 28.634C22.8045 28.319 22.5822 27.8778 22.55 27.3917C22.5176 26.9056 22.68 26.4389 23.0066 26.0776C23.6647 25.35 24.7933 25.2918 25.5225 25.9479L26.1892 26.5479L28.8356 23.7845C29.4937 23.0973 30.5725 23.0473 31.2916 23.6703L31.413 23.7754ZM26.8958 29.5393L30.7964 25.6807C30.9536 25.5253 31.036 25.3183 31.0285 25.0976C31.0213 24.8765 30.9255 24.6753 30.7585 24.5308L30.6371 24.4255C30.3209 24.1515 29.8464 24.1736 29.5572 24.4758L26.8499 27.3027C26.5082 27.6594 25.9531 27.6799 25.5861 27.3497L24.854 26.6908C24.7046 26.5562 24.5168 26.49 24.3298 26.49C24.1155 26.49 23.9023 26.5769 23.7477 26.7476C23.604 26.9066 23.5326 27.1118 23.5469 27.3255C23.5612 27.5393 23.659 27.7333 23.8224 27.8718L25.8372 29.58C26.1495 29.8446 26.6047 29.8272 26.8958 29.5393Z" fill="white"/>
</svg>
