<?xml version="1.0" encoding="utf-8"?>
<!-- Generator: Adobe Illustrator 24.0.2, SVG Export Plug-In . SVG Version: 6.00 Build 0)  -->
<svg version="1.1" id="Layer_1" xmlns="http://www.w3.org/2000/svg" xmlns:xlink="http://www.w3.org/1999/xlink" x="0px" y="0px"
	 viewBox="0 0 60 60" style="enable-background:new 0 0 60 60;" xml:space="preserve">
<style type="text/css">
	.st0{fill:none;}
	.st1{fill-rule:evenodd;clip-rule:evenodd;}
</style>
<rect class="st0" width="60" height="60"/>
<path class="st1" d="M48.1,40.9l5.4,3.6c1,0.7,1.2,1.9,0.7,2.9l-2.5,4.3c-0.7,1.1-1.8,2-3.1,2.4c-4.3,1.1-13.7,1.4-28.9-13.7
	S4.8,15.7,5.9,11.4C6.3,10.1,7.2,9,8.3,8.3l4.3-2.6c1-0.6,2.2-0.3,2.9,0.7l3.8,5.6l3.1,4.7c0.7,0.9,0.4,2.2-0.5,2.9l-3.8,3
	c-0.8,0.7-1.1,1.8-0.6,2.7c0.1,0.2,0.2,0.3,0.3,0.6c1.1,2,2.4,4.3,7.2,9.2s7.2,6.1,9.2,7.2c0.2,0.1,0.4,0.2,0.6,0.3
	c0.9,0.5,2,0.2,2.7-0.6l3-3.8c0.7-0.9,2-1.1,2.9-0.5L48.1,40.9z M47.7,27.5c0-7.9-6.5-14.4-14.4-14.4c-0.5,0-0.8-0.4-0.8-0.8
	c0-0.5,0.4-0.8,0.8-0.8c8.8,0,16,7.2,16,16.1c0,0.5-0.4,0.8-0.8,0.8C48.1,28.3,47.7,27.9,47.7,27.5z M33.3,18.1
	c5.2,0,9.3,4.2,9.3,9.3c0,0.5,0.4,0.8,0.8,0.8c0.5,0,0.8-0.4,0.8-0.8c0-6.1-4.9-11-11-11c-0.5,0-0.8,0.4-0.8,0.8
	S32.9,18.1,33.3,18.1z M37.6,27.5c0-2.4-1.9-4.3-4.3-4.3c-0.5,0-0.8-0.4-0.8-0.8c0-0.5,0.4-0.8,0.8-0.8c3.3,0,5.9,2.6,5.9,5.9
	c0,0.5-0.4,0.8-0.8,0.8C37.9,28.3,37.6,27.9,37.6,27.5z"/>
</svg>
