<?xml version="1.0" encoding="utf-8"?>
<!-- Generator: Adobe Illustrator 24.0.2, SVG Export Plug-In . SVG Version: 6.00 Build 0)  -->
<svg version="1.1" id="Layer_1" xmlns="http://www.w3.org/2000/svg" xmlns:xlink="http://www.w3.org/1999/xlink" x="0px" y="0px"
	 viewBox="0 0 24 24" style="enable-background:new 0 0 24 24;" xml:space="preserve">
<path d="M18.3,4.1c0-0.6-0.2-1.1-0.6-1.5l-2-2C15.3,0.2,14.7,0,14.2,0H14v4.2h4.2V4.1z"/>
<path d="M12.9,14.5c0.1-0.4,0.4-0.8,0.7-1.1l4.8-4.7v-3h-4.9c-0.4,0-0.7-0.3-0.7-0.7V0H2.1C1,0,0,0.9,0,2.1v19.8C0,23.1,1,24,2.1,24
	h14c1.2,0,2.1-0.9,2.1-2.1v-5.2l-0.8,0.8c-0.3,0.3-0.7,0.5-1.1,0.7l-2.2,0.7l-0.3,0c-0.6,0-1.1-0.3-1.4-0.7c-0.3-0.5-0.4-1-0.2-1.6
	L12.9,14.5z M3.5,12.7h7c0.4,0,0.7,0.3,0.7,0.7c0,0.4-0.3,0.7-0.7,0.7h-7c-0.4,0-0.7-0.3-0.7-0.7C2.8,13,3.2,12.7,3.5,12.7z
	 M2.8,10.5c0-0.4,0.3-0.7,0.7-0.7h7c0.4,0,0.7,0.3,0.7,0.7c0,0.4-0.3,0.7-0.7,0.7h-7C3.2,11.2,2.8,10.9,2.8,10.5z M2.8,16.2
	c0-0.4,0.3-0.7,0.7-0.7h7c0.4,0,0.7,0.3,0.7,0.7c0,0.4-0.3,0.7-0.7,0.7h-7C3.2,16.9,2.8,16.6,2.8,16.2z M13.4,19.7
	c0.4,0,0.7,0.3,0.7,0.7c0,0.4-0.3,0.7-0.7,0.7H9.1c-0.4,0-0.7-0.3-0.7-0.7c0-0.4,0.3-0.7,0.7-0.7H13.4z M3.5,8.4
	c-0.4,0-0.7-0.3-0.7-0.7C2.8,7.3,3.2,7,3.5,7h9.8c0.4,0,0.7,0.3,0.7,0.7c0,0.4-0.3,0.7-0.7,0.7H3.5z"/>
<path d="M14.1,15.1L13.5,17c-0.1,0.3,0.2,0.5,0.4,0.4l1.8-0.6L14.1,15.1z"/>
<path d="M19.6,9.3L15,14l2,2c1-1,3.1-3.1,4.6-4.6L19.6,9.3z"/>
<path d="M23.6,7.3c-0.2-0.2-0.6-0.4-1-0.4c-0.4,0-0.7,0.1-1,0.4l-1,1l2,2c0.6-0.6,0.9-0.9,1-1C24.1,8.8,24.1,7.9,23.6,7.3z"/>
<path d="M23.6,9.3C23.6,9.3,23.6,9.3,23.6,9.3C23.6,9.3,23.6,9.3,23.6,9.3C23.6,9.3,23.6,9.3,23.6,9.3z"/>
<path d="M23.6,9.3C23.6,9.3,23.6,9.3,23.6,9.3C23.6,9.3,23.6,9.3,23.6,9.3z"/>
<path d="M23.6,9.3C23.6,9.3,23.6,9.3,23.6,9.3L23.6,9.3z"/>
</svg>
