<?xml version="1.0" encoding="utf-8"?>
<!-- Generator: Adobe Illustrator 24.0.2, SVG Export Plug-In . SVG Version: 6.00 Build 0)  -->
<svg version="1.1" id="Layer_1" xmlns="http://www.w3.org/2000/svg" xmlns:xlink="http://www.w3.org/1999/xlink" x="0px" y="0px"
	 viewBox="0 0 55 55" style="enable-background:new 0 0 55 55;" xml:space="preserve">
<style type="text/css">
	.st0{fill:#6589E6;}
	.st1{fill-rule:evenodd;clip-rule:evenodd;fill:#FFFFFF;}
</style>
<path class="st0" d="M10,0h35c5.5,0,10,4.5,10,10v35c0,5.5-4.5,10-10,10H10C4.5,55,0,50.5,0,45V10C0,4.5,4.5,0,10,0z"/>
<path class="st1" d="M37.7,10h-3.6c-0.3,0-0.5,0.2-0.5,0.5s0.2,0.5,0.5,0.5h3.6c0.2,0,0.5,0.2,0.5,0.5v2.8H21.2V11h10.6
	c0.3,0,0.5-0.2,0.5-0.5S32.1,10,31.8,10H16.4c-0.8,0-1.4,0.6-1.4,1.4v31.1c0,0.8,0.6,1.4,1.4,1.4h21.2c0.8,0,1.4-0.6,1.4-1.4V11.4
	C39.1,10.6,38.5,10,37.7,10z M16,11.4c0-0.2,0.2-0.5,0.5-0.5h3.8v3.3H16V11.4z M38.1,42.6c0,0.2-0.2,0.5-0.5,0.5H16.4
	c-0.2,0-0.5-0.2-0.5-0.5V15.3h22.1V42.6z M18.5,35l17.1,0c0.5,0,0.8-0.4,0.8-0.8v-2.7c0-0.5-0.4-0.8-0.8-0.8H18.5
	c-0.5,0-0.8,0.4-0.8,0.8v2.7C17.7,34.6,18,35,18.5,35z M33.3,31.6h2.2V34h-2.2V31.6z M18.7,31.6h13.6V34H18.7V31.6z M22.8,35.9h8.5
	c0.5,0,0.8,0.4,0.8,0.8v2.7c0,0.5-0.4,0.8-0.8,0.8h-8.5c-0.5,0-0.8-0.4-0.8-0.8v-2.7C22,36.3,22.3,35.9,22.8,35.9z M23,39.3h8.2
	v-2.4H23V39.3z M19.8,27.9c0.7,0.4,1.4,0.6,2.3,0.7c0.7,0,1.4-0.2,2-0.5c1.5-0.7,2.3-2,2.3-3.5v-4.9c0-1-0.8-1.7-1.7-1.7
	c-1,0-1.7,0.8-1.7,1.7v4.9c0,0.1,0,0.2-0.4,0.4c-0.1,0.1-0.2,0.1-0.4,0.1c-0.1,0-0.3,0-0.4-0.1c-0.3-0.2-0.3-0.3-0.3-0.4v-0.8
	c0-0.3-0.2-0.5-0.5-0.5c-0.3,0-0.5,0.2-0.5,0.5v0.8c0,0.5,0.2,0.9,0.8,1.2c0.3,0.2,0.6,0.3,0.9,0.3c0.3,0,0.6-0.1,0.8-0.2
	c0.8-0.4,0.9-0.9,0.9-1.3v-4.9c0-0.4,0.3-0.8,0.8-0.8c0.4,0,0.8,0.3,0.8,0.8v4.9c0,1.1-0.6,2-1.8,2.6c-0.5,0.2-1,0.3-1.5,0.3
	c-0.6,0-1.2-0.2-1.7-0.5c-1-0.6-1.5-1.4-1.5-2.5v-4.9c0-0.4,0.3-0.8,0.8-0.8c0.4,0,0.8,0.3,0.8,0.8v1.8c0,0.3,0.2,0.5,0.5,0.5
	c0.3,0,0.5-0.2,0.5-0.5v-1.8c0-1-0.8-1.7-1.7-1.7c-1,0-1.7,0.8-1.7,1.7v4.9C17.9,26,18.5,27.1,19.8,27.9z M27.7,28.2
	c-0.4-0.3-0.6-0.7-0.7-1.2c-0.1-0.5,0.1-0.9,0.3-1.3l2-2.7l-1.7-2.3c-0.6-0.8-0.4-1.9,0.3-2.4c0.8-0.6,1.9-0.4,2.4,0.3l1.2,1.5
	l1.1-1.5c0.3-0.4,0.7-0.6,1.2-0.7c0.5-0.1,0.9,0.1,1.3,0.3c0.4,0.3,0.6,0.7,0.7,1.2c0.1,0.5-0.1,0.9-0.3,1.3L33.8,23l2.1,2.8
	c0.3,0.4,0.4,0.8,0.3,1.3c-0.1,0.5-0.3,0.9-0.7,1.2c-0.3,0.2-0.7,0.4-1.1,0.4c-0.6,0-1.1-0.3-1.4-0.7l-1.5-2l-1.4,1.9
	c-0.3,0.4-0.8,0.7-1.4,0.7C28.4,28.5,28,28.4,27.7,28.2z M30.4,23.3l-2.2,3c-0.1,0.2-0.2,0.4-0.1,0.6c0,0.2,0.1,0.4,0.3,0.5
	c0.1,0.1,0.3,0.2,0.5,0.2c0.2,0,0.5-0.1,0.6-0.3l1.8-2.4c0.1-0.1,0.2-0.2,0.4-0.2h0c0.2,0,0.3,0.1,0.4,0.2l1.9,2.5
	c0.1,0.2,0.4,0.3,0.6,0.3c0.2,0,0.3-0.1,0.5-0.2c0.2-0.1,0.3-0.3,0.3-0.5c0-0.2,0-0.4-0.1-0.6l-2.4-3.1c-0.1-0.2-0.1-0.4,0-0.6
	l2-2.6c0.1-0.2,0.2-0.4,0.1-0.6c0-0.2-0.1-0.4-0.3-0.5c-0.2-0.1-0.4-0.2-0.6-0.1c-0.2,0-0.4,0.1-0.5,0.3l-1.5,2
	c-0.1,0.1-0.2,0.2-0.4,0.2h0c-0.2,0-0.3-0.1-0.4-0.2l-1.5-2c-0.3-0.3-0.7-0.4-1.1-0.1c-0.3,0.3-0.4,0.7-0.1,1.1l2,2.6
	C30.6,22.9,30.6,23.2,30.4,23.3z"/>
</svg>
