<svg width="55" height="55" viewBox="0 0 55 55" fill="none" xmlns="http://www.w3.org/2000/svg">
<rect width="55" height="55" rx="10" fill="#6589E6"/>
<path fill-rule="evenodd" clip-rule="evenodd" d="M37.6848 10H34.0808C33.8058 10 33.5829 10.2229 33.5829 10.4979C33.5829 10.7729 33.8058 10.9958 34.0808 10.9958H37.6848C37.9338 10.9958 38.1364 11.1984 38.1364 11.4475V14.2551H21.1933V10.9958H31.8237C32.0986 10.9958 32.3216 10.7729 32.3216 10.4979C32.3216 10.2229 32.0986 10 31.8237 10H16.4474C15.6493 10 15 10.6493 15 11.4475V42.5541C15 43.3514 15.6486 44 16.4459 44H37.6863C38.4835 44 39.1322 43.3514 39.1322 42.5541V11.4475C39.1322 10.6493 38.4829 10 37.6848 10ZM15.9958 11.4475C15.9958 11.1984 16.1984 10.9958 16.4474 10.9958H20.1975V14.2551H15.9958V11.4475ZM38.1364 42.5541C38.1364 42.8023 37.9345 43.0042 37.6863 43.0042H16.4459C16.1977 43.0042 15.9958 42.8023 15.9958 42.5541V15.2542H38.1364V42.5541ZM18.5011 34.954L35.631 34.9537C36.0886 34.9537 36.4608 34.5815 36.4608 34.1239V31.4056C36.4608 30.948 36.0886 30.5758 35.631 30.5758H18.5011C18.0435 30.5758 17.6713 30.948 17.6713 31.4056V34.1242C17.6713 34.5818 18.0436 34.954 18.5011 34.954ZM33.2531 31.5715H35.465V33.9579H33.2531V31.5715ZM18.6671 31.5715H32.2573V33.9583H18.6671V31.5715ZM22.8015 35.9099H31.3306C31.7882 35.9099 32.1604 36.2821 32.1604 36.7397V39.4578C32.1604 39.9154 31.7882 40.2876 31.3306 40.2876H22.8015C22.344 40.2876 21.9717 39.9154 21.9717 39.4578V36.7397C21.9717 36.2821 22.344 35.9099 22.8015 35.9099ZM22.9675 39.2919H31.1646V36.9057H22.9675V39.2919ZM19.7778 27.9354C20.4513 28.3657 21.2086 28.5845 22.0347 28.5856C22.7334 28.5856 23.3922 28.4323 23.9926 28.1298C25.4778 27.3819 26.2957 26.133 26.2957 24.6129V19.7188C26.2957 18.7555 25.512 17.9718 24.5486 17.9718C23.5853 17.9718 22.8016 18.7556 22.8016 19.7188V24.6129C22.8016 24.704 22.8016 24.8175 22.4211 25.0091C22.3095 25.0654 22.1867 25.0915 22.0329 25.0915C21.8848 25.0914 21.766 25.0595 21.6589 24.9909C21.3485 24.7927 21.3485 24.7232 21.3485 24.6181V23.8246C21.3485 23.5495 21.1256 23.3267 20.8506 23.3267C20.5757 23.3267 20.3527 23.5495 20.3527 23.8246V24.6181C20.3527 25.1296 20.5759 25.4807 21.1227 25.83C21.3891 26.0003 21.6951 26.0869 22.0349 26.0873C22.3437 26.0873 22.6166 26.0255 22.869 25.8985C23.7012 25.4794 23.7974 24.9641 23.7974 24.6129V19.7188C23.7974 19.3046 24.1344 18.9676 24.5486 18.9676C24.9629 18.9676 25.2999 19.3046 25.2999 19.7188V24.6129C25.2999 25.7536 24.693 26.6622 23.5448 27.2405C23.0845 27.4723 22.5764 27.5898 22.0298 27.5898C21.4025 27.589 20.8252 27.4229 20.3139 27.0963C19.329 26.467 18.8502 25.6564 18.8502 24.6181V19.7188C18.8502 19.3046 19.1872 18.9676 19.6015 18.9676C20.0157 18.9676 20.3527 19.3046 20.3527 19.7188V21.5231C20.3527 21.7982 20.5757 22.021 20.8506 22.021C21.1256 22.021 21.3485 21.7982 21.3485 21.5231V19.7188C21.3485 18.7555 20.5648 17.9718 19.6015 17.9718C18.6381 17.9718 17.8544 18.7556 17.8544 19.7188V24.6181C17.8544 25.9844 18.5195 27.1315 19.7778 27.9354ZM27.7298 28.1576C27.3573 27.8767 27.1164 27.4675 27.0516 27.0054C26.9868 26.5433 27.1058 26.0836 27.3868 25.711L29.4086 23.0297L27.6595 20.725C27.0772 19.9576 27.2277 18.8595 27.995 18.2772C28.7624 17.6948 29.8604 17.8454 30.4428 18.6127L31.5947 20.1304L32.7359 18.617C33.0168 18.2444 33.426 18.0035 33.8881 17.9386C34.3502 17.8739 34.8099 17.9928 35.1826 18.2739C35.5552 18.5548 35.796 18.964 35.8609 19.4262C35.9257 19.8883 35.8066 20.348 35.5257 20.7206L33.7898 23.0228L35.9222 25.8326C36.2044 26.2042 36.3248 26.6636 36.2614 27.1259C36.198 27.5882 35.9585 27.9982 35.5867 28.2804C35.2802 28.5128 34.9154 28.6358 34.5315 28.6358C33.9798 28.6358 33.4722 28.384 33.1389 27.9449L31.6037 25.922L30.1766 27.8145C29.8434 28.2565 29.3347 28.5098 28.7807 28.5098C28.3988 28.5098 28.0354 28.388 27.7298 28.1576ZM30.4304 23.3284L28.1818 26.3105C28.061 26.4706 28.0098 26.6684 28.0376 26.8672C28.0655 27.0659 28.1691 27.2419 28.3293 27.3627C28.4608 27.4618 28.6169 27.5142 28.7807 27.5142C29.0192 27.5142 29.2382 27.4052 29.3815 27.2151L31.2048 24.7971C31.2987 24.6725 31.4456 24.5993 31.6016 24.599H31.6024C31.7581 24.599 31.9048 24.6719 31.9989 24.7959L33.932 27.343C34.0754 27.5319 34.2939 27.6402 34.5314 27.6402C34.6961 27.6402 34.8528 27.5873 34.9847 27.4873C35.1445 27.3659 35.2476 27.1897 35.2748 26.9908C35.3021 26.792 35.2503 26.5945 35.129 26.4347L32.7689 23.3248C32.6342 23.1473 32.6338 22.9019 32.768 22.724L34.7306 20.1211C34.8514 19.961 34.9026 19.7632 34.8747 19.5645C34.8469 19.3658 34.7433 19.1898 34.5831 19.069C34.4228 18.9482 34.225 18.8973 34.0264 18.9248C33.8277 18.9526 33.6518 19.0563 33.531 19.2165L31.9935 21.2555C31.8996 21.3801 31.7527 21.4534 31.5967 21.4536H31.5959C31.4402 21.4536 31.2935 21.3807 31.1993 21.2567L29.6496 19.2147C29.3991 18.8847 28.9269 18.82 28.5969 19.0703C28.2671 19.3207 28.2023 19.7929 28.4527 20.1229L30.4295 22.7276C30.5642 22.9051 30.5646 23.1505 30.4304 23.3284Z" fill="white"/>
</svg>
