<?xml version="1.0" encoding="utf-8"?>
<!-- Generator: Adobe Illustrator 24.0.2, SVG Export Plug-In . SVG Version: 6.00 Build 0)  -->
<svg version="1.1" id="Layer_1" xmlns="http://www.w3.org/2000/svg" xmlns:xlink="http://www.w3.org/1999/xlink" x="0px" y="0px"
	 viewBox="0 0 55 55" style="enable-background:new 0 0 55 55;" xml:space="preserve">
<style type="text/css">
	.st0{fill:#845CDA;}
	.st1{fill:#FFFFFF;}
</style>
<path class="st0" d="M10,0h35c5.5,0,10,4.5,10,10v35c0,5.5-4.5,10-10,10H10C4.5,55,0,50.5,0,45V10C0,4.5,4.5,0,10,0z"/>
<path class="st1" d="M34.5,11.7c-1.6-1.1-3.5-1.7-5.5-1.7c-3.7,0-7,2-8.7,5.3c-0.3,0.5-0.8,0.5-1.2,0.5c-2.9,0-5.6,1.9-6.5,4.6
	c-0.1,0.2-0.3,0.4-0.6,0.5c-1.8,0.6-3,2.4-2.9,4.3c0.1,2.4,2.1,4.2,4.5,4.2h1.6v1.9h-1.6c-0.2-0.7-0.8-1.1-1.6-1.1
	c-0.9,0-1.7,0.8-1.7,1.7c0,0.9,0.8,1.7,1.7,1.7c0.7,0,1.4-0.5,1.6-1.1h2.1c0.3,0,0.5-0.2,0.5-0.5v-2.5H21v7.1h-3.2
	c-0.2-0.8-1-1.4-1.8-1.4c-1.1,0-1.9,0.9-1.9,1.9c0,1.1,0.9,1.9,1.9,1.9c0.9,0,1.6-0.6,1.8-1.4h3.7c0.3,0,0.5-0.2,0.5-0.5v-7.7h4.8
	v10c-1,0.2-1.7,1.1-1.7,2.2c0,1.3,1,2.3,2.3,2.3c1.3,0,2.3-1,2.3-2.3c0-1.1-0.7-2-1.7-2.2v-10h1.2c0.3,0,0.5-0.2,0.5-0.5
	s-0.2-0.5-0.5-0.5H13.5c-1.8,0-3.3-1.4-3.4-3.2c-0.1-1.5,0.8-2.8,2.2-3.3c0.6-0.2,1-0.6,1.2-1.2c0.8-2.3,3-3.9,5.5-3.9
	c0.4,0,1.6,0.1,2.2-1c1.5-2.9,4.5-4.7,7.7-4.7c1.8,0,3.5,0.5,4.9,1.5c0.2,0.2,0.6,0.1,0.7-0.1C34.8,12.2,34.7,11.9,34.5,11.7z
	 M12,32.6c-0.3,0-0.6-0.3-0.6-0.6c0-0.3,0.3-0.6,0.6-0.6s0.6,0.3,0.6,0.6C12.6,32.3,12.3,32.6,12,32.6z M16,38.1
	c-0.5,0-0.8-0.4-0.8-0.8s0.4-0.8,0.8-0.8c0.5,0,0.8,0.4,0.8,0.8S16.4,38.1,16,38.1z M28.7,41.7c0,0.7-0.5,1.2-1.2,1.2
	c-0.7,0-1.2-0.5-1.2-1.2c0-0.7,0.5-1.2,1.2-1.2C28.1,40.5,28.7,41.1,28.7,41.7z"/>
<path class="st1" d="M38.4,28.5h-6.8c-0.3,0-0.5,0.2-0.5,0.5s0.2,0.5,0.5,0.5h1.2v7.7c0,0.3,0.2,0.5,0.5,0.5h3.7
	c0.2,0.8,1,1.4,1.8,1.4c1.1,0,1.9-0.9,1.9-1.9c0-1.1-0.9-1.9-1.9-1.9c-0.9,0-1.6,0.6-1.8,1.4h-3.2v-7.1h4.5c0.1,0,0.2,0,0.3,0V32
	c0,0.3,0.2,0.5,0.5,0.5h2.1c0.2,0.7,0.8,1.1,1.6,1.1c0.9,0,1.7-0.8,1.7-1.7c0-0.9-0.8-1.7-1.7-1.7c-0.7,0-1.4,0.5-1.6,1.1h-1.6v-2.1
	c3.3-0.7,5.8-3.5,5.7-7c-0.1-3.9-3.3-7-7.2-6.9c-0.3,0-0.6-0.2-0.8-0.5c-0.3-0.6-0.7-1.1-1.1-1.6c-0.2-0.2-0.5-0.3-0.8-0.1
	c-0.2,0.2-0.3,0.5-0.1,0.8c0.4,0.4,0.7,0.9,1,1.4c0.3,0.6,1,1,1.7,1c0,0,0,0,0.1,0c3.3-0.1,6.1,2.5,6.1,5.8
	C44.5,25.8,41.7,28.5,38.4,28.5z M38.9,36.4c0.5,0,0.8,0.4,0.8,0.8s-0.4,0.8-0.8,0.8s-0.8-0.4-0.8-0.8S38.5,36.4,38.9,36.4z
	 M43,31.4c0.3,0,0.6,0.3,0.6,0.6c0,0.3-0.3,0.6-0.6,0.6c-0.3,0-0.6-0.3-0.6-0.6C42.4,31.7,42.7,31.4,43,31.4z"/>
</svg>
