<svg width="55" height="55" viewBox="0 0 55 55" fill="none" xmlns="http://www.w3.org/2000/svg">
<rect width="55" height="55" rx="10" fill="#845CDA"/>
<path d="M34.473 11.7167C32.8413 10.5937 30.9289 10 28.9426 10C25.2572 10 21.9241 12.0408 20.244 15.3259C19.9728 15.8563 19.4854 15.7896 19.0099 15.7896C16.0726 15.7896 13.4598 17.6562 12.5083 20.4344C12.4242 20.68 12.2184 20.8763 11.9438 20.9728C10.11 21.6174 8.92828 23.3576 9.00338 25.3031C9.09483 27.6777 11.1041 29.5343 13.4914 29.5343H15.0995V31.4698H13.5336C13.3098 30.8098 12.6848 30.3333 11.9501 30.3333C11.0282 30.3333 10.2782 31.0833 10.2782 32.0052C10.2782 32.9272 11.0282 33.6772 11.9501 33.6772C12.6848 33.6772 13.3098 33.2007 13.5336 32.5406H15.635C15.9307 32.5406 16.1704 32.3009 16.1704 32.0052V29.5343H21.0101V36.682H17.8002C17.5679 35.8851 16.8313 35.3009 15.9604 35.3009C14.9036 35.3009 14.0439 36.1606 14.0439 37.2174C14.0439 38.2741 14.9036 39.1339 15.9604 39.1339C16.8313 39.1339 17.5679 38.5497 17.8002 37.7528H21.5455C21.8413 37.7528 22.0809 37.5131 22.0809 37.2174V29.5343H26.9134V39.5104C25.9154 39.7519 25.1719 40.6521 25.1719 41.7231C25.1719 42.9786 26.1933 44 27.4488 44C28.7043 44 29.7257 42.9786 29.7257 41.7231C29.7257 40.652 28.9821 39.7519 27.9842 39.5104V29.5343H29.1512C29.4469 29.5343 29.6866 29.2946 29.6866 28.9989C29.6866 28.7032 29.4469 28.4635 29.1512 28.4635H13.4914C11.6748 28.4635 10.1414 27.0273 10.0733 25.2619C10.0165 23.7885 10.9109 22.4709 12.299 21.9831C12.8849 21.7771 13.3304 21.3391 13.5214 20.7813C14.3246 18.4361 16.5302 16.8604 19.01 16.8604C19.3774 16.8604 20.5913 16.9991 21.1975 15.8135C22.6936 12.8881 25.6613 11.0708 28.9427 11.0708C30.7111 11.0708 32.4136 11.5992 33.866 12.5987C34.1097 12.7664 34.443 12.7048 34.6106 12.4612C34.7782 12.2177 34.7166 11.8843 34.473 11.7167ZM11.9501 32.6064C11.6186 32.6064 11.349 32.3367 11.349 32.0052C11.349 31.6738 11.6186 31.4041 11.9501 31.4041C12.2816 31.4041 12.5512 31.6738 12.5512 32.0052C12.5512 32.3367 12.2815 32.6064 11.9501 32.6064ZM15.9604 38.063C15.4941 38.063 15.1147 37.6837 15.1147 37.2174C15.1147 36.7511 15.494 36.3717 15.9604 36.3717C16.4266 36.3717 16.8061 36.7511 16.8061 37.2174C16.8061 37.6837 16.4267 38.063 15.9604 38.063ZM28.6549 41.7232C28.6549 42.3882 28.1138 42.9293 27.4488 42.9293C26.7838 42.9293 26.2427 42.3882 26.2427 41.7232C26.2427 41.0581 26.7837 40.5171 27.4488 40.5171C28.1138 40.5171 28.6549 41.0581 28.6549 41.7232Z" fill="white"/>
<path d="M38.4254 28.4635H31.6497C31.3539 28.4635 31.1143 28.7032 31.1143 28.9989C31.1143 29.2946 31.3539 29.5343 31.6497 29.5343H32.8167V37.2174C32.8167 37.5131 33.0564 37.7528 33.3521 37.7528H37.0973C37.3296 38.5497 38.0662 39.1339 38.9372 39.1339C39.994 39.1339 40.8537 38.2741 40.8537 37.2174C40.8537 36.1606 39.994 35.3009 38.9372 35.3009C38.0663 35.3009 37.3296 35.8851 37.0973 36.682H33.8875V29.5343H38.4254C38.5379 29.5343 38.6501 29.5314 38.7621 29.526V32.0052C38.7621 32.3009 39.0017 32.5406 39.2975 32.5406H41.3988C41.6226 33.2007 42.2477 33.6772 42.9823 33.6772C43.9042 33.6772 44.6543 32.9272 44.6543 32.0052C44.6543 31.0833 43.9042 30.3333 42.9823 30.3333C42.2477 30.3333 41.6226 30.8098 41.3988 31.4698H39.8329V29.3918C43.0908 28.7292 45.6158 25.8655 45.5494 22.4003C45.4747 18.4968 42.217 15.4012 38.3085 15.5435C37.9875 15.5553 37.676 15.3774 37.5193 15.0907C37.2127 14.5296 36.8485 13.9955 36.4366 13.5033C36.2468 13.2764 35.9091 13.2464 35.6824 13.4363C35.4556 13.626 35.4256 13.9637 35.6154 14.1904C35.9823 14.6289 36.3067 15.1045 36.5796 15.6042C36.918 16.2236 37.5799 16.6149 38.2798 16.6149C38.3022 16.6149 38.3246 16.6144 38.3471 16.6137C41.6505 16.4942 44.4154 19.1097 44.4788 22.4209C44.5429 25.7651 41.727 28.4635 38.4254 28.4635ZM38.9371 36.3717C39.4034 36.3717 39.7828 36.7511 39.7828 37.2174C39.7828 37.6837 39.4034 38.063 38.9371 38.063C38.4708 38.063 38.0914 37.6837 38.0914 37.2174C38.0914 36.7511 38.4708 36.3717 38.9371 36.3717ZM42.9823 31.4041C43.3139 31.4041 43.5835 31.6737 43.5835 32.0051C43.5835 32.3366 43.3139 32.6063 42.9823 32.6063C42.6508 32.6063 42.3812 32.3366 42.3812 32.0051C42.3812 31.6737 42.6508 31.4041 42.9823 31.4041Z" fill="white"/>
</svg>
