<svg width="55" height="55" viewBox="0 0 55 55" fill="none" xmlns="http://www.w3.org/2000/svg">
<rect width="55" height="55" rx="10" fill="#6589E6"/>
<path d="M42.1517 17.5921L28.8747 10.2145C28.3551 9.92851 27.7201 9.92851 27.2006 10.2145L13.9236 17.5921C13.3464 17.878 13 18.45 13 19.0791V34.9209C13 35.55 13.3464 36.122 13.8659 36.4079L27.1429 43.7855C27.6624 44.0715 28.2974 44.0715 28.8169 43.7855L42.0939 36.4079C42.6135 36.122 42.9598 35.55 42.9598 34.9209V19.0791C43.0176 18.45 42.6712 17.878 42.1517 17.5921ZM36.6677 15.8192L38.0531 16.5627L36.6677 17.4777V15.8192ZM32.0496 13.3028L34.705 14.7897L32.0496 16.1623V13.3028ZM30.8951 16.7914L29.1633 17.7065L28.586 17.4205C28.2397 17.2489 27.7779 17.2489 27.4315 17.4777L23.333 19.9941C22.9866 20.2229 22.8134 20.566 22.8134 20.9664V22.8537L19.9271 21.2523V18.6787L24.0257 16.1623L24.6029 16.4483C24.9493 16.6198 25.3534 16.6198 25.6997 16.4483L30.8951 13.6459V16.7914ZM23.968 21.0235L28.0665 18.5071L28.6438 18.7931C28.9901 18.9647 29.3942 18.9647 29.7406 18.7931L35.5132 15.5904V18.164L32.5691 19.9941L31.9919 19.7082C31.6455 19.5366 31.1837 19.5366 30.8374 19.7653L26.7388 22.2817C26.3924 22.5105 26.2193 22.8537 26.2193 23.254V24.741L23.9102 23.4828V21.0235H23.968ZM28.2974 25.5988C28.1242 25.7132 27.8933 25.7132 27.7201 25.5988L27.4315 25.4272V23.3112L31.5301 20.7948L32.1073 21.0807C32.4537 21.2523 32.9155 21.2523 33.2618 21.0235L39.0345 17.3633V19.651L28.2974 25.5988ZM40.1313 17.7637L41.2858 18.3928L40.1313 19.0219V17.7637ZM27.7201 11.1867C27.8933 11.0723 28.1242 11.0723 28.2974 11.1867L30.6065 12.5021L25.1225 15.476L24.5452 15.1901C24.1989 15.0185 23.737 15.0185 23.3907 15.2473L19.2921 17.7637C18.9458 17.9924 18.7726 18.3356 18.7726 18.7359V20.6232L14.7318 18.3928L27.7201 11.1867ZM14.4432 35.3785C14.27 35.2641 14.1545 35.0925 14.1545 34.8638V22.7393L16.1172 23.7115C16.2904 23.8259 16.4636 23.9975 16.4636 24.2262V24.741C15.5399 25.0841 15.0781 26.0564 15.4245 26.9142C15.7709 27.8293 16.7522 28.2868 17.6181 27.9437C18.484 27.6005 19.0035 26.6283 18.6572 25.7704C18.484 25.2557 18.0799 24.9125 17.6181 24.741V24.2262C17.6181 23.5971 17.2717 22.968 16.6367 22.6821L14.1545 21.4811V19.365L27.1429 26.5711C27.2006 26.6283 27.3161 26.6283 27.4315 26.6854V32.8621L22.5248 30.2313C22.3516 30.1169 22.2362 29.9453 22.2362 29.7166V28.5728C23.1598 28.2296 23.6216 27.2574 23.2752 26.3995C22.9289 25.5416 21.9475 25.0269 21.0816 25.3701C20.158 25.7132 19.6962 26.6854 20.0426 27.5433C20.2158 28.058 20.6198 28.4012 21.0816 28.5728V29.7166C21.0816 30.3457 21.428 30.9176 22.0053 31.2035L27.4315 34.1203V39.6678L22.5248 37.037C22.3516 36.9226 22.2362 36.7511 22.2362 36.5223V34.4062C22.2362 33.7771 21.8898 33.2624 21.3703 32.9193L19.3499 31.7754C19.3499 31.7183 19.3499 31.6039 19.3499 31.5467C19.3499 30.5744 18.5994 29.8309 17.6181 29.8309C16.6367 29.8309 15.8863 30.5744 15.8863 31.5467C15.8863 32.5189 16.6367 33.2624 17.6181 33.2624C18.0799 33.2624 18.484 33.0908 18.8303 32.8049L20.8507 34.0059C21.0239 34.1203 21.1394 34.2918 21.1394 34.5206V36.6367C21.1394 37.2658 21.4857 37.8377 22.063 38.1236L27.4892 41.0404V42.5845L14.4432 35.3785ZM17.6181 26.3995C17.6181 26.7426 17.3872 26.9714 17.0408 26.9714C16.6945 26.9714 16.4636 26.7426 16.4636 26.3995C16.4636 26.0564 16.6945 25.8276 17.0408 25.8276C17.3872 25.8276 17.6181 26.0564 17.6181 26.3995ZM21.0816 26.9714C21.0816 26.6283 21.3126 26.3995 21.6589 26.3995C22.0053 26.3995 22.2362 26.6283 22.2362 26.9714C22.2362 27.3146 22.0053 27.5433 21.6589 27.5433C21.3126 27.5433 21.0816 27.3146 21.0816 26.9714ZM18.1953 31.5467C18.1953 31.8898 17.9644 32.1186 17.6181 32.1186C17.2717 32.1186 17.0408 31.8898 17.0408 31.5467C17.0408 31.2035 17.2717 30.9748 17.6181 30.9748C17.9644 30.9748 18.1953 31.2035 18.1953 31.5467ZM41.5744 35.3785L28.586 42.5845V37.6089L34.0123 34.6922C34.5896 34.4062 34.9359 33.8343 34.9359 33.2052V31.1463C34.9359 30.9176 35.0514 30.746 35.2823 30.6316L37.8222 29.3734C38.5149 30.0025 39.6117 30.0025 40.2467 29.3162C40.8817 28.6299 40.8817 27.5433 40.189 26.9142C39.4963 26.2851 38.3995 26.2851 37.7645 26.9714C37.4181 27.2574 37.2449 27.6577 37.2449 28.1152V28.344L34.705 29.6022C34.1277 29.8881 33.7237 30.4601 33.7237 31.1463V33.2052C33.7237 33.434 33.6082 33.6056 33.435 33.7199L28.586 36.2935V30.746L30.2601 29.8881C30.9528 30.5172 32.0496 30.5172 32.6846 29.8309C33.3196 29.1447 33.3196 28.058 32.6269 27.4289C31.9342 26.7998 30.8374 26.7998 30.2024 27.4861C29.9137 27.8293 29.7406 28.2296 29.7406 28.6871V28.9159L28.586 29.4878V26.6854C28.7015 26.6854 28.7592 26.6283 28.8747 26.5711L41.863 19.365V30.6316L39.0345 32.0614C38.3417 31.4323 37.2449 31.4323 36.61 32.1186C35.975 32.8049 35.975 33.8915 36.6677 34.5206C37.3604 35.1497 38.4572 35.1497 39.0922 34.4634C39.3808 34.1203 39.554 33.7199 39.554 33.2624C39.554 33.2052 39.554 33.148 39.554 33.0336L41.863 31.8898V34.8638C41.863 35.0925 41.7476 35.2641 41.5744 35.3785ZM38.3995 28.1152C38.3995 27.7721 38.6304 27.5433 38.9767 27.5433C39.3231 27.5433 39.554 27.7721 39.554 28.1152C39.554 28.4584 39.3231 28.6871 38.9767 28.6871C38.6304 28.6871 38.3995 28.4584 38.3995 28.1152ZM30.8951 28.6871C30.8951 28.344 31.126 28.1152 31.4723 28.1152C31.8187 28.1152 32.0496 28.344 32.0496 28.6871C32.0496 29.0303 31.8187 29.259 31.4723 29.259C31.126 29.259 30.8951 29.0303 30.8951 28.6871ZM38.3995 33.2624C38.3995 33.6056 38.1686 33.8343 37.8222 33.8343C37.4759 33.8343 37.2449 33.6056 37.2449 33.2624C37.2449 32.9193 37.4759 32.6905 37.8222 32.6905C38.1686 32.6905 38.3995 32.9193 38.3995 33.2624Z" fill="white"/>
</svg>
