<?xml version="1.0" encoding="utf-8"?>
<!-- Generator: Adobe Illustrator 24.0.2, SVG Export Plug-In . SVG Version: 6.00 Build 0)  -->
<svg version="1.1" id="Layer_1" xmlns="http://www.w3.org/2000/svg" xmlns:xlink="http://www.w3.org/1999/xlink" x="0px" y="0px"
	 viewBox="0 0 55 55" style="enable-background:new 0 0 55 55;" xml:space="preserve">
<style type="text/css">
	.st0{fill:#6589E6;}
	.st1{fill:#FFFFFF;}
</style>
<path class="st0" d="M10,0h35c5.5,0,10,4.5,10,10v35c0,5.5-4.5,10-10,10H10C4.5,55,0,50.5,0,45V10C0,4.5,4.5,0,10,0z"/>
<path class="st1" d="M42.2,17.6l-13.3-7.4c-0.5-0.3-1.2-0.3-1.7,0l-13.3,7.4c-0.6,0.3-0.9,0.9-0.9,1.5v15.8c0,0.6,0.3,1.2,0.9,1.5
	l13.3,7.4c0.5,0.3,1.2,0.3,1.7,0l13.3-7.4c0.5-0.3,0.9-0.9,0.9-1.5V19.1C43,18.5,42.7,17.9,42.2,17.6z M36.7,15.8l1.4,0.7l-1.4,0.9
	V15.8z M32,13.3l2.7,1.5L32,16.2V13.3z M30.9,16.8l-1.7,0.9l-0.6-0.3c-0.3-0.2-0.8-0.2-1.2,0.1L23.3,20c-0.3,0.2-0.5,0.6-0.5,1v1.9
	l-2.9-1.6v-2.6l4.1-2.5l0.6,0.3c0.3,0.2,0.8,0.2,1.1,0l5.2-2.8V16.8z M24,21l4.1-2.5l0.6,0.3c0.3,0.2,0.8,0.2,1.1,0l5.8-3.2v2.6
	L32.6,20L32,19.7c-0.3-0.2-0.8-0.2-1.2,0.1l-4.1,2.5c-0.3,0.2-0.5,0.6-0.5,1v1.5l-2.3-1.3L24,21L24,21z M28.3,25.6
	c-0.2,0.1-0.4,0.1-0.6,0l-0.3-0.2v-2.1l4.1-2.5l0.6,0.3c0.3,0.2,0.8,0.2,1.2-0.1l5.8-3.7v2.3L28.3,25.6z M40.1,17.8l1.2,0.6L40.1,19
	V17.8z M27.7,11.2c0.2-0.1,0.4-0.1,0.6,0l2.3,1.3l-5.5,3l-0.6-0.3c-0.3-0.2-0.8-0.2-1.2,0.1l-4.1,2.5c-0.3,0.2-0.5,0.6-0.5,1v1.9
	l-4-2.2L27.7,11.2z M14.4,35.4c-0.2-0.1-0.3-0.3-0.3-0.5V22.7l2,1c0.2,0.1,0.3,0.3,0.3,0.5v0.5c-0.9,0.3-1.4,1.3-1,2.2
	c0.3,0.9,1.3,1.4,2.2,1c0.9-0.3,1.4-1.3,1-2.2c-0.2-0.5-0.6-0.9-1-1v-0.5c0-0.6-0.3-1.3-1-1.5l-2.5-1.2v-2.1l13,7.2
	c0.1,0.1,0.2,0.1,0.3,0.1v6.2l-4.9-2.6c-0.2-0.1-0.3-0.3-0.3-0.5v-1.1c0.9-0.3,1.4-1.3,1-2.2c-0.3-0.9-1.3-1.4-2.2-1
	c-0.9,0.3-1.4,1.3-1,2.2c0.2,0.5,0.6,0.9,1,1v1.1c0,0.6,0.3,1.2,0.9,1.5l5.4,2.9v5.5L22.5,37c-0.2-0.1-0.3-0.3-0.3-0.5v-2.1
	c0-0.6-0.3-1.1-0.9-1.5l-2-1.1c0-0.1,0-0.2,0-0.2c0-1-0.8-1.7-1.7-1.7c-1,0-1.7,0.7-1.7,1.7c0,1,0.8,1.7,1.7,1.7
	c0.5,0,0.9-0.2,1.2-0.5l2,1.2c0.2,0.1,0.3,0.3,0.3,0.5v2.1c0,0.6,0.3,1.2,0.9,1.5l5.4,2.9v1.5L14.4,35.4z M17.6,26.4
	c0,0.3-0.2,0.6-0.6,0.6c-0.3,0-0.6-0.2-0.6-0.6s0.2-0.6,0.6-0.6C17.4,25.8,17.6,26.1,17.6,26.4z M21.1,27c0-0.3,0.2-0.6,0.6-0.6
	c0.3,0,0.6,0.2,0.6,0.6c0,0.3-0.2,0.6-0.6,0.6C21.3,27.5,21.1,27.3,21.1,27z M18.2,31.5c0,0.3-0.2,0.6-0.6,0.6
	c-0.3,0-0.6-0.2-0.6-0.6c0-0.3,0.2-0.6,0.6-0.6C18,31,18.2,31.2,18.2,31.5z M41.6,35.4l-13,7.2v-5l5.4-2.9c0.6-0.3,0.9-0.9,0.9-1.5
	v-2.1c0-0.2,0.1-0.4,0.3-0.5l2.5-1.3c0.7,0.6,1.8,0.6,2.4-0.1c0.6-0.7,0.6-1.8-0.1-2.4c-0.7-0.6-1.8-0.6-2.4,0.1
	c-0.3,0.3-0.5,0.7-0.5,1.1v0.2l-2.5,1.3c-0.6,0.3-1,0.9-1,1.5v2.1c0,0.2-0.1,0.4-0.3,0.5l-4.8,2.6v-5.5l1.7-0.9
	c0.7,0.6,1.8,0.6,2.4-0.1c0.6-0.7,0.6-1.8-0.1-2.4c-0.7-0.6-1.8-0.6-2.4,0.1c-0.3,0.3-0.5,0.7-0.5,1.2v0.2l-1.2,0.6v-2.8
	c0.1,0,0.2-0.1,0.3-0.1l13-7.2v11.3L39,32.1c-0.7-0.6-1.8-0.6-2.4,0.1c-0.6,0.7-0.6,1.8,0.1,2.4c0.7,0.6,1.8,0.6,2.4-0.1
	c0.3-0.3,0.5-0.7,0.5-1.2c0-0.1,0-0.1,0-0.2l2.3-1.1v3C41.9,35.1,41.7,35.3,41.6,35.4z M38.4,28.1c0-0.3,0.2-0.6,0.6-0.6
	c0.3,0,0.6,0.2,0.6,0.6c0,0.3-0.2,0.6-0.6,0.6C38.6,28.7,38.4,28.5,38.4,28.1z M30.9,28.7c0-0.3,0.2-0.6,0.6-0.6
	c0.3,0,0.6,0.2,0.6,0.6c0,0.3-0.2,0.6-0.6,0.6C31.1,29.3,30.9,29,30.9,28.7z M38.4,33.3c0,0.3-0.2,0.6-0.6,0.6
	c-0.3,0-0.6-0.2-0.6-0.6c0-0.3,0.2-0.6,0.6-0.6C38.2,32.7,38.4,32.9,38.4,33.3z"/>
</svg>
