<?xml version="1.0" encoding="utf-8"?>
<!-- Generator: Adobe Illustrator 24.0.2, SVG Export Plug-In . SVG Version: 6.00 Build 0)  -->
<svg version="1.1" id="Layer_1" xmlns="http://www.w3.org/2000/svg" xmlns:xlink="http://www.w3.org/1999/xlink" x="0px" y="0px"
	 viewBox="0 0 55 55" style="enable-background:new 0 0 55 55;" xml:space="preserve">
<style type="text/css">
	.st0{fill:#6589E6;}
	.st1{fill:#FFFFFF;}
</style>
<path class="st0" d="M10,0h35c5.5,0,10,4.5,10,10v35c0,5.5-4.5,10-10,10H10C4.5,55,0,50.5,0,45V10C0,4.5,4.5,0,10,0z"/>
<path class="st1" d="M14.5,11.8c-0.5,0-0.9,0.4-0.9,0.9v8.7c0,0.5,0.4,0.9,0.9,0.9h12.4c0.5,0,0.9-0.4,0.9-0.9c0-0.3,0-8.4,0-8.7
	c0-0.5-0.4-0.9-0.9-0.9C26.6,11.8,14.6,11.8,14.5,11.8z M14.6,12.8H16V14h-1.4V12.8z M26.7,21.3H14.6V15h12.1V21.3z M26.7,14H17
	v-1.2h9.7V14z"/>
<path class="st1" d="M29.2,26.5c1.2,0,2.1-0.9,2.1-2.1v-0.4c0-0.5-0.4-0.8-0.8-0.8h-1.4c0.3-0.4,0.5-0.9,0.5-1.5v-3.4
	c0-0.3-0.2-0.5-0.5-0.5c-0.3,0-0.5,0.2-0.5,0.5v3.4c0,0.7-0.4,1.3-1.1,1.5H13.8c-0.6-0.2-1.1-0.8-1.1-1.5v-9c0-0.9,0.7-1.6,1.6-1.6
	H27c0.9,0,1.6,0.7,1.6,1.6v3.3c0,0.3,0.2,0.5,0.5,0.5c0.3,0,0.5-0.2,0.5-0.5v-3.3c0-1.4-1.2-2.6-2.6-2.6H14.3
	c-1.4,0-2.6,1.2-2.6,2.6v9c0,0.5,0.2,1.1,0.5,1.5h-1.4c-0.5,0-0.8,0.4-0.8,0.8v0.4c0,1.2,0.9,2.1,2.1,2.1L29.2,26.5L29.2,26.5z
	 M11,24.4v-0.3h19.3v0.3c0,0.6-0.5,1.1-1.1,1.1H12.1C11.5,25.5,11,25,11,24.4z"/>
<path class="st1" d="M43.3,40.6h-1.4c0.3-0.4,0.5-0.9,0.5-1.5v-9c0-1.4-1.2-2.6-2.6-2.6h-4.5c-0.3,0-0.5,0.2-0.5,0.5
	c0,0.3,0.2,0.5,0.5,0.5h4.5c0.9,0,1.6,0.7,1.6,1.6v9c0,0.7-0.4,1.3-1.1,1.5H26.6c-0.6-0.2-1.1-0.8-1.1-1.5v-9c0-0.9,0.7-1.6,1.6-1.6
	H33c0.3,0,0.5-0.2,0.5-0.5c0-0.3-0.2-0.5-0.5-0.5h-5.8c-1.4,0-2.6,1.2-2.6,2.6v9c0,0.5,0.2,1.1,0.5,1.5h-1.4c-0.5,0-0.8,0.4-0.8,0.8
	v0.4c0,1.2,0.9,2.1,2.1,2.1H42c1.2,0,2.1-1,2.1-2.1v-0.4C44.1,41,43.7,40.6,43.3,40.6z M43.1,41.9c0,0.6-0.5,1.1-1.1,1.1H24.9
	c-0.6,0-1.1-0.5-1.1-1.1v-0.3h19.3L43.1,41.9L43.1,41.9z"/>
<path class="st1" d="M27.3,29.4c-0.5,0-0.9,0.4-0.9,0.9v8.7c0,0.5,0.4,0.9,0.9,0.9h12.4c0.5,0,0.9-0.4,0.9-0.9c0-0.3,0-8.4,0-8.7
	c0-0.5-0.4-0.9-0.9-0.9C39.5,29.4,27.4,29.4,27.3,29.4z M27.4,30.4h1.4v1.2h-1.4V30.4z M39.5,38.8H27.4v-6.2h12.1V38.8z M29.8,30.4
	h9.7v1.2h-9.7V30.4z"/>
<path class="st1" d="M40,25.8c0.3,0,0.5-0.2,0.5-0.5V14.4c0.9-0.2,1.6-1.1,1.6-2.1c0-1.2-1-2.1-2.1-2.1c-1,0-1.9,0.7-2.1,1.6h-6.2
	c-0.3,0-0.5,0.2-0.5,0.5s0.2,0.5,0.5,0.5h6.2c0.2,0.8,0.8,1.4,1.6,1.6v10.9C39.5,25.6,39.7,25.8,40,25.8z M38.9,12.3
	c0-0.6,0.5-1.1,1.1-1.1c0.6,0,1.1,0.5,1.1,1.1c0,0.6-0.5,1.1-1.1,1.1C39.4,13.5,38.9,13,38.9,12.3z"/>
<path class="st1" d="M14.5,28.2c-0.3,0-0.5,0.2-0.5,0.5v8.5c-0.9,0.2-1.6,1.1-1.6,2.1c0,1.2,1,2.1,2.1,2.1c1,0,1.9-0.7,2.1-1.6h5
	c0.3,0,0.5-0.2,0.5-0.5s-0.2-0.5-0.5-0.5h-5c-0.2-0.8-0.8-1.4-1.6-1.6v-8.5C15,28.4,14.7,28.2,14.5,28.2z M15.6,39.3
	c0,0.6-0.5,1.1-1.1,1.1c-0.6,0-1.1-0.5-1.1-1.1c0-0.6,0.5-1.1,1.1-1.1c0,0,0,0,0,0c0,0,0,0,0,0C15.1,38.1,15.6,38.6,15.6,39.3z"/>
</svg>
