<?xml version="1.0" encoding="utf-8"?>
<!-- Generator: Adobe Illustrator 24.0.2, SVG Export Plug-In . SVG Version: 6.00 Build 0)  -->
<svg version="1.1" id="Layer_1" xmlns="http://www.w3.org/2000/svg" xmlns:xlink="http://www.w3.org/1999/xlink" x="0px" y="0px"
	 viewBox="0 0 55 55" style="enable-background:new 0 0 55 55;" xml:space="preserve">
<style type="text/css">
	.st0{fill:#845CDA;}
	.st1{fill:#FFFFFF;}
</style>
<path class="st0" d="M10,0h35c5.5,0,10,4.5,10,10v35c0,5.5-4.5,10-10,10H10C4.5,55,0,50.5,0,45V10C0,4.5,4.5,0,10,0z"/>
<path class="st1" d="M44.7,34h-3V31c0-0.8-0.6-1.4-1.4-1.4H28.4v-3.4h7.9c0.9,0,1.5-0.7,1.5-1.6v-3.4c0-0.3-0.2-0.5-0.5-0.5
	c-0.3,0-0.5,0.2-0.5,0.5v3.4c0,0.3-0.2,0.5-0.5,0.5H19.5c-0.3,0-0.5-0.2-0.5-0.5v-13c0-0.3,0.2-0.5,0.5-0.5h5.2
	c0.2,0,0.4,0.1,0.5,0.3l0.6,1.6c0.3,0.7,1,1.3,1.8,1.3h8.7c0.3,0,0.5,0.2,0.5,0.5v3.9c0,0.3,0.2,0.5,0.5,0.5c0.3,0,0.5-0.2,0.5-0.5
	v-3.9v-3.3c0-0.8-0.7-1.5-1.5-1.5c-0.9,0-16.2,0-16.8,0c-0.9,0-1.5,0.7-1.5,1.6v13c0,0.9,0.7,1.6,1.5,1.6h7.9v3.4H15.9
	c-0.8,0-1.4,0.6-1.4,1.4V34h-3c-0.6,0-1.1,0.5-1.1,1.1v1.1c-0.2,0.2-0.4,0.5-0.4,0.9v5.7c0,0.6,0.5,1.2,1.2,1.2h7.4
	c0.6,0,1.2-0.5,1.2-1.2c0-3.6,0-4.3,0-7.7c0-0.6-0.5-1.1-1.1-1.1h-3.1V31c0-0.2,0.2-0.4,0.4-0.4h11.5V34h-2.9
	c-0.6,0-1.1,0.5-1.1,1.1v1.1c-0.2,0.2-0.4,0.5-0.4,0.9v5.7c0,0.6,0.5,1.2,1.2,1.2h2.5c0.3,0,0.5-0.2,0.5-0.5s-0.2-0.5-0.5-0.5h-2.5
	c-0.1,0-0.1-0.1-0.1-0.1v-5.7c0-0.1,0.1-0.1,0.1-0.1h2.1c0,0,0.1,0,0.1,0.1l0.2,0.7c0.2,0.5,0.6,0.8,1.1,0.8h3.9
	c0.1,0,0.1,0.1,0.1,0.1v4.2c0,0.1-0.1,0.1-0.1,0.1h-2.5c-0.3,0-0.5,0.2-0.5,0.5s0.2,0.5,0.5,0.5h2.5c0.6,0,1.2-0.5,1.2-1.2
	c0-3.6,0-4.3,0-7.7c0-0.6-0.5-1.1-1.1-1.1h-3.3v-3.4h11.9c0.2,0,0.4,0.2,0.4,0.4V34h-3.1c-0.6,0-1.1,0.5-1.1,1.1v1.1
	c-0.2,0.2-0.4,0.5-0.4,0.9v5.7c0,0.6,0.5,1.2,1.2,1.2h7.4c0.6,0,1.2-0.5,1.2-1.2c0-3.6,0-4.3,0-7.7C45.8,34.5,45.3,34,44.7,34z
	 M36.4,11.1c0.2,0,0.4,0.2,0.4,0.4v1.8c-0.2-0.1-0.3-0.1-0.5-0.1h-8.7c-0.4,0-0.7-0.2-0.8-0.6l-0.6-1.6H36.4z M18.7,42.8
	c0,0.1-0.1,0.1-0.1,0.1h-7.4c-0.1,0-0.1-0.1-0.1-0.1v-5.7c0,0,0-0.1,0.1-0.1c0,0,0,0,0,0c0,0,0,0,0,0c0,0,0,0,0,0h2.1
	c0.1,0,0.1,0,0.1,0.1l0.2,0.7c0.2,0.5,0.6,0.8,1.1,0.8h3.9c0.1,0,0.1,0.1,0.1,0.1V42.8L18.7,42.8z M18.7,35.1
	C18.7,35.1,18.7,35.1,18.7,35.1l0,2.4c0,0,0,0,0,0c0,0-0.1,0-0.1,0h-3.9c-0.1,0-0.1,0-0.1-0.1l-0.2-0.7c-0.2-0.5-0.6-0.8-1.1-0.8
	h-1.8v-0.8c0,0,0,0,0,0L18.7,35.1L18.7,35.1z M31.7,35.1C31.7,35.1,31.7,35.1,31.7,35.1l0,2.4c0,0-0.1,0-0.1,0h-3.9
	c-0.1,0-0.1,0-0.1-0.1l-0.2-0.7c-0.2-0.5-0.6-0.8-1.1-0.8h-1.8v-0.8c0,0,0,0,0,0L31.7,35.1L31.7,35.1z M44.7,42.8
	c0,0.1-0.1,0.1-0.1,0.1h-7.4c-0.1,0-0.1-0.1-0.1-0.1v-5.7c0-0.1,0.1-0.1,0.1-0.1h2.1c0.1,0,0.1,0,0.1,0.1l0.2,0.7
	c0.2,0.5,0.6,0.8,1.1,0.8h3.9c0.1,0,0.1,0.1,0.1,0.1L44.7,42.8L44.7,42.8z M44.7,37.5c0,0-0.1,0-0.1,0h-3.9c-0.1,0-0.1,0-0.1-0.1
	l-0.2-0.7c-0.2-0.5-0.6-0.8-1.1-0.8h-1.8v-0.8c0,0,0,0,0,0h7.2c0,0,0,0,0,0V37.5z"/>
</svg>
