<svg width="55" height="55" viewBox="0 0 55 55" fill="none" xmlns="http://www.w3.org/2000/svg">
<rect width="55" height="55" rx="10" fill="#845CDA"/>
<path d="M44.6793 34.0363H41.6931V30.9856C41.6931 30.1998 41.0556 29.5605 40.272 29.5605H28.4094V26.1356H36.2625C37.1158 26.1356 37.8101 25.4393 37.8101 24.5835V21.1532C37.8101 20.863 37.5756 20.6278 37.2861 20.6278C36.9967 20.6278 36.7621 20.863 36.7621 21.1532V24.5835C36.7621 24.8598 36.5379 25.0846 36.2625 25.0846H19.5082C19.2328 25.0846 19.0086 24.8598 19.0086 24.5835V11.5522C19.0086 11.2758 19.2328 11.051 19.5082 11.051H24.6815C24.8894 11.051 25.0776 11.1823 25.1499 11.3777L25.7587 13.0217C26.0358 13.7699 26.7566 14.2725 27.5524 14.2725H36.2625C36.538 14.2725 36.7622 14.4973 36.7622 14.7736V18.701C36.7622 18.9912 36.9967 19.2265 37.2862 19.2265C37.5756 19.2265 37.8102 18.9912 37.8102 18.701V14.7735V11.4593C37.8102 10.6547 37.1574 10 36.3551 10C35.4896 10 20.1467 10 19.5082 10C18.6549 10 17.9606 10.6963 17.9606 11.5521V24.5834C17.9606 25.4392 18.6549 26.1355 19.5082 26.1355H27.3614V29.5604H15.9006C15.117 29.5604 14.4795 30.1998 14.4795 30.9855V34.0363H11.4933C10.8915 34.0363 10.4019 34.5273 10.4019 35.1308V36.2434C10.1562 36.4585 10 36.7738 10 37.1257V42.8283C10 43.4743 10.5241 43.9999 11.1683 43.9999H18.5981C19.2423 43.9999 19.7664 43.4744 19.7664 42.8283C19.7664 39.2409 19.7664 38.4877 19.7664 35.1309C19.7664 34.5274 19.2768 34.0364 18.675 34.0364H15.5274V30.9857C15.5274 30.7793 15.6948 30.6115 15.9006 30.6115H27.3614V34.0364H24.4955C23.8937 34.0364 23.4041 34.5274 23.4041 35.1309V36.2436C23.1584 36.4585 23.0022 36.7738 23.0022 37.1258V42.8284C23.0022 43.4744 23.5262 43.9999 24.1704 43.9999H26.6628C26.9522 43.9999 27.1867 43.7646 27.1867 43.4744C27.1867 43.1842 26.9522 42.949 26.6628 42.949H24.1704C24.1041 42.949 24.0501 42.8949 24.0501 42.8284V37.1258C24.0501 37.0581 24.1054 37.0052 24.1704 37.0052H26.2818C26.3317 37.0052 26.3771 37.0366 26.3945 37.0838L26.6357 37.7352C26.8049 38.192 27.2449 38.499 27.7309 38.499H31.6003C31.6667 38.499 31.7206 38.5532 31.7206 38.6196V42.8283C31.7206 42.8948 31.6666 42.9489 31.6003 42.9489H29.108C28.8186 42.9489 28.584 43.1842 28.584 43.4744C28.584 43.7646 28.8186 43.9999 29.108 43.9999H31.6003C32.2445 43.9999 32.7685 43.4743 32.7685 42.8283C32.7685 39.2409 32.7685 38.4877 32.7685 35.1309C32.7685 34.5274 32.2789 34.0364 31.6771 34.0364H28.4094V30.6115H40.2721C40.4779 30.6115 40.6452 30.7794 40.6452 30.9857V34.0364H37.4978C36.896 34.0364 36.4064 34.5274 36.4064 35.1309V36.2436C36.1607 36.4585 36.0044 36.7738 36.0044 37.1258V42.8284C36.0044 43.4744 36.5285 44 37.1727 44H44.6026C45.2468 44 45.7708 43.4744 45.7708 42.8284C45.7708 39.241 45.7708 38.4878 45.7708 35.131C45.7707 34.5273 45.2811 34.0363 44.6793 34.0363ZM36.355 11.051C36.5795 11.051 36.7621 11.2341 36.7621 11.4593V13.3045C36.6 13.2491 36.4251 13.2215 36.2625 13.2215H27.5523C27.1924 13.2215 26.8663 12.9941 26.7411 12.6557L26.1469 11.051H36.355ZM18.7184 42.8282C18.7184 42.8947 18.6644 42.9489 18.5981 42.9489H11.1683C11.102 42.9489 11.048 42.8948 11.048 42.8282V37.1256C11.048 37.076 11.0781 37.0332 11.121 37.0148C11.1218 37.0144 11.1226 37.0143 11.1234 37.0139C11.1306 37.011 11.1379 37.0088 11.1451 37.0074C11.1526 37.0059 11.1604 37.0051 11.1683 37.0051H13.2796C13.3297 37.0051 13.3749 37.0366 13.3924 37.0837L13.6336 37.7351C13.8026 38.1917 14.2426 38.4988 14.7288 38.4988H18.5981C18.6644 38.4988 18.7184 38.5529 18.7184 38.6195V42.8282H18.7184ZM18.6749 35.0873C18.6976 35.0873 18.7184 35.108 18.7184 35.1309V37.454C18.7182 37.454 18.718 37.454 18.7178 37.454C18.6785 37.45 18.6385 37.4479 18.5981 37.4479H14.7288C14.6787 37.4479 14.6335 37.4163 14.616 37.3692L14.3748 36.7178C14.2057 36.261 13.7655 35.9541 13.2796 35.9541H11.4499V35.1308C11.4499 35.108 11.4706 35.0872 11.4933 35.0872H18.6749V35.0873ZM31.6771 35.0873C31.6998 35.0873 31.7205 35.108 31.7205 35.1309V37.454C31.716 37.4535 31.6264 37.4479 31.6002 37.4479H27.7308C27.6784 37.4479 27.6335 37.4108 27.6182 37.3692L27.3769 36.7178C27.205 36.2535 26.7574 35.9541 26.2817 35.9541H24.452V35.1308C24.452 35.108 24.4728 35.0872 24.4955 35.0872H31.6771V35.0873ZM44.7227 42.8282C44.7227 42.8947 44.6688 42.9489 44.6024 42.9489H37.1726C37.1063 42.9489 37.0523 42.8948 37.0523 42.8282V37.1256C37.0523 37.0579 37.1077 37.0051 37.1726 37.0051H39.284C39.3341 37.0051 39.3794 37.0367 39.3968 37.0837L39.6379 37.7351C39.8071 38.1919 40.2472 38.4988 40.7332 38.4988H44.6025C44.6688 38.4988 44.7228 38.5529 44.7228 38.6194V42.8282H44.7227ZM44.7227 37.454C44.6824 37.45 44.6436 37.4479 44.6024 37.4479H40.7331C40.683 37.4479 40.6378 37.4162 40.6204 37.3692L40.3792 36.7179C40.2101 36.261 39.7699 35.9541 39.2839 35.9541H37.4543V35.1309C37.4543 35.1081 37.475 35.0873 37.4977 35.0873H44.6793C44.702 35.0873 44.7227 35.108 44.7227 35.1309V37.454Z" fill="white"/>
</svg>
