<?xml version="1.0" encoding="utf-8"?>
<!-- Generator: Adobe Illustrator 24.0.2, SVG Export Plug-In . SVG Version: 6.00 Build 0)  -->
<svg version="1.1" id="Layer_1" xmlns="http://www.w3.org/2000/svg" xmlns:xlink="http://www.w3.org/1999/xlink" x="0px" y="0px"
	 viewBox="0 0 55 55" style="enable-background:new 0 0 55 55;" xml:space="preserve">
<style type="text/css">
	.st0{fill:#845CDA;}
	.st1{fill-rule:evenodd;clip-rule:evenodd;fill:#FFFFFF;}
</style>
<path class="st0" d="M10,0h35c5.5,0,10,4.5,10,10v35c0,5.5-4.5,10-10,10H10C4.5,55,0,50.5,0,45V10C0,4.5,4.5,0,10,0z"/>
<path class="st1" d="M27.5,15v3.6c0,0.3,0.2,0.5,0.5,0.5s0.5-0.2,0.5-0.5V15c1.1-0.2,2-1.2,2-2.5c0-1.4-1.1-2.5-2.5-2.5
	s-2.5,1.1-2.5,2.5C25.5,13.7,26.4,14.7,27.5,15z M28,11c0.8,0,1.5,0.7,1.5,1.5c0,0.8-0.7,1.5-1.5,1.5s-1.5-0.7-1.5-1.5
	C26.5,11.7,27.2,11,28,11z M33.9,27.3c0.3,0,0.5-0.2,0.5-0.5v-3.6c0-0.2-0.1-0.4-0.3-0.5l-5.9-2.2c-0.1,0-0.2,0-0.3,0l-5.9,2.2
	c-0.2,0.1-0.3,0.3-0.3,0.5v1.6c0,0.3,0.2,0.5,0.5,0.5s0.5-0.2,0.5-0.5v-0.9l4.9,1.8v6.6l-4.9-1.8v-3.4c0-0.3-0.2-0.5-0.5-0.5
	s-0.5,0.2-0.5,0.5v3.7c0,0.2,0.1,0.4,0.3,0.5l5.9,2.2l0,0c0.1,0,0.1,0,0.2,0c0.1,0,0.1,0,0.2,0l5.9-2.2c0.2-0.1,0.3-0.3,0.3-0.5
	v-1.7c0-0.3-0.2-0.5-0.5-0.5c-0.3,0-0.5,0.2-0.5,0.5v1.4l-4.9,1.8v-6.6l4.9-1.8v2.9C33.4,27,33.6,27.3,33.9,27.3z M28,24.9l-4.5-1.7
	l4.5-1.7l4.5,1.7L28,24.9z M35.5,33.8c0.6-0.4,1.3-0.7,2.1-0.7c1.9,0,3.4,1.5,3.4,3.4c0,1.9-1.5,3.4-3.4,3.4c-1.9,0-3.4-1.5-3.4-3.4
	c0-0.8,0.3-1.5,0.7-2.1l-1.2-1.2c-0.2-0.2-0.2-0.5,0-0.7s0.5-0.2,0.7,0L35.5,33.8z M35.1,36.6c0,1.4,1.1,2.5,2.5,2.5
	c1.4,0,2.5-1.1,2.5-2.5c0-1.4-1.1-2.5-2.5-2.5C36.2,34.1,35.1,35.2,35.1,36.6z M18.4,20.9c0.8,0,1.5-0.3,2.1-0.7l1.2,1.2
	c0.1,0.1,0.2,0.1,0.4,0.1c0.1,0,0.3,0,0.4-0.1c0.2-0.2,0.2-0.5,0-0.7l-1.2-1.2c0.4-0.6,0.7-1.3,0.7-2.1c0-1.9-1.5-3.4-3.4-3.4
	c-1.9,0-3.4,1.5-3.4,3.4S16.5,20.9,18.4,20.9z M18.4,15c1.4,0,2.5,1.1,2.5,2.5c0,1.4-1.1,2.5-2.5,2.5c-1.4,0-2.5-1.1-2.5-2.5
	C16,16.1,17.1,15,18.4,15z M28.5,35.5V39c1.1,0.2,2,1.2,2,2.5c0,1.4-1.1,2.5-2.5,2.5s-2.5-1.1-2.5-2.5c0-1.2,0.9-2.2,2-2.5v-3.6
	c0-0.3,0.2-0.5,0.5-0.5S28.5,35.2,28.5,35.5z M26.5,41.5c0,0.8,0.7,1.5,1.5,1.5s1.5-0.7,1.5-1.5c0-0.8-0.7-1.5-1.5-1.5
	S26.5,40.7,26.5,41.5z M42.5,24.5c-1.2,0-2.2,0.9-2.5,2h-3.6c-0.3,0-0.5,0.2-0.5,0.5s0.2,0.5,0.5,0.5H40c0.2,1.1,1.2,2,2.5,2
	c1.4,0,2.5-1.1,2.5-2.5S43.9,24.5,42.5,24.5z M42.5,28.5c-0.8,0-1.5-0.7-1.5-1.5s0.7-1.5,1.5-1.5c0.8,0,1.5,0.7,1.5,1.5
	S43.3,28.5,42.5,28.5z M19.5,27.5H16c-0.2,1.1-1.2,2-2.5,2c-1.4,0-2.5-1.1-2.5-2.5s1.1-2.5,2.5-2.5c1.2,0,2.2,0.9,2.5,2h3.6
	c0.3,0,0.5,0.2,0.5,0.5S19.8,27.5,19.5,27.5z M12,27c0,0.8,0.7,1.5,1.5,1.5c0.8,0,1.5-0.7,1.5-1.5s-0.7-1.5-1.5-1.5
	C12.7,25.5,12,26.2,12,27z M34,21.5c0.1,0,0.3,0,0.4-0.1l1.2-1.2c0.6,0.4,1.3,0.7,2.1,0.7c1.9,0,3.4-1.5,3.4-3.4
	c0-1.9-1.5-3.4-3.4-3.4c-1.9,0-3.4,1.5-3.4,3.4c0,0.8,0.3,1.5,0.7,2.1l-1.2,1.2c-0.2,0.2-0.2,0.5,0,0.7C33.7,21.5,33.8,21.5,34,21.5
	z M37.6,15c1.4,0,2.5,1.1,2.5,2.5s-1.1,2.5-2.5,2.5c-1.4,0-2.5-1.1-2.5-2.5S36.2,15,37.6,15z M20.5,33.8l1.2-1.2
	c0.2-0.2,0.5-0.2,0.7,0c0.2,0.2,0.2,0.5,0,0.7l-1.2,1.2c0.4,0.6,0.7,1.3,0.7,2.1c0,1.9-1.5,3.4-3.4,3.4c-1.9,0-3.4-1.5-3.4-3.4
	c0-1.9,1.5-3.4,3.4-3.4C19.2,33.1,19.9,33.4,20.5,33.8z M16,36.6c0,1.4,1.1,2.5,2.5,2.5s2.5-1.1,2.5-2.5c0-1.4-1.1-2.5-2.5-2.5
	S16,35.2,16,36.6z"/>
</svg>
