<?xml version="1.0" encoding="utf-8"?>
<!-- Generator: Adobe Illustrator 24.0.2, SVG Export Plug-In . SVG Version: 6.00 Build 0)  -->
<svg version="1.1" id="Layer_1" xmlns="http://www.w3.org/2000/svg" xmlns:xlink="http://www.w3.org/1999/xlink" x="0px" y="0px"
	 viewBox="0 0 55 55" style="enable-background:new 0 0 55 55;" xml:space="preserve">
<style type="text/css">
	.st0{fill:#6589E6;}
	.st1{fill-rule:evenodd;clip-rule:evenodd;fill:#FFFFFF;}
</style>
<path class="st0" d="M10,0h35c5.5,0,10,4.5,10,10v35c0,5.5-4.5,10-10,10H10C4.5,55,0,50.5,0,45V10C0,4.5,4.5,0,10,0z"/>
<path class="st1" d="M42.5,17.6c-0.1-1.1-0.8-2.1-1.8-2.5l-12.3-4.8c-0.7-0.3-1.4-0.3-2.1,0l-12.3,4.8c-1.1,0.4-1.8,1.4-1.8,2.5
	c-0.1,1.1-0.3,6.7,1.8,12.7c1,3,2.5,5.6,4.3,7.7c2.2,2.6,4.9,4.5,8.2,5.8c0.3,0.1,0.7,0.2,1,0.2c0.4,0,0.7-0.1,1-0.2
	c3.2-1.2,6-3.2,8.2-5.8c1.8-2.1,3.3-4.8,4.3-7.7C42.8,24.3,42.6,18.7,42.5,17.6z M39.8,30c-1,2.9-2.4,5.4-4.1,7.4
	c-2.1,2.5-4.7,4.3-7.8,5.5c-0.4,0.2-0.9,0.2-1.4,0c-3.1-1.2-5.7-3-7.8-5.5c-1.7-2.1-3.1-4.6-4.1-7.4c-2-5.8-1.8-11.3-1.7-12.3
	c0-0.7,0.5-1.4,1.2-1.7l12.3-4.8C26.8,11,27,11,27.3,11c0.2,0,0.5,0,0.7,0.1L40.3,16c0.7,0.3,1.2,0.9,1.2,1.7
	C41.6,18.7,41.8,24.2,39.8,30z M37.8,17.5l-9.6-3.8c-0.6-0.2-1.2-0.2-1.8,0l-9.6,3.8c-0.9,0.3-1.5,1.2-1.5,2.1
	c0,0.7-0.1,2.5,0.2,4.8c0,0.3,0.3,0.5,0.6,0.4c0.3,0,0.5-0.3,0.4-0.6c-0.3-2.3-0.2-4-0.2-4.6c0-0.5,0.4-1,0.9-1.2l9.6-3.8
	c0.3-0.1,0.7-0.1,1,0l9.6,3.8c0.5,0.2,0.8,0.7,0.9,1.2c0.1,1.1,0.5,10.6-5.4,16.5c-0.2,0.2-0.2,0.5,0,0.7c0.1,0.1,0.2,0.1,0.4,0.1
	c0.1,0,0.3,0,0.4-0.1c6.2-6.2,5.8-16.2,5.7-17.3C39.3,18.6,38.7,17.8,37.8,17.5z M27.8,39.4c1.2-0.5,2.4-1.1,3.4-1.8
	c0.2-0.2,0.5-0.1,0.7,0.1c0.2,0.2,0.1,0.5-0.1,0.7c-1.1,0.8-2.3,1.4-3.6,2c-0.3,0.1-0.6,0.2-0.9,0.2c-0.3,0-0.6-0.1-0.9-0.2
	c-6.9-2.7-9.6-8.9-10.6-13.6c-0.1-0.3,0.1-0.5,0.4-0.6c0.3-0.1,0.5,0.1,0.6,0.4c1,4.5,3.5,10.4,10,12.9
	C27.1,39.5,27.5,39.5,27.8,39.4z M27.3,19.6c-4.1,0-7.4,3.3-7.4,7.4c0,4.1,3.3,7.4,7.4,7.4c4.1,0,7.4-3.3,7.4-7.4
	C34.7,22.9,31.4,19.6,27.3,19.6z M27.3,33.4c-3.5,0-6.4-2.9-6.4-6.4s2.9-6.4,6.4-6.4s6.4,2.9,6.4,6.4S30.8,33.4,27.3,33.4z
	 M31.4,23.8c0.4,0.3,0.6,0.8,0.6,1.3c0,0.5-0.2,1-0.5,1.3l-3.9,3.9c-0.3,0.3-0.8,0.5-1.3,0.5c-0.4,0-0.8-0.1-1.2-0.4l-2-1.7
	c-0.4-0.3-0.6-0.8-0.6-1.2c0-0.5,0.1-1,0.5-1.3c0.7-0.7,1.8-0.8,2.5-0.1l0.7,0.6l2.6-2.8c0.7-0.7,1.7-0.7,2.5-0.1L31.4,23.8z
	 M26.9,29.5l3.9-3.9c0.2-0.2,0.2-0.4,0.2-0.6c0-0.2-0.1-0.4-0.3-0.6l-0.1-0.1c-0.3-0.3-0.8-0.3-1.1,0.1l-2.7,2.8
	c-0.3,0.4-0.9,0.4-1.3,0l-0.7-0.7c-0.1-0.1-0.3-0.2-0.5-0.2c-0.2,0-0.4,0.1-0.6,0.3c-0.1,0.2-0.2,0.4-0.2,0.6c0,0.2,0.1,0.4,0.3,0.5
	l2,1.7C26.1,29.8,26.6,29.8,26.9,29.5z"/>
</svg>
