<?xml version="1.0" encoding="utf-8"?>
<!-- Generator: Adobe Illustrator 24.0.2, SVG Export Plug-In . SVG Version: 6.00 Build 0)  -->
<svg version="1.1" id="Layer_1" xmlns="http://www.w3.org/2000/svg" xmlns:xlink="http://www.w3.org/1999/xlink" x="0px" y="0px"
	 viewBox="0 0 60 60" style="enable-background:new 0 0 60 60;" xml:space="preserve">
<style type="text/css">
	.st0{fill:none;}
	.st1{fill:#FFFFFF;}
</style>
<rect class="st0" width="60" height="60"/>
<path class="st1" d="M59.3,55.7l-17.1-17c3.3-4.1,5.3-9.3,5.3-14.9C47.5,10.7,36.8,0,23.7,0C10.7,0,0,10.7,0,23.7
	s10.7,23.8,23.7,23.8c5.6,0,10.8-2,14.9-5.3l17.1,17.1c0.5,0.5,1.1,0.7,1.8,0.7c0.6,0,1.3-0.2,1.8-0.7
	C60.2,58.3,60.2,56.7,59.3,55.7z M23.7,42.5C13.4,42.5,5,34.1,5,23.7C5,13.4,13.4,5,23.7,5s18.7,8.4,18.7,18.7
	C42.5,34.1,34.1,42.5,23.7,42.5z"/>
</svg>
