<?xml version="1.0" encoding="utf-8"?>
<!-- Generator: Adobe Illustrator 24.0.2, SVG Export Plug-In . SVG Version: 6.00 Build 0)  -->
<svg version="1.1" id="Layer_1" xmlns="http://www.w3.org/2000/svg" fill="#1872B1" xmlns:xlink="http://www.w3.org/1999/xlink" x="0px" y="0px"
	 viewBox="0 0 138 35" style="enable-background:new 0 0 138 35;" xml:space="preserve">
<style type="text/css">
	.st0{fill:#1872B1;}
</style>
<path class="st0" d="M3.2,34.4C1.7,34.6,0.7,34.7,0,35h69c0,0,0-6.4,0-15.5c0,1.2,0,2.4,0,3.5l0,12h69c-0.7-0.3-1.7-0.4-3.1-0.6
	c-3.7-0.4-9.9-1.2-18.2-5.8c-5.7-3.3-10.2-7.7-14.6-12.1C93.5,8.2,85.2,0,69,0c0,5.3,0,10.4,0,15.1c0-4.7,0-9.8,0-15.1
	C52.8,0,44.5,8.2,35.9,16.6C31.5,21,27,25.4,21.3,28.7C13.1,33.3,6.9,34,3.2,34.4z"/>
</svg>
