<?xml version="1.0" encoding="utf-8"?>
<!-- Generator: Adobe Illustrator 24.0.2, SVG Export Plug-In . SVG Version: 6.00 Build 0)  -->
<svg version="1.1" id="Layer_1" xmlns="http://www.w3.org/2000/svg" xmlns:xlink="http://www.w3.org/1999/xlink" x="0px" y="0px"
	 viewBox="0 0 40 41" style="enable-background:new 0 0 40 41;" xml:space="preserve">
<style type="text/css">
	.st0{fill:#00B4FD;}
	.st1{fill:#FFFFFF;}
</style>
<rect y="0.5" class="st0" width="40" height="40"/>
<path class="st1" d="M32.4,13.8c-0.9,0.4-1.9,0.7-3,0.8c1.1-0.6,1.9-1.6,2.3-2.9c-1,0.6-2.1,1-3.3,1.3c-0.9-1-2.3-1.6-3.8-1.6
	c-2.9,0-5.1,2.3-5.1,5.2c0,0.4,0,0.8,0.1,1.2c-4.3-0.2-8.1-2.3-10.6-5.4C8.6,13.1,8.3,14,8.3,15c0,1.8,0.9,3.4,2.3,4.3
	c-0.8,0-1.6-0.3-2.3-0.6c0,0,0,0,0,0.1c0,2.5,1.8,4.6,4.1,5.1c-0.4,0.1-0.9,0.2-1.4,0.2c-0.3,0-0.7,0-1-0.1c0.7,2,2.6,3.6,4.8,3.6
	c-1.8,1.4-4,2.2-6.4,2.2c-0.4,0-0.8,0-1.2-0.1c2.3,1.5,5,2.3,7.9,2.3c9.5,0,14.7-7.9,14.7-14.7c0-0.2,0-0.4,0-0.7
	C30.8,15.8,31.7,14.9,32.4,13.8z"/>
</svg>
