<?xml version="1.0" encoding="utf-8"?>
<!-- Generator: Adobe Illustrator 24.0.2, SVG Export Plug-In . SVG Version: 6.00 Build 0)  -->
<svg version="1.1" id="Layer_1" xmlns="http://www.w3.org/2000/svg" xmlns:xlink="http://www.w3.org/1999/xlink" x="0px" y="0px"
	 viewBox="0 0 60 60" style="enable-background:new 0 0 60 60;" xml:space="preserve">
<style type="text/css">
	.st0{fill:none;}
</style>
<rect class="st0" width="60" height="60"/>
<path d="M55.5,14.6c-1.9,0.9-3.9,1.4-6,1.6c2.2-1.3,3.8-3.3,4.6-5.8c-2,1.2-4.3,2-6.6,2.6c-1.9-2-4.7-3.3-7.7-3.3
	c-5.8,0-10.5,4.7-10.5,10.5c0,0.9,0.1,1.6,0.3,2.4c-8.7-0.5-16.4-4.7-21.6-11c-0.9,1.5-1.4,3.4-1.4,5.3c0,3.7,1.9,6.9,4.7,8.8
	c-1.7,0-3.3-0.5-4.8-1.3v0.1c0,5.1,3.7,9.4,8.4,10.3c-0.9,0.3-1.8,0.3-2.7,0.3c-0.7,0-1.4,0-2-0.2c1.4,4.2,5.2,7.2,9.8,7.3
	c-3.6,2.8-8.1,4.5-13,4.5c-0.9,0-1.7,0-2.5-0.2c4.6,3,10.1,4.7,16.1,4.7c19.2,0,29.8-16,29.8-29.9c0-0.4,0-0.9,0-1.4
	C52.4,18.6,54.1,16.7,55.5,14.6z"/>
</svg>
