<?xml version="1.0" encoding="utf-8"?>
<!-- Generator: Adobe Illustrator 24.0.2, SVG Export Plug-In . SVG Version: 6.00 Build 0)  -->
<svg version="1.1" id="Layer_1" xmlns="http://www.w3.org/2000/svg" xmlns:xlink="http://www.w3.org/1999/xlink" x="0px" y="0px"
	 viewBox="0 0 150 35" style="enable-background:new 0 0 150 35;" xml:space="preserve">
<style type="text/css">
	.st0{fill:#FFFFFF;}
</style>
<path class="st0" d="M50.6,1.8c-0.5,0-0.9-0.3-0.9-0.8c0-0.5,0.3-0.9,0.8-0.9c0.5,0,0.9,0.3,0.9,0.8C51.4,1.3,51.1,1.7,50.6,1.8z
	 M53.2,1.3c0-0.4-0.4-0.7-0.8-0.7c-0.4,0-0.7,0.4-0.7,0.8c0,0.4,0.4,0.7,0.8,0.7C52.9,2.1,53.2,1.7,53.2,1.3z M49.5,1.4
	c0-0.4-0.4-0.7-0.8-0.7C48.3,0.7,48,1,48,1.4c0,0.4,0.4,0.7,0.8,0.7C49.1,2.1,49.5,1.8,49.5,1.4z M54.5,2.3c0-0.4-0.3-0.6-0.7-0.6
	c-0.3,0-0.6,0.3-0.6,0.7c0,0.4,0.3,0.6,0.7,0.6C54.3,2.9,54.5,2.6,54.5,2.3z M48.1,2.6c0-0.4-0.3-0.6-0.7-0.6
	c-0.4,0-0.6,0.3-0.6,0.7c0,0.4,0.3,0.6,0.7,0.6C47.8,3.2,48.1,2.9,48.1,2.6z M55.6,3.5c0-0.3-0.3-0.6-0.6-0.6
	c-0.3,0-0.6,0.3-0.6,0.6c0,0.3,0.3,0.6,0.6,0.6C55.4,4.1,55.6,3.8,55.6,3.5z M47,3.9c0-0.3-0.3-0.6-0.6-0.6c-0.3,0-0.6,0.3-0.6,0.6
	c0,0.3,0.3,0.6,0.6,0.6C46.7,4.5,47,4.2,47,3.9z M48.5,4.6c0-0.3-0.3-0.6-0.6-0.6c-0.3,0-0.6,0.3-0.6,0.6c0,0.3,0.3,0.6,0.6,0.6
	C48.2,5.2,48.5,4.9,48.5,4.6z M56.5,4.6c0-0.3-0.3-0.5-0.5-0.5c-0.3,0-0.5,0.3-0.5,0.5c0,0.3,0.3,0.5,0.5,0.5
	C56.3,5.1,56.5,4.9,56.5,4.6z M49.8,5.6c0-0.3-0.3-0.5-0.5-0.5c-0.3,0-0.5,0.3-0.5,0.5c0,0.3,0.3,0.5,0.5,0.5
	C49.5,6.1,49.8,5.9,49.8,5.6z M55,5.1c0-0.3-0.3-0.5-0.5-0.5c-0.3,0-0.5,0.3-0.5,0.5c0,0.3,0.3,0.5,0.5,0.5C54.8,5.6,55,5.4,55,5.1z
	 M53.6,5.8c0-0.2-0.2-0.4-0.5-0.4c-0.2,0-0.4,0.2-0.4,0.5c0,0.2,0.2,0.4,0.5,0.4C53.4,6.2,53.6,6.1,53.6,5.8z M50.9,6.2
	c0-0.2-0.2-0.3-0.4-0.3c-0.2,0-0.3,0.2-0.3,0.4s0.2,0.3,0.4,0.3S50.9,6.4,50.9,6.2z M52.2,6.2c0-0.2-0.2-0.3-0.4-0.3
	c-0.2,0-0.3,0.2-0.3,0.4s0.2,0.3,0.4,0.3C52,6.6,52.2,6.4,52.2,6.2z M47.2,3.2c0.5,0.2,0.4,0.8,0.2,1.1C47.2,4.5,48.4,4.1,48,4
	c-0.5-0.1-0.2-0.8-0.1-1C48.1,2.7,46.7,3,47.2,3.2z M48.4,2c0.5,0.3,1.2,2.5,0.5,3.2c-0.6,0.7,1,0.3,0.7,0c-0.3-0.3-0.8-2.9-0.4-3.4
	C49.7,1.4,48,1.8,48.4,2z M49.9,1.5c0.4,0.4,0.9,4,0.3,4.5c-0.5,0.5,0.7,0.3,0.5,0.1c-0.2-0.2-0.4-4,0.2-4.3
	C51.5,1.4,49.6,1.2,49.9,1.5z M51.8,1.8C52.1,2.3,52,5.5,51.6,6c-0.5,0.5,0.7,0.4,0.5,0.1S51.9,2.4,52.7,2
	C53.5,1.7,51.4,1.1,51.8,1.8z M53.2,2.5c0.2,0.7,0.3,2.5-0.3,3c-0.6,0.5,0.9,0.5,0.6,0.1c-0.2-0.4,0-2.4,0.6-2.7
	C54.7,2.6,53.1,2,53.2,2.5z M54.5,3.8c0.2,0.5,0.1,0.6-0.3,0.9s0.9,0.3,0.7,0.1c-0.2-0.3-0.2-0.6,0.2-0.6
	C55.4,4.1,54.3,3.2,54.5,3.8z M50.8,34.2c0,0.5,0.4,0.9,0.9,0.8c0.5,0,0.9-0.4,0.8-0.9c0-0.5-0.4-0.9-0.9-0.8
	C51.1,33.3,50.7,33.7,50.8,34.2z M49,33.7c0,0.4,0.4,0.7,0.8,0.7c0.4,0,0.7-0.4,0.7-0.8c0-0.4-0.4-0.7-0.8-0.7
	C49.3,33,49,33.3,49,33.7z M52.7,33.7c0,0.4,0.4,0.7,0.8,0.7c0.4,0,0.7-0.4,0.7-0.8c0-0.4-0.4-0.7-0.8-0.7
	C53,32.9,52.7,33.3,52.7,33.7z M47.7,32.7c0,0.4,0.3,0.6,0.7,0.6c0.4,0,0.6-0.3,0.6-0.7c0-0.4-0.3-0.6-0.7-0.6
	C47.9,32.1,47.7,32.4,47.7,32.7z M54.1,32.5c0,0.4,0.3,0.6,0.7,0.6c0.4,0,0.6-0.3,0.6-0.7c0-0.4-0.3-0.6-0.7-0.6
	C54.4,31.8,54.1,32.1,54.1,32.5z M46.5,31.6c0,0.3,0.3,0.6,0.6,0.6c0.3,0,0.6-0.3,0.6-0.6c0-0.3-0.3-0.6-0.6-0.6
	S46.5,31.2,46.5,31.6z M55.2,31.1c0,0.3,0.3,0.6,0.6,0.6c0.3,0,0.6-0.3,0.6-0.6c0-0.3-0.3-0.6-0.6-0.6
	C55.4,30.5,55.2,30.8,55.2,31.1z M53.7,30.4c0,0.3,0.3,0.6,0.6,0.6c0.3,0,0.6-0.3,0.6-0.6c0-0.3-0.3-0.6-0.6-0.6
	S53.7,30.1,53.7,30.4z M45.7,30.4c0,0.3,0.3,0.5,0.5,0.5c0.3,0,0.5-0.3,0.5-0.5s-0.3-0.5-0.5-0.5C45.9,29.9,45.6,30.2,45.7,30.4z
	 M52.4,29.4c0,0.3,0.3,0.5,0.5,0.5c0.3,0,0.5-0.3,0.5-0.5c0-0.3-0.3-0.5-0.5-0.5C52.6,28.9,52.4,29.1,52.4,29.4z M47.1,29.9
	c0,0.3,0.3,0.5,0.5,0.5c0.3,0,0.5-0.3,0.5-0.5c0-0.3-0.3-0.5-0.5-0.5C47.4,29.4,47.1,29.6,47.1,29.9z M48.6,29.2
	c0,0.2,0.2,0.4,0.5,0.4c0.2,0,0.4-0.2,0.4-0.5c0-0.2-0.2-0.4-0.5-0.4C48.8,28.7,48.6,29,48.6,29.2z M51.3,28.8
	c0,0.2,0.2,0.3,0.4,0.3c0.2,0,0.3-0.2,0.3-0.4c0-0.2-0.2-0.3-0.4-0.3C51.5,28.4,51.3,28.6,51.3,28.8z M50,28.8
	c0,0.2,0.2,0.3,0.4,0.3s0.3-0.2,0.3-0.4c0-0.2-0.2-0.3-0.4-0.3C50.1,28.4,50,28.6,50,28.8z M55,31.8c-0.5-0.2-0.4-0.8-0.2-1.1
	c0.2-0.3-1.1,0.1-0.6,0.2c0.5,0.1,0.2,0.8,0.1,1S55.4,32,55,31.8z M53.8,33c-0.5-0.3-1.2-2.5-0.5-3.2c0.6-0.6-1-0.3-0.7,0
	c0.3,0.3,0.8,2.9,0.4,3.4C52.5,33.6,54.1,33.2,53.8,33z M52.2,33.5c-0.4-0.4-0.9-4-0.3-4.5c0.5-0.5-0.7-0.3-0.5-0.1
	c0.2,0.2,0.4,4-0.2,4.3C50.7,33.6,52.6,33.8,52.2,33.5z M50.3,33.2c-0.3-0.5-0.2-3.7,0.2-4.2c0.5-0.5-0.7-0.4-0.5-0.1
	c0.2,0.3,0.2,3.7-0.6,4.1C48.7,33.4,50.8,33.9,50.3,33.2z M48.9,32.5c-0.2-0.7-0.3-2.5,0.3-3c0.6-0.5-0.9-0.5-0.6-0.1
	c0.2,0.4,0,2.4-0.6,2.7C47.4,32.4,49.1,33,48.9,32.5z M47.7,31.2c-0.2-0.5-0.1-0.6,0.3-0.9c0.4-0.3-0.9-0.3-0.7-0.1
	c0.2,0.3,0.2,0.6-0.2,0.6C46.7,31,47.9,31.8,47.7,31.2z M34.5,17.2c-0.5,0-0.9,0.4-0.8,0.9c0,0.5,0.4,0.9,0.9,0.8
	c0.5,0,0.9-0.4,0.8-0.9C35.3,17.5,35,17.2,34.5,17.2z M35,15.4c-0.4,0-0.7,0.4-0.7,0.8c0,0.4,0.4,0.7,0.8,0.7c0.4,0,0.7-0.4,0.7-0.8
	C35.7,15.7,35.3,15.4,35,15.4z M35,19.1c-0.4,0-0.7,0.4-0.7,0.8c0,0.4,0.4,0.7,0.8,0.7c0.4,0,0.7-0.4,0.7-0.8
	C35.7,19.5,35.4,19.1,35,19.1z M35.9,14.1c-0.4,0-0.6,0.3-0.6,0.7c0,0.4,0.3,0.6,0.7,0.6c0.4,0,0.6-0.3,0.6-0.7
	C36.6,14.3,36.3,14.1,35.9,14.1z M36.2,20.5c-0.4,0-0.6,0.3-0.6,0.7c0,0.3,0.3,0.6,0.7,0.6c0.4,0,0.6-0.3,0.6-0.7
	C36.8,20.8,36.5,20.5,36.2,20.5z M37.1,13c-0.3,0-0.6,0.3-0.6,0.6c0,0.3,0.3,0.6,0.6,0.6c0.3,0,0.6-0.3,0.6-0.6
	C37.7,13.2,37.4,12.9,37.1,13z M37.5,21.6c-0.3,0-0.6,0.3-0.6,0.6c0,0.3,0.3,0.6,0.6,0.6c0.3,0,0.6-0.3,0.6-0.6
	C38.1,21.9,37.8,21.6,37.5,21.6z M38.2,20.1c-0.3,0-0.6,0.3-0.6,0.6c0,0.3,0.3,0.6,0.6,0.6c0.3,0,0.6-0.3,0.6-0.6
	C38.8,20.4,38.5,20.1,38.2,20.1z M38.2,12.1c-0.3,0-0.5,0.3-0.5,0.5c0,0.3,0.3,0.5,0.5,0.5c0.3,0,0.5-0.3,0.5-0.5
	C38.7,12.3,38.5,12,38.2,12.1z M39.2,18.8c-0.3,0-0.5,0.3-0.5,0.5c0,0.3,0.3,0.5,0.5,0.5c0.3,0,0.5-0.3,0.5-0.5
	C39.7,19.1,39.5,18.8,39.2,18.8z M38.7,13.6c-0.3,0-0.5,0.3-0.5,0.5c0,0.3,0.3,0.5,0.5,0.5c0.3,0,0.5-0.3,0.5-0.5
	C39.2,13.8,39,13.5,38.7,13.6z M39.4,15c-0.2,0-0.4,0.2-0.4,0.5s0.2,0.4,0.5,0.4c0.2,0,0.4-0.2,0.4-0.5C39.9,15.2,39.7,15,39.4,15z
	 M39.8,17.7c-0.2,0-0.3,0.2-0.3,0.4c0,0.2,0.2,0.3,0.4,0.3s0.3-0.2,0.3-0.4C40.2,17.9,40,17.7,39.8,17.7z M39.8,16.4
	c-0.2,0-0.3,0.2-0.3,0.4c0,0.2,0.2,0.3,0.4,0.3s0.3-0.2,0.3-0.4C40.2,16.6,40,16.4,39.8,16.4z M36.8,21.4c0.2-0.5,0.8-0.4,1.1-0.2
	c0.3,0.2-0.1-1.1-0.2-0.6s-0.8,0.2-1,0.1C36.4,20.5,36.7,21.9,36.8,21.4z M35.7,20.2c0.3-0.5,2.5-1.2,3.2-0.5c0.6,0.6,0.3-1,0-0.7
	c-0.3,0.3-2.9,0.8-3.3,0.4C35,18.9,35.4,20.6,35.7,20.2z M35.2,18.7c0.4-0.4,4-0.9,4.4-0.3c0.5,0.5,0.3-0.7,0.1-0.5
	c-0.2,0.2-4,0.4-4.3-0.2C35,17.1,34.8,19,35.2,18.7z M35.4,16.7c0.5-0.3,3.7-0.2,4.2,0.2c0.5,0.5,0.4-0.7,0.1-0.5s-3.7,0.2-4-0.6
	C35.3,15.1,34.7,17.2,35.4,16.7z M36.1,15.4c0.7-0.2,2.5-0.3,3,0.3c0.5,0.6,0.5-0.9,0.1-0.6c-0.4,0.2-2.4,0-2.6-0.6
	C36.3,13.9,35.6,15.5,36.1,15.4z M37.4,14.1c0.5-0.2,0.6-0.1,0.9,0.3c0.3,0.4,0.3-0.9,0.1-0.7c-0.3,0.2-0.6,0.2-0.6-0.2
	C37.7,13.1,36.9,14.3,37.4,14.1z M67.7,17.8c0.5,0,0.9-0.4,0.8-0.9c0-0.5-0.4-0.9-0.9-0.8c-0.5,0-0.9,0.4-0.8,0.9
	C66.8,17.5,67.2,17.9,67.7,17.8z M67.2,19.6c0.4,0,0.7-0.4,0.7-0.8c0-0.4-0.4-0.7-0.8-0.7c-0.4,0-0.7,0.4-0.7,0.8
	C66.5,19.3,66.8,19.6,67.2,19.6z M67.2,15.9c0.4,0,0.7-0.4,0.7-0.8c0-0.4-0.4-0.7-0.8-0.7c-0.4,0-0.7,0.4-0.7,0.8
	C66.4,15.6,66.8,15.9,67.2,15.9z M66.3,20.9c0.4,0,0.6-0.3,0.6-0.7c0-0.4-0.3-0.6-0.7-0.6c-0.4,0-0.6,0.3-0.6,0.7
	C65.6,20.7,65.9,20.9,66.3,20.9z M66,14.5c0.4,0,0.6-0.3,0.6-0.7c0-0.4-0.3-0.6-0.7-0.6c-0.4,0-0.6,0.3-0.6,0.7
	C65.3,14.2,65.6,14.5,66,14.5z M65.1,22c0.3,0,0.6-0.3,0.6-0.6c0-0.3-0.3-0.6-0.6-0.6c-0.3,0-0.6,0.3-0.6,0.6
	C64.4,21.8,64.7,22.1,65.1,22z M64.7,13.4c0.3,0,0.6-0.3,0.6-0.6c0-0.3-0.3-0.6-0.6-0.6c-0.3,0-0.6,0.3-0.6,0.6
	C64,13.1,64.3,13.4,64.7,13.4z M64,14.9c0.3,0,0.6-0.3,0.6-0.6c0-0.3-0.3-0.6-0.6-0.6c-0.3,0-0.6,0.3-0.6,0.6
	C63.3,14.7,63.6,14.9,64,14.9z M64,23c0.3,0,0.5-0.3,0.5-0.5c0-0.3-0.3-0.5-0.5-0.5c-0.3,0-0.5,0.3-0.5,0.5C63.4,22.7,63.7,23,64,23
	z M63,16.2c0.3,0,0.5-0.3,0.5-0.5c0-0.3-0.3-0.5-0.5-0.5c-0.3,0-0.5,0.3-0.5,0.5C62.4,16,62.7,16.2,63,16.2z M63.5,21.4
	c0.3,0,0.5-0.3,0.5-0.5c0-0.3-0.3-0.5-0.5-0.5c-0.3,0-0.5,0.3-0.5,0.5C63,21.2,63.2,21.5,63.5,21.4z M62.7,20c0.2,0,0.4-0.2,0.4-0.5
	s-0.2-0.4-0.5-0.4c-0.2,0-0.4,0.2-0.4,0.5C62.3,19.8,62.5,20,62.7,20z M62.3,17.3c0.2,0,0.3-0.2,0.3-0.4c0-0.2-0.2-0.3-0.4-0.3
	s-0.3,0.2-0.3,0.4C61.9,17.1,62.1,17.3,62.3,17.3z M62.3,18.6c0.2,0,0.3-0.2,0.3-0.4c0-0.2-0.2-0.3-0.4-0.3s-0.3,0.2-0.3,0.4
	C61.9,18.4,62.1,18.6,62.3,18.6z M65.3,13.6c-0.2,0.5-0.8,0.4-1.1,0.2c-0.3-0.2,0.1,1.1,0.2,0.6c0.1-0.5,0.8-0.2,1-0.1
	C65.8,14.5,65.5,13.1,65.3,13.6z M66.5,14.8c-0.3,0.5-2.5,1.2-3.2,0.5c-0.6-0.6-0.3,1,0,0.7c0.3-0.3,2.9-0.8,3.3-0.4
	C67.1,16.1,66.8,14.4,66.5,14.8z M67,16.4c-0.4,0.4-4,0.9-4.4,0.3c-0.5-0.5-0.3,0.7-0.1,0.5c0.2-0.2,4-0.4,4.3,0.2
	C67.1,17.9,67.4,16,67,16.4z M66.8,18.3c-0.5,0.3-3.7,0.2-4.2-0.2s-0.4,0.7-0.1,0.5c0.3-0.2,3.7-0.2,4,0.6
	C66.9,19.9,67.4,17.8,66.8,18.3z M66.1,19.7c-0.7,0.2-2.5,0.3-3-0.3c-0.5-0.6-0.5,0.9-0.1,0.6c0.4-0.2,2.4,0,2.6,0.6
	C65.9,21.2,66.6,19.5,66.1,19.7z M64.8,20.9c-0.5,0.2-0.6,0.1-0.9-0.3c-0.3-0.4-0.3,0.9-0.1,0.7c0.3-0.2,0.6-0.2,0.6,0.2
	C64.5,21.9,65.3,20.7,64.8,20.9z M63,5.9C63.3,5.6,63.3,5,63,4.7c-0.4-0.3-0.9-0.3-1.2,0.1c-0.3,0.4-0.3,0.9,0.1,1.2
	C62.2,6.3,62.7,6.3,63,5.9z M64,7.5c0.3-0.3,0.2-0.8-0.1-1c-0.3-0.3-0.8-0.2-1,0.1c-0.3,0.3-0.2,0.8,0.1,1C63.2,7.9,63.7,7.8,64,7.5
	z M61.3,4.9c0.3-0.3,0.2-0.8-0.1-1c-0.3-0.3-0.8-0.2-1,0.1c-0.3,0.3-0.2,0.8,0.1,1C60.6,5.2,61,5.2,61.3,4.9z M64.2,9.1
	c0.2-0.3,0.2-0.7-0.1-0.9C63.9,8,63.5,8,63.3,8.3C63,8.6,63,9,63.3,9.2C63.6,9.5,64,9.4,64.2,9.1z M59.5,4.8
	c0.2-0.3,0.2-0.7-0.1-0.9c-0.3-0.2-0.7-0.2-0.9,0.1c-0.2,0.3-0.2,0.7,0.1,0.9C58.8,5.1,59.2,5.1,59.5,4.8z M64.2,10.8
	c0.2-0.2,0.2-0.6-0.1-0.9c-0.2-0.2-0.6-0.2-0.9,0.1c-0.2,0.2-0.2,0.6,0.1,0.9C63.6,11.1,64,11,64.2,10.8z M57.8,5
	C58,4.7,58,4.3,57.7,4.1c-0.2-0.2-0.6-0.2-0.9,0.1c-0.2,0.2-0.2,0.6,0.1,0.9C57.2,5.2,57.6,5.2,57.8,5z M58.4,6.5
	c0.2-0.2,0.2-0.6-0.1-0.9c-0.2-0.2-0.6-0.2-0.9,0.1c-0.2,0.2-0.2,0.6,0.1,0.9C57.8,6.8,58.1,6.8,58.4,6.5z M64,12.2
	c0.2-0.2,0.2-0.5,0-0.7c-0.2-0.2-0.5-0.2-0.7,0c-0.2,0.2-0.2,0.5,0,0.7C63.5,12.4,63.8,12.4,64,12.2z M58.5,8.1
	c0.2-0.2,0.2-0.5,0-0.7c-0.2-0.2-0.5-0.2-0.7,0c-0.2,0.2-0.2,0.5,0,0.7C58,8.4,58.4,8.4,58.5,8.1z M62.6,11.5c0.2-0.2,0.2-0.5,0-0.7
	c-0.2-0.2-0.5-0.2-0.7,0c-0.2,0.2-0.2,0.5,0,0.7C62.1,11.7,62.4,11.7,62.6,11.5z M61.1,11c0.2-0.2,0.2-0.5,0-0.6
	c-0.2-0.2-0.5-0.2-0.6,0c-0.2,0.2-0.2,0.5,0,0.6C60.6,11.2,60.9,11.2,61.1,11z M58.8,9.4C59,9.2,59,9,58.8,8.9
	c-0.2-0.1-0.4-0.1-0.5,0c-0.1,0.2-0.1,0.4,0,0.5C58.5,9.5,58.7,9.5,58.8,9.4z M59.8,10.3c0.1-0.2,0.1-0.4,0-0.5
	c-0.2-0.1-0.4-0.1-0.5,0c-0.1,0.2-0.1,0.4,0,0.5C59.5,10.5,59.7,10.5,59.8,10.3z M58.4,4.7c0.2,0.5-0.3,0.8-0.6,0.9
	c-0.3,0.1,0.9,0.7,0.6,0.2C58.1,5.3,58.8,5,59.1,5C59.4,4.9,58.2,4.2,58.4,4.7z M60.1,4.7c0.1,0.5-0.9,2.6-1.9,2.6
	c-0.9,0,0.5,1,0.5,0.5c0-0.5,1.5-2.6,2.1-2.6C61.4,5.1,60,4.2,60.1,4.7z M61.6,5.4c0,0.6-2.2,3.4-2.9,3.4c-0.7,0,0.3,0.7,0.3,0.4
	c0-0.3,2.6-3.1,3.2-3C62.7,6.4,61.6,4.9,61.6,5.4z M62.7,6.9c-0.2,0.6-2.5,2.7-3.1,2.8c-0.7,0,0.2,0.8,0.3,0.5
	c0.1-0.4,2.5-2.7,3.3-2.5C63.9,8,62.9,6.1,62.7,6.9z M63.2,8.4c-0.4,0.6-1.6,2-2.3,1.9c-0.8-0.1,0.2,1,0.3,0.5
	c0.1-0.5,1.6-1.7,2.3-1.5C64.1,9.6,63.5,7.9,63.2,8.4z M63.2,10.2c-0.2,0.5-0.4,0.5-0.9,0.5s0.4,0.9,0.5,0.5c0-0.4,0.2-0.6,0.6-0.3
	C63.6,11.1,63.4,9.7,63.2,10.2z M39.1,29.1c-0.3,0.4-0.3,0.9,0.1,1.2c0.4,0.3,0.9,0.3,1.2-0.1c0.3-0.4,0.3-0.9-0.1-1.2
	C40,28.7,39.4,28.7,39.1,29.1z M38.2,27.5c-0.3,0.3-0.2,0.8,0.1,1c0.3,0.3,0.8,0.2,1-0.1c0.3-0.3,0.2-0.8-0.1-1
	C38.9,27.2,38.5,27.2,38.2,27.5z M40.8,30.1c-0.3,0.3-0.2,0.8,0.1,1c0.3,0.3,0.8,0.2,1-0.1c0.3-0.3,0.2-0.8-0.1-1
	C41.6,29.8,41.1,29.8,40.8,30.1z M37.9,25.9c-0.2,0.3-0.2,0.7,0.1,0.9c0.3,0.2,0.7,0.2,0.9-0.1c0.2-0.3,0.2-0.7-0.1-0.9
	C38.6,25.6,38.2,25.6,37.9,25.9z M42.7,30.2c-0.2,0.3-0.2,0.7,0.1,0.9c0.3,0.2,0.7,0.2,0.9-0.1c0.2-0.3,0.2-0.7-0.1-0.9
	C43.3,29.9,42.9,30,42.7,30.2z M38,24.2c-0.2,0.2-0.2,0.6,0.1,0.9c0.2,0.2,0.6,0.2,0.9-0.1c0.2-0.2,0.2-0.6-0.1-0.9
	C38.6,23.9,38.2,24,38,24.2z M44.4,30.1c-0.2,0.2-0.2,0.6,0.1,0.9c0.2,0.2,0.6,0.2,0.9-0.1c0.2-0.3,0.2-0.6-0.1-0.9
	C45,29.8,44.6,29.8,44.4,30.1z M43.8,28.5c-0.2,0.2-0.2,0.6,0.1,0.9c0.2,0.2,0.6,0.2,0.9-0.1c0.2-0.2,0.2-0.6-0.1-0.9
	C44.4,28.2,44,28.2,43.8,28.5z M38.1,22.8c-0.2,0.2-0.2,0.5,0,0.7c0.2,0.2,0.5,0.2,0.7,0s0.2-0.5,0-0.7
	C38.6,22.6,38.3,22.6,38.1,22.8z M43.6,26.9c-0.2,0.2-0.2,0.5,0,0.7c0.2,0.2,0.5,0.2,0.7,0s0.2-0.5,0-0.7
	C44.1,26.6,43.8,26.7,43.6,26.9z M39.5,23.5c-0.2,0.2-0.2,0.5,0,0.7c0.2,0.2,0.5,0.2,0.7,0c0.2-0.2,0.2-0.5,0-0.7
	C40.1,23.3,39.7,23.3,39.5,23.5z M41.1,24c-0.2,0.2-0.2,0.5,0,0.6c0.2,0.2,0.5,0.2,0.6,0c0.2-0.2,0.2-0.5,0-0.6
	C41.5,23.8,41.2,23.8,41.1,24z M43.3,25.6c-0.1,0.2-0.1,0.4,0,0.5c0.2,0.1,0.4,0.1,0.5,0c0.1-0.2,0.1-0.4,0-0.5
	C43.6,25.5,43.4,25.5,43.3,25.6z M42.4,24.7c-0.1,0.2-0.1,0.4,0,0.5c0.2,0.1,0.4,0.1,0.5,0c0.1-0.2,0.1-0.4,0-0.5
	C42.7,24.5,42.5,24.6,42.4,24.7z M43.7,30.4c-0.2-0.5,0.3-0.8,0.6-0.9c0.3-0.1-0.9-0.7-0.6-0.2c0.2,0.4-0.4,0.7-0.7,0.8
	C42.8,30.1,43.9,30.8,43.7,30.4z M42.1,30.4c-0.1-0.5,0.9-2.6,1.9-2.6c0.9,0-0.5-1-0.5-0.5c0,0.5-1.5,2.6-2.1,2.6
	C40.7,29.9,42.2,30.8,42.1,30.4z M40.6,29.6c0-0.6,2.2-3.4,2.9-3.4c0.7,0-0.3-0.7-0.3-0.4c0,0.3-2.6,3.1-3.2,3
	C39.4,28.6,40.6,30.1,40.6,29.6z M39.5,28.1c0.2-0.6,2.5-2.7,3.1-2.8c0.7,0-0.2-0.8-0.3-0.5c-0.1,0.4-2.5,2.7-3.3,2.5
	C38.2,27,39.3,28.9,39.5,28.1z M39,26.6c0.4-0.6,1.6-2,2.3-1.9c0.8,0.1-0.2-1-0.3-0.5c-0.1,0.5-1.6,1.7-2.3,1.5
	C38,25.5,38.7,27.1,39,26.6z M39,24.8c0.2-0.5,0.4-0.5,0.9-0.5c0.5,0-0.4-0.9-0.5-0.5c0,0.4-0.2,0.6-0.6,0.3
	C38.5,23.9,38.8,25.3,39,24.8z M39.6,5.5c-0.4-0.3-0.9-0.3-1.2,0.1c-0.3,0.4-0.3,0.9,0.1,1.2c0.4,0.3,0.9,0.3,1.2-0.1
	C40,6.4,39.9,5.8,39.6,5.5z M41.1,4.6c-0.3-0.3-0.8-0.2-1,0.1c-0.3,0.3-0.2,0.8,0.1,1c0.3,0.3,0.8,0.2,1-0.1
	C41.5,5.3,41.4,4.9,41.1,4.6z M38.5,7.3c-0.3-0.3-0.8-0.2-1,0.1s-0.2,0.8,0.1,1c0.3,0.3,0.8,0.2,1-0.1C38.9,8,38.8,7.5,38.5,7.3z
	 M42.8,4.3c-0.3-0.2-0.7-0.2-0.9,0.1c-0.2,0.3-0.2,0.7,0.1,0.9c0.3,0.2,0.7,0.2,0.9-0.1C43,5,43,4.5,42.8,4.3z M38.4,9.1
	c-0.3-0.2-0.7-0.2-0.9,0.1c-0.2,0.3-0.2,0.7,0.1,0.9c0.3,0.2,0.7,0.2,0.9-0.1C38.7,9.7,38.7,9.3,38.4,9.1z M44.4,4.4
	c-0.2-0.2-0.6-0.2-0.9,0.1c-0.2,0.2-0.2,0.6,0.1,0.9c0.2,0.2,0.6,0.2,0.9-0.1C44.7,5,44.6,4.6,44.4,4.4z M38.6,10.8
	c-0.2-0.2-0.6-0.2-0.9,0.1c-0.2,0.2-0.2,0.6,0.1,0.9c0.2,0.2,0.6,0.2,0.9-0.1C38.8,11.4,38.8,11,38.6,10.8z M40.1,10.2
	c-0.2-0.2-0.6-0.2-0.9,0.1c-0.2,0.2-0.2,0.6,0.1,0.9c0.2,0.2,0.6,0.2,0.9-0.1C40.4,10.8,40.4,10.5,40.1,10.2z M45.8,4.5
	c-0.2-0.2-0.5-0.2-0.7,0c-0.2,0.2-0.2,0.5,0,0.7c0.2,0.2,0.5,0.2,0.7,0C46,5,46,4.7,45.8,4.5z M41.7,10c-0.2-0.2-0.5-0.2-0.7,0
	c-0.2,0.2-0.2,0.5,0,0.7c0.2,0.2,0.5,0.2,0.7,0C42,10.5,41.9,10.2,41.7,10z M45.1,5.9c-0.2-0.2-0.5-0.2-0.7,0
	c-0.2,0.2-0.2,0.5,0,0.7c0.2,0.2,0.5,0.2,0.7,0C45.3,6.5,45.3,6.1,45.1,5.9z M44.6,7.5c-0.2-0.2-0.5-0.2-0.6,0
	c-0.2,0.2-0.2,0.5,0,0.6c0.2,0.2,0.5,0.2,0.6,0C44.8,7.9,44.8,7.6,44.6,7.5z M43,9.7c-0.2-0.1-0.4-0.1-0.5,0c-0.1,0.2-0.1,0.4,0,0.5
	c0.2,0.1,0.4,0.1,0.5,0C43.1,10.1,43.1,9.8,43,9.7z M43.9,8.8c-0.2-0.1-0.4-0.1-0.5,0c-0.1,0.2-0.1,0.4,0,0.5c0.2,0.1,0.4,0.1,0.5,0
	C44.1,9.1,44,8.9,43.9,8.8z M38.3,10.2c0.5-0.2,0.8,0.3,0.9,0.6c0.1,0.3,0.7-0.9,0.2-0.6c-0.4,0.2-0.7-0.4-0.8-0.7
	C38.5,9.2,37.8,10.4,38.3,10.2z M38.3,8.5c0.5-0.1,2.6,0.9,2.6,1.9c0,0.9,1-0.5,0.5-0.5c-0.5,0-2.6-1.5-2.6-2.1
	C38.7,7.1,37.8,8.6,38.3,8.5z M39,7c0.6,0,3.4,2.2,3.4,2.9c0,0.7,0.7-0.3,0.4-0.3c-0.3,0-3.1-2.6-2.9-3.2C40,5.8,38.5,7,39,7z
	 M40.5,5.9C41.1,6,43.3,8.3,43.3,9c0,0.7,0.8-0.2,0.5-0.3c-0.4-0.1-2.7-2.5-2.5-3.3C41.6,4.6,39.8,5.7,40.5,5.9z M42,5.4
	c0.6,0.4,1.9,1.6,1.9,2.3c-0.1,0.8,1-0.2,0.5-0.3c-0.5-0.1-1.7-1.6-1.5-2.3C43.2,4.4,41.5,5.1,42,5.4z M43.8,5.4
	c0.5,0.2,0.5,0.4,0.5,0.9s0.9-0.4,0.5-0.5c-0.4,0-0.6-0.2-0.3-0.6C44.7,4.9,43.3,5.2,43.8,5.4z M62.6,29.5c0.4,0.3,0.9,0.3,1.2-0.1
	c0.3-0.4,0.3-0.9-0.1-1.2c-0.4-0.3-0.9-0.3-1.2,0.1C62.2,28.7,62.3,29.2,62.6,29.5z M61,30.4c0.3,0.3,0.8,0.2,1-0.1
	c0.3-0.3,0.2-0.8-0.1-1c-0.3-0.3-0.8-0.2-1,0.1C60.7,29.7,60.7,30.2,61,30.4z M63.6,27.7c0.3,0.3,0.8,0.2,1-0.1
	c0.3-0.3,0.2-0.8-0.1-1c-0.3-0.3-0.8-0.2-1,0.1C63.3,27,63.3,27.5,63.6,27.7z M59.4,30.7c0.3,0.2,0.7,0.2,0.9-0.1
	c0.2-0.3,0.2-0.7-0.1-0.9c-0.3-0.2-0.7-0.2-0.9,0.1C59.1,30.1,59.2,30.5,59.4,30.7z M63.8,25.9c0.3,0.2,0.7,0.2,0.9-0.1
	c0.2-0.3,0.2-0.7-0.1-0.9c-0.3-0.2-0.7-0.2-0.9,0.1C63.5,25.3,63.5,25.7,63.8,25.9z M57.8,30.6c0.2,0.2,0.6,0.2,0.9-0.1
	c0.2-0.2,0.2-0.6-0.1-0.9c-0.2-0.2-0.6-0.2-0.9,0.1C57.5,30,57.5,30.4,57.8,30.6z M63.6,24.2c0.2,0.2,0.6,0.2,0.9-0.1
	c0.2-0.2,0.2-0.6-0.1-0.9c-0.2-0.2-0.6-0.2-0.9,0.1C63.3,23.6,63.3,24,63.6,24.2z M62,24.8c0.2,0.2,0.6,0.2,0.9-0.1
	c0.2-0.2,0.2-0.6-0.1-0.9c-0.2-0.2-0.6-0.2-0.9,0.1C61.8,24.2,61.8,24.6,62,24.8z M56.4,30.5c0.2,0.2,0.5,0.2,0.7,0
	c0.2-0.2,0.2-0.5,0-0.7s-0.5-0.2-0.7,0C56.1,30,56.1,30.3,56.4,30.5z M60.4,25c0.2,0.2,0.5,0.2,0.7,0c0.2-0.2,0.2-0.5,0-0.7
	c-0.2-0.2-0.5-0.2-0.7,0C60.2,24.5,60.2,24.8,60.4,25z M57.1,29.1c0.2,0.2,0.5,0.2,0.7,0s0.2-0.5,0-0.7c-0.2-0.2-0.5-0.2-0.7,0
	S56.8,28.9,57.1,29.1z M57.6,27.6c0.2,0.2,0.5,0.2,0.6,0c0.2-0.2,0.2-0.5,0-0.6c-0.2-0.2-0.5-0.2-0.6,0
	C57.4,27.1,57.4,27.4,57.6,27.6z M59.2,25.3c0.2,0.1,0.4,0.1,0.5,0c0.1-0.2,0.1-0.4,0-0.5c-0.2-0.1-0.4-0.1-0.5,0
	C59,24.9,59.1,25.2,59.2,25.3z M58.3,26.2c0.2,0.1,0.4,0.1,0.5,0c0.1-0.2,0.1-0.4,0-0.5s-0.4-0.1-0.5,0
	C58.1,25.9,58.1,26.1,58.3,26.2z M63.9,24.9c-0.5,0.2-0.8-0.3-0.9-0.6c-0.1-0.3-0.7,0.9-0.2,0.6c0.4-0.2,0.7,0.4,0.8,0.7
	C63.6,25.8,64.3,24.7,63.9,24.9z M63.9,26.5c-0.5,0.1-2.6-0.9-2.6-1.9c0-0.9-1,0.5-0.5,0.5c0.5,0,2.6,1.5,2.6,2.1
	C63.4,27.9,64.3,26.4,63.9,26.5z M63.1,28c-0.6,0-3.4-2.2-3.4-2.9c0-0.7-0.7,0.3-0.4,0.3c0.3,0,3.1,2.6,2.9,3.2
	C62.2,29.2,63.6,28,63.1,28z M61.6,29.1C61,29,58.9,26.7,58.8,26c0-0.7-0.8,0.2-0.5,0.3c0.4,0.1,2.7,2.5,2.5,3.3
	C60.5,30.4,62.4,29.3,61.6,29.1z M60.2,29.7c-0.6-0.4-1.9-1.6-1.9-2.3c0.1-0.8-1,0.2-0.5,0.3c0.5,0.1,1.7,1.6,1.5,2.3
	C59,30.6,60.6,29.9,60.2,29.7z M58.4,29.6c-0.5-0.2-0.5-0.4-0.5-0.9c0-0.5-0.9,0.4-0.5,0.5c0.4,0,0.6,0.2,0.3,0.6
	C57.5,30.1,58.9,29.8,58.4,29.6z M26.5,11.1c-1.1-2-2.2-3.3-4-4.6c-2.3-1.6-5.2-2.6-8-2.6C7,3.9,1,9.9,1,17.4
	c0,7.4,6,13.7,13.4,13.7c5,0,9.4-2.6,11.9-7h-4.7c-1.8,2.1-4.4,3.4-7.1,3.4c-5.4,0-9.7-4.8-9.7-10.2c0-5.5,4.2-10,9.7-10
	c3.1,0,5.4,1.4,7.4,3.7H26.5z M34,30.6v-4.3h-3.7v4.3H34z M71.6,31.1h3.7v-12h5.9c1.7,0,3.2-0.2,4.3-0.7c1.1-0.5,2-1.1,2.7-1.8
	c0.6-0.7,1.1-1.6,1.4-2.5c0.2-0.9,0.4-1.8,0.4-2.6c0-0.9-0.1-1.7-0.4-2.7c-0.2-0.9-0.7-1.7-1.4-2.5c-0.6-0.7-1.6-1.3-2.7-1.8
	c-1.1-0.5-2.6-0.7-4.3-0.7h-9.5V31.1z M75.3,7.1h4.8c0.7,0,1.4,0.1,2.1,0.2c0.7,0.1,1.3,0.3,1.9,0.6c0.5,0.3,1,0.8,1.3,1.3
	c0.3,0.6,0.5,1.3,0.5,2.3s-0.2,1.7-0.5,2.3c-0.3,0.6-0.8,1-1.3,1.3c-0.5,0.3-1.2,0.5-1.9,0.6c-0.7,0.1-1.4,0.2-2.1,0.2h-4.8V7.1z
	 M94.4,31.1h18.2v-3.4H98v-8.7h12.9v-3.5H98V7.3h13.9V3.9H94.4L94.4,31.1L94.4,31.1z M114.8,11.5h7.9V9.4h-5l3.4-3
	c0.2-0.2,0.4-0.4,0.6-0.6c0.2-0.2,0.3-0.4,0.5-0.7c0.1-0.2,0.2-0.5,0.3-0.8c0.1-0.3,0.1-0.6,0.1-1c0-0.6-0.1-1.1-0.3-1.5
	c-0.2-0.4-0.5-0.8-0.8-1.1c-0.3-0.3-0.7-0.5-1.2-0.6C119.9,0.1,119.5,0,119,0c-0.5,0-1.1,0.1-1.6,0.2c-0.5,0.2-0.9,0.4-1.2,0.6
	c-0.4,0.3-0.6,0.6-0.9,1.1c-0.2,0.4-0.3,0.9-0.4,1.5l2.4,0.2c0-0.4,0.2-0.8,0.4-1c0.2-0.3,0.6-0.4,1-0.4c0.4,0,0.7,0.1,1,0.3
	c0.3,0.2,0.4,0.5,0.4,0.9c0,0.3-0.1,0.6-0.3,0.9c-0.2,0.2-0.5,0.5-0.7,0.7l-4.4,4L114.8,11.5L114.8,11.5z M125.9,31.1h3.7V8.7h0.1
	l15.1,22.4h4.7V3.9h-3.7v22.4h-0.1l-15-22.4h-4.8V31.1z"/>
<path class="st0" d="M50.9,8.3L50.9,8.3l3.4,2.5l3.1,0L50.9,8.3L50.9,8.3L50.9,8.3L50.9,8.3l6.5,2.5l-3,0L50.9,8.3L50.9,8.3
	L50.9,8.3z"/>
<path class="st0" d="M60.5,15.5l-2.8-2.2l-0.2-2.5L60.5,15.5l-3.1-4.8l0.2,2.6L60.5,15.5L60.5,15.5z"/>
<path class="st0" d="M59.7,22.6L58.8,18l1.7-2.5L59.7,22.6L59.7,22.6l0.8-7.1L58.8,18L59.7,22.6L59.7,22.6z"/>
<path class="st0" d="M48.5,27.5L48.5,27.5l3.9-1.8l2,1.3L48.5,27.5L48.5,27.5L48.5,27.5L48.5,27.5l6-0.4l-2.1-1.4L48.5,27.5
	L48.5,27.5L48.5,27.5z"/>
<path class="st0" d="M59.7,22.6l-3.4,1.3l-1.9,3.3L59.7,22.6L59.7,22.6L59.7,22.6l-5.2,4.5l1.9-3.2L59.7,22.6L59.7,22.6L59.7,22.6z"
	/>
<path class="st0" d="M48.5,27.5L46,24.1l-3.3-1.2L48.5,27.5L48.5,27.5L42.8,23l3.2,1.2L48.5,27.5z"/>
<path class="st0" d="M41.6,15.8L41.6,15.8l2,3.4l-0.9,3.7L41.6,15.8L41.6,15.8L41.6,15.8L41.6,15.8l1.1,7.2l0.9-3.8L41.6,15.8
	L41.6,15.8L41.6,15.8z"/>
<path class="st0" d="M50.9,8.3L50.9,8.3l-3,2.9l-3.4,0L50.9,8.3L50.9,8.3L50.9,8.3L50.9,8.3l-6.5,2.8l3.5,0L50.9,8.3L50.9,8.3
	L50.9,8.3z"/>
<path class="st0" d="M44.4,11.1L44.4,11.1L44,13.8l-2.3,1.9L44.4,11.1L44.4,11.1L44.4,11.1L44.4,11.1l-2.8,4.7l2.3-2L44.4,11.1
	L44.4,11.1L44.4,11.1z"/>
<path class="st0" d="M47.8,11.1l6.5-0.3l-3.5-2.6L47.8,11.1L47.8,11.1l3-2.9l3.4,2.5L47.8,11.1z"/>
<path class="st0" d="M43.9,13.8l-0.3,5.4l1.9-3L43.9,13.8L43.9,13.8l1.5,2.4l-1.9,3L43.9,13.8L43.9,13.8L43.9,13.8z"/>
<path class="st0" d="M45.5,16.2l5.4-3.9L50,17L45.5,16.2L45.5,16.2L45.5,16.2L50,17l0.9-4.7L45.5,16.2L45.5,16.2z"/>
<path class="st0" d="M50,17l4.9-3l0,0L50,17"/>
<path class="st0" d="M46.7,21.1l-1.2-4.9L50,17L46.7,21.1L46.7,21.1L46.7,21.1L50,17l-4.6-0.8L46.7,21.1L46.7,21.1z"/>
<path class="st0" d="M43.6,19.2l3.1,2l-1.2-5L43.6,19.2l1.9-3l1.2,4.9L43.6,19.2z"/>
<path class="st0" d="M47.8,11.1L47.8,11.1l-3.9,2.7l1.6,2.4L47.8,11.1L47.8,11.1L47.8,11.1L47.8,11.1l-2.4,5l-1.5-2.3L47.8,11.1
	L47.8,11.1L47.8,11.1z"/>
<path class="st0" d="M50.9,12.3l-3.1-1.2l-2.3,5.1L50.9,12.3L50.9,12.3l-5.4,3.9l2.3-5L50.9,12.3L50.9,12.3z"/>
<path class="st0" d="M54.3,10.8L54.3,10.8l-3.4,1.5l-3-1.2L54.3,10.8L54.3,10.8L54.3,10.8L54.3,10.8l-6.5,0.3l3.1,1.2L54.3,10.8
	L54.3,10.8L54.3,10.8z"/>
<path class="st0" d="M54.9,14L54.9,14l-4-1.7L50,17L54.9,14L54.9,14L54.9,14L54.9,14L50,17l0.9-4.6L54.9,14L54.9,14L54.9,14z"/>
<path class="st0" d="M54.3,10.8l0.5,3.2l-3.9-1.7L54.3,10.8L54.3,10.8l-3.4,1.5l4,1.7L54.3,10.8L54.3,10.8z"/>
<path class="st0" d="M57.4,10.7L54.9,14l-0.5-3.2L57.4,10.7L57.4,10.7l-3.1,0l0.5,3.3L57.4,10.7L57.4,10.7z"/>
<path class="st0" d="M46.7,21.1L46.7,21.1l-0.7,3l-2.4-4.9L46.7,21.1L46.7,21.1L46.7,21.1L46.7,21.1l-3.2-2l2.4,5L46.7,21.1z"/>
<path class="st0" d="M51.1,23L48.7,24l-1.9-2.9L51.1,23l-4.4-1.8l2,2.9L51.1,23L51.1,23z"/>
<path class="st0" d="M48.5,27.5l0.2-3.5L46,24.1L48.5,27.5L48.5,27.5L46,24.2l2.6-0.1L48.5,27.5z"/>
<path class="st0" d="M52.3,25.7l-3.6-1.7l2.4-1.1L52.3,25.7L52.3,25.7l-1.2-2.8l-2.4,1.1L52.3,25.7L52.3,25.7z"/>
<path class="st0" d="M59.7,22.6L58.8,18v0L59.7,22.6"/>
<path class="st0" d="M58.8,18L58.8,18l-1.1-4.6l2.8,2.1L58.8,18L58.8,18L58.8,18L58.8,18l1.7-2.5l-2.8-2.2L58.8,18z"/>
<path class="st0" d="M56.3,23.8L56.3,23.8L51.1,23l5.5-2.5L56.3,23.8L56.3,23.8L56.3,23.8L56.3,23.8l0.4-3.4L51.1,23L56.3,23.8
	L56.3,23.8z"/>
<path class="st0" d="M52.4,25.8l3.9-1.9l-1.9,3.2L52.4,25.8L52.4,25.8l2.1,1.3l1.9-3.3L52.4,25.8L52.4,25.8z"/>
<path class="st0" d="M58.8,18L58.8,18l-2.1,2.4l3,2.2L58.8,18L58.8,18l0.9,4.5l-3-2.1L58.8,18z"/>
<path class="st0" d="M58.8,18L58.8,18l-3.9-4l2.7-0.7L58.8,18L58.8,18L58.8,18L58.8,18l-1.1-4.7L54.9,14L58.8,18L58.8,18L58.8,18z"
	/>
<path class="st0" d="M54.9,14L54.9,14L50,17l4.9,1.2V14L54.9,14L54.9,14v4.1L50,17L54.9,14L54.9,14z"/>
<path class="st0" d="M58.8,18L58.8,18l-2.1,2.4l-1.8-2.3L58.8,18L58.8,18L58.8,18L58.8,18l-3.9,0.2l1.8,2.3L58.8,18L58.8,18L58.8,18
	z"/>
<path class="st0" d="M51.1,23L51.1,23l3.8-4.8l1.8,2.3L51.1,23L51.1,23L51.1,23l5.6-2.5l-1.8-2.3L51.1,23L51.1,23z"/>
<path class="st0" d="M50,17l-0.3,3l-2.9,1.1L50,17L50,17l-3.3,4.2l3-1.1L50,17L50,17z"/>
<path class="st0" d="M51.1,23L51.1,23l-1.4-3l-3,1.1L51.1,23L51.1,23l-4.3-1.8l2.9-1.1L51.1,23z"/>
<path class="st0" d="M54.9,18.1L49.7,20l1.4,3L54.9,18.1L54.9,18.1l-3.8,4.8L49.7,20L54.9,18.1z"/>
<path class="st0" d="M57.4,10.7L54.9,14l2.8-0.7L57.4,10.7l0.2,2.6L54.9,14L57.4,10.7L57.4,10.7z"/>
<path class="st0" d="M58.8,18L58.8,18l-3.9-4v4.2L58.8,18L58.8,18L58.8,18L58.8,18l-3.9,0.2l0-4.1L58.8,18L58.8,18L58.8,18z"/>
<path class="st0" d="M59.7,22.6l-3-2.1l-0.4,3.4L59.7,22.6l-3.4,1.3l0.3-3.4L59.7,22.6L59.7,22.6z"/>
<path class="st0" d="M52.4,25.8L52.4,25.8L51.1,23l5.2,0.9L52.4,25.8L52.4,25.8L52.4,25.8L52.4,25.8l4-1.9l-5.2-0.9L52.4,25.8z"/>
<path class="st0" d="M48.5,27.5l0.2-3.5l3.6,1.7L48.5,27.5L48.5,27.5l3.9-1.8L48.7,24L48.5,27.5L48.5,27.5z"/>
<path class="st0" d="M46,24.2L46,24.2l0.7-3l1.9,2.9L46,24.2L46,24.2L46,24.2L46,24.2l2.7-0.1l-2-2.9L46,24.2z"/>
<path class="st0" d="M49.7,20l0.3-3l4.8,1.2L49.7,20L49.7,20L49.7,20l5.2-1.9L50,17L49.7,20L49.7,20L49.7,20z"/>
<path class="st0" d="M46,24.2L46,24.2l-2.4-5l-0.9,3.8L46,24.2L46,24.2L46,24.2l-3.3-1.2l0.9-3.7L46,24.2L46,24.2L46,24.2z"/>
<path class="st0" d="M44,13.8l-2.3,2l2,3.4L44,13.8l-0.3,5.3l-2-3.4L44,13.8L44,13.8z"/>
<path class="st0" d="M47.8,11.1l-3.5,0l-0.4,2.7L47.8,11.1L47.8,11.1L47.8,11.1l-3.9,2.7l0.5-2.7L47.8,11.1L47.8,11.1L47.8,11.1z"/>
<path class="st0" d="M50.3,17.1c0-0.2-0.1-0.3-0.3-0.3c-0.2,0-0.3,0.1-0.3,0.3c0,0.2,0.1,0.3,0.3,0.3C50.2,17.3,50.3,17.2,50.3,17.1
	z"/>
<path class="st0" d="M55.2,18.2c0-0.2-0.1-0.3-0.3-0.3c-0.2,0-0.3,0.1-0.3,0.3c0,0.2,0.1,0.3,0.3,0.3C55,18.5,55.1,18.4,55.2,18.2z"
	/>
<path class="st0" d="M57,20.5c0-0.2-0.1-0.3-0.3-0.3c-0.2,0-0.3,0.1-0.3,0.3c0,0.2,0.1,0.3,0.3,0.3C56.8,20.8,57,20.7,57,20.5z"/>
<path class="st0" d="M55.2,14c0-0.2-0.1-0.3-0.3-0.3c-0.2,0-0.3,0.1-0.3,0.3c0,0.2,0.1,0.3,0.3,0.3C55,14.3,55.2,14.2,55.2,14z"/>
<path class="st0" d="M59.1,18c0-0.2-0.1-0.3-0.3-0.3c-0.2,0-0.3,0.1-0.3,0.3c0,0.2,0.1,0.3,0.3,0.3C58.9,18.3,59.1,18.2,59.1,18z"/>
<path class="st0" d="M57.9,13.4c0-0.2-0.1-0.3-0.3-0.3c-0.2,0-0.3,0.1-0.3,0.3c0,0.2,0.1,0.3,0.3,0.3C57.8,13.6,57.9,13.5,57.9,13.4
	z"/>
<path class="st0" d="M49,24.1c0-0.2-0.1-0.3-0.3-0.3c-0.2,0-0.3,0.1-0.3,0.3c0,0.2,0.1,0.3,0.3,0.3C48.8,24.4,49,24.2,49,24.1z"/>
<path class="st0" d="M46.3,24.2c0-0.2-0.1-0.3-0.3-0.3c-0.2,0-0.3,0.1-0.3,0.3c0,0.2,0.1,0.3,0.3,0.3C46.1,24.5,46.3,24.4,46.3,24.2
	z"/>
<path class="st0" d="M43.9,19.2c0-0.2-0.1-0.3-0.3-0.3c-0.2,0-0.3,0.1-0.3,0.3c0,0.2,0.1,0.3,0.3,0.3C43.8,19.5,43.9,19.4,43.9,19.2
	z"/>
<path class="st0" d="M50.1,20.1c0-0.2-0.1-0.3-0.3-0.3c-0.2,0-0.3,0.1-0.3,0.3c0,0.2,0.1,0.3,0.3,0.3C49.9,20.3,50,20.2,50.1,20.1z"
	/>
<path class="st0" d="M56.6,23.9c0-0.2-0.1-0.3-0.3-0.3c-0.2,0-0.3,0.1-0.3,0.3c0,0.2,0.1,0.3,0.3,0.3C56.4,24.2,56.6,24,56.6,23.9z"
	/>
<path class="st0" d="M51.4,23c0-0.2-0.1-0.3-0.3-0.3c-0.2,0-0.3,0.1-0.3,0.3c0,0.2,0.1,0.3,0.3,0.3C51.2,23.3,51.4,23.2,51.4,23z"/>
<path class="st0" d="M51.2,12.3c0-0.2-0.1-0.3-0.3-0.3c-0.2,0-0.3,0.1-0.3,0.3c0,0.2,0.1,0.3,0.3,0.3C51.1,12.6,51.2,12.5,51.2,12.3
	z"/>
<path class="st0" d="M44.2,13.8c0-0.2-0.1-0.3-0.3-0.3c-0.2,0-0.3,0.1-0.3,0.3c0,0.2,0.1,0.3,0.3,0.3C44.1,14.1,44.2,14,44.2,13.8z"
	/>
<path class="st0" d="M57.8,10.8c0-0.2-0.1-0.4-0.4-0.5c-0.2,0-0.4,0.1-0.5,0.4c0,0.2,0.1,0.4,0.4,0.5C57.6,11.2,57.8,11,57.8,10.8z"
	/>
<path class="st0" d="M60.9,15.6c0-0.2-0.1-0.4-0.4-0.5c-0.2,0-0.4,0.1-0.5,0.4c0,0.2,0.1,0.4,0.4,0.5C60.6,16,60.9,15.8,60.9,15.6z"
	/>
<path class="st0" d="M48.3,11.2c0-0.2-0.1-0.4-0.4-0.5c-0.2,0-0.4,0.1-0.5,0.4c0,0.2,0.1,0.4,0.4,0.5C48,11.6,48.2,11.4,48.3,11.2z"
	/>
<path class="st0" d="M60,22.6c0-0.2-0.1-0.3-0.3-0.3c-0.2,0-0.3,0.1-0.3,0.3c0,0.2,0.1,0.3,0.3,0.3C59.8,22.9,60,22.8,60,22.6z"/>
<path class="st0" d="M54.8,10.8c0-0.2-0.1-0.4-0.4-0.5c-0.2,0-0.4,0.1-0.5,0.4c0,0.2,0.1,0.4,0.4,0.5C54.5,11.2,54.7,11.1,54.8,10.8
	z"/>
<path class="st0" d="M47.2,21.2c0-0.2-0.1-0.4-0.4-0.5c-0.2,0-0.4,0.1-0.5,0.4c0,0.2,0.1,0.4,0.4,0.5C46.9,21.6,47.1,21.4,47.2,21.2
	z"/>
<path class="st0" d="M45.9,16.2c0-0.2-0.1-0.4-0.4-0.5c-0.2,0-0.4,0.1-0.5,0.4c0,0.2,0.1,0.4,0.4,0.5C45.7,16.6,45.9,16.5,45.9,16.2
	z"/>
<path class="st0" d="M54.9,27.2c0-0.2-0.1-0.4-0.4-0.5c-0.2,0-0.4,0.1-0.5,0.4c0,0.2,0.1,0.4,0.4,0.5C54.6,27.6,54.8,27.4,54.9,27.2
	z"/>
<path class="st0" d="M52.7,25.8c0-0.2-0.1-0.3-0.3-0.3c-0.2,0-0.3,0.1-0.3,0.3c0,0.2,0.1,0.3,0.3,0.3C52.5,26.1,52.6,26,52.7,25.8z"
	/>
<path class="st0" d="M48.8,27.7c0.2-0.1,0.2-0.4,0.1-0.5c-0.1-0.2-0.4-0.2-0.5-0.1c-0.2,0.1-0.2,0.4-0.1,0.5
	C48.4,27.8,48.6,27.9,48.8,27.7z"/>
<path class="st0" d="M43.2,23c0-0.2-0.1-0.4-0.4-0.5c-0.2,0-0.4,0.1-0.5,0.4c0,0.2,0.1,0.4,0.4,0.5C42.9,23.4,43.1,23.2,43.2,23z"/>
<path class="st0" d="M42.1,15.8c0-0.2-0.1-0.4-0.4-0.5c-0.2,0-0.4,0.1-0.5,0.4c0,0.2,0.1,0.4,0.4,0.5C41.8,16.2,42,16.1,42.1,15.8z"
	/>
<path class="st0" d="M44.9,11.2c0-0.2-0.1-0.4-0.4-0.5c-0.2,0-0.4,0.1-0.5,0.4c0,0.2,0.1,0.4,0.4,0.5C44.7,11.6,44.9,11.4,44.9,11.2
	z"/>
<path class="st0" d="M51.2,8.3c0-0.2-0.1-0.3-0.3-0.3c-0.2,0-0.3,0.1-0.3,0.3c0,0.2,0.1,0.3,0.3,0.3C51,8.6,51.2,8.5,51.2,8.3z"/>
</svg>
