<?xml version="1.0" encoding="utf-8"?>
<!-- Generator: Adobe Illustrator 24.0.2, SVG Export Plug-In . SVG Version: 6.00 Build 0)  -->
<svg version="1.1" id="Layer_1" xmlns="http://www.w3.org/2000/svg" xmlns:xlink="http://www.w3.org/1999/xlink" x="0px" y="0px"
	 viewBox="0 0 60 60" style="enable-background:new 0 0 60 60;" xml:space="preserve">
<style type="text/css">
	.st0{fill:none;}
	.st1{fill-rule:evenodd;clip-rule:evenodd;}
</style>
<rect class="st0" width="60" height="60"/>
<path class="st1" d="M32.5,3c3.2,0,6.3,1,9,2.8C41.9,6.1,42,6.6,41.7,7c-0.3,0.4-0.8,0.5-1.2,0.2c-2.4-1.6-5.1-2.5-8-2.5
	c-5.3,0-10.2,3-12.6,7.7c-0.9,1.8-2.6,1.7-3.4,1.7c-0.1,0-0.1,0-0.2,0c-4,0-7.6,2.6-8.9,6.4c-0.3,0.9-1,1.6-2,2
	c-2.3,0.8-3.7,2.9-3.6,5.3c0.1,2.9,2.6,5.2,5.6,5.2h25.5c0.5,0,0.9,0.4,0.9,0.9c0,0.5-0.4,0.9-0.9,0.9h-1.9V51
	c1.6,0.4,2.8,1.9,2.8,3.6c0,2-1.7,3.7-3.7,3.7c-2,0-3.7-1.7-3.7-3.7c0-1.7,1.2-3.2,2.8-3.6V34.8h-7.9v12.5c0,0.5-0.4,0.9-0.9,0.9
	h-6.1c-0.4,1.3-1.6,2.2-3,2.2c-1.7,0-3.1-1.4-3.1-3.1s1.4-3.1,3.1-3.1c1.4,0,2.6,1,3,2.2h5.2V34.8h-7.9v4c0,0.5-0.4,0.9-0.9,0.9H7.4
	C7,40.8,6,41.5,4.8,41.5c-1.5,0-2.7-1.2-2.7-2.7c0-1.5,1.2-2.7,2.7-2.7C6,36.1,7,36.9,7.4,38h2.5v-3.2H7.3c-3.9,0-7.2-3-7.3-6.9
	c-0.1-3.2,1.8-6,4.8-7c0.4-0.2,0.8-0.5,0.9-0.9c1.5-4.5,5.8-7.6,10.6-7.6c0.1,0,0.2,0,0.2,0c0.7,0,1.4,0,1.8-0.8
	C21,6.3,26.5,3,32.5,3z M3.8,38.8c0,0.5,0.4,1,1,1c0.5,0,1-0.4,1-1c0-0.5-0.4-1-1-1C4.3,37.8,3.8,38.3,3.8,38.8z M10,47.3
	c0,0.8,0.6,1.4,1.4,1.4s1.4-0.6,1.4-1.4c0-0.8-0.6-1.4-1.4-1.4C10.6,45.9,10,46.5,10,47.3z M30,56.6c1.1,0,2-0.9,2-2
	c0-1.1-0.9-2-2-2c-1.1,0-2,0.9-2,2C28.1,55.7,29,56.6,30,56.6z M36.9,33.1h11c5.4,0,10-4.4,9.9-9.8c-0.1-5.4-4.6-9.6-10-9.5
	c0,0-0.1,0-0.1,0c-1.1,0-2.2-0.6-2.8-1.6c-0.4-0.8-1-1.6-1.6-2.3c-0.3-0.4-0.3-0.9,0.1-1.2c0.4-0.3,0.9-0.3,1.2,0.1
	c0.7,0.8,1.3,1.7,1.8,2.6c0.3,0.5,0.8,0.8,1.3,0.7c6.4-0.2,11.7,4.8,11.8,11.2c0.1,5.6-4,10.3-9.3,11.4V38h2.5
	c0.4-1.1,1.4-1.9,2.6-1.9c1.5,0,2.7,1.2,2.7,2.7c0,1.5-1.2,2.7-2.7,2.7c-1.2,0-2.2-0.8-2.6-1.9h-3.4c-0.5,0-0.9-0.4-0.9-0.9v-4
	c-0.2,0-0.4,0-0.5,0h-7.4v11.6h5.2c0.4-1.3,1.6-2.2,3-2.2c1.7,0,3.1,1.4,3.1,3.1s-1.4,3.1-3.1,3.1c-1.4,0-2.6-1-3-2.2h-6.1
	c-0.5,0-0.9-0.4-0.9-0.9V34.8h-1.9c-0.5,0-0.9-0.4-0.9-0.9C36,33.4,36.4,33.1,36.9,33.1z M50.1,47.3c0-0.8-0.6-1.4-1.4-1.4
	c-0.8,0-1.4,0.6-1.4,1.4c0,0.8,0.6,1.4,1.4,1.4C49.5,48.7,50.1,48.1,50.1,47.3z M56.3,38.8c0-0.5-0.4-1-1-1c-0.5,0-1,0.4-1,1
	c0,0.5,0.4,1,1,1C55.9,39.8,56.3,39.4,56.3,38.8z"/>
</svg>
