<?xml version="1.0" encoding="utf-8"?>
<!-- Generator: Adobe Illustrator 24.0.2, SVG Export Plug-In . SVG Version: 6.00 Build 0)  -->
<svg version="1.1" id="Layer_1" xmlns="http://www.w3.org/2000/svg" xmlns:xlink="http://www.w3.org/1999/xlink" x="0px" y="0px"
	 viewBox="0 0 60 60" style="enable-background:new 0 0 60 60;" xml:space="preserve">
<style type="text/css">
	.st0{fill:none;}
	.st1{fill-rule:evenodd;clip-rule:evenodd;}
</style>
<rect class="st0" width="60" height="60"/>
<path class="st1" d="M50.9,23.5c0.6,1.6,0.7,3.2,0.4,4.8c3.4,1.6,5.7,5.1,5.7,8.8c0,5.3-4.1,11-10.1,11H16c-9.5,0-13-5.7-13-11
	c0-4.6,3.2-8.5,7.6-9.5c-0.5-1.5-0.6-3-0.6-4.5c0.4-6.6,6.2-12,13-12h0.1c5.5,0,10.3,3.3,12.2,8.2c2-1.6,4.6-2.4,7.2-2.1
	C46.3,17.4,49.6,19.9,50.9,23.5z M15.9,45.8h30.9c4.6,0,7.9-4.6,7.9-8.7c0-3.1-2.1-6-5.1-7.1l-1-0.4l0.3-1c0.4-1.5,0.4-2.9-0.2-4.4
	c-1-2.7-3.5-4.7-6.4-4.9c-2.6-0.2-5.1,0.8-6.7,2.7l-1.5,1.7l-0.5-2.2c-1.1-4.8-5.5-8.3-10.6-8.3h-0.1c-5.6,0-10.4,4.5-10.7,9.9
	c-0.1,1.7,0.2,3.3,0.9,4.8l0.6,1.4l-1.6,0.1c-4,0.4-7,3.6-7,7.5C5.2,39.7,6.3,45.8,15.9,45.8z M25.4,37.8c-0.1,1.1-0.5,1.9-1.2,2.5
	c-0.7,0.6-1.6,0.9-2.7,0.9c-0.8,0-1.5-0.2-2.1-0.6c-0.6-0.4-1.1-0.9-1.4-1.6c-0.3-0.7-0.5-1.5-0.5-2.4v-0.9c0-0.9,0.2-1.8,0.5-2.5
	s0.8-1.3,1.4-1.7c0.6-0.4,1.3-0.6,2.2-0.6c1.1,0,2,0.3,2.7,0.9c0.7,0.6,1.1,1.4,1.2,2.5h-1.7c-0.1-0.7-0.3-1.2-0.6-1.5
	c-0.3-0.3-0.8-0.5-1.5-0.5c-0.8,0-1.3,0.3-1.7,0.8c-0.4,0.5-0.6,1.4-0.6,2.4v0.9c0,1.1,0.2,1.9,0.6,2.5c0.4,0.6,1,0.8,1.7,0.8
	c0.7,0,1.2-0.2,1.5-0.5c0.3-0.3,0.6-0.8,0.7-1.5H25.4z M29.2,31.1l2.9,7.6l2.9-7.6h2.2v10h-1.7v-3.3l0.2-4.4L32.7,41h-1.2l-2.9-7.7
	l0.2,4.4V41H27v-10H29.2z M45.7,40.3c0.7-0.6,1.1-1.4,1.2-2.5h-1.7c-0.1,0.7-0.3,1.2-0.7,1.5c-0.3,0.3-0.9,0.5-1.5,0.5
	c-0.7,0-1.3-0.3-1.7-0.8c-0.4-0.6-0.6-1.4-0.6-2.5v-0.9c0-1.1,0.2-1.9,0.6-2.4c0.4-0.6,1-0.8,1.7-0.8c0.6,0,1.1,0.2,1.5,0.5
	c0.3,0.3,0.5,0.8,0.6,1.5h1.7c-0.1-1.1-0.5-1.9-1.2-2.5c-0.7-0.6-1.6-0.9-2.7-0.9c-0.8,0-1.5,0.2-2.2,0.6c-0.6,0.4-1.1,0.9-1.4,1.7
	c-0.3,0.7-0.5,1.5-0.5,2.5v0.9c0,0.9,0.2,1.7,0.5,2.4c0.3,0.7,0.8,1.2,1.4,1.6c0.6,0.4,1.3,0.6,2.1,0.6C44.1,41.2,45,40.9,45.7,40.3
	z"/>
</svg>
