<?xml version="1.0" encoding="utf-8"?>
<!-- Generator: Adobe Illustrator 24.0.2, SVG Export Plug-In . SVG Version: 6.00 Build 0)  -->
<svg version="1.1" id="Layer_1" xmlns="http://www.w3.org/2000/svg" xmlns:xlink="http://www.w3.org/1999/xlink" x="0px" y="0px"
	 viewBox="0 0 60 60" style="enable-background:new 0 0 60 60;" xml:space="preserve">
<style type="text/css">
	.st0{fill:none;}
	.st1{fill-rule:evenodd;clip-rule:evenodd;}
</style>
<rect class="st0" width="60" height="60"/>
<path class="st1" d="M46.2,13.2c2.8,0.2,5.4,1.5,7.4,3.5c2.2,2.2,3.4,5.2,3.4,8.3c0,6.5-5.3,11.8-11.8,11.8H44v14.6
	c0,1.2-0.8,2.9-4.5,4.3C36.9,56.5,33.5,57,30,57c-3.6,0-7-0.5-9.5-1.4c-3.7-1.3-4.5-3.1-4.5-4.3V36.8h-4.1c-4.9,0-8.9-4-8.9-8.9
	c0-3.6,2.1-6.7,5.3-8.1c0-0.3,0-0.6,0-0.9c0-1.1,0.2-2.2,0.5-3.2c0.2-0.6,0.8-0.9,1.3-0.7c0.6,0.2,0.9,0.8,0.7,1.3
	c-0.3,0.8-0.4,1.7-0.4,2.6c0,0.5,0,1,0.1,1.4c0.1,0.5-0.2,1-0.7,1.2c-2.8,0.9-4.6,3.5-4.6,6.4c0,3.7,3,6.8,6.8,6.8H16v-6.1
	c0-1.2,0.8-2.9,4.5-4.3c2.6-0.9,5.9-1.4,9.5-1.4c3.6,0,7,0.5,9.5,1.4c3.7,1.3,4.5,3.1,4.5,4.3v6.1h1.2c5.3,0,9.7-4.3,9.7-9.7
	c0-5.3-4.3-9.6-9.5-9.7c-0.5,0-0.9-0.4-1-0.9c-0.9-5.4-5.5-9.3-11-9.3C29.5,5.1,26,7,24,10.2c-0.3,0.4-0.8,0.6-1.3,0.4
	c-1.1-0.4-2.2-0.7-3.4-0.7c-1,0-1.9,0.1-2.8,0.4c-0.6,0.2-1.1-0.1-1.3-0.7c-0.2-0.6,0.1-1.1,0.7-1.3C17,8,18.1,7.8,19.3,7.8
	c1.2,0,2.3,0.2,3.4,0.5C25.2,5,29.1,3,33.3,3c3.1,0,6.2,1.1,8.6,3.2C44,8,45.5,10.5,46.2,13.2z M38.8,38.4c2.3-0.8,3.1-1.7,3.1-2.3
	v-4.4c-0.6,0.4-1.4,0.8-2.4,1.1c-2.6,0.9-5.9,1.4-9.5,1.4c-3.6,0-7-0.5-9.5-1.4c-1-0.4-1.8-0.7-2.4-1.1v4.4c0,0.5,0.8,1.5,3.1,2.3
	c2.3,0.8,5.5,1.3,8.8,1.3C33.3,39.7,36.4,39.3,38.8,38.4z M20.4,40.4c-1-0.4-1.8-0.7-2.4-1.1v4.4c0,0.5,0.8,1.5,3.1,2.3
	c2.3,0.8,5.5,1.3,8.8,1.3c3.3,0,6.5-0.5,8.8-1.3c2.3-0.8,3.1-1.7,3.1-2.3v-4.4c-0.6,0.4-1.4,0.8-2.4,1.1c-2.6,0.9-5.9,1.4-9.5,1.4
	C26.4,41.8,23,41.3,20.4,40.4z M30,25c-3.3,0-6.5,0.5-8.8,1.3c-2.3,0.8-3.1,1.7-3.1,2.3c0,0.5,0.8,1.5,3.1,2.3
	c2.3,0.8,5.5,1.3,8.8,1.3c3.3,0,6.5-0.5,8.8-1.3c2.3-0.8,3.1-1.7,3.1-2.3c0-0.5-0.8-1.5-3.1-2.3C36.4,25.4,33.3,25,30,25z M30,54.9
	c3.3,0,6.5-0.5,8.8-1.3c2.3-0.8,3.1-1.7,3.1-2.3v-4.4c-0.6,0.4-1.4,0.8-2.4,1.1c-2.6,0.9-5.9,1.4-9.5,1.4c-3.6,0-7-0.5-9.5-1.4
	c-1-0.4-1.8-0.7-2.4-1.1v4.4c0,0.5,0.8,1.5,3.1,2.3C23.5,54.4,26.6,54.9,30,54.9z M12.9,12.6c-0.2,0.2-0.5,0.3-0.7,0.3
	c-0.3,0-0.5-0.1-0.7-0.3c-0.2-0.2-0.3-0.5-0.3-0.7c0-0.3,0.1-0.5,0.3-0.7c0.2-0.2,0.5-0.3,0.7-0.3c0.3,0,0.5,0.1,0.7,0.3
	c0.2,0.2,0.3,0.5,0.3,0.7C13.2,12.1,13.1,12.4,12.9,12.6z"/>
</svg>
