<?xml version="1.0" encoding="utf-8"?>
<!-- Generator: Adobe Illustrator 24.0.2, SVG Export Plug-In . SVG Version: 6.00 Build 0)  -->
<svg version="1.1" id="Layer_1" xmlns="http://www.w3.org/2000/svg" xmlns:xlink="http://www.w3.org/1999/xlink" x="0px" y="0px"
	 viewBox="0 0 60 60" style="enable-background:new 0 0 60 60;" xml:space="preserve">
<style type="text/css">
	.st0{fill:none;}
	.st1{fill-rule:evenodd;clip-rule:evenodd;}
</style>
<rect class="st0" width="60" height="60"/>
<path class="st1" d="M46.4,39.2L33.1,16.1C32.3,14.8,31,14,29.5,14s-2.8,0.8-3.6,2.1L12.6,39.2c-0.7,1.3-0.7,2.8,0,4.1
	c0.7,1.3,2.1,2.1,3.6,2.1h26.8c1.5,0,2.8-0.8,3.6-2.1C47.2,42.1,47.2,40.5,46.4,39.2z M44.7,42.3c-0.4,0.6-1,1-1.8,1H16.1
	c-0.7,0-1.4-0.4-1.8-1c-0.4-0.6-0.4-1.4,0-2.1l13.4-23.2c0.4-0.6,1-1,1.8-1s1.4,0.4,1.8,1l13.4,23.2C45,40.9,45,41.7,44.7,42.3z
	 M30.5,24.2h-2.1v10.3h2.1V24.2z M28.1,37.9c0-0.8,0.6-1.4,1.4-1.4c0.8,0,1.4,0.6,1.4,1.4s-0.6,1.4-1.4,1.4
	C28.7,39.3,28.1,38.7,28.1,37.9z"/>
</svg>
