<?xml version="1.0" encoding="utf-8"?>
<!-- Generator: Adobe Illustrator 24.0.2, SVG Export Plug-In . SVG Version: 6.00 Build 0)  -->
<svg version="1.1" id="Layer_1" xmlns="http://www.w3.org/2000/svg" xmlns:xlink="http://www.w3.org/1999/xlink" x="0px" y="0px"
	 viewBox="0 0 60 60" style="enable-background:new 0 0 60 60;" xml:space="preserve">
<style type="text/css">
	.st0{fill:none;}
	.st1{fill-rule:evenodd;clip-rule:evenodd;}
</style>
<rect class="st0" width="60" height="60"/>
<path class="st1" d="M56.7,40.5l-4.8,4.8l4.8,4.8c0.1,0.1,0.2,0.3,0.2,0.5c0,0.2,0,0.4-0.1,0.5c-0.1,0.2-0.2,0.3-0.3,0.4
	c-0.1,0.1-0.3,0.2-0.5,0.2H37c-2,1.9-4.2,3.7-6.5,5.3C30.3,57,30.1,57,30,57c-0.2,0-0.3,0-0.5-0.1c-2.3-1.6-4.5-3.3-6.5-5.3h-19
	c-0.2,0-0.4-0.1-0.5-0.2c-0.1-0.1-0.3-0.2-0.3-0.4C3,50.9,3,50.7,3,50.5c0-0.2,0.1-0.3,0.2-0.5L8,45.3l-4.8-4.8
	c-0.1-0.1-0.2-0.3-0.2-0.5c0-0.2,0-0.4,0.1-0.5c0.1-0.2,0.2-0.3,0.3-0.4C3.5,39.1,3.7,39,3.9,39h9c-3.5-6-5.4-12.8-5.4-19.8v-5.4
	c0-0.2,0.1-0.4,0.2-0.5S7.9,13,8.1,13c1.9-0.9,3.7-2.1,5.1-3.7c1.4-1.6,2.4-3.5,3-5.6c0.1-0.2,0.2-0.4,0.3-0.5C16.6,3.1,16.8,3,17,3
	h26c0.2,0,0.4,0.1,0.5,0.2c0.2,0.1,0.3,0.3,0.3,0.5c0.6,2.1,1.6,4,3,5.6c1.4,1.6,3.1,2.9,5.1,3.7c0.2,0.1,0.3,0.2,0.4,0.3
	s0.2,0.3,0.2,0.5v5.4c0,7-1.9,13.8-5.4,19.8h9c0.2,0,0.4,0.1,0.5,0.2c0.1,0.1,0.3,0.2,0.3,0.4c0.1,0.2,0.1,0.3,0.1,0.5
	C56.9,40.3,56.8,40.4,56.7,40.5z M10.2,45.3c0,0.2-0.1,0.5-0.3,0.6l-3.9,3.9h15c-2.7-2.7-5.1-5.8-7.1-9H6.1l3.9,3.9
	C10.1,44.8,10.2,45.1,10.2,45.3z M9.3,19.2C9.3,39.9,26.8,52.9,30,55c3.1-2.2,20.7-15.1,20.7-35.8v-4.8c-2-1-3.7-2.3-5.1-3.9
	c-1.4-1.6-2.5-3.6-3.2-5.6H17.6c-0.7,2.1-1.8,4-3.2,5.6c-1.4,1.6-3.2,3-5.1,3.9V19.2z M45.9,40.8c-2.1,3.2-4.4,6.3-7.1,9h15L50,45.9
	c-0.2-0.2-0.3-0.4-0.3-0.6c0-0.2,0.1-0.5,0.3-0.6l3.9-3.9H45.9z M41.9,18.4c1.6,2.4,2.4,5.2,2.4,8c0,3.8-1.5,7.5-4.2,10.2
	c-2.7,2.7-6.4,4.2-10.2,4.2c-2.8,0-5.6-0.8-8-2.4c-2.4-1.6-4.2-3.8-5.3-6.5c-1.1-2.6-1.4-5.5-0.8-8.3c0.6-2.8,1.9-5.4,3.9-7.4
	c2-2,4.6-3.4,7.4-3.9c2.8-0.6,5.7-0.3,8.3,0.8S40.3,16,41.9,18.4z M34.7,34.5c-1.2-0.5-2.5-0.8-3.9-0.9v5.2
	C32.4,38.4,33.7,36.8,34.7,34.5z M30.9,27.3v4.5c1.5,0.1,3,0.4,4.5,1c0.5-1.8,0.8-3.7,0.9-5.5H30.9z M30.9,21v4.5h5.4
	c-0.1-1.9-0.4-3.7-0.9-5.5C33.9,20.5,32.4,20.9,30.9,21z M30.9,14v5.2c1.3-0.1,2.6-0.4,3.9-0.9C33.7,16,32.4,14.4,30.9,14z
	 M37.7,16.5c-0.9-0.7-1.9-1.3-3-1.7c0.6,0.8,1.2,1.7,1.6,2.7C36.8,17.2,37.3,16.8,37.7,16.5z M29.1,19.2V14c-1.5,0.5-2.9,2-3.9,4.3
	C26.4,18.8,27.7,19.1,29.1,19.2z M22.2,16.5c0.4,0.3,0.9,0.7,1.4,1c0.4-1,0.9-1.9,1.6-2.7C24.1,15.2,23.1,15.8,22.2,16.5z
	 M29.1,25.5V21v0c-1.5-0.1-3-0.4-4.5-1c-0.5,1.8-0.8,3.7-0.9,5.5H29.1z M29.1,31.8v-4.5h-5.4c0.1,1.9,0.4,3.7,0.9,5.5
	C26,32.3,27.5,31.9,29.1,31.8z M29.1,38.8v-5.2c-1.3,0.1-2.6,0.4-3.9,0.9C26.2,36.8,27.5,38.4,29.1,38.8z M22.2,36.3
	c0.9,0.7,1.9,1.3,3,1.7c-0.6-0.8-1.2-1.7-1.6-2.7C23.1,35.6,22.6,36,22.2,36.3z M37.7,36.3c-0.4-0.3-0.9-0.7-1.4-1
	c-0.4,1-0.9,1.9-1.6,2.7C35.8,37.6,36.8,37,37.7,36.3z M38,27.3c-0.1,2.2-0.4,4.3-1,6.3c0.7,0.4,1.4,0.9,2.1,1.4
	c2-2.1,3.2-4.9,3.4-7.8H38z M38,25.5h4.5c-0.2-2.9-1.4-5.7-3.4-7.8c-0.7,0.5-1.3,1-2.1,1.4C37.6,21.2,38,23.3,38,25.5z M22.9,19.2
	c-0.7-0.4-1.4-0.9-2.1-1.4c-2,2.1-3.2,4.9-3.4,7.8h4.5C22,23.3,22.3,21.2,22.9,19.2z M21.9,27.3h-4.5c0.2,2.9,1.4,5.7,3.4,7.8
	c0.7-0.5,1.3-1,2.1-1.4C22.3,31.6,22,29.5,21.9,27.3z"/>
</svg>
