<?xml version="1.0" encoding="utf-8"?>
<!-- Generator: Adobe Illustrator 24.0.2, SVG Export Plug-In . SVG Version: 6.00 Build 0)  -->
<svg version="1.1" id="Layer_1" xmlns="http://www.w3.org/2000/svg" xmlns:xlink="http://www.w3.org/1999/xlink" x="0px" y="0px"
	 viewBox="0 0 60 60" style="enable-background:new 0 0 60 60;" xml:space="preserve">
<style type="text/css">
	.st0{fill:none;}
</style>
<rect class="st0" width="60" height="60"/>
<path d="M57.1,52.1h-0.7V37.6c0-0.5-0.4-0.9-0.9-0.9s-0.9,0.4-0.9,0.9v14.5H35.9V28.2h17.9c0.4,0,0.7,0.3,0.7,0.7v4.5
	c0,0.5,0.4,0.9,0.9,0.9s0.9-0.4,0.9-0.9v-4.5c0-1.4-1.1-2.5-2.5-2.5H35.9v-16c0-1.3-1-2.4-2.3-2.5V6.3c0-1.3-1-2.4-2.3-2.5L8.6,2
	C7.2,1.9,5.9,3,5.9,4.5v1.4C4.6,6,3.7,7.1,3.7,8.4v43.8H2.9C1.3,52.1,0,53.4,0,55c0,1.7,1.3,3,2.9,3H57c1.6,0,2.9-1.3,2.9-2.9
	C60,53.4,58.7,52.1,57.1,52.1L57.1,52.1z M7.7,4.5c0-0.4,0.4-0.7,0.8-0.7l22.8,1.8c0.4,0,0.7,0.3,0.7,0.7v1.6L7.7,6V4.5L7.7,4.5z
	 M5.4,8.4c0-0.4,0.4-0.7,0.8-0.7l27.3,2.1c0.4,0,0.7,0.3,0.7,0.7v41.6h-2.5V39.5c0-0.8-0.7-1.5-1.5-1.5H22c-0.8,0-1.5,0.7-1.5,1.5
	v5.7c0,0.5,0.4,0.9,0.9,0.9s0.9-0.4,0.9-0.9v-5.4H30v12.3h-7.6v-2.8c0-0.5-0.4-0.9-0.9-0.9s-0.9,0.4-0.9,0.9v2.8H5.4V8.4z
	 M57.1,56.2H2.9c-0.6,0-1.2-0.5-1.2-1.2c0-0.6,0.5-1.2,1.2-1.2H57c0.6,0,1.2,0.5,1.2,1.2S57.7,56.2,57.1,56.2z"/>
<path d="M8.9,19.1h3.6c0.8,0,1.5-0.7,1.5-1.5v-2.7c0-0.8-0.7-1.5-1.5-1.5H8.9c-0.8,0-1.5,0.7-1.5,1.5v2.7
	C7.4,18.4,8.1,19.1,8.9,19.1z M9.1,15.1h3.1v2.3H9.1V15.1z"/>
<path d="M17.8,19.1h3.6c0.8,0,1.5-0.7,1.5-1.5v-2.7c0-0.8-0.7-1.5-1.5-1.5h-3.6c-0.8,0-1.5,0.7-1.5,1.5v2.7
	C16.2,18.4,16.9,19.1,17.8,19.1z M18,15.1h3.1v2.3H18V15.1z"/>
<path d="M26.6,19.1h3.6c0.8,0,1.5-0.7,1.5-1.5v-2.7c0-0.8-0.7-1.5-1.5-1.5h-3.6c-0.8,0-1.5,0.7-1.5,1.5v2.7
	C25.1,18.4,25.8,19.1,26.6,19.1L26.6,19.1z M26.9,15.1H30v2.3h-3.1V15.1z"/>
<path d="M8.9,27h3.6c0.8,0,1.5-0.7,1.5-1.5v-2.7c0-0.8-0.7-1.5-1.5-1.5H8.9c-0.8,0-1.5,0.7-1.5,1.5v2.7C7.4,26.3,8.1,27,8.9,27z
	 M9.1,23h3.1v2.3H9.1V23z"/>
<path d="M17.8,27h3.6c0.8,0,1.5-0.7,1.5-1.5v-2.7c0-0.8-0.7-1.5-1.5-1.5h-3.6c-0.8,0-1.5,0.7-1.5,1.5v2.7C16.2,26.3,16.9,27,17.8,27
	z M18,23h3.1v2.3H18V23z"/>
<path d="M26.6,27h3.6c0.8,0,1.5-0.7,1.5-1.5v-2.7c0-0.8-0.7-1.5-1.5-1.5h-3.6c-0.8,0-1.5,0.7-1.5,1.5v2.7C25.1,26.3,25.8,27,26.6,27
	L26.6,27z M26.9,23H30v2.3h-3.1V23z"/>
<path d="M8.9,34.9h3.6c0.8,0,1.5-0.7,1.5-1.5v-2.7c0-0.8-0.7-1.5-1.5-1.5H8.9c-0.8,0-1.5,0.7-1.5,1.5v2.7
	C7.4,34.2,8.1,34.9,8.9,34.9L8.9,34.9z M9.1,30.9h3.1v2.3H9.1V30.9z"/>
<path d="M16.9,38.1H9.1c-0.9,0-1.7,0.8-1.7,1.7v2.4c0,0.9,0.8,1.7,1.7,1.7H17c0.9,0,1.7-0.8,1.7-1.7v-2.4
	C18.6,38.8,17.9,38.1,16.9,38.1z M16.9,42.1H9.1v-2.3h7.7v2.3H16.9z"/>
<path d="M17.8,34.9h3.6c0.8,0,1.5-0.7,1.5-1.5v-2.7c0-0.8-0.7-1.5-1.5-1.5h-3.6c-0.8,0-1.5,0.7-1.5,1.5v2.7
	C16.2,34.2,16.9,34.9,17.8,34.9L17.8,34.9z M18,30.9h3.1v2.3H18V30.9z"/>
<path d="M26.6,34.9h3.6c0.8,0,1.5-0.7,1.5-1.5v-2.7c0-0.8-0.7-1.5-1.5-1.5h-3.6c-0.8,0-1.5,0.7-1.5,1.5v2.7
	C25.1,34.2,25.8,34.9,26.6,34.9L26.6,34.9z M26.9,30.9H30v2.3h-3.1V30.9z"/>
<path d="M44.6,34.1c0-0.9-0.7-1.6-1.6-1.6h-3.6c-0.9,0-1.6,0.7-1.6,1.6V37c0,0.9,0.7,1.6,1.6,1.6H43c0.9,0,1.6-0.7,1.6-1.6V34.1z
	 M42.8,36.8h-3.3v-2.6h3.3V36.8z"/>
<path d="M43,40.6h-3.6c-0.9,0-1.6,0.7-1.6,1.6V45c0,0.9,0.7,1.6,1.6,1.6H43c0.9,0,1.6-0.7,1.6-1.6v-2.8C44.6,41.3,43.9,40.6,43,40.6
	z M42.8,44.9h-3.3v-2.6h3.3V44.9z"/>
<path d="M52.8,34.1c0-0.9-0.7-1.6-1.6-1.6h-3.6c-0.9,0-1.6,0.7-1.6,1.6V37c0,0.9,0.7,1.6,1.6,1.6h3.6c0.9,0,1.6-0.7,1.6-1.6V34.1z
	 M51,36.8h-3.3v-2.6H51V36.8z"/>
<path d="M51.2,40.6h-3.6c-0.9,0-1.6,0.7-1.6,1.6V45c0,0.9,0.7,1.6,1.6,1.6h3.6c0.9,0,1.6-0.7,1.6-1.6v-2.8
	C52.8,41.3,52,40.6,51.2,40.6z M51,44.9h-3.3v-2.6H51V44.9z"/>
</svg>
