<?xml version="1.0" encoding="utf-8"?>
<!-- Generator: Adobe Illustrator 24.0.2, SVG Export Plug-In . SVG Version: 6.00 Build 0)  -->
<svg version="1.1" id="Layer_1" xmlns="http://www.w3.org/2000/svg" xmlns:xlink="http://www.w3.org/1999/xlink" x="0px" y="0px"
	 viewBox="0 0 60 60" style="enable-background:new 0 0 60 60;" xml:space="preserve">
<style type="text/css">
	.st0{fill:none;}
	.st1{fill-rule:evenodd;clip-rule:evenodd;}
</style>
<rect class="st0" width="60" height="60"/>
<path class="st1" d="M7.4,39.2h7.1v1.9c0,0.6,0.2,1.2,0.6,1.7c-0.4,0.5-0.6,1.1-0.6,1.7v5.6c0,1.4,1.2,2.6,2.6,2.6h9.8
	c0.5,0,0.9-0.4,0.9-0.9c0-0.5-0.4-0.9-0.9-0.9H17c-0.4,0-0.8-0.4-0.8-0.8v-5.6c0-0.4,0.4-0.8,0.8-0.8h24.3c0.4,0,0.8,0.4,0.8,0.8
	v0.7c0,0.5,0.4,0.9,0.9,0.9s0.9-0.4,0.9-0.9v-0.7c0-0.6-0.2-1.2-0.6-1.7c0.4-0.5,0.6-1.1,0.6-1.7v-1.9h4.4c6.4,0,11.8-5.2,11.7-11.8
	c-0.1-3.1-1.3-6-3.6-8.2c-2.3-2.1-5.2-3.3-8.3-3.2c-0.5,0-1-0.3-1.3-0.7C44,10.2,38.6,7,32.7,7c-6,0-11.5,3.4-14.3,8.8
	c-0.4,0.7-1,0.8-1.8,0.8c-4.8-0.1-9.3,2.9-10.9,7.7c-0.1,0.4-0.5,0.7-0.9,0.9c-3,1.1-5,3.9-4.8,7.1C0.2,36.2,3.5,39.2,7.4,39.2z
	 M42.1,41.2c0,0.4-0.4,0.8-0.8,0.8H17c-0.4,0-0.8-0.4-0.8-0.8v-5.6c0-0.4,0.4-0.8,0.8-0.8h24.3c0.4,0,0.8,0.4,0.8,0.8V41.2z
	 M42.1,32.2c0,0.4-0.4,0.8-0.8,0.8H17c-0.4,0-0.8-0.4-0.8-0.8v-5.6c0-0.4,0.4-0.8,0.8-0.8h24.3c0.4,0,0.8,0.4,0.8,0.8V32.2z
	 M5.4,26.8c1-0.3,1.7-1.1,2-2c1.4-4,5.1-6.6,9.2-6.5c0.7,0,2.5,0.1,3.4-1.7c2.5-4.8,7.3-7.8,12.7-7.8c5.2,0,10,2.9,12.5,7.5
	c0.6,1.1,1.7,1.7,2.9,1.7c2.6-0.1,5.1,0.9,7,2.7c1.9,1.8,3,4.3,3,6.9c0.1,5.5-4.5,10-9.9,10h-4.4v-1.9c0-0.6-0.2-1.2-0.6-1.7
	c0.4-0.5,0.6-1.1,0.6-1.7v-5.6c0-1.4-1.2-2.6-2.6-2.6H17c-1.4,0-2.6,1.2-2.6,2.6v5.6c0,0.6,0.3,1.2,0.6,1.7
	c-0.4,0.5-0.6,1.1-0.6,1.7v1.9H7.4c-3,0-5.5-2.4-5.6-5.3C1.7,29.8,3.1,27.6,5.4,26.8z M27.6,28.5h-8.1c-0.5,0-0.9,0.4-0.9,0.9
	s0.4,0.9,0.9,0.9h8.1c0.5,0,0.9-0.4,0.9-0.9S28.1,28.5,27.6,28.5z M27.6,37.5h-8.1c-0.5,0-0.9,0.4-0.9,0.9c0,0.5,0.4,0.9,0.9,0.9
	h8.1c0.5,0,0.9-0.4,0.9-0.9C28.5,37.9,28.1,37.5,27.6,37.5z M27.6,46.4h-8.1c-0.5,0-0.9,0.4-0.9,0.9c0,0.5,0.4,0.9,0.9,0.9h8.1
	c0.5,0,0.9-0.4,0.9-0.9C28.5,46.8,28.1,46.4,27.6,46.4z M37.1,37.5h1.7c0.5,0,0.9,0.4,0.9,0.9c0,0.5-0.4,0.9-0.9,0.9h-1.7
	c-0.5,0-0.9-0.4-0.9-0.9C36.3,37.9,36.7,37.5,37.1,37.5z M37.1,28.5h1.7c0.5,0,0.9,0.4,0.9,0.9s-0.4,0.9-0.9,0.9h-1.7
	c-0.5,0-0.9-0.4-0.9-0.9S36.7,28.5,37.1,28.5z M38.9,48.2c0.5,0,0.9-0.4,0.9-0.9c0-0.5-0.4-0.9-0.9-0.9h-1.7c-0.5,0-0.9,0.4-0.9,0.9
	c0,0.5,0.4,0.9,0.9,0.9H38.9z M32.1,37.5h1.7c0.5,0,0.9,0.4,0.9,0.9c0,0.5-0.4,0.9-0.9,0.9h-1.7c-0.5,0-0.9-0.4-0.9-0.9
	C31.2,37.9,31.6,37.5,32.1,37.5z M33.8,28.5h-1.7c-0.5,0-0.9,0.4-0.9,0.9s0.4,0.9,0.9,0.9h1.7c0.5,0,0.9-0.4,0.9-0.9
	S34.3,28.5,33.8,28.5z M34.7,47.3c0,0.5-0.4,0.9-0.9,0.9h-1.7c-0.5,0-0.9-0.4-0.9-0.9c0-0.5,0.4-0.9,0.9-0.9h1.7
	C34.3,46.4,34.7,46.8,34.7,47.3z M30.9,52.7c-0.5,0-0.9-0.4-0.9-0.9c0-0.5,0.4-0.9,0.9-0.9h10.4c0.4,0,0.8-0.4,0.8-0.8v-0.7
	c0-0.5,0.4-0.9,0.9-0.9s0.9,0.4,0.9,0.9v0.7c0,1.4-1.2,2.6-2.6,2.6H30.9z"/>
</svg>
