<?xml version="1.0" encoding="utf-8"?>
<!-- Generator: Adobe Illustrator 24.0.2, SVG Export Plug-In . SVG Version: 6.00 Build 0)  -->
<svg version="1.1" id="Layer_1" xmlns="http://www.w3.org/2000/svg" xmlns:xlink="http://www.w3.org/1999/xlink" x="0px" y="0px"
	 viewBox="0 0 60 60" style="enable-background:new 0 0 60 60;" xml:space="preserve">
<style type="text/css">
	.st0{fill:none;}
	.st1{fill-rule:evenodd;clip-rule:evenodd;}
</style>
<rect class="st0" width="60" height="60"/>
<path class="st1" d="M43.8,60H7c-1.3,0-2.6-0.5-3.5-1.5C2.5,57.6,2,56.3,2,55V5c0-1.3,0.5-2.6,1.5-3.5C4.4,0.5,5.7,0,7,0h29.8
	c0.1,0,0.3,0,0.4,0.1c0.1,0.1,0.2,0.1,0.3,0.2l11.9,12c0.1,0.1,0.2,0.2,0.2,0.3c0.1,0.1,0.1,0.3,0.1,0.4v20.4
	c2.9,1.4,5.2,3.7,6.6,6.5c1.4,2.9,1.8,6.1,1.1,9.2c-0.7,3.1-2.4,5.9-4.9,7.9C50,58.9,46.9,60,43.8,60z M53.7,52.7c1.3-2,2-4.3,2-6.7
	c0-3.2-1.3-6.2-3.5-8.5C50,35.3,46.9,34,43.8,34c-2.4,0-4.7,0.7-6.6,2c-2,1.3-3.5,3.2-4.4,5.4c-0.9,2.2-1.1,4.6-0.7,6.9
	c0.5,2.3,1.6,4.5,3.3,6.1c1.7,1.7,3.8,2.8,6.1,3.3c2.3,0.5,4.7,0.2,6.9-0.7C50.5,56.2,52.4,54.6,53.7,52.7z M46.3,12l-8.5-8.6V9
	c0,0.8,0.3,1.6,0.9,2.1S40,12,40.8,12H46.3z M4.9,2.9C4.3,3.4,4,4.2,4,5v50c0,0.8,0.3,1.6,0.9,2.1C5.4,57.7,6.2,58,7,58h29.6
	c-2.9-1.8-5.1-4.5-6.1-7.8c-1-3.2-0.8-6.8,0.5-9.9c1.4-3.1,3.8-5.6,6.9-7.1c3.1-1.4,6.6-1.7,9.8-0.7V14h-7c-1.3,0-2.6-0.5-3.5-1.5
	c-0.9-0.9-1.5-2.2-1.5-3.5V2H7C6.2,2,5.4,2.3,4.9,2.9z M18.2,19.7c-0.2-0.2-0.3-0.4-0.3-0.7s0.1-0.5,0.3-0.7s0.4-0.3,0.7-0.3h23.9
	c0.3,0,0.5,0.1,0.7,0.3c0.2,0.2,0.3,0.4,0.3,0.7s-0.1,0.5-0.3,0.7C43.3,19.9,43,20,42.8,20H18.9C18.6,20,18.4,19.9,18.2,19.7z M9,26
	h19.9c0.3,0,0.5-0.1,0.7-0.3s0.3-0.4,0.3-0.7s-0.1-0.5-0.3-0.7S29.1,24,28.9,24H9c-0.3,0-0.5,0.1-0.7,0.3S8,24.7,8,25
	s0.1,0.5,0.3,0.7S8.7,26,9,26z M24.9,30h8c0.3,0,0.5,0.1,0.7,0.3s0.3,0.4,0.3,0.7s-0.1,0.5-0.3,0.7S33.1,32,32.8,32h-8
	c-0.3,0-0.5-0.1-0.7-0.3c-0.2-0.2-0.3-0.4-0.3-0.7s0.1-0.5,0.3-0.7C24.4,30.1,24.6,30,24.9,30z M9,38h17.9c0.3,0,0.5-0.1,0.7-0.3
	c0.2-0.2,0.3-0.4,0.3-0.7s-0.1-0.5-0.3-0.7c-0.2-0.2-0.4-0.3-0.7-0.3H9c-0.3,0-0.5,0.1-0.7,0.3C8.1,36.5,8,36.7,8,37
	s0.1,0.5,0.3,0.7C8.4,37.9,8.7,38,9,38z M14.9,20H9c-0.3,0-0.5-0.1-0.7-0.3C8.1,19.5,8,19.3,8,19s0.1-0.5,0.3-0.7
	C8.4,18.1,8.7,18,9,18h6c0.3,0,0.5,0.1,0.7,0.3c0.2,0.2,0.3,0.4,0.3,0.7s-0.1,0.5-0.3,0.7C15.4,19.9,15.2,20,14.9,20z M42.8,24h-9.9
	c-0.3,0-0.5,0.1-0.7,0.3c-0.2,0.2-0.3,0.4-0.3,0.7s0.1,0.5,0.3,0.7c0.2,0.2,0.4,0.3,0.7,0.3h9.9c0.3,0,0.5-0.1,0.7-0.3
	s0.3-0.4,0.3-0.7s-0.1-0.5-0.3-0.7S43,24,42.8,24z M20.9,32H9c-0.3,0-0.5-0.1-0.7-0.3S8,31.3,8,31s0.1-0.5,0.3-0.7S8.7,30,9,30h11.9
	c0.3,0,0.5,0.1,0.7,0.3c0.2,0.2,0.3,0.4,0.3,0.7s-0.1,0.5-0.3,0.7C21.4,31.9,21.2,32,20.9,32z M24.9,48h-4c-0.3,0-0.5,0.1-0.7,0.3
	s-0.3,0.4-0.3,0.7s0.1,0.5,0.3,0.7s0.4,0.3,0.7,0.3h4c0.3,0,0.5-0.1,0.7-0.3c0.2-0.2,0.3-0.4,0.3-0.7s-0.1-0.5-0.3-0.7
	C25.4,48.1,25.1,48,24.9,48z M16.9,50H9c-0.3,0-0.5-0.1-0.7-0.3C8.1,49.5,8,49.3,8,49s0.1-0.5,0.3-0.7C8.4,48.1,8.7,48,9,48h8
	c0.3,0,0.5,0.1,0.7,0.3s0.3,0.4,0.3,0.7s-0.1,0.5-0.3,0.7S17.2,50,16.9,50z M9,44h6c0.3,0,0.5-0.1,0.7-0.3c0.2-0.2,0.3-0.4,0.3-0.7
	s-0.1-0.5-0.3-0.7c-0.2-0.2-0.4-0.3-0.7-0.3H9c-0.3,0-0.5,0.1-0.7,0.3C8.1,42.5,8,42.7,8,43s0.1,0.5,0.3,0.7C8.4,43.9,8.7,44,9,44z
	 M20.9,14H9c-0.3,0-0.5-0.1-0.7-0.3S8,13.3,8,13s0.1-0.5,0.3-0.7S8.7,12,9,12h11.9c0.3,0,0.5,0.1,0.7,0.3c0.2,0.2,0.3,0.4,0.3,0.7
	s-0.1,0.5-0.3,0.7C21.4,13.9,21.2,14,20.9,14z M24.9,42h-6c-0.3,0-0.5,0.1-0.7,0.3s-0.3,0.4-0.3,0.7s0.1,0.5,0.3,0.7
	s0.4,0.3,0.7,0.3h6c0.3,0,0.5-0.1,0.7-0.3s0.3-0.4,0.3-0.7s-0.1-0.5-0.3-0.7S25.1,42,24.9,42z M38.2,48.1c0.1,0.1,0.2,0.1,0.3,0.2
	l3.1,3.1l7.3-11c0.1-0.2,0.4-0.4,0.6-0.4s0.5,0,0.7,0.1c0.2,0.1,0.4,0.4,0.4,0.6c0.1,0.3,0,0.5-0.1,0.7l-8,12
	c-0.1,0.1-0.2,0.2-0.3,0.3C42.2,53.9,42,54,41.9,54c0,0-0.1,0-0.1,0c-0.1,0-0.3,0-0.4-0.1c-0.1-0.1-0.2-0.1-0.3-0.2l-4-4
	c-0.1-0.1-0.2-0.2-0.2-0.3c0-0.1-0.1-0.3-0.1-0.4s0-0.3,0.1-0.4c0-0.1,0.1-0.2,0.2-0.3c0.1-0.1,0.2-0.2,0.3-0.2
	c0.1-0.1,0.2-0.1,0.4-0.1S38.1,48,38.2,48.1z"/>
</svg>
