<?xml version="1.0" encoding="utf-8"?>
<!-- Generator: Adobe Illustrator 24.0.2, SVG Export Plug-In . SVG Version: 6.00 Build 0)  -->
<svg version="1.1" id="Layer_1" xmlns="http://www.w3.org/2000/svg" xmlns:xlink="http://www.w3.org/1999/xlink" x="0px" y="0px"
	 viewBox="0 0 60 60" style="enable-background:new 0 0 60 60;" xml:space="preserve">
<style type="text/css">
	.st0{fill:none;}
</style>
<rect class="st0" width="60" height="60"/>
<path d="M55.1,29.1c-0.4,0-0.7,0.2-0.9,0.6l-0.8,2l-2-7.3c-0.1-0.4-0.4-0.6-0.8-0.7c-0.4,0-0.7,0.2-0.9,0.5l-2.4,4.9H46
	c1.3-2.5,1.9-5.2,1.9-8.1c0-9.9-8.1-18-18-18s-18,8.1-18,18c0,2.9,0.7,5.6,1.9,8.1l-0.1,0c-0.4,0-0.7,0.2-0.9,0.6l-0.8,2l-2-7.3
	c-0.1-0.4-0.4-0.6-0.8-0.7c-0.4,0-0.7,0.2-0.9,0.5L6,29.1H3v1.8h3.6c0.3,0,0.7-0.2,0.8-0.5L9,27.1l2.1,7.6c0.1,0.4,0.4,0.6,0.8,0.7
	c0,0,0,0,0.1,0c0.4,0,0.7-0.2,0.8-0.6l1.6-3.9l0.6,0c0.5,0.7,1,1.4,1.5,2c0,0.1,0.1,0.2,0.1,0.3c2.9,4.4,3.1,5.3,3.6,8.1
	c0.1,0.5,0.2,1.1,0.3,1.7c0.2,1.1,0.9,2,1.8,2.6c-0.3,0.4-0.5,1-0.5,1.5c0,1,0.5,1.8,1.3,2.3c-0.2,0.4-0.4,0.8-0.4,1.3
	c0,1,0.5,1.8,1.3,2.3c-0.2,0.4-0.4,0.8-0.4,1.3c0,1.5,1.2,2.7,2.7,2.7h7.2c1.5,0,2.7-1.2,2.7-2.7c0-0.5-0.1-0.9-0.4-1.3
	c0.8-0.5,1.3-1.3,1.3-2.3c0-0.5-0.1-0.9-0.4-1.3c0.8-0.5,1.3-1.3,1.3-2.3c0-0.6-0.2-1.1-0.5-1.5c0.9-0.6,1.5-1.5,1.8-2.6
	c0.1-0.6,0.2-1.2,0.3-1.7c0.5-2.7,0.7-3.6,3.6-8.1c0.1-0.1,0.1-0.2,0.1-0.3c0.6-0.6,1.1-1.3,1.5-2h3c0.3,0,0.7-0.2,0.8-0.5l1.6-3.3
	l2.1,7.6c0.1,0.4,0.4,0.6,0.8,0.7c0,0,0,0,0.1,0c0.4,0,0.7-0.2,0.8-0.6l1.6-3.9l1.2,0l0-1.8L55.1,29.1z M33.5,55.2h-7.2
	c-0.5,0-0.9-0.4-0.9-0.9c0-0.5,0.4-0.9,0.9-0.9h7.2c0.5,0,0.9,0.4,0.9,0.9C34.4,54.8,34,55.2,33.5,55.2z M34.4,51.6h-0.9h-7.2h-0.9
	c-0.5,0-0.9-0.4-0.9-0.9c0-0.5,0.4-0.9,0.9-0.9h9c0.5,0,0.9,0.4,0.9,0.9C35.3,51.2,34.9,51.6,34.4,51.6z M35.3,48h-0.9h-9h-0.9
	c-0.5,0-0.9-0.4-0.9-0.9s0.4-0.9,0.9-0.9h10.8c0.5,0,0.9,0.4,0.9,0.9S35.8,48,35.3,48z M41.7,32.1c-0.1,0.2-0.2,0.4-0.2,0.6
	c-2.9,4.4-3.1,5.6-3.6,8.3c-0.1,0.5-0.2,1-0.3,1.7c-0.2,1.1-1.1,1.8-2.1,1.8h-0.1h-1.6l2.4-13.5h1c1.5,0,2.7-1.2,2.7-2.7v-3.6h2.7
	c0.5,0,0.9-0.4,0.9-0.9v-4.5c0-1.5-1.2-2.7-2.7-2.7v-2.7c0-1.5-1.2-2.7-2.7-2.7h-0.9c0-1.5-1.2-2.7-2.7-2.7h-2.7
	c-0.5,0-0.9,0.4-0.9,0.9V30c0,0.5,0.4,0.9,0.9,0.9h2.5l-2.4,13.5H28l-2.4-13.5h2.5c0.5,0,0.9-0.4,0.9-0.9V9.3c0-0.5-0.4-0.9-0.9-0.9
	h-2.7c-1.5,0-2.7,1.2-2.7,2.7h-0.9c-1.5,0-2.7,1.2-2.7,2.7v2.7c-1.5,0-2.7,1.2-2.7,2.7v6.3c0,0.5,0.4,0.9,0.9,0.9h2.7v1.8
	c0,1.5,1.2,2.7,2.7,2.7h1l2.4,13.5h-1.6h-0.1c-1,0-1.9-0.7-2.1-1.8c-0.1-0.6-0.2-1.2-0.3-1.7c-0.5-2.7-0.7-3.9-3.6-8.3
	c0-0.2-0.1-0.4-0.2-0.6c-2.8-3-4.4-6.9-4.4-11.1C13.8,12.1,21,4.8,30,4.8S46.1,12.1,46.1,21C46.1,25.1,44.6,29.1,41.7,32.1z
	 M36.2,18.3v-2.7c0-0.5-0.4-0.9-0.9-0.9h-2.7v-4.5h1.8c0.5,0,0.9,0.4,0.9,0.9V12c0,0.5,0.4,0.9,0.9,0.9H38c0.5,0,0.9,0.4,0.9,0.9
	v3.6c0,0.5,0.4,0.9,0.9,0.9h0.9c0.5,0,0.9,0.4,0.9,0.9v3.6h-2.7h-3.6c-0.5,0-0.9,0.4-0.9,0.9v1.8h1.8v-0.9H38v3.6
	c0,0.5-0.4,0.9-0.9,0.9h-4.5V16.5h1.8v1.8H36.2z M21,21c-0.5,0-0.9,0.4-0.9,0.9v2.7h-1.8v-5.4c0-0.5,0.4-0.9,0.9-0.9h0.9
	c0.5,0,0.9-0.4,0.9-0.9v-3.6c0-0.5,0.4-0.9,0.9-0.9h0.9v1.8h1.8V12v-0.9c0-0.5,0.4-0.9,0.9-0.9h1.8v18.9h-4.5
	c-0.5,0-0.9-0.4-0.9-0.9v-2.7v-2.7h1.8V21H21z"/>
</svg>
