<?xml version="1.0" encoding="utf-8"?>
<!-- Generator: Adobe Illustrator 24.0.2, SVG Export Plug-In . SVG Version: 6.00 Build 0)  -->
<svg version="1.1" id="Layer_1" xmlns="http://www.w3.org/2000/svg" xmlns:xlink="http://www.w3.org/1999/xlink" x="0px" y="0px"
	 viewBox="0 0 60 60" style="enable-background:new 0 0 60 60;" xml:space="preserve">
<style type="text/css">
	.st0{fill:none;}
	.st1{fill-rule:evenodd;clip-rule:evenodd;}
</style>
<rect class="st0" width="60" height="60"/>
<path class="st1" d="M51.2,25.4c0,0.5-0.4,1-1,1h-3.7V29h3.7c0.5,0,1,0.4,1,1c0,0.5-0.4,1-1,1h-3.7v2.7h3.7c0.5,0,1,0.4,1,1
	c0,0.5-0.4,1-1,1h-3.7v2.7h3.7c0.5,0,1,0.4,1,1c0,0.5-0.4,1-1,1h-3.7v1.6c0,0.3-0.1,0.5-0.3,0.7l-2.8,2.8c-0.2,0.2-0.4,0.3-0.7,0.3
	h-1.6v3.7c0,0.5-0.4,1-1,1c-0.5,0-1-0.4-1-1v-3.7h-2.7v3.7c0,0.5-0.4,1-1,1c-0.5,0-1-0.4-1-1v-3.7h-2.7v3.5c0,3.3-2.6,5.9-5.9,5.9
	c-2.7,0-5-1.8-5.7-4.3c-2-0.2-3.9-1.1-5.4-2.6c-1.6-1.7-2.5-3.9-2.5-6.2c0-1.2,0.2-2.3,0.7-3.4C10,36.9,8,33.6,8,30
	c0-2,0.6-3.9,1.7-5.5c0.9-1.3,2.1-2.3,3.4-3.1c-0.4-1.1-0.7-2.2-0.7-3.4c0-2.3,0.9-4.5,2.5-6.2c1.4-1.5,3.3-2.4,5.4-2.6
	C21.1,6.8,23.4,5,26,5c3.2,0,5.9,2.6,5.9,5.9v3.5h2.7v-3.7c0-0.5,0.4-1,1-1s1,0.4,1,1v3.7h2.7v-3.7c0-0.5,0.4-1,1-1s1,0.4,1,1v3.7
	h1.6c0.3,0,0.5,0.1,0.7,0.3l2.8,2.8c0.2,0.2,0.3,0.4,0.3,0.7v1.6h3.7c0.5,0,1,0.4,1,1c0,0.5-0.4,1-1,1h-3.7v2.7h3.7
	C50.8,24.4,51.2,24.9,51.2,25.4z M22.4,50.6c0.6,1.4,2,2.4,3.6,2.4c2.2,0,3.9-1.8,3.9-3.9v-12h-3l-2.6,2.6c0.3,0.5,0.4,1.1,0.4,1.7
	c0,0.9-0.4,1.8-1,2.4c-0.7,0.7-1.6,1-2.4,1c-0.9,0-1.8-0.3-2.4-1c-0.7-0.7-1-1.5-1-2.4c0-0.9,0.4-1.8,1-2.5c1.1-1.1,2.8-1.3,4.1-0.6
	l2.9-2.9c0.2-0.2,0.4-0.3,0.6-0.3c0,0,0,0,0.1,0H30V31h-6.1c-0.4,1.4-1.8,2.5-3.3,2.5c-1.9,0-3.5-1.6-3.5-3.5c0-1.9,1.6-3.5,3.5-3.5
	c1.6,0,2.9,1.1,3.3,2.5H30v-4.2h-3.4c-0.3,0-0.5-0.1-0.7-0.3L23,21.7c-0.5,0.3-1.1,0.4-1.7,0.4c-0.9,0-1.8-0.3-2.4-1
	c-0.7-0.7-1-1.5-1-2.4c0-0.9,0.4-1.8,1-2.4c1.3-1.4,3.5-1.4,4.9,0c0.7,0.7,1,1.5,1,2.4c0,0.6-0.1,1.2-0.4,1.7l2.6,2.6h3v-12
	C30,8.7,28.2,7,26,7c-1.6,0-3,1-3.6,2.4c0.7,0.1,1.4,0.3,2.1,0.6c1,0.4,1.8,1.1,2.6,1.8c0.4,0.4,0.4,1,0,1.4
	c-0.2,0.2-0.4,0.3-0.7,0.3c-0.3,0-0.5-0.1-0.7-0.3c-0.6-0.6-1.2-1.1-2-1.4c-0.8-0.4-1.6-0.6-2.5-0.6c-3.7,0.1-6.7,3.1-6.7,6.9
	c0,1.2,0.3,2.3,0.9,3.4c0.3,0.6,0.1,1.1-0.5,1.4c-3,1.2-4.9,4-4.9,7.2c0,3.2,1.9,6,4.9,7.2c0.3,0.1,0.5,0.3,0.6,0.6
	c0.1,0.3,0.1,0.6-0.1,0.8c-0.6,1-0.9,2.2-0.9,3.4c0,3.7,3,6.8,6.7,6.9c0.9,0,1.7-0.2,2.5-0.6c0.8-0.3,1.4-0.8,2-1.4
	c0.4-0.4,1-0.4,1.4,0c0.4,0.4,0.4,1,0,1.4c-0.7,0.8-1.6,1.4-2.6,1.8C23.8,50.3,23.1,50.5,22.4,50.6z M22.4,19.7
	c0.3-0.3,0.4-0.7,0.4-1.1s-0.2-0.8-0.4-1.1c-0.6-0.6-1.5-0.6-2.1,0c-0.3,0.3-0.4,0.7-0.4,1.1c0,0.4,0.2,0.8,0.4,1.1
	C20.8,20.3,21.8,20.3,22.4,19.7z M20.6,31.5c0.8,0,1.5-0.7,1.5-1.5c0-0.8-0.7-1.5-1.5-1.5c-0.8,0-1.5,0.7-1.5,1.5
	C19,30.8,19.7,31.5,20.6,31.5z M22.4,42.4c0.3-0.3,0.4-0.7,0.4-1.1c0-0.4-0.2-0.8-0.4-1.1l0,0l0,0c-0.6-0.6-1.5-0.6-2.1,0
	c-0.3,0.3-0.4,0.7-0.4,1.1c0,0.4,0.2,0.8,0.4,1.1C20.8,43,21.8,43,22.4,42.4z M42.3,43.6l2.2-2.3V18.6l-2.2-2.3H31.9v2.9h8.8
	c0.5,0,1,0.4,1,1v5.4c0,0.5-0.4,1-1,1c-0.5,0-1-0.4-1-1v-4.4h-7.8v17.6h7.8v-4.4c0-0.5,0.4-1,1-1c0.5,0,1,0.4,1,1v5.4
	c0,0.5-0.4,1-1,1h-8.8v2.9H42.3z M39.7,30c0-0.5,0.4-1,1-1s1,0.4,1,1c0,0.5-0.4,1-1,1C40.2,31,39.7,30.5,39.7,30L39.7,30z"/>
</svg>
