<?xml version="1.0" encoding="utf-8"?>
<!-- Generator: Adobe Illustrator 24.0.2, SVG Export Plug-In . SVG Version: 6.00 Build 0)  -->
<svg version="1.1" id="Layer_1" xmlns="http://www.w3.org/2000/svg" xmlns:xlink="http://www.w3.org/1999/xlink" x="0px" y="0px"
	 viewBox="0 0 60 60" style="enable-background:new 0 0 60 60;" xml:space="preserve">
<style type="text/css">
	.st0{fill:none;}
</style>
<rect class="st0" width="60" height="60"/>
<path d="M59.4,16.4L40.5,9c-0.5-0.2-1,0.1-1.2,0.5c-0.2,0.5,0.1,1,0.5,1.2l16.8,6.5L45,21.7L30.4,15c-0.4-0.2-1,0-1.2,0.5
	c-0.2,0.5,0,1,0.4,1.2l13,6L30,27.5L3.4,17.2L30,6.9l6.6,2.5c0.5,0.2,1-0.1,1.2-0.5c0.2-0.5-0.1-1-0.5-1.2l-6.9-2.7
	c-0.2-0.1-0.4-0.1-0.6,0L0.6,16.4C0.2,16.5,0,16.8,0,17.2v4.1c0,0.4,0.2,0.7,0.6,0.8l9.1,3.5v3.1c0,0.5,0.4,0.9,0.9,0.9
	c0.5,0,0.9-0.4,0.9-0.9v-2.5l18.2,7.1c0.1,0,0.2,0.1,0.3,0.1s0.2,0,0.3-0.1l13.7-5.3v14.4c-4.3,2.3-9.2,3.5-14.1,3.5
	c-6.7,0-13.3-2.3-18.6-6.5v-7.1c0-0.5-0.4-0.9-0.9-0.9c-0.5,0-0.9,0.4-0.9,0.9V40c0,0.3,0.1,0.5,0.3,0.7c5.7,4.6,12.8,7.2,20,7.2
	c4.9,0,9.7-1.2,14.1-3.3v3.7c-1.4,0.4-2.5,1.7-2.5,3.3c0,1.9,1.5,3.4,3.4,3.4c1.9,0,3.4-1.5,3.4-3.4c0-1.6-1.1-2.9-2.5-3.3v-4.6
	c1.5-0.8,2.8-1.8,4.2-2.9c0.2-0.2,0.3-0.4,0.3-0.7V25.7l9.1-3.5c0.3-0.1,0.6-0.5,0.6-0.8v-4.1C60,16.8,59.8,16.5,59.4,16.4
	L59.4,16.4z M46.6,51.6c0,0.9-0.7,1.6-1.6,1.6c-0.9,0-1.6-0.7-1.6-1.6c0-0.9,0.7-1.6,1.6-1.6C45.8,49.9,46.6,50.7,46.6,51.6z
	 M1.8,18.5l27.3,10.6v2.2L1.8,20.7V18.5z M30.9,31.3v-2.2L44.1,24v2.2L30.9,31.3z M48.6,39.6c-0.9,0.7-1.8,1.3-2.7,1.9v-14l2.7-1.1
	V39.6z M45.8,25.5v-2.2l12.4-4.8v2.2L45.8,25.5z"/>
</svg>
