<?xml version="1.0" encoding="utf-8"?>
<!-- Generator: Adobe Illustrator 24.0.2, SVG Export Plug-In . SVG Version: 6.00 Build 0)  -->
<svg version="1.1" id="Layer_1" xmlns="http://www.w3.org/2000/svg" xmlns:xlink="http://www.w3.org/1999/xlink" x="0px" y="0px"
	 viewBox="0 0 60 60" style="enable-background:new 0 0 60 60;" xml:space="preserve">
<style type="text/css">
	.st0{fill:none;}
	.st1{fill-rule:evenodd;clip-rule:evenodd;}
</style>
<rect class="st0" width="60" height="60"/>
<path class="st1" d="M56.9,13.4c-0.1-2-1.4-3.7-3.3-4.5L31.9,0.4c-1.2-0.5-2.6-0.5-3.8,0L6.3,8.9c-1.9,0.7-3.1,2.5-3.3,4.5
	C3,15.3,2.5,25.3,6.2,35.8c1.8,5.3,4.4,9.9,7.6,13.7c3.9,4.6,8.7,8,14.4,10.2c0.6,0.2,1.2,0.3,1.8,0.3c0.6,0,1.2-0.1,1.8-0.3
	c5.7-2.2,10.6-5.6,14.4-10.2c3.2-3.8,5.8-8.4,7.6-13.7C57.4,25.3,57,15.3,56.9,13.4z M52.1,35.2c-1.7,5.1-4.2,9.5-7.2,13.1
	c-3.7,4.3-8.3,7.6-13.7,9.7c-0.8,0.3-1.6,0.3-2.4,0c-5.4-2.1-10-5.3-13.7-9.7c-3.1-3.6-5.5-8-7.2-13.1C4.3,25,4.7,15.3,4.8,13.5
	C4.9,12.2,5.8,11,7,10.6L28.7,2c0.4-0.2,0.8-0.2,1.2-0.2c0.4,0,0.8,0.1,1.2,0.2L53,10.6c1.2,0.5,2.1,1.6,2.1,2.9
	C55.2,15.3,55.6,25,52.1,35.2z M48.6,13.2l-17-6.7c-1-0.4-2.1-0.4-3.1,0l-17,6.7c-1.5,0.6-2.6,2-2.7,3.7c-0.1,1.2-0.2,4.3,0.3,8.5
	c0.1,0.5,0.5,0.8,1,0.8c0.5-0.1,0.8-0.5,0.8-1c-0.5-4-0.4-7.1-0.3-8.2c0.1-0.9,0.7-1.8,1.6-2.1l17-6.7c0.6-0.2,1.2-0.2,1.8,0l17,6.7
	c0.9,0.3,1.5,1.2,1.6,2.1c0.1,1.9,0.9,18.7-9.6,29.1c-0.3,0.3-0.3,0.9,0,1.2c0.2,0.2,0.4,0.3,0.6,0.3c0.2,0,0.4-0.1,0.6-0.3
	c11-10.9,10.2-28.5,10.1-30.5C51.1,15.2,50.1,13.8,48.6,13.2z M30.8,51.9c2.2-0.8,4.2-1.9,6-3.2c0.4-0.3,0.9-0.2,1.2,0.2
	c0.3,0.4,0.2,0.9-0.2,1.2c-1.9,1.4-4.1,2.6-6.4,3.4c-0.5,0.2-1,0.3-1.5,0.3c-0.5,0-1-0.1-1.5-0.3c-12.3-4.7-16.9-15.7-18.7-24
	c-0.1-0.5,0.2-0.9,0.7-1c0.5-0.1,0.9,0.2,1,0.7c1.7,7.9,6.1,18.3,17.6,22.7C29.7,52.1,30.3,52.1,30.8,51.9z M30,16.9
	c-7.2,0-13.1,5.9-13.1,13.1c0,7.2,5.9,13.1,13.1,13.1c7.2,0,13.1-5.9,13.1-13.1S37.2,16.9,30,16.9z M30,41.3
	c-6.3,0-11.3-5.1-11.3-11.3S23.7,18.7,30,18.7c6.3,0,11.3,5.1,11.3,11.3S36.2,41.3,30,41.3z M37.3,24.3c0.7,0.6,1.1,1.4,1.1,2.3
	c0,0.9-0.3,1.7-0.9,2.3l-6.9,6.8c-0.6,0.6-1.4,0.9-2.2,0.9c-0.7,0-1.4-0.2-2-0.8l-3.6-3c-0.7-0.6-1-1.3-1.1-2.2
	c-0.1-0.9,0.2-1.7,0.8-2.3c1.2-1.3,3.2-1.4,4.4-0.2l1.2,1.1l4.7-4.9c1.2-1.2,3.1-1.3,4.3-0.2L37.3,24.3z M29.3,34.5l6.9-6.8
	c0.3-0.3,0.4-0.6,0.4-1c0-0.4-0.2-0.7-0.5-1l-0.2-0.2C35.3,25,34.5,25,34,25.5l-4.8,5c-0.6,0.6-1.6,0.7-2.2,0.1l-1.3-1.2
	c-0.3-0.2-0.6-0.4-0.9-0.4c-0.4,0-0.8,0.2-1,0.5c-0.3,0.3-0.4,0.6-0.4,1s0.2,0.7,0.5,1l3.6,3C28,35,28.8,35,29.3,34.5z"/>
</svg>
