<?xml version="1.0" encoding="utf-8"?>
<!-- Generator: Adobe Illustrator 24.0.2, SVG Export Plug-In . SVG Version: 6.00 Build 0)  -->
<svg version="1.1" id="Layer_1" xmlns="http://www.w3.org/2000/svg" xmlns:xlink="http://www.w3.org/1999/xlink" x="0px" y="0px"
	 viewBox="0 0 60 60" style="enable-background:new 0 0 60 60;" xml:space="preserve">
<style type="text/css">
	.st0{fill:none;}
</style>
<rect class="st0" width="60" height="60"/>
<path d="M11.5,34.8C10.4,34.3,9.2,34,8,34c-4.4,0-8,3.6-8,8s3.6,8,8,8c2.8,0,5.2-1.4,6.6-3.6l7.6,3.8C22.1,50.8,22,51.4,22,52
	c0,4.4,3.6,8,8,8s8-3.6,8-8c0-1.7-0.5-3.2-1.4-4.5l10.6-11.1c1.3,1,3,1.6,4.8,1.6c4.4,0,8-3.6,8-8s-3.6-8-8-8
	c-1.8,0-3.5,0.6-4.9,1.7L36.3,12.9C37.4,11.5,38,9.8,38,8c0-4.4-3.6-8-8-8s-8,3.6-8,8c0,0.6,0.1,1.2,0.2,1.8l-7.1,2.6
	C13.8,9.8,11.1,8,8,8c-4.4,0-8,3.6-8,8s3.6,8,8,8c1.1,0,2.2-0.2,3.2-0.7l3.7,6.2L11.5,34.8z M8,48c-3.3,0-6-2.7-6-6s2.7-6,6-6
	s6,2.7,6,6S11.3,48,8,48z M15.5,44.7c0.3-0.8,0.5-1.7,0.5-2.7c0-2.5-1.1-4.6-2.9-6.1l2.9-4.4L24.7,46c-0.7,0.6-1.3,1.4-1.8,2.3
	L15.5,44.7z M30,16c1.8,0,3.5-0.6,4.9-1.7l10.8,10.8c-0.6,0.8-1.1,1.8-1.4,2.8L38,27.1c0,0,0-0.1,0-0.1c0-4.4-3.6-8-8-8
	c-2.8,0-5.2,1.4-6.6,3.6L22.2,22l4.4-6.8C27.6,15.7,28.8,16,30,16z M31,44.1v-9.1c3.2-0.4,5.9-2.8,6.7-5.9l6.3,0.9c0,0,0,0.1,0,0.1
	c0,1.9,0.7,3.7,1.8,5L35.3,46C34.1,45,32.6,44.3,31,44.1L31,44.1z M30,21c3.3,0,6,2.7,6,6s-2.7,6-6,6s-6-2.7-6-6S26.7,21,30,21
	L30,21z M22.5,24.3C22.2,25.2,22,26.1,22,27c0,4.1,3.1,7.4,7,7.9v9.1c-0.9,0.1-1.8,0.4-2.7,0.8l-9.1-15.3l3.8-5.9L22.5,24.3z M30,58
	c-3.3,0-6-2.7-6-6s2.7-6,6-6s6,2.7,6,6S33.3,58,30,58z M52,24c3.3,0,6,2.7,6,6s-2.7,6-6,6s-6-2.7-6-6S48.7,24,52,24z M30,2
	c3.3,0,6,2.7,6,6s-2.7,6-6,6s-6-2.7-6-6S26.7,2,30,2z M22.9,11.6c0.5,0.9,1.2,1.8,2,2.5l-4.5,6.9l-4.8-2.4c0.3-0.8,0.5-1.7,0.5-2.7
	c0-0.6-0.1-1.2-0.2-1.8L22.9,11.6z M2,16c0-3.3,2.7-6,6-6s6,2.7,6,6s-2.7,6-6,6S2,19.3,2,16z M12.9,22.3c0.7-0.5,1.3-1.1,1.7-1.9
	l4.6,2.3l-3.2,4.9L12.9,22.3z"/>
</svg>
