<?xml version="1.0" encoding="utf-8"?>
<!-- Generator: Adobe Illustrator 24.0.2, SVG Export Plug-In . SVG Version: 6.00 Build 0)  -->
<svg version="1.1" id="Layer_1" xmlns="http://www.w3.org/2000/svg" xmlns:xlink="http://www.w3.org/1999/xlink" x="0px" y="0px"
	 viewBox="0 0 60 60" style="enable-background:new 0 0 60 60;" xml:space="preserve">
<style type="text/css">
	.st0{fill:none;}
	.st1{fill-rule:evenodd;clip-rule:evenodd;}
</style>
<rect class="st0" width="60" height="60"/>
<path class="st1" d="M31.1,4.2c0,0.5-0.4,0.9-0.9,0.9s-0.9-0.4-0.9-0.9V0.9c0-0.5,0.4-0.9,0.9-0.9s0.9,0.4,0.9,0.9V4.2z M45.1,10
	l2.3-2.3c0.3-0.3,0.9-0.3,1.2,0c0.3,0.3,0.3,0.9,0,1.2l-2.3,2.3c-0.2,0.2-0.4,0.3-0.6,0.3s-0.4-0.1-0.6-0.3
	C44.8,10.9,44.8,10.3,45.1,10z M14,41.1l-2.3,2.3c-0.3,0.3-0.3,0.9,0,1.2c0.2,0.2,0.4,0.3,0.6,0.3c0.2,0,0.4-0.1,0.6-0.3l2.3-2.3
	c0.3-0.3,0.3-0.9,0-1.2C14.9,40.8,14.3,40.8,14,41.1z M52.2,25.3h3.3c0.5,0,0.9,0.4,0.9,0.9c0,0.5-0.4,0.9-0.9,0.9h-3.3
	c-0.5,0-0.9-0.4-0.9-0.9C51.3,25.7,51.7,25.3,52.2,25.3z M8.2,25.3H4.9c-0.5,0-0.9,0.4-0.9,0.9c0,0.5,0.4,0.9,0.9,0.9h3.3
	c0.5,0,0.9-0.4,0.9-0.9C9,25.7,8.6,25.3,8.2,25.3z M45.1,41.1c0.3-0.3,0.9-0.3,1.2,0l2.3,2.3c0.3,0.3,0.3,0.9,0,1.2
	c-0.2,0.2-0.4,0.3-0.6,0.3c-0.2,0-0.4-0.1-0.6-0.3l-2.3-2.3C44.8,42,44.8,41.5,45.1,41.1z M14,11.2c0.2,0.2,0.4,0.3,0.6,0.3
	c0.2,0,0.4-0.1,0.6-0.3c0.3-0.3,0.3-0.9,0-1.2l-2.3-2.3c-0.3-0.3-0.9-0.3-1.2,0c-0.3,0.3-0.3,0.9,0,1.2L14,11.2z M41.8,11.8
	c4.3,3.5,6.8,8.8,6.8,14.3c0,7.7-4.7,14.2-11.3,17c0.8,0.4,1.4,1.3,1.4,2.3c0,1.1-0.7,2.1-1.8,2.5v2.1c1,0.4,1.8,1.3,1.8,2.5
	S38,54.7,36.9,55v1.7c0,1.8-1.5,3.2-3.2,3.2h-7c-1.8,0-3.2-1.5-3.2-3.2V55c-1-0.4-1.8-1.3-1.8-2.5s0.7-2.1,1.8-2.5V48
	c-1-0.4-1.8-1.3-1.8-2.5c0-1,0.6-1.9,1.4-2.3c-6.6-2.8-11.3-9.4-11.3-17C11.7,16,20,7.7,30.2,7.7c2.9,0,5.7,0.7,8.3,2
	c0.4,0.2,0.6,0.7,0.4,1.2c-0.2,0.4-0.7,0.6-1.2,0.4c-2.3-1.2-4.9-1.8-7.5-1.8C21,9.5,13.5,17,13.5,26.2c0,8.9,7,16.2,15.8,16.7v-2
	C27,40.7,25,39.7,23.6,38c-0.3-0.4-0.3-0.9,0.1-1.2c0.4-0.3,0.9-0.3,1.2,0.1c1.1,1.3,2.6,2,4.4,2.2v-3.5l-3.6-2.9
	c-0.4-0.3-0.4-0.9-0.1-1.2c0.3-0.4,0.9-0.4,1.2-0.1l2.5,2v-4.1L26.6,27c-0.4-0.3-0.4-0.9-0.1-1.2c0.3-0.4,0.9-0.4,1.2-0.1l1.6,1.3
	V23c0-0.5,0.4-0.9,0.9-0.9s0.9,0.4,0.9,0.9v3.9l1.6-1.3c0.4-0.3,0.9-0.2,1.2,0.1c0.3,0.4,0.2,0.9-0.1,1.2l-2.7,2.2v4.1l2.5-2
	c0.4-0.3,0.9-0.2,1.2,0.1c0.3,0.4,0.2,0.9-0.1,1.2l-3.6,2.9v3.5c4-0.4,6.4-3.7,6.4-8.9c0-3.4-2-6.9-3.2-8.7
	c-1.9-2.7-3.6-4.1-4.1-4.3c-0.5,0.2-2.2,1.6-4.1,4.3c-1.2,1.8-3.2,5.2-3.2,8.7c0,1.3,0.2,2.6,0.5,3.7c0.1,0.5-0.1,1-0.6,1.1
	c-0.5,0.1-1-0.1-1.1-0.6c-0.4-1.3-0.6-2.7-0.6-4.2c0-4,2.3-7.9,3.7-9.9c1.2-1.7,3.8-4.9,5.4-4.9c1.6,0,4.2,3.2,5.4,4.9
	c1.4,2,3.7,5.9,3.7,9.9c0,3.3-0.9,6-2.6,7.9c-1.4,1.6-3.4,2.5-5.6,2.7v2c8.8-0.5,15.8-7.8,15.8-16.7c0-5.1-2.3-9.8-6.2-13
	c-0.4-0.3-0.4-0.9-0.1-1.2C40.9,11.6,41.4,11.5,41.8,11.8z M35.2,49.9v-1.8h-10v1.8H35.2z M30.2,53.4h5.9c0.5,0,0.9-0.4,0.9-0.9
	c0-0.5-0.4-0.9-0.9-0.9H24.3c-0.5,0-0.9,0.4-0.9,0.9c0,0.5,0.4,0.9,0.9,0.9h2.1c0.5,0,0.9,0.4,0.9,0.9s-0.4,0.9-0.9,0.9h-1.2v1.6
	c0,0.8,0.7,1.5,1.5,1.5h7c0.8,0,1.5-0.7,1.5-1.5v-1.6h-5c-0.5,0-0.9-0.4-0.9-0.9S29.7,53.4,30.2,53.4z M24.3,46.4h11.7
	c0.5,0,0.9-0.4,0.9-0.9c0-0.5-0.4-0.9-0.9-0.9H24.3c-0.5,0-0.9,0.4-0.9,0.9C23.5,46,23.8,46.4,24.3,46.4z"/>
</svg>
