<?xml version="1.0" encoding="utf-8"?>
<!-- Generator: Adobe Illustrator 24.0.2, SVG Export Plug-In . SVG Version: 6.00 Build 0)  -->
<svg version="1.1" id="Layer_1" xmlns="http://www.w3.org/2000/svg" xmlns:xlink="http://www.w3.org/1999/xlink" x="0px" y="0px"
	 viewBox="0 0 60 60" style="enable-background:new 0 0 60 60;" xml:space="preserve">
<style type="text/css">
	.st0{fill:none;}
</style>
<rect class="st0" width="60" height="60"/>
<path d="M58.2,41.3h-5v-5.1c0-1.3-1.1-2.4-2.4-2.4H30.9v-5.7h13.2c1.4,0,2.6-1.2,2.6-2.6v-5.8c0-0.5-0.4-0.9-0.9-0.9
	s-0.9,0.4-0.9,0.9v5.8c0,0.5-0.4,0.8-0.8,0.8H15.9c-0.5,0-0.8-0.4-0.8-0.8V3.6c0-0.5,0.4-0.8,0.8-0.8h8.7c0.3,0,0.7,0.2,0.8,0.5
	l1,2.8c0.5,1.3,1.7,2.1,3,2.1h14.6c0.5,0,0.8,0.4,0.8,0.8v6.6c0,0.5,0.4,0.9,0.9,0.9s0.9-0.4,0.9-0.9V9V3.4c0-1.3-1.1-2.4-2.4-2.4
	C42.8,1,17,1,15.9,1c-1.4,0-2.6,1.2-2.6,2.6v21.8c0,1.4,1.2,2.6,2.6,2.6h13.2v5.7H9.9c-1.3,0-2.4,1.1-2.4,2.4v5.1h-5
	c-1,0-1.8,0.8-1.8,1.8V45C0.3,45.4,0,45.9,0,46.5V56c0,1.1,0.9,2,2,2h12.5c1.1,0,2-0.9,2-2c0-6,0-7.3,0-12.9c0-1-0.8-1.8-1.8-1.8
	H9.3v-5.1c0-0.3,0.3-0.6,0.6-0.6h19.2v5.7h-4.8c-1,0-1.8,0.8-1.8,1.8V45c-0.4,0.4-0.7,0.9-0.7,1.5V56c0,1.1,0.9,2,2,2h4.2
	c0.5,0,0.9-0.4,0.9-0.9s-0.4-0.9-0.9-0.9h-4.2c-0.1,0-0.2-0.1-0.2-0.2v-9.6c0-0.1,0.1-0.2,0.2-0.2h3.5c0.1,0,0.2,0.1,0.2,0.1
	l0.4,1.1c0.3,0.8,1,1.3,1.8,1.3h6.5c0.1,0,0.2,0.1,0.2,0.2V56c0,0.1-0.1,0.2-0.2,0.2h-4.2c-0.5,0-0.9,0.4-0.9,0.9s0.4,0.9,0.9,0.9
	h4.2c1.1,0,2-0.9,2-2c0-6,0-7.3,0-12.9c0-1-0.8-1.8-1.8-1.8h-5.5v-5.7h19.9c0.3,0,0.6,0.3,0.6,0.6v5.1h-5.3c-1,0-1.8,0.8-1.8,1.8V45
	c-0.4,0.4-0.7,0.9-0.7,1.5V56c0,1.1,0.9,2,2,2H58c1.1,0,2-0.9,2-2c0-6,0-7.3,0-12.9C60,42.1,59.2,41.3,58.2,41.3L58.2,41.3z
	 M44.2,2.8c0.4,0,0.7,0.3,0.7,0.7v3.1c-0.3-0.1-0.6-0.1-0.8-0.1H29.4c-0.6,0-1.2-0.4-1.4-0.9l-1-2.7H44.2z M14.6,56
	c0,0.1-0.1,0.2-0.2,0.2H2c-0.1,0-0.2-0.1-0.2-0.2v-9.6c0-0.1,0.1-0.2,0.1-0.2c0,0,0,0,0,0c0,0,0,0,0,0c0,0,0,0,0,0h3.5
	c0.1,0,0.2,0.1,0.2,0.1l0.4,1.1c0.3,0.8,1,1.3,1.8,1.3h6.5c0.1,0,0.2,0.1,0.2,0.2L14.6,56L14.6,56z M14.6,43.1
	C14.6,43.1,14.6,43.1,14.6,43.1l0.1,4c0,0,0,0,0,0c-0.1,0-0.1,0-0.2,0H7.9c-0.1,0-0.2-0.1-0.2-0.1l-0.4-1.1c-0.3-0.8-1-1.3-1.8-1.3
	H2.4v-1.4c0,0,0-0.1,0.1-0.1L14.6,43.1L14.6,43.1z M36.4,43.1C36.4,43.1,36.4,43.1,36.4,43.1l0.1,4c0,0-0.2,0-0.2,0h-6.5
	c-0.1,0-0.2-0.1-0.2-0.1l-0.4-1.1c-0.3-0.8-1-1.3-1.8-1.3h-3.1v-1.4c0,0,0-0.1,0.1-0.1L36.4,43.1L36.4,43.1z M58.2,56
	c0,0.1-0.1,0.2-0.2,0.2H45.6c-0.1,0-0.2-0.1-0.2-0.2v-9.6c0-0.1,0.1-0.2,0.2-0.2h3.5c0.1,0,0.2,0.1,0.2,0.1l0.4,1.1
	c0.3,0.8,1,1.3,1.8,1.3H58c0.1,0,0.2,0.1,0.2,0.2L58.2,56L58.2,56z M58.2,47c-0.1,0-0.1,0-0.2,0h-6.5c-0.1,0-0.2-0.1-0.2-0.1
	L51,45.8c-0.3-0.8-1-1.3-1.8-1.3h-3.1v-1.4c0,0,0-0.1,0.1-0.1h12c0,0,0.1,0,0.1,0.1V47z"/>
</svg>
