<?xml version="1.0" encoding="utf-8"?>
<!-- Generator: Adobe Illustrator 24.0.2, SVG Export Plug-In . SVG Version: 6.00 Build 0)  -->
<svg version="1.1" id="Layer_1" xmlns="http://www.w3.org/2000/svg" xmlns:xlink="http://www.w3.org/1999/xlink" x="0px" y="0px"
	 viewBox="0 0 60 60" style="enable-background:new 0 0 60 60;" xml:space="preserve">
<style type="text/css">
	.st0{fill:none;}
	.st1{fill-rule:evenodd;clip-rule:evenodd;}
</style>
<rect class="st0" width="60" height="60"/>
<path class="st1" d="M49,0h-6.4c-0.5,0-0.9,0.4-0.9,0.9c0,0.5,0.4,0.9,0.9,0.9H49c0.4,0,0.8,0.4,0.8,0.8v5H19.9V1.8h18.8
	c0.5,0,0.9-0.4,0.9-0.9c0-0.5-0.4-0.9-0.9-0.9H11.6C10.1,0,9,1.1,9,2.6v54.9c0,1.4,1.1,2.6,2.6,2.6H49c1.4,0,2.6-1.1,2.6-2.6V2.6
	C51.6,1.1,50.4,0,49,0z M10.8,2.6c0-0.4,0.4-0.8,0.8-0.8h6.6v5.8h-7.4V2.6z M49.8,57.4c0,0.4-0.4,0.8-0.8,0.8H11.6
	c-0.4,0-0.8-0.4-0.8-0.8V9.3h39.1V57.4z M15.2,44l30.2,0c0.8,0,1.5-0.7,1.5-1.5v-4.8c0-0.8-0.7-1.5-1.5-1.5H15.2
	c-0.8,0-1.5,0.7-1.5,1.5v4.8C13.7,43.4,14.4,44,15.2,44z M41.2,38.1h3.9v4.2h-3.9V38.1z M15.5,38.1h24v4.2h-24V38.1z M22.8,45.7
	h15.1c0.8,0,1.5,0.7,1.5,1.5V52c0,0.8-0.7,1.5-1.5,1.5H22.8c-0.8,0-1.5-0.7-1.5-1.5v-4.8C21.3,46.4,22,45.7,22.8,45.7z M23.1,51.7
	h14.5v-4.2H23.1V51.7z M17.4,31.7c1.2,0.8,2.5,1.1,4,1.1c1.2,0,2.4-0.3,3.5-0.8c2.6-1.3,4.1-3.5,4.1-6.2v-8.6c0-1.7-1.4-3.1-3.1-3.1
	c-1.7,0-3.1,1.4-3.1,3.1v8.6c0,0.2,0,0.4-0.7,0.7c-0.2,0.1-0.4,0.1-0.7,0.1c-0.3,0-0.5-0.1-0.7-0.2c-0.5-0.3-0.5-0.5-0.5-0.7v-1.4
	c0-0.5-0.4-0.9-0.9-0.9c-0.5,0-0.9,0.4-0.9,0.9v1.4c0,0.9,0.4,1.5,1.4,2.1c0.5,0.3,1,0.5,1.6,0.5c0.5,0,1-0.1,1.5-0.3
	c1.5-0.7,1.6-1.6,1.6-2.3v-8.6c0-0.7,0.6-1.3,1.3-1.3c0.7,0,1.3,0.6,1.3,1.3v8.6c0,2-1.1,3.6-3.1,4.6c-0.8,0.4-1.7,0.6-2.7,0.6
	c-1.1,0-2.1-0.3-3-0.9c-1.7-1.1-2.6-2.5-2.6-4.4v-8.6c0-0.7,0.6-1.3,1.3-1.3c0.7,0,1.3,0.6,1.3,1.3v3.2c0,0.5,0.4,0.9,0.9,0.9
	c0.5,0,0.9-0.4,0.9-0.9v-3.2c0-1.7-1.4-3.1-3.1-3.1c-1.7,0-3.1,1.4-3.1,3.1v8.6C14,28.2,15.2,30.2,17.4,31.7z M31.5,32
	c-0.7-0.5-1.1-1.2-1.2-2c-0.1-0.8,0.1-1.6,0.6-2.3l3.6-4.7l-3.1-4.1c-1-1.4-0.8-3.3,0.6-4.3c1.4-1,3.3-0.8,4.3,0.6l2,2.7l2-2.7
	c0.5-0.7,1.2-1.1,2-1.2c0.8-0.1,1.6,0.1,2.3,0.6c0.7,0.5,1.1,1.2,1.2,2c0.1,0.8-0.1,1.6-0.6,2.3L42.2,23l3.8,5
	c0.5,0.7,0.7,1.5,0.6,2.3c-0.1,0.8-0.5,1.5-1.2,2c-0.5,0.4-1.2,0.6-1.9,0.6c-1,0-1.9-0.4-2.5-1.2l-2.7-3.6l-2.5,3.3
	c-0.6,0.8-1.5,1.2-2.5,1.2C32.6,32.7,32,32.4,31.5,32z M36.2,23.5l-4,5.3c-0.2,0.3-0.3,0.6-0.3,1c0,0.4,0.2,0.7,0.5,0.9
	c0.2,0.2,0.5,0.3,0.8,0.3c0.4,0,0.8-0.2,1.1-0.5l3.2-4.3c0.2-0.2,0.4-0.3,0.7-0.3h0c0.3,0,0.5,0.1,0.7,0.3l3.4,4.5
	c0.3,0.3,0.6,0.5,1.1,0.5c0.3,0,0.6-0.1,0.8-0.3c0.3-0.2,0.5-0.5,0.5-0.9c0-0.4,0-0.7-0.3-1l-4.2-5.5c-0.2-0.3-0.2-0.7,0-1.1
	l3.5-4.6c0.2-0.3,0.3-0.6,0.3-1c0-0.4-0.2-0.7-0.5-0.9c-0.3-0.2-0.6-0.3-1-0.3c-0.4,0-0.7,0.2-0.9,0.5L39,19.9
	c-0.2,0.2-0.4,0.3-0.7,0.3h0c-0.3,0-0.5-0.1-0.7-0.3l-2.7-3.6c-0.4-0.6-1.3-0.7-1.9-0.3c-0.6,0.4-0.7,1.3-0.3,1.9l3.5,4.6
	C36.5,22.8,36.5,23.2,36.2,23.5z"/>
</svg>
