<?xml version="1.0" encoding="utf-8"?>
<!-- Generator: Adobe Illustrator 24.0.2, SVG Export Plug-In . SVG Version: 6.00 Build 0)  -->
<svg version="1.1" id="Layer_1" xmlns="http://www.w3.org/2000/svg" xmlns:xlink="http://www.w3.org/1999/xlink" x="0px" y="0px"
	 viewBox="0 0 60 60" style="enable-background:new 0 0 60 60;" xml:space="preserve">
<style type="text/css">
	.st0{fill:none;}
	.st1{fill-rule:evenodd;clip-rule:evenodd;}
</style>
<rect class="st0" width="60" height="60"/>
<path class="st1" d="M15.6,20h-4.3c-1,0-1.9-0.4-2.6-1.1c-0.7-0.7-1.1-1.6-1.1-2.6V9.7c0-1,0.4-1.9,1.1-2.6C9.3,6.4,10.3,6,11.3,6
	h5.4c2.6,0,5.2,1,7.1,2.8h1.5V7.9c0-0.2,0.1-0.5,0.3-0.7C25.7,7,26,6.9,26.2,6.9h25.2v1.9H27.1V20h8.4v1.9h-9.3
	c-0.2,0-0.5-0.1-0.7-0.3c-0.2-0.2-0.3-0.4-0.3-0.7V20h-1.5L19,24.7c-0.3,0.3-0.6,0.5-0.9,0.6c-0.4,0.1-0.7,0.2-1.1,0.2
	s-0.8-0.1-1.1-0.2c-0.4-0.1-0.7-0.4-0.9-0.6c-0.3-0.3-0.5-0.6-0.6-0.9c-0.1-0.4-0.2-0.7-0.2-1.1c0-0.4,0.1-0.8,0.2-1.1
	c0.1-0.4,0.4-0.7,0.6-0.9L15.6,20z M10,8.4C9.6,8.8,9.4,9.2,9.4,9.7v6.5c0,0.5,0.2,1,0.5,1.3c0.3,0.3,0.8,0.5,1.3,0.5h6.5
	c0.2,0,0.4,0.1,0.5,0.2c0.2,0.1,0.3,0.2,0.3,0.4c0.1,0.2,0.1,0.4,0.1,0.5c0,0.2-0.1,0.3-0.3,0.5l-2.2,2.2c-0.2,0.2-0.3,0.5-0.3,0.7
	c0,0.3,0.1,0.5,0.3,0.7c0.2,0.2,0.5,0.3,0.7,0.3c0.3,0,0.5-0.1,0.7-0.3l5-5c0.1-0.1,0.2-0.2,0.3-0.2c0.1,0,0.2-0.1,0.4-0.1h1.9v-7.5
	h-1.9c-0.1,0-0.2,0-0.4-0.1c-0.1,0-0.2-0.1-0.3-0.2C21.9,9.6,21,9,19.9,8.5c-1-0.4-2.2-0.7-3.3-0.7h-5.4C10.8,7.9,10.3,8.1,10,8.4z
	 M30.9,10.7H29v1.9h1.9V10.7z M34.4,45.1l-2.1-3.7l0.9,0.2c0.4,0.1,0.8,0.1,1.1,0.1c0.4,0,0.7-0.2,1.1-0.4c0.3-0.2,0.6-0.4,0.9-0.7
	c0.2-0.3,0.4-0.7,0.5-1c0.1-0.4,0.1-0.8,0.1-1.1c-0.1-0.4-0.2-0.7-0.4-1.1c-0.2-0.3-0.4-0.6-0.8-0.9c-0.3-0.2-0.7-0.4-1-0.5
	l-6.5-1.7L27.4,33l0.8-0.5c0.2-0.1,0.4-0.3,0.4-0.6c0.1-0.2,0-0.5-0.1-0.7L23.8,23l-1.6,0.9l4.3,7.4L16.7,37L4.6,16L3,16.9
	l12.6,21.8c0.1,0.1,0.1,0.2,0.2,0.3c0.1,0.1,0.2,0.1,0.3,0.2c0.1,0,0.2,0,0.4,0c0.1,0,0.2-0.1,0.3-0.1l0.8-0.5l0.7,1.3
	c-0.6,2.6-0.2,5.3,1.1,7.6l2.7,4.7c0.2,0.4,0.6,0.8,1,1.1c0.4,0.3,0.8,0.5,1.3,0.6c0.3,0.1,0.6,0.1,1,0.1c0.7,0,1.3-0.2,1.9-0.5
	l5.7-3.3c0.9-0.5,1.5-1.3,1.7-2.3C35,47,34.9,46,34.4,45.1z M32.1,48.6l-5.7,3.3C26,52.1,25.5,52.2,25,52c-0.5-0.1-0.9-0.4-1.1-0.9
	l-2.7-4.7c-0.6-1-0.9-2.1-1.1-3.2C20,42.2,20,41.1,20.3,40c0.1-0.2,0-0.5-0.1-0.7l-0.9-1.6l6.5-3.7l0.9,1.6c0.1,0.1,0.1,0.2,0.2,0.3
	s0.2,0.1,0.3,0.2l6.9,1.8c0.1,0,0.3,0.1,0.4,0.2c0.1,0.1,0.2,0.2,0.3,0.3c0.1,0.1,0.1,0.3,0.1,0.4c0,0.1,0,0.3,0,0.4
	c0,0.1-0.1,0.3-0.2,0.4c-0.1,0.1-0.2,0.2-0.3,0.3c-0.1,0.1-0.3,0.1-0.4,0.1s-0.3,0-0.4,0l-3-0.8c-0.2,0-0.4,0-0.5,0
	c-0.2,0.1-0.3,0.2-0.4,0.3c-0.1,0.1-0.2,0.3-0.2,0.5c0,0.2,0,0.4,0.1,0.5l3.3,5.7c0.2,0.4,0.3,0.9,0.2,1.4
	C32.8,47.9,32.5,48.3,32.1,48.6z M18.1,31.9l-1.6,0.9l0.9,1.6l1.6-0.9L18.1,31.9z M55.1,14.7l-5.7-3.3c-0.9-0.5-1.9-0.6-2.8-0.4
	c-1,0.3-1.8,0.9-2.3,1.7l-2.1,3.7L42,15.6c-0.2-0.7-0.7-1.4-1.4-1.8c-0.7-0.4-1.5-0.5-2.2-0.3c-0.7,0.2-1.4,0.7-1.8,1.4
	c-0.4,0.7-0.5,1.5-0.3,2.2l1.7,6.5l-0.7,1.3l-0.8-0.5c-0.2-0.1-0.5-0.2-0.7-0.1c-0.2,0.1-0.4,0.2-0.6,0.4l-4.7,8.1l1.6,0.9l4.2-7.3
	l9.7,5.6L34,53.1l1.6,0.9l12.6-21.8c0.1-0.2,0.2-0.5,0.1-0.7c-0.1-0.2-0.2-0.4-0.4-0.6l-0.8-0.5l0.7-1.3c2.5-0.8,4.7-2.5,6-4.8
	l2.7-4.7c0.5-0.9,0.6-1.9,0.4-2.8C56.6,16,56,15.2,55.1,14.7z M54.9,18.8l-2.7,4.7c-0.6,1-1.3,1.8-2.2,2.5c-0.9,0.7-1.9,1.2-3,1.5
	c-0.1,0-0.2,0.1-0.3,0.2c-0.1,0.1-0.2,0.2-0.2,0.3l-0.9,1.6L39,25.8l0.9-1.6C40,24.1,40,24,40,23.9c0-0.1,0-0.2,0-0.4l-1.8-6.9
	c0-0.1,0-0.3,0-0.4c0-0.1,0.1-0.3,0.1-0.4c0.1-0.1,0.2-0.2,0.3-0.3c0.1-0.1,0.2-0.1,0.4-0.2c0.1,0,0.3,0,0.4,0
	c0.1,0,0.3,0.1,0.4,0.1c0.1,0.1,0.2,0.2,0.3,0.3c0.1,0.1,0.1,0.2,0.2,0.4l0.8,3c0,0.2,0.1,0.3,0.3,0.5c0.1,0.1,0.3,0.2,0.5,0.2
	c0.2,0,0.4,0,0.5-0.1c0.2-0.1,0.3-0.2,0.4-0.4l3.3-5.7c0.2-0.4,0.7-0.7,1.1-0.9c0.5-0.1,1-0.1,1.4,0.2l5.7,3.3
	c0.4,0.2,0.7,0.7,0.9,1.1C55.2,17.9,55.1,18.4,54.9,18.8L54.9,18.8z M42,31.9L41,33.5l1.6,0.9l0.9-1.6L42,31.9z"/>
</svg>
