<?xml version="1.0" encoding="utf-8"?>
<!-- Generator: Adobe Illustrator 24.0.2, SVG Export Plug-In . SVG Version: 6.00 Build 0)  -->
<svg version="1.1" id="Layer_1" xmlns="http://www.w3.org/2000/svg" xmlns:xlink="http://www.w3.org/1999/xlink" x="0px" y="0px"
	 viewBox="0 0 60 60" style="enable-background:new 0 0 60 60;" xml:space="preserve">
<style type="text/css">
	.st0{fill:none;}
</style>
<rect class="st0" width="60" height="60"/>
<path d="M59.1,58.2h-0.9V34.8h0.9c0.5,0,0.9-0.4,0.9-0.9S59.6,33,59.1,33H44.8v-2.6l0.6,0.2c0.4,0.2,1-0.1,1.1-0.6
	c0.2-0.5-0.1-1-0.6-1.1l-3.6-1.2v-6.1h0.9c0.5,0,0.9-0.4,0.9-0.9c0-0.5-0.4-0.9-0.9-0.9h-0.9c-0.4-6-5.3-10.8-11.4-11V7.6H38
	c1.1,0,2.1-0.9,2.1-2.1V2.1C40,0.9,39.1,0,38,0h-8c-0.5,0-0.9,0.4-0.9,0.9v8c-2.6,0.1-5,1-7,2.6c-0.4,0.3-0.4,0.9-0.1,1.2
	c0.3,0.4,0.9,0.4,1.2,0.1c1.8-1.4,4.1-2.2,6.4-2.2h0.9c5.3,0,9.6,4.1,10.1,9.2h-21c0.2-1.8,0.8-3.4,1.8-4.9c0.3-0.4,0.2-0.9-0.2-1.2
	c-0.4-0.3-0.9-0.2-1.2,0.2c-1.2,1.8-1.9,3.8-2.1,5.9h-0.9c-0.5,0-0.9,0.4-0.9,0.9s0.4,0.9,0.9,0.9h0.9v6.1L14.1,29
	c-0.5,0.2-0.7,0.7-0.6,1.1c0.2,0.5,0.7,0.7,1.1,0.6l0.6-0.2V33H0.9C0.4,33,0,33.4,0,33.9s0.4,0.9,0.9,0.9h0.9v23.4H0.9
	c-0.5,0-0.9,0.4-0.9,0.9S0.4,60,0.9,60h58.2c0.5,0,0.9-0.4,0.9-0.9S59.6,58.2,59.1,58.2L59.1,58.2z M30.9,1.8H38
	c0.2,0,0.3,0.1,0.3,0.3v3.5c0,0.2-0.1,0.3-0.3,0.3h-7.1V1.8z M19.5,21.6h21.1v5.5l-8.8-3c-1.1-0.4-2.4-0.4-3.6,0l-8.8,3V21.6z
	 M17,29.8l11.8-4c0.8-0.3,1.6-0.3,2.4,0l11.8,4V33H17V29.8z M11.5,58.2H7v-3.5h4.4V58.2z M11.5,53H7v-3c0-1.2,1-2.2,2.2-2.2
	c1.2,0,2.2,1,2.2,2.2V53z M15,58.2h-1.8V50c0-2.2-1.8-4-4-4c-2.2,0-4,1.8-4,4v8.2H3.5V44.4H15V58.2z M15,42.6H3.5v-7.8h8.6v1.8
	c0,1.5,1.2,2.6,2.6,2.6H15L15,42.6L15,42.6z M20.4,58.2h-3.7v-19h3.7L20.4,58.2L20.4,58.2z M26.1,58.2h-4v-19h4V58.2z M31.6,58.2
	h-3.7v-19h3.7V58.2z M37.8,58.2h-4.5v-19h0.2c0.5,0,0.9-0.4,0.9-0.9s-0.4-0.9-0.9-0.9H14.7c-0.5,0-0.9-0.4-0.9-0.9v-1.8h32.3v1.8
	c0,0.5-0.4,0.9-0.9,0.9h-8.2c-0.5,0-0.9,0.4-0.9,0.9s0.4,0.9,0.9,0.9h0.7L37.8,58.2L37.8,58.2z M43.3,58.2h-3.7v-19h3.7L43.3,58.2
	L43.3,58.2z M53,58.2h-4.4v-3.5H53V58.2z M53,53h-4.4v-3c0-1.2,1-2.2,2.2-2.2c1.2,0,2.2,1,2.2,2.2V53z M56.5,58.2h-1.8V50
	c0-2.2-1.8-4-4-4c-2.2,0-4,1.8-4,4v8.2H45V44.4h11.5V58.2z M56.5,42.6H45v-3.4h0.2c1.5,0,2.6-1.2,2.6-2.6v-1.8h8.6V42.6z"/>
</svg>
