<?xml version="1.0" encoding="utf-8"?>
<!-- Generator: Adobe Illustrator 24.0.2, SVG Export Plug-In . SVG Version: 6.00 Build 0)  -->
<svg version="1.1" id="Layer_1" xmlns="http://www.w3.org/2000/svg" xmlns:xlink="http://www.w3.org/1999/xlink" x="0px" y="0px"
	 viewBox="0 0 60 60" style="enable-background:new 0 0 60 60;" xml:space="preserve">
<style type="text/css">
	.st0{fill:none;}
	.st1{fill-rule:evenodd;clip-rule:evenodd;}
</style>
<rect class="st0" width="60" height="60"/>
<path class="st1" d="M29.1,8.8v6.3c0,0.5,0.4,0.9,0.9,0.9s0.9-0.4,0.9-0.9V8.8c2-0.4,3.6-2.2,3.6-4.3C34.4,2,32.4,0,30,0
	s-4.4,2-4.4,4.4C25.6,6.6,27.1,8.4,29.1,8.8z M30,1.8c1.5,0,2.7,1.2,2.7,2.7c0,1.5-1.2,2.7-2.7,2.7s-2.7-1.2-2.7-2.7
	C27.3,3,28.5,1.8,30,1.8z M40.4,30.5c0.5,0,0.9-0.4,0.9-0.9v-6.3c0-0.4-0.2-0.7-0.6-0.8l-10.4-3.9c-0.2-0.1-0.4-0.1-0.6,0l-10.4,3.9
	c-0.3,0.1-0.6,0.5-0.6,0.8v2.8c0,0.5,0.4,0.9,0.9,0.9c0.5,0,0.9-0.4,0.9-0.9v-1.6l8.7,3.2v11.6l-8.7-3.2v-6c0-0.5-0.4-0.9-0.9-0.9
	c-0.5,0-0.9,0.4-0.9,0.9v6.6c0,0.4,0.2,0.7,0.6,0.8l10.4,3.9l0,0c0.1,0,0.2,0.1,0.3,0.1c0.1,0,0.2,0,0.3-0.1l10.4-3.9
	c0.3-0.1,0.6-0.5,0.6-0.8v-3.1c0-0.5-0.4-0.9-0.9-0.9c-0.5,0-0.9,0.4-0.9,0.9v2.4l-8.7,3.2V27.8l8.7-3.2v5.1
	C39.5,30.1,39.9,30.5,40.4,30.5z M30,26.2l-7.9-3l7.9-3l7.9,3L30,26.2z M43.3,42c1-0.8,2.3-1.2,3.6-1.2c3.4,0,6.1,2.7,6.1,6.1
	c0,3.4-2.7,6.1-6.1,6.1c-3.4,0-6.1-2.7-6.1-6.1c0-1.4,0.4-2.6,1.2-3.6l-2.1-2.1c-0.3-0.3-0.3-0.9,0-1.2c0.3-0.3,0.9-0.3,1.2,0
	L43.3,42z M42.6,46.9c0,2.4,1.9,4.3,4.3,4.3c2.4,0,4.3-1.9,4.3-4.3c0-2.4-1.9-4.3-4.3-4.3C44.5,42.6,42.6,44.5,42.6,46.9z
	 M13.1,19.2c1.4,0,2.6-0.4,3.6-1.2l2.1,2.1c0.2,0.2,0.4,0.3,0.6,0.3c0.2,0,0.4-0.1,0.6-0.3c0.3-0.3,0.3-0.9,0-1.2L18,16.7
	c0.8-1,1.2-2.3,1.2-3.6c0-3.4-2.7-6.1-6.1-6.1C9.7,7,7,9.7,7,13.1C7,16.4,9.7,19.2,13.1,19.2z M13.1,8.8c2.4,0,4.3,1.9,4.3,4.3
	c0,2.4-1.9,4.3-4.3,4.3c-2.4,0-4.3-1.9-4.3-4.3C8.8,10.7,10.7,8.8,13.1,8.8z M30.9,44.9v6.3c2,0.4,3.6,2.2,3.6,4.3
	c0,2.4-2,4.4-4.4,4.4s-4.4-2-4.4-4.4c0-2.1,1.5-3.9,3.6-4.3v-6.3c0-0.5,0.4-0.9,0.9-0.9S30.9,44.4,30.9,44.9z M27.3,55.6
	c0,1.5,1.2,2.7,2.7,2.7s2.7-1.2,2.7-2.7c0-1.5-1.2-2.7-2.7-2.7S27.3,54.1,27.3,55.6z M55.6,25.6c-2.1,0-3.9,1.5-4.3,3.6h-6.3
	c-0.5,0-0.9,0.4-0.9,0.9s0.4,0.9,0.9,0.9h6.3c0.4,2,2.2,3.6,4.3,3.6c2.4,0,4.4-2,4.4-4.4S58,25.6,55.6,25.6z M55.6,32.7
	c-1.5,0-2.7-1.2-2.7-2.7s1.2-2.7,2.7-2.7c1.5,0,2.7,1.2,2.7,2.7S57,32.7,55.6,32.7z M15.1,30.9H8.8c-0.4,2-2.2,3.6-4.3,3.6
	C2,34.4,0,32.4,0,30s2-4.4,4.4-4.4c2.1,0,3.9,1.5,4.3,3.6h6.3c0.5,0,0.9,0.4,0.9,0.9S15.6,30.9,15.1,30.9z M1.8,30
	c0,1.5,1.2,2.7,2.7,2.7c1.5,0,2.7-1.2,2.7-2.7s-1.2-2.7-2.7-2.7S1.8,28.5,1.8,30z M40.5,20.3c0.2,0,0.4-0.1,0.6-0.3l2.1-2.1
	c1,0.8,2.3,1.2,3.6,1.2c3.4,0,6.1-2.7,6.1-6.1C53,9.7,50.3,7,46.9,7c-3.4,0-6.1,2.7-6.1,6.1c0,1.4,0.4,2.6,1.2,3.6l-2.1,2.1
	c-0.3,0.3-0.3,0.9,0,1.2C40.1,20.2,40.3,20.3,40.5,20.3z M46.9,8.8c2.4,0,4.3,1.9,4.3,4.3c0,2.4-1.9,4.3-4.3,4.3
	c-2.4,0-4.3-1.9-4.3-4.3C42.6,10.7,44.5,8.8,46.9,8.8z M16.7,42l2.1-2.1c0.3-0.3,0.9-0.3,1.2,0c0.3,0.3,0.3,0.9,0,1.2L18,43.3
	c0.8,1,1.2,2.3,1.2,3.6c0,3.4-2.7,6.1-6.1,6.1C9.7,53,7,50.3,7,46.9s2.7-6.1,6.1-6.1C14.5,40.8,15.7,41.3,16.7,42z M8.8,46.9
	c0,2.4,1.9,4.3,4.3,4.3c2.4,0,4.3-1.9,4.3-4.3c0-2.4-1.9-4.3-4.3-4.3C10.7,42.6,8.8,44.5,8.8,46.9z"/>
</svg>
