<?xml version="1.0" encoding="utf-8"?>
<!-- Generator: Adobe Illustrator 24.0.2, SVG Export Plug-In . SVG Version: 6.00 Build 0)  -->
<svg version="1.1" id="Layer_1" xmlns="http://www.w3.org/2000/svg" xmlns:xlink="http://www.w3.org/1999/xlink" x="0px" y="0px"
	 viewBox="0 0 60 61" style="enable-background:new 0 0 60 61;" xml:space="preserve">
<style type="text/css">
	.st0{fill:none;}
	.st1{fill-rule:evenodd;clip-rule:evenodd;}
</style>
<rect class="st0" width="60" height="60"/>
<path class="st1" d="M49.7,17.9c-2.5,0-4.9,0.9-6.7,2.5l-4.4-3.6c1-1.6,1.6-3.5,1.6-5.5C40.3,5.6,35.7,1,30,1S19.7,5.6,19.7,11.3
	c0,3,1.3,5.7,3.3,7.5l-7.2,6.4c-1.6-1-3.5-1.6-5.6-1.6C4.6,23.5,0,28.2,0,33.8s4.6,10.3,10.3,10.3c5.7,0,10.3-4.6,10.3-10.3
	c0-3-1.3-5.7-3.3-7.5l7.2-6.4c1.6,1,3.5,1.6,5.6,1.6c3,0,5.7-1.3,7.6-3.4l4.2,3.5c-1.5,1.8-2.4,4.1-2.4,6.5
	c0,5.7,4.6,10.3,10.3,10.3c5.7,0,10.3-4.6,10.3-10.3S55.4,17.9,49.7,17.9z M18.8,33.8c0,4.7-3.8,8.5-8.5,8.5c-4.7,0-8.5-3.8-8.5-8.5
	c0-4.7,3.8-8.5,8.5-8.5C15,25.3,18.8,29.1,18.8,33.8z M30,19.8c-4.7,0-8.5-3.8-8.5-8.5c0-4.7,3.8-8.5,8.5-8.5s8.5,3.8,8.5,8.5
	C38.5,16,34.7,19.8,30,19.8z M49.7,36.7c-4.7,0-8.5-3.8-8.5-8.5c0-2.2,0.9-4.2,2.2-5.8c0.1-0.1,0.3-0.1,0.4-0.3
	c0.1-0.1,0.1-0.2,0.1-0.3c1.5-1.4,3.5-2.2,5.7-2.2c4.7,0,8.5,3.8,8.5,8.5C58.2,32.9,54.4,36.7,49.7,36.7z M33.3,9.4
	c0,0.5-0.4,0.9-0.9,0.9c-0.5,0-0.9-0.4-0.9-0.9V8.8c0-0.5-0.4-1-1-1h-0.9c-0.7,0-1.3,0.6-1.3,1.3c0,0.7,0.6,1.3,1.3,1.3h0.6
	c1.7,0,3,1.4,3,3c0,1.5-1.1,2.7-2.4,3v1c0,0.5-0.4,0.9-0.9,0.9c-0.5,0-0.9-0.4-0.9-0.9v-1c-1.4-0.1-2.4-1.3-2.4-2.7
	c0-0.5,0.4-0.9,0.9-0.9s0.9,0.4,0.9,0.9c0,0.5,0.4,1,1,1h0.9c0.7,0,1.3-0.6,1.3-1.3c0-0.7-0.6-1.3-1.3-1.3h-0.6c-1.7,0-3-1.4-3-3
	c0-1.5,1.1-2.7,2.4-3v-1c0-0.5,0.4-0.9,0.9-0.9c0.5,0,0.9,0.4,0.9,0.9v1c1.4,0.1,2.4,1.3,2.4,2.7V9.4z M13.6,32
	c0,0.5-0.4,0.9-0.9,0.9c-0.5,0-0.9-0.4-0.9-0.9v-0.6c0-0.5-0.4-1-1-1H10c-0.7,0-1.3,0.6-1.3,1.3c0,0.7,0.6,1.3,1.3,1.3h0.6
	c1.7,0,3,1.4,3,3c0,1.5-1.1,2.7-2.4,3v1c0,0.5-0.4,0.9-0.9,0.9c-0.5,0-0.9-0.4-0.9-0.9v-1C8,38.8,7,37.7,7,36.3
	c0-0.5,0.4-0.9,0.9-0.9s0.9,0.4,0.9,0.9c0,0.5,0.4,1,1,1h0.9c0.7,0,1.3-0.6,1.3-1.3c0-0.7-0.6-1.3-1.3-1.3H10c-1.7,0-3-1.4-3-3
	c0-1.5,1.1-2.7,2.4-3v-1c0-0.5,0.4-0.9,0.9-0.9c0.5,0,0.9,0.4,0.9,0.9v1c1.4,0.1,2.4,1.3,2.4,2.7V32z M53,26.4
	c0,0.5-0.4,0.9-0.9,0.9c-0.5,0-0.9-0.4-0.9-0.9v-0.6c0-0.5-0.4-1-1-1h-0.9c-0.7,0-1.3,0.6-1.3,1.3s0.6,1.3,1.3,1.3H50
	c1.7,0,3,1.4,3,3c0,1.5-1.1,2.7-2.4,3v1c0,0.5-0.4,0.9-0.9,0.9c-0.5,0-0.9-0.4-0.9-0.9v-1c-1.4-0.1-2.4-1.3-2.4-2.7
	c0-0.5,0.4-0.9,0.9-0.9c0.5,0,0.9,0.4,0.9,0.9c0,0.5,0.4,1,1,1H50c0.7,0,1.3-0.6,1.3-1.3s-0.6-1.3-1.3-1.3h-0.6c-1.7,0-3-1.4-3-3
	c0-1.5,1.1-2.7,2.4-3v-1c0-0.5,0.4-0.9,0.9-0.9c0.5,0,0.9,0.4,0.9,0.9v1c1.4,0.1,2.4,1.3,2.4,2.7V26.4z M18.7,47h-7.5
	c-0.5,0-0.9,0.4-0.9,0.9v11.3c0,0.5,0.4,0.9,0.9,0.9h7.5c0.5,0,0.9-0.4,0.9-0.9V47.9C19.6,47.4,19.2,47,18.7,47z M17.8,58.3h-5.8
	v-9.5h5.8V58.3z M47.8,47h7.5c0.5,0,0.9,0.4,0.9,0.9v11.3c0,0.5-0.4,0.9-0.9,0.9h-7.5c-0.5,0-0.9-0.4-0.9-0.9V47.9
	C47,47.4,47.4,47,47.8,47z M48.7,58.3h5.8v-9.5h-5.8V58.3z M30.9,50.7c0.5,0,0.9-0.4,0.9-0.9V36.6c0-0.5-0.4-0.9-0.9-0.9h-7.5
	c-0.5,0-0.9,0.4-0.9,0.9v22.5c0,0.5,0.4,0.9,0.9,0.9h7.5c0.5,0,0.9-0.4,0.9-0.9V54c0-0.5-0.4-0.9-0.9-0.9c-0.5,0-0.9,0.4-0.9,0.9
	v4.3h-5.8V37.5h5.8v12.3C30.1,50.3,30.5,50.7,30.9,50.7z M35.6,41.4h7.5c0.5,0,0.9,0.4,0.9,0.9v16.9c0,0.5-0.4,0.9-0.9,0.9h-7.5
	c-0.5,0-0.9-0.4-0.9-0.9V42.3C34.8,41.8,35.1,41.4,35.6,41.4z M36.5,58.3h5.8V43.2h-5.8V58.3z"/>
</svg>
