<?xml version="1.0" encoding="utf-8"?>
<!-- Generator: Adobe Illustrator 24.0.2, SVG Export Plug-In . SVG Version: 6.00 Build 0)  -->
<svg version="1.1" id="Layer_1" xmlns="http://www.w3.org/2000/svg" xmlns:xlink="http://www.w3.org/1999/xlink" x="0px" y="0px"
	 viewBox="0 0 60 60" style="enable-background:new 0 0 60 60;" xml:space="preserve">
<style type="text/css">
	.st0{fill:none;}
	.st1{fill-rule:evenodd;clip-rule:evenodd;}
</style>
<rect class="st0" width="60" height="60"/>
<path class="st1" d="M42,35.2h17c0.3,0,0.5,0.1,0.7,0.3c0.2,0.2,0.3,0.4,0.3,0.7v22.1c0,0.3-0.1,0.5-0.3,0.7
	c-0.2,0.2-0.4,0.3-0.7,0.3H25c-0.3,0-0.5-0.1-0.7-0.3c-0.2-0.2-0.3-0.4-0.3-0.7v-5H5c-1.3,0-2.6-0.5-3.5-1.5C0.5,50.9,0,49.6,0,48.3
	V6c0-1.3,0.5-2.6,1.5-3.6C2.4,1.5,3.7,1,5,1h26c0.1,0,0.3,0,0.4,0.1c0.1,0.1,0.2,0.1,0.3,0.2l10,10.1c0.1,0.1,0.2,0.2,0.2,0.3
	c0.1,0.1,0.1,0.3,0.1,0.4v10.1c1.6-0.6,3.3-0.9,5-1v-2c0-0.2,0.1-0.4,0.2-0.5c0.1-0.2,0.3-0.3,0.4-0.4c0.2-0.1,0.4-0.1,0.6-0.1
	c0.2,0,0.4,0.1,0.5,0.2l7,6c0.1,0.1,0.2,0.2,0.3,0.3C56,24.8,56,25,56,25.1c0,0.1,0,0.3-0.1,0.4c-0.1,0.1-0.1,0.2-0.3,0.3l-7,6
	c-0.1,0.1-0.3,0.2-0.5,0.2s-0.4,0-0.6-0.1c-0.2-0.1-0.3-0.2-0.4-0.4c-0.1-0.2-0.2-0.4-0.2-0.5v-2c-1.7,0.1-3.3,0.2-5,0.5V35.2z
	 M42,50.9l14.5-13.7h-29L42,50.9z M48.7,22.8c-0.2,0.2-0.4,0.3-0.7,0.3c-4.7,0-10.4,2.5-11.7,5.7c2.4-0.6,7.3-1.6,11.7-1.6
	c0.3,0,0.5,0.1,0.7,0.3c0.2,0.2,0.3,0.4,0.3,0.7V29l4.5-3.8L49,21.3v0.8C49,22.4,48.9,22.6,48.7,22.8z M38.6,11.1L32,4.4V8
	c0,0.8,0.3,1.6,0.9,2.1c0.6,0.6,1.3,0.9,2.1,0.9H38.6z M24,51.3V36.2c0-0.1,0-0.3,0.1-0.4c0.1-0.1,0.1-0.2,0.2-0.3
	c0.1-0.1,0.2-0.2,0.3-0.2c0.1-0.1,0.3-0.1,0.4-0.1h15V30c-2.7,0.5-4.7,1.1-4.7,1.1c-0.1,0-0.3,0.1-0.5,0c-0.2,0-0.3-0.1-0.4-0.2
	c-0.1-0.1-0.2-0.2-0.3-0.4C34,30.5,34,30.3,34,30.2c0-2.4,1.7-4.8,4.7-6.6c0.4-0.2,0.8-0.5,1.3-0.7v-9.9h-5c-1.3,0-2.6-0.5-3.5-1.5
	C30.5,10.6,30,9.4,30,8V3H5C4.2,3,3.4,3.3,2.9,3.9C2.3,4.5,2,5.2,2,6v42.2c0,0.8,0.3,1.6,0.9,2.1C3.4,51,4.2,51.3,5,51.3H24z
	 M26,38.5v18.8h32V38.5L42.7,53c-0.2,0.2-0.4,0.3-0.7,0.3s-0.5-0.1-0.7-0.3L26,38.5z M19,13.1H7c-0.3,0-0.5-0.1-0.7-0.3
	C6.1,12.6,6,12.3,6,12.1c0-0.3,0.1-0.5,0.3-0.7c0.2-0.2,0.4-0.3,0.7-0.3h12c0.3,0,0.5,0.1,0.7,0.3c0.2,0.2,0.3,0.4,0.3,0.7
	c0,0.3-0.1,0.5-0.3,0.7C19.5,13,19.3,13.1,19,13.1z M16,18.1c0,0.3,0.1,0.5,0.3,0.7c0.2,0.2,0.4,0.3,0.7,0.3h18
	c0.3,0,0.5-0.1,0.7-0.3c0.2-0.2,0.3-0.4,0.3-0.7c0-0.3-0.1-0.5-0.3-0.7c-0.2-0.2-0.4-0.3-0.7-0.3H17c-0.3,0-0.5,0.1-0.7,0.3
	C16.1,17.6,16,17.8,16,18.1z M7,25.1h16c0.3,0,0.5-0.1,0.7-0.3c0.2-0.2,0.3-0.4,0.3-0.7c0-0.3-0.1-0.5-0.3-0.7
	c-0.2-0.2-0.4-0.3-0.7-0.3H7c-0.3,0-0.5,0.1-0.7,0.3C6.1,23.6,6,23.9,6,24.1c0,0.3,0.1,0.5,0.3,0.7C6.5,25,6.7,25.1,7,25.1z
	 M29,29.2c0.3,0,0.5,0.1,0.7,0.3c0.2,0.2,0.3,0.4,0.3,0.7c0,0.3-0.1,0.5-0.3,0.7c-0.2,0.2-0.4,0.3-0.7,0.3h-6
	c-0.3,0-0.5-0.1-0.7-0.3c-0.2-0.2-0.3-0.4-0.3-0.7c0-0.3,0.1-0.5,0.3-0.7c0.2-0.2,0.4-0.3,0.7-0.3H29z M19,35.2H7
	c-0.3,0-0.5,0.1-0.7,0.3C6.1,35.7,6,35.9,6,36.2c0,0.3,0.1,0.5,0.3,0.7c0.2,0.2,0.4,0.3,0.7,0.3h12c0.3,0,0.5-0.1,0.7-0.3
	s0.3-0.4,0.3-0.7c0-0.3-0.1-0.5-0.3-0.7C19.5,35.3,19.3,35.2,19,35.2z M13,19.1H7c-0.3,0-0.5-0.1-0.7-0.3C6.1,18.6,6,18.4,6,18.1
	c0-0.3,0.1-0.5,0.3-0.7c0.2-0.2,0.4-0.3,0.7-0.3h6c0.3,0,0.5,0.1,0.7,0.3s0.3,0.4,0.3,0.7c0,0.3-0.1,0.5-0.3,0.7
	C13.5,19,13.3,19.1,13,19.1z M31,23.1h-4c-0.3,0-0.5,0.1-0.7,0.3c-0.2,0.2-0.3,0.4-0.3,0.7c0,0.3,0.1,0.5,0.3,0.7
	c0.2,0.2,0.4,0.3,0.7,0.3h4c0.3,0,0.5-0.1,0.7-0.3c0.2-0.2,0.3-0.4,0.3-0.7c0-0.3-0.1-0.5-0.3-0.7C31.5,23.2,31.3,23.1,31,23.1z
	 M7,29.2h12c0.3,0,0.5,0.1,0.7,0.3s0.3,0.4,0.3,0.7c0,0.3-0.1,0.5-0.3,0.7c-0.2,0.2-0.4,0.3-0.7,0.3H7c-0.3,0-0.5-0.1-0.7-0.3
	C6.1,30.7,6,30.4,6,30.2c0-0.3,0.1-0.5,0.3-0.7C6.5,29.3,6.7,29.2,7,29.2z M13,41.2H7c-0.3,0-0.5,0.1-0.7,0.3C6.1,41.7,6,42,6,42.2
	c0,0.3,0.1,0.5,0.3,0.7c0.2,0.2,0.4,0.3,0.7,0.3h6c0.3,0,0.5-0.1,0.7-0.3c0.2-0.2,0.3-0.4,0.3-0.7c0-0.3-0.1-0.5-0.3-0.7
	C13.5,41.3,13.3,41.2,13,41.2z M19,41.2h-2c-0.3,0-0.5,0.1-0.7,0.3C16.1,41.7,16,42,16,42.2c0,0.3,0.1,0.5,0.3,0.7
	c0.2,0.2,0.4,0.3,0.7,0.3h2c0.3,0,0.5-0.1,0.7-0.3c0.2-0.2,0.3-0.4,0.3-0.7c0-0.3-0.1-0.5-0.3-0.7C19.5,41.3,19.3,41.2,19,41.2z"/>
</svg>
