<?xml version="1.0" encoding="utf-8"?>
<!-- Generator: Adobe Illustrator 24.0.2, SVG Export Plug-In . SVG Version: 6.00 Build 0)  -->
<svg version="1.1" id="Layer_1" xmlns="http://www.w3.org/2000/svg" xmlns:xlink="http://www.w3.org/1999/xlink" x="0px" y="0px"
	 viewBox="0 0 60 61" style="enable-background:new 0 0 60 61;" xml:space="preserve">
<style type="text/css">
	.st0{fill:none;}
	.st1{fill-rule:evenodd;clip-rule:evenodd;}
</style>
<rect class="st0" width="60" height="60"/>
<path class="st1" d="M60,28c-0.1-1.6-0.9-3.1-2.1-4.1c-1.1-0.9-2.6-1.4-4-1.2c-2,0.2-3.7,1.5-4.6,3.4l-1.8,0.2l-1.8-0.5
	c-0.1,0-0.2-0.1-0.3-0.3c-0.5-1.5-1.3-3-2.2-4.3l0.6-1.7l2-2.1c1.1,0,2.2-0.5,2.9-1.4c1.4-1.6,1.3-4-0.1-5.5c-0.8-0.8-1.8-1.3-3-1.3
	c-1.1,0-2.2,0.5-3,1.3c-0.7,0.8-1.1,1.9-1.1,2.9l-2,2.1L38,16.3c-2.5-1.5-5.3-2.2-8.2-2.3l-1.1-1.7l-0.4-1.9
	c1.5-1.3,2.2-3.2,1.8-5.1c-0.6-2.9-3.6-4.7-6.6-4.2c-1.5,0.3-2.8,1.1-3.6,2.4c-0.8,1.2-1,2.6-0.8,3.9c0.4,1.8,1.7,3.3,3.5,3.9
	l0.4,2.1l-0.3,2.1c-1.5,0.7-2.9,1.6-4.2,2.7L17.3,18l-1.4-1.1c-0.2-1.1-0.8-2-1.7-2.6c-1.7-1.1-4-0.8-5.4,0.7c-0.7,0.9-1.1,2-1,3.1
	c0.1,1.1,0.7,2.1,1.6,2.8c0.9,0.7,2.1,1,3.2,0.7l1.2,0.9l0.5,1.1c0,0,0,0.1,0,0.2c-1,2.2-1.5,4.5-1.5,7c0,0.4,0,0.9,0.1,1.4
	c0,0.1,0,0.1-0.1,0.2l-2,1.4l-2.3,0.7c-1.4-1.1-3.2-1.4-4.9-0.8c0,0-0.1,0-0.1,0l0,0c-0.5,0.2-0.7,0.7-0.5,1.2
	c0.2,0.5,0.7,0.7,1.2,0.5l0,0l0,0c0,0,0,0,0,0c1.2-0.4,2.6-0.1,3.5,0.8c0.2,0.2,0.4,0.2,0.6,0.2c0.1,0,0.2,0,0.3,0l2.9-0.9
	c0.1,0,0.2-0.1,0.3-0.1l2.1-1.5c0.6-0.4,0.9-1.1,0.8-1.8c0-0.4,0-0.8,0-1.2c0-2.2,0.5-4.3,1.4-6.2c0.2-0.5,0.2-1.2,0-1.7l-0.6-1.3
	c-0.1-0.1-0.2-0.2-0.3-0.3L13.4,20c-0.2-0.2-0.5-0.2-0.8-0.1c-0.7,0.2-1.5,0.1-2.1-0.3c-0.5-0.4-0.8-0.9-0.9-1.6
	c-0.1-0.6,0.1-1.2,0.5-1.7c0.7-0.9,2-1,3-0.4c0.6,0.4,0.9,1,1,1.7c0,0.3,0.2,0.5,0.4,0.6l1.9,1.4c0.1,0.1,0.2,0.1,0.4,0.2l1.9,0.3
	c0.3,0,0.6,0,0.8-0.2c1.3-1.2,2.8-2.2,4.5-2.9c0.3-0.1,0.5-0.4,0.5-0.7l0.4-2.7c0-0.1,0-0.2,0-0.3l-0.6-2.8
	c-0.1-0.3-0.3-0.6-0.7-0.7C22.3,9.4,21.3,8.3,21,7c-0.2-0.9,0-1.8,0.5-2.5C22,3.6,22.9,3.1,24,2.9C26,2.5,28,3.7,28.4,5.6
	c0.3,1.4-0.3,2.8-1.6,3.6c-0.3,0.2-0.5,0.6-0.4,0.9l0.5,2.6c0,0.1,0.1,0.2,0.1,0.3l1.3,2.1c0.3,0.4,0.7,0.6,1.2,0.6h0
	c2.7,0,5.4,0.7,7.7,2.1c0.4,0.2,0.9,0.3,1.3,0.1l2-0.9c0.1,0,0.2-0.1,0.3-0.2l2.4-2.6c0.2-0.2,0.3-0.5,0.2-0.8
	c-0.1-0.7,0.1-1.4,0.6-1.9c0.4-0.5,1-0.7,1.6-0.7c0.6,0,1.2,0.2,1.7,0.7c0.8,0.8,0.8,2.2,0.1,3.1c-0.5,0.5-1.2,0.8-1.9,0.8
	c-0.3,0-0.5,0.1-0.7,0.3l-2.4,2.6c-0.1,0.1-0.1,0.2-0.2,0.3l-0.8,2.1c-0.2,0.4-0.1,0.9,0.2,1.3c0.9,1.2,1.6,2.6,2.1,4
	c0.2,0.7,0.8,1.3,1.5,1.5l1.9,0.5c0.1,0,0.2,0,0.3,0l2.5-0.2c0.4,0,0.7-0.3,0.8-0.6c0.5-1.5,1.8-2.6,3.3-2.7c1-0.1,1.9,0.2,2.7,0.8
	c0.8,0.7,1.3,1.7,1.4,2.9c0.1,0.8-0.1,1.5-0.4,2.2c-0.2,0.5,0,1,0.4,1.2c0.5,0.2,1,0,1.2-0.4C59.9,30.2,60.1,29.1,60,28z M55.4,32.5
	c-0.3,0.1-0.5,0.1-0.8,0.2c-1.6,0.2-3-0.7-3.7-2.2c-0.2-0.3-0.5-0.6-0.9-0.5l-2.4,0.2c-0.1,0-0.2,0-0.3,0.1l-1.8,0.9
	c-0.7,0.3-1.1,1-1.2,1.7c-0.2,1.1-0.4,2.2-0.8,3.3c-0.2,0.6-0.2,1.3,0.1,1.9l0.6,1.1c0.1,0.1,0.2,0.2,0.3,0.3l1.8,1.2
	c0.2,0.2,0.6,0.2,0.8,0.1c0.7-0.3,1.5-0.2,2.1,0.2c0.5,0.4,0.9,0.9,1,1.5c0.1,0.6-0.1,1.2-0.4,1.8c-0.7,0.9-2,1.1-3,0.6
	c-0.6-0.4-1-1-1.1-1.6c0-0.3-0.2-0.5-0.4-0.6l-2-1.3c-0.1-0.1-0.3-0.1-0.4-0.1l-1.2-0.1c-0.7-0.1-1.4,0.1-1.9,0.6
	c-1,0.9-2.1,1.7-3.3,2.4c-0.7,0.4-1.2,1.1-1.2,1.9l-0.2,2.5c0,0.1,0,0.2,0,0.3l0.8,3.1c0.1,0.3,0.3,0.6,0.6,0.6
	c1,0.3,1.9,1.1,2.1,2.2c0.2,0.8,0.1,1.6-0.4,2.3c-0.4,0.7-1.1,1.2-1.9,1.4c-1.5,0.3-3.1-0.6-3.5-2c-0.4-1.1-0.1-2.3,0.8-3.1
	c0.2-0.2,0.3-0.6,0.2-0.9l-0.8-3.1c0-0.1-0.1-0.2-0.1-0.3l-1.2-1.9c-0.5-0.8-1.3-1.3-2.3-1.3h0c-1,0-1.9-0.1-2.9-0.3
	c-0.9-0.2-1.8,0.1-2.4,0.8l-1.6,1.7c-0.1,0.1-0.1,0.1-0.2,0.2l-1.8,3.7c-0.1,0.2-0.1,0.5,0,0.8c0.3,0.6,0.3,1.4,0,2
	c-0.3,0.6-0.8,1-1.4,1.2c-0.6,0.2-1.2,0.1-1.8-0.2c-1-0.6-1.4-1.8-1-2.8c0.3-0.7,0.9-1.2,1.6-1.4c0.3-0.1,0.5-0.2,0.6-0.5l1.8-3.7
	c0-0.1,0.1-0.2,0.1-0.3l0.4-2.5c0.1-0.8-0.2-1.6-0.8-2c-1.3-1.1-2.5-2.4-3.4-3.9c-0.4-0.7-1.1-1.1-1.9-1.1l-2.5,0
	c-0.1,0-0.2,0-0.3,0l-2.7,0.9c-0.3,0.1-0.6,0.4-0.6,0.8c-0.2,1.4-1.1,2.6-2.5,3c-1.8,0.6-3.8-0.4-4.4-2.3c-0.2-0.7-0.2-1.5,0-2.2
	c0.2-0.5-0.1-1-0.6-1.1c-0.5-0.2-1,0.1-1.1,0.6c-0.4,1.1-0.4,2.3,0,3.4C1,42.6,3.1,44,5.3,44c0.5,0,1.1-0.1,1.6-0.2
	c1.8-0.6,3.2-2.1,3.6-3.9l2.1-0.6l2.3,0c0.1,0,0.3,0.1,0.4,0.2c1,1.7,2.3,3.1,3.8,4.4c0.1,0.1,0.2,0.2,0.1,0.4l-0.3,2.4l-1.6,3.2
	c-1.1,0.4-2,1.2-2.4,2.3c-0.8,1.9,0,4.1,1.8,5.1c1,0.6,2.1,0.7,3.2,0.3c1.1-0.3,2-1.1,2.4-2.1c0.5-1,0.5-2.1,0.2-3.1l1.5-3.2
	l1.5-1.6c0.2-0.2,0.5-0.3,0.8-0.2c1.1,0.2,2.2,0.3,3.3,0.3h0c0.3,0,0.6,0.1,0.7,0.4l1.1,1.8l0.6,2.5c-1,1.3-1.4,3-0.9,4.6
	c0.7,2,2.6,3.3,4.6,3.3c0.3,0,0.7,0,1-0.1c1.3-0.3,2.4-1.1,3.1-2.2c0.7-1.1,0.9-2.4,0.6-3.7c-0.4-1.5-1.5-2.7-2.9-3.3L37,48.3
	l0.1-2.4c0-0.2,0.1-0.3,0.3-0.4c1.3-0.7,2.6-1.6,3.7-2.7c0.1-0.1,0.3-0.2,0.4-0.1l1,0.1l1.5,1c0.3,1.1,0.9,2,1.9,2.5
	c1.8,1.1,4.1,0.6,5.3-1c0.7-0.9,1-2,0.8-3.1c-0.2-1.1-0.8-2.1-1.7-2.7c-1-0.6-2.1-0.8-3.3-0.6l-1.2-0.8l-0.5-0.9
	c-0.1-0.1-0.1-0.2,0-0.4c0.5-1.2,0.8-2.4,0.9-3.7c0-0.2,0.1-0.3,0.2-0.3L48,32l1.6-0.1c1.1,1.8,3.1,2.9,5.2,2.7
	c0.4,0,0.8-0.1,1.2-0.2c0.5-0.2,0.7-0.7,0.6-1.1C56.4,32.6,55.9,32.4,55.4,32.5z M29.6,18.1c1,0,1.9,0.1,2.9,0.3
	c0.5,0.1,0.8,0.6,0.7,1.1c-0.1,0.5-0.6,0.8-1.1,0.7c-0.8-0.2-1.6-0.3-2.5-0.3c-6,0-10.8,4.9-10.8,10.8s4.8,10.8,10.8,10.8
	s10.8-4.9,10.8-10.8c0-3.7-1.9-7.2-5-9.2c-0.4-0.3-0.5-0.8-0.3-1.2c0.3-0.4,0.8-0.5,1.2-0.3c3.7,2.3,5.9,6.3,5.9,10.7
	c0,7-5.7,12.6-12.6,12.6c-7,0-12.6-5.7-12.6-12.6S22.6,18.1,29.6,18.1z M9.9,10.3c2.3,0,4.2-1.9,4.2-4.2s-1.9-4.2-4.2-4.2
	c-2.3,0-4.2,1.9-4.2,4.2C5.7,8.4,7.6,10.3,9.9,10.3z M9.9,3.7c1.3,0,2.4,1.1,2.4,2.4c0,1.3-1.1,2.4-2.4,2.4S7.5,7.4,7.5,6.1
	C7.5,4.8,8.6,3.7,9.9,3.7z M5.9,50.1C5.9,48.4,7.3,47,9,47c1.7,0,3.1,1.4,3.1,3.1c0,1.7-1.4,3.1-3.1,3.1C7.3,53.2,5.9,51.8,5.9,50.1
	z M7.7,50.1c0,0.7,0.6,1.3,1.3,1.3c0.7,0,1.3-0.6,1.3-1.3c0-0.7-0.6-1.3-1.3-1.3C8.3,48.8,7.7,49.4,7.7,50.1z M49.4,49.6
	c-2.3,0-4.1,1.9-4.1,4.2c0,2.3,1.9,4.2,4.1,4.2c2.3,0,4.1-1.9,4.1-4.2C53.6,51.5,51.7,49.6,49.4,49.6z M49.4,56.1
	c-1.3,0-2.3-1.1-2.3-2.3c0-1.3,1.1-2.3,2.3-2.3c1.3,0,2.3,1.1,2.3,2.3C51.8,55,50.7,56.1,49.4,56.1z M26,23.6c2.2,0,3.9,1.8,3.9,3.9
	c0,2.2-1.8,3.9-3.9,3.9s-3.9-1.8-3.9-3.9S23.8,23.6,26,23.6z M23.9,27.5c0,1.2,1,2.1,2.1,2.1c1.2,0,2.1-1,2.1-2.1
	c0-1.2-1-2.1-2.1-2.1C24.8,25.4,23.9,26.4,23.9,27.5z M28.4,39.9c1.6,0,3-1.3,3-3s-1.3-3-3-3s-3,1.3-3,3
	C25.5,38.6,26.8,39.9,28.4,39.9z M28.4,35.8c0.6,0,1.2,0.5,1.2,1.2s-0.5,1.2-1.2,1.2s-1.2-0.5-1.2-1.2S27.8,35.8,28.4,35.8z
	 M34.9,33.4c-1.5,0-2.6-1.2-2.6-2.6c0-1.5,1.2-2.6,2.6-2.6s2.6,1.2,2.6,2.6C37.5,32.2,36.3,33.4,34.9,33.4z M35.7,30.8
	c0-0.5-0.4-0.8-0.8-0.8c-0.5,0-0.8,0.4-0.8,0.8c0,0.5,0.4,0.8,0.8,0.8C35.4,31.6,35.7,31.2,35.7,30.8z"/>
</svg>
