<?xml version="1.0" encoding="utf-8"?>
<!-- Generator: Adobe Illustrator 24.0.2, SVG Export Plug-In . SVG Version: 6.00 Build 0)  -->
<svg version="1.1" id="Layer_1" xmlns="http://www.w3.org/2000/svg" xmlns:xlink="http://www.w3.org/1999/xlink" x="0px" y="0px"
	 viewBox="0 0 60 60" style="enable-background:new 0 0 60 60;" xml:space="preserve">
<style type="text/css">
	.st0{fill:none;}
</style>
<rect class="st0" width="60" height="60"/>
<path d="M59,29h-5.1c2.1-4.8,1.9-8.7,1.1-11.3C53.6,13.1,49,8,42.1,8c-1.8,0-3.7,0.3-5.5,1c-3.3,1.2-5.4,2.5-6.4,3.2
	c-1-0.7-3.1-2-6.4-3.2c-1.9-0.7-3.8-1-5.5-1c-6.8,0-11.5,5.1-12.8,9.8c-0.8,2.8-1.1,7,1.6,12.3H0.9C0.4,30.1,0,30.5,0,31
	s0.4,0.9,0.9,0.9h7.2c0.3,0.5,0.6,1,1,1.5C15.1,42,28,51.3,30.3,51.9v0.1c0,0,0.1,0,0.1-0.1c0.1,0,0.1,0,0.2,0v-0.1
	c2-1,14.4-9,20.9-18.4c0.6-0.9,1.1-1.7,1.6-2.6h6c0.5,0,0.9-0.4,0.9-0.9C60,29.4,59.5,29,59,29z M49.8,32.4
	c-6,8.8-17.2,16-19.6,17.5c-2.5-1.5-13.5-8.7-19.6-17.5c-0.1-0.2-0.2-0.3-0.3-0.5h8.4c0.3,0,0.7-0.2,0.9-0.5l3.8-7.5l6,15.3
	c0.1,0.3,0.5,0.6,0.9,0.6c0,0,0,0,0.1,0c0.4,0,0.7-0.3,0.9-0.7l5.2-18l2.8,9.1c0.1,0.3,0.4,0.6,0.7,0.6c0.3,0.1,0.7-0.1,0.9-0.4
	l2.2-3.3l1.9,3.2c0.2,0.3,0.5,0.5,0.8,0.5h5.1C50.5,31.4,50.2,31.9,49.8,32.4z M51.9,29h-5.6l-2.3-4c-0.2-0.3-0.5-0.5-0.8-0.5
	s-0.6,0.1-0.8,0.4l-1.9,2.9l-3.1-10.2c-0.1-0.4-0.5-0.6-0.9-0.7c-0.4,0-0.8,0.3-0.9,0.7l-5.3,18.3l-5.8-14.7
	c-0.1-0.3-0.5-0.6-0.8-0.6c-0.4,0-0.7,0.2-0.9,0.5L18.3,30H9.2c-2.3-4.2-2.9-8.2-1.9-11.7c1.2-4,5.1-8.4,11.1-8.4
	c1.6,0,3.3,0.3,4.9,0.9c4.2,1.5,6.4,3.3,6.4,3.3c0.3,0.3,0.8,0.3,1.1,0c0,0,2.2-1.8,6.4-3.3c1.7-0.6,3.3-0.9,4.9-0.9
	c5.9,0,9.9,4.3,11.1,8.4C54.2,21.6,53.7,25.2,51.9,29z"/>
</svg>
