<?xml version="1.0" encoding="utf-8"?>
<!-- Generator: Adobe Illustrator 24.0.2, SVG Export Plug-In . SVG Version: 6.00 Build 0)  -->
<svg version="1.1" id="Layer_1" xmlns="http://www.w3.org/2000/svg" xmlns:xlink="http://www.w3.org/1999/xlink" x="0px" y="0px"
	 viewBox="0 0 60 60" style="enable-background:new 0 0 60 60;" xml:space="preserve">
<style type="text/css">
	.st0{fill:none;}
	.st1{fill-rule:evenodd;clip-rule:evenodd;}
</style>
<rect class="st0" width="60" height="60"/>
<path class="st1" d="M9.3,23.6v4.6c0,0.5,0.4,0.9,0.9,0.9h18.9v4.5c-4.4,0.1-10.8,0.9-10.8,3.6v16.2c0,2.8,7.4,3.6,11.7,3.6
	s11.7-0.8,11.7-3.6V37.2c0-2.7-6.4-3.5-10.8-3.6v-4.5h3.6v-1.8h-3.6v-3.6c3.7-0.2,7.2-1.4,7.2-3.6V6.6C38.1,4.2,34,3,30,3
	s-8.1,1.2-8.1,3.6v13.5c0,2.2,3.5,3.4,7.2,3.6v3.6h-18v-3.6c4,0,8.1-1.2,8.1-3.6V6.6c0-2.4-4.1-3.6-8.1-3.6S3,4.2,3,6.6v13.5
	C3,22.1,5.9,23.3,9.3,23.6z M20.1,39.3c2.5,1.2,6.9,1.5,9.9,1.5c3,0,7.4-0.4,9.9-1.5l0,3.3c-0.3,0.7-3.9,1.9-9.9,1.9
	s-9.6-1.2-9.9-1.8V39.3z M20.1,44.7c2.5,1.2,6.9,1.5,9.9,1.5c3,0,7.4-0.4,9.9-1.5l0,3.3c-0.3,0.7-3.9,1.9-9.9,1.9s-9.6-1.2-9.9-1.8
	V44.7z M30,55.2c-6,0-9.6-1.2-9.9-1.8v-3.3c2.5,1.2,6.9,1.5,9.9,1.5c3,0,7.4-0.4,9.9-1.5l0,3.3C39.6,54,36,55.2,30,55.2z M39.9,37.2
	C39.4,37.9,35.8,39,30,39s-9.4-1.1-9.9-1.8c0.5-0.6,3.7-1.7,9-1.8v1.8h1.8v-1.8C36.2,35.5,39.4,36.6,39.9,37.2z M30,4.8
	c4.1,0,6.3,1.3,6.3,1.8S34.1,8.4,30,8.4s-6.3-1.3-6.3-1.8S25.9,4.8,30,4.8z M23.7,8.9c1.6,0.8,3.9,1.3,6.3,1.3s4.7-0.4,6.3-1.3v2.2
	c0,0.5-2.2,1.8-6.3,1.8s-6.3-1.3-6.3-1.8V8.9z M23.7,13.4c1.6,0.8,3.9,1.3,6.3,1.3s4.7-0.4,6.3-1.3v2.2c0,0.5-2.2,1.8-6.3,1.8
	s-6.3-1.3-6.3-1.8V13.4z M23.7,20.1v-2.2c1.6,0.8,3.9,1.3,6.3,1.3s4.7-0.4,6.3-1.3v2.2c0,0.5-2.2,1.8-6.3,1.8S23.7,20.6,23.7,20.1z
	 M11.1,21.9c-4.1,0-6.3-1.3-6.3-1.8v-2.2c1.6,0.8,3.9,1.3,6.3,1.3s4.7-0.4,6.3-1.3v2.2C17.4,20.6,15.2,21.9,11.1,21.9z M11.1,4.8
	c4.1,0,6.3,1.3,6.3,1.8s-2.2,1.8-6.3,1.8S4.8,7.1,4.8,6.6S7,4.8,11.1,4.8z M4.8,8.9c1.6,0.8,3.9,1.3,6.3,1.3s4.7-0.4,6.3-1.3v2.2
	c0,0.5-2.2,1.8-6.3,1.8s-6.3-1.3-6.3-1.8V8.9z M4.8,13.4c1.6,0.8,3.9,1.3,6.3,1.3s4.7-0.4,6.3-1.3v2.2c0,0.5-2.2,1.8-6.3,1.8
	s-6.3-1.3-6.3-1.8V13.4z M48.9,3c-4,0-8.1,1.2-8.1,3.6v13.5c0,2.4,4.1,3.6,8.1,3.6v3.6h-1.8v1.8h2.7c0.5,0,0.9-0.4,0.9-0.9v-4.6
	c3.4-0.3,6.3-1.5,6.3-3.5V6.6C57,4.2,52.9,3,48.9,3z M48.9,21.9c-4.1,0-6.3-1.3-6.3-1.8v-2.2c1.6,0.8,3.9,1.3,6.3,1.3
	c2.4,0,4.7-0.4,6.3-1.3v2.2C55.2,20.6,53,21.9,48.9,21.9z M48.9,17.4c-4.1,0-6.3-1.3-6.3-1.8v-2.2c1.6,0.8,3.9,1.3,6.3,1.3
	c2.4,0,4.7-0.4,6.3-1.3v2.2C55.2,16.1,53,17.4,48.9,17.4z M48.9,12.9c-4.1,0-6.3-1.3-6.3-1.8V8.9c1.6,0.8,3.9,1.3,6.3,1.3
	c2.4,0,4.7-0.4,6.3-1.3v2.2C55.2,11.6,53,12.9,48.9,12.9z M48.9,8.4c-4.1,0-6.3-1.3-6.3-1.8s2.2-1.8,6.3-1.8s6.3,1.3,6.3,1.8
	S53,8.4,48.9,8.4z M45.3,27.3h-1.8v1.8h1.8V27.3z M39.9,27.3h1.8v1.8h-1.8V27.3z M38.1,27.3h-1.8v1.8h1.8V27.3z"/>
</svg>
