<?xml version="1.0" encoding="utf-8"?>
<!-- Generator: Adobe Illustrator 24.0.2, SVG Export Plug-In . SVG Version: 6.00 Build 0)  -->
<svg version="1.1" id="Layer_1" xmlns="http://www.w3.org/2000/svg" xmlns:xlink="http://www.w3.org/1999/xlink" x="0px" y="0px"
	 viewBox="0 0 61 60" style="enable-background:new 0 0 61 60;" xml:space="preserve">
<style type="text/css">
	.st0{fill:none;}
	.st1{fill-rule:evenodd;clip-rule:evenodd;}
</style>
<rect class="st0" width="60" height="60"/>
<path class="st1" d="M57.3,37.3l1.7-1.7c1.1-1.1,1.1-2.8,0-3.9c-0.5-0.5-1.2-0.8-2-0.8c-0.6,0-1.1,0.2-1.5,0.5l-0.4-1.2l1.9-1.9
	c1.1-1.1,1.1-2.8,0-3.9c-1-1-2.6-1.1-3.6-0.2l-2.2-7.4c0.9-0.8,1.7-1.7,2.5-2.5c2.3-2.3,4.1-4.7,5.2-6.8C60.7,3.9,60,2,59,1
	c-1-1-2.9-1.7-6.4,0.1c-2.1,1.1-4.5,2.9-6.8,5.2c-0.8,0.8-1.6,1.6-2.5,2.5l-7.4-2.2C36.7,5.6,36.6,4,35.6,3c-1.1-1.1-2.8-1.1-3.9,0
	l-1.9,1.9l-1.2-0.4c0.3-0.5,0.5-1,0.5-1.5c0-0.7-0.3-1.4-0.8-2c-1.1-1.1-2.8-1.1-3.9,0l-1.7,1.7l-8.7-2.6c-0.3-0.1-0.6,0-0.9,0.2
	l-2.3,2.3c-0.4,0.4-0.3,1,0.1,1.3L33,20.1c-5,5.6-9.8,11.2-13.2,15.2l-6.5-2.5c-0.3-0.1-0.7,0-0.9,0.2l-2.7,2.7
	c-0.3,0.3-0.3,0.9,0,1.3L23,50.3c0.3,0.3,0.9,0.3,1.3,0l2.7-2.7c0.2-0.2,0.3-0.6,0.2-0.9l-2.5-6.5c4-3.4,9.6-8.2,15.2-13.2l1.8,2.4
	c0.3,0.4,0.9,0.5,1.3,0.1c0.3-0.3,0.4-0.8,0.1-1.2l-1.9-2.5c2.9-2.6,5.8-5.3,8.5-7.8l8.3,28l-1.1,1.1L45.4,31.6
	c-0.3-0.4-0.8-0.5-1.2-0.2c-0.4,0.3-0.5,0.8-0.2,1.2l12.1,16.5c0.3,0.4,1,0.5,1.3,0.1l2.3-2.3c0.2-0.2,0.3-0.6,0.2-0.9L57.3,37.3z
	 M33,4.3c0.4-0.4,1-0.4,1.4,0c0.4,0.4,0.4,1,0,1.4L34,6.1l-2.2-0.7L33,4.3z M25.6,2.3c0.4-0.4,1-0.4,1.4,0c0.4,0.4,0.4,1,0,1.4
	L26.8,4l-2.2-0.7L25.6,2.3z M12.8,3.1L13.9,2l28,8.3c-2.5,2.6-5.1,5.5-7.8,8.5L12.8,3.1z M13.2,34.7l5.4,2.1c-1.4,1.6-2.4,2.9-3,3.6
	l-4-4L13.2,34.7z M16.9,41.6c3.1-3.7,19.4-23.3,30.1-34c2.1-2.1,4.5-3.9,6.4-4.9c1.4-0.7,3.4-1.4,4.4-0.4c1,1,0.3,2.9-0.4,4.4
	c-1,1.9-2.8,4.2-4.9,6.4c-10.7,10.7-30.3,27-34,30.1L16.9,41.6z M25.3,46.8l-1.6,1.6l-4-4c0.7-0.6,2-1.6,3.6-3L25.3,46.8z M56.3,33
	c0.4-0.4,1-0.4,1.4,0c0.4,0.4,0.4,1,0,1.4l-1,1L56,33.2L56.3,33z M54.3,25.6c0.4-0.4,1-0.4,1.4,0c0.4,0.4,0.4,1,0,1.4l-1.2,1.2
	L53.9,26L54.3,25.6z M53.1,50.9l-7.5,7.5c-0.3,0.3-0.3,0.9,0,1.2c0.3,0.4,0.9,0.4,1.3,0.1l7.5-7.5c0.3-0.3,0.3-0.9,0-1.3
	C54,50.6,53.4,50.6,53.1,50.9z M50.6,47.2c0.3,0.3,0.3,0.9,0,1.3l-4.7,4.7c-0.4,0.4-1,0.3-1.3-0.1c-0.3-0.3-0.3-0.9,0-1.2l4.7-4.7
	C49.7,46.8,50.2,46.8,50.6,47.2z M47.7,43.7c0.3-0.3,0.3-0.9,0-1.3c-0.3-0.3-0.9-0.3-1.3,0l-3.3,3.3c-0.3,0.3-0.3,0.9,0,1.2
	c0.3,0.4,0.9,0.4,1.3,0.1L47.7,43.7z M7.8,6.1c0.3-0.3,0.9-0.3,1.3,0c0.3,0.3,0.3,0.9,0,1.3l-7.5,7.5c-0.3,0.3-0.9,0.3-1.3,0
	c-0.3-0.3-0.3-0.9,0-1.3L7.8,6.1z M12.8,9.9c-0.3-0.3-0.9-0.3-1.3,0l-4.7,4.7c-0.3,0.3-0.3,0.9,0,1.2c0.3,0.4,0.9,0.4,1.3,0.1
	l4.7-4.7C13.2,10.8,13.2,10.2,12.8,9.9z M14.2,17.3c-0.3,0.3-0.9,0.3-1.3,0c-0.3-0.3-0.3-0.9,0-1.3l3.3-3.3c0.3-0.3,0.9-0.3,1.3,0
	c0.3,0.3,0.3,0.9,0,1.3L14.2,17.3z"/>
</svg>
