<?xml version="1.0" encoding="utf-8"?>
<!-- Generator: Adobe Illustrator 24.0.2, SVG Export Plug-In . SVG Version: 6.00 Build 0)  -->
<svg version="1.1" id="Layer_1" xmlns="http://www.w3.org/2000/svg" xmlns:xlink="http://www.w3.org/1999/xlink" x="0px" y="0px"
	 viewBox="0 0 60 60" style="enable-background:new 0 0 60 60;" xml:space="preserve">
<style type="text/css">
	.st0{fill:none;}
</style>
<rect class="st0" width="60" height="60"/>
<path d="M55.4,13.4L32,0.4c-0.9-0.5-2-0.5-3,0l-23.4,13C4.6,13.9,4,14.9,4,16v28c0,1.1,0.6,2.1,1.5,2.6l23.4,13c0.9,0.5,2,0.5,3,0
	l23.4-13c0.9-0.5,1.5-1.5,1.5-2.6V16C57,14.9,56.4,13.9,55.4,13.4z M45.8,10.3l2.4,1.3l-2.4,1.6V10.3z M37.6,5.8l4.7,2.6l-4.7,2.4
	V5.8z M35.6,12l-3.1,1.6l-1-0.5c-0.6-0.3-1.4-0.3-2,0.1l-7.2,4.4c-0.6,0.4-0.9,1-0.9,1.7v3.3l-5.1-2.8v-4.5l7.2-4.4l1,0.5
	c0.6,0.3,1.3,0.3,1.9,0l9.2-4.9V12z M23.4,19.5l7.2-4.4l1,0.5c0.6,0.3,1.3,0.3,1.9,0l10.2-5.7v4.5l-5.2,3.2l-1-0.5
	c-0.6-0.3-1.4-0.3-2,0.1l-7.2,4.4c-0.6,0.4-0.9,1-0.9,1.7V26l-4.1-2.2v-4.3H23.4z M31,27.5c-0.3,0.2-0.7,0.2-1,0l-0.5-0.3v-3.7
	l7.2-4.4l1,0.5c0.6,0.3,1.4,0.3,2-0.1L49.9,13v4L31,27.5z M51.9,13.7l2,1.1l-2,1.1V13.7z M30,2.1c0.3-0.2,0.7-0.2,1,0l4.1,2.3
	l-9.7,5.2l-1-0.5c-0.6-0.3-1.4-0.3-2,0.1l-7.2,4.4c-0.6,0.4-0.9,1-0.9,1.7v3.3l-7.1-3.9L30,2.1z M6.5,44.8C6.2,44.6,6,44.3,6,43.9
	V22.5l3.5,1.7c0.3,0.2,0.6,0.5,0.6,0.9V26c-1.6,0.6-2.4,2.3-1.8,3.8c0.6,1.6,2.3,2.4,3.9,1.8c1.5-0.6,2.4-2.3,1.8-3.8
	c-0.3-0.9-1-1.5-1.8-1.8v-0.9c0-1.1-0.6-2.2-1.7-2.7L6,20.3v-3.7L29,29.2c0.1,0.1,0.3,0.1,0.5,0.2v10.9l-8.7-4.6
	c-0.3-0.2-0.5-0.5-0.5-0.9v-2c1.6-0.6,2.4-2.3,1.8-3.8c-0.6-1.5-2.3-2.4-3.9-1.8c-1.6,0.6-2.4,2.3-1.8,3.8c0.3,0.9,1,1.5,1.8,1.8v2
	c0,1.1,0.6,2.1,1.6,2.6l9.6,5.1v9.8l-8.7-4.6c-0.3-0.2-0.5-0.5-0.5-0.9v-3.7c0-1.1-0.6-2-1.5-2.6l-3.6-2c0-0.1,0-0.3,0-0.4
	c0-1.7-1.3-3-3.1-3c-1.7,0-3.1,1.3-3.1,3c0,1.7,1.3,3,3.1,3c0.8,0,1.5-0.3,2.1-0.8l3.6,2.1c0.3,0.2,0.5,0.5,0.5,0.9V47
	c0,1.1,0.6,2.1,1.6,2.6l9.6,5.1v2.7L6.5,44.8z M12.1,28.9c0,0.6-0.4,1-1,1c-0.6,0-1-0.4-1-1c0-0.6,0.4-1,1-1
	C11.7,27.9,12.1,28.3,12.1,28.9L12.1,28.9z M18.3,29.9c0-0.6,0.4-1,1-1c0.6,0,1,0.4,1,1c0,0.6-0.4,1-1,1
	C18.7,31,18.3,30.6,18.3,29.9z M13.2,38c0,0.6-0.4,1-1,1c-0.6,0-1-0.4-1-1c0-0.6,0.4-1,1-1C12.8,37,13.2,37.4,13.2,38z M54.4,44.8
	L31.5,57.5v-8.8l9.6-5.1c1-0.5,1.6-1.5,1.6-2.6v-3.6c0-0.4,0.2-0.7,0.6-0.9l4.5-2.2c1.2,1.1,3.2,1.1,4.3-0.1
	c1.1-1.2,1.1-3.1-0.1-4.2c-1.2-1.1-3.2-1.1-4.3,0.1c-0.6,0.5-0.9,1.2-0.9,2v0.4l-4.5,2.2c-1,0.5-1.7,1.5-1.7,2.7V41
	c0,0.4-0.2,0.7-0.5,0.9l-8.6,4.5v-9.8l3-1.5c1.2,1.1,3.2,1.1,4.3-0.1c1.1-1.2,1.1-3.1-0.1-4.2c-1.2-1.1-3.2-1.1-4.3,0.1
	c-0.5,0.6-0.8,1.3-0.8,2.1v0.4l-2,1v-4.9c0.2,0,0.3-0.1,0.5-0.2l22.9-12.7v19.9l-5,2.5c-1.2-1.1-3.2-1.1-4.3,0.1
	c-1.1,1.2-1.1,3.1,0.1,4.2c1.2,1.1,3.2,1.1,4.3-0.1c0.5-0.6,0.8-1.3,0.8-2.1c0-0.1,0-0.2,0-0.4l4.1-2v5.2
	C54.9,44.3,54.7,44.6,54.4,44.8L54.4,44.8z M48.8,32c0-0.6,0.4-1,1-1c0.6,0,1,0.4,1,1c0,0.6-0.4,1-1,1C49.2,33,48.8,32.6,48.8,32z
	 M35.6,33c0-0.6,0.4-1,1-1c0.6,0,1,0.4,1,1c0,0.6-0.4,1-1,1C36,34,35.6,33.6,35.6,33z M48.8,41.1c0,0.6-0.4,1-1,1c-0.6,0-1-0.4-1-1
	c0-0.6,0.4-1,1-1C48.4,40,48.8,40.4,48.8,41.1z"/>
</svg>
