<?xml version="1.0" encoding="utf-8"?>
<!-- Generator: Adobe Illustrator 24.0.2, SVG Export Plug-In . SVG Version: 6.00 Build 0)  -->
<svg version="1.1" id="Layer_1" xmlns="http://www.w3.org/2000/svg" xmlns:xlink="http://www.w3.org/1999/xlink" x="0px" y="0px"
	 viewBox="0 0 60 60" style="enable-background:new 0 0 60 60;" xml:space="preserve">
<style type="text/css">
	.st0{fill:none;}
	.st1{fill-rule:evenodd;clip-rule:evenodd;}
</style>
<rect class="st0" width="60" height="60"/>
<path class="st1" d="M38.4,7.5l-4-2.8c-2.6-2.2-6.4-2.2-9.1,0l-4,2.9h-8.4c-1,0-1.9,0.8-1.9,1.8v5.5l-7.7,5.5c0,0-0.1,0-0.1,0.1
	c-0.1,0.1-0.1,0.1-0.2,0.2C3,20.7,3,20.8,3,21v0l0,0v33.3C3,55.8,4.2,57,5.7,57H54c1.5,0,2.7-1.2,2.7-2.7V21c0-0.1,0-0.1,0-0.2
	c0-0.2-0.2-0.5-0.4-0.6l-7.7-5.5V9.3c0-1-0.9-1.8-1.9-1.8H38.4z M48.6,17v8.8l5.7-4.8L48.6,17z M48.3,28.4
	C48.3,28.4,48.3,28.4,48.3,28.4l6.6-5.5v31.3L36.2,38.6L48.3,28.4z M46.9,27.3v-18c0,0,0,0,0,0c0,0,0,0-0.1,0H12.9c0,0-0.1,0-0.1,0
	l0,18l12.5,10.4c0.1,0.1,0.2,0.1,0.3,0.2l0.8,0.7c2,1.7,4.9,1.6,6.8,0l0.8-0.7c0.1-0.1,0.1-0.1,0.2-0.2L46.9,27.3z M11.4,28.4
	C11.4,28.4,11.4,28.4,11.4,28.4l12.1,10.1L4.8,54.2V22.9L11.4,28.4z M11.1,25.8V17l-5.7,4.1L11.1,25.8z M24.4,7.5h10.9l-2-1.4
	c-2-1.7-4.9-1.7-6.9,0L24.4,7.5z M31,33.6c-2,0-4-0.3-5.9-0.9c-3.1-1-5.3-3.6-5.9-6.8c-0.7-3.3,0.6-6.7,3.4-9.5
	c0.3-0.3,0.6-0.6,0.9-0.8c2.9-2.4,6.8-3.3,10.4-2.3c3.5,1.1,5.9,4.3,6,8c0.1,2.1-0.6,4.2-1.9,5.9c-1.1,1.3-2.8,2-4.4,1.6
	c-0.7-0.1-1.3-0.6-1.6-1.1c-0.1-0.1-0.1-0.2-0.2-0.3c-0.1,0.1-0.2,0.2-0.3,0.3c-1,0.8-2.2,1.3-3.5,1.3c-0.9,0-1.9-0.3-2.6-0.9
	c-1.7-1.4-1.8-3.8-1.3-5.4c0.2-0.5,0.4-1.1,0.6-1.6c0.7-1.4,1.7-2.5,3.1-3.2c1.7-0.9,3.7-0.5,5,0.8c0.1,0.1,0.2,0.3,0.3,0.4
	c0.1-0.5,0.2-0.8,0.2-0.8c0.1-0.3,0.3-0.6,0.6-0.7c0.3-0.1,0.6-0.1,0.9,0.2c0.2,0.2,0.4,0.5,0.3,0.8l0,0c0,0.2-0.6,3.2-1.2,6
	c0,0.1,0,0.1,0,0.2c-0.1,0.5-0.2,1-0.4,1.5c-0.1,0.2,0,0.4,0,0.5c0.1,0.2,0.3,0.3,0.5,0.3c1,0.2,2-0.2,2.7-1.1
	c1.1-1.3,1.6-2.9,1.5-4.6c-0.1-2.9-2-5.5-4.8-6.4c-3-0.8-6.3-0.1-8.7,1.9c-0.3,0.2-0.6,0.5-0.8,0.8c-1.4,1.4-3.6,4.2-2.9,7.8
	c0.5,2.5,2.3,4.6,4.7,5.5c4.2,1.3,10.2,1.5,13.4-2.5c0.3-0.4,0.9-0.4,1.2-0.1c0.4,0.3,0.4,0.9,0.1,1.3C38,32.5,34.5,33.6,31,33.6z
	 M30.2,26.3c0.7-0.6,1.3-1.4,1.8-2.2c0.2-0.7,0.3-1.5,0.5-2.2c0,0,0-0.1-0.1-0.1c-0.2-0.7-0.6-1.3-1-1.8c-0.8-0.8-1.9-1-2.9-0.4
	c-1,0.6-1.8,1.4-2.3,2.5c-0.2,0.4-0.4,0.8-0.5,1.2c-0.3,1.2-0.3,2.7,0.7,3.5C27.4,27.5,29.2,27.1,30.2,26.3z M34.4,40l0.4-0.3
	l18.5,15.5h-47l18.5-15.5l0.4,0.3C27.9,42.2,31.8,42.2,34.4,40z"/>
</svg>
