<?xml version="1.0" encoding="utf-8"?>
<!-- Generator: Adobe Illustrator 24.0.2, SVG Export Plug-In . SVG Version: 6.00 Build 0)  -->
<svg version="1.1" id="Layer_1" xmlns="http://www.w3.org/2000/svg" xmlns:xlink="http://www.w3.org/1999/xlink" x="0px" y="0px"
	 viewBox="0 0 60 60" style="enable-background:new 0 0 60 60;" xml:space="preserve">
<style type="text/css">
	.st0{fill:none;}
	.st1{fill-rule:evenodd;clip-rule:evenodd;}
</style>
<rect class="st0" width="60" height="60"/>
<path class="st1" d="M0,7.9c0-7.3,24.6-10.1,38.8-6C48.2-3.5,60,3.3,60,14.2c0,3.6-1.3,7-3.7,9.6c-0.3,0.4-0.9,0.4-1.2,0.1
	c-0.4-0.3-0.4-0.9-0.1-1.2c2.1-2.3,3.3-5.3,3.3-8.4c0-6.8-5.6-12.4-12.4-12.4c-6.9,0-12.5,5.6-12.4,12.6C33.6,23.7,43.8,29.7,52,25
	c0.4-0.2,1-0.1,1.2,0.3c0.2,0.4,0.1,1-0.3,1.2c-1.9,1.1-4,1.7-6.1,1.8v6.5c0,0.5-0.4,0.9-0.9,0.9S45,35.3,45,34.8V33
	c-7.6,6.3-35.6,6.3-43.2,0v7.8c0,2.8,8.7,6.2,21.6,6.2c12.9,0,21.6-3.3,21.6-6.2v-1.8c0-0.5,0.4-0.9,0.9-0.9s0.9,0.4,0.9,0.9v12.8
	c0,5.1-12,7.9-23.4,7.9C12,59.6,0,56.8,0,51.7V7.9z M45,51.7v-7.8c-7.6,6.3-35.6,6.3-43.2,0v7.8c0,2.8,8.7,6.2,21.6,6.2
	C36.3,57.8,45,54.5,45,51.7z M45,28.3c-2.9-0.2-5.6-1.2-7.9-3C25,28.2,7.3,26.6,1.8,22v7.8c0,2.8,8.7,6.2,21.6,6.2
	c12.9,0,21.6-3.3,21.6-6.2V28.3z M1.8,18.9c0,4.4,18.6,8.1,33.8,5c-2.2-2.3-3.5-5.3-3.8-8.5c-10.1,1.2-24.7,0.1-30-4.2V18.9z
	 M1.8,7.9c0,3.9,14.9,7.6,30,5.6c0.2-4.2,2.1-7.9,5.2-10.4C22-0.4,1.8,3.3,1.8,7.9z M55.7,9.7c0.2-1-0.7-1.8-1.7-1.4l-1.4,0.5
	C48.4,3.5,40,4.9,37.7,11.2c-0.2,0.5,0.1,1,0.5,1.1c0.5,0.2,1-0.1,1.1-0.5c1.7-4.8,8-6.2,11.5-2.4l-0.9,0.4
	c-0.9,0.4-1.1,1.6-0.3,2.2l3.3,2.4l0,0c0.7,0.5,1.8,0.1,2-0.8L55.7,9.7z M53.3,12.5l-1.9-1.4l2.4-0.9L53.3,12.5z M53.5,16
	c-0.5-0.2-1,0.1-1.1,0.5c-1.8,4.9-8.1,6.2-11.6,2.3l0.9-0.4c0.9-0.4,1.1-1.6,0.3-2.2l-3.3-2.4c-0.7-0.5-1.8-0.1-2,0.8l-0.8,4
	c-0.2,1,0.8,1.8,1.7,1.4l1.4-0.5c4.2,5.4,12.7,4.1,15-2.3C54.2,16.7,53.9,16.2,53.5,16z M37.8,18l0.5-2.3l1.9,1.4L37.8,18z"/>
</svg>
