<?xml version="1.0" encoding="utf-8"?>
<!-- Generator: Adobe Illustrator 24.0.2, SVG Export Plug-In . SVG Version: 6.00 Build 0)  -->
<svg version="1.1" id="Layer_1" xmlns="http://www.w3.org/2000/svg" xmlns:xlink="http://www.w3.org/1999/xlink" x="0px" y="0px"
	 viewBox="0 0 60 60" style="enable-background:new 0 0 60 60;" xml:space="preserve">
<style type="text/css">
	.st0{fill:none;}
	.st1{fill-rule:evenodd;clip-rule:evenodd;}
</style>
<rect class="st0" width="60" height="60"/>
<path class="st1" d="M30.7,6.7C30.5,6.8,30.2,7,30,7c-0.3,0-0.5-0.1-0.7-0.3C29.1,6.5,29,6.2,29,6c0-0.3,0.1-0.5,0.3-0.7
	S29.7,5,30,5c0.3,0,0.5,0.1,0.7,0.3s0.3,0.4,0.3,0.7C30.9,6.2,30.8,6.5,30.7,6.7z M52,35.9c1.6,0,2.9,1.3,2.9,2.9v4.7
	c0,0.7-0.3,1.4-0.7,2c0.5,0.5,0.7,1.2,0.7,2v4.7c0,1.6-1.3,2.9-2.9,2.9H34.1c-1.6,0-2.9-1.3-2.9-2.9v-4.7c0-0.7,0.3-1.4,0.7-2
	c-0.5-0.5-0.7-1.2-0.7-2v-4.7c0-1.6,1.3-2.9,2.9-2.9H42V31h-8.9c-0.4,1.4-1.7,2.3-3.2,2.3s-2.8-1-3.2-2.3h-8.9v4.9h8
	c1.6,0,2.9,1.3,2.9,2.9v4.7c0,0.7-0.3,1.4-0.7,2c0.5,0.5,0.7,1.2,0.7,2v4.7c0,1.6-1.3,2.9-2.9,2.9H7.9C6.3,55,5,53.7,5,52.1v-4.7
	c0-0.7,0.3-1.4,0.7-2c-0.5-0.5-0.7-1.2-0.7-2v-4.7c0-1.6,1.3-2.9,2.9-2.9h8V30c0-0.5,0.4-1,1-1h9.8c0.3-1,1.1-1.9,2.2-2.2v-2.7H18.3
	c-1.6,0-2.9-1.3-2.9-2.9v-4.7c0-0.7,0.3-1.4,0.7-2c-0.5-0.5-0.7-1.2-0.7-2V7.9c0-1.6,1.3-2.9,2.9-2.9h7.3c0.5,0,1,0.4,1,1
	s-0.4,1-1,1h-7.3c-0.5,0-1,0.4-1,1v4.7c0,0.5,0.4,1,1,1h23.4c0.5,0,1-0.4,1-1V7.9c0-0.5-0.4-1-1-1h-7.3c-0.5,0-1-0.4-1-1s0.4-1,1-1
	h7.3c1.6,0,2.9,1.3,2.9,2.9v4.7c0,0.7-0.3,1.4-0.7,2c0.5,0.5,0.7,1.2,0.7,2v4.7c0,1.6-1.3,2.9-2.9,2.9H30.9v2.7
	c1,0.3,1.9,1.2,2.2,2.2h9.8c0.5,0,1,0.4,1,1v5.9H52z M17.3,16.5v4.7c0,0.5,0.4,1,1,1h23.4c0.5,0,1-0.4,1-1v-4.7c0-0.5-0.4-1-1-1
	H18.3C17.7,15.5,17.3,16,17.3,16.5z M25.9,53c0.5,0,1-0.4,1-1v-4.7c0-0.5-0.4-1-1-1H7.9c-0.5,0-1,0.4-1,1v4.7c0,0.5,0.4,1,1,1H25.9z
	 M26.8,43.5v-4.7c0-0.5-0.4-1-1-1H7.9c-0.5,0-1,0.4-1,1v4.7c0,0.5,0.4,1,1,1h17.9C26.4,44.5,26.8,44,26.8,43.5z M28.6,30
	c0,0.8,0.6,1.4,1.4,1.4s1.4-0.6,1.4-1.4c0-0.8-0.6-1.4-1.4-1.4S28.6,29.2,28.6,30z M34.1,37.8c-0.5,0-1,0.4-1,1v4.7c0,0.5,0.4,1,1,1
	H52c0.5,0,1-0.4,1-1v-4.7c0-0.5-0.4-1-1-1H34.1z M52,53c0.5,0,1-0.4,1-1v-4.7c0-0.5-0.4-1-1-1H34.1c-0.5,0-1,0.4-1,1v4.7
	c0,0.5,0.4,1,1,1H52z M20.8,11.3c-0.5,0-1-0.4-1-1c0-0.5,0.4-1,1-1h8.2c0.5,0,1,0.4,1,1c0,0.5-0.4,1-1,1H20.8z M20.8,17.9h8.2
	c0.5,0,1,0.4,1,1c0,0.5-0.4,1-1,1h-8.2c-0.5,0-1-0.4-1-1C19.8,18.3,20.3,17.9,20.8,17.9z M34.7,19.6c-0.2,0.2-0.4,0.3-0.7,0.3
	s-0.5-0.1-0.7-0.3c-0.2-0.2-0.3-0.4-0.3-0.7c0-0.3,0.1-0.5,0.3-0.7c0.2-0.2,0.4-0.3,0.7-0.3s0.5,0.1,0.7,0.3
	c0.2,0.2,0.3,0.4,0.3,0.7C35,19.1,34.9,19.4,34.7,19.6z M39.1,19.8c0.3,0,0.5-0.1,0.7-0.3c0.2-0.2,0.3-0.4,0.3-0.7
	c0-0.3-0.1-0.5-0.3-0.7c-0.2-0.2-0.4-0.3-0.7-0.3c-0.3,0-0.5,0.1-0.7,0.3c-0.2,0.2-0.3,0.4-0.3,0.7c0,0.3,0.1,0.5,0.3,0.7
	C38.6,19.7,38.9,19.8,39.1,19.8z M34,11.3c0.3,0,0.5-0.1,0.7-0.3c0.2-0.2,0.3-0.4,0.3-0.7c0-0.3-0.1-0.5-0.3-0.7
	c-0.2-0.2-0.4-0.3-0.7-0.3s-0.5,0.1-0.7,0.3c-0.2,0.2-0.3,0.4-0.3,0.7c0,0.3,0.1,0.5,0.3,0.7C33.5,11.1,33.8,11.3,34,11.3z
	 M40.1,10.3c0,0.3-0.1,0.5-0.3,0.7c-0.2,0.2-0.4,0.3-0.7,0.3c-0.3,0-0.5-0.1-0.7-0.3c-0.2-0.2-0.3-0.4-0.3-0.7
	c0-0.3,0.1-0.5,0.3-0.7c0.2-0.2,0.4-0.3,0.7-0.3c0.3,0,0.5,0.1,0.7,0.3C40,9.8,40.1,10,40.1,10.3z M15.3,48.8H9.9c-0.5,0-1,0.4-1,1
	c0,0.5,0.4,1,1,1h5.5c0.5,0,1-0.4,1-1C16.3,49.2,15.9,48.8,15.3,48.8z M18.9,49c0.2-0.2,0.4-0.3,0.7-0.3s0.5,0.1,0.7,0.3
	c0.2,0.2,0.3,0.4,0.3,0.7c0,0.3-0.1,0.5-0.3,0.7c-0.2,0.2-0.4,0.3-0.7,0.3s-0.5-0.1-0.7-0.3c-0.2-0.2-0.3-0.4-0.3-0.7
	C18.7,49.5,18.8,49.2,18.9,49z M23.9,48.8c-0.3,0-0.5,0.1-0.7,0.3c-0.2,0.2-0.3,0.4-0.3,0.7c0,0.3,0.1,0.5,0.3,0.7
	c0.2,0.2,0.4,0.3,0.7,0.3s0.5-0.1,0.7-0.3c0.2-0.2,0.3-0.4,0.3-0.7c0-0.3-0.1-0.5-0.3-0.7C24.4,48.9,24.2,48.8,23.9,48.8z
	 M15.3,42.1H9.9c-0.5,0-1-0.4-1-1c0-0.5,0.4-1,1-1h5.5c0.5,0,1,0.4,1,1C16.3,41.7,15.9,42.1,15.3,42.1z M19.6,42.1
	c0.3,0,0.5-0.1,0.7-0.3c0.2-0.2,0.3-0.4,0.3-0.7s-0.1-0.5-0.3-0.7c-0.2-0.2-0.4-0.3-0.7-0.3s-0.5,0.1-0.7,0.3
	c-0.2,0.2-0.3,0.4-0.3,0.7s0.1,0.5,0.3,0.7C19.1,42,19.4,42.1,19.6,42.1z M24.6,41.8c-0.2,0.2-0.4,0.3-0.7,0.3s-0.5-0.1-0.7-0.3
	c-0.2-0.2-0.3-0.4-0.3-0.7s0.1-0.5,0.3-0.7c0.2-0.2,0.4-0.3,0.7-0.3s0.5,0.1,0.7,0.3c0.2,0.2,0.3,0.4,0.3,0.7S24.8,41.6,24.6,41.8z
	 M41.5,48.8H36c-0.5,0-1,0.4-1,1c0,0.5,0.4,1,1,1h5.5c0.5,0,1-0.4,1-1C42.4,49.2,42,48.8,41.5,48.8z M45.1,49
	c0.2-0.2,0.4-0.3,0.7-0.3c0.3,0,0.5,0.1,0.7,0.3c0.2,0.2,0.3,0.4,0.3,0.7c0,0.3-0.1,0.5-0.3,0.7c-0.2,0.2-0.4,0.3-0.7,0.3
	c-0.3,0-0.5-0.1-0.7-0.3c-0.2-0.2-0.3-0.4-0.3-0.7C44.8,49.5,44.9,49.2,45.1,49z M50.1,48.8c-0.3,0-0.5,0.1-0.7,0.3
	c-0.2,0.2-0.3,0.4-0.3,0.7c0,0.3,0.1,0.5,0.3,0.7c0.2,0.2,0.4,0.3,0.7,0.3s0.5-0.1,0.7-0.3c0.2-0.2,0.3-0.4,0.3-0.7
	c0-0.3-0.1-0.5-0.3-0.7C50.6,48.9,50.3,48.8,50.1,48.8z M36,42.1h5.5c0.5,0,1-0.4,1-1c0-0.5-0.4-1-1-1H36c-0.5,0-1,0.4-1,1
	C35,41.7,35.5,42.1,36,42.1z M46.5,41.8c-0.2,0.2-0.4,0.3-0.7,0.3c-0.3,0-0.5-0.1-0.7-0.3c-0.2-0.2-0.3-0.4-0.3-0.7s0.1-0.5,0.3-0.7
	c0.2-0.2,0.4-0.3,0.7-0.3c0.3,0,0.5,0.1,0.7,0.3c0.2,0.2,0.3,0.4,0.3,0.7S46.6,41.6,46.5,41.8z M50.1,42.1c0.3,0,0.5-0.1,0.7-0.3
	c0.2-0.2,0.3-0.4,0.3-0.7s-0.1-0.5-0.3-0.7c-0.2-0.2-0.4-0.3-0.7-0.3s-0.5,0.1-0.7,0.3c-0.2,0.2-0.3,0.4-0.3,0.7s0.1,0.5,0.3,0.7
	C49.5,42,49.8,42.1,50.1,42.1z"/>
</svg>
