<?xml version="1.0" encoding="utf-8"?>
<!-- Generator: Adobe Illustrator 24.0.2, SVG Export Plug-In . SVG Version: 6.00 Build 0)  -->
<svg version="1.1" id="Layer_1" xmlns="http://www.w3.org/2000/svg" xmlns:xlink="http://www.w3.org/1999/xlink" x="0px" y="0px"
	 viewBox="0 0 60 60" style="enable-background:new 0 0 60 60;" xml:space="preserve">
<style type="text/css">
	.st0{fill:none;}
	.st1{fill-rule:evenodd;clip-rule:evenodd;}
</style>
<rect class="st0" width="60" height="60"/>
<path class="st1" d="M3.7,3h45c2,0,3.7,1.7,3.7,3.7v22.2c0,0.5-0.4,0.9-0.9,0.9c-0.5,0-0.9-0.4-0.9-0.9V14.2H1.8v30.2
	c0,1.1,0.9,1.9,1.9,1.9h1.9v-5.7c0-1.5,0.9-2.8,2.3-3.4l4.6-1.9c0.4-0.2,0.6-0.5,0.6-0.9V33c-1.2-1.2-1.9-2.9-1.9-4.6v-3.8
	c0-3.1,2.9-5.6,6.5-5.6s6.5,2.5,6.5,5.6v3.8c0,1.7-0.7,3.4-1.9,4.6v1.4c0,0.4,0.2,0.8,0.6,0.9l4.6,1.9c1.4,0.6,2.3,1.9,2.3,3.4v5.7
	h3.3c0.5,0,0.9,0.4,0.9,0.9c0,0.5-0.4,0.9-0.9,0.9H3.7c-2,0-3.7-1.7-3.7-3.7V6.7C0,4.7,1.7,3,3.7,3z M8.6,38.9
	c-0.7,0.3-1.2,1-1.2,1.8v5.7h20.8v-5.7c0-0.8-0.5-1.5-1.2-1.8l-4.6-1.9c-1-0.4-1.7-1.4-1.7-2.6v-0.2l0,0c0,0,0,0,0,0
	c-0.3,0-0.6-0.2-0.8-0.4c-0.2-0.4-0.1-1,0.3-1.2c1.5-0.9,2.4-2.4,2.4-4.1v-3.8c0-2.1-2.1-3.8-4.7-3.8S13,22.5,13,24.6v3.8
	c0,1.7,0.9,3.3,2.4,4.1c0.4,0.2,0.6,0.8,0.3,1.2c-0.2,0.3-0.5,0.5-0.8,0.4v0.2c0,1.1-0.7,2.1-1.7,2.6L8.6,38.9z M1.8,12.4h48.9V6.7
	c0-1.1-0.9-1.9-1.9-1.9h-45c-1.1,0-1.9,0.9-1.9,1.9V12.4z M4.6,7.7L4.6,7.7c0.5,0,0.9,0.4,0.9,0.9S5.1,9.5,4.6,9.5S3.8,9.1,3.8,8.6
	S4.1,7.7,4.6,7.7z M10.3,7.7L10.3,7.7c-0.5,0-0.9,0.4-0.9,0.9s0.4,0.9,0.9,0.9c0.5,0,0.9-0.4,0.9-0.9S10.7,7.7,10.3,7.7z M7.4,7.7
	L7.4,7.7c0.5,0,0.9,0.4,0.9,0.9S7.9,9.5,7.4,9.5C7,9.5,6.6,9.1,6.6,8.6S6.9,7.7,7.4,7.7z M47.8,7.7H14c-0.5,0-0.9,0.4-0.9,0.9
	s0.4,0.9,0.9,0.9h33.8c0.5,0,0.9-0.4,0.9-0.9S48.3,7.7,47.8,7.7z M46.7,30.4l12.7,4.4c0.4,0.1,0.6,0.5,0.6,0.9
	c0,0.1-0.1,3.5-1.7,7.9c-1.5,4-4.7,9.7-11.3,13.9c-0.1,0.1-0.3,0.1-0.5,0.1c-0.2,0-0.3,0-0.5-0.1c-6.6-4.1-9.8-9.8-11.3-13.9
	c-1.7-4.4-1.7-7.8-1.7-7.9c0-0.5,0.4-0.9,0.9-0.9c0.5,0,0.9,0.4,0.9,0.9c0,0,0.1,3.3,1.7,7.4c1.4,3.7,4.3,8.8,10.1,12.6
	c5.9-3.8,8.8-9,10.2-12.7c1.1-3,1.5-5.6,1.6-6.7l-11.7-4.1l-8.8,3.1c-0.5,0.2-1-0.1-1.1-0.5c-0.2-0.5,0.1-1,0.5-1.1l9.1-3.2
	C46.4,30.3,46.6,30.3,46.7,30.4z M52.2,39.8c-0.3-0.3-0.9-0.3-1.2,0l-5.4,5.5L42.3,42c-0.3-0.3-0.9-0.3-1.2,0
	c-0.3,0.3-0.3,0.9,0,1.2l3.9,3.9c0.2,0.2,0.4,0.3,0.6,0.3s0.4-0.1,0.6-0.3l6.1-6.1C52.5,40.7,52.5,40.2,52.2,39.8z M30,18.1h15
	c1,0,1.8,0.8,1.8,1.8v2.8c0,1-0.8,1.8-1.8,1.8H30c-1,0-1.8-0.8-1.8-1.8v-2.8C28.1,18.9,29,18.1,30,18.1z M45,22.8
	C45,22.8,45,22.8,45,22.8l0.1-2.9c0,0,0-0.1-0.1-0.1H30c0,0-0.1,0-0.1,0.1v2.8c0,0,0,0.1,0.1,0.1H45z M41.2,26.6H30
	c-0.5,0-0.9,0.4-0.9,0.9c0,0.5,0.4,0.9,0.9,0.9h11.3c0.5,0,0.9-0.4,0.9-0.9C42.1,27,41.7,26.6,41.2,26.6z M30,30.4h6.6
	c0.5,0,0.9,0.4,0.9,0.9c0,0.5-0.4,0.9-0.9,0.9H30c-0.5,0-0.9-0.4-0.9-0.9C29.1,30.7,29.5,30.4,30,30.4z"/>
</svg>
