<?xml version="1.0" encoding="utf-8"?>
<!-- Generator: Adobe Illustrator 24.0.2, SVG Export Plug-In . SVG Version: 6.00 Build 0)  -->
<svg version="1.1" id="Layer_1" xmlns="http://www.w3.org/2000/svg" xmlns:xlink="http://www.w3.org/1999/xlink" x="0px" y="0px"
	 viewBox="0 0 60 60" style="enable-background:new 0 0 60 60;" xml:space="preserve">
<style type="text/css">
	.st0{fill:none;}
	.st1{fill-rule:evenodd;clip-rule:evenodd;}
</style>
<rect class="st0" width="60" height="60"/>
<path class="st1" d="M39,23.9H3c-1.7,0-3-1.3-3-3v-10c0-1.7,1.3-3,3-3h5c0.6,0,1,0.4,1,1c0,0.6-0.4,1-1,1H3c-0.6,0-1,0.4-1,1v10
	c0,0.6,0.4,1,1,1h37c0.6,0,1,0.4,1,1v3.9c0,0.4,0.2,0.7,0.6,0.9c0.3,0.2,0.8,0.1,1.1-0.1l13.8-10.9c0.2-0.2,0.4-0.5,0.4-0.8
	c0-0.3-0.1-0.6-0.4-0.8L42.6,4.2c-0.3-0.2-0.7-0.3-1.1-0.1C41.2,4.3,41,4.6,41,5v3.9c0,0.6-0.4,1-1,1H13c-0.6,0-1-0.4-1-1
	c0-0.6,0.4-1,1-1h26V5c0-1.2,0.7-2.2,1.7-2.7c1-0.5,2.3-0.4,3.2,0.3l13.8,10.9c0.7,0.6,1.1,1.4,1.1,2.4c0,0.9-0.4,1.8-1.1,2.4
	L43.9,29.1c-0.9,0.7-2.1,0.8-3.2,0.3c-1-0.5-1.7-1.6-1.7-2.7V23.9z M52,35.9h5c1.7,0,3,1.3,3,3v10c0,1.7-1.3,3-3,3H21v2.9
	c0,1.2-0.7,2.2-1.7,2.7c-1,0.5-2.3,0.4-3.2-0.3L2.4,46.3c-0.7-0.6-1.1-1.4-1.1-2.4c0-0.9,0.4-1.8,1.1-2.4l13.8-10.9
	c0.9-0.7,2.1-0.8,3.2-0.3c1,0.5,1.7,1.6,1.7,2.7v2.9h26c0.6,0,1,0.4,1,1c0,0.6-0.4,1-1,1H20c-0.6,0-1-0.4-1-1V33
	c0-0.4-0.2-0.7-0.6-0.9c-0.3-0.2-0.8-0.1-1.1,0.1L3.6,43.1c-0.2,0.2-0.4,0.5-0.4,0.8s0.1,0.6,0.4,0.8l13.8,10.9
	c0.3,0.2,0.7,0.3,1.1,0.1c0.3-0.2,0.6-0.5,0.6-0.9v-3.9c0-0.6,0.4-1,1-1h37c0.6,0,1-0.4,1-1v-10c0-0.6-0.4-1-1-1h-5
	c-0.6,0-1-0.4-1-1C51,36.4,51.4,35.9,52,35.9z M55,47.9c0.6,0,1-0.4,1-1v-3c0-0.6-0.4-1-1-1c-0.6,0-1,0.4-1,1v2h-2c-0.6,0-1,0.4-1,1
	c0,0.6,0.4,1,1,1H55z M4,15.9c0-0.6,0.4-1,1-1s1,0.4,1,1v2h2c0.6,0,1,0.4,1,1c0,0.6-0.4,1-1,1H5c-0.6,0-1-0.4-1-1V15.9z"/>
</svg>
