<?xml version="1.0" encoding="utf-8"?>
<!-- Generator: Adobe Illustrator 24.0.2, SVG Export Plug-In . SVG Version: 6.00 Build 0)  -->
<svg version="1.1" id="Layer_1" xmlns="http://www.w3.org/2000/svg" xmlns:xlink="http://www.w3.org/1999/xlink" x="0px" y="0px"
	 viewBox="0 0 60 60" style="enable-background:new 0 0 60 60;" xml:space="preserve">
<style type="text/css">
	.st0{fill:none;}
	.st1{fill-rule:evenodd;clip-rule:evenodd;}
</style>
<rect class="st0" width="60" height="60"/>
<path class="st1" d="M37.5,25.3c0,2.1-1.7,3.7-3.7,3.7v0H3.7c-2,0-3.7-1.7-3.7-3.7v-0.7C0,23.7,0.7,23,1.5,23h2.4
	C3.4,22.3,3,21.4,3,20.4V4.5C3,2,5.1,0,7.6,0h22.3c2.5,0,4.5,2,4.5,4.5v5.8c0,0.5-0.4,0.9-0.9,0.9s-0.9-0.4-0.9-0.9V4.5
	c0-1.5-1.2-2.8-2.8-2.8H7.6C6,1.8,4.8,3,4.8,4.5v15.9c0,1.2,0.8,2.2,1.9,2.6h24.1c1.1-0.4,1.9-1.4,1.9-2.6v-6c0-0.5,0.4-0.9,0.9-0.9
	s0.9,0.4,0.9,0.9v6c0,1-0.3,1.9-0.8,2.6H36c0.8,0,1.5,0.7,1.5,1.5V25.3z M1.8,24.8v0.5c0,1.1,0.9,2,1.9,2h30.1c1.1,0,1.9-0.9,1.9-2
	v-0.5H1.8z M6.3,4.8c0-0.8,0.7-1.5,1.5-1.5h21.8c0.8,0,1.5,0.7,1.5,1.5V20c0,0.8-0.7,1.5-1.5,1.5H7.8c-0.8,0-1.5-0.7-1.5-1.5V4.8z
	 M10.6,5H8.1v2.1h2.5V5z M8.1,19.8h21.3V8.9H8.1V19.8z M12.3,7.1h17.1V5H12.3V7.1z M58.5,53.8h-2.4c0.5-0.7,0.8-1.7,0.8-2.6V35.3
	c0-2.5-2-4.5-4.5-4.5h-7.9c-0.5,0-0.9,0.4-0.9,0.9s0.4,0.9,0.9,0.9h7.9c1.5,0,2.8,1.2,2.8,2.8v15.9c0,1.2-0.8,2.2-1.9,2.6H29.2
	c-1.1-0.4-1.9-1.4-1.9-2.6V35.3c0-1.5,1.2-2.8,2.8-2.8h10.3c0.5,0,0.9-0.4,0.9-0.9s-0.4-0.9-0.9-0.9H30.1c-2.5,0-4.5,2-4.5,4.5v15.9
	c0,1,0.3,1.9,0.8,2.6H24c-0.8,0-1.5,0.7-1.5,1.5v0.7c0,2.1,1.7,3.7,3.7,3.7h30.1c2,0,3.7-1.7,3.7-3.7v-0.7
	C60,54.5,59.3,53.8,58.5,53.8z M58.2,56.1c0,1.1-0.9,2-1.9,2H26.2c-1.1,0-1.9-0.9-1.9-2v-0.5h33.9L58.2,56.1L58.2,56.1z M28.9,35.6
	c0-0.8,0.7-1.5,1.5-1.5h21.8c0.8,0,1.5,0.7,1.5,1.5v15.3c0,0.8-0.7,1.5-1.5,1.5H30.4c-0.8,0-1.5-0.7-1.5-1.5V35.6z M33.1,35.8h-2.5
	v2.1h2.5V35.8z M30.6,50.6h21.3V39.7H30.6V50.6z M51.9,35.8H34.9v2.1h17.1V35.8z M52.8,27.8c0.5,0,0.9-0.4,0.9-0.9V7.8
	c1.7-0.4,2.9-1.9,2.9-3.7c0-2.1-1.7-3.8-3.8-3.8c-1.8,0-3.3,1.2-3.7,2.9H38.3c-0.5,0-0.9,0.4-0.9,0.9c0,0.5,0.4,0.9,0.9,0.9h10.9
	c0.3,1.4,1.4,2.4,2.8,2.8V27C51.9,27.4,52.3,27.8,52.8,27.8z M50.8,4.1c0-1.1,0.9-2,2-2c1.1,0,2,0.9,2,2s-0.9,2-2,2
	C51.7,6.1,50.8,5.2,50.8,4.1z M7,32.9C7,32.4,7.4,32,7.8,32c0.5,0,0.9,0.4,0.9,0.9v15c1.4,0.3,2.4,1.4,2.8,2.8h8.8
	c0.5,0,0.9,0.4,0.9,0.9c0,0.5-0.4,0.9-0.9,0.9h-8.8c-0.4,1.7-1.9,2.9-3.7,2.9c-2.1,0-3.8-1.7-3.8-3.8c0-1.8,1.2-3.3,2.9-3.7V32.9z
	 M7.8,53.5c1.1,0,2-0.9,2-2c0-1.1-0.9-2-2-2l0,0l0,0c-1.1,0-2,0.9-2,2C5.8,52.6,6.7,53.5,7.8,53.5z"/>
</svg>
