<?xml version="1.0" encoding="utf-8"?>
<!-- Generator: Adobe Illustrator 24.0.2, SVG Export Plug-In . SVG Version: 6.00 Build 0)  -->
<svg version="1.1" id="Layer_1" xmlns="http://www.w3.org/2000/svg" xmlns:xlink="http://www.w3.org/1999/xlink" x="0px" y="0px"
	 viewBox="0 0 60 60" style="enable-background:new 0 0 60 60;" xml:space="preserve">
<style type="text/css">
	.st0{fill:none;}
	.st1{fill-rule:evenodd;clip-rule:evenodd;}
</style>
<rect class="st0" width="60" height="60"/>
<path class="st1" d="M24.1,0h29.3l6.3,6.4v27.5c0,1.6-1.3,2.9-2.9,2.9h-26v17.4c0,3.8-7.7,5.8-15.4,5.8C7.7,60,0,58,0,54.2V30
	c0-3.9,6.6-6.8,15.4-6.8c2,0,4,0.2,5.8,0.5V2.9C21.2,1.3,22.5,0,24.1,0z M52,1.9H28.9v9.7H52V1.9z M15.4,29c-4.7,0-7.7,1.7-7.7,2.9
	s3,2.9,7.7,2.9c2,0,4-0.2,5.8-0.5c0-0.1,0-0.3,0-0.4v-3.8C19.7,29.4,17.6,29,15.4,29z M21.2,25.7c-1.8-0.3-3.8-0.5-5.8-0.5
	c-7.9,0-13.5,2.5-13.5,4.8c0,1.2,1.6,2.5,4.3,3.5c-0.3-0.5-0.5-1-0.5-1.5c0-2.8,4.1-4.8,9.6-4.8c2.1,0,4.1,0.3,5.8,0.9V25.7z
	 M1.9,54.2c0,1.6,5.2,3.9,13.5,3.9c8.2,0,13.5-2.3,13.5-3.9v-4.8c-2.8,1.9-8.1,2.8-13.5,2.8c-5.3,0-10.7-1-13.5-2.8V54.2z M1.9,46.5
	c0,1.6,5.2,3.9,13.5,3.9c8.2,0,13.5-2.3,13.5-3.9v-4.8c-2.8,1.9-8.1,2.8-13.5,2.8c-5.3,0-10.7-1-13.5-2.8V46.5z M15.4,42.6
	c8.2,0,13.5-2.3,13.5-3.9v-1.9h-4.8c-0.7,0-1.3-0.3-1.8-0.7c-2.1,0.4-4.5,0.7-6.8,0.7c-5.9,0-10.9-1.3-13.5-3.4v5.3
	C1.9,40.3,7.2,42.6,15.4,42.6z M28.9,34.8H52V21.3H28.9V34.8z M56.8,34.8c0.5,0,1-0.4,1-1V7.2l-3.8-3.9v10.2H26.9V1.9h-2.9
	c-0.5,0-1,0.4-1,1v31c0,0.5,0.4,1,1,1h2.9V19.4h26.9v15.5H56.8z M5.8,37.7h1.9v1.9H5.8V37.7z M9.6,38.7h1.9v1.9H9.6V38.7z M7.7,53.2
	H5.8v1.9h1.9V53.2z M9.6,54.2h1.9v1.9H9.6V54.2z M25,45.5h-1.9v1.9H25V45.5z M19.2,46.5h1.9v1.9h-1.9V46.5z M48.1,7.7H50v1.9h-1.9
	V7.7z M46.2,7.7h-1.9v1.9h1.9V7.7z M30.8,23.2H50v1.9H30.8V23.2z M50,27.1H30.8V29H50V27.1z M30.8,31H50v1.9H30.8V31z M38.5,9.7
	h-7.7V3.9h7.7V9.7z M36.6,5.8h-3.8v1.9h3.8V5.8z"/>
</svg>
