<?xml version="1.0" encoding="utf-8"?>
<!-- Generator: Adobe Illustrator 24.0.2, SVG Export Plug-In . SVG Version: 6.00 Build 0)  -->
<svg version="1.1" id="Layer_1" xmlns="http://www.w3.org/2000/svg" xmlns:xlink="http://www.w3.org/1999/xlink" x="0px" y="0px"
	 viewBox="0 0 60 60" style="enable-background:new 0 0 60 60;" xml:space="preserve">
<style type="text/css">
	.st0{fill:none;}
	.st1{fill-rule:evenodd;clip-rule:evenodd;}
</style>
<rect class="st0" width="60" height="60"/>
<path class="st1" d="M7.8,18.5c-0.1,0.5-0.5,0.8-1,0.8c-0.5-0.1-0.8-0.5-0.8-1l0.5-4.6c0.2-1.8,1.7-3.1,3.4-3.1h6.1V9.3
	c0-5.1,4.2-9.3,9.3-9.3c5.1,0,9.3,4.2,9.3,9.3v1.3h6.1c1.8,0,3.2,1.3,3.4,3.1l1.2,11c0.1,0.5-0.3,0.9-0.8,1c0,0-0.1,0-0.1,0
	c-0.4,0-0.8-0.3-0.9-0.8l-1.2-11c-0.1-0.9-0.8-1.5-1.7-1.5h-6.1v2.9c0,0.5-0.4,0.9-0.9,0.9c-0.5,0-0.9-0.4-0.9-0.9v-2.9H17.9v2.9
	c0,0.5-0.4,0.9-0.9,0.9c-0.5,0-0.9-0.4-0.9-0.9v-2.9H10c-0.9,0-1.6,0.7-1.7,1.5L7.8,18.5z M25.4,1.8c-4.2,0-7.6,3.4-7.6,7.6v1.3H33
	V9.3C33,5.1,29.6,1.8,25.4,1.8z M49,36.3c-1.1-1.1-1.1-2.8,0-3.9c1.1-1.1,2.8-1.1,3.9,0c1.1,1.1,1.1,2.8,0,3.9
	c-0.5,0.5-1.2,0.8-2,0.8C50.2,37.1,49.5,36.8,49,36.3z M50.2,35c0.4,0.4,1,0.4,1.4,0c0.4-0.4,0.4-1,0-1.4s-1-0.4-1.4,0
	C49.9,34,49.9,34.7,50.2,35z M57.8,41.5l-0.4-10.1c-0.1-1.9-1.6-3.4-3.5-3.5l-10.1-0.4c-1,0-2,0.3-2.7,1.1L26.4,43.2
	c-0.7,0.7-1.1,1.7-1.1,2.7H4.8L7.4,22c0.1-0.5-0.3-0.9-0.8-1c-0.5-0.1-0.9,0.3-1,0.8L3,45.9c-0.2,2,0.4,4.1,1.8,5.6
	c1.4,1.5,3.3,2.4,5.3,2.4h21.4l5,5c0.8,0.8,1.7,1.1,2.7,1.1c1,0,2-0.4,2.7-1.1l14.7-14.7C57.5,43.5,57.9,42.5,57.8,41.5z M10.2,52.1
	c-1.5,0-3-0.7-4-1.8c-0.7-0.8-1.1-1.7-1.3-2.7h20.8c0.2,0.4,0.4,0.7,0.7,1l3.4,3.4H10.2z M55.5,42.9L40.8,57.6c-0.8,0.8-2.2,0.8-3,0
	L27.7,47.5c-0.8-0.8-0.8-2.2,0-3l14.7-14.7c0.4-0.4,0.8-0.5,1.3-0.5c0,0,0,0,0.1,0l10.1,0.4c1,0,1.8,0.8,1.8,1.8l0.4,10.1
	C56.1,42,55.9,42.6,55.5,42.9z M41.9,39.5c0,1.7-1.4,3.1-3.1,3.1c-1.7,0-3.1-1.4-3.1-3.1c0-1.7,1.4-3.1,3.1-3.1
	C40.5,36.4,41.9,37.8,41.9,39.5z M40.1,39.5c0-0.7-0.6-1.3-1.3-1.3c-0.7,0-1.3,0.6-1.3,1.3c0,0.7,0.6,1.3,1.3,1.3
	C39.5,40.8,40.1,40.2,40.1,39.5z M44.3,45c-1.7,0-3.1,1.4-3.1,3.1c0,1.7,1.4,3.1,3.1,3.1c1.7,0,3.1-1.4,3.1-3.1
	C47.3,46.3,46,45,44.3,45z M44.3,49.3c-0.7,0-1.3-0.6-1.3-1.3c0-0.7,0.6-1.3,1.3-1.3c0.7,0,1.3,0.6,1.3,1.3
	C45.6,48.7,45,49.3,44.3,49.3z M45.4,38.6c0.3-0.3,0.9-0.3,1.2,0c0.3,0.3,0.3,0.9,0,1.2l-9,9c-0.2,0.2-0.4,0.3-0.6,0.3
	c-0.2,0-0.5-0.1-0.6-0.3c-0.3-0.3-0.3-0.9,0-1.2L45.4,38.6z"/>
</svg>
