<?xml version="1.0" encoding="utf-8"?>
<!-- Generator: Adobe Illustrator 24.0.2, SVG Export Plug-In . SVG Version: 6.00 Build 0)  -->
<svg version="1.1" id="Layer_1" xmlns="http://www.w3.org/2000/svg" xmlns:xlink="http://www.w3.org/1999/xlink" x="0px" y="0px"
	 viewBox="0 0 60 60" style="enable-background:new 0 0 60 60;" xml:space="preserve">
<style type="text/css">
	.st0{fill:none;}
	.st1{fill-rule:evenodd;clip-rule:evenodd;}
</style>
<rect class="st0" width="60" height="60"/>
<path class="st1" d="M3.2,1.8c-0.8,0-1.5,0.7-1.5,1.5v19.6H0V3.2C0,1.4,1.4,0,3.2,0h38.9v1.8H3.2z M1.8,24.5v13.9
	c0,0.8,0.7,1.5,1.5,1.5h16v1.8h-16c-1.8,0-3.2-1.4-3.2-3.2V24.5H1.8z M56.7,0H43.9v1.8h12.8c0.8,0,1.5,0.7,1.5,1.5v35.2
	c0,0.8-0.7,1.5-1.5,1.5h-6.8v1.8h6.8c1.8,0,3.2-1.4,3.2-3.2V3.2C59.9,1.4,58.5,0,56.7,0z M56.4,38.1h-6.5v-1.8h4.8V5.3H8.8v31.1
	h15.3v1.8H7V3.5h49.4V38.1z M40.8,16.5l2.7,1.9l1-1.4L38,12.4l-1,1.4l2.1,1.5v13.9h-3V31h4.8V16.5z M26,56.9l-2.5-3.9L25,52l2.7,4.4
	V60H26V56.9z M43.1,35.5v-0.9h-4.6v-1.7h-4.6v-7c0-2.1-1.7-3.8-3.8-3.8s-3.8,1.7-3.8,3.8v14h-5v9.6l1.2,2l1.5-0.9l-1-1.5v-7.3h5
	V25.9c0-1.1,0.9-2,2-2c1.1,0,2,0.9,2,2v15.1h1.8v-6.4h2.9v6.4h1.8v-4.7h2.9v4.7h1.8v-2.8H46v10.7l-3.1,7.4V60h1.8v-3.2l3.1-7.4V36.6
	h-4.6V35.5z M30,6.7l6.6,4.6l-1,1.4L30,8.9l-9.1,6.4v13.9h3.3V31h-5.1V16.5l-2.7,1.9l-1-1.4L30,6.7z M51.1,13.5h1.8v1.8h-1.8V13.5z
	 M52.9,7.1h-1.8v4.7h1.8V7.1z M3.5,19.9h1.8v1.8H3.5V19.9z M29.7,52.8l-1.5,0.9l0.9,1.5l1.5-0.9L29.7,52.8z M25,48.7l1.5-0.9
	l2.2,3.6l-1.5,0.9L25,48.7z M30.9,17.4v-3.9h-1.8v3.9H30.9z M32.8,18.7l2.7-2.7l1.2,1.2l-2.7,2.7L32.8,18.7z M24.7,15.9l-1.2,1.2
	l2.7,2.7l1.2-1.2L24.7,15.9z"/>
</svg>
