<?xml version="1.0" encoding="utf-8"?>
<!-- Generator: Adobe Illustrator 24.0.2, SVG Export Plug-In . SVG Version: 6.00 Build 0)  -->
<svg version="1.1" id="Layer_1" xmlns="http://www.w3.org/2000/svg" xmlns:xlink="http://www.w3.org/1999/xlink" x="0px" y="0px"
	 viewBox="0 0 60 60" style="enable-background:new 0 0 60 60;" xml:space="preserve">
<style type="text/css">
	.st0{fill:none;}
	.st1{fill-rule:evenodd;clip-rule:evenodd;}
</style>
<rect class="st0" width="60" height="60"/>
<path class="st1" d="M53.7,3H14.9c-3.4,0-6.1,2.7-6.1,6L8.5,43.3H0.9c-0.5,0-0.9,0.5-0.9,1V49c0,4.4,3.5,8,7.8,8.2v0.1h32.7v-0.1
	c0.1,0,0.2,0,0.3,0c0.1,0,0.2,0,0.2,0h0c4.5,0,8.2-3.7,8.2-8.3V19.1h9.9c0.5,0,0.9-0.5,0.9-1V9.4C60,5.9,57.2,3,53.7,3z M8.2,55.3
	L8.2,55.3c-3.5,0-6.3-2.9-6.3-6.3v-3.8h30.9V49c0,2.2,0.9,4.3,2.4,5.8c0.1,0.1,0.1,0.1,0.2,0.2c0.1,0.1,0.2,0.2,0.3,0.3H8.2z
	 M47.2,49c0,3.5-2.8,6.3-6.2,6.3h0c-3.5,0-6.3-2.9-6.3-6.3v-4.7c0-0.5-0.4-1-1-1H10.5l0.2-34.2c0-2.3,1.9-4.1,4.2-4.1h34.2
	c-1.1,1.2-1.8,2.8-1.8,4.5V49z M58.1,9.4v7.7h-8.9V9.4c0-2.4,2-4.5,4.5-4.5h0C56.1,5,58.1,7,58.1,9.4L58.1,9.4z M22.8,26.9l5,3.4
	c0.3,0.2,0.8,0.2,1.1,0l5-3.4c1.7-1.2,3-3.7,3-5.8v-6.9c0-0.4-0.2-0.7-0.5-0.9l-7.6-3.8c-0.3-0.1-0.6-0.1-0.8,0l-7.6,3.7
	c-0.3,0.2-0.5,0.5-0.5,0.9v6.9C19.8,23.3,21.1,25.8,22.8,26.9z M21.7,14.8l6.6-3.3l6.6,3.3v6.3c0,1.5-1,3.3-2.2,4.2l-4.5,3.1
	l-4.4-3.1c-1.2-0.8-2.2-2.7-2.2-4.2V14.8z M27.4,22.9c-0.3,0-0.5-0.1-0.7-0.3l-2-2c-0.4-0.4-0.4-1,0-1.4c0.4-0.4,1-0.4,1.4,0
	l1.3,1.3l3.2-3.2c0.4-0.4,1-0.4,1.4,0c0.4,0.4,0.4,1,0,1.4l-3.9,3.9C27.9,22.8,27.7,22.9,27.4,22.9L27.4,22.9z M40.4,33.2H17.1
	c-0.5,0-1,0.4-1,1c0,0.5,0.4,1,1,1h23.3c0.5,0,1-0.4,1-1C41.4,33.6,41,33.2,40.4,33.2z M17.1,37.7h23.3c0.5,0,1,0.4,1,1
	c0,0.5-0.4,1-1,1H17.1c-0.5,0-1-0.4-1-1C16.2,38.1,16.6,37.7,17.1,37.7z"/>
</svg>
