<?xml version="1.0" encoding="utf-8"?>
<!-- Generator: Adobe Illustrator 24.0.2, SVG Export Plug-In . SVG Version: 6.00 Build 0)  -->
<svg version="1.1" id="Layer_1" xmlns="http://www.w3.org/2000/svg" xmlns:xlink="http://www.w3.org/1999/xlink" x="0px" y="0px"
	 viewBox="0 0 60 60" style="enable-background:new 0 0 60 60;" xml:space="preserve">
<style type="text/css">
	.st0{fill:none;}
	.st1{fill-rule:evenodd;clip-rule:evenodd;}
</style>
<rect class="st0" width="60" height="60"/>
<path class="st1" d="M3.4,4h53.2C58.5,4,60,5.5,60,7.4v0.1v12.1v14.6v8.4c0,1.9-1.5,3.4-3.4,3.4H37.4v4.8c2.4,0,4.4,2,4.4,4.5
	c0,0.5-0.4,0.9-0.9,0.9H19.1c-0.5,0-0.9-0.4-0.9-0.9c0-2.5,2-4.5,4.4-4.5v-4.8h-9.6c-0.5,0-0.9-0.4-0.9-0.9c0-0.5,0.4-0.9,0.9-0.9
	h10.5h13h20c0.9,0,1.6-0.7,1.6-1.6V35H44.1H1.8v7.5v0c0,0.9,0.7,1.6,1.6,1.6h5.4c0.5,0,0.9,0.4,0.9,0.9c0,0.5-0.4,0.9-0.9,0.9H3.4
	c-1.9,0-3.4-1.5-3.4-3.4v-8.4l0,0V7.4C0,5.5,1.5,4,3.4,4z M35.6,45.9H24.4v4.8h11.2V45.9z M20.1,54.3h19.7c-0.4-1-1.4-1.8-2.5-1.8
	h-0.8h-13h-0.8C21.5,52.6,20.5,53.3,20.1,54.3z M45,33.2h13.2V20.5H45V33.2z M45,18.6h13.2V7.4c0-0.9-0.7-1.6-1.6-1.6H45v1.6
	c0,0.5-0.4,0.9-0.9,0.9S43.2,8,43.2,7.5V5.8H3.4c-0.9,0-1.6,0.7-1.6,1.6v25.8h41.4V19.5v-8.3c0-0.5,0.4-0.9,0.9-0.9
	c0.5,0,0.9,0.4,0.9,0.9V18.6z M27.7,39.6c0-1.5,1.2-2.7,2.7-2.7c1.5,0,2.7,1.2,2.7,2.7c0,1.5-1.2,2.7-2.7,2.7
	C29,42.3,27.7,41.1,27.7,39.6z M29.6,39.6c0,0.5,0.4,0.9,0.9,0.9c0.5,0,0.9-0.4,0.9-0.9c0-0.5-0.4-0.9-0.9-0.9
	C30,38.6,29.6,39.1,29.6,39.6z M49.9,9.4h-2.5c-0.5,0-0.9,0.4-0.9,0.9c0,0.5,0.4,0.9,0.9,0.9h2.5c0.5,0,0.9-0.4,0.9-0.9
	C50.8,9.8,50.4,9.4,49.9,9.4z M53.2,9.4h2.5c0.5,0,0.9,0.4,0.9,0.9c0,0.5-0.4,0.9-0.9,0.9h-2.5c-0.5,0-0.9-0.4-0.9-0.9
	C52.2,9.8,52.7,9.4,53.2,9.4z M49.9,13.3h-2.5c-0.5,0-0.9,0.4-0.9,0.9s0.4,0.9,0.9,0.9h2.5c0.5,0,0.9-0.4,0.9-0.9
	S50.4,13.3,49.9,13.3z M47.4,23.8h8c0.5,0,0.9,0.4,0.9,0.9c0,0.5-0.4,0.9-0.9,0.9h-8c-0.5,0-0.9-0.4-0.9-0.9
	C46.5,24.2,46.9,23.8,47.4,23.8z M55.4,28.1h-8c-0.5,0-0.9,0.4-0.9,0.9s0.4,0.9,0.9,0.9h8c0.5,0,0.9-0.4,0.9-0.9
	S55.9,28.1,55.4,28.1z M53.2,13.3h2.5c0.5,0,0.9,0.4,0.9,0.9s-0.4,0.9-0.9,0.9h-2.5c-0.5,0-0.9-0.4-0.9-0.9S52.7,13.3,53.2,13.3z
	 M4.5,8.8c0.5,0,0.9-0.4,0.9-0.9S5,7,4.5,7S3.6,7.4,3.6,7.9S4,8.8,4.5,8.8z M8.9,7.9c0,0.5-0.4,0.9-0.9,0.9c-0.5,0-0.9-0.4-0.9-0.9
	S7.5,7,8,7C8.5,7,8.9,7.4,8.9,7.9z M11.4,8.8c0.5,0,0.9-0.4,0.9-0.9S11.9,7,11.4,7s-0.9,0.4-0.9,0.9S10.9,8.8,11.4,8.8z M18.7,16.3
	c0.2-4.5,3.9-8.2,8.5-8.2c4.7,0,8.5,3.8,8.5,8.5c0,2.6-1.1,5-3.1,6.6c-0.2,0.1-0.4,0.2-0.6,0.2c-0.3,0-0.5-0.1-0.7-0.3
	c-0.3-0.4-0.3-1,0.1-1.3c1.6-1.3,2.5-3.2,2.5-5.2c0-3.7-3-6.7-6.7-6.7c-3.6,0-6.5,2.8-6.7,6.4h3.3V16c0-0.8,0.6-1.4,1.4-1.4h2.4
	c0.8,0,1.4,0.6,1.4,1.4v2.4c0,0.8-0.6,1.4-1.4,1.4h-0.3v3.5c0.4,0,0.9-0.1,1.3-0.2c0.5-0.1,1,0.2,1.1,0.7c0.1,0.5-0.2,1-0.7,1.1
	c-0.5,0.1-1.1,0.2-1.7,0.2v0.6h0.3c0.8,0,1.4,0.6,1.4,1.4v2.4c0,0.8-0.6,1.4-1.4,1.4h-2.4c-0.8,0-1.4-0.6-1.4-1.4v-0.3h-6.1v0.3
	c0,0.8-0.6,1.4-1.4,1.4h-2.4c-0.8,0-1.4-0.6-1.4-1.4v-2.4c0-0.8,0.6-1.4,1.4-1.4h0.5v-5.9h-0.5c-0.8,0-1.4-0.6-1.4-1.4V16
	c0-0.8,0.6-1.4,1.4-1.4h2.4c0.8,0,1.4,0.6,1.4,1.4v0.3H18.7z M14.3,29.2h1.6v-1.6h-1.6V29.2z M14.3,18h1.6v-1.6h-1.6V18z M27.2,16.4
	h-1.6V18h1.6V16.4z M27.2,27.5h-1.6v1.6h1.6V27.5z M23.8,18.4v-0.3h-6.1v0.3c0,0.8-0.6,1.4-1.4,1.4h-0.1v5.9h0.1
	c0.8,0,1.4,0.6,1.4,1.4v0.3h6.1v-0.3c0-0.8,0.6-1.4,1.4-1.4h0.3v-5.9h-0.3C24.4,19.9,23.8,19.2,23.8,18.4z"/>
</svg>
