<?xml version="1.0" encoding="utf-8"?>
<!-- Generator: Adobe Illustrator 24.0.2, SVG Export Plug-In . SVG Version: 6.00 Build 0)  -->
<svg version="1.1" id="Layer_1" xmlns="http://www.w3.org/2000/svg" xmlns:xlink="http://www.w3.org/1999/xlink" x="0px" y="0px"
	 viewBox="0 0 60 60" style="enable-background:new 0 0 60 60;" xml:space="preserve">
<style type="text/css">
	.st0{fill:none;}
	.st1{fill-rule:evenodd;clip-rule:evenodd;}
</style>
<rect class="st0" width="60" height="60"/>
<path class="st1" d="M50.1,8.4c-0.1,0-0.4,0-0.8,0C47,8.3,39.9,8.1,33.2,2.4l-1.8-1.5c-1.3-1.2-2.9-1.2-4,0l-1.8,1.5
	C24,3.9,22.1,5.1,20.1,6c-0.4,0.2-0.6,0.7-0.4,1.2c0.2,0.4,0.7,0.6,1.2,0.4c2.2-1,4.2-2.3,6-3.9c0.4-0.4,0.8-0.7,1.1-0.9
	c0.5-0.5,0.8-0.7,0.8-0.7c0.6-0.6,1.2-0.3,1.6,0l0,0c0,0,0,0,0.3,0.3c0.2,0.2,0.7,0.6,1.5,1.3c7.1,6.1,14.6,6.3,17.2,6.4
	c0.4,0,0.7,0,0.8,0c1.2,0.1,2.2,1,2.2,2.3v13.8c0,13.4-7.9,25.6-20.1,31.1c-0.5,0.2-0.8,0.4-1.1,0.5c-0.6,0.3-1,0.5-1.5,0.5
	c-0.5,0-0.9-0.2-1.5-0.5c-0.3-0.1-0.6-0.3-1.1-0.5C14.7,51.8,6.8,39.6,6.8,26.2V12.4c0-1.2,0.9-2.2,2.2-2.3c0.3,0,0.6,0,1,0h0
	c1.5-0.1,3.8-0.1,6.9-1C17.2,9,17.5,8.5,17.4,8c-0.1-0.5-0.6-0.7-1.1-0.6c-2.8,0.8-5,0.9-6.4,0.9l0,0c-0.4,0-0.7,0-1,0
	C6.7,8.5,5,10.2,5,12.4v13.8c0,14.1,8.3,27,21.2,32.8l0,0l0,0c0.4,0.2,0.7,0.3,1,0.4v0c0.8,0.4,1.4,0.6,2.3,0.6
	c0.9,0,1.5-0.3,2.2-0.6c0.3-0.1,0.6-0.3,1-0.5l0,0c0,0,0,0,0,0c12.9-5.8,21.2-18.6,21.2-32.8V12.4C53.9,10.2,52.3,8.5,50.1,8.4z
	 M22,35.3c0.8,3.4,3.9,5.9,7.5,5.9c3.6,0,6.7-2.5,7.5-5.9l2,2.2c0.1,0.1,0.2,0.3,0.2,0.5v1.7c0,0.5,0.4,0.9,0.9,0.9
	c0.5,0,0.9-0.4,0.9-0.9V38c0-0.6-0.2-1.2-0.7-1.7L37.2,33v-2.1h1.4c0.2,0,0.5,0.1,0.6,0.3l1.7,1.7c0.3,0.3,0.9,0.3,1.2,0
	c0.3-0.3,0.3-0.9,0-1.2l-1.7-1.7c-0.5-0.5-1.2-0.8-1.9-0.8h-1.4v-1.6c0-0.1,0-0.2,0-0.4l1.7-1c0.8-0.4,1.2-1.2,1.2-2.1v-3.7
	c0-0.5-0.4-0.9-0.9-0.9s-0.9,0.4-0.9,0.9V24c0,0.2-0.1,0.5-0.3,0.6l-1.4,0.8c-0.5-0.8-1.3-1.4-2.2-1.7v-0.5c0-2.8-2.2-5-5-5
	c-2.8,0-5,2.2-5,5v0.5c-0.9,0.3-1.7,0.9-2.2,1.7l-1.4-0.8c-0.2-0.1-0.3-0.4-0.3-0.6v-3.7c0-0.5-0.4-0.9-0.9-0.9
	c-0.5,0-0.9,0.4-0.9,0.9V24c0,0.9,0.5,1.7,1.2,2.1l1.7,1c0,0.1,0,0.2,0,0.4v1.6h-1.4c-0.7,0-1.4,0.3-1.9,0.8l-1.7,1.7
	c-0.3,0.3-0.3,0.9,0,1.2c0.2,0.2,0.4,0.3,0.6,0.3c0.2,0,0.4-0.1,0.6-0.3l1.7-1.7c0.2-0.2,0.4-0.3,0.6-0.3h1.4V33l-3.1,3.3
	c-0.4,0.5-0.7,1-0.7,1.7v1.7c0,0.5,0.4,0.9,0.9,0.9s0.9-0.4,0.9-0.9V38c0-0.2,0.1-0.3,0.2-0.5L22,35.3z M35.4,27.5v6
	c0,3-2.2,5.5-5.1,5.9V25.3h2.9C34.5,25.3,35.4,26.3,35.4,27.5z M29.5,20c1.8,0,3.2,1.5,3.2,3.2v0.3h-6.5v-0.3
	C26.2,21.4,27.7,20,29.5,20z M23.5,27.5c0-1.2,1-2.2,2.2-2.2h2.9v14.1c-2.9-0.4-5.1-2.9-5.1-5.9L23.5,27.5L23.5,27.5z M9.4,26.2
	V14.1c0-0.7,0.6-1.3,1.3-1.3c6.6-0.2,12.9-2.7,17.9-7c0.5-0.4,1.2-0.4,1.7,0c5,4.3,11.3,6.8,17.9,7c0.7,0,1.3,0.6,1.3,1.3v12.1
	c0,12.3-7.3,23.6-18.5,28.7c0,0,0,0-0.1,0c-0.1,0.1-0.4,0.2-0.9,0.4l0,0c-0.2,0.1-0.4,0.1-0.6,0.1c-0.2,0-0.4,0-0.6-0.1
	c-0.5-0.2-0.7-0.3-0.9-0.4c0,0-0.1,0-0.1,0C16.7,49.7,9.4,38.5,9.4,26.2z M28.6,8c-5,3.9-11.1,6.1-17.4,6.4v11.7
	c0,11.6,6.8,22.2,17.4,27v-8.7c0-0.5,0.4-0.9,0.9-0.9s0.9,0.4,0.9,0.9v8.7c10.6-4.8,17.4-15.4,17.4-27V14.5
	c-6.3-0.3-12.4-2.6-17.4-6.4V15c0,0.5-0.4,0.9-0.9,0.9s-0.9-0.4-0.9-0.9V8z"/>
</svg>
