<?xml version="1.0" encoding="utf-8"?>
<!-- Generator: Adobe Illustrator 24.0.2, SVG Export Plug-In . SVG Version: 6.00 Build 0)  -->
<svg version="1.1" id="Layer_1" xmlns="http://www.w3.org/2000/svg" xmlns:xlink="http://www.w3.org/1999/xlink" x="0px" y="0px"
	 viewBox="0 0 60 60" style="enable-background:new 0 0 60 60;" xml:space="preserve">
<style type="text/css">
	.st0{fill:none;}
</style>
<rect class="st0" width="60" height="60"/>
<path d="M57.2,9.8H44.9c-0.5,0-0.9,0.4-0.9,0.9c0,0.5,0.4,0.9,0.9,0.9h12.3c0.5,0,0.9,0.4,0.9,0.9v33.8c0,0.5-0.4,0.9-0.9,0.9H2.7
	c-0.5,0-0.9-0.4-0.9-0.9V12.6c0-0.5,0.4-0.9,0.9-0.9H22v1.8H4.4c-0.5,0-0.9,0.4-0.9,0.9v23.2c0,0.5,0.4,0.9,0.9,0.9
	c0.5,0,0.9-0.4,0.9-0.9V15.1H22v4.7l-3.8,1.8c-0.3,0.1-0.5,0.5-0.5,0.8v14.3c0,0.3,0.2,0.6,0.5,0.8L29.6,43c0.2,0.1,0.5,0.1,0.8,0
	l6.4-3.1c0.4-0.2,0.6-0.7,0.4-1.2c-0.2-0.4-0.7-0.6-1.2-0.4l-5.1,2.5V28.4l9.6-4.6v12.4l-1.3,0.6c-0.4,0.2-0.6,0.7-0.4,1.2
	c0.2,0.4,0.7,0.6,1.2,0.4l1.8-0.9c0.3-0.1,0.5-0.5,0.5-0.8V22.4c0-0.3-0.2-0.6-0.5-0.8l-3.8-1.8v-4.7h16.7v28.7H5.3v-2.6
	c0-0.5-0.4-0.9-0.9-0.9c-0.5,0-0.9,0.4-0.9,0.9v3.5c0,0.5,0.4,0.9,0.9,0.9h51.1c0.5,0,0.9-0.4,0.9-0.9V14.2c0-0.5-0.4-0.9-0.9-0.9
	H37.9v-1.8h3.3c0.5,0,0.9-0.4,0.9-0.9c0-0.5-0.4-0.9-0.9-0.9h-3.3V8.1h7.9c0.5,0,0.9-0.4,0.9-0.9V5.1c1-0.4,1.8-1.3,1.8-2.5
	c0-1.5-1.2-2.6-2.6-2.6c-1.5,0-2.6,1.2-2.6,2.6c0,1.1,0.7,2.1,1.8,2.5v1.2h-7.9c-0.5,0-0.9,0.4-0.9,0.9v2.6h-5.3V5.1
	c1-0.4,1.8-1.3,1.8-2.5C32.6,1.2,31.4,0,30,0s-2.6,1.2-2.6,2.6c0,1.1,0.7,2.1,1.8,2.5v4.7h-5.3V7.2c0-0.5-0.4-0.9-0.9-0.9H15V5.1
	c1-0.4,1.8-1.3,1.8-2.5c0-1.5-1.2-2.6-2.6-2.6c-1.5,0-2.6,1.2-2.6,2.6c0,1.1,0.7,2.1,1.8,2.5v2.1c0,0.5,0.4,0.9,0.9,0.9H22v1.8H2.7
	C1.2,9.8,0,11.1,0,12.6v33.8c0,1.5,1.2,2.7,2.7,2.7h19c-0.3,3.2-2.5,5.1-3.1,5.6h-3.7c-1.5,0-2.6,1.2-2.6,2.6c0,1.5,1.2,2.6,2.6,2.6
	h30.2c1.5,0,2.6-1.2,2.6-2.6c0-1.5-1.2-2.6-2.6-2.6h-3.7c-0.7-0.5-2.8-2.4-3.1-5.6h19c1.5,0,2.7-1.2,2.7-2.7V12.6
	C59.9,11.1,58.7,9.8,57.2,9.8z M45.8,1.8c0.5,0,0.9,0.4,0.9,0.9s-0.4,0.9-0.9,0.9s-0.9-0.4-0.9-0.9S45.3,1.8,45.8,1.8z M30,1.8
	c0.5,0,0.9,0.4,0.9,0.9S30.4,3.5,30,3.5s-0.9-0.4-0.9-0.9S29.5,1.8,30,1.8z M14.1,1.8c0.5,0,0.9,0.4,0.9,0.9s-0.4,0.9-0.9,0.9
	c-0.5,0-0.9-0.4-0.9-0.9S13.6,1.8,14.1,1.8z M23.7,15.1h5.3v1.3L23.7,19V15.1z M39.3,22.4L30,26.9l-9.3-4.5L30,18L39.3,22.4z
	 M19.5,23.8l9.6,4.6v12.4l-9.6-4.6V23.8z M36.2,19l-5.3-2.6v-1.3h5.3V19z M36.2,11.6v1.8h-5.3v-1.8H36.2z M29.1,11.6v1.8h-5.3v-1.8
	H29.1z M45.9,57.4c0,0.5-0.4,0.9-0.9,0.9H14.9c-0.5,0-0.9-0.4-0.9-0.9s0.4-0.9,0.9-0.9h30.2C45.5,56.5,45.9,56.9,45.9,57.4z
	 M38.8,54.7H21.1c1-1.2,2.2-3.1,2.4-5.6h12.9C36.6,51.6,37.8,53.5,38.8,54.7z"/>
</svg>
