<?xml version="1.0" encoding="utf-8"?>
<!-- Generator: Adobe Illustrator 24.0.2, SVG Export Plug-In . SVG Version: 6.00 Build 0)  -->
<svg version="1.1" id="Layer_1" xmlns="http://www.w3.org/2000/svg" xmlns:xlink="http://www.w3.org/1999/xlink" x="0px" y="0px"
	 viewBox="0 0 60 60" style="enable-background:new 0 0 60 60;" xml:space="preserve">
<style type="text/css">
	.st0{fill:none;}
	.st1{fill-rule:evenodd;clip-rule:evenodd;}
</style>
<rect class="st0" width="60" height="60"/>
<path class="st1" d="M54.9,58h1.7c0.6,0,1,0.5,1,1s-0.5,1-1,1H4c-0.6,0-1-0.5-1-1c0-0.6,0.5-1,1-1h1.7V19.9c0-0.6,0.5-1,1-1h8.4
	v-8.4c0-0.6,0.5-1,1-1h3V5.1c0-0.6,0.5-1,1-1h4.4V1c0-0.6,0.5-1,1-1c0.6,0,1,0.5,1,1v3H31c0.6,0,1,0.5,1,1v4.4h2V5.1
	c0-0.6,0.5-1,1-1h18.9c0.6,0,1,0.5,1,1V58z M30,6.1h-8.8v3.4H30V6.1z M17.2,58h0.7v-3.4h-3.4V58h0.7v-1.7c0-0.6,0.5-1,1-1
	c0.6,0,1,0.5,1,1V58z M24.6,33.8V32V20.9H7.7V58h4.7v-4.4c0-0.6,0.5-1,1-1h5.4c0.6,0,1,0.5,1,1V58h4.7V33.8H24.6z M17.2,18.9h8.4
	c0.6,0,1,0.5,1,1v0.3h3c0.6,0,1,0.5,1,1s-0.5,1-1,1h-3v3.4h3c0.6,0,1,0.5,1,1c0,0.6-0.5,1-1,1h-3V31H34V11.5H17.2V18.9z M26.6,58
	h16.9V33H26.6v0.7V58z M45.5,58h7.4l0,0V6.1H36v4.4V31h3.4v-0.3c0-0.6,0.5-1,1-1c0.6,0,1,0.5,1,1V31h2v-0.3c0-0.6,0.5-1,1-1
	s1,0.5,1,1V32L45.5,58L45.5,58z M32,54.9c0,0.6-0.5,1-1,1c-0.6,0-1-0.5-1-1V36.1c0-0.6,0.5-1,1-1c0.6,0,1,0.5,1,1V54.9z M35,56
	c0.6,0,1-0.5,1-1V36.1c0-0.6-0.5-1-1-1s-1,0.5-1,1V55C34,55.5,34.5,56,35,56z M40.1,54.9c0,0.6-0.5,1-1,1c-0.6,0-1-0.5-1-1V36.1
	c0-0.6,0.5-1,1-1c0.6,0,1,0.5,1,1V54.9z M40.4,12.8c0.6,0,1-0.5,1-1v-1.3c0-0.6-0.5-1-1-1c-0.6,0-1,0.5-1,1v1.3
	C39.4,12.4,39.9,12.8,40.4,12.8z M45.5,11.8c0,0.6-0.5,1-1,1c-0.6,0-1-0.5-1-1v-1.3c0-0.6,0.5-1,1-1c0.6,0,1,0.5,1,1V11.8z
	 M48.5,12.8c0.6,0,1-0.5,1-1v-1.3c0-0.6-0.5-1-1-1s-1,0.5-1,1v1.3C47.5,12.4,47.9,12.8,48.5,12.8z M41.4,18.5c0,0.6-0.5,1-1,1
	c-0.6,0-1-0.5-1-1v-1.3c0-0.6,0.5-1,1-1c0.6,0,1,0.5,1,1V18.5z M44.5,19.6c0.6,0,1-0.5,1-1v-1.3c0-0.6-0.5-1-1-1c-0.6,0-1,0.5-1,1
	v1.3C43.4,19.1,43.9,19.6,44.5,19.6z M49.5,18.5c0,0.6-0.5,1-1,1c-0.6,0-1-0.5-1-1v-1.3c0-0.6,0.5-1,1-1s1,0.5,1,1V18.5z M40.4,26.3
	c0.6,0,1-0.5,1-1V24c0-0.6-0.5-1-1-1c-0.6,0-1,0.5-1,1v1.3C39.4,25.8,39.9,26.3,40.4,26.3z M45.5,25.3c0,0.6-0.5,1-1,1
	c-0.6,0-1-0.5-1-1V24c0-0.6,0.5-1,1-1c0.6,0,1,0.5,1,1V25.3z M48.5,26.3c0.6,0,1-0.5,1-1V24c0-0.6-0.5-1-1-1s-1,0.5-1,1v1.3
	C47.5,25.8,47.9,26.3,48.5,26.3z M13.1,28c0,0.6-0.5,1-1,1c-0.6,0-1-0.5-1-1v-1.3c0-0.6,0.5-1,1-1s1,0.5,1,1V28z M16.1,29
	c0.6,0,1-0.5,1-1v-1.3c0-0.6-0.5-1-1-1c-0.6,0-1,0.5-1,1V28C15.1,28.5,15.6,29,16.1,29z M21.2,28c0,0.6-0.5,1-1,1c-0.6,0-1-0.5-1-1
	v-1.3c0-0.6,0.5-1,1-1c0.6,0,1,0.5,1,1V28z M12.1,35.7c0.6,0,1-0.5,1-1v-1.3c0-0.6-0.5-1-1-1s-1,0.5-1,1v1.3
	C11.1,35.3,11.5,35.7,12.1,35.7z M17.2,34.7c0,0.6-0.5,1-1,1s-1-0.5-1-1v-1.3c0-0.6,0.5-1,1-1c0.6,0,1,0.5,1,1V34.7z M20.2,35.7
	c0.6,0,1-0.5,1-1v-1.3c0-0.6-0.5-1-1-1c-0.6,0-1,0.5-1,1v1.3C19.2,35.3,19.6,35.7,20.2,35.7z M13.1,41.5c0,0.6-0.5,1-1,1
	c-0.6,0-1-0.5-1-1v-1.3c0-0.6,0.5-1,1-1s1,0.5,1,1V41.5z M16.1,42.5c0.6,0,1-0.5,1-1v-1.3c0-0.6-0.5-1-1-1c-0.6,0-1,0.5-1,1v1.3
	C15.1,42,15.6,42.5,16.1,42.5z M21.2,41.5c0,0.6-0.5,1-1,1c-0.6,0-1-0.5-1-1v-1.3c0-0.6,0.5-1,1-1c0.6,0,1,0.5,1,1V41.5z M12.1,49.2
	c0.6,0,1-0.5,1-1v-1.3c0-0.6-0.5-1-1-1s-1,0.5-1,1v1.3C11.1,48.8,11.5,49.2,12.1,49.2z M17.2,48.2c0,0.6-0.5,1-1,1s-1-0.5-1-1v-1.3
	c0-0.6,0.5-1,1-1c0.6,0,1,0.5,1,1V48.2z M20.2,49.2c0.6,0,1-0.5,1-1v-1.3c0-0.6-0.5-1-1-1c-0.6,0-1,0.5-1,1v1.3
	C19.2,48.8,19.6,49.2,20.2,49.2z M49.5,32c0,0.6-0.5,1-1,1c-0.6,0-1-0.5-1-1v-1.3c0-0.6,0.5-1,1-1s1,0.5,1,1V32z M48.5,39.8
	c0.6,0,1-0.5,1-1v-1.3c0-0.6-0.5-1-1-1s-1,0.5-1,1v1.3C47.5,39.3,47.9,39.8,48.5,39.8z M49.5,45.5c0,0.6-0.5,1-1,1c-0.6,0-1-0.5-1-1
	v-1.3c0-0.6,0.5-1,1-1s1,0.5,1,1V45.5z M48.5,53.3c0.6,0,1-0.5,1-1V51c0-0.6-0.5-1-1-1s-1,0.5-1,1v1.3
	C47.5,52.8,47.9,53.3,48.5,53.3z M29.6,14.8c0.6,0,1,0.5,1,1c0,0.6-0.5,1-1,1h-8.1c-0.6,0-1-0.5-1-1c0-0.6,0.5-1,1-1
	C21.5,14.8,29.6,14.8,29.6,14.8z"/>
</svg>
