<?xml version="1.0" encoding="utf-8"?>
<!-- Generator: Adobe Illustrator 24.0.2, SVG Export Plug-In . SVG Version: 6.00 Build 0)  -->
<svg version="1.1" id="Layer_1" xmlns="http://www.w3.org/2000/svg" xmlns:xlink="http://www.w3.org/1999/xlink" x="0px" y="0px"
	 viewBox="0 0 60 60" style="enable-background:new 0 0 60 60;" xml:space="preserve">
<style type="text/css">
	.st0{fill:none;}
	.st1{fill-rule:evenodd;clip-rule:evenodd;}
</style>
<rect class="st0" width="60" height="60"/>
<path class="st1" d="M14,17.4H9.5c-0.1,0-0.2,0-0.3,0.1c-0.1,0-0.2,0.1-0.3,0.2c-0.1,0.1-0.1,0.2-0.2,0.3c0,0.1-0.1,0.2-0.1,0.3v4.5
	c0,0.1,0,0.2,0.1,0.3c0,0.1,0.1,0.2,0.2,0.3c0.1,0.1,0.2,0.1,0.3,0.2c0.1,0,0.2,0.1,0.3,0.1H14c0.1,0,0.2,0,0.3-0.1
	c0.1,0,0.2-0.1,0.3-0.2c0.1-0.1,0.1-0.2,0.2-0.3c0-0.1,0.1-0.2,0.1-0.3V21h2.7c0,0.3,0,0.6,0,0.9c0,0.3,0,0.7,0,1l1.8-0.2
	c0-0.3,0-0.5,0-0.8c0-1.7,0.5-3.3,1.3-4.7c0.9-1.4,2.1-2.6,3.6-3.3l-0.8-1.6c-0.7,0.4-1.4,0.8-2.1,1.4l-2.9-2.9V3.9
	c0-0.1,0-0.2-0.1-0.3c0-0.1-0.1-0.2-0.2-0.3c-0.1-0.1-0.2-0.1-0.3-0.2C17.8,3,17.7,3,17.6,3h-7.2c-0.1,0-0.2,0-0.3,0.1
	c-0.1,0-0.2,0.1-0.3,0.2C9.7,3.3,9.6,3.4,9.6,3.6c0,0.1-0.1,0.2-0.1,0.3v7.2c0,0.1,0,0.2,0.1,0.3c0,0.1,0.1,0.2,0.2,0.3
	c0.1,0.1,0.2,0.1,0.3,0.2c0.1,0,0.2,0.1,0.3,0.1h6.8l2.9,2.9c-1.1,1.2-1.8,2.7-2.2,4.3h-3v-0.9c0-0.1,0-0.2-0.1-0.3
	c0-0.1-0.1-0.2-0.2-0.3c-0.1-0.1-0.2-0.1-0.3-0.2C14.2,17.4,14.1,17.4,14,17.4z M13.1,21.9h-2.7v-2.7h2.7V21.9z M16.7,10.2h-5.4V4.8
	h5.4V10.2z M26.4,11.3l0.3,1.8c0.5-0.1,1.1-0.1,1.6-0.1c1.4,0,2.8,0.3,4.1,1l0.8-1.6c-1-0.5-2-0.8-3.1-1V9.3H32c0.1,0,0.2,0,0.3-0.1
	c0.1,0,0.2-0.1,0.3-0.2c0.1-0.1,0.1-0.2,0.2-0.3c0-0.1,0.1-0.2,0.1-0.3V3.9c0-0.1,0-0.2-0.1-0.3c0-0.1-0.1-0.2-0.2-0.3
	c-0.1-0.1-0.2-0.1-0.3-0.2C32.2,3,32.1,3,32,3h-4.5c-0.1,0-0.2,0-0.3,0.1c-0.1,0-0.2,0.1-0.3,0.2c-0.1,0.1-0.1,0.2-0.2,0.3
	c0,0.1-0.1,0.2-0.1,0.3v4.5c0,0.1,0,0.2,0.1,0.3c0,0.1,0.1,0.2,0.2,0.3c0.1,0.1,0.2,0.1,0.3,0.2s0.2,0.1,0.3,0.1h0.9v1.8
	C27.7,11.1,27.1,11.2,26.4,11.3z M28.4,4.8h2.7v2.7h-2.7V4.8z M54.5,17.4h-9.9c-0.1,0-0.2,0-0.3-0.1c-0.1,0-0.2-0.1-0.3-0.2
	c-0.1-0.1-0.1-0.2-0.2-0.3s-0.1-0.2-0.1-0.3v-2l-5.3,3.3c0.5,1.3,0.8,2.7,0.8,4.1c0,0,0,0.1,0,0.1c0,0,0,0,0,0.1l5.4,1.4v-0.6
	c0-0.1,0-0.2,0.1-0.3c0-0.1,0.1-0.2,0.2-0.3c0.1-0.1,0.2-0.1,0.3-0.2c0.1,0,0.2-0.1,0.3-0.1h5.4c0.1,0,0.2,0,0.3,0.1
	s0.2,0.1,0.3,0.2c0.1,0.1,0.1,0.2,0.2,0.3c0,0.1,0.1,0.2,0.1,0.3v5.4c0,0.1,0,0.2-0.1,0.3c0,0.1-0.1,0.2-0.2,0.3
	c-0.1,0.1-0.2,0.1-0.3,0.2s-0.2,0.1-0.3,0.1h-5.4c-0.1,0-0.2,0-0.3-0.1c-0.1,0-0.2-0.1-0.3-0.2c-0.1-0.1-0.1-0.2-0.2-0.3
	c0-0.1-0.1-0.2-0.1-0.3v-2.9L39,23.9c-0.2,1.3-0.7,2.6-1.4,3.7l2.8,0.9c0.7,0.2,1.3,0.7,1.7,1.3c0.4,0.6,0.7,1.3,0.7,2V39
	c0,0.1,0,0.3-0.1,0.4l-2.6,5.2v11.5c0,0.1,0,0.2-0.1,0.3c0,0.1-0.1,0.2-0.2,0.3s-0.2,0.1-0.3,0.2S39.3,57,39.2,57H27.5
	c-0.1,0-0.2,0-0.3-0.1s-0.2-0.1-0.3-0.2c-0.1-0.1-0.1-0.2-0.2-0.3c0-0.1-0.1-0.2-0.1-0.3V44.7l-4.3-5.1c-0.1-0.2-0.2-0.4-0.2-0.6
	v-5.4c0-0.1,0-0.2,0.1-0.3c0-0.1,0.1-0.2,0.2-0.3l1.3-1.3c-1.7-0.8-3.2-2.1-4.2-3.6L14,31.4v6.7c0,0.1,0,0.2-0.1,0.3
	c0,0.1-0.1,0.2-0.2,0.3s-0.2,0.1-0.3,0.2c-0.1,0-0.2,0.1-0.3,0.1H5.9c-0.1,0-0.2,0-0.3-0.1c-0.1,0-0.2-0.1-0.3-0.2
	c-0.1-0.1-0.1-0.2-0.2-0.3S5,38.2,5,38.1v-7.2c0-0.1,0-0.2,0.1-0.3c0-0.1,0.1-0.2,0.2-0.3c0.1-0.1,0.2-0.1,0.3-0.2
	C5.7,30,5.8,30,5.9,30h6.9l5.7-3.6c-0.1-0.2-0.2-0.4-0.2-0.6l1.7-0.7c0.4,1.2,1.1,2.2,2,3.1c0.9,0.9,1.9,1.6,3.1,2l0.6-0.6v-1.1
	c-1.4-0.6-2.7-1.6-3.5-3l1.5-0.9c0.5,0.8,1.1,1.4,1.9,1.9v-4.9c0-0.6,0.2-1.2,0.6-1.6c0.4-0.4,0.9-0.7,1.5-0.8
	c0.6-0.1,1.2,0.1,1.7,0.4c0.5,0.3,0.9,0.8,1,1.4l1.4,4.7l0.3,0.1c0.6-0.6,1.1-1.4,1.4-2.2c0.3-0.8,0.3-1.8,0.2-2.6
	c-0.2-0.9-0.5-1.7-1.1-2.4c-0.6-0.7-1.3-1.2-2.1-1.6c-0.8-0.4-1.7-0.5-2.6-0.4c-0.9,0.1-1.7,0.4-2.5,0.9c-0.7,0.5-1.4,1.2-1.8,1.9
	C23.2,20.1,23,21,23,21.9c0,0.3,0,0.5,0.1,0.8l-1.8,0.3c0-0.3-0.1-0.7-0.1-1c0-1.2,0.3-2.3,0.8-3.3c0.5-1,1.3-1.9,2.2-2.6
	c0.9-0.7,2-1.1,3.2-1.3c1.1-0.2,2.3,0,3.4,0.3c1.1,0.4,2.1,1,2.9,1.9s1.4,1.9,1.7,3c0.3,1.1,0.4,2.3,0.1,3.4
	c-0.2,1.1-0.7,2.2-1.5,3.1l1.8,0.6c1.3-1.9,1.8-4.1,1.5-6.4c-0.3-2.2-1.4-4.3-3.2-5.7l1.1-1.4c0.9,0.8,1.7,1.6,2.3,2.7l6.1-3.8V6.6
	c0-0.1,0-0.2,0.1-0.3C43.8,6.1,43.9,6,44,6c0.1-0.1,0.2-0.1,0.3-0.2s0.2-0.1,0.3-0.1h9.9c0.1,0,0.2,0,0.3,0.1c0.1,0,0.2,0.1,0.3,0.2
	c0.1,0.1,0.1,0.2,0.2,0.3c0,0.1,0.1,0.2,0.1,0.3v9.9c0,0.1,0,0.2-0.1,0.3s-0.1,0.2-0.2,0.3c-0.1,0.1-0.2,0.1-0.3,0.2
	C54.7,17.4,54.6,17.4,54.5,17.4z M6.8,37.2h5.4v-5.4H6.8V37.2z M41,38.8v-6.9c0-0.4-0.1-0.7-0.3-1c-0.2-0.3-0.5-0.5-0.8-0.6L39.2,30
	v2.7h-1.8v-3.3l-1.8-0.6v3.9h-1.8v-4.5L32,27.6v5.1h-1.8v-6.2l-1.4-5.1c0-0.1-0.1-0.3-0.3-0.4C28.4,21,28.2,21,28.1,21
	c-0.2,0-0.3,0.1-0.4,0.2c-0.1,0.1-0.2,0.3-0.2,0.4v15.6h-1.8v-5L23.9,34v4.7l4.3,5.1c0.1,0.2,0.2,0.4,0.2,0.6v10.8h9.9V44.4
	c0-0.1,0-0.3,0.1-0.4L41,38.8z M50,23.7h-3.6v3.6H50V23.7z M53.6,7.5h-8.1v8.1h8.1V7.5z"/>
</svg>
