<svg width="55" height="55" viewBox="0 0 55 55" fill="none" xmlns="http://www.w3.org/2000/svg">
<rect width="55" height="55" rx="10" fill="#0AB4EF"/>
<path fill-rule="evenodd" clip-rule="evenodd" d="M31.231 12.1129C34.553 12.7156 36.9708 15.6088 36.9776 18.9896C40.2883 18.9896 42.9721 21.6771 42.9721 24.9923C42.9721 28.3075 40.2883 30.995 36.9776 30.995H35.3891C34.2415 33.8542 31.5565 35.7997 28.4856 35.9973V36.9977H35.9786C36.8062 36.9977 37.4772 37.6696 37.4772 38.4984V40.4993C37.4772 41.3281 36.8062 42 35.9786 42H19.9935C19.1658 42 18.4949 41.3281 18.4949 40.4993V38.4984C18.4949 37.6696 19.1658 36.9977 19.9935 36.9977H27.4865V35.9973C24.4155 35.7997 21.7306 33.8542 20.5829 30.995H18.9944C15.6838 30.995 13 28.3075 13 24.9923C13 21.6771 15.6838 18.9896 18.9944 18.9896C19.2149 18.9921 19.435 19.0071 19.6538 19.0346C20.4391 17.638 21.8491 16.7066 23.4403 16.5335C24.6312 13.37 27.909 11.5101 31.231 12.1129ZM36.4781 40.4993V38.4984C36.4781 38.2221 36.2545 37.9982 35.9786 37.9982H19.9935C19.7176 37.9982 19.4939 38.2221 19.4939 38.4984V40.4993C19.4939 40.7756 19.7176 40.9995 19.9935 40.9995H35.9786C36.2545 40.9995 36.4781 40.7756 36.4781 40.4993ZM30.3089 29.7444C31.6734 30.0289 32.9242 30.7091 33.9055 31.7003C34.6077 30.5919 34.9802 29.3063 34.9795 27.9936C34.9795 24.1259 31.8484 20.9905 27.986 20.9905C24.1236 20.9905 20.9925 24.1259 20.9925 27.9936C20.9919 29.3063 21.3644 30.5919 22.0665 31.7003C23.0478 30.7091 24.2987 30.0289 25.6632 29.7444C24.2496 28.7333 23.6502 26.9234 24.1804 25.2668C24.7106 23.6101 26.2488 22.4863 27.986 22.4863C29.7233 22.4863 31.2615 23.6101 31.7917 25.2668C32.3218 26.9234 31.7225 28.7333 30.3089 29.7444ZM27.986 23.4916C26.3307 23.4916 24.9888 24.8354 24.9888 26.493C24.9888 28.1506 26.3307 29.4943 27.986 29.4943C29.6413 29.4943 30.9832 28.1506 30.9832 26.493C30.9832 24.8354 29.6413 23.4916 27.986 23.4916ZM22.666 32.5257C23.9896 34.0935 25.9359 34.9975 27.986 34.9968C30.0362 34.9975 31.9824 34.0935 33.3061 32.5257C32.4069 31.5353 30.8084 30.4948 27.986 30.4948C25.1637 30.4948 23.5652 31.5252 22.666 32.5257ZM35.7138 29.9946H36.9776C39.7365 29.9946 41.973 27.755 41.973 24.9923C41.973 22.2296 39.7365 19.99 36.9776 19.99C35.9931 19.9839 35.0292 20.2731 34.2102 20.8204C33.9812 20.9751 33.6704 20.9146 33.5159 20.6853C33.3614 20.456 33.4218 20.1447 33.6507 19.99C34.3524 19.5218 35.1462 19.2096 35.9786 19.0746V18.9896C35.9755 16.164 34.005 13.7232 31.2466 13.1281C28.4883 12.533 25.6889 13.9448 24.5243 16.5184C25.4179 16.6121 26.2692 16.9476 26.987 17.4889C27.2077 17.6546 27.2524 17.9682 27.0869 18.1892C26.9213 18.4102 26.6082 18.455 26.3875 18.2892C25.6885 17.7581 24.8322 17.4763 23.9548 17.4889H23.8449C22.5788 17.5345 21.4094 18.1785 20.6928 19.2247C21.2715 19.3951 21.8206 19.6532 22.3213 19.99C22.4712 20.0901 22.5564 20.2627 22.5448 20.4427C22.5332 20.6228 22.4266 20.7829 22.2651 20.8629C22.1036 20.9429 21.9117 20.9305 21.7618 20.8304C20.944 20.2796 19.98 19.9869 18.9944 19.99C16.2356 19.99 13.9991 22.2296 13.9991 24.9923C13.9991 27.755 16.2356 29.9946 18.9944 29.9946H20.2582C20.0836 29.3419 19.9946 28.6693 19.9935 27.9936C19.9935 23.5734 23.5719 19.99 27.986 19.99C32.4002 19.99 35.9786 23.5734 35.9786 27.9936C35.9774 28.6693 35.8884 29.3419 35.7138 29.9946ZM29.9842 13.9873C31.4418 13.9874 32.8267 14.6251 33.7756 15.7331C33.8617 15.8339 33.9043 15.9649 33.894 16.0972C33.8837 16.2294 33.8214 16.3522 33.7207 16.4384C33.6309 16.5177 33.5157 16.5621 33.396 16.5635C33.25 16.5635 33.1112 16.4995 33.0163 16.3884C32.2582 15.5008 31.1506 14.9891 29.9842 14.9878C29.7083 14.9878 29.4846 14.7638 29.4846 14.4875C29.4846 14.2113 29.7083 13.9873 29.9842 13.9873ZM21.4921 39.9991H21.9916C22.2675 39.9991 22.4911 39.7752 22.4911 39.4989C22.4911 39.2226 22.2675 38.9987 21.9916 38.9987H21.4921C21.2162 38.9987 20.9925 39.2226 20.9925 39.4989C20.9925 39.7752 21.2162 39.9991 21.4921 39.9991ZM24.4893 39.9991H23.9898C23.7139 39.9991 23.4902 39.7752 23.4902 39.4989C23.4902 39.2226 23.7139 38.9987 23.9898 38.9987H24.4893C24.7652 38.9987 24.9888 39.2226 24.9888 39.4989C24.9888 39.7752 24.7652 39.9991 24.4893 39.9991ZM26.4874 39.9991H26.987C27.2629 39.9991 27.4865 39.7752 27.4865 39.4989C27.4865 39.2226 27.2629 38.9987 26.987 38.9987H26.4874C26.2115 38.9987 25.9879 39.2226 25.9879 39.4989C25.9879 39.7752 26.2115 39.9991 26.4874 39.9991ZM29.4846 39.9991H28.9851C28.7092 39.9991 28.4855 39.7752 28.4855 39.4989C28.4855 39.2226 28.7092 38.9987 28.9851 38.9987H29.4846C29.7605 38.9987 29.9841 39.2226 29.9841 39.4989C29.9841 39.7752 29.7605 39.9991 29.4846 39.9991ZM31.4828 39.9991H31.9823C32.2582 39.9991 32.4818 39.7752 32.4818 39.4989C32.4818 39.2226 32.2582 38.9987 31.9823 38.9987H31.4828C31.2069 38.9987 30.9832 39.2226 30.9832 39.4989C30.9832 39.7752 31.2069 39.9991 31.4828 39.9991ZM34.48 39.9991H33.9805C33.7046 39.9991 33.4809 39.7752 33.4809 39.4989C33.4809 39.2226 33.7046 38.9987 33.9805 38.9987H34.48C34.7559 38.9987 34.9795 39.2226 34.9795 39.4989C34.9795 39.7752 34.7559 39.9991 34.48 39.9991Z" fill="white"/>
</svg>
