<svg width="55" height="55" viewBox="0 0 55 55" fill="none" xmlns="http://www.w3.org/2000/svg">
<rect width="55" height="55" rx="10" fill="#0AB4EF"/>
<path fill-rule="evenodd" clip-rule="evenodd" d="M32.6691 14.502L30.4511 12.922C28.9935 11.7013 26.8796 11.6917 25.411 12.8991L23.1633 14.502H18.5239C17.96 14.4878 17.4909 14.935 17.4748 15.502V18.5532L13.2146 21.5901C13.0817 21.6824 13 21.8355 13 22.0014V40.5001C13.0009 41.3281 13.6682 41.9991 14.4916 42H41.3405C42.1639 41.9991 42.8312 41.3281 42.8321 40.5001V22.0014C42.8322 21.8309 42.7461 21.6739 42.6067 21.5824L38.3573 18.5533V15.502C38.3412 14.935 37.8721 14.4879 37.3082 14.502H32.6691ZM38.3573 19.7789V24.6752L41.5191 22.0328L38.3573 19.7789ZM38.1665 26.135C38.1741 26.1291 38.1814 26.1229 38.1886 26.1165L41.8377 23.067V40.4348L31.4452 31.752L38.1665 26.135ZM37.3629 25.5063V15.5059C37.3621 15.5115 37.356 15.51 37.3452 15.5074C37.3361 15.5051 37.3236 15.5021 37.3082 15.502H18.5239C18.502 15.5006 18.4804 15.5084 18.4643 15.5235L18.4691 25.5064L25.4137 31.31C25.4682 31.3405 25.5162 31.3808 25.5553 31.4284L26.0149 31.8125C27.1188 32.7292 28.7144 32.7289 29.818 31.8118L30.2815 31.4244C30.319 31.3798 30.3642 31.3418 30.4153 31.3125L37.3629 25.5063ZM17.6447 26.1175C17.6511 26.1232 17.6577 26.1287 17.6644 26.1341L24.3876 31.7527L13.9944 40.4358V23.067L17.6447 26.1175ZM17.4748 24.6755V19.7789L14.3127 22.0329L17.4748 24.6755ZM24.8812 14.502H30.9498L29.846 13.7149C28.7428 12.7775 27.1306 12.7677 26.0162 13.6917L24.8812 14.502ZM28.5317 28.9958C27.4172 28.9907 26.31 28.8151 25.248 28.4751C23.5511 27.9043 22.2907 26.4598 21.9486 24.6937C21.5743 22.8806 22.2565 20.9634 23.8199 19.434C23.9877 19.2698 24.162 19.1124 24.3429 18.9619C25.9437 17.6143 28.1019 17.146 30.1129 17.7098C32.0599 18.3347 33.4052 20.1238 33.4725 22.1778C33.5454 23.3601 33.1621 24.5251 32.4025 25.4305C31.8167 26.1726 30.8674 26.5231 29.9432 26.3386C29.5652 26.2598 29.2354 26.0296 29.0298 25.7011C28.996 25.6427 28.9669 25.5823 28.9424 25.5203C28.8863 25.5745 28.8293 25.6276 28.7713 25.6798C28.2277 26.1411 27.5409 26.3971 26.8296 26.4037C26.3041 26.4128 25.7914 26.2395 25.3781 25.913C24.4237 25.145 24.3975 23.8109 24.665 22.9023C24.7551 22.5997 24.8761 22.3073 25.026 22.0298C25.3991 21.2729 25.9956 20.6504 26.734 20.2474C27.6535 19.7677 28.7769 19.9496 29.5002 20.6954C29.5681 20.7703 29.633 20.8479 29.6945 20.9278C29.7477 20.6402 29.7788 20.4631 29.78 20.4564C29.8109 20.2805 29.9327 20.1345 30.0997 20.0734C30.2667 20.0123 30.4534 20.0455 30.5894 20.1603C30.7255 20.2752 30.7903 20.4543 30.7595 20.6303L30.7589 20.6332C30.7384 20.7496 30.4417 22.4315 30.0906 23.9596C30.0864 23.9923 30.079 24.0246 30.0683 24.0561C30.0003 24.3491 29.9304 24.6351 29.8602 24.9017C29.8284 24.9955 29.8364 25.0984 29.8823 25.1861C29.951 25.2818 30.0548 25.346 30.1707 25.3648C30.7365 25.4598 31.308 25.2315 31.6548 24.7721C32.2447 24.0625 32.5402 23.1517 32.4801 22.2288C32.4315 20.5939 31.3653 19.1665 29.8174 18.6641C28.1278 18.1967 26.3176 18.596 24.9776 19.7315C24.8178 19.8648 24.6625 20.0044 24.5134 20.1504C23.7404 20.9064 22.5061 22.4752 22.922 24.4901C23.2015 25.8978 24.2013 27.0514 25.5498 27.5221C27.8817 28.2701 31.2325 28.3602 32.9979 26.1528C33.1714 25.9428 33.4803 25.9115 33.692 26.0826C33.9036 26.2536 33.9396 26.5638 33.7729 26.7792C32.4674 28.4118 30.4807 28.9958 28.5317 28.9958ZM28.1197 24.9246C28.5109 24.5704 28.8499 24.162 29.1266 23.7119C29.2202 23.3026 29.3104 22.88 29.3923 22.4804C29.3783 22.4563 29.3661 22.4308 29.3561 22.4038C29.2382 22.0275 29.0422 21.6806 28.7812 21.386C28.3595 20.9524 27.7026 20.8538 27.1733 21.1446C26.6196 21.4586 26.1746 21.9353 25.898 22.5109C25.7818 22.7266 25.6879 22.9537 25.6178 23.1886C25.4246 23.8458 25.4671 24.7035 26.0002 25.1328C26.5831 25.6035 27.5664 25.4045 28.1197 24.9246ZM30.4528 32.5813L30.6674 32.4021L40.9587 41.0001H14.8749L25.1654 32.4027L25.38 32.5821C26.8524 33.8049 28.9808 33.8046 30.4528 32.5813Z" fill="white"/>
</svg>
