<svg width="55" height="55" viewBox="0 0 55 55" fill="none" xmlns="http://www.w3.org/2000/svg">
<rect width="55" height="55" rx="10" fill="#0AB4EF"/>
<path fill-rule="evenodd" clip-rule="evenodd" d="M34.884 43H16.4862C15.827 42.9993 15.1951 42.7356 14.729 42.2669C14.2629 41.7983 14.0007 41.1628 14 40.5V15.5C14.0007 14.8372 14.2629 14.2017 14.729 13.7331C15.1951 13.2644 15.827 13.0007 16.4862 13H31.4033C31.4686 13 31.5333 13.0129 31.5936 13.0381C31.654 13.0632 31.7088 13.1 31.755 13.1464L37.7218 19.1464C37.768 19.1929 37.8046 19.248 37.8296 19.3087C37.8546 19.3693 37.8674 19.4343 37.8674 19.5V29.6763C39.2955 30.3573 40.4506 31.5068 41.1426 32.9356C41.8347 34.3645 42.0226 35.9876 41.6754 37.5381C41.3283 39.0886 40.4667 40.4741 39.2324 41.4668C37.9981 42.4594 36.4645 43.0002 34.884 43ZM39.8453 39.3334C40.5009 38.3467 40.8509 37.1867 40.8509 36C40.8491 34.4093 40.2199 32.8842 39.1013 31.7593C37.9826 30.6345 36.466 30.0018 34.884 30C33.7039 30 32.5502 30.3519 31.569 31.0112C30.5878 31.6705 29.823 32.6075 29.3713 33.7039C28.9197 34.8003 28.8016 36.0067 29.0318 37.1705C29.262 38.3344 29.8303 39.4035 30.6648 40.2426C31.4993 41.0818 32.5625 41.6532 33.7199 41.8847C34.8774 42.1162 36.0771 41.9974 37.1674 41.5433C38.2577 41.0892 39.1896 40.3201 39.8453 39.3334ZM36.1698 19L31.9006 14.7071V17.5C31.901 17.8977 32.0583 18.279 32.338 18.5602C32.6176 18.8414 32.9968 18.9996 33.3923 19H36.1698ZM15.4319 14.4399C15.1522 14.7211 14.9949 15.1023 14.9945 15.5V40.5C14.9949 40.8977 15.1522 41.2789 15.4319 41.5601C15.7115 41.8414 16.0907 41.9995 16.4862 42H31.302C29.8481 41.1229 28.7626 39.7423 28.2493 38.1175C27.7359 36.4927 27.83 34.7353 28.5139 33.1753C29.1978 31.6153 30.4244 30.3599 31.9635 29.6448C33.5026 28.9298 35.2483 28.8042 36.873 29.2916V20H33.3923C32.7331 19.9993 32.1012 19.7356 31.6351 19.2669C31.169 18.7983 30.9068 18.1628 30.9061 17.5V14H16.4862C16.0907 14.0005 15.7115 14.1586 15.4319 14.4399ZM22.1014 22.8536C22.0082 22.7598 21.9558 22.6326 21.9558 22.5C21.9558 22.3674 22.0082 22.2402 22.1014 22.1464C22.1947 22.0527 22.3212 22 22.453 22H34.3867C34.5186 22 34.645 22.0527 34.7383 22.1464C34.8315 22.2402 34.8839 22.3674 34.8839 22.5C34.8839 22.6326 34.8315 22.7598 34.7383 22.8536C34.645 22.9473 34.5186 23 34.3867 23H22.453C22.3212 23 22.1947 22.9473 22.1014 22.8536ZM17.4806 26H27.4254C27.5573 26 27.6838 25.9473 27.777 25.8536C27.8703 25.7598 27.9227 25.6326 27.9227 25.5C27.9227 25.3674 27.8703 25.2402 27.777 25.1464C27.6838 25.0527 27.5573 25 27.4254 25H17.4806C17.3488 25 17.2223 25.0527 17.129 25.1464C17.0358 25.2402 16.9834 25.3674 16.9834 25.5C16.9834 25.6326 17.0358 25.7598 17.129 25.8536C17.2223 25.9473 17.3488 26 17.4806 26ZM25.4364 28H29.4143C29.5462 28 29.6727 28.0527 29.7659 28.1464C29.8592 28.2402 29.9116 28.3674 29.9116 28.5C29.9116 28.6326 29.8592 28.7598 29.7659 28.8536C29.6727 28.9473 29.5462 29 29.4143 29H25.4364C25.3046 29 25.1781 28.9473 25.0848 28.8536C24.9916 28.7598 24.9392 28.6326 24.9392 28.5C24.9392 28.3674 24.9916 28.2402 25.0848 28.1464C25.1781 28.0527 25.3046 28 25.4364 28ZM17.4806 32H26.431C26.5629 32 26.6893 31.9473 26.7826 31.8536C26.8758 31.7598 26.9282 31.6326 26.9282 31.5C26.9282 31.3674 26.8758 31.2402 26.7826 31.1464C26.6893 31.0527 26.5629 31 26.431 31H17.4806C17.3488 31 17.2223 31.0527 17.129 31.1464C17.0358 31.2402 16.9834 31.3674 16.9834 31.5C16.9834 31.6326 17.0358 31.7598 17.129 31.8536C17.2223 31.9473 17.3488 32 17.4806 32ZM20.4641 23H17.4806C17.3488 23 17.2223 22.9473 17.129 22.8536C17.0358 22.7598 16.9834 22.6326 16.9834 22.5C16.9834 22.3674 17.0358 22.2402 17.129 22.1464C17.2223 22.0527 17.3488 22 17.4806 22H20.4641C20.596 22 20.7225 22.0527 20.8157 22.1464C20.909 22.2402 20.9614 22.3674 20.9614 22.5C20.9614 22.6326 20.909 22.7598 20.8157 22.8536C20.7225 22.9473 20.596 23 20.4641 23ZM34.3867 25H29.4143C29.2825 25 29.156 25.0527 29.0627 25.1464C28.9695 25.2402 28.9171 25.3674 28.9171 25.5C28.9171 25.6326 28.9695 25.7598 29.0627 25.8536C29.156 25.9473 29.2825 26 29.4143 26H34.3867C34.5186 26 34.645 25.9473 34.7383 25.8536C34.8315 25.7598 34.8839 25.6326 34.8839 25.5C34.8839 25.3674 34.8315 25.2402 34.7383 25.1464C34.645 25.0527 34.5186 25 34.3867 25ZM23.4475 29H17.4806C17.3488 29 17.2223 28.9473 17.129 28.8536C17.0358 28.7598 16.9834 28.6326 16.9834 28.5C16.9834 28.3674 17.0358 28.2402 17.129 28.1464C17.2223 28.0527 17.3488 28 17.4806 28H23.4475C23.5794 28 23.7059 28.0527 23.7991 28.1464C23.8924 28.2402 23.9448 28.3674 23.9448 28.5C23.9448 28.6326 23.8924 28.7598 23.7991 28.8536C23.7059 28.9473 23.5794 29 23.4475 29ZM25.4365 37H23.4475C23.3156 37 23.1892 37.0527 23.0959 37.1464C23.0026 37.2402 22.9503 37.3674 22.9503 37.5C22.9503 37.6326 23.0026 37.7598 23.0959 37.8536C23.1892 37.9473 23.3156 38 23.4475 38H25.4365C25.5684 38 25.6949 37.9473 25.7881 37.8536C25.8814 37.7598 25.9338 37.6326 25.9338 37.5C25.9338 37.3674 25.8814 37.2402 25.7881 37.1464C25.6949 37.0527 25.5684 37 25.4365 37ZM21.4586 38H17.4806C17.3488 38 17.2223 37.9473 17.129 37.8536C17.0358 37.7598 16.9834 37.6326 16.9834 37.5C16.9834 37.3674 17.0358 37.2402 17.129 37.1464C17.2223 37.0527 17.3488 37 17.4806 37H21.4586C21.5904 37 21.7169 37.0527 21.8102 37.1464C21.9034 37.2402 21.9558 37.3674 21.9558 37.5C21.9558 37.6326 21.9034 37.7598 21.8102 37.8536C21.7169 37.9473 21.5904 38 21.4586 38ZM17.4806 35H20.4641C20.596 35 20.7225 34.9473 20.8157 34.8536C20.909 34.7598 20.9614 34.6326 20.9614 34.5C20.9614 34.3674 20.909 34.2402 20.8157 34.1464C20.7225 34.0527 20.596 34 20.4641 34H17.4806C17.3488 34 17.2223 34.0527 17.129 34.1464C17.0358 34.2402 16.9834 34.3674 16.9834 34.5C16.9834 34.6326 17.0358 34.7598 17.129 34.8536C17.2223 34.9473 17.3488 35 17.4806 35ZM23.4475 20H17.4806C17.3488 20 17.2223 19.9473 17.129 19.8536C17.0358 19.7598 16.9834 19.6326 16.9834 19.5C16.9834 19.3674 17.0358 19.2402 17.129 19.1464C17.2223 19.0527 17.3488 19 17.4806 19H23.4475C23.5794 19 23.7059 19.0527 23.7991 19.1464C23.8924 19.2402 23.9448 19.3674 23.9448 19.5C23.9448 19.6326 23.8924 19.7598 23.7991 19.8536C23.7059 19.9473 23.5794 20 23.4475 20ZM25.4364 34H22.453C22.3212 34 22.1947 34.0527 22.1014 34.1464C22.0082 34.2402 21.9558 34.3674 21.9558 34.5C21.9558 34.6326 22.0082 34.7598 22.1014 34.8536C22.1947 34.9473 22.3212 35 22.453 35H25.4364C25.5683 35 25.6948 34.9473 25.788 34.8536C25.8813 34.7598 25.9337 34.6326 25.9337 34.5C25.9337 34.3674 25.8813 34.2402 25.788 34.1464C25.6948 34.0527 25.5683 34 25.4364 34ZM32.0908 37.038C32.1511 37.0632 32.2059 37.1 32.2521 37.1464L33.8123 38.7152L37.4537 33.2226C37.5272 33.1131 37.6408 33.0372 37.7697 33.0116C37.8987 32.9861 38.0324 33.0129 38.1418 33.0862C38.2511 33.1595 38.3271 33.2734 38.3532 33.4029C38.3794 33.5324 38.3534 33.667 38.2811 33.7774L34.3032 39.7774C34.2624 39.8389 34.2085 39.8906 34.1454 39.9287C34.0824 39.9667 34.0117 39.9903 33.9385 39.9976C33.9221 39.9992 33.9058 40 33.8894 40C33.8242 40 33.7595 39.9871 33.6992 39.9619C33.6388 39.9368 33.584 39.9 33.5378 39.8536L31.5489 37.8536C31.5027 37.8071 31.4661 37.752 31.4411 37.6913C31.4161 37.6307 31.4033 37.5657 31.4033 37.5C31.4033 37.4343 31.4161 37.3693 31.4411 37.3086C31.4661 37.248 31.5027 37.1929 31.5489 37.1464C31.5951 37.1 31.6499 37.0632 31.7102 37.038C31.7705 37.0129 31.8352 37 31.9005 37C31.9658 37 32.0305 37.0129 32.0908 37.038Z" fill="white"/>
</svg>
