<svg width="55" height="55" viewBox="0 0 55 55" fill="none" xmlns="http://www.w3.org/2000/svg">
<rect width="55" height="55" rx="10" fill="#0AB4EF"/>
<path fill-rule="evenodd" clip-rule="evenodd" d="M11.1639 34.5847H16.1365V35.92C16.1365 36.3684 16.3097 36.7846 16.5907 37.1041C16.3097 37.4236 16.1365 37.8398 16.1365 38.2883V42.1968C16.1365 43.1742 16.9577 44 17.9298 44H24.7603C25.1003 44 25.3759 43.7228 25.3759 43.381C25.3759 43.0391 25.1003 42.762 24.7603 42.762H17.9298C17.6304 42.762 17.3677 42.4979 17.3677 42.1968V38.2883C17.3677 37.9872 17.6303 37.7231 17.9298 37.7231H34.9365C35.2359 37.7231 35.4987 37.9872 35.4987 38.2883V38.7982C35.4987 39.1401 35.7742 39.4172 36.1143 39.4172C36.4543 39.4172 36.7299 39.1401 36.7299 38.7982V38.2883C36.7299 37.8398 36.5567 37.4236 36.2756 37.1041C36.5566 36.7846 36.7298 36.3684 36.7298 35.92V34.5847H39.8325C44.2825 34.5847 48.1106 30.9302 48.0234 26.3368C47.9818 24.152 47.0881 22.1204 45.5072 20.6162C43.9285 19.1141 41.8645 18.3302 39.6981 18.4091C39.3251 18.4232 38.9708 18.217 38.7907 17.8857C36.8182 14.2553 33.0396 12 28.9293 12C24.692 12 20.8597 14.3594 18.928 18.1575C18.6623 18.68 18.2179 18.7108 17.6634 18.6964C14.3286 18.6109 11.1693 20.7297 10.0339 24.0637C9.93703 24.3477 9.7004 24.5746 9.38472 24.6862C7.27627 25.4314 5.91762 27.4433 6.00388 29.6927C6.10911 32.4382 8.41914 34.5847 11.1639 34.5847ZM35.4986 35.92C35.4986 36.221 35.2359 36.4851 34.9365 36.4851H17.9298C17.6304 36.4851 17.3677 36.221 17.3677 35.92V32.0115C17.3677 31.7104 17.6303 31.4463 17.9298 31.4463H34.9365C35.2359 31.4463 35.4986 31.7104 35.4986 32.0115V35.92ZM35.4986 29.6431C35.4986 29.9442 35.2359 30.2083 34.9365 30.2083H17.9298C17.6304 30.2083 17.3677 29.9442 17.3677 29.6431V25.7347C17.3677 25.4336 17.6303 25.1695 17.9298 25.1695H34.9365C35.2358 25.1695 35.4986 25.4335 35.4986 25.7347V29.6431ZM9.79298 25.8543C10.4665 25.6163 10.9788 25.1099 11.1986 24.4649C12.15 21.6716 14.8042 19.8609 17.6319 19.9341C18.1569 19.9479 19.3845 19.979 20.0242 18.7213C21.7444 15.3391 25.1565 13.2381 28.9293 13.2381C32.5891 13.2381 35.9537 15.2464 37.7101 18.4792C38.1117 19.2183 38.9094 19.6753 39.7423 19.6464C41.5749 19.5794 43.3239 20.2434 44.6609 21.5155C46.0001 22.7896 46.7571 24.5103 46.7924 26.3604C46.8659 30.2279 43.6276 33.3467 39.8325 33.3467H36.7298V32.0115C36.7298 31.5964 36.5769 31.1691 36.2762 30.8273C36.564 30.5008 36.7298 30.0774 36.7298 29.6431V25.7347C36.7298 24.7572 35.9085 23.9315 34.9365 23.9315H17.9298C16.9581 23.9315 16.1365 24.7569 16.1365 25.7347V29.6431C16.1365 30.0924 16.3127 30.5125 16.59 30.8273C16.2998 31.1571 16.1365 31.5803 16.1365 32.0115V33.3467H11.1639C9.07528 33.3467 7.3123 31.6862 7.234 29.6452C7.16883 27.9417 8.19712 26.4183 9.79298 25.8543ZM25.3257 27.0698H19.6358C19.2957 27.0698 19.0202 27.347 19.0202 27.6888C19.0202 28.0307 19.2957 28.3079 19.6358 28.3079H25.3257C25.6657 28.3079 25.9413 28.0307 25.9413 27.6888C25.9413 27.347 25.6657 27.0698 25.3257 27.0698ZM25.3257 33.3467H19.6358C19.2957 33.3467 19.0202 33.6238 19.0202 33.9657C19.0202 34.3076 19.2957 34.5847 19.6358 34.5847H25.3257C25.6657 34.5847 25.9413 34.3076 25.9413 33.9657C25.9413 33.6238 25.6657 33.3467 25.3257 33.3467ZM25.3257 39.6235H19.6358C19.2957 39.6235 19.0202 39.9007 19.0202 40.2426C19.0202 40.5844 19.2957 40.8616 19.6358 40.8616H25.3257C25.6657 40.8616 25.9413 40.5844 25.9413 40.2426C25.9413 39.9007 25.6657 39.6235 25.3257 39.6235ZM32.0179 33.3467H33.2222C33.5622 33.3467 33.8378 33.6238 33.8378 33.9657C33.8378 34.3076 33.5623 34.5847 33.2222 34.5847H32.0179C31.6778 34.5847 31.4023 34.3076 31.4023 33.9657C31.4023 33.6238 31.6778 33.3467 32.0179 33.3467ZM32.0179 27.0698H33.2222C33.5622 27.0698 33.8378 27.347 33.8378 27.6888C33.8378 28.0307 33.5623 28.3079 33.2222 28.3079H32.0179C31.6778 28.3079 31.4023 28.0307 31.4023 27.6888C31.4023 27.347 31.6778 27.0698 32.0179 27.0698ZM33.2222 40.8616C33.5623 40.8616 33.8378 40.5844 33.8378 40.2426C33.8378 39.9007 33.5623 39.6235 33.2222 39.6235H32.0179C31.6778 39.6235 31.4023 39.9007 31.4023 40.2426C31.4023 40.5844 31.6778 40.8616 32.0179 40.8616H33.2222ZM28.4673 33.3467H29.6716C30.0116 33.3467 30.2872 33.6238 30.2872 33.9657C30.2872 34.3076 30.0116 34.5847 29.6716 34.5847H28.4673C28.1273 34.5847 27.8517 34.3076 27.8517 33.9657C27.8517 33.6238 28.1273 33.3467 28.4673 33.3467ZM29.6716 27.0698H28.4673C28.1273 27.0698 27.8517 27.347 27.8517 27.6888C27.8517 28.0307 28.1273 28.3079 28.4673 28.3079H29.6716C30.0116 28.3079 30.2872 28.0307 30.2872 27.6888C30.2872 27.347 30.0116 27.0698 29.6716 27.0698ZM30.2872 40.2426C30.2872 40.5844 30.0116 40.8616 29.6716 40.8616H28.4673C28.1273 40.8616 27.8517 40.5844 27.8517 40.2426C27.8517 39.9007 28.1273 39.6235 28.4673 39.6235H29.6716C30.0116 39.6235 30.2872 39.9007 30.2872 40.2426ZM27.6332 44C27.2931 44 27.0176 43.7228 27.0176 43.381C27.0176 43.0391 27.2931 42.762 27.6332 42.762H34.9366C35.2361 42.762 35.4987 42.4979 35.4987 42.1968V41.6869C35.4987 41.345 35.7743 41.0679 36.1143 41.0679C36.4544 41.0679 36.7299 41.345 36.7299 41.6869V42.1968C36.7299 43.1742 35.9086 44 34.9366 44H27.6332Z" fill="white"/>
</svg>
