<svg width="55" height="55" viewBox="0 0 55 55" fill="none" xmlns="http://www.w3.org/2000/svg">
<rect width="55" height="55" rx="10" fill="#0AB4EF"/>
<path fill-rule="evenodd" clip-rule="evenodd" d="M33.6041 30.5862H42.3487C42.4851 30.5862 42.6159 30.6407 42.7124 30.7377C42.8088 30.8347 42.863 30.9663 42.863 31.1034V42.4828C42.863 42.6199 42.8088 42.7515 42.7124 42.8485C42.6159 42.9455 42.4851 43 42.3487 43H24.8596C24.7232 43 24.5923 42.9455 24.4959 42.8485C24.3994 42.7515 24.3452 42.6199 24.3452 42.4828V39.8966H14.5719C13.89 39.8958 13.2363 39.6231 12.7541 39.1382C12.272 38.6534 12.0008 37.996 12 37.3103V15.5862C12.0008 14.9005 12.272 14.2432 12.7541 13.7583C13.2363 13.2735 13.89 13.0008 14.5719 13H27.9459C28.0135 13 28.0803 13.0134 28.1428 13.0394C28.2052 13.0654 28.2619 13.1035 28.3096 13.1515L33.4535 18.3239C33.5012 18.3719 33.5391 18.429 33.565 18.4917C33.5908 18.5545 33.6041 18.6217 33.6041 18.6897V23.8749C34.4355 23.5915 35.3001 23.4187 36.176 23.3608V22.3103C36.176 22.2114 36.2042 22.1146 36.2573 22.0313C36.3104 21.948 36.3861 21.8817 36.4755 21.8404C36.5649 21.7991 36.6642 21.7844 36.7616 21.798C36.8591 21.8117 36.9505 21.8532 37.0252 21.9176L40.6259 25.0211C40.6823 25.0696 40.7275 25.1299 40.7585 25.1977C40.7895 25.2654 40.8055 25.3392 40.8055 25.4138C40.8055 25.4884 40.7895 25.5621 40.7585 25.6299C40.7275 25.6977 40.6823 25.7579 40.6259 25.8065L37.0252 28.91C36.9505 28.9743 36.8591 29.0158 36.7616 29.0295C36.6642 29.0432 36.5649 29.0285 36.4755 28.9872C36.3861 28.9459 36.3104 28.8796 36.2573 28.7963C36.2042 28.713 36.176 28.6162 36.176 28.5172V27.4922C35.3144 27.5291 34.4556 27.6169 33.6041 27.7552V30.5862ZM33.6041 38.669L41.0516 31.6207H26.1567L33.6041 38.669ZM37.0542 24.2278C36.9577 24.3248 36.8269 24.3793 36.6904 24.3793C34.2557 24.3793 31.3482 25.6622 30.6661 27.2917C31.9183 26.9834 34.4191 26.4483 36.6904 26.4483C36.8269 26.4483 36.9577 26.5028 37.0542 26.5998C37.1506 26.6968 37.2048 26.8283 37.2048 26.9655V27.3926L39.5008 25.4138L37.2048 23.435V23.8621C37.2048 23.9992 37.1506 24.1308 37.0542 24.2278ZM31.848 18.1724L28.4603 14.7659V16.6207C28.4607 17.0321 28.6235 17.4265 28.9128 17.7174C29.2021 18.0083 29.5943 18.172 30.0034 18.1724H31.848ZM24.3452 38.8621V31.1034C24.3452 31.0355 24.3585 30.9682 24.3843 30.9054C24.4102 30.8427 24.448 30.7856 24.4958 30.7376C24.5436 30.6895 24.6003 30.6514 24.6627 30.6254C24.7251 30.5994 24.792 30.586 24.8596 30.586H32.5754V27.9352C31.1798 28.2032 30.1637 28.492 30.1449 28.4973C30.0683 28.5193 29.9877 28.5232 29.9094 28.5086C29.8312 28.4939 29.7573 28.4612 29.6937 28.413C29.6301 28.3648 29.5786 28.3024 29.5431 28.2307C29.5075 28.1591 29.489 28.0801 29.4891 28C29.4891 26.7418 30.3566 25.5437 31.9318 24.6264C32.1378 24.5065 32.3534 24.3945 32.5754 24.2895V19.2069H30.0034C29.3216 19.2061 28.6678 18.9334 28.1857 18.4486C27.7035 17.9637 27.4323 17.3064 27.4315 16.6207V14.0345H14.5719C14.1628 14.0349 13.7706 14.1986 13.4813 14.4895C13.192 14.7804 13.0292 15.1748 13.0288 15.5862V37.3103C13.0292 37.7217 13.192 38.1162 13.4813 38.4071C13.7706 38.698 14.1628 38.8616 14.5719 38.8621H24.3452ZM25.374 32.3006V41.9655H41.8343V32.3006L33.9567 39.756C33.8613 39.8463 33.7352 39.8966 33.6041 39.8966C33.4731 39.8966 33.347 39.8463 33.2516 39.756L25.374 32.3006ZM21.7733 19.2068H15.6007C15.4643 19.2068 15.3334 19.1523 15.237 19.0553C15.1405 18.9583 15.0863 18.8267 15.0863 18.6896C15.0863 18.5524 15.1405 18.4208 15.237 18.3239C15.3334 18.2269 15.4643 18.1724 15.6007 18.1724H21.7733C21.9097 18.1724 22.0405 18.2269 22.137 18.3239C22.2335 18.4208 22.2877 18.5524 22.2877 18.6896C22.2877 18.8267 22.2335 18.9583 22.137 19.0553C22.0405 19.1523 21.9097 19.2068 21.7733 19.2068ZM20.2302 21.7931C20.2302 21.9303 20.2844 22.0618 20.3808 22.1588C20.4773 22.2558 20.6081 22.3103 20.7445 22.3103H30.0035C30.1399 22.3103 30.2708 22.2558 30.3672 22.1588C30.4637 22.0618 30.5179 21.9303 30.5179 21.7931C30.5179 21.6559 30.4637 21.5244 30.3672 21.4274C30.2708 21.3304 30.1399 21.2759 30.0035 21.2759H20.7445C20.6081 21.2759 20.4773 21.3304 20.3808 21.4274C20.2844 21.5244 20.2302 21.6559 20.2302 21.7931ZM15.6007 25.4138H23.8308C23.9673 25.4138 24.0981 25.3593 24.1946 25.2623C24.291 25.1653 24.3452 25.0338 24.3452 24.8966C24.3452 24.7594 24.291 24.6279 24.1946 24.5309C24.0981 24.4339 23.9673 24.3794 23.8308 24.3794H15.6007C15.4643 24.3794 15.3334 24.4339 15.237 24.5309C15.1405 24.6279 15.0863 24.7594 15.0863 24.8966C15.0863 25.0338 15.1405 25.1653 15.237 25.2623C15.3334 25.3593 15.4643 25.4138 15.6007 25.4138ZM26.9172 27.4827C27.0536 27.4827 27.1844 27.5372 27.2809 27.6342C27.3774 27.7312 27.4316 27.8628 27.4316 28C27.4316 28.1372 27.3774 28.2688 27.2809 28.3658C27.1844 28.4628 27.0536 28.5173 26.9172 28.5173H23.8307C23.6943 28.5173 23.5635 28.4628 23.467 28.3658C23.3705 28.2688 23.3163 28.1372 23.3163 28C23.3163 27.8628 23.3705 27.7312 23.467 27.6342C23.5635 27.5372 23.6943 27.4827 23.8307 27.4827H26.9172ZM21.7733 30.5862H15.6007C15.4643 30.5862 15.3334 30.6407 15.237 30.7377C15.1405 30.8347 15.0863 30.9662 15.0863 31.1034C15.0863 31.2406 15.1405 31.3721 15.237 31.4691C15.3334 31.5661 15.4643 31.6206 15.6007 31.6206H21.7733C21.9097 31.6206 22.0405 31.5661 22.137 31.4691C22.2335 31.3721 22.2877 31.2406 22.2877 31.1034C22.2877 30.9662 22.2335 30.8347 22.137 30.7377C22.0405 30.6407 21.9097 30.5862 21.7733 30.5862ZM18.6869 22.3103H15.6007C15.4643 22.3103 15.3334 22.2558 15.237 22.1588C15.1405 22.0618 15.0863 21.9303 15.0863 21.7931C15.0863 21.6559 15.1405 21.5244 15.237 21.4274C15.3334 21.3304 15.4643 21.2759 15.6007 21.2759H18.6869C18.8233 21.2759 18.9542 21.3304 19.0506 21.4274C19.1471 21.5244 19.2013 21.6559 19.2013 21.7931C19.2013 21.9303 19.1471 22.0618 19.0506 22.1588C18.9542 22.2558 18.8233 22.3103 18.6869 22.3103ZM27.946 24.3794H25.8884C25.7519 24.3794 25.6211 24.4339 25.5246 24.5309C25.4282 24.6279 25.374 24.7594 25.374 24.8966C25.374 25.0338 25.4282 25.1653 25.5246 25.2623C25.6211 25.3593 25.7519 25.4138 25.8884 25.4138H27.946C28.0824 25.4138 28.2133 25.3593 28.3097 25.2623C28.4062 25.1653 28.4604 25.0338 28.4604 24.8966C28.4604 24.7594 28.4062 24.6279 28.3097 24.5309C28.2133 24.4339 28.0824 24.3794 27.946 24.3794ZM15.6007 27.4827H21.7733C21.9097 27.4827 22.0405 27.5372 22.137 27.6342C22.2335 27.7312 22.2877 27.8628 22.2877 28C22.2877 28.1372 22.2335 28.2688 22.137 28.3658C22.0405 28.4628 21.9097 28.5173 21.7733 28.5173H15.6007C15.4643 28.5173 15.3334 28.4628 15.237 28.3658C15.1405 28.2688 15.0863 28.1372 15.0863 28C15.0863 27.8628 15.1405 27.7312 15.237 27.6342C15.3334 27.5372 15.4643 27.4827 15.6007 27.4827ZM18.6869 33.6897H15.6007C15.4643 33.6897 15.3334 33.7442 15.237 33.8412C15.1405 33.9382 15.0863 34.0697 15.0863 34.2069C15.0863 34.3441 15.1405 34.4756 15.237 34.5726C15.3334 34.6696 15.4643 34.7241 15.6007 34.7241H18.6869C18.8233 34.7241 18.9542 34.6696 19.0506 34.5726C19.1471 34.4756 19.2013 34.3441 19.2013 34.2069C19.2013 34.0697 19.1471 33.9382 19.0506 33.8412C18.9542 33.7442 18.8233 33.6897 18.6869 33.6897ZM21.7733 33.6897H20.7446C20.6081 33.6897 20.4773 33.7442 20.3808 33.8412C20.2844 33.9382 20.2302 34.0697 20.2302 34.2069C20.2302 34.3441 20.2844 34.4756 20.3808 34.5726C20.4773 34.6696 20.6081 34.7241 20.7446 34.7241H21.7733C21.9098 34.7241 22.0406 34.6696 22.1371 34.5726C22.2335 34.4756 22.2877 34.3441 22.2877 34.2069C22.2877 34.0697 22.2335 33.9382 22.1371 33.8412C22.0406 33.7442 21.9098 33.6897 21.7733 33.6897Z" fill="white"/>
</svg>
