<svg width="55" height="55" viewBox="0 0 55 55" fill="none" xmlns="http://www.w3.org/2000/svg">
<rect width="55" height="55" rx="10" fill="#0AB4EF"/>
<path fill-rule="evenodd" clip-rule="evenodd" d="M25.03 13H39.6651L42.8343 16.1868V29.9355C42.8343 30.7358 42.1866 31.3871 41.3907 31.3871H28.3983V40.0968C28.3983 42.0027 24.5252 43 20.6992 43C16.8732 43 13 42.0027 13 40.0968V28C13 26.0694 16.3097 24.6129 20.6992 24.6129C21.6924 24.6129 22.6759 24.6981 23.5864 24.8524V14.4516C23.5864 13.6513 24.2341 13 25.03 13ZM38.9847 13.9677H27.4359V18.8065H38.9847V13.9677ZM20.6992 27.5161C18.3495 27.5161 16.8496 28.3755 16.8496 28.9677C16.8496 29.56 18.3495 30.4194 20.6992 30.4194C21.7078 30.4194 22.7019 30.3269 23.609 30.16C23.5974 30.0865 23.5864 30.0124 23.5864 29.9355V28.0523C22.8381 27.7102 21.8069 27.5161 20.6992 27.5161ZM23.5864 25.8356C22.6851 25.6716 21.6991 25.5806 20.6992 25.5806C16.7293 25.5806 13.9624 26.8556 13.9624 28C13.9624 28.6145 14.766 29.2653 16.1201 29.7376C15.9704 29.4976 15.8872 29.2397 15.8872 28.9677C15.8872 27.5882 17.9559 26.5484 20.6992 26.5484C21.7573 26.5484 22.7683 26.7129 23.5864 27.0085V25.8356ZM13.9624 40.0968C13.9624 40.886 16.5869 42.0323 20.6992 42.0323C24.8115 42.0323 27.4359 40.886 27.4359 40.0968V37.7045C26.0506 38.6432 23.3655 39.129 20.6992 39.129C18.0329 39.129 15.3478 38.6432 13.9624 37.7045V40.0968ZM13.9624 36.2258C13.9624 37.015 16.5869 38.1613 20.6992 38.1613C24.8115 38.1613 27.4359 37.015 27.4359 36.2258V33.8335C26.0506 34.7723 23.3655 35.2581 20.6992 35.2581C18.0329 35.2581 15.3478 34.7723 13.9624 33.8335V36.2258ZM20.6992 34.2903C24.8115 34.2903 27.4359 33.144 27.4359 32.3548V31.3871H25.03C24.682 31.3871 24.3669 31.2574 24.1171 31.0508C23.0676 31.27 21.8882 31.3871 20.6992 31.3871C17.7258 31.3871 15.2515 30.7174 13.9624 29.6863V32.3548C13.9624 33.144 16.5869 34.2903 20.6992 34.2903ZM27.4359 30.4194H38.9847V23.6452H27.4359V30.4194ZM41.3907 30.4194C41.6558 30.4194 41.8719 30.2026 41.8719 29.9355V16.5874L39.9471 14.6519V19.7742H26.4735V13.9677H25.03C24.7648 13.9677 24.5488 14.1845 24.5488 14.4516V29.9355C24.5488 30.2026 24.7648 30.4194 25.03 30.4194H26.4735V22.6774H39.9471V30.4194H41.3907ZM15.8873 31.8708H16.8497V32.8386H15.8873V31.8708ZM17.812 32.3547H18.7744V33.3225H17.812V32.3547ZM16.8497 39.6128H15.8873V40.5806H16.8497V39.6128ZM17.812 40.0967H18.7744V41.0645H17.812V40.0967ZM25.5111 35.7419H24.5488V36.7097H25.5111V35.7419ZM22.624 36.2258H23.5864V37.1936H22.624V36.2258ZM37.0599 16.8708H38.0223V17.8386H37.0599V16.8708ZM36.0975 16.8708H35.1353V17.8386H36.0975V16.8708ZM28.3983 24.6128H38.0222V25.5806H28.3983V24.6128ZM38.0222 26.5483H28.3983V27.5161H38.0222V26.5483ZM28.3983 28.4839H38.0222V29.4517H28.3983V28.4839ZM32.2478 17.8386H28.3983V14.9355H32.2478V17.8386ZM31.2854 15.9032H29.3606V16.8709H31.2854V15.9032Z" fill="white"/>
</svg>
