<svg width="55" height="55" viewBox="0 0 55 55" fill="none" xmlns="http://www.w3.org/2000/svg">
<rect width="55" height="55" rx="10" fill="#0AB4EF"/>
<path fill-rule="evenodd" clip-rule="evenodd" d="M42.5574 33.8535L39.9146 36.5L42.5574 39.1465C42.6272 39.2164 42.6748 39.3055 42.694 39.4025C42.7133 39.4995 42.7034 39.6 42.6656 39.6913C42.6278 39.7827 42.5639 39.8608 42.4818 39.9157C42.3997 39.9706 42.3032 40 42.2044 40H31.6221C30.4961 41.0761 29.2808 42.0543 27.9891 42.924C27.9098 42.9737 27.8181 43 27.7245 43C27.6309 43 27.5392 42.9737 27.4599 42.924C26.1682 42.0543 24.9529 41.0761 23.8269 40H13.2446C13.1458 40 13.0493 39.9706 12.9672 39.9157C12.8851 39.8608 12.8211 39.7827 12.7834 39.6913C12.7456 39.6 12.7357 39.4995 12.7549 39.4025C12.7742 39.3055 12.8217 39.2164 12.8916 39.1465L15.5344 36.5L12.8916 33.8535C12.8217 33.7836 12.7742 33.6945 12.7549 33.5975C12.7357 33.5005 12.7456 33.4 12.7834 33.3087C12.8211 33.2173 12.8851 33.1392 12.9672 33.0843C13.0493 33.0294 13.1458 33 13.2446 33H18.2491C16.3034 29.6597 15.2665 25.8669 15.2418 22V19C15.2418 18.9005 15.2714 18.8032 15.3269 18.7206C15.3824 18.638 15.4613 18.5739 15.5534 18.5365C16.6349 18.0638 17.597 17.3544 18.3688 16.4605C19.1407 15.5666 19.7027 14.5109 20.0137 13.371C20.042 13.2647 20.1046 13.1707 20.1917 13.1036C20.2788 13.0366 20.3856 13.0001 20.4955 13H34.9535C35.0634 13.0001 35.1701 13.0366 35.2573 13.1036C35.3444 13.1707 35.407 13.2647 35.4353 13.371C35.7463 14.5109 36.3083 15.5666 37.0802 16.4605C37.852 17.3544 38.8141 18.0638 39.8956 18.5365C39.9877 18.5739 40.0666 18.638 40.1221 18.7206C40.1776 18.8032 40.2072 18.9005 40.2072 19V22C40.1825 25.8669 39.1456 29.6597 37.1999 33H42.2044C42.3032 33 42.3997 33.0294 42.4818 33.0843C42.5639 33.1392 42.6278 33.2173 42.6656 33.3087C42.7034 33.4 42.7133 33.5005 42.694 33.5975C42.6748 33.6945 42.6272 33.7836 42.5574 33.8535ZM16.7396 36.5C16.7396 36.6326 16.687 36.7597 16.5934 36.8535L14.4499 39H22.8048C21.311 37.4788 19.9832 35.8027 18.8438 34H14.4499L16.5934 36.1465C16.687 36.2403 16.7396 36.3674 16.7396 36.5ZM16.2404 22C16.2404 33.51 25.9804 40.7045 27.7245 41.9C29.4681 40.7 39.2086 33.496 39.2086 22V19.328C38.1178 18.7988 37.1454 18.0538 36.3498 17.1382C35.5542 16.2225 34.952 15.155 34.5795 14H20.8695C20.497 15.155 19.8948 16.2225 19.0992 17.1382C18.3036 18.0538 17.3312 18.7988 16.2404 19.328V22ZM36.6032 34C35.4638 35.8027 34.136 37.4788 32.6422 39H40.9991L38.8536 36.8535C38.76 36.7597 38.7074 36.6326 38.7074 36.5C38.7074 36.3674 38.76 36.2403 38.8536 36.1465L40.9971 34H36.6032ZM34.367 21.5554C35.2448 22.871 35.7134 24.4178 35.7134 26C35.7109 28.121 34.8684 30.1543 33.3707 31.6541C31.873 33.1538 29.8425 33.9975 27.7245 34C26.1444 34 24.5998 33.5308 23.286 32.6518C21.9723 31.7727 20.9483 30.5233 20.3436 29.0615C19.739 27.5997 19.5808 25.9911 19.889 24.4393C20.1973 22.8874 20.9582 21.462 22.0754 20.3431C23.1927 19.2243 24.6162 18.4624 26.1659 18.1537C27.7156 17.845 29.3219 18.0035 30.7817 18.609C32.2415 19.2145 33.4892 20.2398 34.367 21.5554ZM30.3653 30.5235C29.6825 30.2439 28.9596 30.0751 28.2238 30.0235V32.9185C29.0671 32.6635 29.8235 31.7835 30.3653 30.5235ZM28.2238 26.5V29.0235C29.0761 29.0741 29.9147 29.2618 30.7073 29.5795C31.0051 28.5787 31.1729 27.5437 31.2066 26.5H28.2238ZM28.2238 22.9765V25.5H31.2056C31.1719 24.4563 31.0041 23.4213 30.7063 22.4205C29.914 22.7381 29.0757 22.9258 28.2238 22.9765ZM28.2238 19.0835V21.9765C28.9595 21.9255 29.6824 21.7574 30.3653 21.4785C29.8215 20.2185 29.0676 19.3385 28.2238 19.0835ZM32.0355 20.5C31.5346 20.1038 30.9819 19.7783 30.3928 19.5325C30.7425 19.9936 31.0352 20.4954 31.2645 21.027C31.533 20.8688 31.7906 20.6928 32.0355 20.5ZM27.2251 21.9765V19.0835C26.3813 19.3385 25.6274 20.2185 25.0836 21.4765C25.7664 21.7561 26.4893 21.9249 27.2251 21.9765ZM23.4134 20.5C23.6583 20.6931 23.9159 20.8695 24.1844 21.028C24.4135 20.4957 24.7063 19.9932 25.0561 19.5315C24.4669 19.7776 23.9142 20.1035 23.4134 20.5ZM27.2251 25.5V22.978V22.9765C26.3728 22.9259 25.5342 22.7382 24.7416 22.4205C24.4438 23.4213 24.276 24.4563 24.2423 25.5H27.2251ZM27.2251 29.0235V26.5H24.2433C24.277 27.5437 24.4448 28.5787 24.7426 29.5795C25.5349 29.2619 26.3732 29.0742 27.2251 29.0235ZM27.2251 32.9165V30.0235C26.4894 30.0745 25.7665 30.2426 25.0836 30.5215C25.6274 31.7815 26.3813 32.6615 27.2251 32.9165ZM23.4134 31.5C23.9143 31.8962 24.467 32.2217 25.0561 32.4675C24.7064 32.0064 24.4137 31.5046 24.1844 30.973C23.9159 31.1312 23.6583 31.3072 23.4134 31.5ZM32.0355 31.5C31.7906 31.3069 31.533 31.1305 31.2645 30.972C31.0354 31.5043 30.7426 32.0068 30.3928 32.4685C30.982 32.2224 31.5347 31.8965 32.0355 31.5ZM32.2042 26.5C32.1734 27.6968 31.9773 28.8835 31.6215 30.0265C32.0304 30.2565 32.4179 30.5225 32.7794 30.8215C33.8996 29.648 34.5751 28.1194 34.6893 26.5H32.2042ZM32.2042 25.5H34.6893C34.5751 23.8806 33.8996 22.3521 32.7794 21.1785C32.4179 21.4775 32.0304 21.7435 31.6215 21.9735C31.9773 23.1165 32.1734 24.3032 32.2042 25.5ZM23.8274 21.9735C23.4185 21.7435 23.031 21.4775 22.6695 21.1785C21.5493 22.3521 20.8738 23.8806 20.7596 25.5H23.2447C23.2755 24.3032 23.4716 23.1165 23.8274 21.9735ZM23.2447 26.5H20.7596C20.8744 28.1197 21.5509 29.6483 22.672 30.8215C23.0335 30.5225 23.421 30.2565 23.8298 30.0265C23.4733 28.8837 23.2764 27.6969 23.2447 26.5Z" fill="white"/>
</svg>
