<svg width="55" height="55" viewBox="0 0 55 55" fill="none" xmlns="http://www.w3.org/2000/svg">
<rect width="55" height="55" rx="10" fill="#0AB4EF"/>
<path fill-rule="evenodd" clip-rule="evenodd" d="M13.6474 28.7345L18.2315 31.9V41C18.2315 42.1046 19.1257 43 20.2288 43H34.2094C35.3124 43 36.2066 42.1046 36.2066 41V31.9L40.7903 28.7345C41.1959 28.4545 41.438 27.9928 41.438 27.4995C41.438 27.0062 41.1959 26.5445 40.7903 26.2645L36.2066 23.1V15C36.2066 13.8954 35.3124 13 34.2094 13H20.2288C19.1257 13 18.2315 13.8954 18.2315 15V23.1L13.6474 26.265C13.242 26.545 13 27.0066 13 27.4998C13 27.9929 13.242 28.4545 13.6474 28.7345ZM36.2066 24.314L40.2236 27.0885C40.3586 27.1818 40.4393 27.3357 40.4393 27.5C40.4393 27.6643 40.3586 27.8182 40.2236 27.9115L36.2066 30.6855V24.314ZM31.0593 14L30.4187 14.684C30.23 14.8855 29.9665 14.9999 29.6907 15H24.7475C24.4716 14.9996 24.208 14.8853 24.019 14.684L23.3789 14H31.0593ZM19.2302 23.6245L19.4254 23.4895C19.5918 23.3744 19.6724 23.1702 19.6297 22.9723C19.5869 22.7744 19.4292 22.6219 19.2302 22.586V15C19.2302 14.4477 19.6773 14 20.2288 14H22.0098L23.2905 15.368C23.6687 15.7704 24.1957 15.999 24.7475 16H29.6907C30.2425 15.9994 30.7697 15.7707 31.1476 15.368L32.4284 14H34.2094C34.7609 14 35.208 14.4477 35.208 15V22.586C35.009 22.6219 34.8513 22.7744 34.8085 22.9723C34.7658 23.1702 34.8464 23.3744 35.0128 23.4895L35.208 23.6245V31.3745L27.5022 36.697C27.3316 36.8148 27.1061 36.8148 26.9355 36.697L19.2302 31.3755V23.6245ZM19.2302 32.59L26.3703 37.52C26.8831 37.8713 27.5586 37.8713 28.0714 37.52L35.208 32.59V38.5C35.208 39.0523 34.7609 39.5 34.2094 39.5H20.2288C19.6773 39.5 19.2302 39.0523 19.2302 38.5V32.59ZM19.2302 40.222C19.5324 40.402 19.8771 40.4979 20.2288 40.5H34.2094C34.561 40.4979 34.9058 40.402 35.208 40.222V41C35.208 41.5523 34.7609 42 34.2094 42H20.2288C19.6773 42 19.2302 41.5523 19.2302 41V40.222ZM14.2146 27.0885L18.2315 24.313V30.686L14.2141 27.9115C14.0791 27.8182 13.9984 27.6643 13.9984 27.5C13.9984 27.3357 14.0791 27.1818 14.2141 27.0885H14.2146ZM23.9342 20.2695C24.0351 20.2693 24.1337 20.2385 24.2168 20.181L25.1749 19.519C25.3267 19.4197 25.4128 19.2457 25.3998 19.0646C25.3868 18.8835 25.2767 18.7237 25.1123 18.6471C24.9479 18.5705 24.7549 18.5892 24.6082 18.696L23.6506 19.3575C23.4703 19.4817 23.3917 19.709 23.4567 19.9182C23.5218 20.1274 23.7153 20.2698 23.9342 20.2695ZM20.778 21.343L21.7337 20.681H21.7362C21.9631 20.5307 22.2684 20.5901 22.4227 20.8145C22.577 21.0389 22.5235 21.3457 22.3024 21.5045L21.3442 22.1665C21.1172 22.3167 20.8119 22.2573 20.6576 22.0329C20.5034 21.8085 20.5569 21.5017 20.778 21.343ZM27.0913 18.1955L27.2191 18.1075L27.3469 18.1955C27.5737 18.3439 27.8773 18.2841 28.0311 18.0608C28.1849 17.8374 28.1328 17.532 27.9136 17.3725L27.5022 17.0885C27.3317 16.971 27.1065 16.971 26.936 17.0885L26.5245 17.3725C26.3054 17.532 26.2532 17.8374 26.407 18.0608C26.5608 18.2841 26.8645 18.3439 27.0913 18.1955ZM30.9085 20.0474C30.7542 20.2718 30.4489 20.3312 30.2219 20.181L29.2662 19.519C29.1065 19.4236 29.013 19.2473 29.0235 19.0614C29.034 18.8755 29.1468 18.7108 29.3162 18.6341C29.4856 18.5573 29.6836 18.5812 29.83 18.696L30.7881 19.3575C31.0093 19.5162 31.0628 19.823 30.9085 20.0474ZM33.0964 22.1665C33.2433 22.2678 33.4331 22.283 33.5942 22.2063C33.7553 22.1296 33.8634 21.9726 33.8776 21.7946C33.8918 21.6165 33.8101 21.4443 33.6632 21.343L32.705 20.681C32.478 20.5307 32.1727 20.5901 32.0184 20.8145C31.8641 21.0389 31.9176 21.3457 32.1388 21.5045L33.0964 22.1665ZM27.4837 30.424C27.4044 30.4737 27.3127 30.5 27.2191 30.5C27.1255 30.5 27.0338 30.4737 26.9545 30.424L22.96 27.924C22.814 27.8326 22.7253 27.6724 22.7253 27.5V23C22.7253 22.8276 22.814 22.6674 22.96 22.576L26.9545 20.076C27.1164 19.9747 27.3218 19.9747 27.4837 20.076L31.4782 22.576C31.6242 22.6674 31.7129 22.8276 31.7129 23V27.5C31.7129 27.6724 31.6242 27.8326 31.4782 27.924L27.4837 30.424ZM27.7184 29.1L30.7142 27.223V23.9025L27.7184 25.7775V29.1ZM30.2714 23L27.2191 21.0895L24.1668 23L27.2191 24.9105L30.2714 23ZM23.7239 27.225L26.7198 29.1V25.7775L23.7239 23.9025V27.225Z" fill="white"/>
</svg>
