<svg width="55" height="55" viewBox="0 0 55 55" fill="none" xmlns="http://www.w3.org/2000/svg">
<rect width="55" height="55" rx="10" fill="#0AB4EF"/>
<path d="M40.8211 16.9219H34.6827C34.4402 16.9219 34.2439 17.1185 34.2439 17.3613C34.2439 17.6042 34.4402 17.8008 34.6827 17.8008H40.8211C41.0823 17.8008 41.2947 18.0134 41.2947 18.275V35.1976C41.2947 35.4592 41.0823 35.6719 40.8211 35.6719H13.5651C13.3039 35.6719 13.0916 35.4592 13.0916 35.1976V18.275C13.0916 18.0134 13.3039 17.8008 13.5651 17.8008H23.2069V18.6797H14.4081C14.1656 18.6797 13.9692 18.8763 13.9692 19.1191V30.7305C13.9692 30.9732 14.1656 31.17 14.4081 31.17C14.6506 31.17 14.8469 30.9732 14.8469 30.7305V19.5586H23.2069V21.9161L21.3281 22.8149C21.1782 22.8868 21.0785 23.0419 21.0785 23.2115V30.3783C21.0785 30.5477 21.1757 30.7019 21.3281 30.7749L27.0039 33.4904C27.1268 33.5483 27.2656 33.5453 27.3824 33.4904L30.5731 31.9638C30.7919 31.8592 30.8844 31.5966 30.78 31.3778C30.6755 31.1588 30.4131 31.0661 30.1946 31.1707L27.632 32.3968V26.2039L32.43 23.9085V30.1013L31.7781 30.4131C31.5594 30.5177 31.4668 30.7802 31.5713 30.999C31.6757 31.2181 31.9379 31.3108 32.1564 31.2062L33.0581 30.7749C33.2106 30.7019 33.3077 30.5477 33.3077 30.3783V23.2115C33.3077 23.044 33.2103 22.8879 33.0581 22.8149L31.1793 21.9161V19.5586H39.5393V33.9141H14.8469V32.6055C14.8469 32.3627 14.6506 32.1661 14.4081 32.1661C14.1656 32.1661 13.9692 32.3627 13.9692 32.6055V34.3535C13.9692 34.5964 14.1656 34.793 14.4081 34.793H39.9781C40.2206 34.793 40.417 34.5964 40.417 34.3535V19.1191C40.417 18.8763 40.2206 18.6797 39.9781 18.6797H31.1793V17.8008H32.8103C33.0528 17.8008 33.2492 17.6042 33.2492 17.3613C33.2492 17.1185 33.0528 16.9219 32.8103 16.9219H31.1793V16.043H35.1143C35.3568 16.043 35.5531 15.8464 35.5531 15.6035V14.5612C36.064 14.3797 36.4308 13.8913 36.4308 13.3184C36.4308 12.5914 35.8402 12 35.1143 12C34.3883 12 33.7977 12.5914 33.7977 13.3184C33.7977 13.8913 34.1646 14.3797 34.6754 14.5612V15.1641H30.7404C30.4979 15.1641 30.3016 15.3607 30.3016 15.6035V16.9219H27.632V14.5612C28.1428 14.3797 28.5097 13.8913 28.5097 13.3184C28.5097 12.5914 27.919 12 27.1931 12C26.4672 12 25.8766 12.5914 25.8766 13.3184C25.8766 13.8913 26.2434 14.3797 26.7543 14.5612V16.9219H24.0846V15.6035C24.0846 15.3607 23.8883 15.1641 23.6458 15.1641H19.7108V14.5612C20.2216 14.3797 20.5885 13.8913 20.5885 13.3184C20.5885 12.5914 19.9979 12 19.272 12C18.546 12 17.9554 12.5914 17.9554 13.3184C17.9554 13.8913 18.3223 14.3797 18.8331 14.5612V15.6035C18.8331 15.8464 19.0295 16.043 19.272 16.043H23.2069V16.9219H13.5651C12.82 16.9219 12.2139 17.5289 12.2139 18.275V35.1976C12.2139 35.9438 12.82 36.5508 13.5651 36.5508H23.0794C22.9096 38.1628 21.8451 39.1042 21.5096 39.3633H19.645C18.9191 39.3633 18.3284 39.9547 18.3284 40.6816C18.3284 41.4086 18.9191 42 19.645 42H34.7413C35.4672 42 36.0578 41.4086 36.0578 40.6816C36.0578 39.9547 35.4672 39.3633 34.7413 39.3633H32.8778C32.5466 39.1051 31.4785 38.1552 31.3073 36.5508H40.8211C41.5662 36.5508 42.1724 35.9438 42.1724 35.1976V18.275C42.1724 17.5289 41.5662 16.9219 40.8211 16.9219ZM35.1143 12.8789C35.3563 12.8789 35.5531 13.076 35.5531 13.3184C35.5531 13.5607 35.3563 13.7578 35.1143 13.7578C34.8722 13.7578 34.6754 13.5607 34.6754 13.3184C34.6754 13.076 34.8722 12.8789 35.1143 12.8789ZM27.1931 12.8789C27.4352 12.8789 27.632 13.076 27.632 13.3184C27.632 13.5607 27.4352 13.7578 27.1931 13.7578C26.9511 13.7578 26.7543 13.5607 26.7543 13.3184C26.7543 13.076 26.9511 12.8789 27.1931 12.8789ZM19.272 12.8789C19.514 12.8789 19.7108 13.076 19.7108 13.3184C19.7108 13.5607 19.514 13.7578 19.272 13.7578C19.0299 13.7578 18.8331 13.5607 18.8331 13.3184C18.8331 13.076 19.0299 12.8789 19.272 12.8789ZM24.0846 19.5586H26.7543V20.2189L24.0846 21.4963V19.5586ZM31.8508 23.2115L27.1931 25.4397L22.5354 23.2115L27.1931 20.9832L31.8508 23.2115ZM21.9562 23.9085L26.7543 26.2039V32.3968L21.9562 30.1013V23.9085ZM30.3016 21.4963L27.632 20.2189V19.5586H30.3016V21.4963ZM30.3016 17.8008V18.6797H27.632V17.8008H30.3016ZM26.7543 17.8008V18.6797H24.0846V17.8008H26.7543ZM35.1801 40.6816C35.1801 40.924 34.9833 41.1211 34.7413 41.1211H19.645C19.4029 41.1211 19.2061 40.924 19.2061 40.6816C19.2061 40.4393 19.4029 40.2422 19.645 40.2422H34.7413C34.9833 40.2422 35.1801 40.4393 35.1801 40.6816ZM31.6191 39.3633H22.7672C23.2817 38.7616 23.8524 37.8238 23.9619 36.5508H30.4243C30.5338 37.8238 31.1046 38.7616 31.6191 39.3633Z" fill="white"/>
</svg>
