<svg width="55" height="55" viewBox="0 0 55 55" fill="none" xmlns="http://www.w3.org/2000/svg">
<rect width="55" height="55" rx="10" fill="#0AB4EF"/>
<path fill-rule="evenodd" clip-rule="evenodd" d="M32.176 24.7708H12.8277C11.9372 24.7708 11.2153 24.048 11.2153 23.1562V17.7743C11.2153 16.8825 11.9372 16.1597 12.8277 16.1597H15.515C15.8118 16.1597 16.0524 16.4006 16.0524 16.6979C16.0524 16.9951 15.8118 17.2361 15.515 17.2361H12.8277C12.5309 17.2361 12.2902 17.477 12.2902 17.7743V23.1562C12.2902 23.4535 12.5309 23.6944 12.8277 23.6944H32.7134C33.0103 23.6944 33.2509 23.9354 33.2509 24.2326V26.3155C33.2507 26.5216 33.3681 26.7097 33.5533 26.7999C33.7384 26.8901 33.9586 26.8664 34.1205 26.739L41.5239 20.8877C41.6538 20.7864 41.7297 20.6307 41.7297 20.4658C41.7297 20.3009 41.6538 20.1452 41.5239 20.0438L34.1216 14.1925C33.9599 14.0646 33.7394 14.0405 33.554 14.1305C33.3685 14.2205 33.2508 14.4087 33.2509 14.615V16.6979C33.2509 16.9951 33.0103 17.2361 32.7134 17.2361H18.2022C17.9054 17.2361 17.6648 16.9951 17.6648 16.6979C17.6648 16.4006 17.9054 16.1597 18.2022 16.1597H32.176V14.615C32.1758 13.9958 32.5293 13.431 33.086 13.1613C33.6426 12.8915 34.3042 12.9643 34.7891 13.3486L42.1871 19.1983C42.5761 19.5037 42.8033 19.9711 42.8033 20.4661C42.8033 20.961 42.5761 21.4284 42.1871 21.7338L34.7875 27.5829C34.3024 27.9664 33.6412 28.0385 33.0851 27.7686C32.529 27.4987 32.1759 26.9343 32.176 26.3155V24.7708ZM39.1638 31.2292H41.8511C42.7416 31.2292 43.4635 31.9521 43.4635 32.8438V38.2258C43.4635 39.1175 42.7416 39.8404 41.8511 39.8404H22.5028V41.385C22.5029 42.0042 22.1494 42.569 21.5928 42.8388C21.0362 43.1085 20.3745 43.0357 19.8897 42.6514L12.4916 36.8017C12.1027 36.4964 11.8754 36.0289 11.8754 35.534C11.8754 35.039 12.1027 34.5716 12.4916 34.2663L19.8913 28.4171C20.3763 28.0336 21.0375 27.9615 21.5936 28.2314C22.1497 28.5013 22.5029 29.0657 22.5028 29.6846V31.2292H36.4766C36.7734 31.2292 37.014 31.4702 37.014 31.7674C37.014 32.0646 36.7734 32.3056 36.4766 32.3056H21.9653C21.6685 32.3056 21.4279 32.0646 21.4279 31.7674V29.6846C21.428 29.4784 21.3106 29.2903 21.1255 29.2001C20.9404 29.11 20.7201 29.1336 20.5583 29.261L13.1548 35.1123C13.025 35.2137 12.949 35.3693 12.949 35.5342C12.949 35.6991 13.025 35.8548 13.1548 35.9562L20.5572 41.8075C20.7189 41.9354 20.9393 41.9595 21.1248 41.8696C21.3102 41.7796 21.4279 41.5913 21.4279 41.385V39.3022C21.4279 39.0049 21.6685 38.764 21.9653 38.764H41.8511C42.1479 38.764 42.3886 38.523 42.3886 38.2258V32.8438C42.3886 32.5466 42.1479 32.3056 41.8511 32.3056H39.1638C38.867 32.3056 38.6264 32.0646 38.6264 31.7674C38.6264 31.4702 38.867 31.2292 39.1638 31.2292ZM40.7752 37.6875C41.0721 37.6875 41.3127 37.4465 41.3127 37.1493V35.5348C41.3127 35.2375 41.0721 34.9966 40.7752 34.9966C40.4784 34.9966 40.2378 35.2375 40.2378 35.5348V36.6111H39.1629C38.8661 36.6111 38.6254 36.8521 38.6254 37.1493C38.6254 37.4465 38.8661 37.6875 39.1629 37.6875H40.7752ZM13.3652 20.4652C13.3652 20.168 13.6058 19.927 13.9026 19.927C14.1995 19.927 14.4401 20.168 14.4401 20.4652V21.5416H15.515C15.8119 21.5416 16.0525 21.7826 16.0525 22.0798C16.0525 22.3771 15.8119 22.618 15.515 22.618H13.9026C13.6058 22.618 13.3652 22.3771 13.3652 22.0798V20.4652Z" fill="white"/>
</svg>
