<svg width="55" height="55" viewBox="0 0 55 55" fill="none" xmlns="http://www.w3.org/2000/svg">
<rect width="55" height="55" rx="10" fill="#0AB4EF"/>
<path fill-rule="evenodd" clip-rule="evenodd" d="M12.1898 13H42.7899C43.8618 13 44.7339 13.8732 44.7341 14.9466V14.9774V21.9438V30.3347V35.1464C44.7341 36.2359 43.8489 37.1224 42.7609 37.1224H31.7493V39.8893C33.1538 39.9144 34.2888 41.0656 34.2888 42.4779C34.2888 42.7663 34.0554 43 33.7674 43H21.1834C20.8954 43 20.6619 42.7663 20.6619 42.4779C20.6619 41.0656 21.797 39.9144 23.2014 39.8893V37.1224H17.6623C17.3743 37.1224 17.1408 36.8886 17.1408 36.6002C17.1408 36.3118 17.3743 36.0781 17.6623 36.0781H23.7228H31.2276H42.7606C43.2736 36.0781 43.6909 35.6602 43.6909 35.1464V30.8568H35.5913H11.2594V35.1464V35.1468C11.2596 35.6603 11.6769 36.0781 12.1898 36.0781H15.2983C15.5863 36.0781 15.8198 36.3118 15.8198 36.6002C15.8198 36.8887 15.5863 37.1224 15.2983 37.1224H12.1898C11.1017 37.1224 10.2166 36.236 10.2166 35.1464V30.3347L10.2166 30.334V14.9759C10.2166 13.8865 11.1018 13 12.1898 13ZM30.7062 37.1224H24.2442V39.8882H30.7062V37.1224ZM21.7953 41.9558H33.1552C32.9409 41.3597 32.3706 40.9325 31.7025 40.9324H31.2277H23.7228H23.248C22.5799 40.9324 22.0096 41.3597 21.7953 41.9558ZM36.1128 29.8125H43.691V22.466H36.1128V29.8125ZM36.1128 21.4217H43.691V14.9774C43.691 14.4799 43.2868 14.0751 42.7899 14.0751H36.1128V15.0194C36.1128 15.3078 35.8793 15.5415 35.5914 15.5415C35.3034 15.5415 35.07 15.3078 35.07 15.0194V14.0443H12.1899C11.6769 14.0443 11.2596 14.4622 11.2596 14.9759V29.8125H35.07V21.9438V17.1499C35.07 16.8614 35.3034 16.6277 35.5914 16.6277C35.8794 16.6277 36.1128 16.8615 36.1128 17.1499V21.4217ZM26.179 33.4674C26.179 32.5972 26.8859 31.8893 27.7548 31.8893C28.6239 31.8893 29.3308 32.5972 29.3308 33.4674C29.3308 34.3376 28.6239 35.0455 27.7548 35.0455C26.8859 35.0455 26.179 34.3376 26.179 33.4674ZM27.2218 33.4674C27.2218 33.7618 27.461 34.0012 27.7548 34.0012C28.0488 34.0012 28.2879 33.7618 28.2879 33.4674C28.2879 33.1731 28.0488 32.9336 27.7548 32.9336C27.4609 32.9336 27.2218 33.1731 27.2218 33.4674ZM38.901 16.1056H37.4645C37.1765 16.1056 36.9431 16.3393 36.9431 16.6277C36.9431 16.9162 37.1765 17.1499 37.4645 17.1499H38.901C39.189 17.1499 39.4224 16.9162 39.4224 16.6277C39.4224 16.3393 39.189 16.1056 38.901 16.1056ZM40.7962 16.1056H42.2326C42.5206 16.1056 42.754 16.3393 42.754 16.6277C42.754 16.9162 42.5206 17.1499 42.2326 17.1499H40.7962C40.5082 17.1499 40.2748 16.9162 40.2748 16.6277C40.2748 16.3393 40.5082 16.1056 40.7962 16.1056ZM38.901 18.3468H37.4645C37.1765 18.3468 36.9431 18.5805 36.9431 18.869C36.9431 19.1574 37.1765 19.3911 37.4645 19.3911H38.901C39.189 19.3911 39.4224 19.1574 39.4224 18.869C39.4224 18.5805 39.189 18.3468 38.901 18.3468ZM37.4645 24.3875H42.0792C42.3672 24.3875 42.6006 24.6212 42.6006 24.9097C42.6006 25.1982 42.3672 25.4319 42.0792 25.4319H37.4645C37.1766 25.4319 36.9431 25.1982 36.9431 24.9097C36.9431 24.6212 37.1765 24.3875 37.4645 24.3875ZM42.0792 26.8467H37.4645C37.1765 26.8467 36.9431 27.0804 36.9431 27.3688C36.9431 27.6573 37.1766 27.891 37.4645 27.891H42.0792C42.3672 27.891 42.6006 27.6573 42.6006 27.3688C42.6006 27.0804 42.3672 26.8467 42.0792 26.8467ZM40.7962 18.3468H42.2326C42.5206 18.3468 42.754 18.5805 42.754 18.869C42.754 19.1574 42.5206 19.3911 42.2326 19.3911H40.7962C40.5082 19.3911 40.2748 19.1574 40.2748 18.869C40.2748 18.5805 40.5082 18.3468 40.7962 18.3468ZM12.8007 15.7892C13.0887 15.7892 13.3222 15.5554 13.3222 15.267C13.3222 14.9786 13.0887 14.7448 12.8007 14.7448C12.5127 14.7448 12.2792 14.9786 12.2792 15.267C12.2792 15.5554 12.5127 15.7892 12.8007 15.7892ZM15.3474 15.267C15.3474 15.5554 15.1139 15.7892 14.8259 15.7892C14.5379 15.7892 14.3044 15.5554 14.3044 15.267C14.3044 14.9786 14.5379 14.7448 14.8259 14.7448C15.1139 14.7448 15.3474 14.9786 15.3474 15.267ZM16.7547 15.7892C17.0427 15.7892 17.2762 15.5554 17.2762 15.267C17.2762 14.9786 17.0427 14.7448 16.7547 14.7448C16.4667 14.7448 16.2333 14.9786 16.2333 15.267C16.2333 15.5554 16.4667 15.7892 16.7547 15.7892ZM20.9654 20.0847C21.0628 17.4689 23.2171 15.3706 25.8526 15.3706C28.55 15.3706 30.7445 17.5681 30.7446 20.2693C30.7446 21.7447 30.0899 23.1273 28.9485 24.0624C28.8516 24.1418 28.7348 24.1804 28.6186 24.1804C28.4675 24.1804 28.3178 24.1151 28.2147 23.9889C28.0323 23.7656 28.0652 23.4367 28.2881 23.2541C29.1865 22.5181 29.7017 21.4301 29.7017 20.2692C29.7017 18.144 27.975 16.4149 25.8527 16.4149C23.7921 16.4149 22.1049 18.0448 22.0083 20.0847H23.9112V19.9068C23.9112 19.4593 24.2748 19.0952 24.7217 19.0952H26.1199C26.5668 19.0952 26.9304 19.4593 26.9304 19.9068V21.3069C26.9304 21.7544 26.5668 22.1185 26.1199 22.1185H25.9422V24.122C26.189 24.1163 26.4357 24.0876 26.6742 24.0357C26.9556 23.9748 27.2334 24.1532 27.2945 24.435C27.3557 24.7168 27.1772 24.995 26.8958 25.0562C26.5842 25.124 26.2638 25.1597 25.9422 25.1655V25.4938H26.1199C26.5668 25.4938 26.9304 25.8579 26.9304 26.3054V27.7054C26.9304 28.153 26.5668 28.517 26.1199 28.517H24.7217C24.2748 28.517 23.9112 28.153 23.9112 27.7054V27.5275H20.4216V27.7054C20.4216 28.153 20.0581 28.517 19.6112 28.517H18.213C17.7661 28.517 17.4025 28.153 17.4025 27.7054V26.3054C17.4025 25.8578 17.7661 25.4937 18.213 25.4937H18.5096V22.1185H18.213C17.7661 22.1185 17.4025 21.7544 17.4025 21.3069V19.9068C17.4025 19.4593 17.7661 19.0952 18.213 19.0952H19.6112C20.0581 19.0952 20.4216 19.4593 20.4216 19.9068V20.0847H20.9654ZM18.4454 27.4727H19.3788V26.5381H18.4454V27.4727ZM18.4454 21.0742H19.3788V20.1396H18.4454V21.0742ZM25.8874 20.1396H24.9541V21.0742H25.8874V20.1396ZM25.8874 26.5381H24.9541V27.4727H25.8874V26.5381ZM23.9112 21.3069V21.1289H20.4216V21.3069C20.4216 21.7544 20.058 22.1185 19.6111 22.1185H19.5524V25.4937H19.6111C20.058 25.4937 20.4216 25.8578 20.4216 26.3054V26.4832H23.9112V26.3054C23.9112 25.8578 24.2748 25.4937 24.7217 25.4937H24.8993V22.1185H24.7217C24.2748 22.1185 23.9112 21.7544 23.9112 21.3069Z" fill="white"/>
</svg>
