<svg width="55" height="55" viewBox="0 0 55 55" fill="none" xmlns="http://www.w3.org/2000/svg">
<rect width="55" height="55" rx="10" fill="#0AB4EF"/>
<path fill-rule="evenodd" clip-rule="evenodd" d="M42.1261 25.7291C42.0625 24.9025 41.6894 24.164 41.0756 23.6493C40.5009 23.1676 39.7789 22.9431 39.0422 23.0171C38.0374 23.118 37.1525 23.7762 36.7162 24.7237L35.8031 24.8045L34.9019 24.5515C34.8318 24.5319 34.7753 24.4763 34.7507 24.4029C34.4888 23.6227 34.115 22.886 33.6387 22.2111L33.9576 21.3524L34.9643 20.2622C35.5368 20.2429 36.0692 19.9902 36.451 19.5495C37.1419 18.7521 37.1132 17.53 36.3856 16.7674C35.9862 16.3489 35.4483 16.1195 34.873 16.1257C34.3049 16.1303 33.758 16.3724 33.3725 16.79C32.9948 17.199 32.8015 17.7325 32.8255 18.2816L31.8187 19.3721L30.9752 19.7639C29.7169 19.0274 28.2881 18.6291 26.8267 18.6079L26.2751 17.727L26.0806 16.759C26.8556 16.1244 27.2177 15.1388 27.0106 14.1678C26.6998 12.7108 25.2015 11.7616 23.6708 12.0524C22.9002 12.1986 22.2445 12.6278 21.8245 13.2606C21.4311 13.8534 21.2952 14.5586 21.442 15.2464C21.6375 16.1633 22.3013 16.903 23.2044 17.233L23.4193 18.3024L23.2484 19.3447C22.4698 19.6935 21.7517 20.1558 21.1084 20.7225L20.4761 20.6097L19.7617 20.0699C19.6596 19.5266 19.3463 19.0482 18.881 18.7356C18.0125 18.152 16.8446 18.3116 16.1644 19.1068C15.7884 19.5465 15.6155 20.1045 15.6776 20.6779C15.7389 21.2435 16.0341 21.7642 16.4874 22.1067C16.9562 22.4609 17.5524 22.596 18.123 22.4861L18.7217 22.9384L18.9903 23.4887C19.0022 23.513 19.0025 23.5411 18.9912 23.5657C18.4791 24.6808 18.2194 25.8713 18.2194 27.1041C18.2194 27.3323 18.2289 27.5643 18.2475 27.7935C18.2503 27.829 18.2364 27.8613 18.21 27.8801L17.199 28.6014L16.045 28.9649C15.3365 28.416 14.3996 28.2502 13.5372 28.5355C13.52 28.5413 13.503 28.5475 13.486 28.5537L13.4718 28.559C13.2342 28.6447 13.111 28.907 13.1965 29.1449C13.2821 29.3827 13.5439 29.5062 13.7816 29.4205L13.803 29.4127L13.8087 29.4106C13.814 29.4087 13.8193 29.4067 13.8245 29.4049C14.4543 29.1964 15.1444 29.3515 15.6256 29.8097C15.7118 29.8918 15.825 29.9357 15.9406 29.9357C15.9864 29.9357 16.0327 29.9288 16.0778 29.9145L17.5425 29.4531C17.5883 29.4387 17.6315 29.4172 17.6707 29.3893L18.7406 28.6258C19.0275 28.4212 19.1878 28.0738 19.1589 27.7192C19.1423 27.5145 19.1338 27.3076 19.1338 27.1041C19.1338 26.0042 19.3654 24.9424 19.822 23.9482C19.9484 23.6729 19.9447 23.3589 19.8119 23.0866L19.4953 22.4379C19.4637 22.3731 19.4173 22.3168 19.3599 22.2734L18.4992 21.6232C18.3805 21.5335 18.2258 21.5072 18.0844 21.5526C17.7274 21.6672 17.3364 21.601 17.0382 21.3757C16.7817 21.182 16.6215 20.8991 16.5868 20.5791C16.5522 20.2595 16.6488 19.9481 16.859 19.7024C17.2314 19.267 17.8958 19.1762 18.3716 19.4959C18.6649 19.693 18.8499 20.0076 18.8794 20.3592C18.8902 20.489 18.9558 20.608 19.0596 20.6865L20.0129 21.4067C20.0704 21.4501 20.1372 21.4793 20.2081 21.4919L21.1686 21.6633C21.3099 21.6886 21.4547 21.6459 21.5598 21.5482C22.2289 20.9264 22.9937 20.4357 23.8331 20.0898C23.9797 20.0293 24.0845 19.8972 24.1102 19.7406L24.3353 18.3683C24.3442 18.3137 24.3432 18.258 24.3324 18.2038L24.0476 16.7866C24.013 16.6146 23.8833 16.4774 23.7135 16.4336C23.0065 16.2512 22.4788 15.723 22.3364 15.0552C22.2415 14.6106 22.3303 14.1532 22.5863 13.7674C22.8689 13.3416 23.3146 13.0521 23.8414 12.9521C24.8883 12.7535 25.9088 13.3846 26.1166 14.3591C26.2654 15.0569 25.9554 15.7709 25.3267 16.1779C25.169 16.28 25.0897 16.4684 25.1267 16.6527L25.3954 17.9896C25.4063 18.0438 25.4269 18.0956 25.4562 18.1424L26.1166 19.1974C26.2441 19.4011 26.4635 19.5227 26.7047 19.5227H26.7049C28.0811 19.5227 29.4296 19.8982 30.605 20.6088C30.802 20.7279 31.0439 20.7414 31.2519 20.6449L32.2856 20.1647C32.3397 20.1395 32.3884 20.104 32.4289 20.0602L33.6359 18.7528C33.7306 18.6503 33.7734 18.5101 33.752 18.372C33.6978 18.0213 33.8043 17.6713 34.044 17.4117C34.2621 17.1755 34.5592 17.044 34.8806 17.0413C35.2007 17.0413 35.5014 17.166 35.7246 17.4C36.1297 17.8246 36.1454 18.5052 35.7605 18.9495C35.5191 19.2281 35.1698 19.3719 34.8021 19.3442C34.663 19.3337 34.5266 19.3875 34.432 19.49L33.225 20.7973C33.1845 20.8412 33.153 20.8926 33.1322 20.9485L32.7398 22.0051C32.6591 22.2222 32.6927 22.4642 32.8295 22.6524C33.2843 23.2781 33.6391 23.9653 33.884 24.6948C34.0051 25.0558 34.2934 25.3319 34.6552 25.4334L35.6369 25.7089C35.69 25.7238 35.7454 25.7289 35.8005 25.7241L37.0753 25.6113C37.2547 25.5955 37.408 25.4757 37.4671 25.3054C37.731 24.544 38.3852 24.0035 39.1336 23.9283C39.6231 23.8791 40.1045 24.0295 40.4888 24.3516C40.9123 24.7066 41.1701 25.2209 41.2146 25.7995C41.244 26.1819 41.175 26.5659 41.015 26.91C40.9085 27.1392 41.0076 27.4115 41.2366 27.5183C41.4656 27.625 41.7375 27.5257 41.844 27.2965C42.0699 26.8099 42.1675 26.268 42.1261 25.7291ZM39.825 27.9962C39.6967 28.0385 39.5643 28.0667 39.4315 28.08C38.6403 28.1593 37.9008 27.7206 37.5468 26.962C37.4654 26.7877 37.2837 26.6827 37.0923 26.6998L35.8956 26.8057C35.8405 26.8105 35.7869 26.8253 35.7371 26.8494L34.8338 27.2858C34.4915 27.4511 34.2554 27.7777 34.2021 28.1593C34.1229 28.7272 33.9785 29.2862 33.773 29.8205C33.6503 30.1394 33.6746 30.4918 33.8396 30.7872L34.1614 31.3634C34.1965 31.4263 34.2459 31.48 34.3057 31.5201L35.2011 32.1216C35.3244 32.2045 35.4804 32.2222 35.6192 32.1691C35.9691 32.0349 36.3633 32.0793 36.6735 32.2877C36.9402 32.4668 37.116 32.7404 37.1683 33.058C37.2205 33.3752 37.1413 33.6914 36.945 33.9484C36.5972 34.404 35.9389 34.5314 35.4462 34.2386C35.1425 34.0581 34.9402 33.7541 34.8914 33.4047C34.8733 33.2757 34.8013 33.1605 34.6932 33.088L33.7015 32.4218C33.6418 32.3816 33.5734 32.3562 33.502 32.3475L32.8778 32.2715C32.5287 32.2289 32.1806 32.3455 31.9231 32.5914C31.4232 33.0683 30.8619 33.4746 30.2548 33.7988C29.9017 33.9873 29.6666 34.3551 29.6414 34.7586L29.5622 36.0249C29.5593 36.0721 29.5636 36.1196 29.5752 36.1654L29.9676 37.7249C30.0076 37.8841 30.1299 38.0097 30.2878 38.0539C30.8202 38.203 31.2347 38.6284 31.3695 39.1639C31.4721 39.5717 31.4072 39.9935 31.1867 40.3516C30.9664 40.7095 30.6188 40.9571 30.208 41.0487C29.4422 41.2196 28.6519 40.7692 28.4093 40.0234C28.226 39.46 28.374 38.8527 28.7954 38.4383C28.9113 38.3244 28.9582 38.1574 28.9185 37.9997L28.5236 36.4308C28.5121 36.3849 28.4935 36.3411 28.4686 36.3009L27.8599 35.3205C27.6132 34.923 27.1834 34.6859 26.7055 34.6859H26.7045C26.2101 34.6859 25.7152 34.6375 25.2333 34.542C24.7741 34.4509 24.3096 34.5978 23.9909 34.9346L23.1861 35.785C23.1536 35.8194 23.1266 35.8585 23.1061 35.9011L22.2052 37.7728C22.1442 37.8996 22.1448 38.0475 22.2068 38.1738C22.3647 38.4949 22.3665 38.8633 22.2118 39.1846C22.0722 39.4746 21.8263 39.6876 21.5195 39.7842C21.2128 39.8808 20.8887 39.8464 20.6068 39.6876C20.111 39.4082 19.8918 38.7762 20.1076 38.249C20.2515 37.8974 20.5456 37.6465 20.9144 37.5606C21.0492 37.5292 21.1626 37.4383 21.2227 37.3135L22.1294 35.4298C22.1499 35.3871 22.1637 35.3416 22.1703 35.2948L22.3479 34.0302C22.403 33.6385 22.2481 33.2417 21.9439 32.9947C21.2587 32.4383 20.6802 31.7743 20.2244 31.0212C20.0246 30.6912 19.6589 30.4839 19.2697 30.4803L18.0091 30.4682C17.961 30.4676 17.9133 30.4749 17.8675 30.4893L16.4872 30.9241C16.3147 30.9785 16.1903 31.1296 16.1701 31.3097C16.0907 32.016 15.6024 32.6101 14.926 32.8231C13.9933 33.117 12.9871 32.599 12.6834 31.6682C12.5627 31.2983 12.5666 30.9056 12.6948 30.5327C12.777 30.2936 12.6501 30.0331 12.4113 29.9508C12.1725 29.8684 11.9123 29.9957 11.8302 30.2347C11.6367 30.7976 11.6312 31.3916 11.8142 31.9526C12.1857 33.0913 13.2532 33.8209 14.3943 33.8209C14.6616 33.8209 14.9331 33.7808 15.2004 33.6966C16.124 33.4055 16.8151 32.6446 17.0278 31.7135L18.0731 31.3842L19.2613 31.3955C19.3363 31.3962 19.4058 31.4345 19.4426 31.4954C19.9531 32.339 20.601 33.0826 21.3682 33.7057C21.4247 33.7515 21.4533 33.8269 21.4426 33.9024L21.2749 35.0963L20.4872 36.7331C19.9355 36.9286 19.4864 37.3527 19.2617 37.9016C18.8676 38.8644 19.2531 39.9753 20.1586 40.4855C20.6629 40.7697 21.2438 40.8309 21.7939 40.6576C22.3363 40.4869 22.789 40.0949 23.0358 39.5821C23.2794 39.076 23.3069 38.5052 23.1188 37.9841L23.8992 36.3629L24.655 35.5642C24.7566 35.4568 24.9065 35.4104 25.0561 35.4401C25.5962 35.5471 26.1509 35.6014 26.7101 35.6014H26.7105C26.8654 35.6014 27.005 35.677 27.0836 35.8038L27.6547 36.7237L27.9722 37.9853C27.4435 38.6314 27.2769 39.4978 27.5401 40.3069C27.8717 41.3266 28.8445 42.0001 29.8846 42C30.0577 42 30.2328 41.9813 30.4071 41.9425C31.0609 41.7967 31.6144 41.4024 31.9654 40.8322C32.3165 40.2618 32.4198 39.5898 32.2564 38.9403C32.0641 38.1763 31.5151 37.5533 30.794 37.2609L30.4795 36.0109L30.5542 34.8159C30.5598 34.7271 30.61 34.6469 30.6852 34.6068C31.3654 34.2435 31.9942 33.7884 32.5541 33.2543C32.613 33.1981 32.6909 33.1713 32.7677 33.1806L33.2832 33.2433L34.0265 33.7427C34.1584 34.2795 34.4977 34.7397 34.9796 35.0261C35.8791 35.5606 37.0363 35.3365 37.6715 34.5047C38.0227 34.0448 38.1644 33.4782 38.0706 32.909C37.9781 32.3477 37.6546 31.8441 37.183 31.5273C36.6954 31.1997 36.0926 31.098 35.5289 31.2392L34.9061 30.8208L34.6378 30.3404C34.6059 30.2833 34.6018 30.2137 34.6264 30.1496C34.857 29.5501 35.019 28.9231 35.1078 28.2861C35.1187 28.2083 35.1648 28.1427 35.2312 28.1106L36.0593 27.7105L36.8723 27.6386C37.4374 28.5752 38.4458 29.0995 39.5228 28.9912C39.7216 28.9713 39.9194 28.9292 40.1109 28.8661C40.3508 28.7871 40.4812 28.5283 40.4022 28.2881C40.3233 28.0477 40.0648 27.9172 39.825 27.9962ZM26.7047 20.6935C27.2001 20.6935 27.6943 20.7506 28.1736 20.8634C28.4194 20.9212 28.5719 21.1676 28.5142 21.4138C28.4565 21.6599 28.2105 21.8128 27.9646 21.7548C27.5537 21.6582 27.1298 21.6092 26.7047 21.6092C23.6789 21.6092 21.2173 24.0742 21.2173 27.1042C21.2173 30.1343 23.6789 32.5993 26.7047 32.5993C29.7305 32.5993 32.1922 30.1342 32.1922 27.1042C32.1922 25.2098 31.2363 23.4727 29.6352 22.4578C29.4218 22.3225 29.3583 22.0397 29.4934 21.826C29.6284 21.6125 29.9109 21.5488 30.1243 21.6841C31.9917 22.8679 33.1066 24.8941 33.1066 27.1042C33.1066 30.6392 30.2347 33.515 26.7047 33.515C23.1747 33.515 20.3029 30.6392 20.3029 27.1042C20.3029 23.5693 23.1748 20.6935 26.7047 20.6935ZM16.7022 16.7394C17.8878 16.7394 18.8523 15.7735 18.8523 14.5862C18.8523 13.399 17.8878 12.4331 16.7022 12.4331C15.5166 12.4331 14.5521 13.399 14.5521 14.5863C14.5521 15.7735 15.5166 16.7394 16.7022 16.7394ZM16.7022 13.3488C17.3835 13.3488 17.9379 13.904 17.9379 14.5863C17.9379 15.2686 17.3835 15.8238 16.7022 15.8238C16.0208 15.8238 15.4665 15.2686 15.4665 14.5863C15.4665 13.904 16.0208 13.3488 16.7022 13.3488ZM14.6639 36.9325C14.6639 36.0627 15.3707 35.355 16.2394 35.355C17.1081 35.355 17.8149 36.0627 17.8149 36.9325C17.8149 37.8025 17.1081 38.5101 16.2394 38.5101C15.3707 38.5101 14.6639 37.8024 14.6639 36.9325ZM15.5784 36.9325C15.5784 37.2976 15.8749 37.5945 16.2394 37.5945C16.6039 37.5945 16.9005 37.2976 16.9005 36.9325C16.9005 36.5675 16.6039 36.2706 16.2394 36.2706C15.8749 36.2706 15.5784 36.5675 15.5784 36.9325ZM36.7702 36.6649C35.6099 36.6649 34.666 37.6101 34.666 38.772C34.666 39.9339 35.6099 40.8792 36.7702 40.8792C37.9305 40.8792 38.8745 39.9339 38.8745 38.772C38.8745 37.6101 37.9305 36.6649 36.7702 36.6649ZM36.7702 39.9634C36.1141 39.9634 35.5804 39.429 35.5804 38.772C35.5804 38.115 36.1141 37.5805 36.7702 37.5805C37.4263 37.5805 37.96 38.115 37.96 38.772C37.96 39.429 37.4263 39.9634 36.7702 39.9634ZM24.88 23.467C25.9788 23.467 26.8727 24.3622 26.8727 25.4625C26.8727 26.5628 25.9788 27.458 24.88 27.458C23.7812 27.458 22.8873 26.5629 22.8873 25.4625C22.8873 24.3622 23.7812 23.467 24.88 23.467ZM23.8017 25.4625C23.8017 26.058 24.2854 26.5423 24.88 26.5423C25.4746 26.5423 25.9583 26.058 25.9583 25.4625C25.9583 24.8671 25.4746 24.3827 24.88 24.3827C24.2854 24.3827 23.8017 24.8671 23.8017 25.4625ZM26.1126 31.7429C26.941 31.7429 27.615 31.068 27.615 30.2385C27.615 29.4089 26.941 28.734 26.1126 28.734C25.2843 28.734 24.6103 29.4089 24.6103 30.2385C24.6103 31.0681 25.2842 31.7429 26.1126 31.7429ZM26.1126 29.6497C26.4368 29.6497 26.7006 29.9139 26.7006 30.2385C26.7006 30.5632 26.4368 30.8273 26.1126 30.8273C25.7885 30.8273 25.5247 30.5632 25.5247 30.2385C25.5247 29.9139 25.7884 29.6497 26.1126 29.6497ZM29.3944 28.4409C28.6584 28.4409 28.0596 27.8413 28.0596 27.1042C28.0596 26.3671 28.6584 25.7675 29.3944 25.7675C30.1305 25.7675 30.7293 26.3671 30.7293 27.1042C30.7293 27.8413 30.1305 28.4409 29.3944 28.4409ZM29.8149 27.1041C29.8149 26.872 29.6263 26.6831 29.3944 26.6831C29.1625 26.6831 28.974 26.872 28.974 27.1041C28.974 27.3363 29.1626 27.5252 29.3944 27.5252C29.6263 27.5252 29.8149 27.3363 29.8149 27.1041Z" fill="white"/>
</svg>
