<svg width="55" height="55" viewBox="0 0 55 55" fill="none" xmlns="http://www.w3.org/2000/svg">
<rect width="55" height="55" rx="10" fill="#0AB4EF"/>
<path fill-rule="evenodd" clip-rule="evenodd" d="M12 16.9942C12 13.3034 24.4083 11.9084 31.5426 13.9574C36.2762 11.2239 42.2152 14.6723 42.2153 20.1427C42.2153 21.9323 41.5504 23.644 40.3433 24.9625C40.178 25.1429 39.898 25.1551 39.7179 24.9897C39.5377 24.8243 39.5256 24.5439 39.6908 24.3635C40.7478 23.2089 41.33 21.7099 41.33 20.1427C41.33 16.6975 38.531 13.8946 35.0906 13.8946C31.6268 13.8946 28.8086 16.7376 28.8522 20.2222C28.9108 24.9298 34.046 27.9407 38.184 25.5699C38.3961 25.4483 38.6665 25.5221 38.7879 25.7345C38.9093 25.947 38.8357 26.2178 38.6236 26.3393C37.6803 26.8797 36.6201 27.1955 35.5332 27.2632V30.5128C35.5332 30.7577 35.335 30.956 35.0906 30.956C34.8461 30.956 34.648 30.7577 34.648 30.5128V29.5991C30.8195 32.7712 16.7152 32.7724 12.8852 29.5991V33.509C12.8852 34.9258 17.2704 36.6086 23.7666 36.6086C30.263 36.6086 34.648 34.9258 34.648 33.509V32.5812C34.648 32.3363 34.8461 32.1379 35.0906 32.1379C35.3351 32.1379 35.5332 32.3363 35.5332 32.5812V39.0139C35.5332 41.603 29.4708 43 23.7666 43C18.0624 43 12 41.603 12 39.0139V16.9942ZM34.648 39.0139V35.1048C30.8187 38.2761 16.7154 38.2768 12.8852 35.1048V39.0139C12.8852 40.4307 17.2704 42.1136 23.7665 42.1136C30.2629 42.1136 34.648 40.4307 34.648 39.0139ZM34.648 27.2637C33.1991 27.1753 31.8284 26.6518 30.6939 25.7575C24.5902 27.2041 15.6819 26.4112 12.8852 24.095V28.0041C12.8852 29.4211 17.2713 31.1038 23.7665 31.1037C30.2618 31.1037 34.648 29.4211 34.648 28.004V27.2637ZM12.8852 22.4992C12.8852 24.7125 22.2553 26.5953 29.8965 25.0254C28.7862 23.8428 28.1199 22.3393 27.9901 20.729C22.9203 21.3585 15.533 20.7837 12.8852 18.5899V22.4992ZM12.8852 16.9942C12.8852 18.9334 20.396 20.8031 27.9723 19.8367C28.0613 17.7345 29.0414 15.8728 30.5785 14.6192C23.0724 12.8022 12.8852 14.6646 12.8852 16.9942ZM40.0429 17.8678C40.1414 17.3828 39.6657 16.9783 39.2031 17.1548L38.5002 17.4237C36.3753 14.7534 32.1462 15.4603 30.9912 18.6578C30.908 18.888 31.0269 19.1421 31.2569 19.2254C31.4865 19.3087 31.7404 19.1897 31.8236 18.9594C32.6976 16.5401 35.8346 15.8616 37.6196 17.7605L37.143 17.9427C36.6811 18.1193 36.5949 18.7385 36.9914 19.0348L38.642 20.268L38.642 20.2681C39.0118 20.5442 39.5418 20.3406 39.6335 19.8889L40.0429 17.8678ZM38.8464 19.3148L37.895 18.6039L39.0825 18.1498L38.8464 19.3148ZM38.9248 21.0584C38.695 20.9754 38.4413 21.0944 38.3582 21.3247C37.4696 23.7881 34.2561 24.4252 32.5045 22.4651L32.9741 22.2855C33.4358 22.1089 33.5223 21.4897 33.1257 21.1935L31.4749 19.9602C31.1055 19.6842 30.5752 19.8877 30.4836 20.3394L30.074 22.3602C29.9755 22.8455 30.4518 23.25 30.9138 23.0733L31.632 22.7986C33.7264 25.5361 38.0243 24.8593 39.1907 21.6257C39.2738 21.3957 39.1548 21.1416 38.9248 21.0584ZM31.0345 22.0784L31.2706 20.9135L32.222 21.6243L31.0345 22.0784Z" fill="white"/>
</svg>
