<svg width="55" height="55" viewBox="0 0 55 55" fill="none" xmlns="http://www.w3.org/2000/svg">
<rect width="55" height="55" rx="10" fill="#0AB4EF"/>
<path fill-rule="evenodd" clip-rule="evenodd" d="M13.0296 13H37.7737C38.8928 13 39.8032 13.9156 39.8032 15.0409V27.2225C39.8032 27.4908 39.5869 27.7083 39.3201 27.7083C39.0533 27.7083 38.8371 27.4908 38.8371 27.2225V19.1552H11.9661V35.7756C11.9661 36.3652 12.4432 36.845 13.0296 36.845H14.093V33.7022C14.093 32.8756 14.5833 32.1362 15.342 31.8183L17.8798 30.755C18.0847 30.6691 18.217 30.4695 18.217 30.2464V29.4879C17.5667 28.8228 17.186 27.9171 17.186 26.9634V24.8899C17.186 23.1929 18.7903 21.8123 20.7621 21.8123C22.7339 21.8123 24.3382 23.1929 24.3382 24.8899V26.9634C24.3382 27.9172 23.9575 28.8228 23.3072 29.4879V30.2464C23.3072 30.4695 23.4395 30.6691 23.6443 30.7549L26.1822 31.8183C26.941 32.1361 27.4312 32.8755 27.4312 33.7021V36.8449H29.2357C29.5024 36.8449 29.7187 37.0624 29.7187 37.3307C29.7187 37.5989 29.5024 37.8164 29.2357 37.8164H13.0296C11.9105 37.8164 11 36.9009 11 35.7756V15.0409C11 13.9156 11.9105 13 13.0296 13ZM15.7136 32.715C15.316 32.8816 15.0591 33.269 15.0591 33.7021V36.845H26.4652V33.7022C26.4652 33.2692 26.2083 32.8817 25.8108 32.7152L23.2729 31.6518C22.7069 31.4147 22.3412 30.8631 22.3412 30.2465V30.1413L22.3309 30.1421C22.3237 30.1428 22.3165 30.1434 22.3093 30.1434C22.1424 30.1434 21.9802 30.0564 21.8907 29.9008C21.7571 29.6685 21.836 29.3714 22.0669 29.237C22.8719 28.7686 23.3721 27.8974 23.3721 26.9634V24.89C23.3721 23.7286 22.2013 22.7839 20.7622 22.7839C19.3231 22.7839 18.1522 23.7287 18.1522 24.89V26.9634C18.1522 27.8971 18.652 28.7681 19.4566 29.2365C19.6874 29.3709 19.7662 29.6681 19.6325 29.9003C19.5374 30.0653 19.3605 30.1525 19.1832 30.1411V30.2464C19.1832 30.863 18.8174 31.4146 18.2515 31.6517L15.7136 32.715ZM11.9661 18.1837H38.8371V15.0409C38.8371 14.4512 38.36 13.9715 37.7737 13.9715H13.0296C12.4432 13.9715 11.9661 14.4512 11.9661 15.0409V18.1837ZM13.5451 15.5918H13.5502C13.817 15.5918 14.0333 15.8093 14.0333 16.0776C14.0333 16.3459 13.817 16.5635 13.5502 16.5635C13.2835 16.5635 13.0646 16.3459 13.0646 16.0776C13.0646 15.8093 13.2783 15.5918 13.5451 15.5918ZM16.6381 15.5918H16.6329C16.3662 15.5918 16.1525 15.8093 16.1525 16.0776C16.1525 16.3459 16.3713 16.5635 16.6381 16.5635C16.9049 16.5635 17.1212 16.3459 17.1212 16.0776C17.1212 15.8093 16.9049 15.5918 16.6381 15.5918ZM15.0864 15.5918H15.0916C15.3583 15.5918 15.5746 15.8093 15.5746 16.0776C15.5746 16.3459 15.3583 16.5635 15.0916 16.5635C14.8248 16.5635 14.6059 16.3459 14.6059 16.0776C14.6059 15.8093 14.8196 15.5918 15.0864 15.5918ZM37.2581 15.5918H18.7001C18.4333 15.5918 18.217 15.8093 18.217 16.0776C18.217 16.3459 18.4333 16.5635 18.7001 16.5635H37.2581C37.5249 16.5635 37.7412 16.3459 37.7412 16.0776C37.7412 15.8093 37.5249 15.5918 37.2581 15.5918ZM36.694 28.0595L43.6533 30.4936C43.851 30.5627 43.982 30.7521 43.9773 30.9626C43.9757 31.0406 43.9268 32.8996 43.0186 35.3081C42.181 37.5296 40.4206 40.6546 36.7904 42.9266C36.7123 42.9756 36.6237 43 36.5351 43C36.4466 43 36.358 42.9755 36.2799 42.9266C32.6497 40.6546 30.8892 37.5296 30.0517 35.3081C29.1436 32.8996 29.0946 31.0406 29.0929 30.9626C29.0873 30.6944 29.299 30.4724 29.5657 30.4667C29.8354 30.4618 30.0529 30.6736 30.0589 30.9415C30.0593 30.9593 30.1103 32.7402 30.9686 34.9993C31.7351 37.0167 33.3201 39.8342 36.5353 41.9385C39.7643 39.8253 41.3505 36.9925 42.1154 34.9638C42.7429 33.2996 42.9321 31.9099 42.9883 31.2896L36.5353 29.0326L31.6894 30.7274C31.4375 30.8155 31.1621 30.6816 31.0745 30.4282C30.9869 30.1749 31.1201 29.898 31.3721 29.8098L36.3766 28.0595C36.4794 28.0235 36.5912 28.0235 36.694 28.0595ZM39.6757 33.2331C39.4871 33.0434 39.1812 33.0434 38.9926 33.2331L36.0058 36.2365L34.2294 34.4501C34.0407 34.2604 33.7348 34.2604 33.5462 34.4501C33.3576 34.6398 33.3576 34.9474 33.5462 35.1371L35.6643 37.2669C35.7586 37.3618 35.8822 37.4092 36.0058 37.4092C36.1294 37.4092 36.2531 37.3618 36.3474 37.2669L39.6757 33.92C39.8644 33.7303 39.8644 33.4227 39.6757 33.2331ZM27.4636 21.2939H35.7117C36.2622 21.2939 36.7102 21.7443 36.7102 22.298V23.8531C36.7102 24.4068 36.2622 24.8572 35.7116 24.8572H27.4636C26.913 24.8572 26.465 24.4068 26.465 23.8531V22.298C26.465 21.7444 26.9129 21.2939 27.4636 21.2939ZM35.7116 23.8857C35.7294 23.8857 35.744 23.8711 35.744 23.8531V22.298C35.744 22.2801 35.7295 22.2654 35.7116 22.2654H27.4636C27.4457 22.2654 27.4312 22.28 27.4312 22.298V23.8531C27.4312 23.8711 27.4457 23.8858 27.4636 23.8857H35.7116ZM33.6496 25.959H27.4636C27.1968 25.959 26.9805 26.1765 26.9805 26.4448C26.9805 26.7131 27.1968 26.9307 27.4636 26.9307H33.6496C33.9164 26.9307 34.1327 26.7131 34.1327 26.4448C34.1327 26.1765 33.9164 25.959 33.6496 25.959ZM27.4636 28.0327H31.0721C31.3389 28.0327 31.5552 28.2502 31.5552 28.5184C31.5552 28.7867 31.3389 29.0042 31.0721 29.0042H27.4636C27.1968 29.0042 26.9805 28.7867 26.9805 28.5184C26.9805 28.2502 27.1968 28.0327 27.4636 28.0327Z" fill="white"/>
</svg>
